<svg width="95" height="87" viewBox="0 0 95 87" fill="none" xmlns="http://www.w3.org/2000/svg">
<mask id="path-1-outside-1_3429_4419" maskUnits="userSpaceOnUse" x="0.0556641" y="9.28253" width="86" height="78" fill="black">
<rect fill="white" x="0.0556641" y="9.28253" width="86" height="78"/>
<path d="M43.7373 86.61C42.9421 86.5767 42.1469 86.5446 41.3517 86.5113C41.1112 86.501 40.8694 86.4651 40.6302 86.4407C40.1182 86.392 39.6062 86.3419 39.0942 86.2919C38.4722 86.2316 37.8632 86.1303 37.2477 86.0302C36.6232 85.9276 35.9923 85.8442 35.3768 85.698C34.6113 85.5171 33.8459 85.3375 33.0804 85.1541C32.796 85.0861 32.5167 84.9925 32.2361 84.9078C31.7473 84.7616 31.2612 84.614 30.7724 84.4678C30.1983 84.2946 29.6385 84.0881 29.0747 83.8854C28.4618 83.6635 27.8438 83.457 27.2425 83.2068C26.4499 82.8759 25.6599 82.5436 24.8699 82.214C24.6901 82.1383 24.5169 82.0472 24.3423 81.9638C23.8756 81.7406 23.4114 81.5161 22.9446 81.2916C22.3873 81.0235 21.8468 80.7311 21.3025 80.436C20.7362 80.1307 20.1685 79.8306 19.6151 79.5009C18.9505 79.1045 18.2859 78.7056 17.62 78.3118C17.3886 78.1758 17.1701 78.0116 16.949 77.8615C16.5249 77.578 16.1007 77.2932 15.6779 77.0085C15.1763 76.6711 14.7043 76.3004 14.2259 75.9309C13.8613 75.6487 13.4954 75.3678 13.1307 75.0856C12.9859 74.9727 12.8398 74.8637 12.7028 74.7405C12.0601 74.162 11.4175 73.5834 10.7736 73.0062C10.281 72.5636 9.84137 72.0556 9.38365 71.5772C9.12893 71.3104 8.8729 71.0435 8.61818 70.7767C8.46431 70.6177 8.33114 70.4381 8.1902 70.2675C7.64973 69.6145 7.09504 68.9706 6.58043 68.2971C5.39346 66.7437 4.32284 65.0863 3.46816 63.3289C3.06604 62.5003 2.72858 61.6434 2.4661 60.7608C2.17647 59.7936 1.95405 58.8071 1.7614 57.8168C1.39677 55.935 1.12136 54.0416 1.06447 52.1239C1.00628 50.1676 1.24162 48.2281 1.61788 46.3116C1.76787 45.5484 1.97088 44.7915 2.14802 44.0347C2.30576 43.3612 2.52168 42.7006 2.71434 42.0374C2.80485 41.7295 2.89409 41.4191 2.98589 41.1112C3.06218 40.8508 3.17077 40.5943 3.26128 40.3377C3.49919 39.672 3.71255 38.9895 3.98796 38.3366C4.30992 37.5721 4.63058 36.8088 4.95254 36.0443C5.02236 35.8775 5.1051 35.7172 5.18527 35.5555C5.40767 35.1014 5.63005 34.6447 5.85245 34.1906C6.12398 33.6352 6.4201 33.1003 6.72007 32.5602C7.03298 31.9984 7.33425 31.4263 7.67301 30.8798C8.12556 30.1525 8.57809 29.4251 9.02934 28.6978C9.36164 28.1616 9.75473 27.6536 10.1181 27.1367C10.3521 26.8031 10.5861 26.4683 10.8215 26.1348C11.1615 25.6499 11.5352 25.1894 11.905 24.7289C13.1178 23.2178 14.4638 21.8067 15.9197 20.5265C17.3614 19.2591 18.935 18.1444 20.559 17.1207C22.2154 16.0778 23.948 15.153 25.7336 14.3487C27.5231 13.5405 29.3747 12.8773 31.2612 12.3308C32.1443 12.0756 33.0339 11.8485 33.9299 11.6446C34.716 11.4663 35.5125 11.2867 36.3103 11.1687C37.1572 11.0429 38.0029 10.9198 38.8485 10.7941C39.1898 10.744 39.5325 10.694 39.8738 10.644C40.6147 10.5337 41.3659 10.4747 42.112 10.4144C43.0688 10.3361 44.027 10.3002 44.9864 10.2887C45.8048 10.2784 46.6375 10.2733 47.4521 10.3387C48.3042 10.4067 49.1563 10.476 50.0084 10.5439C51.3789 10.6543 52.734 10.8954 54.0929 11.0981C54.2753 11.125 54.4563 11.1738 54.6373 11.2123C55.1338 11.3187 55.6316 11.4252 56.1281 11.5317C56.6905 11.651 57.253 11.7664 57.8077 11.9178C58.3986 12.0807 58.9895 12.2423 59.5804 12.4065C59.914 12.4989 60.2593 12.5733 60.5851 12.6887C61.1139 12.876 61.6427 13.0659 62.1716 13.2532C62.5427 13.3853 62.9176 13.5084 63.281 13.6636C63.824 13.8958 64.3684 14.1293 64.9115 14.3628C65.6549 14.6822 66.3764 15.0426 67.0785 15.4416C68.122 16.0342 69.1227 16.7013 69.9865 17.5338C70.5942 18.1187 71.198 18.8448 71.3583 19.6927C71.3958 19.8915 71.3868 20.0891 71.3364 20.2751C71.6376 20.2725 71.9363 20.3713 72.1626 20.5868C72.4238 20.8357 72.6824 21.0858 72.9397 21.3372C73.0276 21.4219 73.1142 21.5065 73.2009 21.5925C73.3276 21.7169 73.4698 21.8375 73.5862 21.9748C73.6275 22.0145 73.6689 22.0556 73.7103 22.0966C74.159 22.543 74.6025 22.9959 75.0408 23.4538C75.9537 24.4056 76.8006 25.4152 77.61 26.4542C78.4362 27.5138 79.168 28.6311 79.8275 29.7984C80.5011 30.9888 81.0946 32.2088 81.6351 33.4646C82.1795 34.7281 82.6139 36.0391 83.0005 37.3565C83.3806 38.6483 83.6974 39.9593 83.9444 41.2831C84.203 42.6814 84.3982 44.0873 84.5741 45.4983C84.9064 48.1665 85.0641 50.8488 84.8766 53.5324C84.8249 54.2841 84.7823 55.0422 84.6737 55.7888C84.5702 56.484 84.4551 57.1742 84.3271 57.8669C84.2069 58.5082 84.0621 59.1471 83.916 59.7833C83.85 60.0719 83.784 60.3593 83.7052 60.6453C83.6069 60.9968 83.5255 61.3586 83.4117 61.7062C83.188 62.3887 82.9604 63.0672 82.7096 63.742C82.451 64.4347 82.1601 65.112 81.8704 65.7919C81.7631 66.0407 81.6338 66.2806 81.5123 66.523C81.3545 66.836 81.2071 67.1542 81.03 67.4582C80.6808 68.0585 80.3395 68.6589 79.9516 69.2335C79.7719 69.4978 79.6051 69.7787 79.4111 70.0327C79.1461 70.3791 78.881 70.7267 78.6147 71.0743C78.1867 71.6349 77.7225 72.1698 77.2699 72.7099C76.8613 73.196 76.4153 73.654 75.9899 74.1248C75.7714 74.3672 75.5283 74.593 75.2994 74.8265C75.0318 75.0984 74.7719 75.3845 74.4913 75.6449C74.2443 75.8745 73.9974 76.1028 73.7504 76.3312C73.5009 76.5608 73.2616 76.8071 73.0017 77.0226C72.7263 77.2522 72.4483 77.4805 72.1716 77.7088C71.8833 77.9474 71.6027 78.2014 71.2988 78.4221C70.7351 78.8326 70.1727 79.243 69.6089 79.6523C69.349 79.8408 69.0607 79.9999 68.7905 80.1718C68.4504 80.3886 68.109 80.6041 67.7677 80.8222C67.5298 80.9722 67.2725 81.0992 67.0268 81.2339C66.6053 81.4661 66.1825 81.6996 65.7622 81.9318C65.1701 82.2576 64.5404 82.5231 63.9301 82.8117C63.3198 83.1016 62.6927 83.3454 62.0656 83.5968C61.7397 83.7276 61.4139 83.8572 61.0881 83.988C60.8049 84.1009 60.5049 84.1805 60.2153 84.2767C59.5662 84.4896 58.9223 84.7077 58.2603 84.8809C57.5944 85.0553 56.9298 85.2529 56.2548 85.3914C55.801 85.4838 55.3497 85.5787 54.8959 85.671C54.6502 85.7211 54.4045 85.7801 54.1563 85.8198C53.3766 85.9417 52.5969 86.0623 51.8186 86.1842C51.0764 86.2996 50.32 86.3509 49.5726 86.4279C48.9339 86.4959 48.2938 86.519 47.6525 86.5536C47.0099 86.5882 46.3737 86.6088 45.7311 86.6126C45.3109 86.6152 44.8906 86.6254 44.4691 86.6254C44.2248 86.6242 43.9817 86.6203 43.7373 86.61ZM40.8669 83.9252C41.4267 83.9791 41.9814 84.0047 42.5439 84.0278C43.1516 84.0535 43.7619 84.0945 44.3696 84.0919C45.0794 84.0868 45.7919 84.083 46.503 84.0791C47.3124 84.0355 48.1232 83.9932 48.9313 83.9496C49.3451 83.9265 49.7627 83.8623 50.1752 83.8187C50.5812 83.7751 50.9859 83.7315 51.3893 83.6904C51.9815 83.5981 52.5763 83.5044 53.1685 83.4121C53.6507 83.3364 54.1239 83.2415 54.6011 83.144C55.1325 83.0337 55.6704 82.9439 56.1953 82.8053C56.8199 82.6411 57.4457 82.4769 58.0715 82.3127C58.793 82.0741 59.5158 81.8381 60.2373 81.5995C60.6109 81.4764 60.9756 81.3045 61.3402 81.1582C61.6686 81.0261 61.997 80.8953 62.3267 80.7644C63.0314 80.4309 63.7361 80.0987 64.4408 79.7651C64.7524 79.6176 65.0511 79.4291 65.3536 79.2636C65.6976 79.0737 66.0402 78.8851 66.3842 78.6953C66.9815 78.3169 67.5789 77.9372 68.1763 77.5562C68.453 77.3792 68.7129 77.1662 68.9779 76.9725C69.2469 76.7763 69.5158 76.5813 69.7848 76.3863C70.2942 75.9643 70.8049 75.5435 71.3157 75.1202C71.5432 74.9316 71.754 74.7149 71.9725 74.5147C72.2441 74.2633 72.5169 74.0119 72.7884 73.7592C73.3922 73.1473 73.9961 72.538 74.574 71.9004C74.8598 71.5849 75.1533 71.2757 75.4274 70.9499C75.7571 70.5561 76.0881 70.161 76.4191 69.7659C76.6558 69.4567 76.8924 69.1463 77.129 68.8385C77.3281 68.578 77.5091 68.3048 77.6927 68.0329C77.8802 67.7558 78.0768 67.4826 78.2461 67.1926C78.4479 66.845 78.6508 66.4987 78.8526 66.151C79.0788 65.6956 79.3077 65.2403 79.5353 64.7849C79.64 64.5745 79.7215 64.3474 79.8133 64.1319C79.9077 63.91 80.002 63.6881 80.0964 63.4662C80.3214 62.8646 80.5477 62.2668 80.7481 61.6562C80.9537 61.0289 81.1334 60.3991 81.3092 59.7628C81.4786 59.0265 81.6403 58.2889 81.7929 57.55C81.939 56.8355 82.0514 56.1172 82.1575 55.3975C82.2441 54.5611 82.3165 53.7261 82.3605 52.8858C82.4044 52.0482 82.4174 51.2144 82.4135 50.3767C82.3643 49.2222 82.2829 48.078 82.1717 46.9286C82.0631 45.7972 81.9092 44.6697 81.7502 43.546C81.6105 42.6891 81.4657 41.8334 81.2873 40.983C81.1088 40.1363 80.8994 39.2987 80.677 38.4623C80.483 37.8042 80.2891 37.1474 80.0641 36.4996C79.8262 35.8134 79.5702 35.1373 79.2999 34.4639C79.0168 33.8058 78.7258 33.1516 78.4 32.5141C78.0522 31.8316 77.685 31.1646 77.2997 30.504C76.7967 29.665 76.2485 28.8646 75.6615 28.0834C75.0757 27.3342 74.4758 26.5979 73.837 25.8924C73.1853 25.1727 72.5065 24.4788 71.8199 23.7925C71.8419 23.8143 71.8626 23.8348 71.8846 23.8553C71.8548 23.8258 71.8251 23.7963 71.7954 23.7668C71.7863 23.7578 71.7773 23.7476 71.7669 23.7386C71.7721 23.7437 71.7785 23.7501 71.7837 23.7553C71.7734 23.745 71.763 23.7347 71.7527 23.7245C71.7294 23.7027 71.7062 23.6809 71.6855 23.6578C71.6648 23.6372 71.6428 23.6154 71.6221 23.5949C71.6117 23.5846 71.6014 23.5757 71.5911 23.5654C71.2252 23.2062 70.8579 22.8496 70.4869 22.4956C70.1313 22.1556 69.9813 21.6695 70.0951 21.2218C69.521 21.2077 68.9779 20.801 68.868 20.2186C68.8655 20.202 68.8615 20.1853 68.8577 20.1686C68.8525 20.1545 68.846 20.1417 68.8409 20.1276C68.824 20.0968 68.8085 20.066 68.7917 20.0352C68.7542 19.9749 68.7129 19.9159 68.6715 19.8595C68.5383 19.694 68.4 19.5388 68.2526 19.3861C67.9849 19.1321 67.7056 18.8948 67.4134 18.6678C66.8898 18.2868 66.3441 17.9404 65.7829 17.6172C65.0731 17.2272 64.3477 16.8783 63.6042 16.5589C63.1194 16.3511 62.6332 16.1433 62.1483 15.9342C61.6983 15.7738 61.2484 15.6148 60.7984 15.4544C60.4299 15.3236 60.0614 15.1658 59.6838 15.0619C58.7167 14.7951 57.7483 14.5295 56.7798 14.2627C55.7402 14.0434 54.7032 13.8137 53.6624 13.5957C53.5201 13.5649 53.3714 13.5521 53.2266 13.5303C52.8555 13.4751 52.4831 13.4199 52.1121 13.3648C51.5806 13.2852 51.0492 13.2057 50.5178 13.1274C49.7872 13.0684 49.058 13.0094 48.3274 12.9517C47.9848 12.9235 47.6422 12.8966 47.2995 12.8683C46.9711 12.8414 46.6388 12.8414 46.3104 12.8324C45.7621 12.8183 45.2139 12.817 44.6644 12.8234C43.2149 12.8555 41.772 12.9735 40.3316 13.1339C39.4109 13.2698 38.4903 13.4045 37.5684 13.5405C35.8462 13.7945 34.1446 14.1665 32.4662 14.6219C30.8293 15.0811 29.2234 15.6301 27.6524 16.2792C26.1344 16.9245 24.6617 17.6595 23.2303 18.4754C21.8339 19.2886 20.4801 20.1699 19.191 21.1422C18.1747 21.926 17.2063 22.7611 16.2896 23.6578C15.1776 24.7763 14.1535 25.9668 13.1902 27.2111C12.8631 27.6434 12.5605 28.0949 12.2476 28.5387C11.9076 29.0236 11.5675 29.5072 11.2262 29.9921C10.9624 30.368 10.7374 30.7759 10.4956 31.1659C10.2202 31.6084 9.94478 32.051 9.66937 32.4948C9.33966 33.0875 9.01126 33.6801 8.68155 34.2728C8.39838 34.782 8.14751 35.3041 7.8915 35.8275C7.6329 36.3573 7.36398 36.8806 7.13641 37.4245C6.86358 38.0749 6.58816 38.724 6.31534 39.3756C6.01666 40.2107 5.71799 41.0445 5.4206 41.8796C5.28355 42.2632 5.18916 42.6672 5.07538 43.0585C4.94349 43.5087 4.81291 43.959 4.68102 44.4092C4.54784 44.9826 4.41333 45.5573 4.28016 46.132C4.05647 47.0903 3.87934 48.0536 3.75779 49.0298C3.65823 49.9573 3.60265 50.8834 3.60911 51.816C3.63627 52.9153 3.72936 54.0083 3.88193 55.0973C4.12372 56.679 4.4224 58.2517 4.84004 59.7974C5.00167 60.3542 5.18915 60.8968 5.40766 61.4356C5.75289 62.2347 6.14727 63.0095 6.5856 63.7638C7.25537 64.8772 7.98849 65.9471 8.77463 66.9836C9.34743 67.6775 9.9228 68.3689 10.4943 69.0642C10.5784 69.1656 10.6779 69.2554 10.7697 69.3503C11.0051 69.5966 11.2404 69.8429 11.4757 70.0891C11.7783 70.4047 12.0795 70.7216 12.3821 71.0358C13.0894 71.6747 13.8005 72.3084 14.5078 72.9472C14.6022 73.0331 14.7134 73.1063 14.8142 73.1845C15.0819 73.3897 15.347 73.5963 15.6146 73.8015C15.9805 74.0837 16.3451 74.3672 16.7124 74.6494C17.4843 75.1677 18.2562 75.6859 19.0294 76.2042C19.3889 76.4466 19.7793 76.6518 20.153 76.8738C20.5383 77.1047 20.9249 77.3356 21.3128 77.5652C21.9425 77.9038 22.5709 78.2463 23.1993 78.5875C23.7295 78.8736 24.279 79.1238 24.8221 79.3854C25.3405 79.6343 25.8526 79.8857 26.3827 80.1077C27.077 80.3976 27.7701 80.69 28.4644 80.9799C29.3359 81.2929 30.2061 81.6059 31.0776 81.9202C31.4874 82.069 31.918 82.1742 32.3357 82.2999C32.7779 82.4333 33.2226 82.5667 33.6649 82.7001C34.4963 82.899 35.3276 83.0927 36.159 83.2915C36.2909 83.3223 36.4293 83.3364 36.5625 83.3582C36.8611 83.407 37.1611 83.457 37.4611 83.5057C37.9227 83.5827 38.383 83.6584 38.8446 83.7341C39.517 83.7931 40.1919 83.8585 40.8669 83.9252Z"/>
</mask>
<path d="M43.7373 86.61C42.9421 86.5767 42.1469 86.5446 41.3517 86.5113C41.1112 86.501 40.8694 86.4651 40.6302 86.4407C40.1182 86.392 39.6062 86.3419 39.0942 86.2919C38.4722 86.2316 37.8632 86.1303 37.2477 86.0302C36.6232 85.9276 35.9923 85.8442 35.3768 85.698C34.6113 85.5171 33.8459 85.3375 33.0804 85.1541C32.796 85.0861 32.5167 84.9925 32.2361 84.9078C31.7473 84.7616 31.2612 84.614 30.7724 84.4678C30.1983 84.2946 29.6385 84.0881 29.0747 83.8854C28.4618 83.6635 27.8438 83.457 27.2425 83.2068C26.4499 82.8759 25.6599 82.5436 24.8699 82.214C24.6901 82.1383 24.5169 82.0472 24.3423 81.9638C23.8756 81.7406 23.4114 81.5161 22.9446 81.2916C22.3873 81.0235 21.8468 80.7311 21.3025 80.436C20.7362 80.1307 20.1685 79.8306 19.6151 79.5009C18.9505 79.1045 18.2859 78.7056 17.62 78.3118C17.3886 78.1758 17.1701 78.0116 16.949 77.8615C16.5249 77.578 16.1007 77.2932 15.6779 77.0085C15.1763 76.6711 14.7043 76.3004 14.2259 75.9309C13.8613 75.6487 13.4954 75.3678 13.1307 75.0856C12.9859 74.9727 12.8398 74.8637 12.7028 74.7405C12.0601 74.162 11.4175 73.5834 10.7736 73.0062C10.281 72.5636 9.84137 72.0556 9.38365 71.5772C9.12893 71.3104 8.8729 71.0435 8.61818 70.7767C8.46431 70.6177 8.33114 70.4381 8.1902 70.2675C7.64973 69.6145 7.09504 68.9706 6.58043 68.2971C5.39346 66.7437 4.32284 65.0863 3.46816 63.3289C3.06604 62.5003 2.72858 61.6434 2.4661 60.7608C2.17647 59.7936 1.95405 58.8071 1.7614 57.8168C1.39677 55.935 1.12136 54.0416 1.06447 52.1239C1.00628 50.1676 1.24162 48.2281 1.61788 46.3116C1.76787 45.5484 1.97088 44.7915 2.14802 44.0347C2.30576 43.3612 2.52168 42.7006 2.71434 42.0374C2.80485 41.7295 2.89409 41.4191 2.98589 41.1112C3.06218 40.8508 3.17077 40.5943 3.26128 40.3377C3.49919 39.672 3.71255 38.9895 3.98796 38.3366C4.30992 37.5721 4.63058 36.8088 4.95254 36.0443C5.02236 35.8775 5.1051 35.7172 5.18527 35.5555C5.40767 35.1014 5.63005 34.6447 5.85245 34.1906C6.12398 33.6352 6.4201 33.1003 6.72007 32.5602C7.03298 31.9984 7.33425 31.4263 7.67301 30.8798C8.12556 30.1525 8.57809 29.4251 9.02934 28.6978C9.36164 28.1616 9.75473 27.6536 10.1181 27.1367C10.3521 26.8031 10.5861 26.4683 10.8215 26.1348C11.1615 25.6499 11.5352 25.1894 11.905 24.7289C13.1178 23.2178 14.4638 21.8067 15.9197 20.5265C17.3614 19.2591 18.935 18.1444 20.559 17.1207C22.2154 16.0778 23.948 15.153 25.7336 14.3487C27.5231 13.5405 29.3747 12.8773 31.2612 12.3308C32.1443 12.0756 33.0339 11.8485 33.9299 11.6446C34.716 11.4663 35.5125 11.2867 36.3103 11.1687C37.1572 11.0429 38.0029 10.9198 38.8485 10.7941C39.1898 10.744 39.5325 10.694 39.8738 10.644C40.6147 10.5337 41.3659 10.4747 42.112 10.4144C43.0688 10.3361 44.027 10.3002 44.9864 10.2887C45.8048 10.2784 46.6375 10.2733 47.4521 10.3387C48.3042 10.4067 49.1563 10.476 50.0084 10.5439C51.3789 10.6543 52.734 10.8954 54.0929 11.0981C54.2753 11.125 54.4563 11.1738 54.6373 11.2123C55.1338 11.3187 55.6316 11.4252 56.1281 11.5317C56.6905 11.651 57.253 11.7664 57.8077 11.9178C58.3986 12.0807 58.9895 12.2423 59.5804 12.4065C59.914 12.4989 60.2593 12.5733 60.5851 12.6887C61.1139 12.876 61.6427 13.0659 62.1716 13.2532C62.5427 13.3853 62.9176 13.5084 63.281 13.6636C63.824 13.8958 64.3684 14.1293 64.9115 14.3628C65.6549 14.6822 66.3764 15.0426 67.0785 15.4416C68.122 16.0342 69.1227 16.7013 69.9865 17.5338C70.5942 18.1187 71.198 18.8448 71.3583 19.6927C71.3958 19.8915 71.3868 20.0891 71.3364 20.2751C71.6376 20.2725 71.9363 20.3713 72.1626 20.5868C72.4238 20.8357 72.6824 21.0858 72.9397 21.3372C73.0276 21.4219 73.1142 21.5065 73.2009 21.5925C73.3276 21.7169 73.4698 21.8375 73.5862 21.9748C73.6275 22.0145 73.6689 22.0556 73.7103 22.0966C74.159 22.543 74.6025 22.9959 75.0408 23.4538C75.9537 24.4056 76.8006 25.4152 77.61 26.4542C78.4362 27.5138 79.168 28.6311 79.8275 29.7984C80.5011 30.9888 81.0946 32.2088 81.6351 33.4646C82.1795 34.7281 82.6139 36.0391 83.0005 37.3565C83.3806 38.6483 83.6974 39.9593 83.9444 41.2831C84.203 42.6814 84.3982 44.0873 84.5741 45.4983C84.9064 48.1665 85.0641 50.8488 84.8766 53.5324C84.8249 54.2841 84.7823 55.0422 84.6737 55.7888C84.5702 56.484 84.4551 57.1742 84.3271 57.8669C84.2069 58.5082 84.0621 59.1471 83.916 59.7833C83.85 60.0719 83.784 60.3593 83.7052 60.6453C83.6069 60.9968 83.5255 61.3586 83.4117 61.7062C83.188 62.3887 82.9604 63.0672 82.7096 63.742C82.451 64.4347 82.1601 65.112 81.8704 65.7919C81.7631 66.0407 81.6338 66.2806 81.5123 66.523C81.3545 66.836 81.2071 67.1542 81.03 67.4582C80.6808 68.0585 80.3395 68.6589 79.9516 69.2335C79.7719 69.4978 79.6051 69.7787 79.4111 70.0327C79.1461 70.3791 78.881 70.7267 78.6147 71.0743C78.1867 71.6349 77.7225 72.1698 77.2699 72.7099C76.8613 73.196 76.4153 73.654 75.9899 74.1248C75.7714 74.3672 75.5283 74.593 75.2994 74.8265C75.0318 75.0984 74.7719 75.3845 74.4913 75.6449C74.2443 75.8745 73.9974 76.1028 73.7504 76.3312C73.5009 76.5608 73.2616 76.8071 73.0017 77.0226C72.7263 77.2522 72.4483 77.4805 72.1716 77.7088C71.8833 77.9474 71.6027 78.2014 71.2988 78.4221C70.7351 78.8326 70.1727 79.243 69.6089 79.6523C69.349 79.8408 69.0607 79.9999 68.7905 80.1718C68.4504 80.3886 68.109 80.6041 67.7677 80.8222C67.5298 80.9722 67.2725 81.0992 67.0268 81.2339C66.6053 81.4661 66.1825 81.6996 65.7622 81.9318C65.1701 82.2576 64.5404 82.5231 63.9301 82.8117C63.3198 83.1016 62.6927 83.3454 62.0656 83.5968C61.7397 83.7276 61.4139 83.8572 61.0881 83.988C60.8049 84.1009 60.5049 84.1805 60.2153 84.2767C59.5662 84.4896 58.9223 84.7077 58.2603 84.8809C57.5944 85.0553 56.9298 85.2529 56.2548 85.3914C55.801 85.4838 55.3497 85.5787 54.8959 85.671C54.6502 85.7211 54.4045 85.7801 54.1563 85.8198C53.3766 85.9417 52.5969 86.0623 51.8186 86.1842C51.0764 86.2996 50.32 86.3509 49.5726 86.4279C48.9339 86.4959 48.2938 86.519 47.6525 86.5536C47.0099 86.5882 46.3737 86.6088 45.7311 86.6126C45.3109 86.6152 44.8906 86.6254 44.4691 86.6254C44.2248 86.6242 43.9817 86.6203 43.7373 86.61ZM40.8669 83.9252C41.4267 83.9791 41.9814 84.0047 42.5439 84.0278C43.1516 84.0535 43.7619 84.0945 44.3696 84.0919C45.0794 84.0868 45.7919 84.083 46.503 84.0791C47.3124 84.0355 48.1232 83.9932 48.9313 83.9496C49.3451 83.9265 49.7627 83.8623 50.1752 83.8187C50.5812 83.7751 50.9859 83.7315 51.3893 83.6904C51.9815 83.5981 52.5763 83.5044 53.1685 83.4121C53.6507 83.3364 54.1239 83.2415 54.6011 83.144C55.1325 83.0337 55.6704 82.9439 56.1953 82.8053C56.8199 82.6411 57.4457 82.4769 58.0715 82.3127C58.793 82.0741 59.5158 81.8381 60.2373 81.5995C60.6109 81.4764 60.9756 81.3045 61.3402 81.1582C61.6686 81.0261 61.997 80.8953 62.3267 80.7644C63.0314 80.4309 63.7361 80.0987 64.4408 79.7651C64.7524 79.6176 65.0511 79.4291 65.3536 79.2636C65.6976 79.0737 66.0402 78.8851 66.3842 78.6953C66.9815 78.3169 67.5789 77.9372 68.1763 77.5562C68.453 77.3792 68.7129 77.1662 68.9779 76.9725C69.2469 76.7763 69.5158 76.5813 69.7848 76.3863C70.2942 75.9643 70.8049 75.5435 71.3157 75.1202C71.5432 74.9316 71.754 74.7149 71.9725 74.5147C72.2441 74.2633 72.5169 74.0119 72.7884 73.7592C73.3922 73.1473 73.9961 72.538 74.574 71.9004C74.8598 71.5849 75.1533 71.2757 75.4274 70.9499C75.7571 70.5561 76.0881 70.161 76.4191 69.7659C76.6558 69.4567 76.8924 69.1463 77.129 68.8385C77.3281 68.578 77.5091 68.3048 77.6927 68.0329C77.8802 67.7558 78.0768 67.4826 78.2461 67.1926C78.4479 66.845 78.6508 66.4987 78.8526 66.151C79.0788 65.6956 79.3077 65.2403 79.5353 64.7849C79.64 64.5745 79.7215 64.3474 79.8133 64.1319C79.9077 63.91 80.002 63.6881 80.0964 63.4662C80.3214 62.8646 80.5477 62.2668 80.7481 61.6562C80.9537 61.0289 81.1334 60.3991 81.3092 59.7628C81.4786 59.0265 81.6403 58.2889 81.7929 57.55C81.939 56.8355 82.0514 56.1172 82.1575 55.3975C82.2441 54.5611 82.3165 53.7261 82.3605 52.8858C82.4044 52.0482 82.4174 51.2144 82.4135 50.3767C82.3643 49.2222 82.2829 48.078 82.1717 46.9286C82.0631 45.7972 81.9092 44.6697 81.7502 43.546C81.6105 42.6891 81.4657 41.8334 81.2873 40.983C81.1088 40.1363 80.8994 39.2987 80.677 38.4623C80.483 37.8042 80.2891 37.1474 80.0641 36.4996C79.8262 35.8134 79.5702 35.1373 79.2999 34.4639C79.0168 33.8058 78.7258 33.1516 78.4 32.5141C78.0522 31.8316 77.685 31.1646 77.2997 30.504C76.7967 29.665 76.2485 28.8646 75.6615 28.0834C75.0757 27.3342 74.4758 26.5979 73.837 25.8924C73.1853 25.1727 72.5065 24.4788 71.8199 23.7925C71.8419 23.8143 71.8626 23.8348 71.8846 23.8553C71.8548 23.8258 71.8251 23.7963 71.7954 23.7668C71.7863 23.7578 71.7773 23.7476 71.7669 23.7386C71.7721 23.7437 71.7785 23.7501 71.7837 23.7553C71.7734 23.745 71.763 23.7347 71.7527 23.7245C71.7294 23.7027 71.7062 23.6809 71.6855 23.6578C71.6648 23.6372 71.6428 23.6154 71.6221 23.5949C71.6117 23.5846 71.6014 23.5757 71.5911 23.5654C71.2252 23.2062 70.8579 22.8496 70.4869 22.4956C70.1313 22.1556 69.9813 21.6695 70.0951 21.2218C69.521 21.2077 68.9779 20.801 68.868 20.2186C68.8655 20.202 68.8615 20.1853 68.8577 20.1686C68.8525 20.1545 68.846 20.1417 68.8409 20.1276C68.824 20.0968 68.8085 20.066 68.7917 20.0352C68.7542 19.9749 68.7129 19.9159 68.6715 19.8595C68.5383 19.694 68.4 19.5388 68.2526 19.3861C67.9849 19.1321 67.7056 18.8948 67.4134 18.6678C66.8898 18.2868 66.3441 17.9404 65.7829 17.6172C65.0731 17.2272 64.3477 16.8783 63.6042 16.5589C63.1194 16.3511 62.6332 16.1433 62.1483 15.9342C61.6983 15.7738 61.2484 15.6148 60.7984 15.4544C60.4299 15.3236 60.0614 15.1658 59.6838 15.0619C58.7167 14.7951 57.7483 14.5295 56.7798 14.2627C55.7402 14.0434 54.7032 13.8137 53.6624 13.5957C53.5201 13.5649 53.3714 13.5521 53.2266 13.5303C52.8555 13.4751 52.4831 13.4199 52.1121 13.3648C51.5806 13.2852 51.0492 13.2057 50.5178 13.1274C49.7872 13.0684 49.058 13.0094 48.3274 12.9517C47.9848 12.9235 47.6422 12.8966 47.2995 12.8683C46.9711 12.8414 46.6388 12.8414 46.3104 12.8324C45.7621 12.8183 45.2139 12.817 44.6644 12.8234C43.2149 12.8555 41.772 12.9735 40.3316 13.1339C39.4109 13.2698 38.4903 13.4045 37.5684 13.5405C35.8462 13.7945 34.1446 14.1665 32.4662 14.6219C30.8293 15.0811 29.2234 15.6301 27.6524 16.2792C26.1344 16.9245 24.6617 17.6595 23.2303 18.4754C21.8339 19.2886 20.4801 20.1699 19.191 21.1422C18.1747 21.926 17.2063 22.7611 16.2896 23.6578C15.1776 24.7763 14.1535 25.9668 13.1902 27.2111C12.8631 27.6434 12.5605 28.0949 12.2476 28.5387C11.9076 29.0236 11.5675 29.5072 11.2262 29.9921C10.9624 30.368 10.7374 30.7759 10.4956 31.1659C10.2202 31.6084 9.94478 32.051 9.66937 32.4948C9.33966 33.0875 9.01126 33.6801 8.68155 34.2728C8.39838 34.782 8.14751 35.3041 7.8915 35.8275C7.6329 36.3573 7.36398 36.8806 7.13641 37.4245C6.86358 38.0749 6.58816 38.724 6.31534 39.3756C6.01666 40.2107 5.71799 41.0445 5.4206 41.8796C5.28355 42.2632 5.18916 42.6672 5.07538 43.0585C4.94349 43.5087 4.81291 43.959 4.68102 44.4092C4.54784 44.9826 4.41333 45.5573 4.28016 46.132C4.05647 47.0903 3.87934 48.0536 3.75779 49.0298C3.65823 49.9573 3.60265 50.8834 3.60911 51.816C3.63627 52.9153 3.72936 54.0083 3.88193 55.0973C4.12372 56.679 4.4224 58.2517 4.84004 59.7974C5.00167 60.3542 5.18915 60.8968 5.40766 61.4356C5.75289 62.2347 6.14727 63.0095 6.5856 63.7638C7.25537 64.8772 7.98849 65.9471 8.77463 66.9836C9.34743 67.6775 9.9228 68.3689 10.4943 69.0642C10.5784 69.1656 10.6779 69.2554 10.7697 69.3503C11.0051 69.5966 11.2404 69.8429 11.4757 70.0891C11.7783 70.4047 12.0795 70.7216 12.3821 71.0358C13.0894 71.6747 13.8005 72.3084 14.5078 72.9472C14.6022 73.0331 14.7134 73.1063 14.8142 73.1845C15.0819 73.3897 15.347 73.5963 15.6146 73.8015C15.9805 74.0837 16.3451 74.3672 16.7124 74.6494C17.4843 75.1677 18.2562 75.6859 19.0294 76.2042C19.3889 76.4466 19.7793 76.6518 20.153 76.8738C20.5383 77.1047 20.9249 77.3356 21.3128 77.5652C21.9425 77.9038 22.5709 78.2463 23.1993 78.5875C23.7295 78.8736 24.279 79.1238 24.8221 79.3854C25.3405 79.6343 25.8526 79.8857 26.3827 80.1077C27.077 80.3976 27.7701 80.69 28.4644 80.9799C29.3359 81.2929 30.2061 81.6059 31.0776 81.9202C31.4874 82.069 31.918 82.1742 32.3357 82.2999C32.7779 82.4333 33.2226 82.5667 33.6649 82.7001C34.4963 82.899 35.3276 83.0927 36.159 83.2915C36.2909 83.3223 36.4293 83.3364 36.5625 83.3582C36.8611 83.407 37.1611 83.457 37.4611 83.5057C37.9227 83.5827 38.383 83.6584 38.8446 83.7341C39.517 83.7931 40.1919 83.8585 40.8669 83.9252Z" fill="#F4A672"/>
<path d="M43.7373 86.61C42.9421 86.5767 42.1469 86.5446 41.3517 86.5113C41.1112 86.501 40.8694 86.4651 40.6302 86.4407C40.1182 86.392 39.6062 86.3419 39.0942 86.2919C38.4722 86.2316 37.8632 86.1303 37.2477 86.0302C36.6232 85.9276 35.9923 85.8442 35.3768 85.698C34.6113 85.5171 33.8459 85.3375 33.0804 85.1541C32.796 85.0861 32.5167 84.9925 32.2361 84.9078C31.7473 84.7616 31.2612 84.614 30.7724 84.4678C30.1983 84.2946 29.6385 84.0881 29.0747 83.8854C28.4618 83.6635 27.8438 83.457 27.2425 83.2068C26.4499 82.8759 25.6599 82.5436 24.8699 82.214C24.6901 82.1383 24.5169 82.0472 24.3423 81.9638C23.8756 81.7406 23.4114 81.5161 22.9446 81.2916C22.3873 81.0235 21.8468 80.7311 21.3025 80.436C20.7362 80.1307 20.1685 79.8306 19.6151 79.5009C18.9505 79.1045 18.2859 78.7056 17.62 78.3118C17.3886 78.1758 17.1701 78.0116 16.949 77.8615C16.5249 77.578 16.1007 77.2932 15.6779 77.0085C15.1763 76.6711 14.7043 76.3004 14.2259 75.9309C13.8613 75.6487 13.4954 75.3678 13.1307 75.0856C12.9859 74.9727 12.8398 74.8637 12.7028 74.7405C12.0601 74.162 11.4175 73.5834 10.7736 73.0062C10.281 72.5636 9.84137 72.0556 9.38365 71.5772C9.12893 71.3104 8.8729 71.0435 8.61818 70.7767C8.46431 70.6177 8.33114 70.4381 8.1902 70.2675C7.64973 69.6145 7.09504 68.9706 6.58043 68.2971C5.39346 66.7437 4.32284 65.0863 3.46816 63.3289C3.06604 62.5003 2.72858 61.6434 2.4661 60.7608C2.17647 59.7936 1.95405 58.8071 1.7614 57.8168C1.39677 55.935 1.12136 54.0416 1.06447 52.1239C1.00628 50.1676 1.24162 48.2281 1.61788 46.3116C1.76787 45.5484 1.97088 44.7915 2.14802 44.0347C2.30576 43.3612 2.52168 42.7006 2.71434 42.0374C2.80485 41.7295 2.89409 41.4191 2.98589 41.1112C3.06218 40.8508 3.17077 40.5943 3.26128 40.3377C3.49919 39.672 3.71255 38.9895 3.98796 38.3366C4.30992 37.5721 4.63058 36.8088 4.95254 36.0443C5.02236 35.8775 5.1051 35.7172 5.18527 35.5555C5.40767 35.1014 5.63005 34.6447 5.85245 34.1906C6.12398 33.6352 6.4201 33.1003 6.72007 32.5602C7.03298 31.9984 7.33425 31.4263 7.67301 30.8798C8.12556 30.1525 8.57809 29.4251 9.02934 28.6978C9.36164 28.1616 9.75473 27.6536 10.1181 27.1367C10.3521 26.8031 10.5861 26.4683 10.8215 26.1348C11.1615 25.6499 11.5352 25.1894 11.905 24.7289C13.1178 23.2178 14.4638 21.8067 15.9197 20.5265C17.3614 19.2591 18.935 18.1444 20.559 17.1207C22.2154 16.0778 23.948 15.153 25.7336 14.3487C27.5231 13.5405 29.3747 12.8773 31.2612 12.3308C32.1443 12.0756 33.0339 11.8485 33.9299 11.6446C34.716 11.4663 35.5125 11.2867 36.3103 11.1687C37.1572 11.0429 38.0029 10.9198 38.8485 10.7941C39.1898 10.744 39.5325 10.694 39.8738 10.644C40.6147 10.5337 41.3659 10.4747 42.112 10.4144C43.0688 10.3361 44.027 10.3002 44.9864 10.2887C45.8048 10.2784 46.6375 10.2733 47.4521 10.3387C48.3042 10.4067 49.1563 10.476 50.0084 10.5439C51.3789 10.6543 52.734 10.8954 54.0929 11.0981C54.2753 11.125 54.4563 11.1738 54.6373 11.2123C55.1338 11.3187 55.6316 11.4252 56.1281 11.5317C56.6905 11.651 57.253 11.7664 57.8077 11.9178C58.3986 12.0807 58.9895 12.2423 59.5804 12.4065C59.914 12.4989 60.2593 12.5733 60.5851 12.6887C61.1139 12.876 61.6427 13.0659 62.1716 13.2532C62.5427 13.3853 62.9176 13.5084 63.281 13.6636C63.824 13.8958 64.3684 14.1293 64.9115 14.3628C65.6549 14.6822 66.3764 15.0426 67.0785 15.4416C68.122 16.0342 69.1227 16.7013 69.9865 17.5338C70.5942 18.1187 71.198 18.8448 71.3583 19.6927C71.3958 19.8915 71.3868 20.0891 71.3364 20.2751C71.6376 20.2725 71.9363 20.3713 72.1626 20.5868C72.4238 20.8357 72.6824 21.0858 72.9397 21.3372C73.0276 21.4219 73.1142 21.5065 73.2009 21.5925C73.3276 21.7169 73.4698 21.8375 73.5862 21.9748C73.6275 22.0145 73.6689 22.0556 73.7103 22.0966C74.159 22.543 74.6025 22.9959 75.0408 23.4538C75.9537 24.4056 76.8006 25.4152 77.61 26.4542C78.4362 27.5138 79.168 28.6311 79.8275 29.7984C80.5011 30.9888 81.0946 32.2088 81.6351 33.4646C82.1795 34.7281 82.6139 36.0391 83.0005 37.3565C83.3806 38.6483 83.6974 39.9593 83.9444 41.2831C84.203 42.6814 84.3982 44.0873 84.5741 45.4983C84.9064 48.1665 85.0641 50.8488 84.8766 53.5324C84.8249 54.2841 84.7823 55.0422 84.6737 55.7888C84.5702 56.484 84.4551 57.1742 84.3271 57.8669C84.2069 58.5082 84.0621 59.1471 83.916 59.7833C83.85 60.0719 83.784 60.3593 83.7052 60.6453C83.6069 60.9968 83.5255 61.3586 83.4117 61.7062C83.188 62.3887 82.9604 63.0672 82.7096 63.742C82.451 64.4347 82.1601 65.112 81.8704 65.7919C81.7631 66.0407 81.6338 66.2806 81.5123 66.523C81.3545 66.836 81.2071 67.1542 81.03 67.4582C80.6808 68.0585 80.3395 68.6589 79.9516 69.2335C79.7719 69.4978 79.6051 69.7787 79.4111 70.0327C79.1461 70.3791 78.881 70.7267 78.6147 71.0743C78.1867 71.6349 77.7225 72.1698 77.2699 72.7099C76.8613 73.196 76.4153 73.654 75.9899 74.1248C75.7714 74.3672 75.5283 74.593 75.2994 74.8265C75.0318 75.0984 74.7719 75.3845 74.4913 75.6449C74.2443 75.8745 73.9974 76.1028 73.7504 76.3312C73.5009 76.5608 73.2616 76.8071 73.0017 77.0226C72.7263 77.2522 72.4483 77.4805 72.1716 77.7088C71.8833 77.9474 71.6027 78.2014 71.2988 78.4221C70.7351 78.8326 70.1727 79.243 69.6089 79.6523C69.349 79.8408 69.0607 79.9999 68.7905 80.1718C68.4504 80.3886 68.109 80.6041 67.7677 80.8222C67.5298 80.9722 67.2725 81.0992 67.0268 81.2339C66.6053 81.4661 66.1825 81.6996 65.7622 81.9318C65.1701 82.2576 64.5404 82.5231 63.9301 82.8117C63.3198 83.1016 62.6927 83.3454 62.0656 83.5968C61.7397 83.7276 61.4139 83.8572 61.0881 83.988C60.8049 84.1009 60.5049 84.1805 60.2153 84.2767C59.5662 84.4896 58.9223 84.7077 58.2603 84.8809C57.5944 85.0553 56.9298 85.2529 56.2548 85.3914C55.801 85.4838 55.3497 85.5787 54.8959 85.671C54.6502 85.7211 54.4045 85.7801 54.1563 85.8198C53.3766 85.9417 52.5969 86.0623 51.8186 86.1842C51.0764 86.2996 50.32 86.3509 49.5726 86.4279C48.9339 86.4959 48.2938 86.519 47.6525 86.5536C47.0099 86.5882 46.3737 86.6088 45.7311 86.6126C45.3109 86.6152 44.8906 86.6254 44.4691 86.6254C44.2248 86.6242 43.9817 86.6203 43.7373 86.61ZM40.8669 83.9252C41.4267 83.9791 41.9814 84.0047 42.5439 84.0278C43.1516 84.0535 43.7619 84.0945 44.3696 84.0919C45.0794 84.0868 45.7919 84.083 46.503 84.0791C47.3124 84.0355 48.1232 83.9932 48.9313 83.9496C49.3451 83.9265 49.7627 83.8623 50.1752 83.8187C50.5812 83.7751 50.9859 83.7315 51.3893 83.6904C51.9815 83.5981 52.5763 83.5044 53.1685 83.4121C53.6507 83.3364 54.1239 83.2415 54.6011 83.144C55.1325 83.0337 55.6704 82.9439 56.1953 82.8053C56.8199 82.6411 57.4457 82.4769 58.0715 82.3127C58.793 82.0741 59.5158 81.8381 60.2373 81.5995C60.6109 81.4764 60.9756 81.3045 61.3402 81.1582C61.6686 81.0261 61.997 80.8953 62.3267 80.7644C63.0314 80.4309 63.7361 80.0987 64.4408 79.7651C64.7524 79.6176 65.0511 79.4291 65.3536 79.2636C65.6976 79.0737 66.0402 78.8851 66.3842 78.6953C66.9815 78.3169 67.5789 77.9372 68.1763 77.5562C68.453 77.3792 68.7129 77.1662 68.9779 76.9725C69.2469 76.7763 69.5158 76.5813 69.7848 76.3863C70.2942 75.9643 70.8049 75.5435 71.3157 75.1202C71.5432 74.9316 71.754 74.7149 71.9725 74.5147C72.2441 74.2633 72.5169 74.0119 72.7884 73.7592C73.3922 73.1473 73.9961 72.538 74.574 71.9004C74.8598 71.5849 75.1533 71.2757 75.4274 70.9499C75.7571 70.5561 76.0881 70.161 76.4191 69.7659C76.6558 69.4567 76.8924 69.1463 77.129 68.8385C77.3281 68.578 77.5091 68.3048 77.6927 68.0329C77.8802 67.7558 78.0768 67.4826 78.2461 67.1926C78.4479 66.845 78.6508 66.4987 78.8526 66.151C79.0788 65.6956 79.3077 65.2403 79.5353 64.7849C79.64 64.5745 79.7215 64.3474 79.8133 64.1319C79.9077 63.91 80.002 63.6881 80.0964 63.4662C80.3214 62.8646 80.5477 62.2668 80.7481 61.6562C80.9537 61.0289 81.1334 60.3991 81.3092 59.7628C81.4786 59.0265 81.6403 58.2889 81.7929 57.55C81.939 56.8355 82.0514 56.1172 82.1575 55.3975C82.2441 54.5611 82.3165 53.7261 82.3605 52.8858C82.4044 52.0482 82.4174 51.2144 82.4135 50.3767C82.3643 49.2222 82.2829 48.078 82.1717 46.9286C82.0631 45.7972 81.9092 44.6697 81.7502 43.546C81.6105 42.6891 81.4657 41.8334 81.2873 40.983C81.1088 40.1363 80.8994 39.2987 80.677 38.4623C80.483 37.8042 80.2891 37.1474 80.0641 36.4996C79.8262 35.8134 79.5702 35.1373 79.2999 34.4639C79.0168 33.8058 78.7258 33.1516 78.4 32.5141C78.0522 31.8316 77.685 31.1646 77.2997 30.504C76.7967 29.665 76.2485 28.8646 75.6615 28.0834C75.0757 27.3342 74.4758 26.5979 73.837 25.8924C73.1853 25.1727 72.5065 24.4788 71.8199 23.7925C71.8419 23.8143 71.8626 23.8348 71.8846 23.8553C71.8548 23.8258 71.8251 23.7963 71.7954 23.7668C71.7863 23.7578 71.7773 23.7476 71.7669 23.7386C71.7721 23.7437 71.7785 23.7501 71.7837 23.7553C71.7734 23.745 71.763 23.7347 71.7527 23.7245C71.7294 23.7027 71.7062 23.6809 71.6855 23.6578C71.6648 23.6372 71.6428 23.6154 71.6221 23.5949C71.6117 23.5846 71.6014 23.5757 71.5911 23.5654C71.2252 23.2062 70.8579 22.8496 70.4869 22.4956C70.1313 22.1556 69.9813 21.6695 70.0951 21.2218C69.521 21.2077 68.9779 20.801 68.868 20.2186C68.8655 20.202 68.8615 20.1853 68.8577 20.1686C68.8525 20.1545 68.846 20.1417 68.8409 20.1276C68.824 20.0968 68.8085 20.066 68.7917 20.0352C68.7542 19.9749 68.7129 19.9159 68.6715 19.8595C68.5383 19.694 68.4 19.5388 68.2526 19.3861C67.9849 19.1321 67.7056 18.8948 67.4134 18.6678C66.8898 18.2868 66.3441 17.9404 65.7829 17.6172C65.0731 17.2272 64.3477 16.8783 63.6042 16.5589C63.1194 16.3511 62.6332 16.1433 62.1483 15.9342C61.6983 15.7738 61.2484 15.6148 60.7984 15.4544C60.4299 15.3236 60.0614 15.1658 59.6838 15.0619C58.7167 14.7951 57.7483 14.5295 56.7798 14.2627C55.7402 14.0434 54.7032 13.8137 53.6624 13.5957C53.5201 13.5649 53.3714 13.5521 53.2266 13.5303C52.8555 13.4751 52.4831 13.4199 52.1121 13.3648C51.5806 13.2852 51.0492 13.2057 50.5178 13.1274C49.7872 13.0684 49.058 13.0094 48.3274 12.9517C47.9848 12.9235 47.6422 12.8966 47.2995 12.8683C46.9711 12.8414 46.6388 12.8414 46.3104 12.8324C45.7621 12.8183 45.2139 12.817 44.6644 12.8234C43.2149 12.8555 41.772 12.9735 40.3316 13.1339C39.4109 13.2698 38.4903 13.4045 37.5684 13.5405C35.8462 13.7945 34.1446 14.1665 32.4662 14.6219C30.8293 15.0811 29.2234 15.6301 27.6524 16.2792C26.1344 16.9245 24.6617 17.6595 23.2303 18.4754C21.8339 19.2886 20.4801 20.1699 19.191 21.1422C18.1747 21.926 17.2063 22.7611 16.2896 23.6578C15.1776 24.7763 14.1535 25.9668 13.1902 27.2111C12.8631 27.6434 12.5605 28.0949 12.2476 28.5387C11.9076 29.0236 11.5675 29.5072 11.2262 29.9921C10.9624 30.368 10.7374 30.7759 10.4956 31.1659C10.2202 31.6084 9.94478 32.051 9.66937 32.4948C9.33966 33.0875 9.01126 33.6801 8.68155 34.2728C8.39838 34.782 8.14751 35.3041 7.8915 35.8275C7.6329 36.3573 7.36398 36.8806 7.13641 37.4245C6.86358 38.0749 6.58816 38.724 6.31534 39.3756C6.01666 40.2107 5.71799 41.0445 5.4206 41.8796C5.28355 42.2632 5.18916 42.6672 5.07538 43.0585C4.94349 43.5087 4.81291 43.959 4.68102 44.4092C4.54784 44.9826 4.41333 45.5573 4.28016 46.132C4.05647 47.0903 3.87934 48.0536 3.75779 49.0298C3.65823 49.9573 3.60265 50.8834 3.60911 51.816C3.63627 52.9153 3.72936 54.0083 3.88193 55.0973C4.12372 56.679 4.4224 58.2517 4.84004 59.7974C5.00167 60.3542 5.18915 60.8968 5.40766 61.4356C5.75289 62.2347 6.14727 63.0095 6.5856 63.7638C7.25537 64.8772 7.98849 65.9471 8.77463 66.9836C9.34743 67.6775 9.9228 68.3689 10.4943 69.0642C10.5784 69.1656 10.6779 69.2554 10.7697 69.3503C11.0051 69.5966 11.2404 69.8429 11.4757 70.0891C11.7783 70.4047 12.0795 70.7216 12.3821 71.0358C13.0894 71.6747 13.8005 72.3084 14.5078 72.9472C14.6022 73.0331 14.7134 73.1063 14.8142 73.1845C15.0819 73.3897 15.347 73.5963 15.6146 73.8015C15.9805 74.0837 16.3451 74.3672 16.7124 74.6494C17.4843 75.1677 18.2562 75.6859 19.0294 76.2042C19.3889 76.4466 19.7793 76.6518 20.153 76.8738C20.5383 77.1047 20.9249 77.3356 21.3128 77.5652C21.9425 77.9038 22.5709 78.2463 23.1993 78.5875C23.7295 78.8736 24.279 79.1238 24.8221 79.3854C25.3405 79.6343 25.8526 79.8857 26.3827 80.1077C27.077 80.3976 27.7701 80.69 28.4644 80.9799C29.3359 81.2929 30.2061 81.6059 31.0776 81.9202C31.4874 82.069 31.918 82.1742 32.3357 82.2999C32.7779 82.4333 33.2226 82.5667 33.6649 82.7001C34.4963 82.899 35.3276 83.0927 36.159 83.2915C36.2909 83.3223 36.4293 83.3364 36.5625 83.3582C36.8611 83.407 37.1611 83.457 37.4611 83.5057C37.9227 83.5827 38.383 83.6584 38.8446 83.7341C39.517 83.7931 40.1919 83.8585 40.8669 83.9252Z" stroke="#F4A672" stroke-width="0.6" mask="url(#path-1-outside-1_3429_4419)"/>
<path d="M11.7174 9.41284C12.3828 9.08293 13.311 9.33223 13.6324 10.0515C14.3587 11.6849 15.1019 13.3113 15.8844 14.9177L16.5358 16.239C16.7551 16.6785 16.9771 17.1165 17.2018 17.5535L17.4811 18.0789C17.5764 18.2534 17.6739 18.4271 17.7721 18.6013V18.6023C17.9916 18.9936 18.2306 19.3953 18.3971 19.8328C18.6753 20.5635 18.238 21.3917 17.5211 21.6404C17.3677 21.6935 17.2124 21.7185 17.0592 21.7185C16.468 21.7185 15.9255 21.3422 15.7086 20.7722V20.7712L15.7008 20.7517H15.6998C15.5273 20.3989 15.3296 20.0584 15.1315 19.7078C14.9128 19.3204 14.7074 18.9253 14.5045 18.533L14.5035 18.532C14.0971 17.7422 13.6996 16.9459 13.3151 16.1443C12.5479 14.5412 11.7989 12.9296 11.0768 11.3054C10.9283 10.9718 10.8772 10.6095 10.9987 10.2419L11.0494 10.1101C11.1827 9.80949 11.4199 9.55978 11.7174 9.41284Z" fill="#F4A672" stroke="#F4A672" stroke-width="0.3"/>
<path d="M34.3921 3.80981C35.1511 3.84707 35.8012 4.521 35.7427 5.29907C35.6522 6.52899 35.5617 7.75891 35.4712 8.98755C35.4234 9.64672 35.3771 10.3076 35.3306 10.967C35.2866 11.5884 35.2443 12.2041 35.2456 12.8186C35.2492 12.9035 35.2552 12.9878 35.2642 13.0715L35.2788 13.1458L35.2798 13.1477C35.4471 13.9054 34.9339 14.6677 34.1802 14.8254H34.1792C34.0831 14.8453 33.9866 14.8557 33.8921 14.8557C33.2324 14.8557 32.6346 14.3914 32.4897 13.7336C32.3713 13.1939 32.3907 12.6411 32.4087 12.1184L32.4341 11.5813C32.4445 11.4028 32.4564 11.2249 32.4673 11.0481L32.5942 9.26978C32.6925 7.89726 32.7935 6.52346 32.897 5.14966C32.9531 4.38499 33.5994 3.771 34.3921 3.80981Z" fill="#F4A672" stroke="#F4A672" stroke-width="0.3"/>
<path d="M64.5674 4.55347C64.8943 3.84541 65.783 3.56222 66.4717 3.89233L66.5996 3.96167C67.216 4.33842 67.4403 5.12631 67.1367 5.78003C66.4463 7.26799 65.7555 8.75575 65.0518 10.238L63.9287 12.5916C63.5437 13.3864 63.1346 14.1565 62.7871 14.9558C62.7144 15.4693 62.3524 15.9363 61.8408 16.113C61.7258 16.1528 61.6093 16.1769 61.4941 16.1863L61.3799 16.1912C60.7887 16.1925 60.2453 15.8164 60.0283 15.2478C59.8912 14.8877 59.9309 14.5296 60.0322 14.2C60.1322 13.8745 60.2985 13.5566 60.4277 13.2839C60.604 12.9111 60.7912 12.5396 60.9697 12.1726C61.3975 11.2893 61.8224 10.4061 62.2422 9.51929C63.0254 7.86771 63.7982 6.21177 64.5674 4.55347Z" fill="#F4A672" stroke="#F4A672" stroke-width="0.3"/>
<path d="M85.8344 19.3219C86.4813 18.9041 87.3702 19.0584 87.8099 19.7076C88.2109 20.3005 88.0946 21.1373 87.5375 21.5885L87.4203 21.6735C85.8378 22.6953 84.2936 23.7764 82.7494 24.858C81.1587 25.972 79.5747 27.0866 78.0277 28.2526C77.6938 28.5181 77.3656 28.7757 77.056 29.0563C76.8266 29.2648 76.5405 29.3765 76.2504 29.401L76.1263 29.4059C75.7274 29.4072 75.322 29.2437 75.0443 28.9293C74.5212 28.3396 74.6012 27.4508 75.1703 26.9332C75.9885 26.1888 76.9036 25.5419 77.7865 24.9C78.6822 24.249 79.5884 23.6133 80.4916 22.9762C82.2523 21.736 84.0212 20.4912 85.8344 19.3219Z" fill="#F4A672" stroke="#F4A672" stroke-width="0.3"/>
<path d="M91.9968 45.2354C92.352 45.1296 92.7261 45.1298 93.0789 45.2989C93.4169 45.4608 93.6822 45.7543 93.8054 46.1065C94.0363 46.7627 93.7228 47.5768 93.0603 47.8614L92.9226 47.9112C90.5704 48.609 88.2118 49.2968 85.8445 49.9473L85.8455 49.9483H85.8425L85.8435 49.9493C85.7709 49.9697 85.7074 49.9862 85.6423 50.0069V50.0059C85.4925 50.0545 85.3389 50.0781 85.1882 50.0782C84.6 50.0796 84.0387 49.7288 83.8308 49.1378C83.5794 48.4225 83.9646 47.5731 84.7097 47.334L85.1375 47.209C85.2803 47.1704 85.4224 47.1334 85.5603 47.0958L87.1726 46.6417C88.7837 46.1833 90.3913 45.7125 91.9968 45.2354Z" fill="#F4A672" stroke="#F4A672" stroke-width="0.3"/>
<path d="M49.7965 0.796265C50.5393 0.833252 51.2257 1.50502 51.149 2.28845C51.0005 3.80978 50.8725 5.33176 50.7574 6.85486C50.7019 7.59658 50.6532 8.3386 50.6119 9.08142C50.5736 9.74647 50.5605 10.436 50.485 11.1107C50.4432 11.4823 50.3077 11.8295 50.0035 12.0951C49.744 12.3224 49.402 12.4466 49.0592 12.4467C49.0468 12.4467 49.0343 12.446 49.025 12.4457C49.015 12.4454 49.0071 12.4447 48.9996 12.4447H48.9918C48.6184 12.4265 48.2614 12.2463 48.0084 11.9789C47.7549 11.7108 47.5966 11.3448 47.6412 10.9506L47.6871 10.4515C47.7236 9.95144 47.7358 9.44727 47.7643 8.93689C47.807 8.19349 47.8571 7.44886 47.9127 6.70544C48.0266 5.1792 48.1558 3.65476 48.3033 2.1322C48.34 1.75951 48.488 1.40751 48.7858 1.14685V1.14587C49.0619 0.905015 49.4296 0.777759 49.7965 0.796265Z" fill="#F4A672" stroke="#F4A672" stroke-width="0.3"/>
<path d="M43.1406 28.0955C43.81 27.8457 44.5936 28.1378 44.9209 28.7859H44.9219C45.1464 29.2345 45.1013 29.7533 44.8564 30.1561L44.8574 30.157C44.8023 30.264 44.7516 30.3725 44.7041 30.4852L44.7051 30.4861C43.8844 32.6393 43.1782 34.8375 42.4629 37.032C41.7709 39.152 41.0735 41.2695 40.4707 43.4119C40.2981 44.0238 39.6924 44.3941 39.0986 44.3943H39.0947C38.955 44.3915 38.812 44.371 38.6729 44.326C37.907 44.0778 37.5494 43.2821 37.7549 42.5486L38.0059 41.6776C38.6011 39.6487 39.2672 37.6394 39.9219 35.6336C40.2919 34.5002 40.6705 33.3681 41.0547 32.2401C41.2656 31.6213 41.4819 31.0049 41.6963 30.3885V30.3875C41.7956 30.1037 41.9119 29.8224 42.0176 29.5496C42.2027 29.0623 42.4353 28.4376 43.0088 28.1531L43.1406 28.0955Z" fill="#F4A672" stroke="#F4A672" stroke-width="0.3"/>
<path d="M51.329 27.0938C51.6611 26.929 52.0526 26.8983 52.4061 27.0146L52.4052 27.0156C52.7601 27.1299 53.0585 27.3945 53.2333 27.7178C53.4085 28.042 53.4655 28.4364 53.3182 28.8057C53.2792 28.904 53.2489 29.0047 53.2196 29.1084L53.1288 29.4316L52.91 30.2139L52.4042 32.0723C52.1159 33.1392 51.8308 34.2081 51.5477 35.2764C50.9491 37.534 50.3494 39.7921 49.7704 42.0527L49.7694 42.0518C49.7667 42.0625 49.7643 42.0733 49.7616 42.084C49.7558 42.107 49.7498 42.1303 49.744 42.1533V42.1543C49.6524 42.5147 49.4755 42.8406 49.1385 43.0645C48.9032 43.2206 48.6222 43.3047 48.3407 43.3047H48.3378C48.2548 43.3033 48.1719 43.2964 48.0887 43.2822H48.0878C47.7216 43.2156 47.3896 42.9902 47.1727 42.6924C46.9555 42.3939 46.8459 42.0104 46.9442 41.625H46.9432C47.5357 39.2959 48.153 36.974 48.7684 34.6523C49.0659 33.5298 49.3662 32.4086 49.6688 31.2861C49.8318 30.6806 49.9955 30.0735 50.161 29.4678L50.162 29.4668C50.2351 29.2035 50.3067 28.9342 50.3846 28.6699C50.4525 28.4404 50.5142 28.1599 50.6132 27.9131C50.7508 27.5685 50.9697 27.2721 51.329 27.0938Z" fill="#F4A672" stroke="#F4A672" stroke-width="0.3"/>
<path d="M24.5342 39.2033C25.2281 38.8592 26.0977 39.1459 26.4453 39.8371C26.6144 40.1729 26.6312 40.5486 26.5264 40.8849L26.5225 40.9074C26.522 40.9102 26.521 40.9134 26.5205 40.9162L26.5049 41.3C26.5191 41.6574 26.554 42.0129 26.6035 42.3693C26.6774 42.8176 26.7709 43.2607 26.8877 43.6984L26.9932 44.0353C27.1023 44.3694 27.2228 44.6984 27.3564 45.0236H27.3574C27.5863 45.5387 27.8394 46.0386 28.1182 46.5285L28.3564 46.9133C28.5994 47.2939 28.8576 47.6639 29.1309 48.0256L29.4111 48.3683C29.6945 48.706 29.9905 49.0312 30.3018 49.3449L30.6416 49.6642C30.9849 49.9779 31.3399 50.2772 31.708 50.5627C32.3697 51.0538 33.0586 51.5034 33.7744 51.9133L34.4658 52.2805C35.1621 52.6368 35.8729 52.9615 36.5996 53.258C37.7097 53.6932 38.8407 54.0593 39.9971 54.3566H39.9961C41.0582 54.613 42.1319 54.8079 43.2158 54.9406H43.2148C44.2894 55.0553 45.3661 55.1122 46.4463 55.1047C47.2791 55.0855 48.1061 55.026 48.9287 54.9152C49.6023 54.8097 50.2652 54.6739 50.9238 54.5002L51.4082 54.3557C51.8886 54.2047 52.3617 54.0343 52.8291 53.8449C53.4798 53.5635 54.1099 53.2522 54.7256 52.9035C55.2668 52.5854 55.7897 52.2449 56.3018 51.882C56.7881 51.5073 57.2695 51.1445 57.7236 50.7433C58.2087 50.3131 58.6774 49.871 59.1416 49.4182C59.3722 49.1754 59.6032 48.9332 59.833 48.6887V48.6877C60.0492 48.4608 60.2357 48.2141 60.4492 47.9611C61.3761 46.7454 62.2546 45.5004 63.0254 44.1857C63.2152 43.8408 63.3974 43.4938 63.5615 43.1379H63.5625C63.8907 42.4319 64.778 42.1467 65.4668 42.4767C66.1791 42.8179 66.4557 43.6681 66.1318 44.3664C65.5603 45.5975 64.8267 46.7548 64.0498 47.8576C63.6481 48.4284 63.2377 48.9907 62.8135 49.5441C62.3793 50.1111 61.9032 50.6344 61.416 51.1486C60.9779 51.6104 60.5186 52.0612 60.0391 52.4865C59.7697 52.7255 59.5009 52.9619 59.2334 53.2004V53.2014C58.931 53.4689 58.5735 53.7092 58.2705 53.9445L58.2695 53.9455C57.0437 54.8912 55.6898 55.6728 54.2764 56.3029C52.5451 57.0743 50.7101 57.5381 48.8379 57.7795H48.8369C47.9609 57.892 47.0765 57.9387 46.1934 57.9387C45.3895 57.9412 44.5905 57.9038 43.7979 57.842C42.1039 57.709 40.4353 57.3999 38.7979 56.9709C37.1758 56.5463 35.5988 55.955 34.082 55.2541C32.6536 54.5946 31.2841 53.7917 30.0273 52.8459C27.5586 50.9908 25.6678 48.4906 24.5342 45.633V45.632C24.1216 44.5947 23.867 43.4966 23.7373 42.3918L23.6895 41.9182C23.6448 41.388 23.6443 40.858 23.7295 40.3244L23.7676 40.1506C23.8797 39.7504 24.1503 39.3946 24.5332 39.2033H24.5342Z" fill="#F4A672" stroke="#F4A672" stroke-width="0.3"/>
</svg>
