<svg width="130" height="120" viewBox="0 0 130 120" fill="none" xmlns="http://www.w3.org/2000/svg">
<path d="M68.6741 44.706C67.4122 44.706 66.1503 44.6889 64.8933 44.5602C64.092 44.4781 63.2969 44.3985 62.5005 44.276C62.0754 44.2098 61.6503 44.1461 61.2252 44.08C60.8233 44.0175 60.4252 43.9195 60.027 43.8374C57.4811 43.3094 54.9916 42.5044 52.7435 41.1715C51.0099 40.1424 49.3302 38.9515 47.9078 37.5169C46.5418 36.141 45.4183 34.579 44.5362 32.8515C44.1932 32.1813 43.8857 31.4965 43.6198 30.7908C43.4814 30.4257 43.3233 30.0618 43.2094 29.6894C43.0832 29.2777 42.9583 28.8649 42.8333 28.4532C42.7267 28.1028 42.6666 27.7316 42.5858 27.3739C42.4277 26.6866 42.315 25.987 42.2329 25.2862C42.1374 24.4899 42.0369 23.6862 42.0002 22.8837C41.9683 22.1584 41.95 21.4393 41.95 20.7152C41.95 20.4689 41.9745 20.2202 41.9867 19.974C41.9953 19.8245 41.9941 19.6726 42.0124 19.5231C42.0614 19.1348 42.0933 18.739 42.1705 18.3556C42.3199 17.5996 42.4669 16.8388 42.7181 16.1086C42.9717 15.376 43.2204 14.6348 43.5708 13.9401C43.9286 13.2296 44.2826 12.5177 44.7114 11.8476C45.0949 11.2448 45.471 10.6273 45.9231 10.0736C46.396 9.49408 46.8628 8.88886 47.4092 8.3743C47.9532 7.85973 48.4935 7.32924 49.1048 6.89186C49.7235 6.44959 50.3385 5.99874 50.9964 5.61649C51.6813 5.21709 52.3686 4.81892 53.0816 4.46975C54.482 3.7849 55.9056 3.16497 57.3488 2.57445C58.683 2.03048 60.0711 1.59188 61.4812 1.29417C62.8669 1.00258 64.2684 0.834741 65.6786 0.702425C66.3328 0.641168 66.987 0.583585 67.6413 0.517427C68.396 0.440243 69.1507 0.34468 69.9066 0.280973C69.996 0.273622 70.083 0.276073 70.1687 0.288324C70.3954 0.13028 70.66 0.0518718 70.9467 0.0310444H70.9479C70.8904 0.0359449 70.834 0.0408468 70.7764 0.0457474C71.0545 0.0200193 71.3302 -0.00938403 71.612 0.00286744C72.0837 0.0224698 72.5529 0.0910772 73.0147 0.191539C73.7155 0.342232 74.393 0.548058 75.0706 0.775936C75.4405 0.899676 75.8105 1.02096 76.1744 1.16308C76.5959 1.32847 77.0308 1.47672 77.4461 1.66049C78.2719 2.02804 79.1037 2.38455 79.9111 2.79375C81.2612 3.47616 82.6273 4.13896 83.8316 5.0664C87.0807 7.56815 89.4758 11.1186 90.8553 14.9619C91.5708 16.9564 92.067 19.0098 92.2716 21.1219C92.4701 23.1765 92.4223 25.2838 91.9886 27.3065C91.7583 28.3773 91.4851 29.4517 91.0661 30.4661C90.6985 31.3544 90.2722 32.2206 89.7625 33.0353C88.9319 34.3609 87.986 35.5873 86.9251 36.7364C86.6041 37.0844 86.2917 37.4409 85.9535 37.7741C85.2772 38.4443 84.5777 39.0948 83.8279 39.6817C82.9813 40.3482 82.0796 40.9375 81.1362 41.4569C80.4771 41.8208 79.8045 42.1761 79.1123 42.4714C77.9301 42.9773 76.7563 43.4846 75.5128 43.83C74.4396 44.1265 73.3492 44.3593 72.2429 44.4928C71.3277 44.6031 70.3954 44.7023 69.4729 44.7036C69.207 44.7048 68.9411 44.706 68.6741 44.706ZM70.9161 41.8171C71.7994 41.735 72.6754 41.6113 73.5453 41.4361C74.3416 41.256 75.1232 41.0343 75.8938 40.766C76.9855 40.3653 78.0575 39.8936 79.0964 39.3705C79.8719 38.965 80.6254 38.5252 81.3494 38.0363C81.9853 37.5806 82.5881 37.0844 83.1712 36.5625C83.6735 36.0945 84.1501 35.6081 84.6157 35.1045C84.9734 34.7174 85.3336 34.3352 85.673 33.9333C86.2243 33.2582 86.7388 32.5599 87.2154 31.8285C87.5805 31.238 87.9162 30.6328 88.2139 30.0055C88.4283 29.5228 88.6182 29.0315 88.7861 28.5292C89.0164 27.7549 89.2063 26.9683 89.3533 26.1744C89.4513 25.5692 89.5224 24.9652 89.5579 24.3539C89.5861 23.4007 89.5701 22.4451 89.4954 21.4944C89.4146 20.6821 89.2994 19.876 89.1364 19.0747C88.9 18.0272 88.5974 16.9981 88.2482 15.9825C87.9481 15.1604 87.6063 14.3579 87.2167 13.5738C86.7817 12.7419 86.3027 11.9407 85.7734 11.1652C85.2846 10.4766 84.7663 9.81874 84.204 9.19147C83.7176 8.67078 83.208 8.17827 82.664 7.71639C82.223 7.35987 81.7684 7.02418 81.2943 6.71177C80.2554 6.07959 79.1552 5.55523 78.0709 5.00637C77.3579 4.6866 76.6485 4.36072 75.9208 4.07648C75.5361 3.92579 75.1563 3.76284 74.7643 3.63175C74.3722 3.49943 73.9802 3.36835 73.5893 3.23603C73.0833 3.08901 72.5749 2.96037 72.0567 2.86481C71.8619 2.83786 71.6683 2.8158 71.4723 2.80355C71.4159 2.806 71.3608 2.80845 71.3044 2.8109C71.2077 2.8207 71.1121 2.83051 71.0153 2.83786C70.9259 2.84521 70.8389 2.84153 70.7544 2.82928C70.5265 2.98732 70.2631 3.06328 69.9764 3.08778C69.9507 3.09023 69.9249 3.09146 69.8992 3.09391C69.9041 3.09391 69.9078 3.09269 69.9127 3.09269C68.5687 3.22623 67.2284 3.37325 65.8844 3.49944C64.5784 3.62195 63.281 3.78735 61.9958 4.05198C61.0414 4.28231 60.1054 4.55306 59.1779 4.87527C57.4872 5.52705 55.8309 6.25234 54.2026 7.04378C53.7444 7.28636 53.2887 7.53017 52.8403 7.79235C52.3907 8.05453 51.9533 8.33386 51.5147 8.61565C51.2721 8.78349 51.0222 8.94644 50.7955 9.13266C50.537 9.34339 50.2797 9.55533 50.0212 9.76606C49.8068 9.96208 49.5838 10.1532 49.3878 10.3652C49.1599 10.6114 48.9321 10.8589 48.7042 11.1051C48.4114 11.4653 48.121 11.8231 47.849 12.2004C47.5709 12.5851 47.3161 12.9821 47.06 13.3815C46.8787 13.6988 46.6802 14.0112 46.5161 14.3395C46.358 14.6519 46.2012 14.9644 46.0444 15.2768C45.917 15.5696 45.7761 15.8624 45.6719 16.1638C45.5654 16.4762 45.4563 16.7886 45.3473 17.101C45.2615 17.4061 45.1598 17.7136 45.0986 18.0236C45.0398 18.3225 44.9797 18.6214 44.9209 18.9204C44.8793 19.2254 44.8217 19.5354 44.8058 19.8417C44.7898 20.1296 44.7739 20.4175 44.7592 20.7054C44.7592 21.2873 44.769 21.8644 44.7935 22.4463C44.8143 22.9352 44.8572 23.4215 44.8964 23.9092C44.9467 24.3416 44.9797 24.7802 45.0508 25.209C45.1243 25.6476 45.1954 26.0862 45.2677 26.5236C45.3105 26.7098 45.3534 26.8961 45.3963 27.0835C45.4404 27.2759 45.4722 27.4756 45.5298 27.6642C45.6511 28.0673 45.7748 28.4704 45.8974 28.8747C46.0248 29.214 46.1522 29.5522 46.2796 29.8915C46.5075 30.4931 46.7807 31.0763 47.0711 31.6496C47.4129 32.2965 47.7853 32.9201 48.197 33.5253C48.578 34.0558 48.986 34.5618 49.4234 35.0482C49.9306 35.5848 50.4672 36.0871 51.0307 36.5637C51.8197 37.2069 52.6442 37.8023 53.5018 38.3512C54.2467 38.8118 55.0112 39.2308 55.8039 39.6033C56.5426 39.9316 57.2949 40.2122 58.0631 40.4584C58.3878 40.5454 58.7112 40.6336 59.0358 40.7206C59.2907 40.7892 59.5479 40.8738 59.8077 40.9277C60.4239 41.0551 61.0414 41.1837 61.6577 41.3111C62.1943 41.3945 62.7309 41.4753 63.2675 41.5586C63.6914 41.6248 64.1202 41.6603 64.5466 41.7044C65.0084 41.751 65.4654 41.8024 65.9285 41.8269C66.4308 41.8527 66.9343 41.8796 67.4379 41.9041C68.5981 41.9017 69.7547 41.9053 70.9161 41.8171Z" fill="#F4A672"/>
<path d="M87.1837 17.9564C87.4373 17.9491 87.6946 17.9233 87.9445 17.8878C88.2484 17.8449 88.5595 17.8094 88.8462 17.6967C89.5593 17.421 89.8705 16.5316 89.5764 15.8516C89.3032 15.2194 88.6392 14.9242 87.9997 15.0455C88.0254 15.0381 88.0499 15.0308 88.0756 15.0234C87.7779 15.0835 87.479 15.119 87.1776 15.1496C86.886 15.1594 86.5907 15.1827 86.3004 15.1753C85.9598 15.1643 85.6192 15.1533 85.2786 15.1423C84.8412 15.1043 84.3965 15.0859 83.9628 15.0197C83.5083 14.9511 83.0537 14.8813 82.5992 14.8127C82.2892 14.7416 81.9781 14.6718 81.6681 14.602C81.3827 14.537 81.0862 14.4917 80.8068 14.4072C80.2004 14.2234 79.5952 14.0396 78.9899 13.8559C78.397 13.6268 77.8028 13.3989 77.2098 13.1722C76.7136 12.9358 76.2174 12.6993 75.7213 12.4641C75.5105 12.3649 75.3096 12.2313 75.1075 12.1174C74.8453 11.9679 74.5831 11.8197 74.3209 11.6702C73.9644 11.4362 73.6079 11.2022 73.2513 10.9682C72.8666 10.7158 72.504 10.4279 72.134 10.1547C71.5043 9.69281 70.9028 9.19172 70.2988 8.69799C69.0761 7.66274 67.9097 6.58093 66.8157 5.40847C66.5486 5.10831 66.2876 4.80447 66.0499 4.48103C66.0046 4.4112 65.9617 4.34014 65.9201 4.26786C65.8931 4.2066 65.8686 4.14534 65.8441 4.08408C65.7914 3.91869 65.7461 3.7533 65.7069 3.58423C65.6775 3.44089 65.6469 3.29754 65.5893 3.16277C65.4851 2.92387 65.3136 2.71927 65.1017 2.56858C64.7501 2.3211 64.3078 2.23779 63.8912 2.35663C63.3889 2.49997 63.0594 2.89202 62.9136 3.37963C62.7984 3.768 62.7347 4.17107 62.6281 4.56312C62.5068 4.93679 62.3635 5.29943 62.2054 5.6584C61.9898 6.08475 61.7779 6.50865 61.5365 6.9203C61.3503 7.20209 61.1506 7.47039 60.9386 7.7338C60.5858 8.13687 60.2121 8.51666 59.8201 8.88298C59.3031 9.34119 58.7628 9.76632 58.1992 10.1645C57.7667 10.4548 57.3269 10.7354 56.8675 10.9792C56.6077 11.1177 56.348 11.2549 56.0883 11.3933C55.7453 11.5452 55.4022 11.6959 55.0591 11.8491C54.7185 11.9998 54.3535 12.1051 54.0031 12.2325C54.0606 12.2117 54.117 12.1921 54.1734 12.1713C53.5902 12.344 53.0083 12.5045 52.4178 12.6503C51.8138 12.7679 51.2146 12.8647 50.6033 12.9309C50.0691 12.9615 49.5374 12.9725 49.0032 12.9591C48.6149 12.937 48.2302 12.9002 47.8455 12.8439C47.6249 12.801 47.4057 12.7508 47.1876 12.6895C46.994 12.6246 46.8041 12.5523 46.6167 12.469C45.9196 12.1566 45.0656 12.6001 44.8071 13.2837C44.6785 13.6219 44.6871 14.0066 44.8316 14.3386C44.9872 14.6975 45.2727 14.9352 45.6219 15.092C46.8213 15.6274 48.1616 15.7634 49.4627 15.772C50.2125 15.7781 50.9647 15.7352 51.7084 15.6237C52.4765 15.5098 53.2276 15.3371 53.981 15.1521C54.3621 15.0589 54.748 14.9389 55.1179 14.8053C55.4683 14.6779 55.8334 14.5713 56.174 14.4219C56.5293 14.2638 56.8858 14.1058 57.2411 13.949C57.6614 13.764 58.0632 13.5165 58.4687 13.3009C59.1487 12.9394 59.7858 12.4837 60.4057 12.0279C61.2204 11.4288 61.9739 10.7391 62.6685 10.0064C63.4759 9.15497 64.0921 8.1773 64.6018 7.13593C64.6802 7.22291 64.7599 7.3099 64.8407 7.39566C65.8539 8.48482 66.9259 9.51148 68.0629 10.4732C68.6595 10.978 69.2659 11.4729 69.8822 11.9557C70.4445 12.3979 71.0093 12.8463 71.6072 13.2384C71.9821 13.4846 72.357 13.7309 72.7319 13.9759C73.07 14.1989 73.429 14.3851 73.7794 14.5848C74.0354 14.7294 74.2866 14.8813 74.5525 15.0063C75.0082 15.2231 75.464 15.44 75.9185 15.6568C76.4036 15.8872 76.917 16.0599 77.4181 16.2535C77.8946 16.436 78.37 16.5916 78.8576 16.7386C79.3514 16.8881 79.8414 17.0621 80.3449 17.1748C80.9526 17.3132 81.5628 17.486 82.179 17.5803C83.2338 17.7408 84.2875 17.9099 85.357 17.9442C85.6939 17.9552 86.0296 17.9662 86.3666 17.9772C86.407 17.9785 86.4486 17.9785 86.4891 17.9785C86.7194 17.9809 86.9534 17.9625 87.1837 17.9564Z" fill="#F4A672"/>
<path d="M90.5825 19.2789C90.074 19.8119 90.0483 20.7626 90.629 21.2625C91.1607 21.7219 91.7304 22.1507 92.365 22.4594C92.3467 22.0122 92.316 21.5663 92.2731 21.124C92.2008 20.3718 92.0918 19.6281 91.946 18.8918C91.8247 18.8587 91.6986 18.8428 91.565 18.8465C91.1938 18.8538 90.8385 19.0106 90.5825 19.2789Z" fill="#F4A672"/>
<path d="M74.9066 0.87015C74.8882 1.24259 74.9667 1.59299 75.2043 1.8907C75.4371 2.18351 75.7826 2.3734 76.1538 2.41261C76.6978 2.46896 77.2662 2.1737 77.5358 1.7008C77.5064 1.68732 77.477 1.67507 77.4476 1.66159C77.0335 1.47782 76.5986 1.32958 76.1759 1.16418C75.812 1.02207 75.4432 0.900778 75.072 0.777038C75.0218 0.759886 74.9703 0.742734 74.9201 0.726807C74.9127 0.775813 74.9091 0.823594 74.9066 0.87015Z" fill="#F4A672"/>
<path d="M70.7804 26.3676C71.1504 26.3591 71.5069 26.201 71.763 25.9339C72.0288 25.6558 72.1403 25.3103 72.1514 24.933C72.2175 22.7633 72.193 20.5911 72.193 18.4201C72.193 17.6556 71.5094 17.0332 70.7584 17.0504C69.9804 17.0675 69.3874 17.7206 69.3874 18.485C69.3874 18.4887 69.3874 18.4912 69.3874 18.4936C69.3874 20.6621 69.4132 22.8306 69.347 24.9979C69.3237 25.7514 70.0294 26.3676 70.7535 26.3676C70.7608 26.3689 70.7706 26.3676 70.7804 26.3676Z" fill="#F4A672"/>
<path d="M64.1544 26.8312C64.5231 26.8238 64.8809 26.6658 65.1357 26.3987C65.4003 26.1206 65.5131 25.7739 65.5241 25.3977C65.5609 24.0648 65.5951 22.733 65.6221 21.4001C65.6368 20.7005 65.6503 20.001 65.6601 19.3002C65.6711 18.5884 65.6944 17.8729 65.6564 17.1635C65.616 16.399 65.0022 15.7754 64.2218 15.7926C63.4744 15.8097 62.8116 16.464 62.8521 17.2285C62.8876 17.8974 62.8668 18.5688 62.857 19.2377C62.8472 19.9422 62.8325 20.6478 62.819 21.3523C62.792 22.722 62.7577 24.0917 62.7197 25.4614C62.6977 26.2161 63.3997 26.8312 64.1238 26.8312C64.1348 26.8312 64.1446 26.8312 64.1544 26.8312Z" fill="#F4A672"/>
<path d="M67.7967 36.1363C69.4004 36.0494 71.0004 35.5556 72.4228 34.8242C73.8489 34.0916 75.0752 33.0894 75.9978 31.7724C76.4192 31.1696 76.7427 30.4884 76.9608 29.7876C77.1323 29.2339 77.2364 28.6495 77.1776 28.07C77.1004 27.3079 76.3077 26.7836 75.58 26.8938C75.2112 26.9502 74.8743 27.156 74.655 27.4586C74.459 27.7294 74.3843 28.0381 74.3965 28.3616C74.3965 28.3677 74.3953 28.3738 74.3953 28.3787C74.3941 28.364 74.3928 28.3493 74.3916 28.3346C74.3916 28.3665 74.3916 28.3983 74.3916 28.4314C74.3867 28.489 74.3806 28.5453 74.372 28.6017C74.3512 28.7021 74.3291 28.8014 74.3022 28.9006C74.2372 29.0991 74.1625 29.2939 74.0804 29.4862C73.991 29.6639 73.8967 29.8379 73.7974 30.0106C73.6529 30.2299 73.4997 30.4406 73.3355 30.6464C73.1652 30.8388 72.9888 31.0226 72.8038 31.2014C72.5637 31.4109 72.3162 31.607 72.0577 31.7932C71.7539 31.9917 71.4427 32.173 71.1229 32.3421C70.7566 32.5197 70.3879 32.679 70.0081 32.8235C69.6074 32.9595 69.2044 33.0771 68.7915 33.1739C68.4803 33.234 68.1691 33.283 67.8542 33.3197C67.5602 33.3418 67.2686 33.3516 66.9734 33.3491C66.6793 33.3332 66.3902 33.305 66.0986 33.2634C65.8132 33.2082 65.5314 33.1408 65.2496 33.0637C64.9237 32.9571 64.6064 32.8382 64.2915 32.7022C63.8419 32.4891 63.4119 32.2502 62.9892 31.9904C62.471 31.6523 61.976 31.286 61.4982 30.8964C61.225 30.6599 60.9616 30.4174 60.7092 30.1601C60.4997 29.9224 60.3024 29.6749 60.1138 29.4189C59.6911 28.7891 59.3248 28.1312 58.9707 27.4623C58.7171 26.9539 58.4782 26.4417 58.2748 25.9113C58.2626 25.8757 58.2503 25.8402 58.2381 25.8059C58.1131 25.4445 57.8975 25.1419 57.5544 24.9581C57.2347 24.7854 56.8524 24.7449 56.502 24.8454C55.7976 25.0475 55.2916 25.8586 55.5403 26.5814C55.7339 27.1438 55.9544 27.6951 56.2202 28.2268C56.491 28.7708 56.7605 29.3208 57.0717 29.8415C57.2996 30.2238 57.5275 30.6023 57.7799 30.9687C58.1989 31.5788 58.684 32.1277 59.2255 32.63C60.4029 33.7216 61.7873 34.6711 63.2612 35.3118C64.5329 35.8643 65.8732 36.1498 67.2503 36.1498C67.4328 36.151 67.6153 36.1461 67.7967 36.1363Z" fill="#F4A672"/>
<path d="M71.8923 92.6926C73.2057 92.6778 74.4798 92.3924 75.7576 92.1278C77.5941 91.748 79.3596 91.1219 80.9694 90.1516C82.6564 89.1347 84.0788 87.6964 85.2562 86.1307C85.8577 85.3282 86.3882 84.4718 86.8685 83.5909C87.2985 82.8019 87.6844 81.959 87.9699 81.1051C88.2382 80.3014 88.5028 79.5038 88.7258 78.6879C88.8116 78.3792 88.9071 78.0704 88.9745 77.758C89.0799 77.2728 89.1865 76.7865 89.2906 76.3001C89.3641 75.9632 89.4033 75.6128 89.4572 75.271C89.5099 74.934 89.5699 74.5996 89.5993 74.2602C89.6386 73.8253 89.6777 73.3891 89.7169 72.9542C89.7549 72.534 89.7415 72.1027 89.7525 71.68C89.7586 71.3836 89.7574 71.0932 89.7476 70.7979C89.7317 70.3593 89.7304 69.9183 89.69 69.4809C89.625 68.7495 89.5724 68.0205 89.467 67.294C89.347 66.4793 89.2159 65.6695 89.0725 64.8584C88.9341 64.078 88.7809 63.3013 88.6302 62.5233C88.4795 61.7417 88.2921 60.9686 88.1145 60.1931C87.9442 59.4494 87.7396 58.7204 87.5374 57.9854C87.3353 57.249 87.1 56.5287 86.8611 55.8022C85.99 53.1436 84.8592 50.5597 83.5042 48.1119C82.8108 46.8586 82.039 45.6481 81.2193 44.4744C80.8432 43.9366 80.4732 43.3951 80.0824 42.867C79.8876 42.6024 79.6928 42.3353 79.4931 42.0744C79.1794 41.664 78.8695 41.191 78.404 40.9411C77.8661 40.652 77.1421 40.7463 76.7255 41.2082L76.7243 41.2094C76.2122 41.7754 76.206 42.6526 76.7708 43.1917C76.8051 43.2248 76.8407 43.2554 76.8787 43.2836C77.2866 43.7639 77.648 44.287 78.0217 44.793C78.3537 45.2438 78.6674 45.7069 78.9883 46.1664C78.9651 46.1333 78.9418 46.1002 78.9197 46.0684C79.3792 46.7569 79.8374 47.443 80.2747 48.1438C80.7121 48.8421 81.1042 49.5637 81.5036 50.2841C81.7486 50.7852 81.9948 51.2875 82.2399 51.7898C82.442 52.2039 82.6197 52.6302 82.8047 53.0529C82.9811 53.456 83.1612 53.8566 83.318 54.267C83.5226 54.8024 83.7284 55.3378 83.9342 55.8732C84.1303 56.4748 84.3288 57.0751 84.5248 57.6766C84.6853 58.163 84.8127 58.6592 84.9487 59.1542C85.0847 59.6454 85.228 60.1355 85.342 60.6329C85.4877 61.27 85.6335 61.9083 85.7793 62.5454C86.0244 63.8158 86.2645 65.0863 86.4887 66.3617C86.5965 66.9669 86.6725 67.5783 86.7619 68.1859C86.8452 68.7568 86.8672 69.3425 86.9187 69.9158C86.9138 69.857 86.9077 69.7958 86.9028 69.737C86.9212 70.2626 86.9396 70.7881 86.9592 71.3125C86.9751 71.767 86.942 72.2289 86.9273 72.6859C86.882 73.1845 86.8378 73.6832 86.7925 74.1818C86.768 74.4464 86.7092 74.7147 86.6688 74.9769C86.6345 75.195 86.6002 75.4131 86.5671 75.6311C86.4519 76.1653 86.3356 76.697 86.2204 77.2312C86.1089 77.7421 85.9459 78.2468 85.8038 78.7504C85.6972 79.0677 85.5907 79.3862 85.4841 79.7048C85.2917 80.2757 85.0761 80.8331 84.8347 81.3844C84.5248 82.0436 84.1781 82.6819 83.7983 83.303C83.3891 83.9389 82.9529 84.5514 82.4775 85.1371C82.0769 85.6039 81.6567 86.0461 81.2095 86.4664C80.826 86.8057 80.4291 87.1255 80.0138 87.4269C79.5972 87.7086 79.1684 87.9647 78.7237 88.1999C78.2557 88.4278 77.7803 88.6275 77.2927 88.8076C76.6312 89.0306 75.9598 89.2058 75.2786 89.3675C74.3671 89.5574 73.458 89.7583 72.5306 89.8539C72.0442 89.8857 71.5578 89.8931 71.0702 89.8821C70.3253 89.8441 69.5853 89.7595 68.849 89.6395C68.1029 89.5023 67.369 89.3295 66.6413 89.1188C65.9013 88.886 65.1773 88.6153 64.4679 88.3028C63.8995 88.037 63.3481 87.7454 62.8042 87.4305C62.0715 86.965 61.3499 86.5019 60.67 85.9567C60.1554 85.5181 59.6714 85.0525 59.2096 84.5588C58.7428 84.0369 58.303 83.4978 57.8938 82.9294C57.5875 82.4785 57.3033 82.0178 57.0472 81.5376C56.8169 81.0708 56.6135 80.5954 56.4322 80.1054C56.1737 79.347 55.9666 78.5776 55.789 77.796C55.6762 77.2006 55.5648 76.6051 55.4533 76.0097C55.3969 75.7047 55.3724 75.391 55.332 75.0835C55.2903 74.7784 55.2499 74.4709 55.2107 74.1659C55.1556 73.5263 55.0894 72.8856 55.06 72.2448C55.0245 71.4473 54.9816 70.6509 54.962 69.8521C54.9228 68.2852 54.9093 66.7182 54.9032 65.15C54.8971 63.5818 54.8934 62.0136 54.8689 60.4442C54.8444 58.9116 54.7954 57.3814 54.7513 55.8487C54.6643 52.8826 54.5908 49.9141 54.135 46.9774C53.912 45.5415 53.5874 44.1228 53.2566 42.709C52.9417 41.3699 52.5974 40.037 52.2017 38.7199C52.1405 38.5141 52.0719 38.3107 52.0045 38.1086C51.882 37.7459 51.6614 37.4433 51.3208 37.2595C51.0011 37.088 50.6189 37.0464 50.2685 37.1468C49.5591 37.3502 49.0629 38.1588 49.3067 38.8829C49.6449 39.8875 49.9181 40.9154 50.1802 41.9421C50.4363 42.9467 50.674 43.955 50.8982 44.9669C51.0672 45.7743 51.2351 46.5829 51.3613 47.3989C51.4961 48.2773 51.6026 49.1533 51.6872 50.0378C51.7974 51.5288 51.8538 53.0211 51.9028 54.5157C51.9506 55.9602 51.9947 57.4046 52.0278 58.8491C52.0976 62.0075 52.0854 65.1647 52.1221 68.3231C52.1307 69.068 52.154 69.8129 52.1736 70.5603C52.1895 71.2378 52.2164 71.9226 52.2728 72.5989C52.3377 73.3928 52.3843 74.1916 52.4884 74.9806C52.5509 75.4474 52.6122 75.9129 52.6734 76.3797C52.7224 76.7485 52.8094 77.116 52.878 77.4823C53.1733 79.0554 53.5616 80.6003 54.1987 82.0742C54.9816 83.8837 56.2006 85.4679 57.5532 86.8853C58.2148 87.5788 58.9523 88.1999 59.7254 88.766C60.1456 89.0722 60.5903 89.3418 61.0277 89.6199C62.4991 90.5547 64.0955 91.2653 65.7592 91.7774C67.6815 92.3691 69.6956 92.6938 71.7085 92.6938C71.7673 92.6938 71.8298 92.6926 71.8923 92.6926Z" fill="#F4A672"/>
<path d="M93.0678 44.3259C94.0161 44.3234 94.9631 44.3222 95.9089 44.3198C97.2627 44.3161 98.6153 44.2769 99.9678 44.2499C105.766 44.1286 111.567 44.0735 117.367 44.0968C118.132 44.1005 118.754 43.4107 118.737 42.6621C118.72 41.8829 118.067 41.2961 117.302 41.2924C111.307 41.2679 105.312 41.3451 99.3185 41.4566C97.6621 41.4885 96.0069 41.5142 94.3493 41.5179C93.6706 41.5203 92.9955 41.5228 92.3168 41.5031C91.4678 41.4774 90.6187 41.4541 89.7697 41.4284C88.2272 41.3292 86.6885 41.2275 85.1497 41.0915C84.3791 41.0241 83.6085 40.9555 82.8391 40.8893C82.2412 40.8379 81.6445 40.7999 81.0442 40.7766C80.613 40.7607 80.1731 40.7693 79.7419 40.8158C79.4246 40.8501 79.0827 40.8918 78.7912 41.0315C78.1014 41.3623 77.7486 42.1562 78.061 42.8765C78.3501 43.543 79.182 43.9204 79.8632 43.6263C79.9232 43.6165 79.9832 43.608 80.042 43.6006C80.4402 43.5749 80.8347 43.5737 81.2329 43.5859C82.9824 43.679 84.7307 43.8701 86.4765 44.0245C87.2741 44.0943 88.0778 44.1286 88.8766 44.1801C89.5259 44.2218 90.1728 44.2438 90.8233 44.2622C91.5511 44.2842 92.2825 44.3247 93.0102 44.3247C93.0311 44.3259 93.0494 44.3259 93.0678 44.3259Z" fill="#F4A672"/>
<path d="M8.67664 48.5139C11.824 48.0716 14.9641 47.5803 18.1054 47.0964C21.1695 46.6247 24.225 46.1101 27.278 45.5747C27.898 45.4657 28.5167 45.342 29.1342 45.2231C29.9084 45.0761 30.6864 44.9426 31.457 44.7808C32.2717 44.6093 33.084 44.439 33.8988 44.2663C34.5677 44.1266 35.2415 44.0016 35.9055 43.8424C37.3684 43.4908 38.8422 43.1698 40.2928 42.7655C41.1822 42.5168 42.0729 42.2693 42.9624 42.0206C43.7403 41.8037 44.506 41.5268 45.2742 41.2794C45.9627 41.0576 46.639 40.7979 47.3166 40.5541C47.6326 40.4401 47.9438 40.309 48.255 40.1853C48.5588 40.0652 48.8529 39.9182 49.1579 39.8055C49.1383 39.8116 49.1175 39.8165 49.0967 39.8227C49.6958 39.5838 50.0915 38.9785 49.9898 38.3059C49.8783 37.5672 49.1432 36.9913 48.3922 37.1298C48.0541 37.1923 47.7368 37.3564 47.4243 37.4912C47.1058 37.6284 46.7812 37.7509 46.4589 37.8796C45.9076 38.0989 45.3441 38.29 44.7842 38.4897C43.94 38.7617 43.0947 39.0324 42.2506 39.3032C42.008 39.3816 41.7605 39.4416 41.5167 39.509C40.925 39.6744 40.3332 39.8398 39.7402 40.004C38.2125 40.4303 36.6627 40.777 35.119 41.147C32.2534 41.7498 29.3877 42.355 26.5025 42.861C23.4017 43.4062 20.2959 43.9183 17.1828 44.3986C14.2082 44.8568 11.2335 45.3199 8.25275 45.7389C7.49561 45.8455 6.96389 46.5867 7.0766 47.3365C7.18319 48.0324 7.797 48.5261 8.48063 48.5261C8.54557 48.5273 8.61048 48.5224 8.67664 48.5139Z" fill="#F4A672"/>
<path d="M109.845 118.958C109.623 118.958 109.401 118.945 109.181 118.913C108.893 118.873 108.606 118.825 108.322 118.766C107.956 118.693 107.589 118.615 107.234 118.498C106.536 118.27 105.826 118.004 105.186 117.638C103.845 116.869 102.612 115.951 101.521 114.852C101.179 114.507 101.036 114.026 101.116 113.577C100.381 113.593 99.6615 112.965 99.6774 112.201C99.686 111.8 99.8379 111.439 99.9629 111.064C100.258 110.03 100.454 108.973 100.639 107.914C100.825 106.764 100.996 105.611 101.149 104.456C101.296 103.35 101.379 102.242 101.456 101.129C101.478 100.489 101.522 99.8441 101.505 99.2033C101.481 98.1889 101.464 97.1769 101.384 96.1637C101.298 95.229 101.167 94.3003 100.981 93.3814C100.863 92.873 100.719 92.3744 100.548 91.8806C100.443 91.6086 100.33 91.3465 100.203 91.0867C100.099 90.8993 99.9898 90.7155 99.8734 90.5342C99.7754 90.3994 99.6737 90.2683 99.5659 90.1397C99.4569 90.0282 99.3454 89.9228 99.229 89.8199C99.142 89.7525 99.0526 89.6888 98.9607 89.6288C98.8786 89.5798 98.7941 89.5332 98.7083 89.4904C98.6409 89.4622 98.5723 89.4352 98.5025 89.4107C98.3224 89.3617 98.1423 89.3213 97.9597 89.2858C97.8605 89.2723 97.7613 89.2625 97.6608 89.2564C97.357 89.2539 97.0556 89.2637 96.7517 89.2809C95.8807 89.3678 95.0108 89.5051 94.1471 89.646C93.4181 89.766 92.6892 89.8812 91.9626 90.0086C90.5231 90.2598 89.0848 90.5207 87.6489 90.7927C86.8709 90.9397 86.0954 91.099 85.3162 91.235C84.5812 91.3624 83.8473 91.5143 83.1098 91.616C82.3698 91.7177 81.631 91.8292 80.8885 91.899C80.1657 91.9664 79.4453 92.0093 78.7213 92.0485C78.0658 92.1036 77.4275 91.6993 77.2401 91.0426C77.0318 90.3149 77.4643 89.5075 78.2006 89.3066C78.4787 89.2306 78.7752 89.238 79.0606 89.227C79.3326 89.2159 79.6034 89.1975 79.8754 89.1816C79.8153 89.1865 79.7553 89.1926 79.6965 89.1976C80.2111 89.1498 80.7281 89.1118 81.2402 89.0407C82.0169 88.9341 82.7912 88.8263 83.5631 88.6916C84.3055 88.5629 85.0492 88.4318 85.7904 88.2922C87.2495 88.0165 88.7075 87.7298 90.1703 87.475C91.774 87.1957 93.3765 86.9225 94.9863 86.6823C95.6994 86.5745 96.4173 86.4691 97.1413 86.4544C98.0749 86.4361 98.984 86.5549 99.8465 86.931C101.597 87.6943 102.695 89.4401 103.276 91.1909C103.633 92.2653 103.86 93.3667 104.014 94.4877C104.134 95.3649 104.237 96.2618 104.258 97.1488C104.272 97.6339 104.283 98.1203 104.295 98.6067C104.302 98.8725 104.318 99.1396 104.31 99.4055C104.285 100.201 104.274 100.999 104.219 101.792C104.161 102.628 104.087 103.457 103.997 104.289C103.919 105.029 103.8 105.765 103.695 106.5C103.594 107.211 103.48 107.919 103.357 108.625C103.303 108.935 103.247 109.245 103.189 109.555C104.01 109.207 104.854 108.915 105.726 108.704C106.336 108.557 106.955 108.38 107.575 108.29C108.498 108.157 109.412 108.141 110.333 108.306C111.333 108.485 112.289 108.766 113.172 109.276C113.904 109.699 114.606 110.333 115.03 111.071C115.487 111.865 115.745 112.719 115.73 113.64C115.717 114.475 115.441 115.27 115.032 115.989C114.589 116.772 113.915 117.458 113.161 117.946C112.416 118.428 111.569 118.819 110.673 118.906C110.4 118.938 110.122 118.958 109.845 118.958ZM110.127 116.15C110.286 116.131 110.443 116.107 110.601 116.077C110.703 116.052 110.802 116.022 110.901 115.989C110.989 115.955 111.076 115.918 111.162 115.878C111.332 115.784 111.496 115.688 111.659 115.584C111.794 115.484 111.924 115.381 112.051 115.272C112.151 115.173 112.246 115.073 112.339 114.969C112.432 114.847 112.519 114.726 112.603 114.6C112.653 114.513 112.699 114.425 112.742 114.335C112.782 114.246 112.816 114.155 112.849 114.063C112.872 113.98 112.892 113.895 112.908 113.811C112.918 113.737 112.926 113.664 112.931 113.589C112.932 113.523 112.93 113.455 112.926 113.389C112.918 113.316 112.907 113.244 112.893 113.171C112.872 113.084 112.848 112.998 112.82 112.914C112.789 112.837 112.756 112.76 112.719 112.684C112.676 112.604 112.63 112.526 112.579 112.45C112.519 112.369 112.456 112.289 112.39 112.212C112.322 112.141 112.252 112.072 112.18 112.007C112.045 111.901 111.908 111.802 111.765 111.705C111.663 111.645 111.559 111.588 111.453 111.537C111.232 111.441 111.009 111.356 110.78 111.28C110.451 111.191 110.121 111.119 109.786 111.058C109.579 111.028 109.373 111.005 109.165 110.989C108.921 110.986 108.681 110.994 108.438 111.011C108.138 111.046 107.844 111.096 107.549 111.156C106.794 111.325 106.056 111.527 105.316 111.746C104.91 111.892 104.508 112.039 104.112 112.209C103.805 112.343 103.504 112.484 103.203 112.628C103.293 112.682 103.377 112.747 103.453 112.823C103.779 113.152 104.117 113.462 104.468 113.762C104.919 114.126 105.383 114.465 105.866 114.786C106.209 114.995 106.555 115.189 106.914 115.372C107.309 115.547 107.703 115.702 108.113 115.84C108.463 115.929 108.812 116.007 109.167 116.08C109.396 116.114 109.623 116.141 109.855 116.156C109.948 116.154 110.037 116.153 110.127 116.15Z" fill="#F4A672"/>
<path d="M21.0306 120C20.9093 120 20.7868 119.996 20.6643 119.988C17.9898 119.803 15.8457 118.035 14.0705 116.166C13.0316 115.074 12.076 113.875 11.2735 112.595C10.4674 111.31 9.77271 109.951 9.47867 108.453C9.37576 107.929 9.63303 107.412 10.0471 107.109C9.84375 106.964 9.66121 106.799 9.52767 106.577C9.37943 106.33 9.3439 106.072 9.32185 105.791C9.28142 105.286 9.59751 104.82 10.003 104.554C10.2983 104.361 10.6511 104.307 10.9917 104.243C11.1877 104.208 11.3838 104.172 11.5798 104.137C11.9731 104.066 12.3651 103.987 12.7559 103.905C15.3851 103.321 17.9836 102.593 20.5797 101.882C23.2469 101.151 25.9128 100.41 28.5652 99.6269C31.5754 98.7399 34.5795 97.8297 37.5884 96.939C39.1321 96.4808 40.677 96.0299 42.2231 95.5766C43.6161 95.1686 44.9993 94.7313 46.3862 94.3098C47.7265 93.9031 49.0509 93.4436 50.3875 93.0222C52.0231 92.5052 53.6587 91.998 55.3053 91.514C58.139 90.6797 61.0022 89.9483 63.8519 89.1679C64.5882 88.9657 65.3748 89.3884 65.5879 90.1296C65.7962 90.8573 65.3637 91.6623 64.6262 91.8644C64.3812 91.933 64.1337 92.0004 63.8886 92.0678C60.8907 92.8874 57.8854 93.6801 54.9034 94.5573C52.1297 95.3732 49.3976 96.3227 46.6337 97.1681C43.4936 98.1286 40.3438 99.0499 37.1964 99.981C34.4006 100.808 31.6146 101.668 28.8115 102.475C25.8442 103.331 22.872 104.172 19.89 104.98C18.4198 105.378 16.9472 105.774 15.4709 106.145C15.2148 106.21 14.9575 106.271 14.7002 106.332C14.9232 106.44 15.1462 106.548 15.368 106.656C15.923 106.925 16.4644 107.22 17.0121 107.506C17.545 107.783 18.0743 108.087 18.5815 108.405C18.5607 108.392 18.5399 108.378 18.519 108.365C18.8706 108.585 19.2223 108.806 19.569 109.031C19.6866 109.088 19.7944 109.159 19.8887 109.242C20.0639 109.36 20.2379 109.478 20.4107 109.601C20.8921 109.943 21.3638 110.294 21.8122 110.68C22.5154 111.287 23.2138 111.951 23.7602 112.703C24.3164 113.467 24.7562 114.28 25.0111 115.194C25.2414 116.024 25.1765 116.9 24.902 117.708C24.744 118.168 24.4046 118.598 24.0518 118.924C23.7663 119.186 23.4331 119.417 23.0778 119.574C22.4285 119.858 21.735 120 21.0306 120ZM21.3417 117.18C21.463 117.164 21.5819 117.142 21.6995 117.112C21.6407 117.126 21.5819 117.138 21.5231 117.15C21.6076 117.131 21.6897 117.107 21.7718 117.08C21.8294 117.056 21.8857 117.03 21.9433 117.004C21.9825 116.982 22.0217 116.959 22.0597 116.935C22.0952 116.909 22.1295 116.882 22.1638 116.855C22.1504 116.868 22.1369 116.881 22.1222 116.894C22.1246 116.892 22.1283 116.89 22.1308 116.888C22.1577 116.861 22.1847 116.834 22.2092 116.807C22.2263 116.78 22.2447 116.753 22.2631 116.726C22.2729 116.705 22.2839 116.685 22.2937 116.665C22.2986 116.649 22.3047 116.633 22.3096 116.617C22.3157 116.589 22.3219 116.56 22.328 116.53C22.3341 116.48 22.3403 116.43 22.3464 116.381C22.3452 116.408 22.3439 116.434 22.3427 116.46C22.3439 116.456 22.3452 116.451 22.3464 116.446C22.3501 116.354 22.3501 116.263 22.3439 116.171C22.3354 116.099 22.3256 116.028 22.3121 115.957C22.29 115.867 22.2643 115.778 22.2349 115.691C22.1687 115.518 22.0977 115.349 22.0205 115.181C21.909 114.974 21.7889 114.776 21.6603 114.579C21.4925 114.35 21.316 114.13 21.131 113.916C20.7402 113.498 20.3323 113.102 19.8986 112.727C19.531 112.429 19.1537 112.148 18.7677 111.872C18.557 111.723 18.323 111.583 18.1208 111.417C18.0192 111.355 17.9187 111.29 17.8158 111.225C17.561 111.065 17.3049 110.906 17.0501 110.745C17.0611 110.751 17.0709 110.759 17.0819 110.765C16.5294 110.452 15.9842 110.128 15.4206 109.836C14.7407 109.481 14.0607 109.133 13.3697 108.797C13.0193 108.627 12.6665 108.463 12.3137 108.296C12.3529 108.442 12.397 108.586 12.4435 108.731C12.5918 109.123 12.7584 109.503 12.9409 109.879C13.2435 110.449 13.5792 110.998 13.9357 111.537C14.5042 112.343 15.1033 113.119 15.7502 113.866C16.0516 114.182 16.3554 114.495 16.6678 114.802C16.9716 115.098 17.289 115.377 17.6038 115.66C17.9236 115.92 18.2495 116.164 18.5913 116.391C18.8143 116.524 19.0397 116.648 19.2712 116.764C19.4844 116.857 19.7001 116.941 19.9194 117.015C20.0848 117.062 20.2502 117.102 20.4192 117.138C20.5711 117.161 20.7218 117.178 20.875 117.191C21.0318 117.193 21.1862 117.189 21.3417 117.18Z" fill="#F4A672"/>
<path d="M8.29979 48.0426C9.02753 47.8343 9.48329 47.0379 9.26154 46.3065C9.10962 45.8079 8.78984 45.3607 8.50683 44.9282C8.252 44.5411 7.98003 44.1662 7.70928 43.7913C7.18736 43.0685 6.63849 42.3628 6.0737 41.673C5.59099 41.0825 4.70522 40.9686 4.10245 41.45C3.5107 41.9217 3.3943 42.8296 3.87946 43.4213C4.6415 44.3536 5.36188 45.3166 6.05409 46.3016C6.23051 46.5712 6.40204 46.8395 6.56743 47.1163C6.57723 47.1359 6.58825 47.1568 6.59805 47.1764C6.80878 47.7301 7.34418 48.0965 7.92245 48.0965C8.04619 48.0952 8.1736 48.0781 8.29979 48.0426Z" fill="#F4A672"/>
<path d="M1.95881 50.8305C3.10065 50.262 4.24614 49.7034 5.39166 49.1435C6.01893 48.8372 6.64132 48.5211 7.26247 48.2025C7.51362 48.0739 7.76477 47.9404 8.01102 47.8032C8.2781 47.6537 8.59909 47.5152 8.83187 47.3119C9.11855 47.0619 9.31336 46.7459 9.35379 46.3612C9.39177 45.9973 9.28518 45.6261 9.0573 45.3394C8.6089 44.7795 7.71576 44.6214 7.13749 45.0735C6.52492 45.4484 5.87682 45.7657 5.23975 46.0916C5.2716 46.0757 5.30345 46.0598 5.33408 46.0438C3.84553 46.7961 2.33859 47.5103 0.845139 48.254C0.502098 48.4255 0.228894 48.6791 0.0904524 49.0442C-0.0381879 49.3824 -0.0296167 49.7671 0.116176 50.0991C0.334252 50.6038 0.876993 50.953 1.42341 50.953C1.60473 50.9555 1.78729 50.9162 1.95881 50.8305Z" fill="#F4A672"/>
<path d="M6.6108 57.5967C7.44267 55.9366 8.09935 54.1957 8.7254 52.4498C9.03414 51.5873 9.29387 50.7101 9.55483 49.8317C9.61853 49.6185 9.66385 49.398 9.71653 49.1812C9.79862 48.8516 9.88071 48.522 9.93217 48.1839C10.0069 47.684 10.0093 47.1878 9.67733 46.7737C9.45068 46.492 9.08927 46.2629 8.7205 46.2469C8.34683 46.231 7.99767 46.3057 7.69873 46.5446C7.40715 46.7774 7.21724 47.1229 7.17681 47.4941C7.16945 47.5603 7.16823 47.6277 7.17191 47.695C7.17068 47.7073 7.16947 47.7195 7.16824 47.7318C7.00162 48.5833 6.75781 49.4115 6.51155 50.2397C5.8953 52.0848 5.22638 53.9102 4.42391 55.683C4.3308 55.879 4.23646 56.0738 4.13845 56.2686C3.79663 56.951 4.02206 57.7988 4.70937 58.1688C4.91274 58.2779 5.13939 58.3305 5.36604 58.3305C5.87325 58.3305 6.37557 58.0696 6.6108 57.5967Z" fill="#F4A672"/>
<path d="M8.56215 48.5666C9.33889 48.5482 9.93186 47.8964 9.93186 47.1307C9.93186 46.7926 9.87183 46.4483 9.8265 46.1126C9.77382 45.7181 9.72849 45.3236 9.68438 44.9279C9.6023 44.1879 9.53491 43.4467 9.46998 42.7043C9.4761 42.7631 9.481 42.8231 9.48712 42.8831C9.41606 42.0451 9.35236 41.2071 9.29967 40.3679C9.25312 39.6047 8.65158 38.9798 7.86504 38.9982C7.1226 39.0154 6.44753 39.6696 6.49531 40.4328C6.56515 41.5661 6.65336 42.6981 6.75995 43.8277C6.81631 44.4244 6.87511 45.0222 6.94126 45.6189C6.9964 46.1163 7.07236 46.6125 7.12626 47.1111C7.12749 47.1393 7.12871 47.1675 7.12871 47.1957C7.12871 47.9491 7.79398 48.5654 8.53274 48.5654C8.54132 48.5666 8.55112 48.5666 8.56215 48.5666Z" fill="#F4A672"/>
<path d="M13.6777 53.9124C14.3307 53.5216 14.5561 52.6407 14.1616 51.9877C13.7095 51.2416 13.2415 50.5041 12.7429 49.7874C12.7478 49.7935 12.7527 49.8008 12.7576 49.807C12.2896 49.1356 11.8093 48.4777 11.3119 47.8259C11.0975 47.5466 10.866 47.2783 10.643 47.0051C10.3061 46.5897 9.93729 46.1952 9.54524 45.8301C9.28429 45.5876 8.98047 45.3683 8.64723 45.2359C7.93787 44.9529 7.10599 45.345 6.83768 46.0507C6.57795 46.7355 6.90384 47.4927 7.54214 47.8112C7.61687 47.8627 7.68671 47.9202 7.75409 47.9815C7.70509 47.9411 7.65607 47.9006 7.60706 47.8602C7.76511 48.0072 7.91581 48.1579 8.06528 48.3135C8.79424 49.1307 9.47787 50.0018 10.1064 50.8986C10.0917 50.8765 10.077 50.8557 10.0623 50.8336C10.0941 50.8802 10.126 50.9267 10.1591 50.9721C10.1627 50.977 10.1652 50.9819 10.1688 50.9868C10.1664 50.9843 10.1652 50.9807 10.1627 50.9782C10.2656 51.1264 10.3686 51.2747 10.4715 51.4229C10.9125 52.0833 11.3425 52.7498 11.7554 53.4285C12.0176 53.8622 12.4905 54.1072 12.9695 54.1072C13.2109 54.1085 13.4559 54.0447 13.6777 53.9124Z" fill="#F4A672"/>
<path d="M117.888 43.8647C118.633 43.8475 119.21 43.246 119.255 42.5219C119.52 41.9877 119.847 41.483 120.155 40.9721C120.434 40.5065 120.714 40.041 120.996 39.5754C121.561 38.6431 122.131 37.712 122.709 36.7882C122.703 36.798 122.697 36.8078 122.689 36.8176C122.781 36.6706 122.874 36.5248 122.967 36.379C123.168 36.0617 123.274 35.7236 123.217 35.345C123.161 34.9762 122.955 34.6381 122.653 34.4188C122.062 33.9912 121.103 34.088 120.694 34.7336C119.938 35.9245 119.203 37.1288 118.471 38.3356C118.137 38.8857 117.805 39.4382 117.474 39.9908C117.273 40.324 117.073 40.6597 116.882 40.9991C116.619 41.4671 116.453 41.9559 116.453 42.4937C116.453 43.2484 117.119 43.8634 117.857 43.8634C117.867 43.8647 117.878 43.8647 117.888 43.8647Z" fill="#F4A672"/>
<path d="M126.675 50.3721C127.184 49.8379 127.208 48.8897 126.629 48.3886C125.549 47.4513 124.433 46.5558 123.302 45.6822C122.73 45.24 122.16 44.794 121.572 44.3713C121.263 44.1484 120.954 43.9315 120.636 43.722C120.154 43.4059 119.663 43.1106 119.087 43.0139C118.334 42.8864 117.621 43.537 117.546 44.2623C117.508 44.6249 117.615 44.9961 117.843 45.2828C118.03 45.5168 118.267 45.6602 118.536 45.7435C118.568 45.7582 118.601 45.7717 118.633 45.7851C118.716 45.828 118.798 45.8734 118.879 45.9211C119.791 46.5227 120.658 47.1806 121.522 47.8507C122.363 48.5013 123.194 49.1641 124.015 49.8416C124.242 50.0327 124.467 50.2239 124.69 50.4162C124.975 50.6649 125.331 50.796 125.684 50.796C126.044 50.7972 126.398 50.6612 126.675 50.3721Z" fill="#F4A672"/>
<path d="M120.659 55.8235C121.393 55.712 121.978 54.9757 121.834 54.2246C121.48 52.371 121.053 50.5321 120.626 48.6943C120.418 47.8 120.201 46.9081 119.979 46.0162C119.864 45.5518 119.729 45.0875 119.589 44.6305C119.443 44.165 119.281 43.6418 118.918 43.2951C118.644 43.0329 118.289 42.9067 117.914 42.9067C117.149 42.9067 116.527 43.5904 116.544 44.3414C116.55 44.606 116.63 44.8486 116.762 45.0544C116.783 45.101 116.803 45.1488 116.821 45.1953C117.249 46.4915 117.544 47.8318 117.856 49.1599C118.126 50.3066 118.387 51.4558 118.639 52.605C118.786 53.285 118.928 53.9637 119.059 54.6473C119.189 55.3297 119.761 55.8394 120.447 55.8394C120.517 55.8394 120.587 55.8345 120.659 55.8235Z" fill="#F4A672"/>
<path d="M118.392 45.2252C118.451 45.2154 118.509 45.2019 118.567 45.1872C119.338 45.0549 120.107 44.9287 120.873 44.7706C121.712 44.5991 122.548 44.408 123.382 44.2157C124.931 43.8616 126.478 43.5026 128.021 43.1277C128.763 42.9464 129.186 42.1047 128.981 41.3929C128.764 40.6346 127.987 40.2511 127.245 40.4312C125.144 40.9421 123.034 41.426 120.925 41.9001C120.412 42.0055 119.9 42.1096 119.386 42.2027C118.859 42.2971 118.314 42.351 117.797 42.4882C117.813 42.4845 117.827 42.4809 117.843 42.4784C117.156 42.6585 116.683 43.3274 116.793 44.049C116.895 44.7229 117.503 45.2436 118.175 45.2436C118.248 45.2436 118.32 45.2374 118.392 45.2252Z" fill="#F4A672"/>
</svg>
