<svg width="95" height="100" viewBox="0 0 95 100" fill="none" xmlns="http://www.w3.org/2000/svg">
<path d="M45.639 31.9954C45.0931 31.9908 44.5444 31.9286 43.9985 31.8907C42.2868 31.7743 40.6166 31.3348 38.9896 30.8124C38.1865 30.5543 37.3889 30.298 36.6029 29.9922C35.5463 29.5798 34.5221 29.0727 33.5485 28.4907C33.2264 28.2976 32.9024 28.1045 32.5794 27.9114C32.2184 27.6957 31.8701 27.4638 31.5236 27.2247C30.3163 26.3873 29.1775 25.4498 28.1985 24.3525C27.7311 23.8292 27.3079 23.2616 26.9397 22.6642C26.5436 22.0209 26.235 21.3432 25.986 20.6303C25.4852 19.2001 25.2686 17.6968 25.2316 16.1872C25.1946 14.6442 25.4806 13.1003 25.9309 11.6277C26.3767 10.1668 27.0417 8.76814 27.8349 7.46426C28.5973 6.2109 29.5177 5.07034 30.578 4.05701C31.0986 3.55801 31.6671 3.10684 32.2581 2.69176C32.9033 2.23788 33.5909 1.83545 34.311 1.51241C34.9859 1.20832 35.6807 0.965589 36.3909 0.759854C36.7563 0.65428 37.1272 0.566744 37.499 0.48824C37.8536 0.413346 38.2145 0.340258 38.5745 0.296043C38.8714 0.25995 39.1683 0.222953 39.4652 0.185054C39.707 0.156179 39.9515 0.111062 40.1952 0.0975268C40.5083 0.0812846 40.8214 0.063238 41.1354 0.0469958C41.4323 0.0307536 41.7346 -0.0017325 42.0332 7.21826e-05C42.6387 0.00548624 43.2451 0.0109115 43.8505 0.0172279C44.0175 0.0190326 44.1853 0.0388855 44.3513 0.0524206C44.7511 0.0840026 45.1517 0.116476 45.5506 0.148058C46.1019 0.192273 46.6451 0.286119 47.191 0.368232C48.2576 0.529752 49.3133 0.769774 50.3492 1.07206C50.6326 1.15507 50.915 1.2372 51.1983 1.32021C51.479 1.40142 51.7524 1.52414 52.0258 1.627C53.0436 2.00689 54.0163 2.45987 54.9043 3.09331C55.1316 3.25573 55.3419 3.45425 55.5422 3.65006C55.6568 3.76285 55.7353 3.8991 55.7786 4.04528C56.2749 4.37644 56.7604 4.72384 57.2305 5.08929C58.1031 5.76785 58.9576 6.49154 59.711 7.30364C60.1045 7.72775 60.4861 8.16087 60.8372 8.62016C61.1611 9.04426 61.4616 9.48461 61.7548 9.92947C62.0427 10.3644 62.3215 10.8083 62.5733 11.2658C62.8539 11.7756 63.1056 12.2927 63.3339 12.8278C63.7698 13.8501 64.0296 14.9384 64.1587 16.0392C64.2814 17.0932 64.2101 18.1715 64.0342 19.2155C63.8501 20.3109 63.5911 21.3829 63.2266 22.4314C63.1363 22.6904 63.038 22.943 62.9315 23.1948C62.8133 23.4736 62.6779 23.7407 62.5408 24.0105C62.2917 24.5014 61.9967 24.9634 61.6998 25.4254C61.3957 25.8982 61.0212 26.3214 60.6549 26.7455C60.2615 27.2003 59.8157 27.6118 59.3528 27.9962C59.0442 28.2533 58.7194 28.4879 58.3963 28.7262C58.2167 28.8588 58.0327 28.9779 57.8441 29.0979C57.4985 29.3172 57.1565 29.5401 56.7983 29.7386C56.4716 29.9209 56.135 30.0842 55.794 30.2394C55.526 30.3621 55.2544 30.4866 54.9764 30.5877C54.648 30.7059 54.3195 30.825 53.9911 30.9441C53.7826 31.019 53.5715 31.0759 53.3576 31.1345C53.0833 31.2103 52.8063 31.3069 52.5266 31.3637C52.0014 31.4702 51.4781 31.5929 50.9475 31.6687C50.6073 31.7165 50.2671 31.7653 49.9269 31.8131C49.6824 31.8474 49.4351 31.86 49.1906 31.8817C48.5942 31.9331 47.9995 31.962 47.4013 31.9881C47.145 31.999 46.8896 32.0026 46.6334 32.0026C46.3013 32.0044 45.9701 31.9981 45.639 31.9954ZM46.1957 29.9759C46.471 29.9786 46.7471 29.9813 47.0214 29.984C47.6413 29.9579 48.2594 29.9326 48.8775 29.8794C49.1753 29.8532 49.4739 29.837 49.769 29.7936C50.1336 29.7422 50.4972 29.6899 50.8608 29.6384C51.2597 29.5572 51.6585 29.476 52.0574 29.3948C52.245 29.3569 52.43 29.2928 52.6132 29.2423C52.7991 29.1909 52.9841 29.1394 53.169 29.088C53.7655 28.8723 54.3619 28.6612 54.9431 28.4058C55.3563 28.2127 55.7597 28.0025 56.1549 27.776C56.44 27.5946 56.7252 27.4142 57.0094 27.2319C57.1854 27.12 57.3487 26.9819 57.5165 26.8583C57.7087 26.7166 57.8964 26.575 58.0805 26.4252C58.4243 26.1301 58.75 25.8188 59.0631 25.4913C59.2283 25.3 59.3943 25.1096 59.5594 24.9183C59.7119 24.7423 59.8437 24.5429 59.9808 24.3543C60.1035 24.1621 60.2272 23.9708 60.3508 23.7786C60.4762 23.5837 60.5827 23.3753 60.6964 23.1741C60.7821 23.0062 60.8669 22.8375 60.9517 22.6696C61.0537 22.4675 61.1313 22.25 61.2197 22.0416C61.3334 21.715 61.4453 21.3892 61.5437 21.0572C61.6475 20.708 61.735 20.3569 61.8234 20.0032C61.8866 19.6991 61.9488 19.3959 62.0012 19.091C62.058 18.7517 62.1022 18.4124 62.1446 18.0704C62.1582 17.9053 62.1717 17.7401 62.1853 17.5759C62.2006 17.3819 62.1934 17.1816 62.197 16.9867C62.188 16.8143 62.1789 16.642 62.1699 16.4696C62.1591 16.2648 62.1221 16.0573 62.0977 15.8524C62.0707 15.6954 62.0436 15.5384 62.0156 15.3814C61.9813 15.182 61.9209 14.9844 61.873 14.7877C61.7873 14.5125 61.7007 14.2399 61.6023 13.9692C61.5022 13.6967 61.3912 13.4315 61.2775 13.1653C61.0176 12.6419 60.7406 12.1357 60.4437 11.6313C59.9393 10.8363 59.4115 10.0639 58.8168 9.33211C58.3341 8.7862 57.8287 8.27186 57.2964 7.77467C56.5835 7.14393 55.84 6.56282 55.0658 6.00968C54.583 5.67762 54.0921 5.35819 53.5895 5.05681C53.3242 4.89799 53.1573 4.6282 53.1131 4.33855C52.9732 4.25644 52.8307 4.17793 52.6872 4.10213C52.014 3.77458 51.3183 3.51921 50.619 3.25753C50.3745 3.18625 50.1299 3.11496 49.8863 3.04368C49.6319 2.96968 49.3765 2.87764 49.1175 2.81989C48.5833 2.70169 48.0482 2.58168 47.5141 2.46257C46.8978 2.37053 46.2815 2.2767 45.6652 2.18375C45.0669 2.13593 44.4686 2.08719 43.8713 2.04027C43.6836 2.02493 43.4923 2.02764 43.3028 2.03034C43.2099 2.03215 43.1178 2.03306 43.0258 2.03306C42.6901 2.03035 42.3554 2.02584 42.0206 2.02313C41.4756 2.052 40.9306 2.08178 40.3846 2.11066C40.1157 2.126 39.845 2.17743 39.5771 2.20991C39.2685 2.24872 38.9598 2.2812 38.6531 2.32903C37.9555 2.45084 37.2698 2.60514 36.593 2.80636C36.0895 2.96698 35.5959 3.15286 35.1132 3.36672C34.6954 3.56433 34.2938 3.78631 33.9004 4.02904C33.4312 4.33223 32.9809 4.65797 32.5469 5.01079C32.0957 5.39519 31.6716 5.80665 31.2665 6.23887C30.8523 6.69817 30.4652 7.17822 30.1061 7.68263C29.6793 8.30795 29.2903 8.95403 28.9375 9.62357C28.5982 10.2949 28.2996 10.9834 28.0415 11.6899C27.8484 12.2512 27.686 12.8188 27.5524 13.3963C27.436 13.9494 27.3422 14.5052 27.288 15.0674C27.2556 15.552 27.2492 16.0347 27.2646 16.5193C27.2926 17.0571 27.3458 17.5913 27.4297 18.1236C27.5199 18.6217 27.6327 19.1126 27.7762 19.5981C27.908 20.0059 28.055 20.4066 28.2265 20.7991C28.3672 21.0932 28.5233 21.3766 28.693 21.6554C28.9366 22.029 29.1965 22.389 29.4762 22.7373C29.8372 23.1632 30.2225 23.5657 30.6294 23.9474C31.2674 24.5221 31.9468 25.0509 32.648 25.5454C33.1217 25.8694 33.6044 26.1653 34.0962 26.4595C34.5961 26.7582 35.0924 27.0523 35.6085 27.3221C36.4504 27.7462 37.314 28.109 38.1983 28.4329C39.4381 28.8317 40.6761 29.2531 41.9475 29.5419C42.6531 29.6899 43.3642 29.7936 44.0806 29.8703C44.5706 29.9037 45.0597 29.938 45.5488 29.9705C45.6931 29.9795 45.8393 29.9786 45.9855 29.9768C46.0351 29.9759 46.0847 29.9759 46.1344 29.9759C46.1551 29.9759 46.1759 29.9759 46.1957 29.9759Z" fill="#F4914F"/>
<path d="M42.3609 16.0788C42.3257 15.4273 42.3321 14.7804 42.3718 14.1298C42.4115 13.4945 42.5017 12.8638 42.5964 12.2349C42.6858 11.6456 42.7931 11.06 42.8888 10.4717C42.9475 10.1107 43.0052 9.74799 43.062 9.38615C43.1216 9.01078 43.1451 8.59751 43.3797 8.2844C43.7108 7.84405 44.3795 7.7863 44.8018 8.12288C45.1041 8.3638 45.2232 8.73647 45.1609 9.08928C45.1636 9.08297 45.1663 9.07755 45.169 9.07123C45.0851 9.4818 45.0319 9.89869 44.9642 10.3111C44.8866 10.7893 44.8081 11.2666 44.7278 11.7449C44.5969 12.5281 44.4751 13.3104 44.3993 14.1009C44.365 14.6486 44.3479 15.1936 44.3659 15.7423C44.3686 15.7838 44.3704 15.8262 44.3722 15.8677C44.3876 16.1357 44.3289 16.3901 44.1584 16.604C43.9897 16.8151 43.7406 16.9523 43.4726 16.9803C43.4401 16.9839 43.4076 16.9857 43.3752 16.9857C42.8798 16.9848 42.3898 16.5968 42.3609 16.0788Z" fill="#F4914F"/>
<path d="M48.2673 16.6997C47.7105 16.6149 47.3514 16.0933 47.4191 15.5474C47.5634 14.3816 47.7213 13.2167 47.8774 12.0527C48.029 10.9265 48.2068 9.80131 48.3223 8.67067C48.3232 8.65172 48.3241 8.63278 48.3241 8.61292C48.3422 8.11032 48.7247 7.6826 49.2301 7.62936C49.7633 7.57342 50.3038 7.97947 50.3426 8.5299C50.3426 8.53261 50.3426 8.53442 50.3435 8.53713C50.3454 8.57864 50.3454 8.61923 50.3435 8.65983H50.3472C50.3255 9.2626 50.219 9.86537 50.1369 10.4618C50.0548 11.0556 49.9736 11.6484 49.8933 12.2421C49.7309 13.445 49.5693 14.6487 49.4186 15.8524C49.3564 16.3505 48.8953 16.7114 48.4107 16.7114C48.3638 16.7105 48.3151 16.7069 48.2673 16.6997Z" fill="#F4914F"/>
<path d="M44.8345 25.2105C43.4774 25.0544 42.1961 24.4218 41.1349 23.5844C40.0232 22.7092 39.1434 21.528 38.5524 20.2494C37.9884 19.0267 37.7114 17.693 37.6681 16.3485C37.6591 16.0851 37.6519 15.8225 37.6519 15.5581C37.6519 15.0068 38.1454 14.5574 38.6868 14.57C39.2472 14.5827 39.6749 15.0537 39.6749 15.605C39.6749 15.8595 39.6821 16.1121 39.6903 16.3657C39.7146 16.7618 39.7561 17.1543 39.8157 17.5468C39.8761 17.8681 39.9528 18.1857 40.0431 18.5006C40.1387 18.7939 40.2479 19.0799 40.3706 19.3633C40.5078 19.6538 40.6585 19.9345 40.8236 20.2115C41.0158 20.5101 41.2233 20.7962 41.4471 21.0714C41.6447 21.2988 41.8523 21.5145 42.0706 21.722C42.2881 21.9142 42.5128 22.0965 42.7483 22.267C42.9829 22.4231 43.2229 22.5657 43.472 22.6974C43.6551 22.785 43.8401 22.8644 44.0287 22.9384C44.2489 23.0132 44.4709 23.0782 44.6982 23.1342C44.8932 23.173 45.089 23.2036 45.2866 23.228C45.5419 23.247 45.7946 23.2524 46.05 23.2461C46.2557 23.2307 46.4569 23.2082 46.6608 23.1766C46.9135 23.127 47.1616 23.0683 47.4071 22.9961C47.6859 22.9014 47.9575 22.7931 48.2273 22.674C48.4854 22.5485 48.7353 22.4132 48.9817 22.2652C49.2208 22.11 49.4509 21.9449 49.6756 21.7671C49.9219 21.5551 50.1529 21.3304 50.374 21.0931C50.8324 20.5634 51.2393 19.9958 51.64 19.4219C51.6391 19.4237 51.6373 19.4255 51.6373 19.4255C51.9603 18.9301 52.2689 18.4302 52.5468 17.9087C52.6741 17.6452 52.7923 17.3808 52.896 17.1083C52.9069 17.0758 52.9177 17.0434 52.9285 17.01C53.1036 16.4875 53.6342 16.16 54.181 16.317C54.6944 16.464 55.049 17.047 54.874 17.5694C54.5148 18.645 53.9446 19.6484 53.2976 20.5769C52.9745 21.0407 52.6497 21.5054 52.2969 21.9485C51.4243 23.0448 50.3343 23.9345 49.0566 24.5166C48.4276 24.8026 47.7834 25.0174 47.1048 25.15C46.678 25.233 46.2485 25.2691 45.819 25.2691C45.4887 25.2691 45.1612 25.2484 44.8345 25.2105Z" fill="#F4914F"/>
<path d="M34.5521 79.0528C33.9322 79.042 33.3123 79.0113 32.7294 78.7875C32.4975 78.6982 32.2746 78.5186 32.1266 78.3228C31.9533 78.0945 31.8622 77.8518 31.8162 77.5712C31.7296 77.0424 31.6971 76.5019 31.6529 75.9695C31.6123 75.4723 31.5734 74.9751 31.5356 74.477C31.4489 73.35 31.3659 72.223 31.3073 71.0942C31.0781 66.6745 31.2829 62.2458 31.4643 57.8279C31.6429 53.4515 31.8162 49.0734 31.9876 44.6961C32.1663 40.1402 32.3359 35.5833 32.6878 31.0364C32.7284 30.5158 32.788 29.9987 32.8421 29.479C32.8665 29.2381 32.9026 28.9971 32.9342 28.7562C32.9468 28.6606 32.9613 28.5649 32.9766 28.4693C33.0019 28.3059 33.0172 28.1219 33.0939 27.973C33.2202 27.7266 33.398 27.529 33.6642 27.4289C33.9186 27.3323 34.174 27.3558 34.4258 27.446C34.8995 27.6184 35.1215 28.1832 34.9969 28.6479C34.8796 29.4068 34.8029 30.1702 34.7235 30.9336C34.6378 32.0416 34.5575 33.1488 34.4898 34.2587C34.4203 35.3993 34.3635 36.5407 34.3048 37.6813C34.1948 39.8361 34.119 41.9927 34.0341 44.1484C33.8609 48.5446 33.6903 52.9408 33.509 57.337C33.4169 59.5613 33.3041 61.7874 33.2644 64.0126C33.2238 66.2693 33.2265 68.5252 33.3141 70.781C33.3718 71.8864 33.4503 72.9909 33.5351 74.0945C33.5767 74.6395 33.62 75.1854 33.6633 75.7304C33.6967 76.1455 33.7246 76.566 33.7752 76.981C33.8474 76.991 33.9195 76.9991 33.9926 77.0063C35.0186 77.0776 36.0545 77.0289 37.0814 77.0009C37.5903 76.9702 38.1028 76.9513 38.6108 76.9062C39.1712 76.8565 39.7306 76.8042 40.291 76.7537C41.4388 76.6508 42.5847 76.5091 43.7307 76.3864C45.8648 76.1563 47.9952 75.9118 50.1247 75.6438C51.6289 75.4552 53.1304 75.2639 54.6265 75.0166C55.4242 74.8677 56.2173 74.7026 57.0042 74.5023C57.4166 74.3976 57.8271 74.2912 58.2386 74.1856C58.6392 74.0827 59.0444 73.9862 59.4423 73.8698C59.4865 73.8553 59.5307 73.8391 59.5741 73.821C59.5903 73.812 59.6065 73.8039 59.6237 73.7949C59.6354 73.7868 59.6462 73.7786 59.658 73.7714C59.6652 73.7651 59.6715 73.7588 59.6787 73.7524C59.6905 73.738 59.7013 73.7236 59.713 73.7092C59.732 73.6785 59.7509 73.6469 59.7681 73.6153C59.7942 73.5612 59.8177 73.5052 59.8403 73.4493C59.8962 73.2706 59.9449 73.091 59.9882 72.9097C60.064 72.5271 60.1164 72.1418 60.1534 71.7538C60.2066 71.0599 60.2066 70.366 60.2165 69.6693C60.2201 69.4257 60.2021 69.1794 60.194 68.9358C60.1858 68.6903 60.1786 68.444 60.1705 68.1985C60.027 66.05 59.8475 63.9043 59.6787 61.7567C59.501 59.4873 59.3367 57.217 59.1653 54.9476C59.0011 52.7567 58.8116 50.5695 58.6067 48.3831C58.4055 46.2436 58.1447 44.1096 57.911 41.9737C57.6737 39.8081 57.4933 37.638 57.2523 35.4742C57.0322 33.5061 56.8066 31.5372 56.5187 29.5783C56.5043 29.479 56.4889 29.3797 56.4745 29.2814C56.3888 28.7364 56.8472 28.2247 57.375 28.1688C57.6367 28.1408 57.9047 28.2184 58.1114 28.3835C58.3297 28.5577 58.4452 28.7977 58.4876 29.0693C58.7899 31.0067 59.002 32.9602 59.2258 34.9084C59.4748 37.0912 59.667 39.2784 59.8935 41.4639C60.1191 43.6359 60.3807 45.8042 60.6 47.977C60.8229 50.1805 60.9943 52.3895 61.1685 54.5975C61.3354 56.7189 61.4798 58.843 61.6458 60.9644C61.8245 63.2447 62.0212 65.5231 62.1719 67.8051C62.2089 68.3754 62.2161 68.9475 62.2333 69.5187C62.2495 70.0501 62.2269 70.5816 62.2188 71.1131C62.2098 71.7267 62.1349 72.3475 62.0375 72.9521C61.9328 73.6072 61.7541 74.2668 61.3941 74.8308C61.0737 75.3316 60.5648 75.6411 60.0054 75.8107C59.7175 75.8964 59.4261 75.9686 59.1346 76.0435C58.1375 76.3007 57.1431 76.5723 56.1343 76.7825C55.0443 77.009 53.9434 77.1814 52.8408 77.3339C50.6363 77.6371 48.4274 77.9023 46.2158 78.1496C44.0312 78.3941 41.8466 78.6441 39.6566 78.8426C38.5179 78.9464 37.3809 79.0149 36.2386 79.0456C35.8957 79.0546 35.5537 79.0591 35.2108 79.0591C34.9924 79.0582 34.7723 79.0564 34.5521 79.0528Z" fill="#F4914F"/>
<path d="M32.4734 60.9696C32.4148 60.4111 32.8281 59.9292 33.374 59.857C33.4976 59.8408 33.6275 59.8408 33.7548 59.8408C33.8035 59.8408 33.8531 59.8408 33.901 59.8399C34.113 59.8354 34.3242 59.8291 34.5344 59.8218C36.6594 59.6964 38.7763 59.4907 40.8914 59.2425C43.1355 58.98 45.3815 58.73 47.6328 58.5414C48.7084 58.4512 49.7858 58.3718 50.8614 58.2761C51.9496 58.1796 53.0351 58.0659 54.1207 57.9531C55.1565 57.8457 56.1915 57.7338 57.2265 57.6192C58.091 57.5236 58.9527 57.4108 59.8162 57.3079C59.8587 57.3034 59.902 57.298 59.9444 57.2926C60.4912 57.2249 61.0001 57.6517 61.057 58.1931C61.1156 58.7481 60.7042 59.238 60.1564 59.3057C58.2687 59.5358 56.3801 59.7515 54.4879 59.95C53.443 60.0601 52.3972 60.171 51.3505 60.2649C50.2776 60.3596 49.2029 60.4409 48.13 60.5302C45.8768 60.7188 43.6309 60.9606 41.385 61.2223C39.1905 61.4785 36.9942 61.7041 34.788 61.8323C34.3873 61.8548 33.9867 61.8566 33.586 61.8684C33.5463 61.8738 33.5048 61.8765 33.466 61.8765C32.9679 61.8783 32.5258 61.4686 32.4734 60.9696Z" fill="#F4914F"/>
<path d="M46.6331 76.9549C46.5338 75.9506 46.4779 74.94 46.4255 73.9321C46.412 73.683 46.3985 73.4331 46.3876 73.1841C46.3813 73.0487 46.375 72.9143 46.3696 72.7789C46.3687 72.7699 46.3687 72.76 46.3687 72.7509C46.3678 72.7392 46.3669 72.7284 46.3669 72.7166C46.3615 72.5777 46.347 72.4342 46.3479 72.2934C46.3398 72.1779 46.3407 72.0606 46.3362 71.9469C46.3137 71.3983 46.2947 70.8497 46.2758 70.302C46.2469 69.4881 46.2144 68.675 46.1828 67.862C46.1846 67.9044 46.1864 67.9478 46.1873 67.9911C46.1368 66.7973 46.0836 65.6026 46.0276 64.4088C46.0014 63.8529 45.9771 63.2971 45.9482 62.7412C45.9329 62.438 45.9184 62.134 45.9022 61.8308C45.8932 61.6783 45.8859 61.5258 45.8769 61.3733C45.8679 61.2018 45.8354 61.0115 45.8715 60.8427C45.9311 60.572 46.0511 60.341 46.2794 60.175C46.4842 60.0261 46.772 59.9422 47.0247 59.9945C47.2945 60.0496 47.5282 60.175 47.6924 60.4015C47.8278 60.5882 47.8946 60.8192 47.8828 61.0484C48.0064 63.2222 48.0976 65.3968 48.1905 67.5724C48.2375 68.6786 48.2781 69.7849 48.3178 70.8912C48.3268 71.1303 48.3349 71.3676 48.3448 71.6068C48.3493 71.7304 48.3539 71.8531 48.3584 71.9767C48.3584 71.9794 48.3584 71.983 48.3584 71.9857C48.3638 72.1184 48.3692 72.2528 48.3746 72.3855C48.3746 72.3882 48.3746 72.3918 48.3746 72.3945C48.3782 72.4559 48.3809 72.519 48.3827 72.5813C48.4459 73.9682 48.5091 75.3605 48.6462 76.742C48.7004 77.2897 48.297 77.7968 47.7457 77.8546C47.7114 77.8582 47.678 77.86 47.6437 77.86C47.1375 77.8609 46.6845 77.4693 46.6331 76.9549Z" fill="#F4914F"/>
<path d="M35.9309 99.9985C35.3597 99.9859 34.7976 99.9326 34.2363 99.8244C33.7346 99.7278 33.2492 99.5879 32.779 99.3867C32.1961 99.1377 31.6809 98.7479 31.2568 98.2795C30.8859 97.869 30.6017 97.3889 30.3978 96.8755C30.1776 96.3197 30.1063 95.6095 30.3481 95.0474C30.5728 94.5258 30.9265 94.0936 31.3642 93.7362C31.5834 93.5567 31.8731 93.4258 32.1438 93.3482C32.4695 93.2553 32.8314 93.2084 33.1689 93.2697C33.4883 93.3275 33.7815 93.4186 34.0766 93.5558C34.249 93.6361 34.4132 93.7354 34.5783 93.831C34.7859 93.951 34.9934 94.0746 35.1991 94.2001C35.6855 94.496 36.1637 94.8001 36.6357 95.1186C37.1076 95.4363 37.5506 95.8062 37.9802 96.178C37.9919 96.1879 38.0045 96.1988 38.0162 96.2087C38.028 95.781 38.037 95.3542 38.0496 94.9283C38.0812 93.8951 38.1047 92.8628 38.1227 91.8287C38.1588 89.6631 38.1516 87.4974 38.1714 85.3309C38.1823 84.1173 38.2021 82.9036 38.2301 81.69C38.2418 81.1666 38.2626 80.6424 38.2924 80.1199C38.3194 79.6606 38.3384 79.204 38.4385 78.7546C38.5504 78.2575 39.1 77.9552 39.58 78.0238C40.1259 78.1023 40.5094 78.6356 40.4273 79.177C40.4165 79.2491 40.3975 79.3177 40.3723 79.3836C40.3678 79.4197 40.3632 79.4549 40.3587 79.4901C40.2658 80.6442 40.2504 81.8037 40.2243 82.9605C40.2017 83.9882 40.1954 85.0169 40.1891 86.0456C40.1746 88.2672 40.1765 90.4896 40.1313 92.7103C40.1052 93.9763 40.0691 95.2414 40.0249 96.5055C40.0149 96.7943 40.0023 97.083 39.9897 97.37C39.977 97.6551 39.977 97.9547 39.9238 98.239C39.931 98.2624 39.9382 98.2859 39.9437 98.3093C40.0041 98.5638 39.9617 98.8381 39.8264 99.0628C39.682 99.3046 39.4573 99.449 39.192 99.5275C38.2057 99.818 37.1662 99.9976 36.1349 99.9976C36.0663 100.001 35.9986 100 35.9309 99.9985ZM36.3956 97.9701C36.5662 97.9592 36.7358 97.9448 36.9055 97.9276C36.4588 97.5423 36.0022 97.1706 35.5312 96.8132C34.7741 96.3043 34.0008 95.808 33.1959 95.3776C33.1517 95.3569 33.1057 95.337 33.0597 95.319C33.02 95.3072 32.9812 95.2964 32.9424 95.2856C32.9162 95.2811 32.89 95.2765 32.8639 95.272C32.8774 95.2729 32.8909 95.2738 32.9045 95.2756C32.9027 95.2747 32.9009 95.2748 32.8991 95.2739C32.9018 95.2748 32.9045 95.2747 32.9072 95.2756C32.9216 95.2765 32.9361 95.2784 32.9505 95.2793C32.9631 95.2838 32.9767 95.2892 32.9893 95.2937C32.9911 95.2937 32.9929 95.2946 32.9938 95.2946C32.9794 95.2892 32.9649 95.2847 32.9505 95.2793C32.964 95.2802 32.9785 95.282 32.992 95.2829C32.9767 95.2811 32.9604 95.2793 32.9451 95.2775C32.853 95.2675 32.7592 95.2684 32.6672 95.2765C32.7105 95.2747 32.7538 95.273 32.7971 95.2712C32.7827 95.2739 32.7673 95.2757 32.752 95.2784C32.7402 95.282 32.7294 95.2847 32.7177 95.2883C32.6987 95.2955 32.6798 95.3036 32.6608 95.3117C32.6356 95.3253 32.6112 95.3388 32.5859 95.3524C32.5688 95.3641 32.5526 95.3767 32.5354 95.3893C32.5129 95.411 32.4903 95.4327 32.4677 95.4543C32.4082 95.5265 32.3513 95.6005 32.2963 95.6763C32.2782 95.7043 32.2611 95.7331 32.244 95.762C32.2403 95.7701 32.2367 95.7792 32.2331 95.7873C32.2322 95.7918 32.2304 95.7963 32.2295 95.8008C32.2286 95.8053 32.2277 95.8098 32.2277 95.8144C32.2268 95.8324 32.2268 95.8495 32.2259 95.8676C32.2277 95.8901 32.2295 95.9136 32.2313 95.9362C32.2295 95.9244 32.2277 95.9118 32.225 95.9001C32.225 95.9028 32.225 95.9055 32.225 95.9082C32.2349 95.965 32.2476 96.021 32.262 96.0769C32.2909 96.1599 32.3234 96.2412 32.3577 96.3224C32.4028 96.4108 32.4506 96.4965 32.5011 96.5823C32.5634 96.6752 32.6284 96.7654 32.6978 96.8547C32.7799 96.9486 32.8657 97.0388 32.9559 97.1264C33.0353 97.1922 33.1147 97.2554 33.1977 97.3168C33.2898 97.3745 33.3827 97.4286 33.4775 97.481C33.5912 97.5333 33.7049 97.5821 33.8213 97.6281C34.0288 97.6966 34.2372 97.7553 34.4493 97.8067C34.729 97.86 35.006 97.9042 35.2885 97.9421C35.6584 97.9664 36.0248 97.9764 36.3956 97.9701Z" fill="#F4914F"/>
<path d="M58.063 97.6191C57.4602 97.4883 56.8809 97.1769 56.363 96.8521C56.3594 96.8494 56.3558 96.8476 56.3513 96.8449C55.8514 96.9225 55.3442 96.659 55.0943 96.2214C54.9165 95.9091 54.8525 95.5807 54.7947 95.2324C54.718 94.7668 54.654 94.2976 54.58 93.8319C54.4166 92.8051 54.2353 91.7809 54.0855 90.7523C53.9258 89.6505 53.7697 88.5469 53.6199 87.4434C53.2264 84.5405 52.852 81.6368 52.4107 78.7412C52.371 78.502 52.3358 78.2593 52.279 78.0238C52.2411 77.9146 52.2203 77.7973 52.2203 77.6773C52.2203 77.6719 52.2203 77.6674 52.2203 77.6611C52.2573 77.2045 52.5353 76.8092 52.9982 76.7001C53.4214 76.6008 53.933 76.7975 54.1243 77.2054C54.2669 77.5104 54.3047 77.8424 54.3616 78.1718C54.4085 78.4398 54.4509 78.7078 54.4924 78.9776C54.5791 79.5497 54.663 80.1227 54.7451 80.6956C54.9048 81.8046 55.0546 82.9145 55.2035 84.0253C55.4886 86.1413 55.7674 88.2591 56.0742 90.3733C56.1952 91.2007 56.3278 92.0264 56.4668 92.852C56.5398 93.2878 56.6066 93.7246 56.6734 94.1622C56.9035 93.9375 57.1309 93.711 57.361 93.4882C57.7129 93.148 58.0811 92.824 58.4627 92.5172C58.9572 92.1193 59.4616 91.725 60.0319 91.4416C60.5417 91.1863 61.0967 91.1033 61.6588 91.1863C62.2445 91.2729 62.8165 91.6555 63.1748 92.1184C63.9219 93.0839 64.1231 94.4889 63.4852 95.5681C62.942 96.4875 62.0649 97.1192 61.0633 97.4666C60.5011 97.6615 59.9029 97.7544 59.3046 97.7544C58.8868 97.7526 58.4682 97.7075 58.063 97.6191ZM59.421 95.726C59.6078 95.7142 59.7919 95.6944 59.9769 95.6664C60.077 95.6457 60.1754 95.6222 60.2737 95.5942C60.4127 95.5491 60.549 95.4995 60.6852 95.4435C60.7998 95.3876 60.9108 95.3289 61.0209 95.264C61.1283 95.1918 61.2329 95.1169 61.334 95.0375C61.399 94.9779 61.4621 94.9166 61.5235 94.8525C61.565 94.8047 61.6047 94.755 61.6426 94.7036C61.6778 94.6504 61.7103 94.5953 61.741 94.5394C61.7671 94.4835 61.7906 94.4266 61.8113 94.3688C61.8113 94.3661 61.8122 94.3643 61.8122 94.3616C61.805 94.3824 61.7969 94.404 61.7897 94.4248C61.8005 94.3842 61.8113 94.3445 61.8222 94.3039C61.8285 94.2687 61.8339 94.2335 61.8402 94.1983C61.8384 94.2172 61.8366 94.2362 61.8348 94.2552C61.8357 94.2525 61.8357 94.2507 61.8366 94.2479C61.842 94.1866 61.8447 94.1243 61.8447 94.062C61.8402 94.0151 61.8366 93.9682 61.8321 93.9213C61.8357 93.942 61.8393 93.9628 61.8429 93.9835C61.8429 93.9799 61.8429 93.9772 61.8429 93.9736C61.8312 93.9078 61.8168 93.8428 61.7996 93.7787C61.7816 93.7264 61.7626 93.675 61.7419 93.6244C61.7157 93.5739 61.6895 93.5234 61.6634 93.4719C61.6751 93.4909 61.6877 93.5107 61.6994 93.5297C61.7121 93.5576 61.7247 93.5847 61.7364 93.6127C61.7256 93.5856 61.713 93.5594 61.7013 93.5333C61.7121 93.5504 61.7229 93.5685 61.7337 93.5856C61.7211 93.5622 61.7076 93.5396 61.694 93.5179C61.6922 93.5152 61.6913 93.5125 61.6895 93.5089C61.6904 93.5116 61.6913 93.5134 61.6931 93.5161C61.6643 93.4692 61.6327 93.425 61.6002 93.3808C61.5713 93.3501 61.5424 93.3194 61.5136 93.2887C61.4585 93.2436 61.4017 93.2021 61.3412 93.1642C61.3665 93.1814 61.3918 93.1994 61.4179 93.2174C61.4197 93.2183 61.4206 93.2193 61.4224 93.2202L61.4197 93.2193C61.4306 93.2265 61.4414 93.2346 61.4522 93.2418C61.4314 93.2301 61.4107 93.2184 61.3899 93.2075C61.3728 93.2003 61.3548 93.1931 61.3376 93.1859C61.3241 93.1823 61.3114 93.1786 61.2979 93.175C61.2862 93.1732 61.2735 93.1714 61.2618 93.1696C61.2492 93.1696 61.2356 93.1696 61.223 93.1687C61.2032 93.1705 61.1833 93.1732 61.1635 93.175C61.1328 93.1814 61.1021 93.1877 61.0723 93.1949C61.0895 93.1895 61.1057 93.185 61.1228 93.1796C61.121 93.1796 61.1192 93.1796 61.1174 93.1805C61.0597 93.1985 61.0028 93.2193 60.9469 93.2427C60.8684 93.2806 60.7926 93.3221 60.7168 93.3663C60.3225 93.6226 59.9525 93.9123 59.5853 94.2064C59.1882 94.5511 58.8056 94.9057 58.4276 95.2712C58.3409 95.3542 58.2552 95.4381 58.1695 95.522C58.2209 95.5437 58.2724 95.5653 58.3247 95.5861C58.4357 95.6222 58.5476 95.6538 58.6613 95.6809C58.7325 95.6935 58.8047 95.7043 58.8769 95.7124C59.0583 95.7242 59.2379 95.726 59.421 95.726Z" fill="#F4914F"/>
<path d="M58.2968 31.7597C57.7887 31.6144 57.4233 31.0288 57.6038 30.5072C57.7454 30.0985 58.0811 29.825 58.4059 29.5571C58.6162 29.3829 58.8246 29.206 59.0394 29.0355C59.459 28.7007 59.8786 28.3651 60.3009 28.0321C61.2357 27.2949 62.1705 26.5586 63.1053 25.8214C64.8288 24.4624 66.5875 23.1522 68.3525 21.8474C70.0949 20.5589 71.8148 19.2406 73.5698 17.9683C75.3835 16.6526 77.2189 15.3695 79.0281 14.0476C80.0441 13.304 81.0349 12.5298 82.004 11.7267C81.9878 11.7403 81.9715 11.7538 81.9562 11.7674C81.9914 11.7385 82.0257 11.7087 82.0609 11.6798C82.2341 11.5354 82.4074 11.3893 82.5671 11.2305C82.5833 11.2106 82.5987 11.1908 82.6149 11.1709C82.6555 11.1059 82.6916 11.0392 82.7241 10.9697C82.7042 11.0094 82.6835 11.0482 82.6636 11.087C82.6844 11.0392 82.7042 10.9913 82.7232 10.9426C83.0652 9.83904 83.316 8.71112 83.5723 7.585C83.8277 6.46338 84.0893 5.34087 84.4079 4.2346C84.5613 3.70492 85.1297 3.3891 85.6603 3.54159C86.19 3.69319 86.5058 4.26437 86.3533 4.79405C85.7587 6.85319 85.3842 8.96829 84.8121 11.0338C84.7318 11.3243 84.6371 11.6131 84.5216 11.8919C84.351 12.3024 84.0469 12.6381 83.714 12.9242C83.3106 13.2707 82.9 13.6063 82.4868 13.9402C81.6909 14.5827 80.877 15.2008 80.0513 15.8044C78.2079 17.1516 76.3364 18.46 74.4884 19.8009C72.7153 21.0877 70.9774 22.4222 69.216 23.7243C68.3606 24.3577 67.5079 24.9939 66.6552 25.6309C65.8683 26.2175 65.1004 26.8293 64.3253 27.4329C63.5728 28.0186 62.8283 28.6141 62.0785 29.2042C61.2646 29.8449 60.4525 30.4856 59.6521 31.1443C59.5546 31.2291 59.4599 31.3139 59.3696 31.405C59.2866 31.5142 59.1829 31.6063 59.0538 31.6757C58.9058 31.7552 58.7398 31.7958 58.5729 31.7958C58.4817 31.7985 58.3879 31.7858 58.2968 31.7597Z" fill="#F4914F"/>
<path d="M82.3791 13.6024C81.992 13.1964 82.0227 12.5621 82.4125 12.1722C83.3726 11.2121 84.3544 10.2746 85.3433 9.3443C85.8983 8.82274 86.4514 8.29757 87.0019 7.7715C87.2166 7.56487 87.4296 7.35643 87.6452 7.14979C87.7706 7.02978 87.8934 6.90887 88.0197 6.78976C88.1578 6.66162 88.2931 6.51725 88.4474 6.40897C88.8986 6.09225 89.5338 6.18429 89.8614 6.63546C90.1745 7.06769 90.0897 7.70564 89.6611 8.02867C89.1936 8.44826 88.7515 8.89674 88.2985 9.33076C87.7661 9.83878 87.2319 10.345 86.696 10.8503C85.7223 11.7662 84.755 12.6893 83.8094 13.6349C83.6226 13.8217 83.3726 13.912 83.1209 13.912C82.8475 13.9129 82.5732 13.8064 82.3791 13.6024Z" fill="#F4914F"/>
<path d="M93.0589 14.0133C91.6549 13.9375 90.2481 13.8951 88.8432 13.849C87.4536 13.8039 86.064 13.7471 84.6753 13.7597C84.512 13.7805 84.3396 13.7751 84.1781 13.7796C83.8884 13.7949 83.5988 13.8211 83.3091 13.8211C82.7569 13.8211 82.3084 13.3275 82.3211 12.7861C82.3337 12.2257 82.8047 11.798 83.3561 11.798C83.3768 11.798 83.3985 11.798 83.4192 11.7971C83.5898 11.7881 83.7603 11.7791 83.9317 11.7691C84.0012 11.7655 84.0698 11.7619 84.1375 11.7601C84.2674 11.7457 84.3992 11.7448 84.53 11.7421C84.548 11.7412 84.5661 11.7412 84.5841 11.7412C84.6085 11.7403 84.6329 11.7403 84.6572 11.7385C84.6374 11.7394 84.6175 11.7403 84.5977 11.7412C84.5995 11.7412 84.6013 11.7412 84.6031 11.7412C85.3024 11.7159 86.0035 11.7385 86.7028 11.7574C87.3949 11.7773 88.0861 11.7989 88.7791 11.8224C90.222 11.8693 91.6666 11.9126 93.1095 11.9911C93.6599 12.0209 94.1102 12.4621 94.0975 13.0261C94.0849 13.5486 93.641 14.016 93.1113 14.016C93.0923 14.0151 93.0761 14.0142 93.0589 14.0133Z" fill="#F4914F"/>
<path d="M87.6054 17.7196C86.898 17.1331 86.1906 16.5456 85.4831 15.9582C85.1565 15.6866 84.8307 15.415 84.5068 15.1407C84.1468 14.8366 83.8021 14.5136 83.4339 14.2185C82.8727 13.9496 82.7012 13.1655 83.0982 12.6827C83.3834 12.3353 83.8752 12.1972 84.2929 12.3831C84.5997 12.5203 84.8479 12.7585 85.0987 12.9778C85.2819 13.1375 85.466 13.2972 85.6501 13.4569C85.9722 13.7375 86.3034 14.0091 86.6318 14.2817C87.3762 14.8998 88.1207 15.5179 88.866 16.136C89.2901 16.487 89.3758 17.1204 89.0275 17.5572C88.8308 17.8035 88.5267 17.9371 88.2235 17.9371C88.0034 17.938 87.7841 17.8676 87.6054 17.7196Z" fill="#F4914F"/>
<path d="M83.4691 14.1773C83.1308 13.7929 82.87 13.3436 82.6146 12.9014C82.3529 12.4466 82.0904 11.9937 81.8269 11.5398C81.2909 10.6176 80.7558 9.69448 80.2126 8.77589C79.932 8.30036 80.1539 7.65789 80.625 7.40524C81.1258 7.13634 81.7159 7.34298 81.9956 7.81761C82.8961 9.34076 83.7651 10.8811 84.6711 12.3997C84.7604 12.5342 84.8497 12.6668 84.9463 12.7958C85.2982 13.2091 85.3072 13.8236 84.9012 14.2116C84.7108 14.3939 84.4482 14.4886 84.1883 14.4886C83.9203 14.4877 83.6541 14.3876 83.4691 14.1773Z" fill="#F4914F"/>
<path d="M33.3635 32.6475C32.4575 32.4111 31.7158 31.7957 30.9894 31.2335C30.5319 30.8789 30.0952 30.5008 29.6512 30.1299C28.8003 29.4189 27.9918 28.6564 27.1887 27.8921C25.5474 26.332 23.9502 24.724 22.3413 23.1305C21.0943 21.8961 19.8689 20.64 18.6291 19.3984C17.3279 18.0945 16.0006 16.8195 14.6516 15.5652C13.7258 14.726 12.79 13.8995 11.8281 13.1027C11.3517 12.7084 10.8698 12.3204 10.3871 11.936C9.87186 11.5245 9.35572 11.1239 8.89282 10.6529C8.50571 10.2594 8.53098 9.59892 8.9262 9.22174C9.32865 8.83644 9.97021 8.86081 10.3564 9.25513C10.4656 9.36612 10.5775 9.4735 10.6912 9.57998C11.0729 9.90663 11.4717 10.2125 11.8642 10.5247C12.2757 10.8532 12.6845 11.1834 13.0896 11.5191C13.9171 12.2049 14.7301 12.9069 15.5259 13.6297C17.2223 15.1709 18.8628 16.7671 20.4825 18.3896C21.956 19.8667 23.4187 21.3555 24.9049 22.821C25.662 23.569 26.4208 24.317 27.1788 25.0642C27.935 25.8086 28.7029 26.5404 29.4707 27.2722C29.9833 27.7297 30.4904 28.1944 31.0174 28.6357C31.6616 29.1744 32.3005 29.7239 32.9845 30.2121C33.1821 30.3456 33.3824 30.471 33.5926 30.5838C33.6423 30.6082 33.6928 30.6298 33.7433 30.6506C33.802 30.6695 33.8606 30.6876 33.9211 30.7038C34.4553 30.8428 34.7639 31.4356 34.615 31.9563C34.486 32.4056 34.0727 32.6836 33.6305 32.6836C33.5421 32.6818 33.4528 32.6709 33.3635 32.6475Z" fill="#F4914F"/>
<path d="M6.92785 10.3979C6.34404 10.3744 5.76022 10.3329 5.1764 10.2932C4.03675 10.2156 2.89618 10.1317 1.76013 10.0153C1.21151 9.95933 0.832525 9.38724 0.912833 8.86297C0.953439 8.59678 1.10142 8.35315 1.31979 8.19524C1.54086 8.03462 1.79713 7.9877 2.06513 8.01477C2.30425 8.03913 2.54427 8.06169 2.78339 8.08244C3.58377 8.15012 4.38415 8.20968 5.18543 8.26653C6.08777 8.3315 6.99733 8.40819 7.90328 8.39014C8.06661 8.38022 8.22903 8.36488 8.39236 8.34322C8.47537 8.32698 8.55748 8.30894 8.6396 8.28819C9.14762 8.07433 9.75489 8.37391 9.94529 8.87561C10.1456 9.40439 9.86588 9.96655 9.35786 10.1804C9.08896 10.2932 8.78036 10.3311 8.49522 10.3699C8.23354 10.406 7.96916 10.4177 7.70477 10.4177C7.4467 10.4204 7.18592 10.4087 6.92785 10.3979Z" fill="#F4914F"/>
<path d="M7.91487 10.5005C7.00801 9.6153 6.13996 8.69038 5.27822 7.76097C4.43002 6.84599 3.68558 5.8444 2.97454 4.82114C2.71827 4.45118 2.71918 3.95308 3.00341 3.59756C3.31472 3.20685 3.8859 3.10128 4.31542 3.35935C4.36054 3.38642 4.40295 3.4189 4.44626 3.44868C4.58071 3.54252 4.67816 3.66975 4.74132 3.81322C5.12663 4.36184 5.52456 4.90055 5.93332 5.43203C6.45487 6.05013 6.99809 6.64478 7.55393 7.2313C8.15399 7.86385 8.75675 8.49368 9.38027 9.10366C9.77459 9.48896 9.73489 10.163 9.34688 10.5339C9.15198 10.7207 8.90654 10.8091 8.6611 10.8091C8.3904 10.8082 8.1206 10.7017 7.91487 10.5005Z" fill="#F4914F"/>
<path d="M8.70913 9.00341C8.51783 8.06588 8.33466 7.12564 8.15148 6.1863C8.05944 5.7216 7.9665 5.25688 7.87356 4.79128C7.8122 4.48267 7.74272 4.17498 7.69309 3.86367C7.6579 3.63808 7.63624 3.42061 7.6958 3.19773C7.75626 2.97485 7.89793 2.7962 8.07569 2.65633C8.50971 2.31525 9.17564 2.45059 9.48876 2.88282C9.61779 3.06148 9.67735 3.26271 9.67735 3.46213C9.68005 3.4874 9.68276 3.51266 9.68637 3.53793C10.0031 5.20546 10.3388 6.87117 10.6771 8.53419C10.7881 9.07379 10.4759 9.62243 9.92639 9.75327C9.8524 9.77041 9.7775 9.77943 9.70351 9.77943C9.24963 9.78033 8.80478 9.46812 8.70913 9.00341Z" fill="#F4914F"/>
<path d="M10.1379 10.4275C9.62991 10.2074 9.3953 9.60278 9.61186 9.09657C10.1686 7.78907 10.7326 6.48429 11.2207 5.14973C11.3759 4.68953 11.5293 4.22933 11.6485 3.75831C11.7567 3.23404 12.2539 2.865 12.7944 2.94711C13.3322 3.02832 13.7356 3.55619 13.6426 4.0994C13.5641 4.55779 13.4026 5.00896 13.2537 5.4493C13.0841 5.95191 12.9045 6.45181 12.706 6.94448C12.3054 7.93526 11.8885 8.91881 11.4707 9.90236C11.3083 10.2813 10.9257 10.5096 10.5323 10.5096C10.3987 10.5078 10.2652 10.4826 10.1379 10.4275Z" fill="#F4914F"/>
<path d="M2.09866 14.2797C2.00572 14.0351 2.01203 13.759 2.1158 13.5181C2.22769 13.26 2.43253 13.0859 2.68609 12.974C3.95929 12.4118 5.23069 11.8443 6.50209 11.2758C7.18426 10.9699 7.86734 10.664 8.55492 10.3689C8.83736 10.248 9.12159 10.128 9.41034 10.0224C9.75053 9.8988 10.0934 9.75713 10.4498 9.68584C10.9894 9.57756 11.5381 9.88527 11.668 10.4357C11.7925 10.9582 11.4587 11.5465 10.9182 11.6548C10.8234 11.6737 10.7305 11.7008 10.6384 11.7297C9.4311 12.1691 8.26527 12.7006 7.09313 13.2248C5.86414 13.7735 4.63605 14.323 3.40435 14.8662C3.29156 14.9158 3.17335 14.9393 3.05514 14.9393C2.64638 14.9402 2.24484 14.6641 2.09866 14.2797Z" fill="#F4914F"/>
</svg>
