<svg width="95" height="100" viewBox="0 0 95 100" fill="none" xmlns="http://www.w3.org/2000/svg">
<path fill-rule="evenodd" clip-rule="evenodd" d="M82.4079 0.120652C81.7378 0.314735 80.9988 1.21914 80.8876 1.97038C80.7617 2.80481 80.8876 3.41611 81.3193 4.08418C82.1709 5.39127 83.4118 5.64212 84.723 4.77997C85.9507 3.97327 86.2288 1.88721 85.2395 0.816447C84.5839 0.107449 83.441 -0.185656 82.4079 0.120652ZM83.678 1.91493C84.1389 2.09581 84.515 2.91572 84.3058 3.3052C84.1243 3.63924 83.6078 4.001 83.3151 4.001C83.0225 4.001 82.7006 3.52833 82.5894 2.91572C82.5059 2.54075 82.5616 2.3876 82.841 2.10902C83.2317 1.71953 83.2039 1.73405 83.678 1.91493Z" fill="#053B4A"/>
<path fill-rule="evenodd" clip-rule="evenodd" d="M64.4725 4.65427C63.5653 5.5996 61.5854 11.5383 60.8742 15.4173L60.5537 17.1693L59.0744 17.1971C57.0931 17.2248 54.7926 17.572 50.6208 18.491C49.2395 18.7973 47.5801 19.1313 46.9377 19.2422C45.6677 19.4508 45.1803 19.6871 44.9432 20.2021C44.7194 20.6747 44.9008 21.1896 45.4597 21.6201C46.4782 22.44 51.6525 25.1386 54.0391 26.1117C54.8483 26.4457 55.5873 26.7798 55.6985 26.8629C55.8521 26.9884 55.88 27.4188 55.7965 29.2408C55.7131 31.4246 55.8389 34.6778 56.1448 37.4451C56.3263 39.1839 56.7448 40.5187 57.2745 41.0469C57.6228 41.3941 57.7486 41.4364 58.2506 41.3664C58.6823 41.3109 58.9764 41.1446 59.4915 40.6296C59.8677 40.2547 60.1749 39.9061 60.1749 39.8507C60.1749 39.7807 60.51 39.2249 60.9139 38.5858C61.9324 37.0147 63.9415 33.5106 65.099 31.2569C65.6433 30.2284 66.0896 29.3662 66.1028 29.3385C66.1174 29.324 67.0379 30.2006 68.1397 31.2859C70.5673 33.6783 72.7155 35.6521 73.5525 36.2502C74.5855 36.9738 75.645 36.7783 75.9099 35.7908C76.0768 35.2204 75.7986 32.1758 75.3801 30.0052C75.1153 28.6704 74.6689 26.6121 74.5855 26.389C74.5431 26.2781 74.4875 25.9995 74.4597 25.7777C74.4319 25.5691 74.3061 24.9855 74.1948 24.4838C74.0836 23.9966 73.9856 23.5662 73.9856 23.5384C73.9856 23.5107 74.3763 23.2467 74.8636 22.9681C75.9099 22.3291 77.1098 21.4946 77.1654 21.3547C77.1932 21.2847 77.2766 21.2438 77.3614 21.2438C77.8912 21.2438 80.6949 18.5042 82.1875 16.5303C83.345 15.0001 83.4708 13.9716 82.5636 13.3735C82.1596 13.1094 82.2007 13.1094 78.5189 13.6653C75.7563 14.0825 75.8966 14.0693 72.6877 14.2911C70.5673 14.4443 70.1766 14.4443 70.0098 14.2779C69.9118 14.167 69.5913 13.388 69.3118 12.5536C68.349 9.67535 66.9968 5.89271 66.773 5.4755C66.3823 4.68332 65.8936 4.27931 65.336 4.27931C64.9612 4.27799 64.7374 4.37569 64.4725 4.65427ZM66.3836 10.453C67.9318 14.9869 68.1133 15.3896 68.8244 15.9454C69.4522 16.4181 69.4522 16.4181 70.5965 16.3204C71.2388 16.2781 73.2744 15.9864 75.1298 15.6946C76.9985 15.3883 78.7984 15.111 79.1467 15.0688C79.495 15.0265 80.0671 14.9579 80.4446 14.9156C80.8207 14.8601 81.1001 14.8879 81.1001 14.9578C81.1001 15.2219 78.3666 17.9615 77.0555 19.0191C75.5205 20.243 73.8333 21.3969 73.1777 21.661C72.4387 21.9528 72.0334 22.5377 72.0334 23.3298C72.0334 23.7048 72.3685 25.4714 72.787 27.2511C73.4982 30.2548 74.0703 33.578 73.9591 33.9265C73.8756 34.1628 71.5871 32.16 69.2443 29.7966C67.263 27.8083 66.5796 27.2234 66.1889 27.2234C65.9942 27.2234 64.9612 28.2387 64.4037 28.9622C64.1798 29.2685 63.5243 30.2838 62.9535 31.2146C62.3813 32.1468 61.6701 33.3139 61.3629 33.8156C61.0556 34.316 60.3444 35.4699 59.7869 36.3889C58.1831 39.0176 58.3075 38.9753 58.0427 37.0847C57.5407 33.4829 57.3871 30.1874 57.5964 27.4888L57.7076 26.1394L57.1633 25.5691C56.7024 25.0819 56.117 24.7769 53.4113 23.6084C51.6539 22.844 49.7004 21.9673 49.1004 21.6478C48.1244 21.1329 48.0264 21.0497 48.2913 20.952C48.9746 20.7011 54.0801 19.7281 55.5025 19.5894C56.3528 19.4917 57.8321 19.2977 58.8082 19.1445C60.2027 18.9227 60.6491 18.8936 60.8861 19.0191C61.0954 19.1445 61.2768 19.1445 61.5006 19.0468C61.7523 18.9359 61.8768 18.6573 62.1006 17.6697C62.2674 17.003 62.4356 16.224 62.4913 15.96C62.6581 15.0146 63.5508 11.8301 64.0951 10.2312C64.8341 8.04743 65.197 7.24205 65.336 7.49159C65.3943 7.60249 65.8684 8.93731 66.3836 10.453Z" fill="#053B4A"/>
<path fill-rule="evenodd" clip-rule="evenodd" d="M39.9488 4.84824C39.5025 5.02912 38.7357 5.76585 38.4695 6.25304C38.0377 7.08746 38.3715 8.56091 39.1953 9.35441C40.3528 10.4529 41.999 10.3275 42.8505 9.09035C43.3803 8.31138 43.3949 7.76873 42.8929 6.68477C42.0837 4.95915 41.1487 4.37558 39.9488 4.84824ZM41.358 7.54692C41.5526 7.96414 41.6785 8.3391 41.6506 8.38135C41.4838 8.54771 40.6746 8.42228 40.4653 8.20047C40.117 7.81098 40.0336 7.26834 40.2985 7.00428C40.7156 6.60027 40.9805 6.74022 41.358 7.54692Z" fill="#053B4A"/>
<path fill-rule="evenodd" clip-rule="evenodd" d="M74.4749 46.0242C73.8749 46.2474 73.0379 46.9286 72.7876 47.429C72.4247 48.1103 72.5784 49.3474 73.1081 49.9878C73.6524 50.669 74.6139 51.2526 75.3119 51.3226C76.4694 51.448 77.7117 50.7667 78.2547 49.7092C78.5897 49.0834 78.5619 47.9994 78.2123 47.3036C77.8216 46.5801 77.6825 46.4692 76.6919 46.1352C75.786 45.8302 75.1172 45.8024 74.4749 46.0242ZM76.7356 47.7763C77.0707 48.1235 76.917 49.0411 76.4562 49.3897C75.6191 50.0023 74.2656 49.5428 74.2656 48.6384C74.2656 48.2767 74.6696 47.7763 75.1026 47.6231C75.4933 47.4713 76.5263 47.5822 76.7356 47.7763Z" fill="#053B4A"/>
<path fill-rule="evenodd" clip-rule="evenodd" d="M34.4715 26.6201C34.1274 27.0245 34.068 27.9643 34.3443 28.5457C34.6497 29.1925 35.0147 29.5799 35.6042 29.8868C36.7619 30.4844 37.6821 30.1721 38.1317 29.0358C38.553 27.9723 37.7658 26.3698 36.6284 25.9958C35.875 25.7484 34.9986 25.9916 34.4715 26.6201ZM36.1263 27.4004C36.5087 27.3471 37.1326 27.7846 37.1776 28.1461C37.215 28.457 37.0481 28.9204 36.8585 29.0364C36.6689 29.1524 36.2413 28.9418 35.8851 28.5476C35.6572 28.3125 35.6222 28.1809 35.674 27.8709C35.7465 27.4374 35.7352 27.4588 36.1263 27.4004Z" fill="#F4A672"/>
<path fill-rule="evenodd" clip-rule="evenodd" d="M23.5727 36.9434C23.423 37.9818 24.8982 43.0278 26.2398 46.0924L26.8462 47.4763L25.8982 48.0839C24.6241 48.8909 23.2913 50.0539 21.0088 52.3703C20.2539 53.1388 19.3313 54.0376 18.9657 54.3724C18.2377 55.0266 18.031 55.3897 18.1164 55.8532C18.1908 56.2811 18.5481 56.5783 19.1112 56.665C20.154 56.8484 24.7698 56.7283 26.7724 56.4781C27.4534 56.3962 28.0887 56.3422 28.1996 56.3576C28.3577 56.3865 28.5759 56.6842 29.3689 58.0241C30.3301 59.6235 31.9244 61.9068 33.4098 63.77C34.3362 64.9451 35.2286 65.7361 35.8183 65.9045C36.206 66.0151 36.3074 65.9954 36.6009 65.7458C36.8555 65.5346 36.9692 65.2984 37.0644 64.7244C37.1344 64.3061 37.1719 63.934 37.1461 63.8943C37.1136 63.8441 37.0728 63.3123 37.038 62.6935C36.969 61.162 36.6448 57.8507 36.3488 55.7744C36.2241 54.8205 36.1132 54.0248 36.1089 53.9997C36.1116 53.9835 37.1171 54.2466 38.3375 54.5872C41.0267 55.3386 43.3398 55.9009 44.1616 55.9973C45.169 56.1058 45.7663 55.5448 45.4792 54.7312C45.3224 54.2559 43.7261 52.1827 42.4451 50.7922C41.6524 49.9401 40.4054 48.6411 40.2475 48.5142C40.1684 48.4515 40.0027 48.2738 39.8815 48.1258C39.7665 47.9872 39.4134 47.6187 39.1079 47.303C38.8091 46.9978 38.5453 46.728 38.5324 46.7081C38.5195 46.6883 38.6505 46.3436 38.8376 45.9502C39.22 45.0762 39.6115 44.0011 39.5825 43.8786C39.5681 43.8174 39.6032 43.7549 39.6583 43.7212C40.0024 43.5107 40.5498 40.432 40.6015 38.4233C40.6419 36.866 40.2454 36.0783 39.378 36.0098C38.9929 35.9809 39.0195 35.9646 36.8865 37.8259C35.2859 39.2227 35.371 39.1575 33.3897 40.5914C32.0836 41.5436 31.8299 41.6988 31.6441 41.6458C31.5289 41.6052 30.9585 41.1738 30.389 40.6864C28.4253 39.0046 25.7882 36.8288 25.4489 36.6185C24.8268 36.2055 24.3215 36.1099 23.9593 36.3314C23.7152 36.4794 23.6153 36.6384 23.5727 36.9434ZM27.5103 40.3431C30.624 42.9798 30.9291 43.1966 31.6495 43.3127C32.277 43.4023 32.277 43.4023 32.9749 42.8776C33.3725 42.5922 34.559 41.5742 35.6286 40.6278C36.7 39.6657 37.7402 38.7518 37.9468 38.5831C38.1534 38.4144 38.4931 38.1379 38.7186 37.9576C38.9372 37.7684 39.1316 37.6773 39.1641 37.7275C39.2869 37.9169 38.7851 40.9678 38.4252 42.2471C37.9972 43.7348 37.4377 45.2327 37.1347 45.6825C36.7903 46.1854 36.799 46.7659 37.1674 47.3341C37.3417 47.603 38.3807 48.7369 39.4801 49.8471C41.3387 51.7188 43.2554 53.875 43.3452 54.1692C43.4009 54.3718 40.9831 53.8445 38.3625 53.0802C36.151 52.4413 35.4352 52.2933 35.1814 52.4485C35.0549 52.5258 34.856 53.6644 34.8302 54.4049C34.8273 54.7135 34.8735 55.7021 34.9355 56.5965C34.9973 57.4923 35.078 58.6119 35.1117 59.0938C35.1448 59.5748 35.2194 60.685 35.2844 61.5656C35.4649 64.0881 35.5261 64.0083 34.475 62.7575C32.4743 60.3737 30.8422 58.0712 29.7234 56.0525L29.1683 55.0405L28.5495 54.8477C28.0236 54.6814 27.5015 54.6952 25.2007 54.9321C23.7037 55.082 22.0272 55.2293 21.489 55.2385C20.6155 55.257 20.5132 55.2362 20.6398 55.0609C20.9671 54.6095 23.831 51.8833 24.6904 51.2188C25.1973 50.8109 26.068 50.084 26.6308 49.5864C27.4335 48.8733 27.7099 48.6751 27.9222 48.6709C28.1164 48.6777 28.2343 48.6057 28.3343 48.4467C28.4461 48.2672 28.3975 48.0179 28.0837 47.2207C27.8821 46.6762 27.6291 46.0507 27.5425 45.8392C27.2113 45.0949 26.3105 42.4562 25.9206 41.0932C25.3853 39.2334 25.2465 38.5116 25.4529 38.6353C25.5423 38.6917 26.4709 39.4607 27.5103 40.3431Z" fill="#F4A672"/>
<path fill-rule="evenodd" clip-rule="evenodd" d="M7.49293 48.1209C7.28786 48.4269 7.13287 49.257 7.18629 49.7107C7.29344 50.478 8.1921 51.399 9.09291 51.6401C10.351 51.9669 11.3584 51.2255 11.3364 50.0041C11.3184 49.2376 11.0764 48.844 10.2493 48.2679C8.92612 47.3549 8.05056 47.308 7.49293 48.1209ZM9.65529 49.4919C9.9746 49.713 10.2298 49.9312 10.2313 49.9724C10.2004 50.1574 9.61854 50.3881 9.38034 50.3124C8.97444 50.1719 8.66903 49.8171 8.71813 49.5235C8.80097 49.0696 9.03725 49.0647 9.65529 49.4919Z" fill="#F4A672"/>
<path fill-rule="evenodd" clip-rule="evenodd" d="M48.795 61.3829C48.5086 61.7818 48.2814 62.6041 48.3515 63.0631C48.4327 63.6968 49.1087 64.5242 49.7514 64.7733C50.4227 65.0461 51.3198 65.0827 51.8064 64.8553C52.6177 64.4849 53.1086 63.5014 52.9694 62.5258C52.8959 61.943 52.3731 61.1755 51.8217 60.8149C51.2307 60.4507 51.0886 60.4263 50.2887 60.5805C49.5575 60.7219 49.1095 60.9681 48.795 61.3829ZM51.0813 61.7419C51.4609 61.8579 51.7882 62.5781 51.6507 63.0118C51.3915 63.7848 50.2972 63.9933 49.8761 63.3437C49.7076 63.0839 49.7374 62.5638 49.9478 62.2815C50.1312 62.017 50.8548 61.6857 51.0813 61.7419Z" fill="#F4A672"/>
<path fill-rule="evenodd" clip-rule="evenodd" d="M69.0159 58.6188C68.7266 58.9587 68.6767 59.7488 68.9089 60.2376C69.1657 60.7813 69.4725 61.107 69.968 61.3649C70.9413 61.8673 71.7149 61.6048 72.0928 60.6496C72.447 59.7555 71.7852 58.4084 70.8291 58.094C70.1957 57.886 69.459 58.0905 69.0159 58.6188ZM70.407 59.2747C70.7285 59.23 71.2529 59.5977 71.2908 59.9017C71.3222 60.163 71.1819 60.5526 71.0225 60.6501C70.8631 60.7476 70.5036 60.5705 70.2042 60.2392C70.0126 60.0415 69.9832 59.9309 70.0268 59.6702C70.0877 59.3059 70.0782 59.3239 70.407 59.2747Z" fill="#F4A672"/>
<path fill-rule="evenodd" clip-rule="evenodd" d="M59.8538 67.2965C59.7279 68.1694 60.968 72.4113 62.0958 74.9876L62.6056 76.151L61.8087 76.6618C60.7376 77.3402 59.6172 78.3178 57.6984 80.2651C57.0638 80.9111 56.2882 81.6668 55.9808 81.9481C55.3688 82.4981 55.1951 82.8034 55.2669 83.193C55.3294 83.5527 55.6298 83.8026 56.1032 83.8754C56.9798 84.0296 60.8601 83.9287 62.5436 83.7183C63.116 83.6495 63.6501 83.604 63.7434 83.617C63.8763 83.6414 64.0597 83.8916 64.7263 85.018C65.5343 86.3625 66.8746 88.2819 68.1233 89.8483C68.9021 90.8361 69.6523 91.5011 70.148 91.6426C70.4739 91.7356 70.5592 91.7191 70.8059 91.5093C71.02 91.3316 71.1155 91.1331 71.1956 90.6506C71.2544 90.2989 71.2859 89.9862 71.2642 89.9527C71.2369 89.9105 71.2026 89.4635 71.1734 88.9433C71.1154 87.6559 70.8428 84.8722 70.594 83.1268C70.4892 82.3249 70.3959 81.656 70.3923 81.6349C70.3946 81.6212 71.2399 81.8424 72.2658 82.1287C74.5265 82.7604 76.471 83.2331 77.1618 83.3142C78.0087 83.4054 78.5108 82.9337 78.2695 82.2498C78.1376 81.8502 76.7957 80.1074 75.7188 78.9385C75.0524 78.2221 74.0042 77.1302 73.8714 77.0235C73.8049 76.9708 73.6657 76.8214 73.5638 76.6969C73.467 76.5805 73.1702 76.2706 72.9134 76.0053C72.6622 75.7487 72.4405 75.5219 72.4296 75.5052C72.4188 75.4885 72.5289 75.1988 72.6862 74.8681C73.0077 74.1334 73.3368 73.2295 73.3124 73.1266C73.3003 73.0751 73.3298 73.0225 73.3761 72.9942C73.6654 72.8173 74.1255 70.2292 74.169 68.5406C74.203 67.2314 73.8697 66.5693 73.1405 66.5116C72.8167 66.4873 72.8391 66.4736 71.046 68.0384C69.7005 69.2126 69.772 69.1577 68.1064 70.3632C67.0085 71.1637 66.7951 71.2941 66.639 71.2496C66.5421 71.2154 66.0626 70.8528 65.5839 70.443C63.9331 69.0292 61.7162 67.2001 61.4309 67.0233C60.908 66.6762 60.4832 66.5958 60.1787 66.782C59.9736 66.9064 59.8895 67.0401 59.8538 67.2965ZM63.1639 70.1545C65.7814 72.371 66.0379 72.5532 66.6435 72.6508C67.1711 72.7262 67.1711 72.7262 67.7577 72.2851C68.0919 72.0451 69.0894 71.1894 69.9885 70.3938C70.8892 69.585 71.7636 68.8167 71.9373 68.6749C72.111 68.5331 72.3966 68.3006 72.5862 68.1491C72.7699 67.9901 72.9333 67.9134 72.9607 67.9556C73.0639 68.1148 72.6421 70.6796 72.3395 71.7551C71.9797 73.0056 71.5094 74.2649 71.2546 74.643C70.9652 75.0658 70.9725 75.5538 71.2821 76.0314C71.4287 76.2575 72.3021 77.2107 73.2263 78.144C74.7887 79.7175 76.4 81.53 76.4755 81.7773C76.5224 81.9477 74.4898 81.5044 72.2868 80.8619C70.4277 80.3248 69.8259 80.2004 69.6126 80.3308C69.5063 80.3959 69.3391 81.353 69.3174 81.9755C69.3149 82.2349 69.3538 83.066 69.4059 83.8178C69.4578 84.5709 69.5257 85.5121 69.554 85.9173C69.5818 86.3216 69.6445 87.2548 69.6992 87.9951C69.8509 90.1157 69.9024 90.0486 69.0188 88.9971C67.3369 86.9932 65.9649 85.0575 65.0243 83.3605L64.5577 82.5098L64.0375 82.3477C63.5954 82.2079 63.1565 82.2195 61.2224 82.4187C59.9639 82.5447 58.5545 82.6685 58.1021 82.6762C57.3678 82.6918 57.2818 82.6743 57.3882 82.527C57.6633 82.1475 60.0709 79.8557 60.7934 79.2971C61.2195 78.9542 61.9514 78.3431 62.4245 77.9248C63.0993 77.3253 63.3317 77.1588 63.5102 77.1552C63.6735 77.161 63.7725 77.1004 63.8566 76.9667C63.9506 76.8158 63.9097 76.6063 63.6459 75.9361C63.4764 75.4783 63.2638 74.9525 63.1909 74.7747C62.9126 74.149 62.1552 71.9308 61.8275 70.785C61.3775 69.2216 61.2609 68.6148 61.4343 68.7188C61.5095 68.7662 62.2901 69.4127 63.1639 70.1545Z" fill="#F4A672"/>
<path fill-rule="evenodd" clip-rule="evenodd" d="M46.3363 76.6925C46.1639 76.9497 46.0336 77.6476 46.0785 78.029C46.1686 78.674 46.924 79.4483 47.6813 79.6509C48.7389 79.9257 49.5858 79.3024 49.5673 78.2757C49.5522 77.6313 49.3488 77.3004 48.6535 76.8161C47.5411 76.0486 46.8051 76.0091 46.3363 76.6925ZM48.1541 77.845C48.4225 78.0309 48.637 78.2144 48.6383 78.249C48.6123 78.4045 48.1232 78.5985 47.9229 78.5348C47.5817 78.4167 47.325 78.1184 47.3662 77.8716C47.4359 77.49 47.6345 77.486 48.1541 77.845Z" fill="#F4A672"/>
<path fill-rule="evenodd" clip-rule="evenodd" d="M81.057 87.8421C80.8163 88.1774 80.6252 88.8687 80.6842 89.2545C80.7524 89.7872 81.3207 90.4828 81.861 90.6923C82.4253 90.9215 83.1795 90.9523 83.5885 90.7611C84.2706 90.4498 84.6832 89.623 84.5662 88.8028C84.5045 88.3129 84.065 87.6677 83.6014 87.3646C83.1046 87.0584 82.9851 87.0379 82.3127 87.1676C81.698 87.2864 81.3214 87.4933 81.057 87.8421ZM82.979 88.1438C83.2981 88.2414 83.5733 88.8468 83.4577 89.2114C83.2398 89.8612 82.3198 90.0365 81.9658 89.4904C81.8242 89.272 81.8492 88.8348 82.0261 88.5975C82.1803 88.3751 82.7886 88.0966 82.979 88.1438Z" fill="#F4A672"/>
</svg>
