<svg width="72" height="72" viewBox="0 0 72 72" fill="none" xmlns="http://www.w3.org/2000/svg">
<path d="M21.1573 47.3989C33.5992 28.4415 48.83 11.4633 48.83 11.4633C53.342 24.602 77.3535 11.4633 31.8535 62.5825C30.849 63.887 20.0098 49.1474 21.1573 47.3989Z" fill="#F8ECAE"/>
<path fill-rule="evenodd" clip-rule="evenodd" d="M24.6474 41.7603C25.1822 40.1512 25.6156 38.8349 26.0584 37.5213C26.1935 37.1211 26.2648 36.657 26.52 36.3475C27.6805 34.9459 27.9788 33.1543 28.7931 31.5999C29.2435 30.7411 29.5887 29.8305 29.9977 28.9514C30.2295 28.4558 30.5493 27.9945 30.7351 27.484C31.2811 25.9777 32.0523 24.6299 33.2109 23.4886C33.5918 23.1134 33.8442 22.5983 34.1069 22.1203C35.0713 20.3648 35.9757 18.576 36.986 16.8474C37.4711 16.0165 38.1634 15.305 38.7244 14.5139C39.3915 13.5727 40.0041 12.5926 40.6702 11.6486C41.2209 10.8677 41.5201 10.8417 42.3326 11.3059C43.0108 11.6922 43.767 11.9627 44.3993 12.4082C45.0448 12.8622 45.5251 13.5495 46.1799 13.984C46.9605 14.5018 47.636 15.066 48.1266 15.8655C48.3124 16.1665 48.6098 16.425 48.9062 16.6325C50.9758 18.0804 52.6138 19.9832 54.4216 21.7062C55.3373 22.5798 55.462 23.1319 55.5568 25.144C54.7509 25.5118 54.2659 26.2927 53.6373 26.9338C52.6147 27.9787 51.625 29.0181 50.8745 30.277C50.6624 30.6328 50.29 30.8977 49.9785 31.1904C48.8143 32.2808 47.802 33.4721 46.9652 34.845C46.2719 35.9816 45.3422 36.9775 44.5175 38.0354C44.405 38.1799 44.2811 38.3161 44.1751 38.4652C42.0652 41.4482 39.959 44.4329 37.8463 47.4131C36.1548 49.7966 34.7851 52.3858 32.9829 54.7036C31.9801 55.9922 31.298 57.4874 30.7398 59.0251C30.3261 60.1646 29.9077 61.3114 29.0586 62.2193C28.826 62.4675 28.4667 62.7464 28.159 62.7547C26.8136 62.7899 25.4852 63.1299 24.123 62.9455C23.547 62.8668 23.1135 62.7028 22.7083 62.2452C20.9323 60.2359 19.1048 58.2702 17.2979 56.2868C16.9696 55.9264 16.6056 55.5864 16.3363 55.1863C15.749 54.3145 15.0679 53.5531 14.1607 52.9935C13.9037 52.8351 13.6457 52.6397 13.4656 52.4034C12.1831 50.7128 10.4888 49.5595 8.605 48.6127C8.01678 48.3172 7.49141 47.8633 7.00732 47.4084C6.41253 46.8517 6.28212 46.1152 6.65457 45.401C7.10207 44.5413 7.64246 43.7298 8.15751 42.9053C8.47648 42.394 8.82266 41.9002 9.15195 41.3944C9.25046 41.2416 9.30017 41.048 9.42213 40.9201C10.4306 39.8641 11.2525 38.6829 12.0762 37.4805C12.7601 36.4828 13.55 35.5518 14.127 34.4744C14.2968 34.1576 14.5135 33.8491 14.7668 33.5944C15.3522 33.0071 16.0521 32.9376 16.7763 33.3702C17.0381 33.5258 17.2961 33.7055 17.51 33.9186C18.9322 35.335 20.3798 36.7274 21.666 38.2716C22.5863 39.3768 23.5348 40.4606 24.6474 41.7603ZM26.9619 60.4944C27.2124 60.0266 27.3221 59.5411 27.6289 59.3031C28.2987 58.7824 28.5595 58.0293 28.9339 57.3558C29.9949 55.441 30.9894 53.4901 31.9951 51.5465C33.4811 48.6739 35.318 46.017 37.2206 43.4102C38.4402 41.7381 39.8202 40.1846 40.8812 38.3911C41.3419 37.612 42.0005 36.9469 42.568 36.2299C43.3242 35.273 44.1948 34.3827 44.8074 33.3424C45.6555 31.901 46.7241 30.6772 47.9418 29.5545C48.6201 28.9292 49.2046 28.2436 49.623 27.409C49.8341 26.9875 50.1333 26.5336 50.5189 26.2862C51.5893 25.6007 52.1438 24.5243 52.9065 23.6211C49.6765 20.4871 46.5064 17.4116 43.3364 14.336C43.0165 14.449 42.7069 14.462 42.5793 14.6195C41.8579 15.5097 41.1768 16.4315 40.4882 17.3477C39.9056 18.123 39.4384 19.0188 38.7319 19.659C37.5227 20.7539 36.6586 22.0434 35.9625 23.4775C35.8049 23.8045 35.6107 24.1167 35.4212 24.4298C33.4698 27.6582 31.5457 30.9005 29.9883 34.3401C29.7885 34.782 29.5652 35.2229 29.2847 35.6176C27.9507 37.4879 27.3174 39.6445 26.6269 41.7835C26.1982 43.1091 25.7357 44.4255 25.2685 45.7391C25.139 46.1041 24.8538 46.3403 24.4448 46.37C24.0433 46.3987 23.6474 46.2505 23.5273 45.8929C23.1511 44.7673 22.3433 43.916 21.7026 42.9646C20.8198 41.6575 19.981 40.2754 18.8665 39.1804C17.8458 38.1771 16.8898 37.109 15.8804 36.1215C15.188 37.072 14.3709 37.9381 13.8662 38.9553C13.2883 40.1207 12.5734 41.1388 11.6681 42.054C11.5452 42.1791 11.4448 42.356 11.4016 42.5255C11.214 43.2583 10.7881 43.828 10.2693 44.369C9.81054 44.8479 9.3499 45.3621 9.42683 46.2171C9.80022 46.4265 10.1989 46.6998 10.638 46.8832C12.0827 47.49 13.2338 48.5358 14.3334 49.5576C15.173 50.3367 15.9479 51.1917 16.8523 51.9199C17.2745 52.2599 17.5944 52.7249 17.9453 53.1455C18.2567 53.5197 18.5232 53.932 18.8515 54.2914C20.7804 56.4007 22.7214 58.498 24.7075 60.6537C25.4017 60.6037 26.1335 60.5527 26.9619 60.4944Z" fill="#020909"/>
</svg>
