<svg width="120" height="120" viewBox="0 0 120 120" fill="none" xmlns="http://www.w3.org/2000/svg">
<path d="M51.9513 95.4248C50.8801 95.394 49.7894 95.3097 48.7295 95.146C47.4103 94.9434 46.0571 94.8008 44.7687 94.4492C43.7461 94.1704 42.7608 93.7458 41.8257 93.2547C40.7593 92.6956 39.6865 92.0976 38.7157 91.3829C38.0756 90.9113 37.3981 90.4721 36.7952 89.9551C36.3139 89.5419 35.831 89.1286 35.3513 88.7153C34.9121 88.3393 34.515 87.9131 34.1018 87.5096C33.7955 87.2114 33.5021 86.9116 33.212 86.5988C32.7923 86.1434 32.3564 85.6961 31.9593 85.2213C32.0063 85.278 32.0517 85.3331 32.1003 85.3898C31.572 84.7627 31.0437 84.1371 30.5186 83.5066C30.0583 82.9524 29.624 82.3738 29.1767 81.8082C28.731 81.2459 28.3178 80.6576 27.8867 80.0839C27.6436 79.7597 27.4215 79.4178 27.1898 79.0856C26.9742 78.7776 26.7522 78.4729 26.5513 78.1537C26.5886 78.2136 26.6258 78.2736 26.6647 78.3336C25.9776 77.2445 25.2872 76.1684 24.7022 75.0194C23.8756 73.3907 23.2744 71.6598 22.8076 69.8982C22.7055 69.5076 22.5791 69.1171 22.4981 68.72C22.3863 68.1787 22.2728 67.6391 22.1594 67.0978C22.0881 66.7558 22.0346 66.4106 21.9779 66.0638C21.9033 65.6133 21.8109 65.1627 21.7558 64.709C21.6554 63.8905 21.5403 63.0738 21.4658 62.2521C21.3799 61.3073 21.3004 60.3673 21.2405 59.4225C21.1821 58.4906 21.1692 57.5587 21.1514 56.6269C21.1449 56.2947 21.1724 55.9608 21.187 55.6286C21.2065 55.1683 21.2049 54.6983 21.2583 54.2381C21.354 53.4229 21.4204 52.5964 21.5727 51.7877C21.7543 50.8137 21.9406 49.8478 22.1578 48.8819C22.5078 47.3342 22.9584 45.814 23.5953 44.3603C23.9518 43.5435 24.3035 42.7267 24.6892 41.9229C25.1024 41.0575 25.527 40.2034 25.9695 39.3526C26.3941 38.5358 26.8462 37.74 27.3032 36.9395C27.7084 36.228 28.167 35.5457 28.6095 34.8554C28.8412 34.4907 29.1151 34.1471 29.3679 33.7971C29.5867 33.4908 29.8007 33.1796 30.0389 32.8863C30.611 32.1813 31.1798 31.4796 31.7859 30.8022C32.1003 30.4521 32.4034 30.0874 32.734 29.752C33.0792 29.4003 33.4244 29.0487 33.7696 28.6954C34.3741 28.0795 35.011 27.501 35.6414 26.9143C35.912 26.6615 36.2086 26.433 36.4922 26.1947C36.9589 25.8025 37.4224 25.4087 37.907 25.0392C39.7804 23.613 41.8483 22.4802 44.0054 21.5419C45.673 20.8159 47.4217 20.2405 49.1979 19.8435C50.0795 19.6474 50.9547 19.4383 51.846 19.2925C52.7147 19.1498 53.5801 18.9926 54.4536 18.8873C55.366 18.7771 56.2752 18.6652 57.1892 18.5891C58.1243 18.5113 59.0529 18.4497 59.9913 18.4092C60.9247 18.3687 61.8518 18.359 62.7869 18.3606C63.6685 18.3606 64.5468 18.4059 65.4284 18.4432C65.7396 18.4562 66.0491 18.4837 66.3603 18.5064C66.8741 18.5469 67.3894 18.5713 67.9031 18.6264C68.7232 18.7171 69.5448 18.7917 70.3616 18.9116C71.2902 19.0461 72.2092 19.1904 73.1313 19.3621C74.068 19.5388 74.9901 19.7624 75.9171 19.9877C77.9364 20.4787 79.8909 21.3166 81.6671 22.3879C83.1306 23.2727 84.4206 24.3958 85.6571 25.5675C86.3394 26.2141 86.9844 26.8867 87.6326 27.5657C87.8774 27.8218 88.0994 28.0973 88.3311 28.3647C88.6261 28.7099 88.9421 29.0438 89.2176 29.4052C89.7638 30.1264 90.3148 30.8362 90.8155 31.5898C91.0781 31.9852 91.3601 32.3742 91.6031 32.7826C91.8608 33.2153 92.1185 33.6464 92.3746 34.0774C93.2562 35.5603 93.9952 37.134 94.6402 38.7319C95.2917 40.3428 95.8395 41.9959 96.2949 43.6716C96.7681 45.4154 97.1976 47.1656 97.5428 48.9418C98.2121 52.3905 98.4924 55.9041 98.4519 59.4144C98.4373 60.5537 98.2721 61.7011 98.1197 62.829C97.9722 63.9148 97.7664 64.9974 97.5476 66.0719C97.0809 68.3554 96.4748 70.6356 95.6045 72.8024C95.2788 73.6143 94.2804 73.9757 93.496 73.637C92.676 73.2821 92.3357 72.3373 92.6614 71.5269C92.7684 71.2595 92.8705 70.9921 92.9694 70.7215C93.5009 69.1673 93.9304 67.5872 94.2967 65.9876C94.4879 65.0428 94.671 64.098 94.825 63.1467C94.9757 62.2148 95.0891 61.283 95.1863 60.3446C95.2285 59.6396 95.269 58.9363 95.256 58.2297C95.2431 57.5069 95.222 56.7857 95.1945 56.0645C95.128 55.0987 95.0421 54.1344 94.9465 53.1701C94.846 52.1604 94.6759 51.1572 94.5155 50.1557C94.2562 48.8187 93.9693 47.493 93.6403 46.169C93.3356 44.9438 92.9807 43.7348 92.6145 42.5258C92.4103 41.9343 92.2028 41.3427 91.9986 40.7512C91.7977 40.1694 91.5351 39.6038 91.305 39.0333C90.9468 38.27 90.5903 37.5099 90.1932 36.7661C89.7637 35.9622 89.3035 35.1844 88.84 34.4032C88.4932 33.883 88.148 33.3611 87.8012 32.8409C87.631 32.5848 87.4252 32.3466 87.2404 32.1019C87.0346 31.8313 86.8288 31.559 86.6246 31.29C86.0185 30.5866 85.4189 29.8865 84.7771 29.2139C84.4741 28.8979 84.1775 28.5754 83.8615 28.274C83.4887 27.9207 83.1143 27.5658 82.7416 27.2125C82.0674 26.6193 81.3738 26.0586 80.6396 25.54C80.1097 25.185 79.5635 24.8593 79.0028 24.5595C78.2654 24.1884 77.5086 23.8659 76.7307 23.5823C76.0938 23.3651 75.452 23.1722 74.7973 23.0118C74.3386 22.9 73.88 22.7881 73.4214 22.6763C72.4863 22.4997 71.5544 22.323 70.6128 22.1853C69.5724 22.0346 68.5303 21.9162 67.485 21.8028C66.4559 21.725 65.4317 21.6504 64.4026 21.6067C63.3103 21.5597 62.2196 21.563 61.1257 21.563C61.1775 21.5613 61.2278 21.5581 61.2796 21.5565C60.5196 21.5873 59.7546 21.5921 58.9962 21.6553C58.2069 21.7185 57.4096 21.759 56.6236 21.853C55.8214 21.9503 55.0062 22.0151 54.2089 22.148C53.4277 22.276 52.6466 22.4057 51.8638 22.5321C50.6111 22.8108 49.36 23.0734 48.1315 23.4396C46.9339 23.8172 45.7654 24.2629 44.618 24.775C43.5662 25.2645 42.5469 25.8074 41.5583 26.4135C40.8015 26.898 40.0722 27.4183 39.3623 27.9693C38.9604 28.3064 38.5601 28.6435 38.1566 28.9806C37.8098 29.2723 37.4824 29.5867 37.1502 29.8962C36.4047 30.5931 35.6932 31.3191 34.9769 32.0468C34.3611 32.7356 33.7436 33.4162 33.1602 34.1325C32.8652 34.4956 32.5589 34.8521 32.285 35.2313C31.9723 35.6673 31.6579 36.1016 31.3451 36.5359C31.0453 37.0043 30.7455 37.4759 30.4473 37.9443C30.1815 38.3592 29.9449 38.7902 29.7001 39.2181C29.1945 40.1013 28.7278 41.0024 28.2562 41.9067C27.4702 43.5614 26.6744 45.2063 26.0375 46.9274C25.6243 48.1186 25.3471 49.3341 25.0684 50.5593C24.9452 51.2367 24.814 51.9141 24.6908 52.5915C24.6308 52.9189 24.6114 53.256 24.5725 53.5866C24.532 53.9301 24.4899 54.2737 24.4493 54.6173C24.4218 55.2623 24.3926 55.9073 24.3634 56.5523C24.3488 56.857 24.3732 57.1665 24.378 57.4712C24.3845 57.7953 24.391 58.1195 24.3958 58.4436C24.4752 59.7515 24.5855 61.0512 24.7022 62.3574C24.8156 63.6248 25.0376 64.8824 25.2418 66.1368C25.5141 67.4624 25.7977 68.7816 26.1883 70.0797C26.4946 71.0456 26.8462 71.9905 27.2563 72.9174C27.2271 72.8542 27.1979 72.791 27.1688 72.7278C27.5042 73.462 27.8624 74.201 28.2837 74.8898C28.6532 75.4764 29.0227 76.0631 29.3922 76.6481C29.355 76.5882 29.3177 76.5282 29.2788 76.4683C30.4894 78.1942 31.7081 79.9202 33.0532 81.5441C33.5135 82.0902 33.9753 82.638 34.434 83.1874C34.9299 83.7287 35.4274 84.2651 35.9233 84.8048C36.1486 85.0511 36.403 85.2748 36.6429 85.5081C36.8909 85.7496 37.1388 85.9927 37.3868 86.2358C37.9103 86.6831 38.4305 87.1352 38.9555 87.5809C39.2116 87.7997 39.5033 87.9845 39.774 88.1838C40.0657 88.3961 40.3558 88.61 40.6458 88.8223C41.5421 89.4203 42.4642 89.9713 43.4187 90.4737C43.9325 90.7298 44.4527 90.9583 44.9907 91.1593C45.3521 91.2808 45.7152 91.3894 46.0847 91.4802C46.7848 91.6163 47.493 91.7135 48.198 91.8221C49.0002 91.9453 49.7991 92.0555 50.6062 92.1365C51.6872 92.2256 52.7665 92.2483 53.8523 92.2337C54.6789 92.1916 55.507 92.1527 56.3335 92.1105C56.7419 92.0911 57.1536 92.0182 57.562 91.9728C58.0174 91.9226 58.4744 91.8707 58.9298 91.8188C59.3301 91.7508 59.7287 91.6811 60.129 91.6114C60.5017 91.5482 60.8842 91.4996 61.2537 91.4153C62.4724 91.1317 63.6911 90.861 64.8904 90.5045C65.7769 90.2241 66.6407 89.8952 67.4963 89.5289C69.2807 88.6797 71.0552 87.8207 72.7423 86.7884C73.6353 86.2212 74.4958 85.6102 75.3143 84.9425C76.0597 84.3073 76.7647 83.633 77.4292 82.9135C77.9834 82.2896 78.502 81.6429 78.9834 80.9622C79.7677 79.8083 80.5083 78.6123 81.1598 77.379C81.552 76.5865 81.894 75.7746 82.1987 74.9449C82.5779 73.8461 82.868 72.7311 83.1662 71.608C83.1581 71.6436 83.15 71.6793 83.1435 71.7133C83.3088 70.9565 83.4871 70.2029 83.6249 69.4412C83.7918 68.5158 83.9554 67.5905 84.0964 66.6602C84.359 64.9278 84.5664 63.1888 84.7544 61.445C84.829 60.4969 84.9132 59.5537 84.9618 58.604C84.9829 58.1713 85.0153 57.7386 85.0153 57.3059C85.0169 56.7598 85.0186 56.212 85.0186 55.6659C84.9926 55.217 84.9635 54.7664 84.9343 54.3175C84.8889 53.5672 84.7917 52.8233 84.6701 52.0827C84.5146 51.2448 84.3217 50.4199 84.0818 49.6031C83.855 48.8916 83.5892 48.198 83.2894 47.5125C83.0657 47.0587 82.8405 46.6081 82.6184 46.1544C82.377 45.6649 82.0771 45.195 81.8065 44.7201C81.5893 44.3766 81.3705 44.033 81.1534 43.6894C80.6753 42.939 80.1469 42.2244 79.5878 41.534C78.9525 40.7804 78.2767 40.0689 77.562 39.3915C77.0678 38.9652 76.5702 38.5406 76.076 38.1144C75.8134 37.8892 75.5136 37.6963 75.2365 37.4921C74.9853 37.3073 74.7357 37.121 74.4845 36.9362C73.9076 36.5635 73.3323 36.1908 72.7553 35.8196C72.4215 35.6041 72.0601 35.4274 71.7149 35.233C71.3551 35.0288 70.9969 34.8229 70.6307 34.6301C69.5254 34.0677 68.3974 33.5621 67.2322 33.1326C66.3862 32.8425 65.5273 32.6043 64.6554 32.405C63.6766 32.1975 62.6929 32.042 61.6978 31.9431C60.8745 31.8783 60.0512 31.8556 59.2247 31.8766C58.3431 31.9204 57.4712 32.0176 56.5993 32.157C55.8116 32.298 55.0305 32.4682 54.2607 32.6902C53.815 32.8199 53.3661 32.9495 52.9188 33.0791C52.1571 33.3384 51.4068 33.6269 50.6694 33.9494C49.804 34.3529 48.9807 34.8181 48.1477 35.2832C47.6713 35.5928 47.1932 35.9039 46.7167 36.2151C46.4639 36.3787 46.2257 36.5781 45.9842 36.7596C45.7022 36.967 45.4202 37.1777 45.1382 37.3852C44.6472 37.7968 44.1561 38.2084 43.6651 38.6184C43.4058 38.8356 43.1708 39.09 42.9261 39.3234C42.6409 39.5941 42.3572 39.8647 42.0736 40.137C42.1223 40.0835 42.1709 40.03 42.2195 39.9749C41.9569 40.265 41.6928 40.5535 41.4286 40.842C41.1888 41.1045 40.9295 41.3589 40.7091 41.6377C40.0624 42.4512 39.4061 43.2518 38.8048 44.1027C38.3105 44.8303 37.8519 45.579 37.4403 46.3569C37.1729 46.8999 36.9298 47.4493 36.7158 48.0165C36.5424 48.5238 36.3966 49.0359 36.2718 49.5577C36.1437 50.1735 36.0514 50.791 35.9865 51.4182C35.9331 52.1232 35.9185 52.8281 35.9396 53.5347C35.9882 54.4131 36.087 55.2802 36.2248 56.1488C36.3933 57.0045 36.5619 57.8537 36.7709 58.7013C36.9687 59.5067 37.2052 60.2976 37.4451 61.0901C37.6558 61.6751 37.8713 62.2586 38.082 62.8436C38.1857 63.1321 38.3316 63.4109 38.4548 63.6912C38.5569 63.923 38.659 64.1531 38.7611 64.3849C39.0269 64.8889 39.2878 65.3961 39.5536 65.9001C39.8048 66.3799 40.1094 66.8384 40.3914 67.3052C40.9246 68.1139 41.4611 68.9129 42.0267 69.6989C42.5534 70.4314 43.1157 71.1299 43.6732 71.8381C43.9892 72.1931 44.3036 72.5479 44.6196 72.9029C45.1171 73.4604 45.6406 73.9903 46.1868 74.5008C46.9015 75.1409 47.6453 75.7357 48.4281 76.29C49.1363 76.7697 49.8624 77.2137 50.6176 77.6156C51.2723 77.9446 51.9384 78.238 52.6255 78.4892C53.1068 78.6496 53.5914 78.789 54.0857 78.9089C54.58 79.011 55.0759 79.0888 55.5783 79.1439C55.9738 79.1731 56.3675 79.1861 56.763 79.1796C57.16 79.1537 57.5522 79.1066 57.9444 79.0451C58.8941 78.8717 59.8292 78.6172 60.753 78.3401C61.6378 78.0597 62.5 77.7259 63.3476 77.3483C64.3102 76.8961 65.2405 76.3856 66.1448 75.8281C66.8481 75.3759 67.5304 74.8979 68.19 74.3857C68.6146 74.0568 69.0392 73.731 69.4606 73.402C70.2822 72.7035 71.0682 71.9694 71.8024 71.1801C72.2302 70.6972 72.6338 70.1997 73.013 69.6762C73.3258 69.2127 73.611 68.7362 73.8735 68.2419C74.1085 67.7557 74.3143 67.2598 74.5023 66.7542C74.7811 65.9196 74.9772 65.0752 75.1798 64.2212C75.264 63.7188 75.3499 63.2163 75.4358 62.7156C75.5169 62.2342 75.5493 61.7384 75.5979 61.2522C75.6254 60.7417 75.6562 60.2328 75.6822 59.7223C75.7097 59.2037 75.6822 58.677 75.6805 58.1584C75.6433 57.6446 75.606 57.1309 75.5703 56.6171C75.5509 56.34 75.4877 56.0629 75.4471 55.7874C75.4147 55.5605 75.3807 55.332 75.3467 55.1035C75.1765 54.3272 75.0161 53.5526 74.7941 52.7876C74.5947 52.1621 74.3662 51.5495 74.1037 50.9482C73.8622 50.4393 73.5964 49.9483 73.3047 49.4669C72.8558 48.7798 72.3599 48.1364 71.8461 47.4963C71.6095 47.2321 71.3713 46.968 71.1331 46.7038C70.8819 46.425 70.595 46.169 70.326 45.9081C69.9062 45.5369 69.4735 45.1868 69.0165 44.8611C68.6503 44.618 68.2743 44.396 67.887 44.1886C67.4705 43.9844 67.0458 43.8028 66.6115 43.6408C66.1723 43.4949 65.7299 43.3702 65.2794 43.2664C64.8629 43.1854 64.4448 43.1222 64.0234 43.0752C63.5064 43.0363 62.9911 43.0233 62.4725 43.0363C61.9506 43.0671 61.4336 43.1205 60.915 43.1983C60.296 43.3102 59.6882 43.4528 59.0853 43.6294C58.5926 43.7915 58.1097 43.973 57.6332 44.1788C57.0287 44.4641 56.4421 44.7785 55.87 45.1253C55.4211 45.417 54.9916 45.7314 54.5751 46.0669C54.1781 46.4088 53.8005 46.7686 53.4374 47.1495C53.0031 47.6324 52.6012 48.1397 52.2203 48.6664C51.7212 49.3957 51.2674 50.1508 50.8542 50.932C50.556 51.53 50.2853 52.1361 50.0503 52.7617C49.8915 53.2316 49.757 53.7049 49.6452 54.1895C49.5771 54.5395 49.5253 54.8912 49.4848 55.2445C49.4621 55.567 49.454 55.8862 49.4588 56.2071C49.4783 56.4924 49.509 56.7744 49.5512 57.0564C49.6095 57.3497 49.6776 57.6365 49.7586 57.925C49.898 58.3545 50.0585 58.7726 50.24 59.1875C50.4588 59.6413 50.697 60.0821 50.9595 60.5115C51.2448 60.9459 51.5494 61.3624 51.8768 61.7643C52.2187 62.1532 52.5753 62.5244 52.9513 62.8793C53.4521 63.3201 53.9706 63.7301 54.5152 64.1142C54.9965 64.4351 55.4875 64.7333 55.998 65.0088C56.5393 65.2794 57.0887 65.5177 57.6543 65.7283C58.0951 65.8758 58.5376 66.0022 58.9913 66.1092C59.4095 66.1919 59.8276 66.2534 60.2506 66.2956C60.6071 66.315 60.962 66.3215 61.3169 66.3134C61.6589 66.2891 61.9976 66.255 62.3363 66.2048C62.6766 66.1384 63.0105 66.0606 63.3443 65.9666C63.6409 65.8677 63.9294 65.7575 64.2179 65.6344C64.4691 65.5112 64.7154 65.3815 64.9552 65.2389C65.1772 65.093 65.3879 64.9407 65.597 64.777C65.8223 64.5777 66.0362 64.3719 66.2436 64.1547C66.4543 63.9084 66.6537 63.6572 66.8449 63.3963C67.0685 63.064 67.2744 62.7237 67.4672 62.372C67.6617 61.9782 67.8367 61.5779 67.9907 61.1663C68.0766 60.8956 68.1543 60.625 68.2224 60.3495C68.2856 60.014 68.331 59.6769 68.3667 59.3366C68.3974 58.8455 68.4055 58.3545 68.3909 57.8634C68.365 57.4745 68.3229 57.0871 68.2662 56.703C68.1965 56.3384 68.1138 55.9786 68.015 55.6188C67.908 55.2866 67.7897 54.9609 67.6536 54.64C67.5239 54.3694 67.3845 54.1068 67.2322 53.8491C67.0831 53.6255 66.9259 53.4115 66.759 53.2025C66.6196 53.0485 66.477 52.9027 66.3279 52.7617C66.1853 52.6434 66.0411 52.5299 65.8936 52.4197C65.7429 52.3241 65.5921 52.235 65.4382 52.1491C65.2777 52.0745 65.1189 52.0065 64.9552 51.9433C64.7932 51.8914 64.6344 51.8476 64.4707 51.8071C64.3054 51.778 64.1401 51.752 63.9731 51.7342C63.8046 51.7261 63.6377 51.7229 63.4691 51.7245C63.2876 51.7375 63.1077 51.7585 62.9262 51.7828C62.7544 51.8201 62.5875 51.8606 62.4189 51.9076C62.2423 51.9692 62.0705 52.0356 61.8987 52.1086C61.7221 52.1961 61.5503 52.2885 61.3818 52.389C61.2148 52.5008 61.0544 52.6158 60.894 52.7374C60.706 52.9011 60.5293 53.0696 60.3575 53.2495C60.2327 53.4002 60.1144 53.5526 59.9977 53.7098C59.941 53.7973 59.8875 53.8864 59.8373 53.9771C59.7952 54.063 59.7563 54.1522 59.7206 54.2413C59.6996 54.3126 59.6785 54.3839 59.6574 54.4552C59.638 54.5735 59.6234 54.6919 59.6185 54.8118C59.6234 54.7437 59.6299 54.6756 59.6364 54.6076C59.6283 54.7324 59.625 54.8571 59.6266 54.9836C59.6444 55.2137 59.6704 55.439 59.7011 55.6659C59.7417 55.8684 59.7887 56.0662 59.8438 56.2655C59.9021 56.4357 59.9653 56.6009 60.035 56.7663C60.0853 56.8684 60.1403 56.9672 60.1971 57.0661C60.3008 57.2216 60.4094 57.3691 60.5244 57.515C60.5811 57.5782 60.6411 57.6398 60.7027 57.6998C60.7692 57.7565 60.8356 57.8116 60.9053 57.8634C61.0463 57.9542 61.1889 58.0401 61.3347 58.1276C62.0851 58.5732 62.3347 59.5797 61.8874 60.3284C61.4368 61.0787 60.4369 61.3267 59.6866 60.881C59.3219 60.6622 58.9751 60.437 58.651 60.1631C58.288 59.8552 57.9817 59.4857 57.6997 59.1032C57.066 58.2443 56.6868 57.1666 56.5296 56.1196C56.3821 55.1278 56.3481 54.0906 56.7144 53.1393C57.1147 52.1037 57.7791 51.2318 58.5959 50.4863C60.0934 49.1201 62.1159 48.4135 64.1303 48.5351C66.1156 48.6534 67.9745 49.6614 69.2385 51.1783C70.6226 52.8378 71.313 54.9252 71.5447 57.0515C71.6581 58.0984 71.6193 59.1615 71.4977 60.2036C71.3729 61.2813 71.0245 62.3234 70.5804 63.3088C70.1412 64.2844 69.5562 65.187 68.8804 66.0136C68.1705 66.8806 67.3003 67.5743 66.3441 68.1496C65.4138 68.7087 64.3507 69.0587 63.2957 69.2905C62.0867 69.5579 60.8502 69.5676 59.6218 69.459C58.4582 69.3569 57.3221 69.0198 56.2298 68.6228C55.1034 68.2144 54.0355 67.6358 53.0339 66.9843C51.1038 65.7316 49.407 64.0964 48.1931 62.137C47.6227 61.2149 47.1543 60.2409 46.8026 59.215C46.4412 58.1584 46.2727 57.0742 46.2451 55.9592C46.2176 54.8231 46.4428 53.6789 46.7394 52.5883C47.0473 51.4554 47.5319 50.368 48.0748 49.3324C49.1153 47.3455 50.4264 45.4996 52.0859 43.9827C53.7097 42.4999 55.6982 41.3978 57.771 40.6864C59.9929 39.9247 62.3655 39.6848 64.6975 39.9279C66.8352 40.1516 68.9355 40.957 70.7165 42.1498C72.5511 43.375 74.0972 45.0572 75.3824 46.8383C76.5184 48.4119 77.3563 50.1557 77.9024 52.0195C78.1876 52.9983 78.4194 54.0031 78.5685 55.0095C78.6317 55.4374 78.7257 55.8716 78.7581 56.3027C78.7937 56.8246 78.8326 57.3497 78.8715 57.8715C78.9023 58.2897 78.8861 58.7094 78.8861 59.1275C78.8861 59.5229 78.8813 59.9119 78.8586 60.3057C78.8343 60.7449 78.8261 61.1889 78.7792 61.6265C78.7224 62.137 78.6657 62.6508 78.6106 63.1613C78.5652 63.5745 78.4696 63.9878 78.4015 64.3978C78.3286 64.824 78.2298 65.2405 78.1309 65.6603C77.9688 66.3442 77.7938 67.0151 77.5686 67.6828C77.1812 68.8334 76.6545 69.9241 76.0127 70.9516C75.4131 71.9094 74.6854 72.7716 73.9238 73.5997C73.1329 74.4587 72.261 75.2836 71.3389 76.0015C70.407 76.7276 69.4832 77.4552 68.5028 78.1132C66.5337 79.4389 64.3913 80.5134 62.1353 81.2605C61.0447 81.6219 59.9183 81.9298 58.7888 82.1469C57.6657 82.3609 56.5442 82.4305 55.4049 82.3414C53.1765 82.1664 51.0195 81.4484 49.0504 80.4096C46.9306 79.293 45.0183 77.8474 43.3053 76.1781C42.8807 75.7665 42.4901 75.3306 42.0979 74.8881C41.7787 74.53 41.44 74.1815 41.1434 73.8039C40.6232 73.1411 40.0851 72.4912 39.5941 71.8073C39.3072 71.407 39.0204 71.01 38.7335 70.6113C38.4532 70.2191 38.2003 69.8026 37.9362 69.3991C37.7352 69.096 37.5472 68.7897 37.3608 68.4785C37.1388 68.1058 36.8958 67.7411 36.6964 67.3554C36.4598 66.9 36.2216 66.4463 35.9833 65.9893C35.7872 65.6133 35.6284 65.213 35.4566 64.8256C35.314 64.5015 35.1568 64.1807 35.0369 63.8468C34.8456 63.3185 34.6528 62.7885 34.4599 62.2602C34.3254 61.8858 34.225 61.4953 34.1115 61.1144C33.9981 60.7401 33.8797 60.3673 33.7857 59.9864C33.6658 59.497 33.5459 59.0092 33.4244 58.5198C33.3158 58.0741 33.2477 57.6171 33.1602 57.1682C32.7761 55.2008 32.6286 53.1912 32.7939 51.1929C32.8895 50.0471 33.1002 48.9208 33.4114 47.8139C33.7323 46.6746 34.2249 45.592 34.7727 44.5483C35.5539 43.0573 36.5554 41.7025 37.6023 40.3898C37.8244 40.111 38.035 39.8161 38.2733 39.5535C38.6557 39.1354 39.0382 38.7173 39.4191 38.2976C40.0316 37.625 40.7026 37.0108 41.3622 36.3836C41.6085 36.1486 41.8808 35.9379 42.1433 35.7191C42.5112 35.4096 42.871 35.0758 43.2583 34.7873C43.9535 34.2703 44.6391 33.7452 45.3635 33.2736C45.7654 33.0111 46.1609 32.7194 46.5806 32.486C47.0344 32.2332 47.4881 31.9787 47.9403 31.7259C48.6955 31.3046 49.4961 30.9561 50.2951 30.6271C51.0195 30.3305 51.7601 30.0794 52.512 29.8622C52.9918 29.7228 53.4731 29.5834 53.9544 29.4457C55.0289 29.1329 56.1617 28.966 57.2702 28.8201C59.6428 28.509 62.0689 28.658 64.4155 29.0875C66.7849 29.5202 69.0506 30.2982 71.2173 31.3435C72.3032 31.8669 73.3403 32.473 74.3905 33.0629C74.7292 33.2525 75.0501 33.4875 75.3758 33.6982C75.7324 33.9283 76.1019 34.1471 76.4422 34.4C77.1521 34.9267 77.8716 35.4355 78.5425 36.0108C78.8942 36.3139 79.2475 36.6153 79.5992 36.92C80.4695 37.6671 81.2522 38.5342 81.9864 39.4142C82.5747 40.1175 83.1419 40.8484 83.6329 41.6231C83.9214 42.0785 84.2099 42.5323 84.4984 42.9877C84.9684 43.7251 85.3767 44.503 85.764 45.2857C86.046 45.8562 86.3167 46.4234 86.5598 47.0117C87.0265 48.1381 87.362 49.3211 87.6262 50.5106C87.7493 51.0568 87.8401 51.611 87.9276 52.1637C87.9989 52.6191 88.0702 53.0874 88.0977 53.5477C88.1302 54.076 88.1642 54.6044 88.1966 55.1343C88.2485 55.9576 88.2225 56.7841 88.2225 57.6106C88.2225 58.0709 88.1755 58.5343 88.1528 58.993C88.1334 59.3479 88.114 59.6996 88.0848 60.0529C88.0054 61.0188 87.9211 61.9815 87.8174 62.9441C87.6261 64.6976 87.3766 66.4414 87.1124 68.1852C86.9925 68.9825 86.8402 69.7848 86.67 70.5724C86.4674 71.5027 86.2697 72.428 86.025 73.3469C85.8986 73.8234 85.7786 74.3015 85.6344 74.7731C85.273 75.9577 84.8322 77.1165 84.312 78.238C83.7026 79.5539 82.9183 80.7726 82.1501 81.9978C81.0545 83.7465 79.6851 85.3169 78.1682 86.7106C77.3303 87.4804 76.426 88.1773 75.4925 88.8223C74.6061 89.4365 73.6742 90.0248 72.7132 90.5207C71.9353 90.921 71.1639 91.3424 70.373 91.7168C69.8949 91.942 69.4184 92.1689 68.9404 92.3942C67.9874 92.8447 66.9891 93.2061 65.9827 93.5221C64.7429 93.9111 63.4837 94.1931 62.2196 94.4864C61.3785 94.6825 60.518 94.7976 59.6688 94.9434C58.7677 95.099 57.8504 95.1703 56.9429 95.2724C56.0677 95.3697 55.1812 95.3762 54.3029 95.4199C53.8912 95.441 53.4796 95.4491 53.0696 95.4491C52.6936 95.441 52.3225 95.4345 51.9513 95.4248Z" fill="#F4A672"/>
<path d="M26.2332 22.6552C24.8962 22.237 23.7099 21.4429 22.5577 20.6667C21.7101 20.0946 20.8657 19.5192 19.9987 18.9796C18.3862 17.9748 16.7623 16.983 15.0801 16.0933C14.9358 16.0203 14.7932 15.949 14.649 15.8793C13.8614 15.5001 13.4578 14.5958 13.8144 13.7692C14.1498 12.993 15.1368 12.5554 15.9244 12.9346C17.6439 13.766 19.2953 14.7627 20.916 15.7707C21.7214 16.2715 22.5204 16.7788 23.308 17.3087C24.3128 17.9862 25.3111 18.6862 26.379 19.2599C26.5816 19.3588 26.7858 19.4496 26.9965 19.5306C27.037 19.5436 27.0775 19.5565 27.1197 19.5695C27.9543 19.832 28.4632 20.6991 28.2185 21.5548C28.024 22.2354 27.366 22.72 26.6724 22.72C26.5265 22.7216 26.3791 22.7005 26.2332 22.6552Z" fill="#F4A672"/>
<path d="M19.1708 37.2329C16.9067 36.9412 14.6557 36.5619 12.3869 36.3124C11.0952 36.207 9.80356 36.1341 8.50544 36.1325C7.63192 36.1325 6.91884 35.3513 6.93991 34.4924C6.95936 33.6059 7.7065 32.9253 8.58002 32.9269C10.4 32.9301 12.2053 33.0695 14.0123 33.2672C14.962 33.3709 15.9085 33.5346 16.8533 33.674C17.7851 33.815 18.7202 33.9414 19.6553 34.0613C20.5224 34.1747 21.1285 35.0402 20.9989 35.8894C20.8757 36.6949 20.1707 37.2459 19.3879 37.2459C19.315 37.2459 19.2421 37.241 19.1708 37.2329Z" fill="#F4A672"/>
<path d="M0.0428859 68.0523C-0.161313 67.1902 0.384803 66.3377 1.23239 66.1206C2.58399 65.7738 3.95832 65.5177 5.33099 65.2584C6.63235 65.0137 7.93532 64.7916 9.24154 64.5761C9.74232 64.4902 10.2463 64.4059 10.7471 64.3152C11.3192 64.2131 11.8896 64.0932 12.4682 64.0462C13.3385 63.9765 14.1391 64.5891 14.2315 65.474C14.3206 66.328 13.6756 67.1659 12.8037 67.2372C12.559 67.2582 12.3158 67.2955 12.0744 67.3328C10.8346 67.5548 9.59482 67.7639 8.3518 67.9697C6.21906 68.3424 4.07174 68.7038 1.97465 69.2419C1.85148 69.2727 1.72833 69.2889 1.60678 69.2889C0.885605 69.2873 0.213051 68.7687 0.0428859 68.0523Z" fill="#F4A672"/>
<path d="M12.6524 100.85C12.2295 100.787 11.8454 100.551 11.5958 100.205C11.108 99.5297 11.2166 98.4325 11.9556 97.9657C13.466 97.0079 14.9926 96.0793 16.5338 95.1734C17.2825 94.7342 18.0378 94.3064 18.7897 93.8753C19.4526 93.4961 20.096 93.0568 20.7961 92.7473C21.595 92.394 22.5674 92.8948 22.864 93.6776C23.0098 94.0649 23.0001 94.5024 22.8364 94.8833C22.6582 95.2933 22.334 95.5688 21.9337 95.7455C21.9305 95.7487 21.9256 95.7487 21.9208 95.752C21.984 95.7228 22.0472 95.6936 22.112 95.6645C21.5189 95.9481 20.9614 96.324 20.3925 96.6514C19.6406 97.0825 18.8902 97.5136 18.1399 97.9463C16.8709 98.6772 15.6214 99.4454 14.3784 100.222C14.1985 100.335 14.017 100.45 13.8355 100.564C13.5405 100.752 13.2261 100.868 12.8842 100.868C12.8064 100.867 12.7302 100.862 12.6524 100.85Z" fill="#F4A672"/>
<path d="M44.1703 116.811C43.3373 116.572 42.8219 115.663 43.0715 114.827C43.3502 113.89 43.6678 112.967 43.9968 112.046C43.9952 112.049 43.9936 112.054 43.992 112.057C44.0179 111.988 44.0422 111.916 44.0681 111.847C44.0617 111.863 44.0552 111.881 44.0503 111.897C44.3566 111.036 44.6613 110.176 44.9919 109.327C45.2707 108.615 45.5413 107.902 45.8686 107.212C46.0988 106.729 46.3467 106.247 46.7162 105.857C46.9334 105.627 47.2106 105.398 47.5152 105.303C47.9188 105.175 48.3272 105.158 48.7226 105.33C49.1164 105.5 49.4324 105.831 49.5847 106.233C49.8375 106.897 49.5912 107.735 48.9997 108.134C48.9689 108.184 48.9398 108.236 48.9122 108.289C48.2234 109.691 47.7065 111.187 47.1798 112.657C47.2041 112.592 47.2268 112.527 47.2494 112.462C47.1619 112.707 47.0744 112.954 46.9853 113.198C46.9902 113.185 46.995 113.171 46.9999 113.158C46.995 113.172 46.9901 113.187 46.9837 113.201C46.9788 113.214 46.9756 113.227 46.9707 113.239C46.9739 113.231 46.9756 113.224 46.9788 113.216L46.9804 113.211L46.9788 113.214C46.9804 113.208 46.9836 113.201 46.9869 113.193C46.9804 113.21 46.9756 113.227 46.9691 113.244C46.6822 114.06 46.4018 114.88 46.1555 115.71C45.9481 116.405 45.3014 116.871 44.6046 116.871C44.4603 116.872 44.3145 116.851 44.1703 116.811Z" fill="#F4A672"/>
<path d="M69.901 118.564C69.6822 116.494 69.5882 114.409 69.4764 112.333C69.4197 111.266 69.3727 110.2 69.3241 109.134C69.2981 108.584 69.2819 108.032 69.2609 107.482C69.2479 107.137 69.2365 106.79 69.2349 106.445C69.23 106.012 69.256 105.541 69.4375 105.139C69.7924 104.341 70.7373 103.954 71.546 104.304C72.2785 104.62 72.6723 105.464 72.4519 106.22C72.413 107.066 72.4778 107.923 72.5134 108.769C72.5134 108.756 72.5118 108.743 72.5118 108.73C72.5134 108.766 72.5151 108.803 72.5167 108.839C72.5183 108.871 72.5199 108.902 72.5199 108.934C72.5183 108.912 72.5183 108.889 72.5167 108.868C72.5848 110.367 72.6545 111.866 72.7404 113.365C72.8327 114.987 72.9186 116.613 73.0904 118.229C73.1828 119.097 72.5329 119.899 71.6626 119.992C71.6075 119.998 71.5524 120 71.4989 120C70.6967 120 69.9885 119.378 69.901 118.564Z" fill="#F4A672"/>
<path d="M90.2209 107.322C89.7185 105.936 89.2453 104.539 88.7721 103.142C88.294 101.724 87.7916 100.311 87.3476 98.8816C87.2212 98.4764 87.2034 98.0729 87.3751 97.6742C87.5453 97.2804 87.8759 96.9644 88.2778 96.812C89.0573 96.5171 90.0864 96.9077 90.3457 97.7423C90.7898 99.1701 91.2922 100.583 91.7719 102.001C92.2418 103.4 92.7167 104.795 93.2207 106.183C93.5173 107.003 93.1154 107.938 92.2905 108.25C92.1106 108.319 91.9226 108.351 91.7362 108.351C91.0847 108.353 90.4527 107.96 90.2209 107.322Z" fill="#F4A672"/>
<path d="M109.087 89.6001C107.82 88.6521 106.59 87.657 105.363 86.6587C104.052 85.5891 102.749 84.5049 101.526 83.3348C100.894 82.7303 100.968 81.6509 101.579 81.0691C101.885 80.7758 102.3 80.6154 102.723 80.6251C103.161 80.6348 103.535 80.8228 103.848 81.1194C104.004 81.2685 104.161 81.4159 104.318 81.5634C105.389 82.5228 106.496 83.4401 107.611 84.3509C108.754 85.2828 109.906 86.2065 111.086 87.0914C111.786 87.6149 111.875 88.678 111.342 89.3457C111.026 89.7427 110.565 89.9405 110.1 89.9405C109.745 89.9405 109.389 89.827 109.087 89.6001Z" fill="#F4A672"/>
<path d="M117.974 63.5374C116.95 63.351 115.934 63.1322 114.92 62.8956C113.514 62.5682 111.249 62.0707 111.438 60.2118C111.528 59.3416 112.434 58.7419 113.265 58.8683C113.607 58.9202 113.923 59.0839 114.164 59.327C114.271 59.374 114.38 59.4193 114.488 59.4615C115.211 59.6884 115.952 59.8504 116.689 60.0141C117.278 60.1405 117.866 60.2605 118.457 60.3674C119.316 60.5246 119.935 61.3122 119.801 62.1939C119.684 62.9539 118.994 63.5617 118.23 63.5617C118.146 63.5617 118.06 63.5536 117.974 63.5374Z" fill="#F4A672"/>
<path d="M106.839 30.6774C106.594 30.3387 106.491 29.9092 106.554 29.4959C106.62 29.06 106.86 28.7083 107.199 28.4393C107.387 28.2902 107.609 28.1751 107.815 28.0552C108.066 27.9109 108.315 27.7667 108.563 27.6241C108.946 27.4037 109.322 27.172 109.703 26.9467C111.907 25.5448 114.095 24.0992 116.209 22.5645C116.916 22.0508 117.935 22.2177 118.449 22.9243C118.963 23.6341 118.796 24.6502 118.089 25.164C116.657 26.2044 115.179 27.1833 113.707 28.167C112.958 28.6678 112.2 29.1524 111.438 29.6369C110.678 30.1199 109.886 30.5494 109.113 31.0129C109.101 31.021 109.092 31.029 109.08 31.0388C108.816 31.2478 108.497 31.3451 108.176 31.3451C107.662 31.3418 107.144 31.0971 106.839 30.6774Z" fill="#F4A672"/>
<path d="M92.278 15.1843C91.4078 15.1648 90.6882 14.4177 90.7125 13.5442C90.7352 12.7063 90.967 11.8798 91.1598 11.0679C91.2781 10.5736 91.3948 10.0777 91.5131 9.58339C91.7205 8.71474 91.9101 7.83957 92.1046 6.96767C92.0981 6.99685 92.0916 7.02604 92.0852 7.05521C92.0916 7.0228 92.0997 6.98876 92.1062 6.95635C92.1143 6.92232 92.1208 6.88825 92.1289 6.85422C92.1224 6.88501 92.1143 6.91418 92.1079 6.94497C92.3785 5.68736 92.6378 4.42653 92.8469 3.15434C92.9878 2.29216 93.803 1.67793 94.6733 1.81082C95.5306 1.94047 96.1578 2.77512 96.0184 3.63729C95.516 6.70839 94.7478 9.72597 94.0542 12.7565C93.9975 13.0353 93.9521 13.3141 93.9197 13.596C93.9197 13.6025 93.9197 13.609 93.9181 13.6171C93.8954 14.4777 93.1758 15.1843 92.3169 15.1843C92.304 15.1859 92.291 15.1843 92.278 15.1843Z" fill="#F4A672"/>
<path d="M48.3194 11.9899C47.723 11.964 47.2303 11.6383 46.8851 11.1586C46.5788 10.7323 46.3066 10.2834 46.0359 9.83452C45.5919 9.10524 45.1575 8.36943 44.7232 7.63529C43.8578 6.17348 42.9859 4.71654 42.0832 3.27742C41.9989 3.14615 41.9162 3.01328 41.832 2.88201C41.6035 2.52061 41.4803 2.13165 41.5468 1.70056C41.61 1.2792 41.8466 0.893477 42.1918 0.6439C42.8676 0.15447 43.9615 0.264698 44.4315 1.0037C46.0245 3.50596 47.4993 6.07628 49.0405 8.61094C49.1702 8.81352 49.2998 9.0161 49.4392 9.2122C49.7666 9.51201 49.9708 9.94145 49.9594 10.4228C49.9416 11.2606 49.2285 11.9899 48.3826 11.9899C48.3615 11.9899 48.3404 11.9899 48.3194 11.9899Z" fill="#F4A672"/>
<path d="M68.1716 10.7371C67.9171 9.96571 67.9447 9.09383 67.9414 8.28838C67.9366 7.51047 67.9365 6.73419 67.9365 5.95467C67.9365 4.49124 67.9463 3.02942 67.9317 1.56599C67.9236 0.69247 68.7209 -0.020613 69.5734 0.00045516C70.468 0.0215233 71.1292 0.767052 71.1389 1.64057C71.1649 4.14282 71.113 6.6467 71.1632 9.15057C71.1778 9.34667 71.1924 9.5395 71.2167 9.73397C71.22 9.75018 71.2232 9.76639 71.228 9.78259C71.2248 9.77287 71.2216 9.76314 71.2184 9.75341C71.22 9.76314 71.2216 9.77287 71.2216 9.78259C71.3901 10.5605 71.0238 11.3708 70.2411 11.669C70.0644 11.7355 69.8765 11.7679 69.6885 11.7679C69.0386 11.7663 68.3855 11.3821 68.1716 10.7371Z" fill="#F4A672"/>
</svg>
