<svg width="83" height="100" viewBox="0 0 83 100" fill="none" xmlns="http://www.w3.org/2000/svg">
<path d="M60.0007 47.0837C59.6974 47.0713 59.3912 47.0751 59.0908 47.0455C58.7435 47.011 58.3942 46.9766 58.0469 46.9421C57.7359 46.9115 57.4288 46.856 57.1207 46.8091C56.5629 46.7221 56.0146 46.6005 55.4644 46.4838C55.1506 46.4187 54.8415 46.3164 54.5325 46.2312C54.2942 46.1661 54.0588 46.1011 53.8263 46.0188C53.4886 45.8992 53.1518 45.7786 52.815 45.6581C52.5308 45.5576 52.2562 45.4236 51.9806 45.304C50.8774 44.8237 49.7943 44.2793 48.7484 43.6822C48.0624 43.2899 47.3955 42.8766 46.7534 42.4144C46.3784 42.1446 46.0234 41.8547 45.6694 41.5581C45.4569 41.381 45.235 41.2117 45.0321 41.0232C44.7642 40.7763 44.4972 40.5285 44.2293 40.2816C43.7624 39.8501 43.3213 39.3928 42.8745 38.9411C42.4956 38.5594 42.1588 38.1317 41.8057 37.725C41.5952 37.481 41.4134 37.2064 41.2201 36.949C41.0689 36.7471 40.913 36.55 40.7733 36.3405C40.2547 35.5645 39.737 34.7962 39.294 33.9723C38.5381 32.5658 38.1056 31.0215 37.8875 29.4465C37.7803 28.6801 37.7487 27.8946 37.8176 27.1224C37.8884 26.3215 38.1449 25.5618 38.5056 24.8471C38.8376 24.1907 39.228 23.5745 39.7064 23.0138C40.2575 22.367 40.9063 21.8091 41.5569 21.2657C42.1454 20.7739 42.7769 20.3519 43.4457 19.9739C44.193 19.552 45.0168 19.2544 45.8435 19.0315C47.4223 18.6047 49.0613 18.4698 50.6918 18.487C52.3786 18.5052 54.0694 18.7368 55.7113 19.1099C57.3197 19.4754 58.8774 20.0055 60.3634 20.7231C61.9144 21.4733 63.3582 22.4454 64.6662 23.564C66.0115 24.7131 67.2037 26.0527 68.2553 27.4726C68.8791 28.3146 69.4178 29.2179 69.8226 30.1823C69.9412 30.3259 70.058 30.4723 70.1709 30.6206C70.5249 31.0865 70.833 31.5697 71.1162 32.0816C71.3994 32.5926 71.6109 33.1456 71.8042 33.6958C71.9994 34.2536 72.1161 34.8459 72.1984 35.4296C72.2787 36.0065 72.2902 36.5797 72.2596 37.1605C72.229 37.7394 72.0979 38.3096 71.963 38.8703C71.8147 39.4808 71.5774 40.074 71.321 40.6472C71.0684 41.2117 70.7689 41.7466 70.456 42.2805C70.3144 42.5235 70.145 42.7637 69.9728 42.9856C69.7317 43.2966 69.4953 43.6038 69.2293 43.8927C68.704 44.4649 68.0936 44.9443 67.4286 45.3442C67.0047 45.5987 66.5607 45.8006 66.1101 46.0016C65.5522 46.2503 64.9715 46.4254 64.3887 46.6034C63.7735 46.79 63.1343 46.879 62.5009 46.9746C61.9153 47.0636 61.3173 47.0732 60.727 47.0866C60.594 47.0895 60.4629 47.0914 60.3308 47.0914C60.2227 47.0895 60.1117 47.0876 60.0007 47.0837ZM59.6869 44.8658C59.9443 44.8763 60.2036 44.8955 60.461 44.8897C60.727 44.8849 60.992 44.8792 61.258 44.8725C61.5699 44.8467 61.8819 44.8208 62.1938 44.795C62.4579 44.773 62.722 44.7185 62.9841 44.6754C62.9659 44.6783 62.9478 44.6811 62.9296 44.684C63.1985 44.6228 63.4683 44.5615 63.7371 44.5003C63.963 44.4314 64.1888 44.3625 64.4136 44.2936C64.6614 44.219 64.9016 44.1137 65.1437 44.0219C65.5255 43.8506 65.9034 43.6784 66.2689 43.4727C66.51 43.3244 66.7425 43.1665 66.9684 42.9952C67.1549 42.8402 67.3329 42.6785 67.507 42.5082C67.7683 42.2288 68.0027 41.9331 68.2381 41.6317C68.3596 41.4509 68.4811 41.271 68.6026 41.0911C68.7107 40.9313 68.8026 40.7581 68.8983 40.5888C69.0963 40.2003 69.282 39.8128 69.4599 39.4157C69.592 39.0646 69.7145 38.7134 69.8274 38.3546C69.8752 38.1613 69.9221 37.968 69.9575 37.7729C69.9996 37.5365 70.0321 37.3021 70.0608 37.0658C70.0742 36.8132 70.08 36.5644 70.078 36.3127C70.057 36.0573 70.0302 35.8066 69.9967 35.553C69.9441 35.2774 69.8857 35.0047 69.8197 34.7311C69.7164 34.3914 69.5996 34.0604 69.4676 33.7293C69.3202 33.4078 69.1624 33.0949 68.992 32.7839C68.9021 32.6433 68.8112 32.5046 68.7174 32.3677C68.4112 32.2615 68.1519 32.0271 68.0438 31.7046C68.0036 31.5822 67.9606 31.4607 67.9156 31.3391C67.7367 31.1334 67.5539 30.9315 67.3664 30.7344C67.109 30.4627 67.0363 30.0761 67.1253 29.7288C66.8066 29.2207 66.4603 28.7337 66.0938 28.2582C65.4795 27.485 64.8241 26.7512 64.1227 26.0555C63.5458 25.4987 62.943 24.9762 62.3076 24.4883C61.6513 24.0022 60.971 23.5582 60.261 23.1535C59.5472 22.7631 58.8152 22.4177 58.0612 22.1153C57.1857 21.7814 56.294 21.5144 55.385 21.2925C55.4328 21.3049 55.4797 21.3154 55.5266 21.3278C54.5621 21.0992 53.5881 20.9298 52.6035 20.814C51.6859 20.7203 50.7673 20.6772 49.845 20.6925C49.1513 20.7174 48.4643 20.7729 47.7782 20.8724C47.295 20.9518 46.8176 21.0494 46.3449 21.1757C45.9306 21.2982 45.5249 21.4369 45.1259 21.6005C44.8101 21.745 44.5039 21.9039 44.2025 22.077C43.8772 22.278 43.5615 22.4904 43.2572 22.721C42.7281 23.1449 42.2123 23.5879 41.732 24.0663C41.5072 24.3026 41.2919 24.5447 41.0919 24.803C40.934 25.0289 40.7905 25.2604 40.6537 25.4987C40.5159 25.7541 40.3848 26.0106 40.2681 26.2756C40.2011 26.4584 40.1437 26.6411 40.093 26.8277C40.0604 26.9808 40.0346 27.1339 40.0135 27.2879C39.9915 27.5635 39.9848 27.8372 39.9868 28.1137C40.0049 28.5854 40.0528 29.0523 40.1207 29.5193C40.204 30.0024 40.3102 30.479 40.4374 30.9516C40.5589 31.3573 40.6986 31.7525 40.8603 32.1438C41.0775 32.6299 41.3196 33.0987 41.5875 33.559C41.9234 34.1111 42.2889 34.644 42.6487 35.1818C42.9032 35.5626 43.1969 35.9204 43.4734 36.285C43.7873 36.6467 44.1011 37.0083 44.4159 37.37C44.5681 37.547 44.7479 37.7059 44.9125 37.8714C45.0828 38.0436 45.2531 38.2159 45.4235 38.3881C46.21 39.1134 46.9936 39.8406 47.8471 40.4883C48.4977 40.9629 49.1733 41.3887 49.8708 41.7896C50.4449 42.0977 51.0161 42.4077 51.6007 42.6948C51.8993 42.8421 52.1949 42.9962 52.5011 43.1282C52.8379 43.2746 53.1738 43.422 53.5115 43.5683C53.9096 43.7109 54.3086 43.8525 54.7066 43.9941C54.897 44.0621 55.1018 44.1032 55.296 44.1577C55.5027 44.2142 55.7094 44.2716 55.917 44.329C56.2978 44.4094 56.6796 44.4888 57.0604 44.5692C57.4383 44.6496 57.8287 44.6898 58.2115 44.7481C58.7023 44.796 59.1922 44.8467 59.6869 44.8658Z" fill="#F4A672"/>
<path d="M53.2465 32.3369C52.7546 32.0173 52.5824 31.3063 52.925 30.8126C53.7373 29.6443 54.6405 28.5421 55.584 27.4771C55.7945 27.2408 56.0193 27.0169 56.2385 26.7882C56.4662 26.5519 56.7083 26.3136 56.9599 26.1012C57.3455 25.7749 57.7407 25.3702 58.2239 25.198C58.4994 25.1004 58.8085 25.1166 59.0735 25.241C59.3472 25.3702 59.5271 25.595 59.6409 25.8677C59.8648 26.4045 59.5405 27.0398 59.0257 27.2561C58.9817 27.2857 58.9386 27.3164 58.8965 27.3489C58.5368 27.6541 58.1923 27.967 57.8488 28.2914C57.3732 28.7899 56.913 29.2989 56.4671 29.8261C56.049 30.3218 55.6462 30.8308 55.2539 31.3465C55.0912 31.5676 54.9295 31.7905 54.7726 32.0163C54.5525 32.333 54.1985 32.5129 53.8378 32.5129C53.634 32.5129 53.4311 32.4565 53.2465 32.3369Z" fill="#F4A672"/>
<path d="M56.6968 35.2696C56.2327 34.8706 56.2031 34.1817 56.581 33.7167C57.2364 32.9101 57.8909 32.1025 58.5444 31.2949C58.865 30.8988 59.1817 30.4989 59.508 30.1075C59.6783 29.9037 59.8457 29.6951 60.0208 29.4961C60.1261 29.3765 60.2313 29.2559 60.3366 29.1354C60.4696 28.9851 60.616 28.8187 60.7853 28.7058C61.2857 28.3757 61.9747 28.4914 62.3172 28.9928C62.6358 29.4597 62.5411 30.1295 62.0962 30.4759L62.0952 30.4768C61.3958 31.2308 60.7652 32.0499 60.1194 32.8488C59.4974 33.6171 58.8745 34.3855 58.2507 35.1529C58.045 35.4064 57.735 35.5318 57.423 35.5318C57.1618 35.5318 56.8996 35.4437 56.6968 35.2696Z" fill="#F4A672"/>
<path d="M54.8598 39.7839C54.2522 39.7074 53.6648 39.5619 53.084 39.3687C51.9616 38.9946 50.9378 38.3774 50.0432 37.61C49.1265 36.8226 48.3391 35.7949 47.8884 34.6706C47.4176 33.4957 47.2875 32.2508 47.4578 31.0003C47.5391 30.4061 47.7458 29.8291 47.9908 29.2856C48.1726 28.8809 48.4156 28.4589 48.8175 28.2417C49.3456 27.9576 50.0317 28.1958 50.2996 28.723C50.5177 29.1497 50.423 29.6444 50.1159 29.9755C50.0728 30.0406 50.0336 30.1075 49.9982 30.1783C50.0221 30.1353 50.046 30.0913 50.0709 30.0473C49.9982 30.1965 49.9293 30.3458 49.8642 30.4989C49.7982 30.6835 49.7408 30.8682 49.6901 31.0567C49.6566 31.2155 49.6308 31.3734 49.6078 31.5342C49.5896 31.7437 49.581 31.9513 49.5801 32.1618C49.5896 32.3714 49.6088 32.5781 49.6356 32.7847C49.671 32.9876 49.715 33.1876 49.7666 33.3866C49.8212 33.554 49.8805 33.7186 49.9446 33.8822C50.0279 34.065 50.1168 34.2439 50.2144 34.42C50.3513 34.641 50.4967 34.8534 50.6517 35.062C50.8335 35.2849 51.0249 35.4983 51.2268 35.704C51.4401 35.9059 51.6612 36.0963 51.8927 36.2781C52.1405 36.458 52.3941 36.6235 52.6582 36.7785C52.9242 36.9201 53.194 37.0484 53.4724 37.1661C53.7844 37.2837 54.0992 37.3852 54.4216 37.4713C54.6694 37.5277 54.9182 37.5717 55.1699 37.6052C55.389 37.6234 55.6062 37.6311 55.8262 37.6301C56.0626 37.6167 56.296 37.5947 56.5305 37.5631C56.8864 37.5 57.2356 37.4187 57.5849 37.3249C58.5235 37.0331 59.4564 36.7211 60.3654 36.3451C60.4429 36.3106 60.5204 36.2752 60.5979 36.2398C61.1414 35.9882 61.7988 36.17 62.0801 36.7202C62.3441 37.2397 62.1451 37.9497 61.5997 38.2023C60.7453 38.5975 59.8545 38.9008 58.9646 39.2012C58.2642 39.4366 57.5437 39.6375 56.8137 39.7457C56.43 39.8021 56.0434 39.8346 55.6569 39.8346C55.3899 39.8327 55.1239 39.8174 54.8598 39.7839Z" fill="#F4A672"/>
<path d="M39.2069 50.3443C38.671 50.328 38.1333 50.2936 37.5994 50.24C37.2846 50.2084 36.9698 50.1759 36.655 50.1443C36.3144 50.1099 35.9747 50.041 35.635 49.9893C35.1049 49.908 34.5749 49.7903 34.0524 49.6716C33.4592 49.5367 32.8698 49.4047 32.2842 49.2392C31.9503 49.1435 31.6154 49.0478 31.2815 48.9531C31.025 48.8803 30.7743 48.7837 30.5236 48.6985C29.9352 48.5005 29.3515 48.2957 28.7698 48.0785C27.635 47.6537 26.5088 47.2088 25.4046 46.7083C23.7684 45.9678 22.1504 45.1372 20.719 44.0426C19.8962 43.414 19.213 42.6227 18.5537 41.8295C18.5709 41.8496 18.5882 41.8697 18.6044 41.8898C18.4255 41.6697 18.3155 41.418 18.325 41.1272C18.3337 40.842 18.4552 40.5655 18.6609 40.3674C19.0733 39.9694 19.8273 39.9378 20.2186 40.3933C20.3038 40.4918 20.387 40.5923 20.4702 40.6928C20.8578 41.1387 21.2501 41.5731 21.6816 41.9768C21.9734 42.2294 22.2777 42.4629 22.5925 42.6858C23.4986 43.2973 24.4593 43.7967 25.4257 44.3C25.8591 44.4971 26.2935 44.6933 26.7279 44.8894C27.103 45.0588 27.4867 45.21 27.8684 45.365C28.6578 45.6865 29.4539 45.985 30.2519 46.2835C30.9992 46.5361 31.7417 46.7925 32.4995 47.0088C32.8564 47.1102 33.2123 47.225 33.574 47.3073C33.9644 47.3963 34.3557 47.4853 34.7461 47.5743C35.3001 47.6824 35.8513 47.7934 36.41 47.8776C36.9363 47.958 37.4616 48.0144 37.9907 48.068C38.8213 48.1197 39.6508 48.1646 40.4833 48.1713C41.3549 48.179 42.2256 48.1694 43.0973 48.1465C43.8561 48.1082 44.6158 48.068 45.3679 47.9675C46.1448 47.8652 46.9189 47.7494 47.692 47.6269C47.7226 47.6202 47.7523 47.6145 47.7829 47.6106C47.9054 47.5867 48.0317 47.5609 48.1561 47.5504C48.1723 47.5475 48.1886 47.5446 48.2049 47.5427C48.2097 47.5417 48.2144 47.5417 48.2202 47.5408C48.2527 47.535 48.2852 47.5293 48.3187 47.5236C48.2833 47.5293 48.2489 47.535 48.2135 47.5408C49.4516 47.3217 50.6802 47.0729 51.8867 46.715C52.967 46.3773 54.0501 46.006 55.0816 45.5391C55.1591 45.5027 55.2356 45.4654 55.3122 45.4272C55.8509 45.1631 56.5101 45.3219 56.8068 45.8663C57.0852 46.3754 56.9063 47.0949 56.3676 47.3599C55.4069 47.8326 54.3994 48.1924 53.389 48.5407C52.303 48.9148 51.1959 49.2018 50.0716 49.4334C49.8009 49.4898 49.5291 49.5396 49.2564 49.5903C49.1282 49.6133 49 49.6362 48.8718 49.6582C48.7436 49.6812 48.6125 49.7128 48.4804 49.7271C48.4584 49.7319 48.4355 49.7348 48.4135 49.7386C48.3379 49.752 48.2604 49.7635 48.1829 49.7759C48.1733 49.7778 48.1628 49.7788 48.1532 49.7807C47.5408 49.8831 46.9265 49.974 46.3123 50.0639C45.187 50.2295 44.0522 50.3232 42.9146 50.3529C42.3567 50.3682 41.798 50.3749 41.2401 50.3749C40.5627 50.3759 39.8853 50.3644 39.2069 50.3443Z" fill="#F4A672"/>
<path d="M19.5057 44.2073C19.1689 44.1575 18.879 44.0465 18.5795 43.8877C18.5556 43.8752 18.5317 43.8618 18.5087 43.8475C18.2906 43.77 18.0896 43.6523 17.9241 43.5011C17.4591 43.0753 17.2802 42.4505 17.3089 41.8353C17.3395 41.2028 17.6533 40.5522 18.0322 40.0565C18.4666 39.4891 19.0283 38.9351 19.7134 38.6844C20.321 38.4615 20.9726 38.3993 21.5859 38.6443C22.115 38.8538 22.5992 39.2518 22.8097 39.7953C23.0125 40.3206 23.0049 40.9024 22.913 41.4497C22.8585 41.7712 22.7274 42.0841 22.5829 42.3749C22.4202 42.7012 22.204 43.0112 21.9456 43.2696C21.7409 43.4734 21.5227 43.6657 21.272 43.813C21.0013 43.9738 20.7257 44.0742 20.4224 44.1594C20.2473 44.2082 20.0463 44.2312 19.8502 44.2312C19.7315 44.2312 19.6139 44.2226 19.5057 44.2073Z" fill="#F4A672"/>
<path d="M20.7192 43.1404C20.4302 43.1184 20.1652 43.017 19.9604 42.8045C19.7557 42.5931 19.6418 42.3013 19.6504 42.0066C19.6676 41.4286 20.1853 40.8909 20.7833 40.9378C21.9286 41.0268 23.0701 41.0469 24.2174 41.0134C25.4201 40.9617 26.6247 40.9033 27.8256 40.8105C28.968 40.7225 30.1057 40.5838 31.2376 40.4039C31.9237 40.2862 32.6078 40.1532 33.2823 39.9781C34.0095 39.7896 34.731 39.582 35.4553 39.381C36.8925 38.9801 38.3325 38.5945 39.7629 38.1668C40.0165 38.0769 40.271 37.9879 40.5246 37.8979C40.7188 37.83 40.9064 37.7401 41.0958 37.6559C41.4843 37.4588 41.8661 37.253 42.2488 37.0435C42.7741 36.7536 43.4563 36.9564 43.7434 37.4827C44.0314 38.0108 43.8304 38.6873 43.3042 38.9772C42.7664 39.2729 42.2297 39.5628 41.6661 39.8068C41.1389 40.0355 40.5935 40.2135 40.0433 40.38C38.9209 40.7168 37.79 41.0191 36.6619 41.332C35.5711 41.6344 34.4841 41.9549 33.3847 42.2228C32.2959 42.4869 31.185 42.6524 30.0751 42.7979C28.5767 42.995 27.0668 43.0744 25.5598 43.1538C24.7235 43.1978 23.8863 43.2303 23.0491 43.2399C22.984 43.2409 22.9189 43.2409 22.8548 43.2409C22.142 43.2409 21.4272 43.1949 20.7192 43.1404Z" fill="#F4A672"/>
<path d="M30.5649 70.0913C28.8656 65.6755 27.1663 61.2607 25.4679 56.8449C23.7724 52.4388 22.075 48.0326 20.3805 43.6254C18.6429 39.1092 16.9043 34.592 15.1657 30.0758C13.9592 26.9412 12.7411 23.8114 11.547 20.6711C11.5432 20.6625 11.5403 20.653 11.5375 20.6443C11.5355 20.6405 11.5336 20.6357 11.5327 20.6309C11.5336 20.6348 11.5355 20.6376 11.5365 20.6405C11.4399 20.3755 11.415 20.1085 11.5126 19.8358C11.6121 19.5593 11.8226 19.3316 12.0886 19.2091C12.6081 18.9699 13.3334 19.189 13.5497 19.7497C13.5631 19.7842 13.5765 19.8176 13.5889 19.8521C15.183 23.9837 16.7694 28.1181 18.3596 32.2506C20.0848 36.7324 21.81 41.2152 23.5332 45.6979C25.2383 50.1337 26.9462 54.5686 28.6542 59.0035C29.9574 62.3926 31.2625 65.7827 32.5666 69.1717C32.6728 69.4464 32.7034 69.7229 32.602 70.0051C32.5025 70.2817 32.292 70.5094 32.0251 70.6328C31.8854 70.6969 31.7304 70.7285 31.5744 70.7285C31.1515 70.7275 30.7219 70.4998 30.5649 70.0913Z" fill="#F4A672"/>
<path d="M12.2502 21.9382C11.8359 21.8464 11.4666 21.6847 11.0991 21.4684C10.8207 21.3039 10.5614 21.1125 10.3002 20.925C9.81221 20.5748 9.37398 20.1576 8.93671 19.75C8.54729 19.3873 8.15498 19.0237 7.78756 18.641C7.37708 18.2152 6.94555 17.8028 6.559 17.356C6.31118 17.0699 6.06336 16.7848 5.81554 16.4987C5.65288 16.3111 5.48256 16.1274 5.33043 15.9303C5.10462 15.6385 4.87976 15.3467 4.65395 15.0558C4.51712 14.8788 4.37551 14.7046 4.24921 14.52C3.78324 13.832 3.31152 13.1526 2.88956 12.436C2.18437 11.2419 1.65334 9.95205 1.25817 8.62302C1.04958 7.92358 0.847687 7.22414 0.727127 6.50174C0.641012 5.99079 0.616135 5.47794 0.617092 4.9603C0.618049 4.36323 0.64771 3.77096 0.750091 3.1806C0.857256 2.56057 1.07541 1.90514 1.44953 1.39132C1.82174 0.88133 2.32025 0.524445 2.89147 0.267059C3.18809 0.133103 3.53063 0.0871646 3.85021 0.0469779C4.19946 0.00200701 4.56114 0.0211415 4.90942 0.0508031C5.65957 0.113954 6.38198 0.336899 7.06803 0.64117C8.15977 1.12437 9.03814 1.97116 9.88302 2.79212C10.2763 3.17389 10.6418 3.57481 10.9652 4.01782C11.4226 4.64358 11.7957 5.33059 12.1163 6.03481C12.6329 7.16961 13.0109 8.36086 13.3879 9.54828C13.6826 10.4783 13.9476 11.416 14.1954 12.3614C14.4375 13.2847 14.6126 14.2262 14.7877 15.1639C14.8805 15.6624 14.958 16.1647 15.0346 16.6661C15.1073 17.1493 15.1752 17.6392 15.1762 18.1291C15.1781 18.6037 15.158 19.0783 15.0987 19.55C15.0346 20.0504 14.8336 20.548 14.6011 20.991C14.3638 21.4436 13.7936 21.6119 13.3257 21.4703C13.1257 21.7574 12.7966 21.9583 12.4464 21.9583C12.3823 21.9593 12.3162 21.9526 12.2502 21.9382ZM12.5956 19.7624C12.6444 19.7729 12.6913 19.7863 12.7372 19.8007C12.7612 19.7461 12.7832 19.6916 12.8042 19.6371C12.8406 19.528 12.8731 19.4189 12.9037 19.3079C12.9171 19.2304 12.9286 19.1539 12.9391 19.0754C12.965 18.7415 12.9736 18.4075 12.9736 18.0727C12.9353 17.4335 12.832 16.7991 12.7286 16.1666C12.5621 15.2117 12.3832 14.2597 12.1584 13.3172C11.9239 12.3393 11.6474 11.3758 11.3546 10.4152C10.9767 9.22582 10.6016 8.0317 10.0897 6.89116C9.89641 6.48547 9.68687 6.09318 9.45053 5.71044C9.27639 5.44445 9.09459 5.18706 8.89461 4.94115C8.49753 4.50101 8.06696 4.08958 7.63064 3.68771C7.35603 3.44468 7.07281 3.21599 6.77428 3.00262C6.6164 2.89928 6.45757 2.80265 6.29204 2.71271C6.11789 2.63042 5.94088 2.55579 5.76196 2.48594C5.57633 2.42375 5.39071 2.36825 5.20125 2.32041C5.0539 2.2917 4.90655 2.26778 4.75729 2.24768C4.56784 2.23429 4.3803 2.22758 4.18989 2.23046C4.10473 2.2362 4.01957 2.24481 3.93442 2.25725C3.86839 2.27064 3.80237 2.28596 3.73731 2.30318C3.7153 2.31083 3.69425 2.31945 3.67224 2.32806C3.62823 2.35102 3.58613 2.37494 3.54403 2.39982C3.48566 2.43809 3.43017 2.47924 3.37563 2.5223C3.34979 2.54622 3.32491 2.57014 3.30004 2.59502C3.27899 2.6199 3.25889 2.64477 3.23976 2.6706C3.21966 2.70505 3.19861 2.74044 3.17852 2.77489C3.13068 2.87727 3.08571 2.97871 3.04361 3.08396C3.00629 3.19973 2.97376 3.31551 2.94314 3.43415C2.90295 3.63796 2.87233 3.84081 2.84841 4.04652C2.81684 4.46944 2.81684 4.89044 2.81588 5.31432C2.83023 5.5851 2.85224 5.85397 2.88956 6.12284C3.02351 6.86055 3.23784 7.57625 3.45122 8.29387C3.65024 8.89189 3.87031 9.47747 4.12578 10.0535C4.43579 10.7108 4.78695 11.3414 5.16872 11.9604C5.47491 12.413 5.78205 12.8646 6.08728 13.3163C6.24803 13.5526 6.4413 13.7727 6.61545 13.9985C6.78576 14.2176 6.95416 14.4367 7.12448 14.6558C7.43258 15.0108 7.74068 15.3658 8.04878 15.7208C8.34157 16.0576 8.65827 16.3733 8.96733 16.6939C9.58544 17.3369 10.2313 17.9511 10.8839 18.5597C11.2254 18.8496 11.5709 19.1261 11.9325 19.3902C12.099 19.4964 12.2646 19.6007 12.4368 19.6973C12.4674 19.7107 12.498 19.7241 12.5286 19.7385C12.5899 19.7576 12.6521 19.7758 12.7152 19.7911C12.6741 19.7815 12.6329 19.772 12.5908 19.7634C12.5947 19.7624 12.5956 19.7624 12.5956 19.7624Z" fill="#F4A672"/>
<path d="M12.8962 21.0244C12.6656 20.8407 12.5153 20.5661 12.4857 20.2714C12.4283 19.6973 12.8722 19.0954 13.4712 19.0658C14.5821 19.0112 15.6901 18.906 16.801 18.8572C17.5808 18.8227 18.3596 18.7959 19.1366 18.7251C20.0714 18.639 21.0034 18.5204 21.9315 18.3835C22.8653 18.2209 23.7868 18.0295 24.7044 17.7932C26.109 17.3482 27.4591 16.7722 28.8044 16.1714C28.7958 16.1752 28.7872 16.179 28.7795 16.1828C28.7958 16.1752 28.812 16.1675 28.8283 16.1608C28.8015 16.1733 28.7757 16.1857 28.7489 16.1972C28.7345 16.2039 28.7192 16.2106 28.7049 16.2173C28.7508 16.1962 28.7977 16.1742 28.8436 16.1532C29.0608 16.0527 29.2771 15.9532 29.4942 15.8527C29.4914 15.8537 29.4885 15.8556 29.4856 15.8566C31.2615 15.0356 32.9522 14.0606 34.6095 13.0244C35.2247 12.6158 35.8304 12.1986 36.4332 11.7709C36.9747 11.3863 37.4828 10.9567 37.9918 10.5299C38.2406 10.3003 38.4894 10.0706 38.7382 9.84099C38.964 9.63241 39.1707 9.40084 39.384 9.17982C39.7323 8.77795 40.0768 8.378 40.3906 7.94743C40.516 7.76085 40.6356 7.57139 40.7475 7.37812C40.5628 7.40204 40.3782 7.425 40.1935 7.44796C39.5974 7.52164 38.9994 7.57235 38.4004 7.62402C37.1967 7.72545 35.9873 7.76085 34.7798 7.80295C33.5656 7.846 32.3523 7.78477 31.139 7.7331C30.9305 7.72353 30.7219 7.69674 30.5133 7.67761C30.0904 7.63933 29.6655 7.60106 29.2416 7.56279C28.6312 7.50825 28.0236 7.40682 27.416 7.32071C26.3262 7.16762 25.2402 6.96763 24.1609 6.74469C22.9419 6.49209 21.7172 6.24715 20.5087 5.94287C19.393 5.66157 18.2793 5.37739 17.1713 5.06642C15.957 4.72483 14.7467 4.37081 13.5363 4.01487C12.5689 3.73069 11.593 3.48192 10.6112 3.25419C9.553 3.02168 8.48805 2.81501 7.41544 2.65905C6.8911 2.58346 6.36771 2.51073 5.84529 2.42271C5.40227 2.34807 4.95639 2.24187 4.50955 2.19403C4.55452 2.19785 4.60045 2.20264 4.64543 2.20647L4.64447 2.2055C4.35359 2.17871 4.09238 2.08495 3.88475 1.87062C3.67998 1.65916 3.56612 1.36733 3.57474 1.07263C3.59196 0.502359 4.1096 -0.0516483 4.70857 0.00384765C5.1468 0.0449912 5.57833 0.143551 6.01273 0.217227C6.56004 0.309082 7.1083 0.389456 7.65752 0.468873C8.82963 0.639188 9.99505 0.85638 11.149 1.12142C13.4463 1.64959 15.6939 2.36147 17.9616 2.99967C19.6217 3.4666 21.2961 3.8656 22.9763 4.2512C23.9887 4.4617 24.9981 4.67221 26.0152 4.85497C26.4822 4.93821 26.95 5.03102 27.4208 5.098C28.038 5.18507 28.6561 5.27119 29.2732 5.35826C30.1114 5.43481 30.9486 5.519 31.7897 5.55536C32.2298 5.5745 32.6738 5.60894 33.1158 5.60894C33.6249 5.60799 34.1339 5.60703 34.642 5.60703C35.8131 5.56493 36.9805 5.51038 38.1497 5.43288C39.2941 5.35729 40.4308 5.19847 41.5656 5.04442C41.8249 5.00902 42.11 4.9851 42.3645 5.06356C42.6229 5.14298 42.8171 5.25397 43.0037 5.44916C43.485 5.95054 43.396 6.67006 43.2085 7.27478C42.998 7.95699 42.62 8.59329 42.2162 9.17696C41.9062 9.62571 41.5579 10.0362 41.202 10.4457C40.4203 11.348 39.518 12.123 38.6052 12.8856C38.3306 13.1152 38.0368 13.3353 37.744 13.543C37.4273 13.7688 37.1163 14.0013 36.792 14.2166C36.1098 14.6701 35.4285 15.1265 34.7233 15.5466C33.3082 16.3895 31.8653 17.1789 30.3688 17.8697C30.3707 17.8688 30.3726 17.8678 30.3755 17.8669C30.1602 17.9664 29.9449 18.0659 29.7296 18.1654C29.7335 18.1635 29.7373 18.1616 29.7421 18.1596C29.7258 18.1673 29.7095 18.174 29.6942 18.1817C29.6904 18.1836 29.6856 18.1855 29.6818 18.1874L29.6847 18.1864C28.6264 18.6744 27.549 19.1366 26.4515 19.5317C25.8497 19.748 25.2431 19.9288 24.625 20.0886C24.0863 20.2273 23.538 20.3269 22.9936 20.4331C21.8042 20.6617 20.5957 20.7928 19.3921 20.9134C18.4113 21.011 17.4248 21.0215 16.4412 21.0789C15.5246 21.1325 14.6108 21.2119 13.6951 21.2569C13.6702 21.2579 13.6453 21.2588 13.6205 21.2588C13.3554 21.2598 13.1076 21.1918 12.8962 21.0244Z" fill="#F4A672"/>
<path d="M41.5703 70.6607C40.9761 70.6426 40.4766 70.1278 40.5015 69.5279C40.5943 67.2458 40.8153 64.9695 40.9924 62.6932C41.1732 60.3576 41.3225 58.0182 41.5263 55.6835C41.7224 53.4187 41.9387 51.1577 42.1807 48.8968C42.4027 46.8367 42.6869 44.7853 42.8936 42.7243C42.9347 42.1282 42.9835 41.5321 42.973 40.9331C42.9682 40.847 42.9605 40.7618 42.9491 40.6766C42.9443 40.6546 42.9395 40.6336 42.9338 40.6126C42.9376 40.625 42.9414 40.6384 42.9452 40.6508C42.8084 40.1121 43.0763 39.5361 43.6131 39.3314C44.1642 39.1209 44.834 39.4031 45.035 39.9686C45.2416 40.5504 45.1756 41.2077 45.1613 41.8143C45.1498 42.2813 45.101 42.752 45.0541 43.218C44.9488 44.2791 44.8216 45.3383 44.6895 46.3966C44.4379 48.4203 44.2226 50.4487 44.0198 52.4782C43.8054 54.8243 43.6131 57.1695 43.4418 59.5185C43.2706 61.8455 43.0849 64.1725 42.8993 66.4995C42.818 67.5291 42.7443 68.5596 42.7022 69.591C42.6783 70.1795 42.1922 70.6607 41.6019 70.6607C41.5923 70.6607 41.5818 70.6607 41.5703 70.6607Z" fill="#F4A672"/>
<path d="M65.2356 73.2489C64.6788 73.2097 64.1228 73.1733 63.5669 73.1398C62.4139 73.07 61.2524 73.0432 60.0975 73.0556C59.664 73.0594 59.2296 73.0757 58.7962 73.0901C56.4299 73.1876 54.0647 73.2652 51.6955 73.2202C49.358 73.1762 47.0176 73.091 44.6839 72.9331C44.2151 72.9016 43.7481 72.8585 43.2793 72.8154C43.0764 72.7963 42.8736 72.7772 42.6688 72.7599C42.376 72.7341 42.0584 72.7399 41.7771 72.6537C41.5627 72.5887 41.3417 72.5083 41.1657 72.3657C40.9265 72.1725 40.7533 71.9591 40.6231 71.6787C40.427 71.2596 40.383 70.7965 40.3849 70.3401C40.3868 69.8301 40.4624 69.323 40.5141 68.8178C40.5332 68.6006 40.5514 68.3844 40.5686 68.1672C40.5906 67.8773 40.692 67.6122 40.9035 67.4075C41.1159 67.2027 41.4077 67.0888 41.7024 67.0974C42.2813 67.1156 42.8171 67.6323 42.7712 68.2303C42.731 68.769 42.6765 69.3048 42.6181 69.8416C42.6009 70.055 42.5904 70.2674 42.5875 70.4817C42.5885 70.5037 42.5904 70.5258 42.5923 70.5468C43.5376 70.63 44.483 70.7181 45.4312 70.7745C46.5191 70.8386 47.608 70.8951 48.6988 70.9324C51.0774 71.0147 53.4561 71.0616 55.8357 70.9994C56.0329 70.9946 56.23 70.9889 56.4271 70.9841C58.0221 70.9209 59.6181 70.831 61.215 70.8568C61.9805 70.8693 62.746 70.8999 63.5114 70.9315C64.0319 70.9535 64.5496 70.9984 65.0691 71.0357C65.049 70.8846 65.027 70.7334 65.0069 70.5822C64.9409 70.0904 64.872 69.5976 64.8031 69.1058C64.6682 68.1442 64.518 67.1874 64.3601 66.2296C64.3678 66.2765 64.3754 66.3243 64.3831 66.3712C64.1697 65.135 63.9669 63.8978 63.7832 62.6559C63.6061 61.456 63.4712 60.2494 63.3296 59.0448C63.0627 56.7915 62.9421 54.5219 62.7641 52.2599C62.6799 51.1883 62.5881 50.1176 62.4895 49.0469C62.4493 48.6001 62.4092 48.1532 62.3699 47.7064C62.3498 47.4873 62.3336 47.2672 62.3163 47.0481C62.3096 46.9591 62.3029 46.872 62.2963 46.784C62.2838 46.6089 62.2513 46.4242 62.2647 46.251C62.302 45.7592 62.6168 45.3229 63.1143 45.211V45.21C63.6999 45.0789 64.3008 45.4435 64.4395 46.031C64.4577 46.1075 64.4663 46.185 64.4673 46.2625C64.5544 47.471 64.6682 48.6776 64.7792 49.8841C64.8835 51.018 64.9668 52.1537 65.05 53.2904C65.1342 54.4453 65.2012 55.605 65.315 56.758C65.4394 58.0334 65.5782 59.305 65.7293 60.5776C65.8997 62.0215 66.1217 63.4586 66.358 64.8929C66.3503 64.846 66.3427 64.7982 66.335 64.7513C66.5388 65.933 66.7407 67.1147 66.912 68.3021C67.0708 69.4053 67.2354 70.5095 67.3588 71.6165C67.4172 72.1533 67.3014 72.6968 66.8441 73.0336C66.5666 73.2374 66.2403 73.2881 65.9073 73.2881C65.6796 73.2881 65.4519 73.2642 65.2356 73.2489Z" fill="#F4A672"/>
<path d="M79.5153 89.2732C78.4618 89.1307 77.638 88.3509 77.0151 87.5366C76.8314 87.2974 76.6534 87.0601 76.486 86.8085C76.2937 86.5224 76.1233 86.2257 75.9511 85.9263C75.8105 85.6813 75.6861 85.4153 75.5741 85.1551C75.4411 84.8489 75.3091 84.5436 75.1895 84.2317C75.046 83.8586 74.9225 83.4777 74.7962 83.0969C74.7082 83.1907 74.6202 83.2854 74.5321 83.3782C74.1207 83.8126 73.7016 84.2375 73.272 84.6556C71.7478 86.1377 69.9355 87.3596 67.8707 87.9279C66.3436 88.348 64.6845 88.2791 63.1995 87.7337C61.7748 87.2094 60.4888 86.3291 59.4353 85.2412C58.3474 84.1179 57.513 82.7467 56.8002 81.366C56.3361 80.4676 55.9582 79.5337 55.5764 78.5998C55.1851 77.6401 54.8645 76.6594 54.6368 75.648C54.4837 74.9687 54.3498 74.2826 54.2503 73.5928C54.1766 73.0847 54.1278 72.4513 54.4694 72.0216C54.7555 71.66 55.2109 71.5346 55.6511 71.6427C56.2213 71.7844 56.5466 72.4254 56.4069 72.9737C56.4232 73.2282 56.4577 73.4799 56.4988 73.7325C56.5754 74.1707 56.6624 74.607 56.76 75.0414C56.8557 75.4653 56.9648 75.8815 57.0786 76.2987C57.2298 76.7283 57.3705 77.1636 57.5427 77.5846C57.8231 78.2716 58.0996 78.9586 58.4067 79.6332C58.7732 80.4111 59.1798 81.167 59.6353 81.8971C59.9549 82.3879 60.2936 82.8606 60.6658 83.3132C60.8983 83.5811 61.1394 83.8375 61.3978 84.0815C61.6743 84.3264 61.9633 84.5551 62.2637 84.7723C62.5488 84.9637 62.8416 85.1417 63.143 85.3072C63.4195 85.4459 63.6999 85.5713 63.9879 85.6813C64.2137 85.7559 64.4386 85.8201 64.6692 85.8775C64.8959 85.9205 65.1217 85.955 65.3504 85.9798C65.581 85.9942 65.8097 85.998 66.0403 85.9932C66.2709 85.9779 66.4996 85.954 66.7282 85.9224C67.0306 85.8669 67.3272 85.7971 67.6219 85.711C67.9425 85.6048 68.2554 85.4833 68.5635 85.3464C68.95 85.157 69.3241 84.9493 69.6896 84.7226C70.2015 84.3839 70.6733 84.0078 71.145 83.6193C71.6664 83.1438 72.1745 82.6597 72.6625 82.1497C73.1658 81.6244 73.6499 81.0761 74.1772 80.5738C74.5168 80.2513 74.9819 80.1212 75.4096 80.2111C75.6583 80.0753 75.9588 80.0322 76.2487 80.1145C77.3711 80.4341 78.4322 80.8991 79.4388 81.4875C79.9143 81.765 80.3487 82.1095 80.7601 82.474C81.4883 83.1189 82.1054 83.9313 82.3112 84.8977C82.491 85.7387 82.3073 86.5721 82.0413 87.3701C81.8605 87.9088 81.5792 88.4341 81.1314 88.7967C80.7506 89.1048 80.2664 89.2905 79.7756 89.2905C79.6885 89.2905 79.6024 89.2847 79.5153 89.2732ZM79.7478 87.0831L79.7516 87.0792C79.7631 87.0649 79.7746 87.0505 79.787 87.0362C79.8014 87.0142 79.8138 86.9922 79.8272 86.9692C79.8703 86.8783 79.9095 86.7865 79.9468 86.6927C80.0157 86.4841 80.0789 86.2755 80.1344 86.0631C80.1478 85.9875 80.1593 85.9119 80.1688 85.8354C80.1736 85.7492 80.1765 85.6641 80.1774 85.578C80.1717 85.4957 80.164 85.4144 80.1535 85.333C80.1449 85.2948 80.1363 85.2565 80.1258 85.2192C80.1076 85.1665 80.0875 85.1139 80.0664 85.0622C80.0387 85.0058 80.009 84.9513 79.9765 84.8977C79.9047 84.7915 79.8291 84.69 79.7497 84.5896C79.6119 84.4374 79.4732 84.291 79.3278 84.1466C79.0924 83.9428 78.8532 83.7514 78.6015 83.5677C78.3154 83.384 78.0255 83.2146 77.727 83.0529C77.4792 82.9304 77.2304 82.8147 76.9788 82.7056C77.1682 83.2529 77.3816 83.7887 77.6112 84.3217C77.6954 84.4929 77.7806 84.6642 77.8657 84.8355C77.9547 85.0173 78.0657 85.1914 78.169 85.3665C78.3681 85.6612 78.5719 85.9473 78.7891 86.2296C78.9632 86.4315 79.1374 86.6295 79.3297 86.8151C79.39 86.8668 79.4522 86.9166 79.5163 86.9644C79.5507 86.9864 79.5861 87.0084 79.6215 87.0285C79.654 87.0438 79.6866 87.0591 79.7191 87.0735C79.7048 87.0687 79.6894 87.063 79.6741 87.0572C79.677 87.0582 79.6799 87.0601 79.6827 87.062C79.7038 87.0697 79.7248 87.0764 79.7478 87.0831Z" fill="#F4A672"/>
<path d="M26.4572 99.4507C25.974 99.1484 25.552 98.6403 25.3549 98.1045C25.2305 97.7667 25.1492 97.4318 25.1262 97.0711C25.1061 96.7726 25.1377 96.475 25.1961 96.1822C25.4707 94.8139 26.6294 93.8925 27.8436 93.3538C28.5191 93.0534 29.2779 92.9156 30.0089 92.8601C30.54 92.8189 31.0691 92.8467 31.5973 92.8984C32.0527 92.9433 32.5063 93.0017 32.9598 93.0543C32.9311 92.2228 32.9234 91.3914 32.9282 90.5589C32.9349 89.3447 33.0756 88.1248 33.2956 86.9326C33.5281 85.6762 33.8898 84.463 34.396 83.289C34.7031 82.5752 35.0734 81.8863 35.4686 81.2174C35.659 80.8969 35.8743 80.5897 36.081 80.2797C36.7699 79.2397 37.5401 78.2599 38.3123 77.2801C39.0481 76.3453 39.8375 75.4516 40.6202 74.555C41.0172 74.0996 41.4507 73.6728 41.8688 73.2365C42.2956 72.7897 42.7759 72.3869 43.26 72.0041C43.6983 71.6568 44.2063 71.2808 44.7737 71.1994C44.9307 71.1736 45.0943 71.1813 45.2569 71.2282C45.8272 71.3956 46.1784 72.0214 46.0033 72.5955C45.8808 72.9945 45.5545 73.2786 45.1584 73.3657C45.1278 73.3829 45.0981 73.4011 45.0684 73.4183C44.8025 73.5963 44.5498 73.7886 44.302 73.9915C43.8963 74.3398 43.5107 74.7053 43.1414 75.0918C42.885 75.3597 42.6285 75.6276 42.3721 75.8956C42.0085 76.3118 41.6459 76.728 41.2823 77.1442C40.8986 77.5844 40.535 78.0436 40.1628 78.4914C39.4729 79.3229 38.8376 80.1974 38.1994 81.0682C38.0272 81.3294 37.854 81.5887 37.6817 81.8499C37.3727 82.3159 37.0933 82.7972 36.8321 83.2918C36.5508 83.8516 36.2982 84.4209 36.0781 85.0074C35.8762 85.5825 35.7078 86.1652 35.5681 86.7594C35.4973 87.1431 35.4255 87.5277 35.3547 87.9104C35.2906 88.2597 35.2648 88.6204 35.2227 88.9735C35.1691 89.7083 35.1318 90.4393 35.127 91.1761C35.1232 91.8153 35.1404 92.4563 35.1624 93.0945C35.1681 93.2247 35.1739 93.3548 35.1796 93.4849C35.1902 93.7117 35.215 93.9461 35.1787 94.1719C35.1471 94.369 35.0772 94.5489 34.972 94.7068C34.9663 94.8379 34.9385 94.9689 34.884 95.0952C34.6696 95.5957 34.4056 96.0731 34.1309 96.5429C33.8315 97.0577 33.4937 97.562 33.0851 97.9983C32.356 98.7771 31.5083 99.4421 30.4586 99.7244C29.8539 99.887 29.2052 99.9999 28.5651 99.9999C27.8254 100.002 27.0954 99.8507 26.4572 99.4507ZM28.6455 97.7964C28.8799 97.783 29.1124 97.7572 29.3449 97.7218C29.5334 97.6854 29.719 97.6433 29.9056 97.5945C30.0453 97.5476 30.1812 97.495 30.317 97.4366C30.3945 97.3974 30.4711 97.3553 30.5457 97.3103C30.6845 97.2156 30.8174 97.118 30.9485 97.0127C31.1351 96.8453 31.3121 96.6702 31.4853 96.4884C31.6097 96.3401 31.7283 96.1908 31.8451 96.0377C32.0278 95.766 32.2001 95.4875 32.3627 95.2043C32.29 95.1957 32.2182 95.1871 32.1465 95.1775C31.7829 95.1287 31.4183 95.0905 31.0528 95.0551C31.0834 95.0579 31.1131 95.0618 31.1437 95.0637C30.8777 95.0484 30.6146 95.0407 30.3496 95.0455C30.1371 95.0579 29.9266 95.078 29.7161 95.1058C29.4999 95.145 29.2875 95.1929 29.0751 95.2512C28.8942 95.3115 28.7172 95.3766 28.5421 95.4512C28.4225 95.5124 28.3058 95.5775 28.191 95.6454C28.0752 95.7248 27.9632 95.8081 27.8532 95.8942C27.769 95.9688 27.6886 96.0444 27.6102 96.1238C27.5757 96.1659 27.5422 96.208 27.5097 96.2521C27.4886 96.2846 27.4686 96.3181 27.4494 96.3516C27.4303 96.3965 27.4102 96.4406 27.3901 96.4846C27.3757 96.5286 27.3623 96.5726 27.3509 96.6185C27.3403 96.6721 27.3317 96.7266 27.325 96.7812C27.3222 96.8319 27.3202 96.8826 27.3202 96.9333C27.3231 96.9783 27.3279 97.0232 27.3336 97.0673C27.3442 97.1103 27.3556 97.1534 27.3662 97.1955C27.3805 97.2338 27.3939 97.2711 27.4083 97.3094C27.4245 97.3409 27.4418 97.3725 27.4599 97.4031C27.4762 97.4261 27.4925 97.4481 27.5087 97.471C27.5327 97.4969 27.5575 97.5227 27.5824 97.5476C27.6035 97.5648 27.6255 97.583 27.6475 97.5993C27.6752 97.6174 27.7039 97.6347 27.7336 97.6509C27.7747 97.6682 27.8149 97.6854 27.8551 97.7026C27.9049 97.7189 27.9546 97.7323 28.0044 97.7447C28.0752 97.7591 28.1469 97.7715 28.2187 97.7801C28.3622 97.7906 28.5029 97.7964 28.6455 97.7964Z" fill="#F4A672"/>
<path d="M69.3775 49.89C68.6925 49.622 68.0629 49.2613 67.4534 48.8528C66.9128 48.4911 66.397 48.0911 65.9062 47.6663C65.4852 47.3017 65.0843 46.9152 64.7628 46.4588C64.4173 45.9689 64.5044 45.28 64.9953 44.9183C65.4708 44.5681 66.1894 44.659 66.5358 45.1508C66.5913 45.2292 66.6487 45.3048 66.708 45.3795C66.8525 45.5412 67.0056 45.6943 67.1644 45.8416C67.6294 46.2502 68.1174 46.6281 68.6216 46.9869C68.9604 47.2118 69.3048 47.4213 69.6627 47.6146C69.8665 47.7084 70.0693 47.7954 70.2779 47.8777C70.4664 47.9371 70.6539 47.9954 70.8463 48.0433C71.007 48.0748 71.1687 48.0997 71.3314 48.1189C71.517 48.1313 71.7007 48.1361 71.8863 48.1332C72.0873 48.1198 72.2873 48.0988 72.4863 48.0701C72.6336 48.0404 72.7781 48.0079 72.9245 47.9696C73.0403 47.9313 73.1541 47.8892 73.268 47.8433C73.3713 47.7926 73.4718 47.74 73.5732 47.6816C73.667 47.6184 73.7579 47.5524 73.8488 47.4835C73.9311 47.4108 74.0105 47.3352 74.088 47.2577C74.1645 47.1687 74.2382 47.0788 74.309 46.985C74.3722 46.8884 74.4315 46.7917 74.4889 46.6913C74.5674 46.5315 74.6391 46.3698 74.7061 46.2043C74.8965 45.6407 75.0554 45.0742 75.1998 44.4954C75.2984 44.0016 75.3874 43.5089 75.4668 43.0113C75.5453 42.5195 75.5864 42.0201 75.6333 41.5235C75.6668 41.0269 75.6964 40.5322 75.7137 40.0356C75.7309 39.5686 75.7271 39.1046 75.7261 38.6377C75.7127 38.3209 75.6983 38.0042 75.6859 37.6875C75.6706 37.3335 75.6266 36.9776 75.5969 36.6235C75.5357 35.8877 75.4161 35.1539 75.3099 34.4238C75.2046 33.8449 75.0975 33.2689 74.9664 32.6967C74.8286 32.092 74.665 31.4969 74.5014 30.8998C74.3071 30.2855 74.11 29.676 73.889 29.0713C73.6651 28.4608 73.4106 27.8666 73.1541 27.2686C72.9953 26.9471 72.8365 26.6256 72.6776 26.3042C72.537 26.0209 72.381 25.7482 72.2279 25.4717C71.8921 24.8689 71.5323 24.2853 71.1687 23.6987C70.6214 22.894 70.076 22.0893 69.4828 21.3162C69.168 20.9067 68.8522 20.4981 68.5374 20.0886C68.238 19.6992 67.9155 19.3251 67.6026 18.9442C67.2553 18.5663 66.908 18.1883 66.5606 17.8104C66.3989 17.6353 66.2114 17.4774 66.0382 17.3128C65.8593 17.1425 65.6794 16.9713 65.4995 16.801C64.802 16.1934 64.0997 15.5953 63.3888 15.0031C62.6893 14.4194 61.9573 13.8817 61.2101 13.3621C61.2187 13.3678 61.2282 13.3745 61.2368 13.3803C61.2158 13.3659 61.1947 13.3516 61.1737 13.3363C61.1555 13.3238 61.1383 13.3114 61.1201 13.299C61.1278 13.3047 61.1364 13.3105 61.144 13.3162C60.3145 12.7488 59.4437 12.2369 58.5549 11.7671C57.9205 11.4666 57.2823 11.1796 56.6335 10.9145C56.0489 10.7098 55.4586 10.5395 54.8548 10.3979C54.0358 10.2209 53.2148 10.0716 52.3824 9.9759C52.0322 9.94719 51.6848 9.93093 51.3327 9.93284C51.0495 9.94911 50.7701 9.97686 50.4907 10.018C50.2448 10.0687 50.0018 10.1261 49.7587 10.1931C49.5444 10.2629 49.332 10.3357 49.1244 10.4237C49.0344 10.4706 48.9464 10.5203 48.8593 10.572C48.7809 10.6265 48.7034 10.683 48.6258 10.7404C48.5445 10.8141 48.467 10.8897 48.3924 10.9691C48.3388 11.0361 48.2871 11.1021 48.2364 11.17C48.1293 11.3355 48.0307 11.5049 47.9379 11.679C47.8575 11.8455 47.7829 12.012 47.7159 12.1833C47.6374 12.412 47.5724 12.6416 47.514 12.876C47.3982 13.4243 47.316 13.9745 47.2528 14.5314C47.2078 15.0356 47.1753 15.536 47.1858 16.0422C47.2002 16.2785 47.2184 16.5129 47.2499 16.7474C47.3112 17.0899 47.3915 17.4258 47.4891 17.7597C47.5312 17.8898 47.5753 18.018 47.6269 18.1453C47.6556 18.2017 47.6853 18.2582 47.7178 18.3127C47.7216 18.3175 47.7255 18.3223 47.7283 18.328C47.7341 18.3338 47.7389 18.3386 47.7446 18.3443C47.7484 18.3472 47.7523 18.351 47.7561 18.3539C47.7752 18.3587 47.7934 18.3644 47.8125 18.3692C48.3924 18.5252 48.7244 19.1701 48.5589 19.7355C48.3866 20.3211 47.7714 20.6378 47.1925 20.4828C46.9724 20.4235 46.7677 20.346 46.5773 20.2187C46.2233 19.9805 45.9429 19.6666 45.7381 19.2916C45.4492 18.7586 45.2932 18.1501 45.1621 17.5626C44.9028 16.401 44.9641 15.2126 45.0932 14.0395C45.2119 12.9583 45.408 11.8417 45.8893 10.8571C46.1544 10.3156 46.4625 9.81993 46.8691 9.37405C47.3322 8.86502 47.9685 8.48804 48.6105 8.25744C49.2019 8.04598 49.797 7.90246 50.4161 7.802C50.995 7.70823 51.592 7.71874 52.1757 7.75127C53.3009 7.81634 54.4233 8.0412 55.5198 8.29476C56.0566 8.41819 56.5895 8.56362 57.1081 8.74925C57.6526 8.94539 58.1846 9.17026 58.7108 9.41042C59.7681 9.89362 60.7871 10.4514 61.7593 11.0896C62.2626 11.4207 62.7697 11.7489 63.2519 12.1087C63.76 12.4857 64.2547 12.8751 64.7484 13.2693C65.6555 13.9946 66.5444 14.7591 67.3854 15.558C67.6332 15.7934 67.8811 16.0288 68.1289 16.2642C68.3461 16.4708 68.5394 16.7101 68.7422 16.9301C68.9307 17.1358 69.1278 17.3358 69.3039 17.5511C69.5373 17.8372 69.7698 18.1214 70.0033 18.4075C70.7487 19.3193 71.4443 20.2685 72.1399 21.2177C72.3073 21.4463 72.4604 21.6884 72.6212 21.9228C72.7819 22.1601 72.9475 22.3955 73.0986 22.6395C73.4249 23.1667 73.755 23.6891 74.0564 24.2317C74.2057 24.4986 74.354 24.7665 74.5033 25.0325C74.6755 25.3406 74.8181 25.6688 74.975 25.9855C75.2496 26.5405 75.4821 27.1146 75.7251 27.6839C75.8371 27.9442 75.9222 28.2197 76.0198 28.4857C76.1088 28.7268 76.1959 28.967 76.2734 29.211C76.4791 29.8626 76.6772 30.5113 76.858 31.1696C77.1699 32.3035 77.3929 33.4612 77.5622 34.6247C77.6493 35.2189 77.7393 35.816 77.789 36.4149C77.8436 37.0599 77.8876 37.7 77.9144 38.3458C77.9632 39.4959 77.9239 40.6594 77.8148 41.8048C77.7574 42.3999 77.7 42.996 77.6053 43.5873C77.5029 44.2265 77.3766 44.858 77.2216 45.4876C77.0513 46.1794 76.8398 46.8712 76.5375 47.517C75.9624 48.7456 74.8879 49.6603 73.5981 50.0622C73.0039 50.2478 72.3829 50.3377 71.7629 50.3377C70.9477 50.3397 70.1344 50.1856 69.3775 49.89Z" fill="#F4A672"/>
<path d="M76.6505 35.7843C76.1223 35.4657 75.9855 34.7968 76.2754 34.2725C76.308 34.2122 76.3405 34.1529 76.373 34.0926C76.6151 33.6094 76.8141 33.1109 77.0017 32.6047C77.2897 31.7924 77.5346 30.9724 77.7423 30.1352C77.9097 29.3716 78.0456 28.6062 78.1451 27.8311C78.1834 27.3833 78.2044 26.9422 78.2015 26.4935C78.1719 26.1758 78.1355 25.862 78.0905 25.5462C78.0389 25.2515 77.9843 24.9587 77.9183 24.6659C77.8552 24.3923 77.7786 24.1244 77.7002 23.8555C77.5576 23.4517 77.4064 23.0575 77.2428 22.6623C77.0447 22.2614 76.8447 21.8672 76.6113 21.4845C76.4218 21.1965 76.2219 20.9209 76.0047 20.654C75.8372 20.4655 75.664 20.2856 75.4822 20.1124C75.1904 19.856 74.8871 19.6168 74.5713 19.39C74.247 19.1699 73.9169 18.968 73.5714 18.7824C73.2499 18.6236 72.9237 18.4781 72.5888 18.3471C72.361 18.2705 72.1343 18.194 71.9066 18.1174C71.6817 18.0418 71.4444 17.993 71.2129 17.9356C70.9727 17.8878 70.7316 17.8399 70.4905 17.793C70.2474 17.7442 69.9967 17.7213 69.7499 17.6878C69.4102 17.6629 69.0753 17.6457 68.7347 17.6419C68.4256 17.6562 68.1204 17.6773 67.8142 17.7232C67.6659 17.749 67.5147 17.772 67.3654 17.7395C67.0784 17.6773 66.8296 17.5472 66.6517 17.306C66.4775 17.0707 66.4048 16.7693 66.4498 16.4793C66.5311 15.9722 67.0066 15.5378 67.5262 15.5435C68.041 15.468 68.5538 15.4373 69.0772 15.4421C69.3537 15.444 69.6284 15.4708 69.9049 15.4909C70.2139 15.5148 70.5326 15.555 70.8368 15.6153C71.4234 15.7311 72.0243 15.8335 72.5917 16.0239C72.9916 16.1588 73.3906 16.2918 73.7819 16.4506C74.5369 16.7597 75.2507 17.1721 75.9138 17.6438C76.5347 18.0858 77.1127 18.5796 77.6169 19.1527C77.8753 19.4474 78.1087 19.7603 78.3269 20.0856C78.5355 20.3966 78.7421 20.7209 78.9077 21.0577C79.1861 21.6261 79.4521 22.1925 79.6617 22.7906C80.0607 23.9301 80.2893 25.107 80.3984 26.3079C80.4338 26.7002 80.4041 27.103 80.386 27.4953C80.3668 27.9067 80.3123 28.3248 80.2482 28.7315C80.12 29.5592 79.9516 30.3763 79.7487 31.1906C79.5583 31.9551 79.3076 32.7052 79.0359 33.4429C78.7871 34.1175 78.5115 34.7758 78.1642 35.4054C77.9728 35.7508 77.5968 35.9335 77.2189 35.9335C77.0198 35.9374 76.8227 35.8876 76.6505 35.7843Z" fill="#F4A672"/>
</svg>
