<svg width="69" height="63" viewBox="0 0 69 63" fill="none" xmlns="http://www.w3.org/2000/svg">
<circle cx="41" cy="32.9999" r="27" fill="#F8ECAE"/>
<mask id="path-2-outside-1_3429_2051" maskUnits="userSpaceOnUse" x="0" y="6.72327" width="62" height="57" fill="black">
<rect fill="white" y="6.72327" width="62" height="57"/>
<path d="M31.7308 62.6791C31.1583 62.6551 30.5857 62.632 30.0132 62.6079C29.84 62.6006 29.6659 62.5747 29.4937 62.5572C29.125 62.5221 28.7564 62.486 28.3877 62.45C27.9399 62.4066 27.5014 62.3336 27.0583 62.2616C26.6086 62.1877 26.1543 62.1277 25.7112 62.0224C25.1601 61.8922 24.609 61.7629 24.0578 61.6308C23.853 61.5818 23.6519 61.5144 23.4499 61.4534C23.098 61.3482 22.748 61.2419 22.3961 61.1367C21.9827 61.012 21.5796 60.8633 21.1737 60.7173C20.7324 60.5576 20.2874 60.4089 19.8545 60.2288C19.2839 59.9905 18.715 59.7513 18.1462 59.5139C18.0168 59.4594 17.8921 59.3938 17.7664 59.3338C17.4303 59.1731 17.0961 59.0115 16.76 58.8498C16.3588 58.6568 15.9696 58.4462 15.5777 58.2338C15.17 58.014 14.7613 57.7978 14.3628 57.5605C13.8843 57.2751 13.4058 56.9879 12.9264 56.7043C12.7597 56.6064 12.6024 56.4882 12.4432 56.3801C12.1378 56.176 11.8325 55.971 11.528 55.7659C11.1668 55.523 10.827 55.2561 10.4826 54.9901C10.2201 54.7869 9.95658 54.5846 9.69405 54.3815C9.58978 54.3002 9.48459 54.2217 9.38591 54.133C8.92322 53.7165 8.46053 53.2999 7.99691 52.8843C7.64222 52.5657 7.32571 52.1999 6.99615 51.8554C6.81275 51.6633 6.62841 51.4712 6.44501 51.2791C6.33423 51.1646 6.23834 51.0353 6.13687 50.9124C5.74773 50.4423 5.34835 49.9787 4.97783 49.4938C4.12321 48.3753 3.35236 47.182 2.737 45.9167C2.44747 45.32 2.2045 44.7031 2.01551 44.0676C1.80698 43.3712 1.64684 42.661 1.50813 41.948C1.2456 40.593 1.0473 39.2298 1.00634 37.849C0.964447 36.4405 1.13389 35.0441 1.4048 33.6642C1.51279 33.1147 1.65895 32.5697 1.78649 32.0248C1.90007 31.5399 2.05553 31.0643 2.19424 30.5868C2.25941 30.3651 2.32367 30.1416 2.38977 29.9199C2.44469 29.7324 2.52288 29.5477 2.58804 29.363C2.75934 28.8837 2.91296 28.3923 3.11125 27.9222C3.34306 27.3717 3.57394 26.8222 3.80575 26.2717C3.85602 26.1516 3.9156 26.0362 3.97332 25.9198C4.13344 25.5929 4.29356 25.2641 4.45368 24.9371C4.64918 24.5372 4.86239 24.152 5.07838 23.7632C5.30367 23.3587 5.52058 22.9468 5.76449 22.5533C6.09033 22.0296 6.41614 21.5059 6.74105 20.9823C6.98031 20.5962 7.26333 20.2304 7.52493 19.8582C7.69343 19.6181 7.86194 19.377 8.03137 19.1369C8.27622 18.7878 8.54525 18.4562 8.8115 18.1246C9.68474 17.0366 10.6539 16.0207 11.7021 15.0989C12.7402 14.1864 13.8731 13.3838 15.0424 12.6468C16.235 11.8959 17.4825 11.23 18.7681 10.6509C20.0566 10.069 21.3897 9.5915 22.748 9.19805C23.3838 9.01425 24.0243 8.85079 24.6694 8.70393C25.2355 8.57555 25.8089 8.44625 26.3833 8.36128C26.9931 8.27076 27.602 8.18209 28.2108 8.09158C28.4566 8.05556 28.7033 8.01955 28.9491 7.98353C29.4825 7.9041 30.0234 7.86161 30.5606 7.8182C31.2495 7.76186 31.9393 7.736 32.6301 7.72768C33.2194 7.72029 33.8189 7.7166 34.4054 7.7637C35.0189 7.81266 35.6324 7.86253 36.2459 7.91148C37.2328 7.99091 38.2084 8.16454 39.1868 8.31047C39.3181 8.32987 39.4484 8.36497 39.5788 8.39268C39.9363 8.46933 40.2947 8.546 40.6521 8.62266C41.0571 8.70855 41.4621 8.79167 41.8615 8.90066C42.2869 9.01795 42.7124 9.13433 43.1378 9.25255C43.378 9.31905 43.6266 9.37262 43.8612 9.45574C44.2419 9.59058 44.6227 9.72728 45.0035 9.86213C45.2706 9.95726 45.5406 10.0459 45.8022 10.1577C46.1932 10.3248 46.5852 10.4929 46.9762 10.661C47.5115 10.891 48.031 11.1505 48.5365 11.4378C49.2877 11.8645 50.0083 12.3448 50.6302 12.9442C51.0677 13.3653 51.5025 13.8881 51.6179 14.4986C51.6449 14.6418 51.6384 14.784 51.6021 14.9179C51.819 14.9161 52.0341 14.9872 52.197 15.1423C52.385 15.3215 52.5712 15.5016 52.7565 15.6827C52.8198 15.7436 52.8822 15.8046 52.9445 15.8664C53.0358 15.956 53.1382 16.0428 53.222 16.1417C53.2518 16.1703 53.2816 16.1999 53.3113 16.2294C53.6344 16.5508 53.9537 16.8769 54.2693 17.2066C54.9266 17.8919 55.5363 18.6188 56.1191 19.3669C56.714 20.1298 57.2409 20.9342 57.7157 21.7747C58.2007 22.6318 58.6281 23.5101 59.0172 24.4144C59.4091 25.3241 59.7219 26.268 60.0003 27.2166C60.274 28.1466 60.5021 29.0905 60.6799 30.0437C60.8661 31.0504 61.0066 32.0627 61.1332 33.0786C61.3725 34.9997 61.4861 36.931 61.3511 38.8631C61.3139 39.4044 61.2832 39.9502 61.205 40.4878C61.1305 40.9883 61.0476 41.4852 60.9555 41.984C60.8689 42.4458 60.7646 42.9057 60.6594 43.3638C60.6119 43.5716 60.5644 43.7785 60.5076 43.9845C60.4369 44.2376 60.3782 44.498 60.2963 44.7483C60.1353 45.2397 59.9714 45.7282 59.7908 46.2141C59.6046 46.7128 59.3952 47.2005 59.1866 47.69C59.1094 47.8692 59.0163 48.0419 58.9287 48.2164C58.8152 48.4418 58.709 48.6708 58.5815 48.8897C58.3301 49.322 58.0844 49.7542 57.8051 50.168C57.6757 50.3583 57.5556 50.5605 57.4159 50.7434C57.2251 50.9928 57.0343 51.2431 56.8425 51.4934C56.5343 51.897 56.2001 52.2821 55.8743 52.6709C55.5801 53.021 55.2589 53.3507 54.9526 53.6897C54.7953 53.8642 54.6203 54.0268 54.4555 54.1949C54.2628 54.3907 54.0757 54.5967 53.8736 54.7841C53.6958 54.9495 53.518 55.1139 53.3402 55.2783C53.1605 55.4436 52.9883 55.6209 52.8012 55.7761C52.6029 55.9414 52.4027 56.1058 52.2035 56.2702C51.9959 56.442 51.7939 56.6249 51.5751 56.7837C51.1692 57.0793 50.7642 57.3748 50.3583 57.6695C50.1712 57.8052 49.9636 57.9198 49.7691 58.0435C49.5242 58.1996 49.2784 58.3548 49.0327 58.5118C48.8614 58.6199 48.6761 58.7113 48.4992 58.8083C48.1957 58.9754 47.8913 59.1435 47.5887 59.3107C47.1624 59.5453 46.709 59.7365 46.2696 59.9443C45.8302 60.153 45.3786 60.3285 44.9271 60.5095C44.6925 60.6037 44.4579 60.697 44.2233 60.7912C44.0195 60.8725 43.8035 60.9298 43.5949 60.9991C43.1276 61.1524 42.664 61.3094 42.1873 61.4341C41.7079 61.5597 41.2294 61.7019 40.7434 61.8016C40.4166 61.8681 40.0917 61.9365 39.765 62.003C39.5881 62.039 39.4112 62.0815 39.2324 62.1101C38.6711 62.1979 38.1097 62.2847 37.5493 62.3724C37.0149 62.4556 36.4703 62.4925 35.9322 62.5479C35.4723 62.5969 35.0115 62.6135 34.5497 62.6384C34.087 62.6634 33.629 62.6782 33.1663 62.6809C32.8638 62.6828 32.5612 62.6902 32.2577 62.6902C32.0817 62.6892 31.9067 62.6865 31.7308 62.6791ZM29.6641 60.746C30.0672 60.7848 30.4665 60.8032 30.8715 60.8199C31.3091 60.8383 31.7485 60.8679 32.186 60.866C32.6971 60.8623 33.2101 60.8596 33.7221 60.8568C34.3049 60.8254 34.8886 60.7949 35.4705 60.7635C35.7684 60.7469 36.0691 60.7007 36.366 60.6693C36.6584 60.6379 36.9497 60.6065 37.2402 60.577C37.6666 60.5105 38.0948 60.443 38.5212 60.3765C38.8685 60.322 39.2092 60.2537 39.5527 60.1835C39.9353 60.1041 40.3226 60.0394 40.7006 59.9397C41.1502 59.8215 41.6008 59.7032 42.0514 59.585C42.5709 59.4132 43.0913 59.2433 43.6107 59.0715C43.8798 58.9828 44.1423 58.8591 44.4049 58.7538C44.6413 58.6586 44.8778 58.5644 45.1152 58.4702C45.6225 58.2301 46.1299 57.9909 46.6373 57.7507C46.8617 57.6445 47.0767 57.5088 47.2945 57.3896C47.5422 57.2529 47.7889 57.1171 48.0365 56.9805C48.4666 56.708 48.8967 56.4346 49.3268 56.1603C49.5261 56.0328 49.7132 55.8795 49.904 55.7401C50.0977 55.5988 50.2913 55.4584 50.4849 55.318C50.8517 55.0141 51.2195 54.7112 51.5872 54.4064C51.751 54.2706 51.9028 54.1145 52.0601 53.9705C52.2556 53.7894 52.4521 53.6084 52.6476 53.4265C53.0823 52.9859 53.5171 52.5472 53.9332 52.0882C54.139 51.861 54.3503 51.6384 54.5477 51.4038C54.7851 51.1202 55.0234 50.8358 55.2617 50.5513C55.4321 50.3287 55.6024 50.1052 55.7728 49.8835C55.9162 49.696 56.0465 49.4993 56.1787 49.3035C56.3137 49.104 56.4552 48.9073 56.5771 48.6985C56.7224 48.4482 56.8685 48.1989 57.0138 47.9486C57.1767 47.6207 57.3415 47.2928 57.5053 46.965C57.5807 46.8135 57.6394 46.65 57.7055 46.4948C57.7734 46.3351 57.8414 46.1753 57.9094 46.0155C58.0713 45.5823 58.2343 45.1519 58.3786 44.7123C58.5266 44.2607 58.656 43.8072 58.7826 43.3491C58.9045 42.8189 59.0209 42.2878 59.1308 41.7559C59.236 41.2414 59.317 40.7242 59.3933 40.2061C59.4557 39.6039 59.5078 39.0026 59.5395 38.3976C59.5711 37.7945 59.5804 37.1942 59.5776 36.5911C59.5422 35.7599 59.4836 34.936 59.4035 34.1085C59.3253 33.2938 59.2145 32.482 59.1 31.6729C58.9995 31.056 58.8952 30.4399 58.7668 29.8276C58.6383 29.218 58.4875 28.6149 58.3274 28.0127C58.1877 27.5389 58.0481 27.066 57.8861 26.5996C57.7148 26.1055 57.5305 25.6187 57.3359 25.1338C57.132 24.66 56.9225 24.189 56.6879 23.73C56.4375 23.2386 56.1731 22.7583 55.8957 22.2827C55.5335 21.6787 55.1388 21.1023 54.7162 20.5399C54.2944 20.0005 53.8625 19.4703 53.4026 18.9623C52.9334 18.4442 52.4446 17.9445 51.9503 17.4504C51.9661 17.4661 51.981 17.4809 51.9968 17.4957C51.9754 17.4744 51.954 17.4532 51.9326 17.4319C51.9261 17.4255 51.9195 17.4181 51.9121 17.4116C51.9158 17.4153 51.9205 17.4199 51.9242 17.4236C51.9168 17.4162 51.9093 17.4088 51.9019 17.4015C51.8851 17.3858 51.8684 17.3701 51.8535 17.3534C51.8386 17.3387 51.8227 17.323 51.8078 17.3082C51.8004 17.3008 51.7929 17.2943 51.7855 17.2869C51.522 17.0283 51.2576 16.7716 50.9905 16.5167C50.7344 16.2719 50.6264 15.9219 50.7084 15.5995C50.295 15.5894 49.904 15.2966 49.8249 14.8773C49.8231 14.8653 49.8202 14.8532 49.8174 14.8412C49.8137 14.8311 49.8091 14.8218 49.8053 14.8117C49.7932 14.7895 49.7821 14.7674 49.77 14.7452C49.743 14.7018 49.7132 14.6593 49.6834 14.6187C49.5875 14.4995 49.4879 14.3878 49.3818 14.2778C49.1891 14.095 48.988 13.9241 48.7776 13.7606C48.4005 13.4863 48.0077 13.2369 47.6036 13.0042C47.0925 12.7234 46.5703 12.4722 46.035 12.2422C45.6859 12.0926 45.3358 11.943 44.9867 11.7924C44.6627 11.677 44.3387 11.5625 44.0148 11.447C43.7495 11.3528 43.4841 11.2392 43.2123 11.1644C42.5159 10.9723 41.8187 10.7811 41.1214 10.589C40.3729 10.4311 39.6262 10.2657 38.8768 10.1087C38.7744 10.0866 38.6674 10.0773 38.5631 10.0616C38.2959 10.0219 38.0278 9.98218 37.7606 9.94247C37.378 9.88521 36.9954 9.82795 36.6127 9.77161C36.0867 9.72912 35.5617 9.68664 35.0357 9.64508C34.789 9.62476 34.5423 9.60536 34.2956 9.58504C34.0591 9.56565 33.8199 9.56565 33.5834 9.55918C33.1887 9.54902 32.7939 9.54809 32.3983 9.55271C31.3547 9.5758 30.3157 9.66078 29.2786 9.77623C28.6158 9.87413 27.953 9.97111 27.2892 10.069C26.0492 10.2519 24.824 10.5197 23.6156 10.8476C22.437 11.1783 21.2808 11.5735 20.1497 12.0409C19.0567 12.5055 17.9963 13.0347 16.9658 13.6221C15.9603 14.2077 14.9856 14.8422 14.0575 15.5423C13.3257 16.1066 12.6285 16.7078 11.9684 17.3534C11.1678 18.1588 10.4305 19.0159 9.73689 19.9118C9.50136 20.2231 9.28351 20.5482 9.05822 20.8677C8.81338 21.2169 8.56853 21.565 8.32275 21.9142C8.13284 22.1848 7.97085 22.4785 7.79676 22.7593C7.59846 23.0779 7.40016 23.3965 7.20187 23.7161C6.96447 24.1428 6.72803 24.5695 6.49064 24.9962C6.28676 25.3629 6.10613 25.7388 5.9218 26.1156C5.73561 26.4971 5.54198 26.8739 5.37814 27.2655C5.1817 27.7338 4.9834 28.2011 4.78697 28.6703C4.57192 29.2716 4.35688 29.8719 4.14276 30.4732C4.04408 30.7493 3.97612 31.0403 3.89419 31.322C3.79924 31.6461 3.70521 31.9703 3.61026 32.2945C3.51437 32.7073 3.41752 33.1211 3.32163 33.5349C3.16058 34.2248 3.03304 34.9184 2.94553 35.6213C2.87385 36.2891 2.83383 36.9559 2.83848 37.6274C2.85803 38.4189 2.92506 39.2058 3.03491 39.9899C3.209 41.1287 3.42405 42.2611 3.72475 43.374C3.84112 43.7748 3.97611 44.1655 4.13344 44.5534C4.382 45.1288 4.66596 45.6867 4.98155 46.2298C5.46379 47.0314 5.99164 47.8017 6.55766 48.548C6.97007 49.0477 7.38434 49.5455 7.79582 50.0461C7.85633 50.119 7.92803 50.1837 7.99413 50.252C8.16356 50.4294 8.33299 50.6067 8.50242 50.784C8.72027 51.0112 8.9372 51.2394 9.15504 51.4657C9.66428 51.9256 10.1763 52.3819 10.6855 52.8418C10.7535 52.9037 10.8335 52.9563 10.9062 53.0127C11.0989 53.1605 11.2897 53.3092 11.4824 53.4569C11.7459 53.6601 12.0084 53.8642 12.2728 54.0674C12.8286 54.4406 13.3844 54.8137 13.9411 55.1868C14.1999 55.3614 14.481 55.5092 14.7501 55.6689C15.0275 55.8352 15.3059 56.0014 15.5852 56.1668C16.0385 56.4106 16.491 56.6572 16.9434 56.9029C17.3251 57.1088 17.7208 57.2889 18.1118 57.4774C18.4851 57.6565 18.8538 57.8376 19.2355 57.9974C19.7354 58.2061 20.2344 58.4167 20.7343 58.6254C21.3618 58.8507 21.9883 59.0761 22.6158 59.3024C22.9109 59.4095 23.2209 59.4853 23.5216 59.5758C23.84 59.6718 24.1602 59.7679 24.4786 59.8639C25.0772 60.0071 25.6758 60.1466 26.2744 60.2897C26.3694 60.3119 26.469 60.322 26.5649 60.3377C26.7799 60.3728 26.9959 60.4089 27.2119 60.444C27.5443 60.4994 27.8757 60.5539 28.208 60.6084C28.6921 60.6508 29.1781 60.698 29.6641 60.746Z"/>
</mask>
<path d="M31.7308 62.6791C31.1583 62.6551 30.5857 62.632 30.0132 62.6079C29.84 62.6006 29.6659 62.5747 29.4937 62.5572C29.125 62.5221 28.7564 62.486 28.3877 62.45C27.9399 62.4066 27.5014 62.3336 27.0583 62.2616C26.6086 62.1877 26.1543 62.1277 25.7112 62.0224C25.1601 61.8922 24.609 61.7629 24.0578 61.6308C23.853 61.5818 23.6519 61.5144 23.4499 61.4534C23.098 61.3482 22.748 61.2419 22.3961 61.1367C21.9827 61.012 21.5796 60.8633 21.1737 60.7173C20.7324 60.5576 20.2874 60.4089 19.8545 60.2288C19.2839 59.9905 18.715 59.7513 18.1462 59.5139C18.0168 59.4594 17.8921 59.3938 17.7664 59.3338C17.4303 59.1731 17.0961 59.0115 16.76 58.8498C16.3588 58.6568 15.9696 58.4462 15.5777 58.2338C15.17 58.014 14.7613 57.7978 14.3628 57.5605C13.8843 57.2751 13.4058 56.9879 12.9264 56.7043C12.7597 56.6064 12.6024 56.4882 12.4432 56.3801C12.1378 56.176 11.8325 55.971 11.528 55.7659C11.1668 55.523 10.827 55.2561 10.4826 54.9901C10.2201 54.7869 9.95658 54.5846 9.69405 54.3815C9.58978 54.3002 9.48459 54.2217 9.38591 54.133C8.92322 53.7165 8.46053 53.2999 7.99691 52.8843C7.64222 52.5657 7.32571 52.1999 6.99615 51.8554C6.81275 51.6633 6.62841 51.4712 6.44501 51.2791C6.33423 51.1646 6.23834 51.0353 6.13687 50.9124C5.74773 50.4423 5.34835 49.9787 4.97783 49.4938C4.12321 48.3753 3.35236 47.182 2.737 45.9167C2.44747 45.32 2.2045 44.7031 2.01551 44.0676C1.80698 43.3712 1.64684 42.661 1.50813 41.948C1.2456 40.593 1.0473 39.2298 1.00634 37.849C0.964447 36.4405 1.13389 35.0441 1.4048 33.6642C1.51279 33.1147 1.65895 32.5697 1.78649 32.0248C1.90007 31.5399 2.05553 31.0643 2.19424 30.5868C2.25941 30.3651 2.32367 30.1416 2.38977 29.9199C2.44469 29.7324 2.52288 29.5477 2.58804 29.363C2.75934 28.8837 2.91296 28.3923 3.11125 27.9222C3.34306 27.3717 3.57394 26.8222 3.80575 26.2717C3.85602 26.1516 3.9156 26.0362 3.97332 25.9198C4.13344 25.5929 4.29356 25.2641 4.45368 24.9371C4.64918 24.5372 4.86239 24.152 5.07838 23.7632C5.30367 23.3587 5.52058 22.9468 5.76449 22.5533C6.09033 22.0296 6.41614 21.5059 6.74105 20.9823C6.98031 20.5962 7.26333 20.2304 7.52493 19.8582C7.69343 19.6181 7.86194 19.377 8.03137 19.1369C8.27622 18.7878 8.54525 18.4562 8.8115 18.1246C9.68474 17.0366 10.6539 16.0207 11.7021 15.0989C12.7402 14.1864 13.8731 13.3838 15.0424 12.6468C16.235 11.8959 17.4825 11.23 18.7681 10.6509C20.0566 10.069 21.3897 9.5915 22.748 9.19805C23.3838 9.01425 24.0243 8.85079 24.6694 8.70393C25.2355 8.57555 25.8089 8.44625 26.3833 8.36128C26.9931 8.27076 27.602 8.18209 28.2108 8.09158C28.4566 8.05556 28.7033 8.01955 28.9491 7.98353C29.4825 7.9041 30.0234 7.86161 30.5606 7.8182C31.2495 7.76186 31.9393 7.736 32.6301 7.72768C33.2194 7.72029 33.8189 7.7166 34.4054 7.7637C35.0189 7.81266 35.6324 7.86253 36.2459 7.91148C37.2328 7.99091 38.2084 8.16454 39.1868 8.31047C39.3181 8.32987 39.4484 8.36497 39.5788 8.39268C39.9363 8.46933 40.2947 8.546 40.6521 8.62266C41.0571 8.70855 41.4621 8.79167 41.8615 8.90066C42.2869 9.01795 42.7124 9.13433 43.1378 9.25255C43.378 9.31905 43.6266 9.37262 43.8612 9.45574C44.2419 9.59058 44.6227 9.72728 45.0035 9.86213C45.2706 9.95726 45.5406 10.0459 45.8022 10.1577C46.1932 10.3248 46.5852 10.4929 46.9762 10.661C47.5115 10.891 48.031 11.1505 48.5365 11.4378C49.2877 11.8645 50.0083 12.3448 50.6302 12.9442C51.0677 13.3653 51.5025 13.8881 51.6179 14.4986C51.6449 14.6418 51.6384 14.784 51.6021 14.9179C51.819 14.9161 52.0341 14.9872 52.197 15.1423C52.385 15.3215 52.5712 15.5016 52.7565 15.6827C52.8198 15.7436 52.8822 15.8046 52.9445 15.8664C53.0358 15.956 53.1382 16.0428 53.222 16.1417C53.2518 16.1703 53.2816 16.1999 53.3113 16.2294C53.6344 16.5508 53.9537 16.8769 54.2693 17.2066C54.9266 17.8919 55.5363 18.6188 56.1191 19.3669C56.714 20.1298 57.2409 20.9342 57.7157 21.7747C58.2007 22.6318 58.6281 23.5101 59.0172 24.4144C59.4091 25.3241 59.7219 26.268 60.0003 27.2166C60.274 28.1466 60.5021 29.0905 60.6799 30.0437C60.8661 31.0504 61.0066 32.0627 61.1332 33.0786C61.3725 34.9997 61.4861 36.931 61.3511 38.8631C61.3139 39.4044 61.2832 39.9502 61.205 40.4878C61.1305 40.9883 61.0476 41.4852 60.9555 41.984C60.8689 42.4458 60.7646 42.9057 60.6594 43.3638C60.6119 43.5716 60.5644 43.7785 60.5076 43.9845C60.4369 44.2376 60.3782 44.498 60.2963 44.7483C60.1353 45.2397 59.9714 45.7282 59.7908 46.2141C59.6046 46.7128 59.3952 47.2005 59.1866 47.69C59.1094 47.8692 59.0163 48.0419 58.9287 48.2164C58.8152 48.4418 58.709 48.6708 58.5815 48.8897C58.3301 49.322 58.0844 49.7542 57.8051 50.168C57.6757 50.3583 57.5556 50.5605 57.4159 50.7434C57.2251 50.9928 57.0343 51.2431 56.8425 51.4934C56.5343 51.897 56.2001 52.2821 55.8743 52.6709C55.5801 53.021 55.2589 53.3507 54.9526 53.6897C54.7953 53.8642 54.6203 54.0268 54.4555 54.1949C54.2628 54.3907 54.0757 54.5967 53.8736 54.7841C53.6958 54.9495 53.518 55.1139 53.3402 55.2783C53.1605 55.4436 52.9883 55.6209 52.8012 55.7761C52.6029 55.9414 52.4027 56.1058 52.2035 56.2702C51.9959 56.442 51.7939 56.6249 51.5751 56.7837C51.1692 57.0793 50.7642 57.3748 50.3583 57.6695C50.1712 57.8052 49.9636 57.9198 49.7691 58.0435C49.5242 58.1996 49.2784 58.3548 49.0327 58.5118C48.8614 58.6199 48.6761 58.7113 48.4992 58.8083C48.1957 58.9754 47.8913 59.1435 47.5887 59.3107C47.1624 59.5453 46.709 59.7365 46.2696 59.9443C45.8302 60.153 45.3786 60.3285 44.9271 60.5095C44.6925 60.6037 44.4579 60.697 44.2233 60.7912C44.0195 60.8725 43.8035 60.9298 43.5949 60.9991C43.1276 61.1524 42.664 61.3094 42.1873 61.4341C41.7079 61.5597 41.2294 61.7019 40.7434 61.8016C40.4166 61.8681 40.0917 61.9365 39.765 62.003C39.5881 62.039 39.4112 62.0815 39.2324 62.1101C38.6711 62.1979 38.1097 62.2847 37.5493 62.3724C37.0149 62.4556 36.4703 62.4925 35.9322 62.5479C35.4723 62.5969 35.0115 62.6135 34.5497 62.6384C34.087 62.6634 33.629 62.6782 33.1663 62.6809C32.8638 62.6828 32.5612 62.6902 32.2577 62.6902C32.0817 62.6892 31.9067 62.6865 31.7308 62.6791ZM29.6641 60.746C30.0672 60.7848 30.4665 60.8032 30.8715 60.8199C31.3091 60.8383 31.7485 60.8679 32.186 60.866C32.6971 60.8623 33.2101 60.8596 33.7221 60.8568C34.3049 60.8254 34.8886 60.7949 35.4705 60.7635C35.7684 60.7469 36.0691 60.7007 36.366 60.6693C36.6584 60.6379 36.9497 60.6065 37.2402 60.577C37.6666 60.5105 38.0948 60.443 38.5212 60.3765C38.8685 60.322 39.2092 60.2537 39.5527 60.1835C39.9353 60.1041 40.3226 60.0394 40.7006 59.9397C41.1502 59.8215 41.6008 59.7032 42.0514 59.585C42.5709 59.4132 43.0913 59.2433 43.6107 59.0715C43.8798 58.9828 44.1423 58.8591 44.4049 58.7538C44.6413 58.6586 44.8778 58.5644 45.1152 58.4702C45.6225 58.2301 46.1299 57.9909 46.6373 57.7507C46.8617 57.6445 47.0767 57.5088 47.2945 57.3896C47.5422 57.2529 47.7889 57.1171 48.0365 56.9805C48.4666 56.708 48.8967 56.4346 49.3268 56.1603C49.5261 56.0328 49.7132 55.8795 49.904 55.7401C50.0977 55.5988 50.2913 55.4584 50.4849 55.318C50.8517 55.0141 51.2195 54.7112 51.5872 54.4064C51.751 54.2706 51.9028 54.1145 52.0601 53.9705C52.2556 53.7894 52.4521 53.6084 52.6476 53.4265C53.0823 52.9859 53.5171 52.5472 53.9332 52.0882C54.139 51.861 54.3503 51.6384 54.5477 51.4038C54.7851 51.1202 55.0234 50.8358 55.2617 50.5513C55.4321 50.3287 55.6024 50.1052 55.7728 49.8835C55.9162 49.696 56.0465 49.4993 56.1787 49.3035C56.3137 49.104 56.4552 48.9073 56.5771 48.6985C56.7224 48.4482 56.8685 48.1989 57.0138 47.9486C57.1767 47.6207 57.3415 47.2928 57.5053 46.965C57.5807 46.8135 57.6394 46.65 57.7055 46.4948C57.7734 46.3351 57.8414 46.1753 57.9094 46.0155C58.0713 45.5823 58.2343 45.1519 58.3786 44.7123C58.5266 44.2607 58.656 43.8072 58.7826 43.3491C58.9045 42.8189 59.0209 42.2878 59.1308 41.7559C59.236 41.2414 59.317 40.7242 59.3933 40.2061C59.4557 39.6039 59.5078 39.0026 59.5395 38.3976C59.5711 37.7945 59.5804 37.1942 59.5776 36.5911C59.5422 35.7599 59.4836 34.936 59.4035 34.1085C59.3253 33.2938 59.2145 32.482 59.1 31.6729C58.9995 31.056 58.8952 30.4399 58.7668 29.8276C58.6383 29.218 58.4875 28.6149 58.3274 28.0127C58.1877 27.5389 58.0481 27.066 57.8861 26.5996C57.7148 26.1055 57.5305 25.6187 57.3359 25.1338C57.132 24.66 56.9225 24.189 56.6879 23.73C56.4375 23.2386 56.1731 22.7583 55.8957 22.2827C55.5335 21.6787 55.1388 21.1023 54.7162 20.5399C54.2944 20.0005 53.8625 19.4703 53.4026 18.9623C52.9334 18.4442 52.4446 17.9445 51.9503 17.4504C51.9661 17.4661 51.981 17.4809 51.9968 17.4957C51.9754 17.4744 51.954 17.4532 51.9326 17.4319C51.9261 17.4255 51.9195 17.4181 51.9121 17.4116C51.9158 17.4153 51.9205 17.4199 51.9242 17.4236C51.9168 17.4162 51.9093 17.4088 51.9019 17.4015C51.8851 17.3858 51.8684 17.3701 51.8535 17.3534C51.8386 17.3387 51.8227 17.323 51.8078 17.3082C51.8004 17.3008 51.7929 17.2943 51.7855 17.2869C51.522 17.0283 51.2576 16.7716 50.9905 16.5167C50.7344 16.2719 50.6264 15.9219 50.7084 15.5995C50.295 15.5894 49.904 15.2966 49.8249 14.8773C49.8231 14.8653 49.8202 14.8532 49.8174 14.8412C49.8137 14.8311 49.8091 14.8218 49.8053 14.8117C49.7932 14.7895 49.7821 14.7674 49.77 14.7452C49.743 14.7018 49.7132 14.6593 49.6834 14.6187C49.5875 14.4995 49.4879 14.3878 49.3818 14.2778C49.1891 14.095 48.988 13.9241 48.7776 13.7606C48.4005 13.4863 48.0077 13.2369 47.6036 13.0042C47.0925 12.7234 46.5703 12.4722 46.035 12.2422C45.6859 12.0926 45.3358 11.943 44.9867 11.7924C44.6627 11.677 44.3387 11.5625 44.0148 11.447C43.7495 11.3528 43.4841 11.2392 43.2123 11.1644C42.5159 10.9723 41.8187 10.7811 41.1214 10.589C40.3729 10.4311 39.6262 10.2657 38.8768 10.1087C38.7744 10.0866 38.6674 10.0773 38.5631 10.0616C38.2959 10.0219 38.0278 9.98218 37.7606 9.94247C37.378 9.88521 36.9954 9.82795 36.6127 9.77161C36.0867 9.72912 35.5617 9.68664 35.0357 9.64508C34.789 9.62476 34.5423 9.60536 34.2956 9.58504C34.0591 9.56565 33.8199 9.56565 33.5834 9.55918C33.1887 9.54902 32.7939 9.54809 32.3983 9.55271C31.3547 9.5758 30.3157 9.66078 29.2786 9.77623C28.6158 9.87413 27.953 9.97111 27.2892 10.069C26.0492 10.2519 24.824 10.5197 23.6156 10.8476C22.437 11.1783 21.2808 11.5735 20.1497 12.0409C19.0567 12.5055 17.9963 13.0347 16.9658 13.6221C15.9603 14.2077 14.9856 14.8422 14.0575 15.5423C13.3257 16.1066 12.6285 16.7078 11.9684 17.3534C11.1678 18.1588 10.4305 19.0159 9.73689 19.9118C9.50136 20.2231 9.28351 20.5482 9.05822 20.8677C8.81338 21.2169 8.56853 21.565 8.32275 21.9142C8.13284 22.1848 7.97085 22.4785 7.79676 22.7593C7.59846 23.0779 7.40016 23.3965 7.20187 23.7161C6.96447 24.1428 6.72803 24.5695 6.49064 24.9962C6.28676 25.3629 6.10613 25.7388 5.9218 26.1156C5.73561 26.4971 5.54198 26.8739 5.37814 27.2655C5.1817 27.7338 4.9834 28.2011 4.78697 28.6703C4.57192 29.2716 4.35688 29.8719 4.14276 30.4732C4.04408 30.7493 3.97612 31.0403 3.89419 31.322C3.79924 31.6461 3.70521 31.9703 3.61026 32.2945C3.51437 32.7073 3.41752 33.1211 3.32163 33.5349C3.16058 34.2248 3.03304 34.9184 2.94553 35.6213C2.87385 36.2891 2.83383 36.9559 2.83848 37.6274C2.85803 38.4189 2.92506 39.2058 3.03491 39.9899C3.209 41.1287 3.42405 42.2611 3.72475 43.374C3.84112 43.7748 3.97611 44.1655 4.13344 44.5534C4.382 45.1288 4.66596 45.6867 4.98155 46.2298C5.46379 47.0314 5.99164 47.8017 6.55766 48.548C6.97007 49.0477 7.38434 49.5455 7.79582 50.0461C7.85633 50.119 7.92803 50.1837 7.99413 50.252C8.16356 50.4294 8.33299 50.6067 8.50242 50.784C8.72027 51.0112 8.9372 51.2394 9.15504 51.4657C9.66428 51.9256 10.1763 52.3819 10.6855 52.8418C10.7535 52.9037 10.8335 52.9563 10.9062 53.0127C11.0989 53.1605 11.2897 53.3092 11.4824 53.4569C11.7459 53.6601 12.0084 53.8642 12.2728 54.0674C12.8286 54.4406 13.3844 54.8137 13.9411 55.1868C14.1999 55.3614 14.481 55.5092 14.7501 55.6689C15.0275 55.8352 15.3059 56.0014 15.5852 56.1668C16.0385 56.4106 16.491 56.6572 16.9434 56.9029C17.3251 57.1088 17.7208 57.2889 18.1118 57.4774C18.4851 57.6565 18.8538 57.8376 19.2355 57.9974C19.7354 58.2061 20.2344 58.4167 20.7343 58.6254C21.3618 58.8507 21.9883 59.0761 22.6158 59.3024C22.9109 59.4095 23.2209 59.4853 23.5216 59.5758C23.84 59.6718 24.1602 59.7679 24.4786 59.8639C25.0772 60.0071 25.6758 60.1466 26.2744 60.2897C26.3694 60.3119 26.469 60.322 26.5649 60.3377C26.7799 60.3728 26.9959 60.4089 27.2119 60.444C27.5443 60.4994 27.8757 60.5539 28.208 60.6084C28.6921 60.6508 29.1781 60.698 29.6641 60.746Z" fill="#020909"/>
<path d="M31.7308 62.6791C31.1583 62.6551 30.5857 62.632 30.0132 62.6079C29.84 62.6006 29.6659 62.5747 29.4937 62.5572C29.125 62.5221 28.7564 62.486 28.3877 62.45C27.9399 62.4066 27.5014 62.3336 27.0583 62.2616C26.6086 62.1877 26.1543 62.1277 25.7112 62.0224C25.1601 61.8922 24.609 61.7629 24.0578 61.6308C23.853 61.5818 23.6519 61.5144 23.4499 61.4534C23.098 61.3482 22.748 61.2419 22.3961 61.1367C21.9827 61.012 21.5796 60.8633 21.1737 60.7173C20.7324 60.5576 20.2874 60.4089 19.8545 60.2288C19.2839 59.9905 18.715 59.7513 18.1462 59.5139C18.0168 59.4594 17.8921 59.3938 17.7664 59.3338C17.4303 59.1731 17.0961 59.0115 16.76 58.8498C16.3588 58.6568 15.9696 58.4462 15.5777 58.2338C15.17 58.014 14.7613 57.7978 14.3628 57.5605C13.8843 57.2751 13.4058 56.9879 12.9264 56.7043C12.7597 56.6064 12.6024 56.4882 12.4432 56.3801C12.1378 56.176 11.8325 55.971 11.528 55.7659C11.1668 55.523 10.827 55.2561 10.4826 54.9901C10.2201 54.7869 9.95658 54.5846 9.69405 54.3815C9.58978 54.3002 9.48459 54.2217 9.38591 54.133C8.92322 53.7165 8.46053 53.2999 7.99691 52.8843C7.64222 52.5657 7.32571 52.1999 6.99615 51.8554C6.81275 51.6633 6.62841 51.4712 6.44501 51.2791C6.33423 51.1646 6.23834 51.0353 6.13687 50.9124C5.74773 50.4423 5.34835 49.9787 4.97783 49.4938C4.12321 48.3753 3.35236 47.182 2.737 45.9167C2.44747 45.32 2.2045 44.7031 2.01551 44.0676C1.80698 43.3712 1.64684 42.661 1.50813 41.948C1.2456 40.593 1.0473 39.2298 1.00634 37.849C0.964447 36.4405 1.13389 35.0441 1.4048 33.6642C1.51279 33.1147 1.65895 32.5697 1.78649 32.0248C1.90007 31.5399 2.05553 31.0643 2.19424 30.5868C2.25941 30.3651 2.32367 30.1416 2.38977 29.9199C2.44469 29.7324 2.52288 29.5477 2.58804 29.363C2.75934 28.8837 2.91296 28.3923 3.11125 27.9222C3.34306 27.3717 3.57394 26.8222 3.80575 26.2717C3.85602 26.1516 3.9156 26.0362 3.97332 25.9198C4.13344 25.5929 4.29356 25.2641 4.45368 24.9371C4.64918 24.5372 4.86239 24.152 5.07838 23.7632C5.30367 23.3587 5.52058 22.9468 5.76449 22.5533C6.09033 22.0296 6.41614 21.5059 6.74105 20.9823C6.98031 20.5962 7.26333 20.2304 7.52493 19.8582C7.69343 19.6181 7.86194 19.377 8.03137 19.1369C8.27622 18.7878 8.54525 18.4562 8.8115 18.1246C9.68474 17.0366 10.6539 16.0207 11.7021 15.0989C12.7402 14.1864 13.8731 13.3838 15.0424 12.6468C16.235 11.8959 17.4825 11.23 18.7681 10.6509C20.0566 10.069 21.3897 9.5915 22.748 9.19805C23.3838 9.01425 24.0243 8.85079 24.6694 8.70393C25.2355 8.57555 25.8089 8.44625 26.3833 8.36128C26.9931 8.27076 27.602 8.18209 28.2108 8.09158C28.4566 8.05556 28.7033 8.01955 28.9491 7.98353C29.4825 7.9041 30.0234 7.86161 30.5606 7.8182C31.2495 7.76186 31.9393 7.736 32.6301 7.72768C33.2194 7.72029 33.8189 7.7166 34.4054 7.7637C35.0189 7.81266 35.6324 7.86253 36.2459 7.91148C37.2328 7.99091 38.2084 8.16454 39.1868 8.31047C39.3181 8.32987 39.4484 8.36497 39.5788 8.39268C39.9363 8.46933 40.2947 8.546 40.6521 8.62266C41.0571 8.70855 41.4621 8.79167 41.8615 8.90066C42.2869 9.01795 42.7124 9.13433 43.1378 9.25255C43.378 9.31905 43.6266 9.37262 43.8612 9.45574C44.2419 9.59058 44.6227 9.72728 45.0035 9.86213C45.2706 9.95726 45.5406 10.0459 45.8022 10.1577C46.1932 10.3248 46.5852 10.4929 46.9762 10.661C47.5115 10.891 48.031 11.1505 48.5365 11.4378C49.2877 11.8645 50.0083 12.3448 50.6302 12.9442C51.0677 13.3653 51.5025 13.8881 51.6179 14.4986C51.6449 14.6418 51.6384 14.784 51.6021 14.9179C51.819 14.9161 52.0341 14.9872 52.197 15.1423C52.385 15.3215 52.5712 15.5016 52.7565 15.6827C52.8198 15.7436 52.8822 15.8046 52.9445 15.8664C53.0358 15.956 53.1382 16.0428 53.222 16.1417C53.2518 16.1703 53.2816 16.1999 53.3113 16.2294C53.6344 16.5508 53.9537 16.8769 54.2693 17.2066C54.9266 17.8919 55.5363 18.6188 56.1191 19.3669C56.714 20.1298 57.2409 20.9342 57.7157 21.7747C58.2007 22.6318 58.6281 23.5101 59.0172 24.4144C59.4091 25.3241 59.7219 26.268 60.0003 27.2166C60.274 28.1466 60.5021 29.0905 60.6799 30.0437C60.8661 31.0504 61.0066 32.0627 61.1332 33.0786C61.3725 34.9997 61.4861 36.931 61.3511 38.8631C61.3139 39.4044 61.2832 39.9502 61.205 40.4878C61.1305 40.9883 61.0476 41.4852 60.9555 41.984C60.8689 42.4458 60.7646 42.9057 60.6594 43.3638C60.6119 43.5716 60.5644 43.7785 60.5076 43.9845C60.4369 44.2376 60.3782 44.498 60.2963 44.7483C60.1353 45.2397 59.9714 45.7282 59.7908 46.2141C59.6046 46.7128 59.3952 47.2005 59.1866 47.69C59.1094 47.8692 59.0163 48.0419 58.9287 48.2164C58.8152 48.4418 58.709 48.6708 58.5815 48.8897C58.3301 49.322 58.0844 49.7542 57.8051 50.168C57.6757 50.3583 57.5556 50.5605 57.4159 50.7434C57.2251 50.9928 57.0343 51.2431 56.8425 51.4934C56.5343 51.897 56.2001 52.2821 55.8743 52.6709C55.5801 53.021 55.2589 53.3507 54.9526 53.6897C54.7953 53.8642 54.6203 54.0268 54.4555 54.1949C54.2628 54.3907 54.0757 54.5967 53.8736 54.7841C53.6958 54.9495 53.518 55.1139 53.3402 55.2783C53.1605 55.4436 52.9883 55.6209 52.8012 55.7761C52.6029 55.9414 52.4027 56.1058 52.2035 56.2702C51.9959 56.442 51.7939 56.6249 51.5751 56.7837C51.1692 57.0793 50.7642 57.3748 50.3583 57.6695C50.1712 57.8052 49.9636 57.9198 49.7691 58.0435C49.5242 58.1996 49.2784 58.3548 49.0327 58.5118C48.8614 58.6199 48.6761 58.7113 48.4992 58.8083C48.1957 58.9754 47.8913 59.1435 47.5887 59.3107C47.1624 59.5453 46.709 59.7365 46.2696 59.9443C45.8302 60.153 45.3786 60.3285 44.9271 60.5095C44.6925 60.6037 44.4579 60.697 44.2233 60.7912C44.0195 60.8725 43.8035 60.9298 43.5949 60.9991C43.1276 61.1524 42.664 61.3094 42.1873 61.4341C41.7079 61.5597 41.2294 61.7019 40.7434 61.8016C40.4166 61.8681 40.0917 61.9365 39.765 62.003C39.5881 62.039 39.4112 62.0815 39.2324 62.1101C38.6711 62.1979 38.1097 62.2847 37.5493 62.3724C37.0149 62.4556 36.4703 62.4925 35.9322 62.5479C35.4723 62.5969 35.0115 62.6135 34.5497 62.6384C34.087 62.6634 33.629 62.6782 33.1663 62.6809C32.8638 62.6828 32.5612 62.6902 32.2577 62.6902C32.0817 62.6892 31.9067 62.6865 31.7308 62.6791ZM29.6641 60.746C30.0672 60.7848 30.4665 60.8032 30.8715 60.8199C31.3091 60.8383 31.7485 60.8679 32.186 60.866C32.6971 60.8623 33.2101 60.8596 33.7221 60.8568C34.3049 60.8254 34.8886 60.7949 35.4705 60.7635C35.7684 60.7469 36.0691 60.7007 36.366 60.6693C36.6584 60.6379 36.9497 60.6065 37.2402 60.577C37.6666 60.5105 38.0948 60.443 38.5212 60.3765C38.8685 60.322 39.2092 60.2537 39.5527 60.1835C39.9353 60.1041 40.3226 60.0394 40.7006 59.9397C41.1502 59.8215 41.6008 59.7032 42.0514 59.585C42.5709 59.4132 43.0913 59.2433 43.6107 59.0715C43.8798 58.9828 44.1423 58.8591 44.4049 58.7538C44.6413 58.6586 44.8778 58.5644 45.1152 58.4702C45.6225 58.2301 46.1299 57.9909 46.6373 57.7507C46.8617 57.6445 47.0767 57.5088 47.2945 57.3896C47.5422 57.2529 47.7889 57.1171 48.0365 56.9805C48.4666 56.708 48.8967 56.4346 49.3268 56.1603C49.5261 56.0328 49.7132 55.8795 49.904 55.7401C50.0977 55.5988 50.2913 55.4584 50.4849 55.318C50.8517 55.0141 51.2195 54.7112 51.5872 54.4064C51.751 54.2706 51.9028 54.1145 52.0601 53.9705C52.2556 53.7894 52.4521 53.6084 52.6476 53.4265C53.0823 52.9859 53.5171 52.5472 53.9332 52.0882C54.139 51.861 54.3503 51.6384 54.5477 51.4038C54.7851 51.1202 55.0234 50.8358 55.2617 50.5513C55.4321 50.3287 55.6024 50.1052 55.7728 49.8835C55.9162 49.696 56.0465 49.4993 56.1787 49.3035C56.3137 49.104 56.4552 48.9073 56.5771 48.6985C56.7224 48.4482 56.8685 48.1989 57.0138 47.9486C57.1767 47.6207 57.3415 47.2928 57.5053 46.965C57.5807 46.8135 57.6394 46.65 57.7055 46.4948C57.7734 46.3351 57.8414 46.1753 57.9094 46.0155C58.0713 45.5823 58.2343 45.1519 58.3786 44.7123C58.5266 44.2607 58.656 43.8072 58.7826 43.3491C58.9045 42.8189 59.0209 42.2878 59.1308 41.7559C59.236 41.2414 59.317 40.7242 59.3933 40.2061C59.4557 39.6039 59.5078 39.0026 59.5395 38.3976C59.5711 37.7945 59.5804 37.1942 59.5776 36.5911C59.5422 35.7599 59.4836 34.936 59.4035 34.1085C59.3253 33.2938 59.2145 32.482 59.1 31.6729C58.9995 31.056 58.8952 30.4399 58.7668 29.8276C58.6383 29.218 58.4875 28.6149 58.3274 28.0127C58.1877 27.5389 58.0481 27.066 57.8861 26.5996C57.7148 26.1055 57.5305 25.6187 57.3359 25.1338C57.132 24.66 56.9225 24.189 56.6879 23.73C56.4375 23.2386 56.1731 22.7583 55.8957 22.2827C55.5335 21.6787 55.1388 21.1023 54.7162 20.5399C54.2944 20.0005 53.8625 19.4703 53.4026 18.9623C52.9334 18.4442 52.4446 17.9445 51.9503 17.4504C51.9661 17.4661 51.981 17.4809 51.9968 17.4957C51.9754 17.4744 51.954 17.4532 51.9326 17.4319C51.9261 17.4255 51.9195 17.4181 51.9121 17.4116C51.9158 17.4153 51.9205 17.4199 51.9242 17.4236C51.9168 17.4162 51.9093 17.4088 51.9019 17.4015C51.8851 17.3858 51.8684 17.3701 51.8535 17.3534C51.8386 17.3387 51.8227 17.323 51.8078 17.3082C51.8004 17.3008 51.7929 17.2943 51.7855 17.2869C51.522 17.0283 51.2576 16.7716 50.9905 16.5167C50.7344 16.2719 50.6264 15.9219 50.7084 15.5995C50.295 15.5894 49.904 15.2966 49.8249 14.8773C49.8231 14.8653 49.8202 14.8532 49.8174 14.8412C49.8137 14.8311 49.8091 14.8218 49.8053 14.8117C49.7932 14.7895 49.7821 14.7674 49.77 14.7452C49.743 14.7018 49.7132 14.6593 49.6834 14.6187C49.5875 14.4995 49.4879 14.3878 49.3818 14.2778C49.1891 14.095 48.988 13.9241 48.7776 13.7606C48.4005 13.4863 48.0077 13.2369 47.6036 13.0042C47.0925 12.7234 46.5703 12.4722 46.035 12.2422C45.6859 12.0926 45.3358 11.943 44.9867 11.7924C44.6627 11.677 44.3387 11.5625 44.0148 11.447C43.7495 11.3528 43.4841 11.2392 43.2123 11.1644C42.5159 10.9723 41.8187 10.7811 41.1214 10.589C40.3729 10.4311 39.6262 10.2657 38.8768 10.1087C38.7744 10.0866 38.6674 10.0773 38.5631 10.0616C38.2959 10.0219 38.0278 9.98218 37.7606 9.94247C37.378 9.88521 36.9954 9.82795 36.6127 9.77161C36.0867 9.72912 35.5617 9.68664 35.0357 9.64508C34.789 9.62476 34.5423 9.60536 34.2956 9.58504C34.0591 9.56565 33.8199 9.56565 33.5834 9.55918C33.1887 9.54902 32.7939 9.54809 32.3983 9.55271C31.3547 9.5758 30.3157 9.66078 29.2786 9.77623C28.6158 9.87413 27.953 9.97111 27.2892 10.069C26.0492 10.2519 24.824 10.5197 23.6156 10.8476C22.437 11.1783 21.2808 11.5735 20.1497 12.0409C19.0567 12.5055 17.9963 13.0347 16.9658 13.6221C15.9603 14.2077 14.9856 14.8422 14.0575 15.5423C13.3257 16.1066 12.6285 16.7078 11.9684 17.3534C11.1678 18.1588 10.4305 19.0159 9.73689 19.9118C9.50136 20.2231 9.28351 20.5482 9.05822 20.8677C8.81338 21.2169 8.56853 21.565 8.32275 21.9142C8.13284 22.1848 7.97085 22.4785 7.79676 22.7593C7.59846 23.0779 7.40016 23.3965 7.20187 23.7161C6.96447 24.1428 6.72803 24.5695 6.49064 24.9962C6.28676 25.3629 6.10613 25.7388 5.9218 26.1156C5.73561 26.4971 5.54198 26.8739 5.37814 27.2655C5.1817 27.7338 4.9834 28.2011 4.78697 28.6703C4.57192 29.2716 4.35688 29.8719 4.14276 30.4732C4.04408 30.7493 3.97612 31.0403 3.89419 31.322C3.79924 31.6461 3.70521 31.9703 3.61026 32.2945C3.51437 32.7073 3.41752 33.1211 3.32163 33.5349C3.16058 34.2248 3.03304 34.9184 2.94553 35.6213C2.87385 36.2891 2.83383 36.9559 2.83848 37.6274C2.85803 38.4189 2.92506 39.2058 3.03491 39.9899C3.209 41.1287 3.42405 42.2611 3.72475 43.374C3.84112 43.7748 3.97611 44.1655 4.13344 44.5534C4.382 45.1288 4.66596 45.6867 4.98155 46.2298C5.46379 47.0314 5.99164 47.8017 6.55766 48.548C6.97007 49.0477 7.38434 49.5455 7.79582 50.0461C7.85633 50.119 7.92803 50.1837 7.99413 50.252C8.16356 50.4294 8.33299 50.6067 8.50242 50.784C8.72027 51.0112 8.9372 51.2394 9.15504 51.4657C9.66428 51.9256 10.1763 52.3819 10.6855 52.8418C10.7535 52.9037 10.8335 52.9563 10.9062 53.0127C11.0989 53.1605 11.2897 53.3092 11.4824 53.4569C11.7459 53.6601 12.0084 53.8642 12.2728 54.0674C12.8286 54.4406 13.3844 54.8137 13.9411 55.1868C14.1999 55.3614 14.481 55.5092 14.7501 55.6689C15.0275 55.8352 15.3059 56.0014 15.5852 56.1668C16.0385 56.4106 16.491 56.6572 16.9434 56.9029C17.3251 57.1088 17.7208 57.2889 18.1118 57.4774C18.4851 57.6565 18.8538 57.8376 19.2355 57.9974C19.7354 58.2061 20.2344 58.4167 20.7343 58.6254C21.3618 58.8507 21.9883 59.0761 22.6158 59.3024C22.9109 59.4095 23.2209 59.4853 23.5216 59.5758C23.84 59.6718 24.1602 59.7679 24.4786 59.8639C25.0772 60.0071 25.6758 60.1466 26.2744 60.2897C26.3694 60.3119 26.469 60.322 26.5649 60.3377C26.7799 60.3728 26.9959 60.4089 27.2119 60.444C27.5443 60.4994 27.8757 60.5539 28.208 60.6084C28.6921 60.6508 29.1781 60.698 29.6641 60.746Z" stroke="#020909" stroke-width="0.6" mask="url(#path-2-outside-1_3429_2051)"/>
<path d="M8.75307 7.01831C9.24035 6.83729 9.86661 7.03097 10.0939 7.53979C10.6166 8.71543 11.151 9.8859 11.714 11.0417C12.0247 11.6775 12.3389 12.3106 12.6622 12.9392L12.8634 13.3171C12.9318 13.4424 13.0019 13.567 13.0724 13.6921V13.6931C13.2297 13.9734 13.4033 14.2661 13.5246 14.5847C13.734 15.1349 13.4051 15.7551 12.8683 15.9412C12.7535 15.9809 12.6373 15.9988 12.5226 15.9988C12.0791 15.9988 11.6731 15.7171 11.5109 15.2908V15.2898C11.51 15.2877 11.5096 15.2856 11.5089 15.2839L11.3107 14.907L11.0978 14.53C10.9399 14.2503 10.7918 13.9649 10.6456 13.6824C10.3528 13.1133 10.0663 12.5394 9.7892 11.9617C9.23667 10.8071 8.69705 9.6462 8.1769 8.47632C8.06676 8.22884 8.02776 7.95718 8.11928 7.68042C8.20729 7.41158 8.40276 7.18517 8.65736 7.05933L8.75307 7.01831Z" fill="#020909" stroke="#020909" stroke-width="0.3"/>
<path d="M25.0037 3.02124C25.572 3.04906 26.0604 3.55281 26.0164 4.13843C25.9512 5.02382 25.8862 5.90923 25.8211 6.7937C25.7866 7.26821 25.753 7.74377 25.7195 8.21851C25.6879 8.66407 25.6583 9.104 25.659 9.54272L25.6716 9.7312C25.6748 9.74738 25.6782 9.76091 25.6814 9.77417L25.6824 9.7771C25.8081 10.3463 25.4229 10.9167 24.8582 11.0349C24.7862 11.0498 24.7134 11.0574 24.6423 11.0574C24.1481 11.0574 23.7001 10.7099 23.5916 10.2166C23.505 9.82208 23.5191 9.41899 23.532 9.0437C23.5405 8.7852 23.5583 8.52636 23.574 8.27222L23.575 8.27124C23.602 7.8438 23.6352 7.41533 23.6658 6.99097C23.7365 6.00266 23.8091 5.01341 23.8836 4.02417L23.8963 3.9187C23.986 3.39679 24.4463 2.99418 25.0037 3.02124Z" fill="#020909" stroke="#020909" stroke-width="0.3"/>
<path d="M46.6902 3.58069C46.9361 3.04824 47.6024 2.8374 48.118 3.08459C48.6523 3.34062 48.8585 3.97782 48.616 4.49963C48.119 5.5707 47.6217 6.64143 47.1151 7.70862L46.3065 9.40393C46.0289 9.97686 45.7355 10.5272 45.4861 11.1002C45.4296 11.4823 45.1608 11.8297 44.7791 11.9615C44.7218 11.9814 44.6639 11.996 44.6063 12.0055L44.4334 12.0192C44.0454 12.02 43.6856 11.8044 43.493 11.4655L43.4207 11.3131C43.3174 11.0419 43.3482 10.7732 43.4227 10.5309C43.4958 10.293 43.6189 10.0607 43.7108 9.86682C43.8377 9.59817 43.9722 9.32956 44.1004 9.06604C44.4084 8.43006 44.7142 7.79426 45.0164 7.15588C45.5803 5.96692 46.1365 4.77458 46.6902 3.58069Z" fill="#020909" stroke="#020909" stroke-width="0.3"/>
<path d="M62.1102 14.1426C62.5519 13.9154 63.1087 14.0129 63.4325 14.3984L63.4979 14.4854L63.5526 14.5771C63.8018 15.0438 63.6674 15.6607 63.2049 15.959L63.2059 15.96C62.0673 16.6952 60.9555 17.4731 59.8436 18.252C58.6985 19.054 57.5582 19.8554 56.4452 20.6943L56.4462 20.6953C56.2054 20.8867 55.9695 21.0698 55.7479 21.2705L55.7489 21.2715C55.5516 21.4508 55.2987 21.5332 55.0507 21.5332C54.7524 21.5341 54.4486 21.4128 54.2401 21.1768C53.8476 20.7339 53.9092 20.0678 54.3348 19.6807C54.926 19.1429 55.5867 18.6754 56.2215 18.2139C56.8668 17.7449 57.5196 17.2868 58.1698 16.8281C59.4373 15.9354 60.7112 15.0386 62.0174 14.1963L62.1102 14.1426Z" fill="#020909" stroke="#020909" stroke-width="0.3"/>
<path d="M66.4654 32.8491C66.7291 32.7705 67.0098 32.7699 67.275 32.897C67.5282 33.0183 67.7264 33.2383 67.8189 33.5024C68.0033 34.0266 67.7257 34.6866 67.1558 34.856C65.4625 35.3583 63.7646 35.8543 62.0601 36.3228H62.0582C62.0048 36.3377 61.9606 36.3491 61.9146 36.3638L61.9156 36.3647C61.8034 36.4011 61.6883 36.4174 61.5757 36.4175C61.1358 36.4185 60.7152 36.1564 60.5591 35.7124C60.3707 35.1763 60.6579 34.5395 61.2183 34.3599L61.5279 34.27C61.6311 34.2421 61.7332 34.2148 61.8316 34.188C63.3804 33.757 64.9243 33.3071 66.4654 32.8491Z" fill="#020909" stroke="#020909" stroke-width="0.3"/>
<path d="M36.0955 0.851562C36.6162 0.877491 37.1023 1.31972 37.1131 1.8623L37.1092 1.97168C37.0023 3.06653 36.9098 4.16155 36.827 5.25781C36.787 5.79166 36.7522 6.32576 36.7225 6.86035C36.695 7.33686 36.6862 7.83699 36.6317 8.32422C36.6008 8.59909 36.4982 8.85871 36.2694 9.05859L36.2703 9.05957C36.0755 9.23022 35.8191 9.32324 35.5623 9.32324C35.5525 9.32324 35.5426 9.32248 35.536 9.32227H35.5125C35.2317 9.30866 34.9641 9.1733 34.7752 8.97363C34.5859 8.77334 34.466 8.49754 34.4998 8.19922C34.5541 7.72274 34.5612 7.24416 34.5887 6.75195L34.6951 5.14453C34.7771 4.04548 34.8702 2.948 34.9764 1.85156V1.85059C35.0036 1.57387 35.1139 1.30924 35.3377 1.11328C35.5448 0.932591 35.8204 0.837705 36.0955 0.851562Z" fill="#020909" stroke="#020909" stroke-width="0.3"/>
<path d="M31.1875 20.5529C31.7084 20.295 32.3593 20.508 32.6211 21.0265L32.6748 21.1564C32.7783 21.4594 32.7322 21.7877 32.5733 22.0509L32.5742 22.0519C32.5346 22.1287 32.4992 22.2075 32.4649 22.2892C32.1703 23.0624 31.8966 23.8438 31.6319 24.629L30.8535 26.9962C30.3552 28.5229 29.8527 30.0464 29.419 31.588C29.2887 32.0499 28.8336 32.3253 28.3907 32.3253H28.3877C28.2837 32.3232 28.1762 32.3085 28.0713 32.2745C27.4963 32.0881 27.2295 31.4908 27.3828 30.9435L27.75 29.6906C28.129 28.4409 28.5394 27.2007 28.9434 25.963C29.2099 25.1468 29.4831 24.331 29.7598 23.5187C29.9117 23.0731 30.0674 22.6292 30.2217 22.1857L30.4532 21.5802C30.5851 21.233 30.7577 20.7662 31.1875 20.5529Z" fill="#020909" stroke="#020909" stroke-width="0.3"/>
<path d="M37.1781 19.7899C37.4269 19.6665 37.7205 19.643 37.9857 19.7303L37.9847 19.7313C38.2515 19.8173 38.4744 20.0154 38.6048 20.2567C38.7358 20.4991 38.7799 20.7964 38.6683 21.076C38.6407 21.1458 38.6188 21.2162 38.598 21.2899L38.5335 21.5223L38.3753 22.0848C38.2526 22.5295 38.1331 22.9755 38.012 23.4227C37.8045 24.1909 37.5987 24.9602 37.3949 25.7294C36.9665 27.3447 36.5368 28.9599 36.1224 30.577C36.1215 30.581 36.1212 30.5849 36.1204 30.5878C36.1198 30.5902 36.1189 30.593 36.1185 30.5946C36.118 30.5966 36.1178 30.5984 36.1175 30.5995L36.1165 30.6005C36.1159 30.603 36.1152 30.6057 36.1146 30.6083C36.1086 30.6322 36.1034 30.655 36.097 30.6805C36.0293 30.947 35.8967 31.1926 35.6429 31.3612C35.4665 31.4782 35.2561 31.5409 35.0452 31.5409H35.0423C34.9807 31.5398 34.9189 31.5349 34.8568 31.5243H34.8558C34.5805 31.4742 34.3321 31.3051 34.1702 31.0829C34.0081 30.86 33.9239 30.571 33.9984 30.2792L34.6497 27.7665C34.8695 26.9301 35.0913 26.0943 35.3128 25.2587C35.527 24.4504 35.7434 23.6431 35.9613 22.8348C36.0786 22.3988 36.1965 21.9614 36.3158 21.5253L36.4769 20.9501C36.5244 20.7893 36.5698 20.5822 36.6419 20.4022C36.7437 20.1472 36.9077 19.9242 37.1781 19.7899Z" fill="#020909" stroke="#020909" stroke-width="0.3"/>
<path d="M17.8856 28.5081C18.4057 28.2503 19.0565 28.4653 19.3173 28.9836C19.4449 29.2369 19.4574 29.5199 19.3778 29.7727C19.3762 29.7825 19.3778 29.78 19.3749 29.7971C19.3693 29.8811 19.3661 29.9643 19.3651 30.0491C19.3751 30.3054 19.4 30.5606 19.4354 30.8167L19.5263 31.2991C19.5601 31.4573 19.5978 31.6145 19.6395 31.7708L19.7968 32.2512C19.8525 32.4087 19.9109 32.5651 19.9745 32.72H19.9755C20.1396 33.0892 20.3206 33.4478 20.5204 33.7991L20.6923 34.0754C20.8663 34.3481 21.0512 34.6132 21.247 34.8723L21.4481 35.1184C21.652 35.3612 21.8649 35.5951 22.0888 35.8206H22.0878C22.4086 36.1288 22.7433 36.4192 23.0946 36.6917L23.455 36.9504C23.8189 37.2039 24.1941 37.4405 24.58 37.6614H24.579C25.237 38.023 25.913 38.3432 26.6093 38.6272H26.6083C27.4046 38.9393 28.2155 39.2019 29.0448 39.4153H29.0458C29.8082 39.5994 30.5793 39.7399 31.3573 39.8352C32.1294 39.9177 32.9036 39.9578 33.6796 39.9524C34.2769 39.9387 34.8702 39.8969 35.4598 39.8176L35.8222 39.7571C36.1832 39.6917 36.5408 39.6126 36.8964 39.5188C37.3611 39.3866 37.8161 39.2295 38.2636 39.0481C38.7296 38.8464 39.1811 38.623 39.622 38.3733C40.0101 38.1451 40.3855 37.9012 40.7528 37.6409C41.103 37.3711 41.4472 37.1107 41.7723 36.8235L42.288 36.3538C42.4563 36.1961 42.6222 36.0359 42.788 35.8743C42.955 35.6984 43.1227 35.5239 43.2889 35.3469V35.3459C43.4416 35.1857 43.5724 35.0141 43.7255 34.8323C44.3939 33.9559 45.0269 33.0593 45.5819 32.1125C45.7182 31.8649 45.8493 31.6162 45.9667 31.3616L46.0175 31.2659C46.2957 30.8059 46.9107 30.6336 47.3944 30.8655C47.9289 31.1215 48.1348 31.7589 47.8925 32.2815C47.4794 33.1711 46.9496 34.007 46.3895 34.802C46.1001 35.2133 45.8047 35.6189 45.4989 36.0178C45.185 36.4277 44.8411 36.8056 44.4901 37.176C44.1739 37.5092 43.8423 37.8347 43.496 38.1418C43.3019 38.314 43.1084 38.4839 42.9159 38.6555V38.6565C42.697 38.8501 42.4353 39.0269 42.2206 39.1936H42.2196C41.334 39.8769 40.3563 40.4418 39.3358 40.8967C38.2414 41.3844 37.0899 41.7015 35.9139 41.8899L35.4081 41.9631C34.7752 42.0444 34.1364 42.0774 33.4989 42.0774C32.9187 42.0792 32.3419 42.0526 31.7704 42.0081C30.701 41.9241 29.6462 41.7427 28.6083 41.4915L28.1639 41.3792C26.9932 41.0727 25.8557 40.6464 24.7616 40.1409C23.7306 39.6648 22.7414 39.0856 21.8339 38.4026V38.4016C20.0505 37.0614 18.685 35.2558 17.8661 33.1917C17.5247 32.3336 17.3331 31.4183 17.2548 30.5051V30.5042C17.2225 30.1202 17.2211 29.7353 17.2831 29.3469H17.2841C17.3403 28.9973 17.5566 28.6731 17.8847 28.509L17.8856 28.5081Z" fill="#020909" stroke="#020909" stroke-width="0.3"/>
</svg>
