<svg width="106" height="62" viewBox="0 0 106 62" fill="none" xmlns="http://www.w3.org/2000/svg">
<path d="M51.4732 3.33986C51.7231 3.48766 52.165 3.36383 52.157 3.90011C52.155 4.01994 52.5579 4.14576 52.7739 4.26859C52.8949 4.21566 53.0169 4.16174 53.1378 4.10881C52.9999 4.14376 52.8619 4.17872 52.7239 4.21368C53.1568 4.46234 53.5668 4.77092 54.0267 4.94967C57.8889 6.45363 61.5132 8.39799 64.9866 10.6539C66.9912 11.9561 69.0778 13.1325 71.1384 14.3459C73.7109 15.8608 76.2594 17.4227 78.8839 18.8408C82.1433 20.6024 85.4157 22.342 88.905 23.6432C91.4145 24.579 93.8531 25.7054 96.3596 26.6492C97.1404 26.9428 98.0423 26.9158 98.8881 27.0366L98.8601 27.0945C99.381 26.5523 99.467 26.5523 99.8319 27.0945L99.8119 27.0476C100.404 27.2843 101.098 27.3782 101.395 28.2859C100.522 28.5056 99.7179 28.3378 98.9011 28.1801C95.8227 27.5869 92.7453 26.9837 89.6569 26.4484C88.1511 26.1878 86.6224 26.051 85.1007 25.8932C84.4458 25.8253 83.812 25.9451 83.1901 26.5683C84.2219 26.9188 85.1547 27.2993 86.1225 27.5489C87.1633 27.8166 88.2381 27.9474 89.2929 28.1631C91.7915 28.6754 94.303 29.1378 96.7785 29.7479C98.2542 30.1114 99.8019 30.1584 101.223 30.7825C101.423 30.8704 101.76 30.6477 102.033 30.5688L101.889 30.4989L101.979 30.6257C102.118 30.6687 102.317 30.7945 102.388 30.7426C103.386 30.0176 104.689 30.1074 105.723 29.4763C106.253 28.6414 105.977 27.9823 105.286 27.3852C103.572 25.9052 101.846 24.4372 100.169 22.9162C97.2434 20.2618 94.5169 17.4177 92.0834 14.299C90.9566 12.8539 89.9508 11.34 89.1789 9.67125C88.97 9.21986 88.666 8.81143 88.2611 8.14534C88.0602 8.64666 87.9472 8.92527 87.7902 9.31574C87.5393 9.0491 87.3223 8.81842 87.0674 8.54579C86.4315 8.32809 85.9726 9.92991 85.0497 8.8344C85.0927 9.08706 85.0857 9.36167 85.1867 9.58936C87.1153 13.9334 90.1958 17.4377 93.4341 20.8221C94.191 21.613 95.0278 22.328 95.7847 23.12C96.0076 23.3526 96.0826 23.7251 96.2256 24.0337C96.2706 24.0686 96.3146 24.1026 96.3596 24.1376C96.3296 24.0866 96.3006 24.0357 96.2706 23.9848C95.8437 23.9239 95.3948 23.9259 94.9918 23.792C89.7768 22.0574 84.7658 19.8374 80.0037 17.1081C73.7899 13.547 67.6451 9.86699 61.4782 6.22495C58.6388 4.54823 55.6664 3.15511 52.6189 1.9048C50.4394 1.01102 48.1748 0.386894 45.8622 0.0833092C42.7428 -0.327133 40.1373 0.786335 38.1407 3.26197C36.2991 5.54486 35.3682 8.20124 34.8713 11.0444C34.8103 11.3929 34.7463 11.7404 34.6604 12.2188C34.0135 12.0111 33.4566 11.8832 32.9417 11.6595C27.5467 9.31772 21.9338 7.70293 16.0959 7.0588C12.4736 6.65935 8.80132 6.50657 5.19501 7.44829C3.36136 7.92664 1.86463 8.92326 0.67286 10.3643C0.367919 10.7328 0.251948 11.2571 0.0489866 11.7095L0 11.6695C0.591887 11.2341 1.18477 10.7977 1.77665 10.3613L1.75166 10.4172C1.92063 10.2495 2.0896 10.0807 2.25756 9.91292L2.18157 9.97384C2.36054 9.72918 2.53952 9.60735 2.71748 9.97485L2.67449 9.90993C2.82546 9.9329 2.97742 9.95586 3.12939 9.97784C3.14339 9.91093 3.1444 9.83604 3.17839 9.78111C3.19639 9.75215 3.27336 9.76112 3.32335 9.75314C3.24137 9.81006 3.15839 9.86697 3.07641 9.92389C3.0934 10.2265 3.1104 10.5291 3.12739 10.8307L3.07941 10.7867C3.21839 10.7598 3.39334 10.7767 3.48932 10.6988C5.52693 9.04509 7.95447 8.70558 10.452 8.67062C12.1047 8.64766 13.7594 8.71355 15.412 8.77248C15.762 8.78446 16.1109 8.92427 16.4548 9.02314C17.4427 9.30775 18.4305 9.43757 19.4563 9.1989C20.2621 9.01115 21.047 9.08305 21.7168 9.65028L21.6659 9.60133C21.9988 9.72417 22.7226 9.15794 22.6047 10.1356C22.5977 10.1925 23.0786 10.3094 23.3315 10.3983C23.7185 10.0927 23.7185 10.0927 24.2794 10.4072C23.8344 10.3833 23.5655 10.3683 23.2965 10.3533C23.9054 10.5321 24.5153 10.7108 25.1252 10.8896C25.1302 10.8337 25.1252 10.7738 25.1442 10.7228C25.1552 10.6929 25.2042 10.6769 25.2362 10.6539C25.1792 10.7138 25.1232 10.7727 25.0662 10.8327C25.5041 10.9665 25.942 11.1003 26.379 11.2341L26.351 11.291C26.6719 10.8127 26.9988 10.9885 27.3268 11.2821L27.2898 11.2251C27.9527 11.3729 28.2066 12.2727 29.0115 12.1589L29.0754 12.1019L28.9655 12.1239C30.6291 12.8369 32.2918 13.55 33.9425 14.257C34.9843 15.2856 35.0143 16.6628 35.1303 17.934C35.4582 21.5431 36.428 24.9714 37.8498 28.2739C39.7564 32.7029 41.677 37.1359 44.1636 41.2792C47.3339 46.563 50.9512 51.5183 55.4534 55.7715C57.53 57.7338 59.8825 59.3467 62.4511 60.57C63.8878 61.2541 65.4795 61.9102 67.0292 61.9801C68.7738 62.059 70.7115 61.9711 72.0742 60.4362L72.0352 60.4512C72.6031 60.0747 72.9281 59.6063 73.016 58.8733C73.332 56.2209 73.066 53.6534 72.2502 51.1099C71.1264 47.6056 69.4297 44.399 67.4121 41.3442C63.8538 35.9545 59.4906 31.2539 54.9155 26.73C50.4763 22.341 45.4263 18.7569 40.1843 15.4164C39.8774 15.2207 39.5674 15.026 39.2445 14.8572C38.5026 14.4667 38.2927 13.8546 38.3247 13.0417C38.4147 10.7428 38.9295 8.57175 40.1093 6.58246C40.4443 6.01823 40.8602 5.50192 41.1861 4.9327C42.4599 2.70473 44.4695 2.24236 46.798 2.59588C47.7279 2.73669 48.6377 3.0083 49.5645 3.17907C49.7295 3.20903 49.9304 3.04028 50.1144 2.96239L50.0734 2.86849L50.1214 3.01231C50.6083 3.06823 51.1832 2.7986 51.5221 3.39579L51.4732 3.33986ZM40.1283 3.02928C40.1343 2.92942 40.1393 2.82957 40.1453 2.7297C40.1563 2.76266 40.1853 2.80258 40.1743 2.82555C40.1483 2.88047 40.1053 2.92641 40.0683 2.97635C39.9074 3.10917 39.7464 3.242 39.5864 3.37482C39.4345 3.50964 39.2825 3.64445 39.1305 3.77927C39.1015 4.40442 38.9406 4.9337 38.2057 5.04555C38.2147 5.17737 38.2347 5.3102 38.2277 5.44202C38.2247 5.50193 38.1677 5.55985 38.1347 5.61777C38.0757 5.52689 37.9467 5.39908 37.9717 5.35214C38.0287 5.24429 38.1607 5.17738 38.2617 5.09349C38.3157 4.49231 38.4497 3.94704 39.1675 3.81721C39.1575 3.49165 39.2735 3.3139 39.6314 3.42175C39.6284 3.07722 39.8204 2.97935 40.1283 3.02928ZM36.544 20.3627C36.495 20.2718 36.447 20.181 36.398 20.0891C36.459 20.1999 36.519 20.3098 36.58 20.4206C36.596 20.4436 36.612 20.4666 36.628 20.4885C36.6 20.4466 36.572 20.4046 36.544 20.3627ZM41.855 2.57589C41.854 2.50998 41.841 2.44108 41.857 2.37917C41.867 2.34022 41.919 2.31127 41.952 2.27731C41.899 2.3572 41.847 2.43708 41.794 2.51597C41.672 2.54293 41.5491 2.56992 41.4271 2.59689C41.569 2.5899 41.712 2.58288 41.855 2.57589ZM39.6214 5.60278C39.6264 5.53786 39.6164 5.46798 39.6404 5.41206C39.6544 5.3791 39.7204 5.36909 39.7624 5.34812C39.6964 5.41603 39.6314 5.48294 39.5654 5.55085C39.5694 5.91235 39.6154 6.29284 39.1625 6.45062C38.8416 7.64 38.4756 8.81942 38.2117 10.0218C37.9587 11.1762 37.8108 12.3536 37.6078 13.5769C37.3698 13.4152 37.1589 13.3363 37.1609 13.2624C37.2169 11.1423 37.4838 9.06008 38.4596 7.13569C38.6106 6.8381 38.7276 6.43466 39.2075 6.48759C39.0805 6.06916 39.1565 5.74458 39.6214 5.60278ZM70.7515 58.6516C70.7855 58.8913 70.9564 59.2298 70.4445 59.076C70.5625 58.9482 70.6805 58.8194 70.7985 58.6916C70.8475 58.2681 70.8964 57.8437 70.9764 57.1526C71.2284 57.9186 71.4593 58.4089 70.7515 58.6516ZM71.6283 53.0592C72.5371 54.3564 72.6171 55.8604 72.6281 57.3554C72.6331 58.0354 72.6421 58.7984 71.5883 59.5304C72.2622 57.4393 71.9972 55.6617 71.7153 53.8831C71.6703 53.5975 71.6863 53.3019 71.6733 53.0113L71.6193 52.9484L71.6283 53.0592ZM39.1475 17.4137C39.4385 17.5365 39.7804 17.6364 40.0763 17.8132C41.3901 18.5961 42.6108 19.5089 43.8486 20.4106C47.8798 23.3486 51.4752 26.73 54.9035 30.3461C58.1869 33.8084 61.1073 37.5283 63.7978 41.443C66.0044 44.6527 67.732 48.1069 68.8368 51.8538C69.4407 53.9011 69.7447 55.9722 69.5177 58.1253C69.3617 59.6023 68.2299 60.3473 66.9022 59.9908C65.9924 59.7461 65.0985 59.3866 64.2517 58.9692C61.5942 57.6579 59.3567 55.7585 57.317 53.6544C53.1218 49.3263 49.5825 44.4799 46.6921 39.2061C44.7644 35.6879 43.1078 32.0168 41.4271 28.3688C40.0773 25.4378 39.2545 22.329 38.7406 19.1434C38.6506 18.5771 38.5946 17.9919 39.1475 17.4137ZM37.4928 17.4097C37.5798 17.4187 37.6668 17.4267 37.7528 17.4357C37.7218 17.8521 37.6918 18.2685 37.6608 18.685C37.6048 18.682 37.5488 18.68 37.4918 18.677C37.4928 18.2546 37.4928 17.8321 37.4928 17.4097ZM36.475 12.2268C36.443 12.3616 36.41 12.4964 36.378 12.6302C36.2391 12.5214 36.1011 12.4125 35.9621 12.3027C36.0491 12.1968 36.1351 12.0919 36.2221 11.9861C36.306 12.066 36.391 12.1459 36.475 12.2268ZM36.644 10.3243C36.587 9.82403 36.555 9.6363 36.55 9.44855C36.549 9.39762 36.627 9.34369 36.668 9.29176C36.747 9.35867 36.8969 9.43257 36.8909 9.49049C36.8719 9.67125 36.794 9.846 36.644 10.3243ZM37.1689 8.61269C37.0769 8.17329 37.0139 7.97155 37.0059 7.76783C37.0029 7.70292 37.1459 7.63301 37.2219 7.5651C37.2559 7.62402 37.3239 7.68696 37.3179 7.74089C37.2959 7.9516 37.2499 8.1613 37.1689 8.61269ZM36.756 21.8976L36.685 21.7718L36.775 21.7478L36.756 21.8976Z" fill="#F4A672"/>
</svg>
