<svg width="24" height="24" viewBox="0 0 24 24" fill="none" xmlns="http://www.w3.org/2000/svg">
<path d="M19.9989 13.5548C19.8974 13.6543 19.7959 13.7537 19.6941 13.8529L19.7065 13.8409C19.4532 14.0496 19.1858 14.2463 19.0951 14.5856L19.1088 14.5896C19.0853 14.5952 19.0537 14.5933 19.0393 14.6079C18.5689 15.0851 18.1002 15.5642 17.6312 16.0427L17.6483 16.0341C17.5919 16.09 17.5351 16.1459 17.4783 16.2021L17.4847 16.1895C16.9448 16.7449 16.4005 17.2966 15.8656 17.8566C15.1785 18.5757 14.5402 19.3406 13.7802 19.9916C13.5631 20.1776 13.3975 20.4221 13.2013 20.6334C13.1408 20.6983 13.0538 20.7379 12.9853 20.7965C12.694 21.0448 12.3375 21.2282 12.1682 21.5985L12.185 21.5911C12.1278 21.6477 12.0707 21.7039 12.0136 21.7605L12.021 21.7455C11.6985 21.9606 11.3668 22.1646 11.1283 22.4794L11.1464 22.4684C11.0913 22.5236 11.0366 22.5789 10.9815 22.6344L10.9919 22.6201C10.8672 22.6964 10.7429 22.7726 10.6273 22.8432C10.2766 22.7692 10.1576 22.489 10.0061 22.2433C9.60933 21.6 9.229 20.9468 8.81742 20.3129C7.72045 18.6235 6.36913 17.1505 4.87268 15.8009C3.90976 14.9325 2.96027 14.0502 2.00676 13.1715C1.61803 12.8132 1.35361 12.3897 1.31901 11.8483C1.31464 11.7802 1.27432 11.7144 1.25383 11.6555C1.40636 11.2713 1.74772 11.169 2.0837 11.1139C2.61589 11.0265 3.16018 11.0138 3.69204 10.925C4.59415 10.7745 5.506 10.8837 6.4081 10.7863C6.54888 10.7713 6.68596 10.7233 6.81901 10.6916C6.92552 10.3474 6.86806 10.0468 6.7928 9.73324C6.61137 8.97812 6.46018 8.216 6.30127 7.45587C6.2764 7.3375 6.26599 7.21413 6.26565 7.09308C6.26363 6.09142 6.04827 5.11384 5.93471 4.12489C5.91556 3.95663 5.84668 3.77676 5.88499 3.62277C6.0009 3.15812 5.94311 2.70787 5.86315 2.24966C5.77142 1.72395 5.83089 1.1865 5.71095 0.655485C5.62023 0.25448 5.92732 -0.00609714 6.36846 0.0105899C7.3502 0.0475604 8.33159 0.10248 9.31366 0.130804C10.5165 0.165643 11.72 0.179865 12.9231 0.206389C13.0948 0.210273 13.2658 0.236772 13.4372 0.243316C13.8138 0.257716 14.1232 0.346653 14.136 0.803908C14.141 0.985812 14.3678 0.983004 14.4222 1.18117C14.5093 1.49871 14.5372 1.80598 14.4757 2.10964C14.2798 3.07451 14.3806 4.04284 14.397 5.01057C14.4075 5.61381 14.43 6.21705 14.4441 6.8203C14.4653 7.74113 14.4817 8.6623 14.5049 9.58313C14.5143 9.95891 14.5872 10.0433 14.9709 10.096C15.3109 10.1427 15.6536 10.1747 15.9963 10.1984C17.4427 10.299 18.8881 10.4168 20.3409 10.4072C20.8035 10.4043 21.2658 10.5051 21.7305 10.4011C21.7896 10.3877 21.8639 10.4429 21.8982 10.4545C22.0016 10.8931 22.0977 11.3007 22.2002 11.7353C21.7906 12.1423 21.3391 12.4957 20.8267 12.784C20.6224 12.8989 20.4679 13.1009 20.2908 13.2633L20.3076 13.2549C20.2505 13.3115 20.1934 13.3677 20.1363 13.4243L20.1605 13.403C20.104 13.4593 20.0472 13.5151 19.9908 13.5711L19.9989 13.5548ZM8.92225 17.8183L8.9545 17.8386L8.92527 17.832C8.92426 17.8153 8.92292 17.7984 8.92191 17.7817C8.92191 17.794 8.92225 17.8063 8.92225 17.8183ZM9.11577 7.41489L9.10804 7.45347L9.09662 7.39993C9.08721 7.39528 9.07814 7.39063 9.06874 7.38598C9.08453 7.39561 9.09998 7.40525 9.11577 7.41489ZM9.49745 18.4142L9.54045 18.4305L9.50215 18.4358L9.49543 18.3787L9.49745 18.4142ZM10.9593 22.0166C10.9573 22.0252 10.9553 22.0339 10.9529 22.0425C10.959 22.0269 10.9653 22.0116 10.9714 21.9959L11.0053 22.0046L10.9593 22.0166ZM11.1427 21.5938L11.1209 21.6217L11.1364 21.5788L11.1703 21.5685L11.1427 21.5938ZM11.1582 16.0561L11.1753 16.0833L11.1491 16.0611L11.1202 16.0305L11.1582 16.0561ZM11.551 21.1323L11.5567 21.1735L11.5459 21.112L11.5943 21.1156L11.551 21.1323ZM12.2028 10.6195C12.1749 10.7269 12.2236 10.7778 12.3291 10.7863C12.3533 10.8512 12.3593 10.935 12.4047 10.9778C13.0031 11.5408 13.6051 12.0998 14.2129 12.6525C14.2516 12.6874 14.3433 12.6654 14.4102 12.67C14.4202 12.6879 14.43 12.7062 14.4401 12.7242C14.4246 12.7105 14.4088 12.6969 14.3934 12.6833C14.3819 12.519 14.348 12.3527 14.3638 12.1908C14.3903 11.9181 14.3204 11.6172 14.5576 11.3935C14.5637 11.3872 14.5694 11.3809 14.5751 11.3746C14.5667 11.3875 14.5583 11.4005 14.5499 11.4135C14.3604 11.3973 14.1713 11.3811 13.9767 11.3646C13.6434 10.8733 13.544 10.6742 13.59 10.3871C13.7842 9.17553 13.591 7.96415 13.6334 6.78954C13.1707 6.40107 12.7427 6.03818 12.3113 5.67929C11.7472 5.21041 11.2049 4.71158 10.6092 4.28561C9.87408 3.7603 9.10065 3.28589 8.3279 2.81514C8.16764 2.71746 7.9721 2.52537 7.68416 2.73174C7.79201 2.92089 7.87903 3.1197 8.00637 3.28823C8.2859 3.65752 8.59332 4.00586 8.87655 4.37216C10.1291 5.99292 11.3584 7.63165 12.6368 9.23211C13.0494 9.74832 13.0135 10.2771 12.9866 10.8977C12.7255 10.8589 12.5203 10.8288 12.3153 10.7983C12.272 10.7451 12.2286 10.692 12.1853 10.6384C12.1715 10.6195 12.1601 10.5972 12.1426 10.5829C12.1349 10.5766 12.1141 10.5863 12.0989 10.5889C12.1335 10.5992 12.1682 10.6095 12.2028 10.6195ZM12.574 20.4865L12.6164 20.4934L12.5784 20.5004C12.5784 20.409 12.5784 20.3172 12.5784 20.2258C12.5774 20.2321 12.5767 20.2384 12.5757 20.2447C12.5754 20.3252 12.5747 20.4057 12.574 20.4865ZM12.8079 12.9709L12.8048 13.0055L12.7884 12.959C12.7806 12.9536 12.7729 12.9483 12.7652 12.943C12.7793 12.9523 12.7938 12.9616 12.8079 12.9709ZM13.0518 19.837C13.0434 19.843 13.035 19.849 13.0266 19.8547C13.0373 19.8427 13.0478 19.831 13.0585 19.8194L13.0914 19.8161L13.0518 19.837ZM13.0938 2.15306C13.0941 2.17135 13.0914 2.19064 13.0965 2.20726C13.0992 2.21657 13.1149 2.22222 13.125 2.2292C13.1089 2.20693 13.0931 2.18498 13.077 2.16271L13.0518 2.14943L13.0938 2.15306ZM13.2181 12.8356L13.243 12.8742L13.1989 12.8549C13.1469 12.8038 13.0948 12.7529 13.0424 12.7017C12.7111 12.1845 12.2273 11.808 11.7818 11.4019C10.3542 10.1008 8.90847 8.81906 7.46879 7.53097C7.39925 7.46883 7.31827 7.41965 7.18119 7.31964C7.2625 7.83638 7.32197 8.28462 7.40731 8.7282C7.45267 8.96362 7.54237 9.19038 7.62368 9.4587C8.0749 9.47904 8.45994 9.69463 8.83657 9.91654C10.0401 10.6258 11.1989 11.4003 12.3133 12.2416C12.5428 12.4147 12.8109 12.5376 13.0612 12.6834C13.1133 12.7343 13.1657 12.7848 13.2181 12.8356ZM15.2461 17.9228C15.243 17.9311 15.24 17.9394 15.2373 17.9478C15.2444 17.9328 15.2518 17.9178 15.2588 17.9029C15.3139 17.8636 15.369 17.8243 15.4241 17.785C15.4678 17.7325 15.5115 17.6799 15.5548 17.6276L15.6002 17.6196L15.5757 17.6492C15.531 17.7008 15.486 17.7524 15.4413 17.804C15.3761 17.8436 15.3109 17.8832 15.2461 17.9228ZM16.5923 16.4634C16.5887 16.479 16.5853 16.4947 16.5816 16.5103C16.5796 16.4883 16.5779 16.4664 16.5759 16.4444C16.638 16.4062 16.7002 16.3676 16.7627 16.3293L16.798 16.3096L16.7808 16.3476C16.718 16.3858 16.6552 16.4248 16.5923 16.4634ZM20.776 11.9766C20.7545 11.976 20.732 11.9713 20.7115 11.9757C20.6984 11.9783 20.6879 11.9943 20.6765 12.0043C20.7031 11.9883 20.7299 11.9723 20.7568 11.9567C20.7958 11.8958 20.8351 11.8349 20.8741 11.7737L20.9151 11.7634L20.8926 11.7937C20.8536 11.8549 20.8149 11.9157 20.776 11.9766ZM12.1571 1.60459C12.1947 1.62486 12.2303 1.6541 12.2703 1.66239C12.2921 1.6667 12.3214 1.63575 12.3472 1.62044C12.3264 1.61646 12.3052 1.60816 12.2844 1.60951C12.2417 1.61219 12.1994 1.61986 12.1571 1.62554L12.155 1.57234L12.1571 1.60459ZM19.4505 12.4101C19.3259 12.4424 19.2016 12.4751 19.0769 12.5074C18.8676 12.4414 18.6583 12.375 18.3724 12.2847C18.4896 12.5241 18.5777 12.669 18.6328 12.8256C18.6922 12.9945 18.7215 13.1741 18.7722 13.3846C18.9781 13.17 19.219 13.0331 19.2489 12.7591C19.174 12.6557 19.1179 12.5776 19.0615 12.4998C19.1848 12.4645 19.3081 12.4295 19.4314 12.3942C19.508 12.3529 19.5856 12.3136 19.6595 12.2683C19.6706 12.2613 19.6726 12.2114 19.6656 12.2081C19.6303 12.1908 19.5611 12.1666 19.557 12.1736C19.516 12.2494 19.4848 12.3306 19.4505 12.4101ZM7.91935 16.1642C6.72863 14.818 5.53758 13.4719 4.32469 12.1009C3.75453 12.1658 3.12961 12.0524 2.58734 12.4229C2.76709 12.761 2.7644 12.764 3.07888 12.9637C3.57142 12.811 3.5899 12.7844 3.9541 13.0356C4.49469 13.4087 5.02386 13.8028 5.52515 14.2258C6.15746 14.7595 6.75652 15.3321 7.37136 15.8868C7.52961 16.0294 7.66131 16.2335 7.9301 16.1439C7.93715 16.2316 7.94421 16.3194 7.95126 16.4072C7.97109 16.4039 7.99091 16.4006 8.01073 16.3972C7.98016 16.3201 7.94958 16.242 7.91935 16.1642ZM11.5278 15.9494C11.5278 15.8576 11.5614 15.7452 11.5204 15.6777C11.4327 15.5344 11.3027 15.4168 11.1958 15.2845C10.078 13.9008 8.96156 12.5164 7.85518 11.1453C7.47451 11.2114 7.81855 11.6085 7.54271 11.7238C7.33407 11.811 7.1392 11.9309 6.88923 12.0617C7.24436 12.3415 7.55615 12.5738 7.85282 12.823C9.08688 13.8598 10.3166 14.9016 11.5476 15.9417C11.5409 15.9437 11.5345 15.9464 11.5278 15.9494ZM11.7334 4.06211C11.134 3.14928 10.5346 2.23678 9.9191 1.30002C9.00523 1.25004 8.1001 1.19972 7.19464 1.1514C7.12139 1.14745 7.04647 1.14917 6.97423 1.16085C6.75148 1.19624 6.57509 1.40752 6.62582 1.63462C6.83917 2.58992 6.77197 3.56568 6.84925 4.53037C6.88251 4.94405 6.94904 5.34241 7.06092 5.74573C7.38984 5.93342 7.71877 6.0985 8.02249 6.30084C8.32723 6.50384 8.60508 6.74576 8.89738 6.96706C9.18901 7.18836 9.48602 7.40302 9.77698 7.62532C10.0676 7.84728 10.3408 8.09486 10.6458 8.29487C10.9351 8.48458 11.1249 8.82866 11.6313 8.9341C10.6717 7.69925 9.79277 6.56512 8.91015 5.43331C8.44549 4.83733 7.96806 4.25067 7.50844 3.6507C7.12845 3.15476 6.91275 2.59952 6.92686 1.96367C6.9356 1.57424 7.17918 1.35693 7.53734 1.48142C7.83703 1.58532 8.12866 1.72015 8.41021 1.8673C9.43327 2.40175 10.3791 3.04965 11.26 3.79236C11.4004 3.91066 11.511 4.10713 11.7509 4.04679C11.7636 4.07771 11.7761 4.1083 11.7888 4.13922C11.7905 4.12393 11.7989 4.10164 11.7922 4.09499C11.7767 4.08004 11.7536 4.07274 11.7334 4.06211ZM13.2272 13.8762C13.2346 13.8696 13.2419 13.8626 13.2493 13.8559C13.2379 13.8686 13.2268 13.8815 13.2154 13.8942C13.0659 13.8151 12.9056 13.751 12.7689 13.6544C12.3096 13.3294 11.8668 12.9808 11.4025 12.6632C10.6569 12.1528 9.9658 11.5603 9.13425 11.1784C9.04622 11.1379 8.96593 11.0754 8.85572 11.2384C10.8031 13.3945 12.5515 15.7273 14.2764 18.0747C14.7781 17.7395 15.8166 16.6252 16.1462 16.0756C16.0571 15.9775 15.9624 15.8735 15.868 15.7691L15.8881 15.7402L15.8713 15.7834C15.8246 15.7688 15.7702 15.7652 15.7326 15.7383C14.902 15.1429 14.0732 14.5448 13.2453 13.9454C13.2302 13.9344 13.2329 13.8998 13.2272 13.8762ZM8.21165 17.7981C8.2859 17.973 8.33327 18.1659 8.43911 18.3195C9.10401 19.2825 9.78202 20.2361 10.3411 21.2664C10.3942 21.3644 10.495 21.4372 10.6008 21.5509C11.6669 20.7481 12.5646 19.825 13.5235 18.9272C13.4066 18.7839 13.33 18.6593 13.2248 18.5659C11.8886 17.3815 10.5702 16.1758 9.20178 15.0287C8.22811 14.2125 7.18825 13.4732 6.17023 12.7097C6.07246 12.6362 5.96024 12.4767 5.75664 12.6284C5.91321 12.8099 6.06675 12.9897 6.22231 13.1682C7.21614 14.3086 8.22475 15.4367 9.19977 16.5927C9.84485 17.3575 10.4483 18.1576 11.0561 18.9523C11.1847 19.1202 11.3114 19.3273 11.3336 19.5278C11.3615 19.7782 11.2805 20.0403 11.2378 20.3623C11.0624 20.2762 10.9217 20.2391 10.8229 20.1537C10.2668 19.6745 9.72054 19.1846 9.17222 18.6968C8.8443 18.405 8.51907 18.1102 8.1925 17.8168C8.17805 17.8055 8.16394 17.7942 8.14949 17.7829C8.17032 17.7879 8.19115 17.7932 8.21165 17.7981ZM13.4946 5.15047C13.5151 5.00746 13.5484 4.87574 13.5497 4.74371C13.5541 4.33101 13.5269 3.91733 13.549 3.50561C13.5682 3.14711 13.421 2.90809 13.1317 2.71738C12.6019 2.36819 12.0848 2.00037 11.551 1.65751C11.3692 1.54056 11.1548 1.47153 10.9516 1.39018C10.9196 1.37723 10.8676 1.41384 10.8118 1.4315C10.8306 1.49866 10.833 1.57748 10.8709 1.63133C11.684 2.78413 12.5008 3.93426 13.3202 5.08273C13.3427 5.11298 13.4039 5.11627 13.4946 5.15047ZM16.6108 15.6583C17.0523 15.1399 17.6446 14.8392 17.9447 14.1872C17.1306 13.7614 16.3965 13.2391 15.5763 12.8601C15.5488 12.8475 15.4957 12.8884 15.4171 12.9188C15.4786 13.07 15.5421 13.22 15.6005 13.3719C15.6435 13.4836 15.7396 13.6189 15.708 13.7071C15.581 14.06 15.7974 14.2833 16.0061 14.4698C16.3326 14.7615 16.5023 15.0986 16.5077 15.5273C16.5077 15.5459 16.5349 15.5639 16.6108 15.6583ZM17.6688 12.909C17.7085 12.8734 17.7478 12.8382 17.7874 12.8029C17.5304 12.3707 17.2734 11.9386 17.0392 11.545C16.1922 11.3203 15.6281 11.2944 15.1903 11.467C16.0101 11.9972 16.841 12.4506 17.6688 12.909ZM12.5478 1.40116C12.9194 1.71752 13.1825 1.9415 13.4607 2.17844C13.6992 1.92788 13.6602 1.68514 13.5941 1.40051C13.2873 1.4007 13.0047 1.40088 12.5478 1.40116ZM2.53728 12.0252C3.2425 12.0224 3.63559 11.953 4.24136 11.6942C3.59427 11.7389 3.0735 11.7505 2.56886 11.9084C2.54769 11.9148 2.54702 11.9846 2.53728 12.0252ZM19.4539 11.6861C19.5473 11.9252 19.7166 12.0504 19.9471 12.0044C20.0422 11.9854 20.1094 11.8321 20.2065 11.7199C19.9212 11.6047 19.6965 11.5759 19.4539 11.6861ZM15.8475 11.0196C15.8471 11.0096 15.8468 10.9993 15.8468 10.9893C15.7164 10.9894 15.5864 10.9895 15.4561 10.9896C15.4564 10.9996 15.4567 11.0099 15.4571 11.0198C15.5871 11.0198 15.7171 11.0197 15.8475 11.0196ZM2.44656 11.5593C2.44757 11.574 2.44891 11.5886 2.44992 11.6032C2.53357 11.6032 2.61724 11.6031 2.7009 11.6031C2.69989 11.5824 2.69922 11.5615 2.69854 11.5409C2.61455 11.5469 2.53055 11.553 2.44656 11.5593ZM3.78511 11.4714C3.78578 11.4614 3.78645 11.4514 3.78712 11.4414C3.72866 11.4375 3.6702 11.4335 3.61207 11.4296C3.6114 11.4396 3.61073 11.4495 3.61006 11.4598C3.66852 11.4638 3.72698 11.4674 3.78511 11.4714ZM12.3452 1.05809L12.2955 1.07109L12.3452 1.08403L12.3452 1.05809ZM8.7687 0.939918L8.7724 0.912981L8.72402 0.920328L8.7687 0.939918ZM18.1211 13.9217C18.1036 13.9171 18.0865 13.9128 18.069 13.9081C18.0804 13.9234 18.0915 13.9384 18.1029 13.9537C18.109 13.943 18.115 13.9324 18.1211 13.9217ZM20.6154 11.298L20.5613 11.2668L20.5515 11.3083L20.6154 11.298ZM13.4338 2.49937L13.4086 2.5383L13.4486 2.54327L13.4338 2.49937ZM12.6718 1.93716L12.7111 1.96474L12.7182 1.9235L12.6718 1.93716ZM8.44247 9.98662L8.4008 9.96137L8.3961 10.0019L8.44247 9.98662Z" fill="#F4A672"/>
</svg>
