<svg width="24" height="24" viewBox="0 0 24 24" fill="none" xmlns="http://www.w3.org/2000/svg">
<path d="M13.5548 4.00139C13.6543 4.10286 13.7537 4.20433 13.8529 4.30613L13.8409 4.2937C14.0496 4.54702 14.2463 4.81446 14.5856 4.90518L14.5896 4.8914C14.5952 4.91492 14.5933 4.94651 14.6079 4.96095C15.0851 5.43132 15.5642 5.90002 16.0427 6.36905L16.0341 6.35191C16.09 6.40836 16.1459 6.46514 16.2021 6.52192L16.1895 6.51553C16.7449 7.05545 17.2966 7.59974 17.8566 8.13462C18.5757 8.8217 19.3406 9.46007 19.9916 10.2201C20.1776 10.4371 20.4221 10.6027 20.6334 10.799C20.6983 10.8594 20.7379 10.9464 20.7965 11.015C21.0448 11.3063 21.2282 11.6628 21.5985 11.8321L21.5911 11.8153C21.6477 11.8724 21.7039 11.9295 21.7605 11.9866L21.7455 11.9793C21.9606 12.3018 22.1646 12.6334 22.4794 12.872L22.4684 12.8538C22.5236 12.9089 22.5789 12.9637 22.6344 13.0188L22.6201 13.0084C22.6964 13.133 22.7726 13.2573 22.8432 13.3729C22.7692 13.7237 22.489 13.8426 22.2433 13.9941C21.6 14.3909 20.9468 14.7712 20.3129 15.1828C18.6235 16.2798 17.1505 17.6311 15.8009 19.1276C14.9325 20.0905 14.0502 21.04 13.1715 21.9935C12.8132 22.3822 12.3897 22.6466 11.8483 22.6812C11.7802 22.6856 11.7144 22.7259 11.6555 22.7464C11.2713 22.5939 11.169 22.2525 11.1139 21.9165C11.0265 21.3844 11.0138 20.8401 10.925 20.3082C10.7745 19.4061 10.8837 18.4942 10.7863 17.5921C10.7713 17.4514 10.7233 17.3143 10.6916 17.1812C10.3474 17.0747 10.0468 17.1322 9.73324 17.2074C8.97812 17.3889 8.216 17.5401 7.45587 17.699C7.3375 17.7238 7.21413 17.7343 7.09308 17.7346C6.09142 17.7366 5.11384 17.952 4.12489 18.0655C3.95663 18.0847 3.77676 18.1536 3.62277 18.1153C3.15812 17.9993 2.70787 18.0571 2.24966 18.1371C1.72395 18.2288 1.1865 18.1694 0.655485 18.2893C0.25448 18.38 -0.00609714 18.0729 0.0105899 17.6318C0.0475604 16.65 0.10248 15.6687 0.130804 14.6866C0.165643 13.4838 0.179865 12.2803 0.206389 11.0771C0.210273 10.9055 0.236772 10.7344 0.243316 10.5631C0.257716 10.1865 0.346653 9.87702 0.803908 9.86425C0.985812 9.85921 0.983004 9.63243 1.18117 9.578C1.49871 9.49098 1.80598 9.46309 2.10964 9.52457C3.07451 9.72045 4.04284 9.61966 5.01057 9.6032C5.61381 9.59278 6.21705 9.57027 6.8203 9.55616C7.74113 9.53499 8.6623 9.51853 9.58313 9.49535C9.95891 9.48594 10.0433 9.41303 10.096 9.02934C10.1427 8.68933 10.1747 8.34663 10.1984 8.00393C10.299 6.55753 10.4168 5.11214 10.4072 3.65936C10.4043 3.19672 10.5051 2.73441 10.4011 2.26975C10.3877 2.21062 10.4429 2.13636 10.4545 2.10209C10.8931 1.99861 11.3007 1.90252 11.7353 1.80005C12.1423 2.20961 12.4957 2.66117 12.784 3.17354C12.8989 3.37781 13.1009 3.53236 13.2633 3.70943L13.2549 3.69263C13.3115 3.74974 13.3677 3.80686 13.4243 3.86398L13.403 3.83979C13.4593 3.89623 13.5151 3.95301 13.5711 4.00946L13.5548 4.00139ZM17.8183 15.078L17.8386 15.0457L17.832 15.075C17.8153 15.076 17.7984 15.0773 17.7817 15.0783C17.794 15.0783 17.8063 15.078 17.8183 15.078ZM7.41489 14.8845L7.45347 14.8922L7.39993 14.9036C7.39528 14.913 7.39063 14.9221 7.38598 14.9315C7.39561 14.9157 7.40525 14.9003 7.41489 14.8845ZM18.4142 14.5028L18.4305 14.4598L18.4358 14.4981L18.3787 14.5048L18.4142 14.5028ZM22.0166 13.0409C22.0252 13.043 22.0339 13.045 22.0425 13.0473C22.0269 13.0413 22.0116 13.0349 21.9959 13.0289L22.0046 12.9949L22.0166 13.0409ZM21.5938 12.8575L21.6217 12.8793L21.5788 12.8639L21.5685 12.83L21.5938 12.8575ZM16.0561 12.842L16.0833 12.8249L16.0611 12.8511L16.0305 12.88L16.0561 12.842ZM21.1323 12.4493L21.1735 12.4436L21.112 12.4543L21.1156 12.4059L21.1323 12.4493ZM10.6195 11.7975C10.7269 11.8254 10.7778 11.7767 10.7863 11.6712C10.8512 11.647 10.935 11.6409 10.9778 11.5956C11.5408 10.9972 12.0998 10.3951 12.6525 9.78731C12.6874 9.74868 12.6654 9.65695 12.67 9.59009C12.6879 9.58001 12.7062 9.57027 12.7242 9.56019C12.7105 9.57564 12.6969 9.59144 12.6833 9.60689C12.519 9.61831 12.3527 9.65225 12.1908 9.63646C11.9181 9.60991 11.6172 9.6798 11.3935 9.4426C11.3872 9.43655 11.3809 9.43084 11.3746 9.42513C11.3875 9.43353 11.4005 9.44192 11.4135 9.45032C11.3973 9.63982 11.3811 9.82897 11.3646 10.0235C10.8733 10.3568 10.6742 10.4562 10.3871 10.4102C9.17553 10.216 7.96415 10.4092 6.78954 10.3669C6.40107 10.8295 6.03818 11.2576 5.67929 11.689C5.21041 12.2531 4.71158 12.7953 4.28561 13.391C3.7603 14.1262 3.28589 14.8996 2.81514 15.6723C2.71746 15.8326 2.52537 16.0281 2.73174 16.3161C2.92089 16.2082 3.1197 16.1212 3.28823 15.9939C3.65752 15.7143 4.00586 15.4069 4.37216 15.1237C5.99292 13.8712 7.63165 12.6418 9.23211 11.3634C9.74832 10.9508 10.2771 10.9868 10.8977 11.0136C10.8589 11.2747 10.8288 11.48 10.7983 11.6849C10.7451 11.7283 10.692 11.7716 10.6384 11.815C10.6195 11.8287 10.5972 11.8402 10.5829 11.8576C10.5766 11.8653 10.5863 11.8862 10.5889 11.9013C10.5992 11.8667 10.6095 11.8321 10.6195 11.7975ZM20.4865 11.4262L20.4934 11.3839L20.5004 11.4219C20.409 11.4219 20.3172 11.4219 20.2258 11.4219C20.2321 11.4229 20.2384 11.4235 20.2447 11.4245C20.3252 11.4249 20.4057 11.4256 20.4865 11.4262ZM12.9709 11.1924L13.0055 11.1954L12.959 11.2119C12.9536 11.2196 12.9483 11.2273 12.943 11.2351C12.9523 11.2209 12.9616 11.2065 12.9709 11.1924ZM19.837 10.9485C19.843 10.9569 19.849 10.9653 19.8547 10.9737C19.8427 10.9629 19.831 10.9525 19.8194 10.9417L19.8161 10.9088L19.837 10.9485ZM2.15306 10.9065C2.17135 10.9061 2.19064 10.9088 2.20726 10.9038C2.21657 10.9011 2.22222 10.8853 2.2292 10.8752C2.20693 10.8913 2.18498 10.9071 2.16271 10.9233L2.14943 10.9485L2.15306 10.9065ZM12.8356 10.7822L12.8742 10.7573L12.8549 10.8013C12.8038 10.8534 12.7529 10.9055 12.7017 10.9579C12.1845 11.2891 11.808 11.773 11.4019 12.2185C10.1008 13.646 8.81906 15.0918 7.53097 16.5314C7.46883 16.601 7.41965 16.682 7.31964 16.8191C7.83638 16.7377 8.28462 16.6783 8.7282 16.5929C8.96362 16.5476 9.19038 16.4579 9.4587 16.3766C9.47904 15.9253 9.69463 15.5403 9.91654 15.1637C10.6258 13.9602 11.4003 12.8014 12.2416 11.6869C12.4147 11.4575 12.5376 11.1894 12.6834 10.9391C12.7343 10.887 12.7848 10.8346 12.8356 10.7822ZM17.9228 8.75417C17.9311 8.7572 17.9394 8.76022 17.9478 8.76291C17.9328 8.75585 17.9178 8.74846 17.9029 8.7414C17.8636 8.6863 17.8243 8.6312 17.785 8.5761C17.7325 8.53243 17.6799 8.48875 17.6276 8.44541L17.6196 8.40005L17.6492 8.42457C17.7008 8.46926 17.7524 8.51428 17.804 8.55897C17.8436 8.62415 17.8832 8.68933 17.9228 8.75417ZM16.4634 7.4079C16.479 7.41159 16.4947 7.41495 16.5103 7.41865C16.4883 7.42067 16.4664 7.42235 16.4444 7.42436C16.4062 7.36221 16.3676 7.30005 16.3293 7.23756L16.3096 7.20228L16.3476 7.21941C16.3858 7.28224 16.4248 7.34507 16.4634 7.4079ZM11.9766 3.22427C11.976 3.24577 11.9713 3.26828 11.9757 3.28878C11.9783 3.30188 11.9943 3.3123 12.0043 3.32372C11.9883 3.29718 11.9723 3.2703 11.9567 3.24342C11.8958 3.20445 11.8349 3.16514 11.7737 3.12616L11.7634 3.08517L11.7937 3.10768C11.8549 3.14666 11.9157 3.1853 11.9766 3.22427ZM1.60459 11.8432C1.62486 11.8055 1.6541 11.7699 1.66239 11.73C1.6667 11.7081 1.63575 11.6789 1.62044 11.653C1.61646 11.6738 1.60816 11.695 1.60951 11.7158C1.61219 11.7585 1.61986 11.8008 1.62554 11.8432L1.57234 11.8452L1.60459 11.8432ZM12.4101 4.54971C12.4424 4.67436 12.4751 4.79867 12.5074 4.92332C12.4414 5.13264 12.375 5.34195 12.2847 5.62787C12.5241 5.51062 12.669 5.42259 12.8256 5.36749C12.9945 5.30802 13.1741 5.27879 13.3846 5.22806C13.17 5.0221 13.0331 4.7812 12.7591 4.7513C12.6557 4.82622 12.5776 4.88233 12.4998 4.93878C12.4645 4.81547 12.4295 4.69217 12.3942 4.56886C12.3529 4.49226 12.3136 4.41465 12.2683 4.34073C12.2613 4.32964 12.2114 4.32763 12.2081 4.33469C12.1908 4.36996 12.1666 4.43917 12.1736 4.44321C12.2494 4.4842 12.3306 4.51544 12.4101 4.54971ZM16.1642 16.0809C14.818 17.2716 13.4719 18.4627 12.1009 19.6756C12.1658 20.2457 12.0524 20.8706 12.4229 21.4129C12.761 21.2332 12.764 21.2358 12.9637 20.9214C12.811 20.4288 12.7844 20.4103 13.0356 20.0461C13.4087 19.5055 13.8028 18.9764 14.2258 18.4751C14.7595 17.8428 15.3321 17.2437 15.8868 16.6289C16.0294 16.4706 16.2335 16.3389 16.1439 16.0701C16.2316 16.0631 16.3194 16.056 16.4072 16.049C16.4039 16.0292 16.4006 16.0093 16.3972 15.9895C16.3201 16.0201 16.242 16.0507 16.1642 16.0809ZM15.9494 12.4725C15.8576 12.4725 15.7452 12.4389 15.6777 12.4799C15.5344 12.5676 15.4168 12.6976 15.2845 12.8044C13.9008 13.9222 12.5164 15.0387 11.1453 16.1451C11.2114 16.5257 11.6085 16.1817 11.7238 16.4575C11.811 16.6662 11.9309 16.861 12.0617 17.111C12.3415 16.7559 12.5738 16.4441 12.823 16.1474C13.8598 14.9134 14.9016 13.6837 15.9417 12.4526C15.9437 12.4594 15.9464 12.4657 15.9494 12.4725ZM4.06211 12.2668C3.14928 12.8662 2.23678 13.4656 1.30002 14.0811C1.25004 14.995 1.19972 15.9001 1.1514 16.8056C1.14745 16.8789 1.14917 16.9538 1.16085 17.026C1.19624 17.2488 1.40752 17.4252 1.63462 17.3744C2.58992 17.1611 3.56568 17.2283 4.53037 17.151C4.94405 17.1177 5.34241 17.0512 5.74573 16.9393C5.93342 16.6104 6.0985 16.2815 6.30084 15.9778C6.50384 15.673 6.74576 15.3952 6.96706 15.1029C7.18836 14.8112 7.40302 14.5142 7.62532 14.2233C7.84728 13.9326 8.09486 13.6595 8.29487 13.3544C8.48458 13.0651 8.82866 12.8753 8.9341 12.369C7.69925 13.3285 6.56512 14.2075 5.43331 15.0901C4.83733 15.5548 4.25067 16.0322 3.6507 16.4918C3.15476 16.8718 2.59952 17.0875 1.96367 17.0734C1.57424 17.0646 1.35693 16.8211 1.48142 16.4629C1.58532 16.1632 1.72015 15.8716 1.8673 15.59C2.40175 14.567 3.04965 13.6212 3.79236 12.7402C3.91066 12.5998 4.10713 12.4893 4.04679 12.2494C4.07771 12.2366 4.1083 12.2242 4.13922 12.2114C4.12393 12.2097 4.10164 12.2013 4.09499 12.2081C4.08004 12.2235 4.07274 12.2467 4.06211 12.2668ZM13.8762 10.7731C13.8696 10.7657 13.8626 10.7583 13.8559 10.7509C13.8686 10.7623 13.8815 10.7734 13.8942 10.7848C13.8151 10.9343 13.751 11.0946 13.6544 11.2314C13.3294 11.6906 12.9808 12.1335 12.6632 12.5978C12.1528 13.3433 11.5603 14.0344 11.1784 14.866C11.1379 14.954 11.0754 15.0343 11.2384 15.1445C13.3945 13.1972 15.7273 11.4487 18.0747 9.72381C17.7395 9.22219 16.6252 8.18368 16.0756 7.85408C15.9775 7.94312 15.8735 8.03786 15.7691 8.13227L15.7402 8.11211L15.7834 8.12891C15.7688 8.17561 15.7652 8.23004 15.7383 8.26767C15.1429 9.09822 14.5448 9.92708 13.9454 10.7549C13.9344 10.7701 13.8998 10.7674 13.8762 10.7731ZM17.7981 15.7886C17.973 15.7143 18.1659 15.667 18.3195 15.5611C19.2825 14.8962 20.2361 14.2182 21.2664 13.6592C21.3644 13.6061 21.4372 13.5053 21.5509 13.3994C20.7481 12.3334 19.825 11.4356 18.9272 10.4767C18.7839 10.5937 18.6593 10.6703 18.5659 10.7754C17.3815 12.1116 16.1758 13.43 15.0287 14.7985C14.2125 15.7721 13.4732 16.812 12.7097 17.83C12.6362 17.9278 12.4767 18.04 12.6284 18.2436C12.8099 18.087 12.9897 17.9335 13.1682 17.7779C14.3086 16.7841 15.4367 15.7755 16.5927 14.8005C17.3575 14.1554 18.1576 13.552 18.9523 12.9442C19.1202 12.8155 19.3273 12.6888 19.5278 12.6667C19.7782 12.6388 20.0403 12.7198 20.3623 12.7624C20.2762 12.9378 20.2391 13.0786 20.1537 13.1774C19.6745 13.7334 19.1846 14.2797 18.6968 14.828C18.405 15.1559 18.1102 15.4812 17.8168 15.8077C17.8055 15.8222 17.7942 15.8363 17.7829 15.8508C17.7879 15.8299 17.7932 15.8091 17.7981 15.7886ZM5.15047 10.5056C5.00746 10.4851 4.87574 10.4519 4.74371 10.4505C4.33101 10.4462 3.91733 10.4734 3.50561 10.4512C3.14711 10.4321 2.90809 10.5792 2.71738 10.8685C2.36819 11.3983 2.00037 11.9154 1.65751 12.4493C1.54056 12.631 1.47153 12.8454 1.39018 13.0487C1.37723 13.0806 1.41384 13.1327 1.4315 13.1884C1.49866 13.1696 1.57748 13.1673 1.63133 13.1293C2.78413 12.3162 3.93426 11.4995 5.08273 10.68C5.11298 10.6575 5.11627 10.5964 5.15047 10.5056ZM15.6583 7.38942C15.1399 6.94794 14.8392 6.35561 14.1872 6.05558C13.7614 6.86966 13.2391 7.60377 12.8601 8.4239C12.8475 8.45145 12.8884 8.50454 12.9188 8.58316C13.07 8.52167 13.22 8.45817 13.3719 8.39971C13.4836 8.35671 13.6189 8.26062 13.7071 8.2922C14.06 8.4192 14.2833 8.20283 14.4698 7.99418C14.7615 7.66761 15.0986 7.49794 15.5273 7.49257C15.5459 7.49257 15.5639 7.46535 15.6583 7.38942ZM12.909 6.33142C12.8734 6.29177 12.8382 6.25246 12.8029 6.21281C12.3707 6.46984 11.9386 6.72687 11.545 6.96104C11.3203 7.80805 11.2944 8.37216 11.467 8.80995C11.9972 7.99015 12.4506 7.15927 12.909 6.33142ZM1.40116 11.4524C1.71752 11.0808 1.9415 10.8178 2.17844 10.5396C1.92788 10.301 1.68514 10.34 1.40051 10.4062C1.4007 10.7129 1.40088 10.9955 1.40116 11.4524ZM12.0252 21.463C12.0224 20.7577 11.953 20.3647 11.6942 19.7589C11.7389 20.406 11.7505 20.9267 11.9084 21.4314C11.9148 21.4526 11.9846 21.4532 12.0252 21.463ZM11.6861 4.54635C11.9252 4.45295 12.0504 4.28361 12.0044 4.05313C11.9854 3.95805 11.8321 3.89085 11.7199 3.79376C11.6047 4.079 11.5759 4.30377 11.6861 4.54635ZM11.0196 8.15277C11.0096 8.1531 10.9993 8.15344 10.9893 8.15344C10.9894 8.2838 10.9895 8.41382 10.9896 8.54418C10.9996 8.54385 11.0099 8.54351 11.0198 8.54318C11.0198 8.41315 11.0197 8.28313 11.0196 8.15277ZM11.5593 21.5537C11.574 21.5527 11.5886 21.5513 11.6032 21.5503C11.6032 21.4667 11.6031 21.383 11.6031 21.2993C11.5824 21.3004 11.5615 21.301 11.5409 21.3017C11.5469 21.3857 11.553 21.4697 11.5593 21.5537ZM11.4714 20.2151C11.4614 20.2145 11.4514 20.2138 11.4414 20.2131C11.4375 20.2716 11.4335 20.33 11.4296 20.3882C11.4396 20.3888 11.4495 20.3895 11.4598 20.3902C11.4638 20.3317 11.4674 20.2733 11.4714 20.2151ZM1.05809 11.655L1.07109 11.7048L1.08403 11.655L1.05809 11.655ZM0.939918 15.2315L0.912981 15.2278L0.920328 15.2762L0.939918 15.2315ZM13.9217 5.87919C13.9171 5.89666 13.9128 5.91379 13.9081 5.93126C13.9234 5.91984 13.9384 5.90875 13.9537 5.89733C13.943 5.89128 13.9324 5.88524 13.9217 5.87919ZM11.298 3.38487L11.2668 3.43896L11.3083 3.4487L11.298 3.38487ZM2.49937 10.5665L2.5383 10.5917L2.54327 10.5517L2.49937 10.5665ZM1.93716 11.3285L1.96474 11.2891L1.9235 11.2821L1.93716 11.3285ZM9.98662 15.5578L9.96137 15.5994L10.0019 15.6041L9.98662 15.5578Z" fill="url(#paint0_linear_3188_28082)"/>
<defs>
<linearGradient id="paint0_linear_3188_28082" x1="20.546" y1="284.576" x2="3.49356" y2="284.572" gradientUnits="userSpaceOnUse">
<stop stop-color="#E29E6E"/>
<stop offset="0.385" stop-color="#E5DDA3"/>
<stop offset="0.735" stop-color="#2AEBEB"/>
</linearGradient>
</defs>
</svg>
