<svg width="24" height="22" viewBox="0 0 24 22" fill="none" xmlns="http://www.w3.org/2000/svg">
<path d="M14.0772 2.3001C14.1808 2.40393 14.2844 2.50777 14.3877 2.61194L14.3752 2.59922C14.5927 2.85863 14.7978 3.13258 15.1503 3.22437L15.1544 3.2102C15.1603 3.23434 15.1584 3.26679 15.1736 3.28158C15.6706 3.76286 16.1696 4.2424 16.6679 4.72229L16.6588 4.70472C16.717 4.76248 16.7753 4.82059 16.8338 4.87869L16.8207 4.87218C17.399 5.42459 17.9736 5.9815 18.5567 6.52871C19.3055 7.23163 20.1017 7.88431 20.78 8.66242C20.9739 8.88464 21.2283 9.0538 21.4483 9.25451C21.5158 9.31638 21.5572 9.40561 21.6183 9.47579C21.877 9.77403 22.0686 10.1395 22.4535 10.312L22.4459 10.2947C22.5048 10.3532 22.5634 10.4116 22.6223 10.4701L22.6067 10.4625C22.831 10.793 23.044 11.1329 23.3715 11.3766L23.36 11.358C23.4176 11.4144 23.4751 11.4705 23.533 11.5268L23.5181 11.5162C23.5976 11.6439 23.6772 11.7714 23.7509 11.8898C23.6753 12.2505 23.3848 12.3738 23.1304 12.5305C22.4641 12.9409 21.7873 13.3343 21.1308 13.7598C19.381 14.8939 17.8567 16.2883 16.4611 17.8314C15.5631 18.8243 14.6505 19.8035 13.7417 20.7868C13.3712 21.1876 12.9326 21.461 12.3707 21.4988C12.3 21.5036 12.2318 21.5453 12.1708 21.5666C11.7715 21.4115 11.6641 21.0612 11.6058 20.7162C11.5131 20.1698 11.4981 19.6107 11.4041 19.0646C11.2447 18.1384 11.3549 17.2011 11.2508 16.2747C11.2346 16.1301 11.1844 15.9895 11.151 15.8529C10.7933 15.745 10.4815 15.8052 10.1563 15.8839C9.37315 16.0734 8.58261 16.2319 7.79417 16.3983C7.67138 16.4243 7.54336 16.4356 7.41771 16.4364C6.37802 16.4426 5.36406 16.668 4.33794 16.7887C4.16336 16.8091 3.9769 16.8806 3.81692 16.8419C3.33422 16.7248 2.86708 16.786 2.39175 16.8701C1.84638 16.9665 1.28832 16.9076 0.737551 17.033C0.32163 17.1279 0.0500919 16.8135 0.0658832 16.3602C0.100854 15.3514 0.154457 14.3429 0.180452 13.3338C0.212443 12.0979 0.223033 10.8614 0.246393 9.62515C0.249829 9.44874 0.276741 9.27293 0.28294 9.09686C0.29658 8.70984 0.387822 8.39156 0.862399 8.37654C1.0512 8.37061 1.04749 8.13762 1.253 8.08088C1.5823 7.99016 1.90114 7.96023 2.21655 8.02214C3.21873 8.21937 4.2235 8.1118 5.22792 8.09087C5.85404 8.07766 6.48011 8.05203 7.10622 8.03503C8.06195 8.00946 9.01805 7.98872 9.97377 7.96107C10.3638 7.94985 10.4512 7.87459 10.5045 7.48017C10.5517 7.13065 10.5838 6.77843 10.6073 6.42624C10.7066 4.93979 10.8239 3.45431 10.809 1.96177C10.8043 1.48646 10.9073 1.01106 10.7977 0.534104C10.7837 0.473407 10.8407 0.396891 10.8526 0.361634C11.3075 0.253496 11.7303 0.153082 12.181 0.0459952C12.6049 0.465087 12.9733 0.927549 13.2743 1.45276C13.3943 1.66216 13.6044 1.8201 13.7736 2.00134L13.7649 1.98412C13.8238 2.04256 13.8824 2.10101 13.9413 2.15946L13.9191 2.13469C13.9777 2.19245 14.0359 2.25056 14.0941 2.30831L14.0772 2.3001ZM18.5411 13.6625L18.562 13.6293L18.5552 13.6593C18.538 13.6604 18.5204 13.6619 18.5031 13.663C18.5159 13.6629 18.5287 13.6625 18.5411 13.6625ZM7.74186 13.5069L7.78193 13.5146L7.7264 13.5266C7.72161 13.5363 7.71682 13.5456 7.71202 13.5553C7.72197 13.539 7.73192 13.5231 7.74186 13.5069ZM19.1576 13.0691L19.1744 13.0248L19.1801 13.0641L19.1207 13.0713L19.1576 13.0691ZM22.8917 11.5522C22.9007 11.5542 22.9097 11.5563 22.9187 11.5586C22.9024 11.5525 22.8865 11.546 22.8703 11.5399L22.8791 11.505L22.8917 11.5522ZM22.4522 11.3655L22.4813 11.3878L22.4367 11.3721L22.4259 11.3373L22.4522 11.3655ZM16.7041 11.3726L16.7324 11.3549L16.7094 11.3819L16.6777 11.4117L16.7041 11.3726ZM21.9718 10.948L22.0146 10.942L21.9507 10.9533L21.9543 10.9035L21.9718 10.948ZM11.0574 10.322C11.1691 10.3502 11.2217 10.2999 11.2302 10.1915C11.2974 10.1664 11.3844 10.1598 11.4287 10.113C12.011 9.49592 12.5891 8.87503 13.1607 8.2483C13.1968 8.20846 13.1736 8.11431 13.1782 8.0456C13.1968 8.03517 13.2157 8.02508 13.2343 8.01465C13.2202 8.03059 13.2061 8.04687 13.192 8.0628C13.0216 8.07522 12.8491 8.11077 12.6809 8.09522C12.3978 8.06909 12.0857 8.14214 11.8527 7.89936C11.8462 7.89318 11.8396 7.88733 11.833 7.88149C11.8465 7.89007 11.86 7.89864 11.8735 7.90722C11.8573 8.10197 11.8412 8.29637 11.8247 8.49631C11.3159 8.84077 11.1096 8.94377 10.8115 8.89767C9.55319 8.70319 8.29647 8.9067 7.0771 8.86809C6.67548 9.34502 6.3003 9.78629 5.92927 10.231C5.44454 10.8125 4.92864 11.3717 4.48856 11.9855C3.94585 12.743 3.4561 13.5395 2.97015 14.3354C2.86932 14.5005 2.67062 14.7022 2.88582 14.9971C3.08178 14.8856 3.28784 14.7953 3.46232 14.6638C3.84468 14.3751 4.20517 14.0578 4.5844 13.7653C6.26238 12.4717 7.95909 11.2018 9.6159 9.88177C10.1503 9.45573 10.6993 9.49047 11.3435 9.51551C11.3042 9.78388 11.2736 9.99492 11.2427 10.2056C11.1876 10.2504 11.1326 10.2951 11.0772 10.3399C11.0576 10.3541 11.0345 10.3659 11.0197 10.3839C11.0132 10.3919 11.0233 10.4133 11.0261 10.4288C11.0367 10.3932 11.0472 10.3576 11.0574 10.322ZM21.2979 9.89958L21.305 9.85606L21.3124 9.89503C21.2175 9.89541 21.1222 9.8958 21.0273 9.89618C21.0338 9.89718 21.0404 9.89785 21.047 9.89886C21.1305 9.89887 21.214 9.89923 21.2979 9.89958ZM13.4961 9.69054L13.532 9.6935L13.4838 9.71061C13.4783 9.71857 13.4728 9.72653 13.4673 9.73449C13.4769 9.71996 13.4865 9.70508 13.4961 9.69054ZM20.6221 9.41142C20.6284 9.42003 20.6346 9.42863 20.6405 9.43724C20.6281 9.42624 20.6159 9.41559 20.6038 9.40459L20.6002 9.37078L20.6221 9.41142ZM2.26641 9.44171C2.28539 9.44129 2.30542 9.44397 2.32266 9.43872C2.33231 9.43592 2.33812 9.41967 2.34533 9.40929C2.32227 9.42595 2.29954 9.44227 2.27648 9.45893L2.26279 9.48487L2.26641 9.44171ZM13.3543 9.26963L13.3942 9.24393L13.3744 9.28922C13.3214 9.34294 13.2688 9.39666 13.2159 9.45072C12.6801 9.79322 12.291 10.2919 11.8711 10.7513C10.5255 12.2234 9.20009 13.714 7.86807 15.1985C7.8038 15.2702 7.75304 15.3536 7.64971 15.4948C8.18579 15.4092 8.65085 15.3462 9.11098 15.2567C9.35518 15.2091 9.59024 15.116 9.86847 15.0313C9.88802 14.5677 10.1105 14.1712 10.3395 13.7833C11.0715 12.5439 11.8714 11.3502 12.7408 10.2017C12.9197 9.9652 13.0463 9.68923 13.1968 9.43146C13.2494 9.37775 13.3017 9.32369 13.3543 9.26963ZM18.6276 7.16496C18.6363 7.16803 18.6449 7.17111 18.6535 7.17383C18.638 7.16665 18.6224 7.15911 18.6069 7.15193C18.5659 7.09548 18.5249 7.03903 18.484 6.98259C18.4293 6.93793 18.3745 6.89327 18.3202 6.84896L18.3117 6.80239L18.3425 6.82747C18.3962 6.87317 18.4499 6.91921 18.5036 6.9649C18.5449 7.0317 18.5863 7.09851 18.6276 7.16496ZM17.1081 5.78786C17.1243 5.79159 17.1406 5.79498 17.1568 5.79871C17.134 5.80088 17.1113 5.80269 17.0885 5.80485C17.0485 5.74115 17.0083 5.67746 16.9683 5.61341L16.9478 5.57725L16.9872 5.59469C17.0272 5.65908 17.0678 5.72347 17.1081 5.78786ZM12.4364 1.50824C12.4358 1.53033 12.4311 1.55348 12.4357 1.57452C12.4385 1.58797 12.4551 1.5986 12.4655 1.6103C12.4488 1.58309 12.4321 1.55554 12.4158 1.52799C12.3525 1.48821 12.2891 1.44807 12.2255 1.40828L12.2146 1.36621L12.2461 1.38922C12.3098 1.429 12.3731 1.46845 12.4364 1.50824ZM1.70036 10.4064C1.72126 10.3676 1.75149 10.3309 1.75996 10.2898C1.76435 10.2673 1.73213 10.2374 1.71614 10.2109C1.71209 10.2323 1.70355 10.2541 1.70501 10.2755C1.70795 10.3193 1.71606 10.3628 1.7221 10.4063L1.66689 10.4086L1.70036 10.4064ZM12.891 2.8682C12.925 2.99613 12.9593 3.12371 12.9933 3.25164C12.9255 3.46696 12.8573 3.68229 12.7646 3.97642C13.0126 3.85495 13.1628 3.76391 13.3251 3.70665C13.5002 3.64485 13.6865 3.61408 13.9048 3.56108C13.6813 3.35037 13.5384 3.10344 13.2539 3.07386C13.1468 3.15126 13.066 3.20923 12.9854 3.26755C12.9483 3.14101 12.9116 3.01447 12.8745 2.88794C12.8314 2.80941 12.7903 2.72983 12.7431 2.65408C12.7358 2.64272 12.684 2.64085 12.6806 2.64812C12.6627 2.68443 12.6378 2.75564 12.6451 2.75975C12.724 2.80155 12.8083 2.83332 12.891 2.8682ZM16.8276 14.6997C15.4345 15.9287 14.0414 17.1579 12.6225 18.4098C12.6918 18.9953 12.5763 19.6378 12.9627 20.1934C13.313 20.0073 13.3161 20.01 13.5223 19.6861C13.3622 19.1807 13.3345 19.1618 13.5939 18.7866C13.9794 18.2297 14.3866 17.6844 14.8239 17.1676C15.3757 16.5157 15.968 15.8979 16.5416 15.2639C16.689 15.1007 16.9004 14.9646 16.8065 14.6888C16.8976 14.6812 16.9887 14.6735 17.0798 14.6659C17.0762 14.6456 17.0727 14.6252 17.0692 14.6049C16.9892 14.6366 16.9082 14.6683 16.8276 14.6997ZM16.5922 10.9933C16.4969 10.9937 16.3801 10.9597 16.3102 11.0021C16.1618 11.0927 16.0401 11.2268 15.9032 11.3371C14.4707 12.4913 13.0376 13.6441 11.6183 14.7865C11.6882 15.1773 12.0993 14.8222 12.2199 15.1051C12.3112 15.3191 12.4362 15.5188 12.5729 15.7751C12.8621 15.4091 13.1021 15.0878 13.3598 14.782C14.4317 13.5098 15.5088 12.2421 16.5841 10.973C16.5862 10.9799 16.589 10.9864 16.5922 10.9933ZM4.25267 10.8314C3.30726 11.451 2.36218 12.0706 1.39198 12.7069C1.34327 13.646 1.29418 14.5762 1.24715 15.5066C1.24331 15.5819 1.24535 15.6589 1.25773 15.733C1.29524 15.9618 1.51515 16.1421 1.7507 16.089C2.74154 15.8659 3.75459 15.9309 4.75566 15.8475C5.18493 15.8116 5.59819 15.7416 6.01644 15.6249C6.21012 15.2862 6.38033 14.9476 6.5893 14.6347C6.79895 14.3208 7.0491 14.0343 7.27779 13.7331C7.50648 13.4326 7.72826 13.1265 7.95799 12.8267C8.18738 12.5272 8.44342 12.2455 8.64996 11.9312C8.84588 11.6332 9.20237 11.4368 9.31005 10.9161C8.03164 11.9071 6.85747 12.8148 5.68574 13.7263C5.06874 14.2062 4.46145 14.6992 3.84028 15.1739C3.32683 15.5663 2.75126 15.7902 2.0912 15.7784C1.68696 15.771 1.46055 15.5217 1.58852 15.1532C1.69533 14.8448 1.83427 14.5447 1.98603 14.2548C2.53723 13.2015 3.20646 12.2271 3.97432 11.3189C4.09663 11.1742 4.30018 11.0598 4.23672 10.8136C4.26877 10.8003 4.30048 10.7874 4.33253 10.7742C4.31664 10.7725 4.29348 10.764 4.2866 10.7709C4.27113 10.7868 4.26364 10.8107 4.25267 10.8314ZM14.4343 9.25599C14.4274 9.24842 14.4201 9.24086 14.4132 9.23329C14.4263 9.24498 14.4399 9.25631 14.453 9.268C14.3715 9.42193 14.3055 9.58685 14.2056 9.72774C13.8699 10.201 13.5096 10.6574 13.1816 11.1357C12.6544 11.9038 12.0418 12.6163 11.6482 13.4723C11.6065 13.5629 11.5419 13.6456 11.7115 13.7582C13.9427 11.7485 16.3581 9.94247 18.7887 8.16054C18.439 7.64657 17.2787 6.58422 16.7071 6.24788C16.6056 6.33976 16.498 6.43754 16.39 6.53497L16.3599 6.51437L16.4048 6.53146C16.3898 6.5795 16.3862 6.63543 16.3584 6.67421C15.7433 7.52998 15.1254 8.38403 14.506 9.23706C14.4947 9.25264 14.4588 9.25002 14.4343 9.25599ZM18.5226 14.3926C18.7039 14.3156 18.9039 14.2662 19.0629 14.1568C20.0602 13.4697 21.0477 12.7691 22.1152 12.1905C22.2168 12.1355 22.292 12.0316 22.4096 11.9224C21.5726 10.8305 20.6114 9.912 19.6761 8.93056C19.5278 9.05128 19.3987 9.1305 19.3021 9.23893C18.0774 10.6167 16.8305 11.9762 15.6445 13.3869C14.8007 14.3906 14.037 15.462 13.2479 16.5111C13.172 16.6119 13.0068 16.7278 13.1651 16.9364C13.3529 16.7748 13.539 16.6163 13.7237 16.4557C14.904 15.4299 16.0714 14.389 17.2679 13.3825C18.0596 12.7165 18.8879 12.0932 19.7108 11.4655C19.8846 11.3326 20.0991 11.2016 20.3072 11.178C20.567 11.1483 20.8393 11.2304 21.1736 11.2729C21.0849 11.4534 21.0468 11.5982 20.9585 11.7001C20.4631 12.2733 19.9565 12.8367 19.452 13.402C19.1503 13.7401 18.8455 14.0755 18.542 14.4122C18.5303 14.4271 18.5187 14.4417 18.507 14.4566C18.5121 14.4351 18.5175 14.4137 18.5226 14.3926ZM5.37626 9.01746C5.22775 8.99699 5.09091 8.96337 4.95387 8.96254C4.52547 8.95976 4.09618 8.98944 3.66875 8.96837C3.29656 8.95018 3.04897 9.10236 2.85203 9.40036C2.49141 9.94617 2.11142 10.4789 1.75738 11.0289C1.63662 11.2161 1.56571 11.4366 1.48197 11.6458C1.46864 11.6786 1.50683 11.732 1.52535 11.7892C1.595 11.7696 1.6768 11.7669 1.73257 11.7276C2.92633 10.8875 4.11731 10.0436 5.30656 9.19689C5.33788 9.17364 5.34108 9.1108 5.37626 9.01746ZM16.2723 5.77222C15.7327 5.3208 15.4186 4.71348 14.7408 4.40794C14.3016 5.2461 13.762 6.00249 13.3715 6.84667C13.3585 6.87502 13.4012 6.92939 13.4329 7.01004C13.5897 6.94624 13.7451 6.88038 13.9026 6.81969C14.0185 6.77504 14.1585 6.67576 14.2502 6.70784C14.6169 6.83685 14.848 6.61363 15.0408 6.39849C15.3425 6.06176 15.6918 5.88604 16.1368 5.87874C16.1561 5.87866 16.1746 5.85062 16.2723 5.77222ZM13.415 4.69665C13.3779 4.65606 13.3412 4.61582 13.3044 4.57523C12.8567 4.8411 12.4091 5.10696 12.0013 5.34919C11.7711 6.22034 11.7462 6.80001 11.9268 7.24907C12.4743 6.40462 12.9421 5.54909 13.415 4.69665ZM1.48784 10.0058C1.81493 9.62267 2.0465 9.35146 2.29148 9.06466C2.03057 8.82062 1.77875 8.86167 1.48354 8.93085C1.4848 9.24601 1.48597 9.53631 1.48784 10.0058ZM12.5501 20.2465C12.5447 19.5219 12.4713 19.1184 12.2006 18.4971C12.2492 19.1617 12.2631 19.6967 12.4288 20.2145C12.4354 20.2362 12.5079 20.2366 12.5501 20.2465ZM12.1395 2.86775C12.3873 2.77079 12.5167 2.5963 12.4681 2.35969C12.4481 2.26208 12.2887 2.19369 12.1719 2.09439C12.0533 2.38793 12.0242 2.61898 12.1395 2.86775ZM11.4601 6.57574C11.4498 6.57613 11.4391 6.57652 11.4287 6.57656C11.4293 6.71049 11.4298 6.84408 11.4303 6.97801C11.4407 6.97763 11.4514 6.97724 11.4617 6.97685C11.4612 6.84326 11.4607 6.70968 11.4601 6.57574ZM12.0668 20.3416C12.082 20.3405 12.0972 20.3391 12.1124 20.338C12.112 20.252 12.1117 20.1661 12.1113 20.0801C12.09 20.0812 12.0682 20.082 12.0468 20.0828C12.0534 20.1691 12.0599 20.2553 12.0668 20.3416ZM11.9709 18.9667C11.9605 18.9661 11.9502 18.9654 11.9398 18.9648C11.9359 19.0249 11.932 19.085 11.9281 19.1447C11.9385 19.1453 11.9488 19.146 11.9595 19.1466C11.9634 19.0866 11.967 19.0265 11.9709 18.9667ZM1.13244 10.2153L1.14611 10.2664L1.15937 10.2152L1.13244 10.2153ZM1.02218 13.8903L0.994211 13.8866L1.00201 13.9363L1.02218 13.8903ZM14.4646 4.22782C14.4599 4.24579 14.4554 4.26341 14.4507 4.28138C14.4665 4.26958 14.482 4.25813 14.4978 4.24633C14.4867 4.24016 14.4757 4.23399 14.4646 4.22782ZM11.7326 1.67605L11.7003 1.73176L11.7435 1.7416L11.7326 1.67605ZM2.62469 9.09094L2.66518 9.11667L2.6702 9.07557L2.62469 9.09094ZM2.04377 9.87616L2.07226 9.83566L2.02942 9.82858L2.04377 9.87616ZM10.4136 14.1879L10.3875 14.2308L10.4297 14.2355L10.4136 14.1879Z" fill="currentColor"/>
</svg>
