<svg width="24" height="22" viewBox="0 0 24 22" fill="none" xmlns="http://www.w3.org/2000/svg">
<path d="M9.92281 19.6999C9.81918 19.5961 9.71556 19.4922 9.61227 19.3881L9.62476 19.4008C9.40728 19.1414 9.20218 18.8674 8.84972 18.7756L8.84563 18.7898C8.83967 18.7657 8.8416 18.7332 8.82635 18.7184C8.32942 18.2371 7.83044 17.7576 7.33213 17.2777L7.34118 17.2953C7.28296 17.2375 7.22473 17.1794 7.16616 17.1213L7.1793 17.1278C6.60097 16.5754 6.02641 16.0185 5.44327 15.4713C4.6945 14.7684 3.8983 14.1157 3.21999 13.3376C3.02614 13.1154 2.77174 12.9462 2.55174 12.7455C2.48418 12.6836 2.44275 12.5944 2.38172 12.5242C2.12301 12.226 1.93135 11.8605 1.54646 11.688L1.55413 11.7053C1.49521 11.6468 1.43664 11.5884 1.37772 11.5299L1.39329 11.5375C1.16898 11.207 0.956007 10.8671 0.628482 10.6234L0.639955 10.642C0.582428 10.5856 0.524893 10.5295 0.467022 10.4732L0.481917 10.4838C0.402357 10.3561 0.322795 10.2286 0.249141 10.1102C0.324675 9.74951 0.615175 9.62615 0.869643 9.46946C1.53595 9.05912 2.21267 8.66566 2.86925 8.24017C4.61897 7.10612 6.14328 5.71167 7.53893 4.16861C8.43694 3.1757 9.3495 2.19653 10.2583 1.21325C10.6288 0.81238 11.0674 0.538961 11.6293 0.501158C11.7 0.496387 11.7682 0.454692 11.8292 0.43339C12.2285 0.58851 12.3359 0.938795 12.3942 1.28375C12.4869 1.83016 12.5019 2.38931 12.5959 2.93537C12.7553 3.86157 12.6451 4.79886 12.7492 5.72528C12.7654 5.86985 12.8156 6.01049 12.849 6.14705C13.2067 6.25505 13.5185 6.19477 13.8437 6.11615C14.6269 5.92661 15.4174 5.76812 16.2058 5.60169C16.3286 5.57565 16.4566 5.56444 16.5823 5.56359C17.622 5.55736 18.6359 5.33203 19.6621 5.21125C19.8366 5.19088 20.0231 5.11937 20.1831 5.15808C20.6658 5.27524 21.1329 5.214 21.6083 5.12994C22.1536 5.03353 22.7117 5.09239 23.2624 4.96695C23.6784 4.87209 23.9499 5.18651 23.9341 5.6398C23.8991 6.64859 23.8455 7.65711 23.8195 8.6662C23.7876 9.90211 23.777 11.1386 23.7536 12.3749C23.7502 12.5513 23.7233 12.7271 23.7171 12.9031C23.7034 13.2902 23.6122 13.6084 23.1376 13.6235C22.9488 13.6294 22.9525 13.8624 22.747 13.9191C22.4177 14.0098 22.0989 14.0398 21.7835 13.9779C20.7813 13.7806 19.7765 13.8882 18.7721 13.9091C18.146 13.9223 17.5199 13.948 16.8938 13.965C15.9381 13.9905 14.982 14.0113 14.0262 14.0389C13.6362 14.0502 13.5488 14.1254 13.4955 14.5198C13.4483 14.8694 13.4162 15.2216 13.3927 15.5738C13.2934 17.0602 13.1761 18.5457 13.191 20.0382C13.1957 20.5135 13.0927 20.9889 13.2023 21.4659C13.2163 21.5266 13.1593 21.6031 13.1474 21.6384C12.6925 21.7465 12.2697 21.8469 11.819 21.954C11.3951 21.5349 11.0267 21.0725 10.7257 20.5472C10.6057 20.3378 10.3956 20.1799 10.2264 19.9987L10.2351 20.0159C10.1762 19.9574 10.1176 19.899 10.0587 19.8405L10.0809 19.8653C10.0223 19.8075 9.96409 19.7494 9.90587 19.6917L9.92281 19.6999ZM5.45892 8.33751L5.43799 8.37073L5.44477 8.34068C5.46203 8.33957 5.47963 8.33812 5.49688 8.33701C5.48411 8.33706 5.47134 8.33746 5.45892 8.33751ZM16.2581 8.49314L16.2181 8.48536L16.2736 8.4734C16.2784 8.46371 16.2832 8.45438 16.288 8.44469C16.278 8.46096 16.2681 8.47688 16.2581 8.49314ZM4.84237 8.93095L4.82562 8.97519L4.81995 8.93587L4.87929 8.92872L4.84237 8.93095ZM1.10828 10.4478C1.0993 10.4458 1.09033 10.4437 1.08134 10.4414C1.09759 10.4475 1.11349 10.454 1.12974 10.4601L1.1209 10.495L1.10828 10.4478ZM1.54778 10.6345L1.51869 10.6122L1.56328 10.6279L1.57412 10.6627L1.54778 10.6345ZM7.29586 10.6274L7.26762 10.6451L7.29065 10.6181L7.32228 10.5883L7.29586 10.6274ZM2.02823 11.052L1.98545 11.058L2.04926 11.0467L2.04566 11.0965L2.02823 11.052ZM12.9426 11.678C12.8309 11.6498 12.7783 11.7001 12.7698 11.8085C12.7026 11.8336 12.6156 11.8402 12.5713 11.887C11.989 12.5041 11.4109 13.125 10.8393 13.7517C10.8032 13.7915 10.8264 13.8857 10.8218 13.9544C10.8032 13.9648 10.7843 13.9749 10.7657 13.9854C10.7798 13.9694 10.7939 13.9531 10.808 13.9372C10.9784 13.9248 11.1509 13.8892 11.3191 13.9048C11.6022 13.9309 11.9143 13.8579 12.1473 14.1006C12.1538 14.1068 12.1604 14.1127 12.167 14.1185C12.1535 14.1099 12.14 14.1014 12.1265 14.0928C12.1427 13.898 12.1588 13.7036 12.1753 13.5037C12.6841 13.1592 12.8904 13.0562 13.1885 13.1023C14.4468 13.2968 15.7035 13.0933 16.9229 13.1319C17.3245 12.655 17.6997 12.2137 18.0707 11.769C18.5555 11.1875 19.0714 10.6283 19.5114 10.0145C20.0542 9.25705 20.5439 8.46046 21.0298 7.66458C21.1307 7.49952 21.3294 7.29782 21.1142 7.00285C20.9182 7.11444 20.7122 7.20467 20.5377 7.3362C20.1553 7.62493 19.7948 7.94222 19.4156 8.23473C17.7376 9.52831 16.0409 10.7982 14.3841 12.1182C13.8497 12.5443 13.3007 12.5095 12.6565 12.4845C12.6958 12.2161 12.7264 12.0051 12.7573 11.7944C12.8124 11.7496 12.8674 11.7049 12.9228 11.6601C12.9424 11.6459 12.9655 11.6341 12.9803 11.6161C12.9868 11.6081 12.9767 11.5867 12.9739 11.5712C12.9633 11.6068 12.9528 11.6424 12.9426 11.678ZM2.70209 12.1004L2.69502 12.1439L2.6876 12.105C2.78253 12.1046 2.87781 12.1042 2.97273 12.1038C2.96617 12.1028 2.95961 12.1021 2.95304 12.1011C2.86951 12.1011 2.78597 12.1008 2.70209 12.1004ZM10.5039 12.3095L10.468 12.3065L10.5162 12.2894C10.5217 12.2814 10.5272 12.2735 10.5327 12.2655C10.5231 12.28 10.5135 12.2949 10.5039 12.3095ZM3.37786 12.5886C3.37161 12.58 3.36536 12.5714 3.35945 12.5628C3.37192 12.5738 3.38405 12.5844 3.39618 12.5954L3.39976 12.6292L3.37786 12.5886ZM21.7336 12.5583C21.7146 12.5587 21.6946 12.556 21.6773 12.5613C21.6677 12.5641 21.6619 12.5803 21.6547 12.5907C21.6777 12.574 21.7005 12.5577 21.7235 12.5411L21.7372 12.5151L21.7336 12.5583ZM10.6457 12.7304L10.6058 12.7561L10.6256 12.7108C10.6786 12.6571 10.7312 12.6033 10.7841 12.5493C11.3199 12.2068 11.709 11.7081 12.1289 11.2487C13.4745 9.77665 14.7999 8.28599 16.1319 6.80152C16.1962 6.7298 16.247 6.64641 16.3503 6.50516C15.8142 6.59084 15.3491 6.6538 14.889 6.74332C14.6448 6.7909 14.4098 6.884 14.1315 6.96865C14.112 7.43232 13.8895 7.8288 13.6605 8.21667C12.9285 9.45608 12.1286 10.6498 11.2592 11.7983C11.0803 12.0348 10.9537 12.3108 10.8032 12.5685C10.7506 12.6223 10.6983 12.6763 10.6457 12.7304ZM5.37237 14.835C5.36373 14.832 5.3551 14.8289 5.34645 14.8262C5.36202 14.8334 5.37757 14.8409 5.39314 14.8481C5.43409 14.9045 5.47505 14.961 5.51601 15.0174C5.57073 15.0621 5.62546 15.1067 5.67983 15.151L5.6883 15.1976L5.65748 15.1725C5.60379 15.1268 5.5501 15.0808 5.49641 15.0351C5.45507 14.9683 5.41372 14.9015 5.37237 14.835ZM6.8919 16.2121C6.87566 16.2084 6.85942 16.205 6.84318 16.2013C6.86596 16.1991 6.88873 16.1973 6.91151 16.1951C6.95146 16.2588 6.99175 16.3225 7.0317 16.3866L7.05222 16.4228L7.01279 16.4053C6.97284 16.3409 6.93219 16.2765 6.8919 16.2121ZM11.5636 20.4918C11.5642 20.4697 11.5689 20.4465 11.5643 20.4255C11.5615 20.412 11.5449 20.4014 11.5345 20.3897C11.5512 20.4169 11.5679 20.4445 11.5842 20.472C11.6475 20.5118 11.7109 20.5519 11.7745 20.5917L11.7854 20.6338L11.7539 20.6108C11.6902 20.571 11.6269 20.5316 11.5636 20.4918ZM22.2996 11.5936C22.2787 11.6324 22.2485 11.6691 22.24 11.7102C22.2356 11.7327 22.2679 11.7626 22.2839 11.7891C22.2879 11.7677 22.2965 11.7459 22.295 11.7245C22.292 11.6807 22.2839 11.6372 22.2779 11.5937L22.3331 11.5914L22.2996 11.5936ZM11.109 19.1318C11.075 19.0039 11.0407 18.8763 11.0067 18.7484C11.0745 18.533 11.1427 18.3177 11.2354 18.0236C10.9874 18.145 10.8372 18.2361 10.6749 18.2933C10.4998 18.3551 10.3135 18.3859 10.0952 18.4389C10.3187 18.6496 10.4616 18.8966 10.7461 18.9261C10.8532 18.8487 10.934 18.7908 11.0146 18.7325C11.0517 18.859 11.0884 18.9855 11.1255 19.1121C11.1686 19.1906 11.2097 19.2702 11.2569 19.3459C11.2642 19.3573 11.316 19.3591 11.3194 19.3519C11.3373 19.3156 11.3622 19.2444 11.3549 19.2402C11.276 19.1984 11.1917 19.1667 11.109 19.1318ZM7.17243 7.30026C8.56554 6.07133 9.95864 4.84205 11.3775 3.59024C11.3082 3.00473 11.4237 2.36222 11.0373 1.80662C10.687 1.9927 10.6839 1.98995 10.4777 2.31388C10.6378 2.81928 10.6655 2.83816 10.4061 3.21338C10.0206 3.77034 9.61342 4.31564 9.17606 4.83241C8.62429 5.48427 8.032 6.10212 7.45842 6.73611C7.31098 6.89929 7.09957 7.03545 7.19353 7.31122C7.10243 7.31884 7.01134 7.32645 6.92024 7.33406C6.92377 7.35442 6.9273 7.37477 6.93084 7.39512C7.01079 7.36339 7.09178 7.33165 7.17243 7.30026ZM7.40784 11.0067C7.50311 11.0063 7.61993 11.0403 7.68983 10.9979C7.83824 10.9073 7.9599 10.7732 8.09685 10.6629C9.52926 9.50868 10.9624 8.35588 12.3817 7.21349C12.3118 6.82267 11.9007 7.17779 11.7801 6.89487C11.6888 6.68087 11.5638 6.48116 11.4271 6.22489C11.1379 6.59091 10.8979 6.91221 10.6402 7.21804C9.56833 8.49021 8.49123 9.75792 7.41586 11.027C7.41376 11.0201 7.41097 11.0136 7.40784 11.0067ZM19.7473 11.1686C20.6927 10.549 21.6378 9.92936 22.608 9.29308C22.6567 8.35397 22.7058 7.42383 22.7528 6.49335C22.7567 6.41809 22.7546 6.34112 22.7423 6.26695C22.7048 6.03824 22.4849 5.85789 22.2493 5.91096C21.2585 6.13412 20.2454 6.06914 19.2443 6.15253C18.8151 6.18843 18.4018 6.25843 17.9836 6.37505C17.7899 6.71377 17.6197 7.05239 17.4107 7.36528C17.201 7.67921 16.9509 7.96567 16.7222 8.26691C16.4935 8.56745 16.2717 8.87349 16.042 9.17334C15.8126 9.47285 15.5566 9.75451 15.35 10.0688C15.1541 10.3668 14.7976 10.5632 14.6899 11.0839C15.9684 10.0929 17.1425 9.18516 18.3143 8.27366C18.9313 7.79379 19.5385 7.30084 20.1597 6.82613C20.6732 6.43367 21.2487 6.20976 21.9088 6.22162C22.313 6.22897 22.5395 6.47833 22.4115 6.84682C22.3047 7.15515 22.1657 7.45533 22.014 7.74521C21.4628 8.79852 20.7935 9.77291 20.0257 10.6811C19.9034 10.8258 19.6998 10.9402 19.7633 11.1864C19.7312 11.1997 19.6995 11.2126 19.6675 11.2258C19.6834 11.2275 19.7065 11.236 19.7134 11.2291C19.7289 11.2132 19.7364 11.1893 19.7473 11.1686ZM9.56567 12.744C9.5726 12.7516 9.57988 12.7591 9.58682 12.7667C9.57365 12.755 9.56015 12.7437 9.54699 12.732C9.62852 12.5781 9.69448 12.4132 9.79437 12.2723C10.1301 11.799 10.4904 11.3426 10.8184 10.8643C11.3456 10.0962 11.9582 9.38367 12.3518 8.52775C12.3935 8.43714 12.4581 8.35439 12.2885 8.24184C10.0573 10.2515 7.64194 12.0575 5.21133 13.8395C5.561 14.3534 6.72129 15.4158 7.29289 15.7521C7.39435 15.6602 7.502 15.5625 7.61001 15.465L7.64012 15.4856L7.59518 15.4685C7.61017 15.4205 7.61375 15.3646 7.64156 15.3258C8.25672 14.47 8.87464 13.616 9.49395 12.7629C9.50528 12.7474 9.54118 12.75 9.56567 12.744ZM5.47739 7.60736C5.29613 7.68437 5.09612 7.73384 4.93708 7.84321C3.93981 8.53034 2.95226 9.23088 1.88483 9.80955C1.78322 9.86449 1.70803 9.96836 1.59042 10.0776C2.42738 11.1695 3.38862 12.088 4.32387 13.0694C4.47216 12.9487 4.6013 12.8695 4.69786 12.7611C5.92261 11.3833 7.16953 10.0238 8.35548 8.61312C9.19925 7.60938 9.96302 6.53796 10.7521 5.48888C10.828 5.38812 10.9932 5.27217 10.8349 5.06362C10.6471 5.22523 10.461 5.38373 10.2763 5.54429C9.09603 6.57008 7.92861 7.61102 6.73207 8.61755C5.94045 9.28348 5.11206 9.90675 4.28923 10.5345C4.11544 10.6674 3.9009 10.7984 3.69284 10.822C3.43304 10.8517 3.1607 10.7696 2.82638 10.7271C2.91506 10.5466 2.95315 10.4018 3.04146 10.2999C3.53693 9.72665 4.04349 9.16335 4.54797 8.59798C4.84969 8.25987 5.15453 7.9245 5.45798 7.58776C5.46966 7.57287 5.48134 7.55833 5.49302 7.54344C5.48793 7.56486 5.48249 7.58628 5.47739 7.60736ZM18.6237 12.9825C18.7723 13.003 18.9091 13.0366 19.0461 13.0375C19.4745 13.0402 19.9038 13.0106 20.3313 13.0316C20.7034 13.0498 20.951 12.8976 21.148 12.5996C21.5086 12.0538 21.8886 11.5211 22.2426 10.9711C22.3634 10.7839 22.4343 10.5634 22.518 10.3542C22.5314 10.3214 22.4932 10.268 22.4747 10.2108C22.405 10.2304 22.3232 10.2331 22.2674 10.2724C21.0737 11.1125 19.8827 11.9564 18.6934 12.8031C18.6621 12.8264 18.6589 12.8892 18.6237 12.9825ZM7.72766 16.2278C8.26727 16.6792 8.58141 17.2865 9.2592 17.5921C9.69838 16.7539 10.238 15.9975 10.6285 15.1533C10.6415 15.125 10.5988 15.0706 10.5671 14.99C10.4103 15.0538 10.2549 15.1196 10.0974 15.1803C9.98155 15.225 9.84145 15.3242 9.74985 15.2922C9.38308 15.1631 9.15201 15.3864 8.95922 15.6015C8.65749 15.9382 8.30817 16.114 7.86324 16.1213C7.84391 16.1213 7.82538 16.1494 7.72766 16.2278ZM10.585 17.3034C10.6221 17.3439 10.6588 17.3842 10.6956 17.4248C11.1433 17.1589 11.5909 16.893 11.9987 16.6508C12.2289 15.7797 12.2538 15.2 12.0732 14.7509C11.5257 15.5954 11.0579 16.4509 10.585 17.3034ZM22.5122 11.9942C22.1851 12.3773 21.9535 12.6485 21.7085 12.9353C21.9694 13.1794 22.2212 13.1383 22.5165 13.0691C22.5152 12.754 22.514 12.4637 22.5122 11.9942ZM11.4499 1.75354C11.4553 2.47807 11.5287 2.88165 11.7994 3.50294C11.7508 2.8383 11.7369 2.30331 11.5712 1.7855C11.5646 1.76378 11.4921 1.76338 11.4499 1.75354ZM11.8605 19.1323C11.6127 19.2292 11.4833 19.4037 11.5319 19.6403C11.5519 19.7379 11.7113 19.8063 11.8281 19.9056C11.9467 19.6121 11.9758 19.381 11.8605 19.1323ZM12.5399 15.4243C12.5502 15.4239 12.5609 15.4235 12.5713 15.4234C12.5707 15.2895 12.5702 15.1559 12.5697 15.022C12.5593 15.0224 12.5486 15.0228 12.5383 15.0231C12.5388 15.1567 12.5393 15.2903 12.5399 15.4243ZM11.9332 1.6584C11.918 1.6595 11.9028 1.66094 11.8876 1.66204C11.888 1.74799 11.8883 1.83394 11.8887 1.91989C11.91 1.91877 11.9318 1.91799 11.9532 1.91722C11.9466 1.83094 11.9401 1.74467 11.9332 1.6584ZM12.0291 3.03326C12.0395 3.03391 12.0498 3.03456 12.0602 3.03521C12.0641 2.97513 12.068 2.91505 12.0719 2.85531C12.0615 2.85466 12.0512 2.85402 12.0405 2.85337C12.0366 2.91345 12.033 2.97353 12.0291 3.03326ZM22.8676 11.7847L22.8539 11.7336L22.8406 11.7848L22.8676 11.7847ZM22.9778 8.10967L23.0058 8.11336L22.998 8.06368L22.9778 8.10967ZM9.53539 17.7722C9.54015 17.7542 9.54457 17.7366 9.54933 17.7186C9.5335 17.7304 9.51801 17.7419 9.50218 17.7537C9.51325 17.7598 9.52432 17.766 9.53539 17.7722ZM12.2674 20.3239L12.2997 20.2682L12.2565 20.2584L12.2674 20.3239ZM21.3753 12.9091L21.3348 12.8833L21.3298 12.9244L21.3753 12.9091ZM21.9562 12.1238L21.9277 12.1643L21.9706 12.1714L21.9562 12.1238ZM13.5864 7.81207L13.6125 7.76916L13.5703 7.76449L13.5864 7.81207Z" fill="currentColor"/>
</svg>
