<svg width="48" height="48" viewBox="0 0 48 48" fill="none" xmlns="http://www.w3.org/2000/svg">
<path d="M14.1755 8.85891C14.1656 8.66172 14.215 8.46783 14.2813 8.28287C14.3195 8.17698 14.3529 8.06827 14.3976 7.9652C14.4484 7.84896 14.4992 7.73224 14.5496 7.61552C14.6028 7.49316 14.6715 7.37503 14.7322 7.25596C14.8475 7.02912 14.9915 6.81923 15.136 6.61027C15.2748 6.40885 15.4339 6.222 15.5977 6.04081C15.7525 5.86903 15.9337 5.68784 16.1676 5.63325C16.2933 5.60407 16.41 5.59843 16.5375 5.62243C16.6848 5.6502 16.8255 5.73208 16.9324 5.83609C17.2303 6.12599 17.3522 6.55285 17.4449 6.9477C17.5578 7.43151 17.6148 7.93179 17.6609 8.42595C17.684 8.67773 17.5018 8.90974 17.2477 8.9361C16.9987 8.96198 16.7606 8.77515 16.7375 8.52289C16.7051 8.17322 16.6594 7.82543 16.6062 7.4781C16.5653 7.26679 16.5168 7.06065 16.458 6.85405C16.4363 6.79051 16.4133 6.7284 16.3874 6.66627C16.3756 6.64133 16.3629 6.61638 16.3493 6.59238C16.3436 6.59803 16.338 6.60368 16.3328 6.6098C16.1817 6.77828 16.0405 6.95195 15.9022 7.13125C15.9139 7.11478 15.9257 7.09737 15.9375 7.08043C15.8739 7.17267 15.8024 7.26255 15.7459 7.35903C15.6852 7.46209 15.6236 7.56516 15.5629 7.66776C15.4909 7.80801 15.4184 7.94779 15.3553 8.09227C15.3167 8.18169 15.272 8.27016 15.2391 8.36146C15.2099 8.44241 15.1807 8.52241 15.1515 8.60289C15.1355 8.65513 15.1209 8.70738 15.1078 8.76009C15.1054 8.77374 15.103 8.78644 15.1012 8.79961C15.1012 8.80573 15.1012 8.81185 15.1016 8.81797C15.1012 8.81232 15.1012 8.80714 15.1012 8.80149C15.1007 8.80385 15.1007 8.80573 15.1002 8.80809C15.0979 8.91351 15.0696 9.01281 15.0009 9.09799C14.9242 9.19447 14.8094 9.25753 14.6866 9.27024C14.6715 9.27165 14.6569 9.27259 14.6418 9.27259C14.4136 9.27448 14.1877 9.09611 14.1755 8.85891Z" fill="#053B4A"/>
<path d="M22.0854 9.56429C22.0571 9.34028 22.0204 9.11767 21.9828 8.89459C21.9324 8.60939 21.8783 8.32513 21.7969 8.04652C21.7639 7.94769 21.7282 7.85122 21.6872 7.75569C21.6557 7.69262 21.6228 7.6319 21.587 7.57166C21.5663 7.54107 21.5451 7.51048 21.522 7.48083C21.4919 7.44648 21.4609 7.41354 21.4279 7.38153C21.4161 7.37212 21.4039 7.36271 21.3921 7.3533C21.3827 7.34765 21.3738 7.34153 21.3644 7.33635C21.3587 7.334 21.3526 7.33165 21.347 7.3293C21.346 7.32883 21.3446 7.32882 21.3437 7.32835C21.3427 7.32835 21.3413 7.32789 21.3404 7.32789C21.338 7.32883 21.3352 7.32976 21.3328 7.33071C21.3103 7.34624 21.2881 7.36271 21.2669 7.37918C21.2265 7.4173 21.1869 7.45636 21.1479 7.49683C21.0246 7.63614 20.9154 7.78346 20.8081 7.93453C20.6599 8.1689 20.522 8.40608 20.3916 8.65081C20.3469 8.74399 20.3031 8.83764 20.2631 8.93271C20.2288 9.15485 20.0203 9.32569 19.7934 9.32098C19.5365 9.31486 19.3402 9.09885 19.3402 8.84612C19.3402 8.71623 19.399 8.59152 19.4485 8.47386C19.4866 8.38444 19.5303 8.29597 19.5755 8.21031C19.6706 8.02912 19.7642 7.84746 19.8734 7.67474C19.9934 7.48508 20.1139 7.29448 20.2542 7.11893C20.3591 6.98716 20.4678 6.86149 20.5874 6.74242C20.7469 6.58382 20.9328 6.47275 21.1507 6.41769C21.3484 6.3678 21.5559 6.41204 21.7404 6.48687C21.9757 6.58241 22.1616 6.78713 22.3103 6.98574C22.5734 7.33823 22.6953 7.77686 22.7932 8.19901C22.8403 8.40091 22.8737 8.60657 22.908 8.81129C22.9452 9.02919 22.98 9.24756 23.0083 9.46687C23.0403 9.71772 22.8426 9.95116 22.5951 9.97704C22.5786 9.97845 22.5626 9.97938 22.5466 9.97938C22.3127 9.97985 22.1155 9.79914 22.0854 9.56429Z" fill="#053B4A"/>
<path d="M17.8987 13.3257C17.3636 13.2768 16.8214 13.1511 16.347 12.8918C15.8943 12.6443 15.5079 12.2852 15.2213 11.856C15.0048 11.5313 14.882 11.1486 14.882 10.758C14.882 10.5053 15.1083 10.2992 15.3568 10.3048C15.6138 10.3109 15.81 10.5265 15.81 10.7797C15.81 10.7957 15.81 10.8107 15.81 10.8263C15.8119 10.8451 15.8138 10.8634 15.8161 10.8823C15.827 10.9373 15.8392 10.9919 15.8529 11.047C15.8684 11.0936 15.8858 11.1397 15.9051 11.1849C15.9296 11.2333 15.9559 11.2804 15.9832 11.3265C16.0303 11.3967 16.0802 11.463 16.1329 11.5284C16.2148 11.6211 16.299 11.7101 16.388 11.7957C16.4505 11.8494 16.5146 11.9002 16.5814 11.9487C16.6553 11.9976 16.731 12.0433 16.8087 12.0866C16.9075 12.1351 17.0073 12.1788 17.1108 12.2184C17.2516 12.2654 17.3932 12.305 17.5386 12.3379C17.6925 12.3671 17.8474 12.3892 18.0036 12.4047C18.2116 12.4193 18.4187 12.4212 18.6267 12.4151C18.743 12.4085 18.8573 12.3972 18.9726 12.3798C19.0828 12.3586 19.1915 12.3332 19.2992 12.3031C19.4423 12.257 19.5821 12.2038 19.7195 12.1426C19.84 12.0847 19.9572 12.0221 20.073 11.9553C20.0555 11.9661 20.0381 11.9769 20.0207 11.9882C20.1073 11.9336 20.1939 11.8786 20.2805 11.824C20.36 11.7736 20.4335 11.7106 20.5092 11.6541C20.7445 11.455 20.9737 11.2508 21.1874 11.0286C21.2119 11.0013 21.2359 10.974 21.2594 10.9467C21.4246 10.7552 21.7084 10.71 21.9117 10.8724C22.1037 11.0253 22.1512 11.3331 21.9856 11.5247C21.7225 11.8292 21.4232 12.0965 21.1154 12.3549C20.9573 12.4876 20.7869 12.5996 20.6127 12.7097C20.233 12.9497 19.8202 13.1276 19.3854 13.2406C19.1651 13.2975 18.9369 13.3267 18.71 13.3389C18.6037 13.3446 18.4973 13.3474 18.3914 13.3474C18.2272 13.3479 18.0624 13.3408 17.8987 13.3257Z" fill="#053B4A"/>
<path d="M30.1442 31.8828C30.1446 31.8941 30.1446 31.9054 30.1451 31.9167C30.1451 31.9054 30.1442 31.8941 30.1442 31.8828Z" fill="#053B4A"/>
<path d="M37.0087 44.1711C37.0143 43.9141 37.2303 43.7179 37.4835 43.7179C37.4892 43.7179 37.4944 43.7179 37.5 43.7179C37.5621 43.7117 37.6228 43.7037 37.684 43.6948C37.7363 43.684 37.788 43.6717 37.8398 43.6576C37.9024 43.636 37.9631 43.6124 38.0238 43.5861C38.1 43.5484 38.1744 43.508 38.2478 43.4651C38.4201 43.3512 38.5843 43.2317 38.7448 43.1023C38.8291 43.0256 38.9105 42.9493 38.9905 42.8693C39.1001 42.7456 39.2037 42.618 39.3011 42.4834C39.3213 42.4528 39.3411 42.4222 39.3613 42.3907C39.4959 42.1766 39.7778 42.0989 39.9981 42.2307C40.2113 42.3587 40.2927 42.6533 40.1581 42.8674C40.0386 43.0576 39.9035 43.2411 39.7529 43.4082C39.5773 43.603 39.3872 43.7748 39.1834 43.9414C38.9594 44.125 38.7057 44.2864 38.4455 44.413C38.1429 44.5598 37.7998 44.6459 37.4619 44.6459C37.2092 44.6459 37.0026 44.4196 37.0087 44.1711Z" fill="#053B4A"/>
<path d="M10.3294 45.8399C10.2446 45.7731 10.1618 45.6955 10.0969 45.6089C10.014 45.4992 9.95238 45.3839 9.89873 45.2573C9.85214 45.1481 9.82531 45.0135 9.83002 44.8949C9.83237 44.8356 9.83708 44.7796 9.84838 44.7208C9.86061 44.6554 9.88461 44.5975 9.91049 44.5358C9.96038 44.4158 10.0602 44.3076 10.1642 44.2323C10.2804 44.148 10.4122 44.1038 10.5496 44.0685C10.8362 43.9951 11.1459 44.02 11.4363 44.0492C11.8848 44.0939 12.3305 44.1636 12.7785 44.2149C12.9216 44.2252 13.0632 44.236 13.2068 44.2328C13.2204 44.2323 13.2345 44.2304 13.2477 44.2295C13.2482 44.2285 13.2482 44.2271 13.2482 44.2266C13.2835 43.764 13.2938 43.2986 13.3098 42.835C13.3277 42.3347 13.3362 41.8349 13.3456 41.3346C13.3654 40.3364 13.3955 39.3392 13.4458 38.3419C13.4802 37.6605 13.516 36.979 13.5447 36.298C13.5724 35.6518 13.6087 35.0043 13.6162 34.3571C13.0816 34.3976 12.5469 34.4306 12.0114 34.4602C11.7695 34.4734 11.5271 34.4828 11.2852 34.4861C11.2386 34.487 11.192 34.487 11.1454 34.487C11.1205 34.487 11.0955 34.487 11.0706 34.4866C10.9332 34.4842 10.7793 34.4819 10.6466 34.4409C10.5397 34.408 10.4348 34.3628 10.3557 34.28C10.2545 34.1741 10.2009 34.0357 10.1858 33.8917C10.1717 33.7576 10.1863 33.6173 10.1933 33.4827C10.1999 33.3608 10.2065 33.2385 10.2131 33.1166C10.2282 32.8544 10.2432 32.5928 10.2606 32.3302C10.3265 31.3226 10.4169 30.3168 10.5068 29.3111C10.5251 29.1106 10.5435 28.9097 10.5628 28.7092C10.5223 28.7478 10.4799 28.785 10.4357 28.8207C10.3298 28.9059 10.2202 28.9807 10.1044 29.0523C9.99286 29.1219 9.87238 29.1746 9.7519 29.2273C9.52883 29.3248 9.29115 29.3855 9.04878 29.3855C9.01348 29.3855 8.9782 29.384 8.94243 29.3812C8.80783 29.3713 8.68123 29.3375 8.55275 29.3012C8.33673 29.2608 8.17248 29.056 8.17766 28.8339C8.17813 28.7948 8.18425 28.7567 8.19414 28.7209C8.06189 28.5134 8.12353 28.2475 8.31461 28.0974C8.5198 27.935 8.77205 27.838 9.00972 27.7326C9.21256 27.6423 9.4154 27.5528 9.61871 27.4648C9.66483 27.4451 9.71142 27.4244 9.75707 27.4046C9.70201 27.3679 9.64742 27.3302 9.5933 27.2921C9.41729 27.1679 9.25351 27.0272 9.08644 26.8912C8.89913 26.7387 8.71041 26.5867 8.52216 26.4342C8.15177 26.133 7.78186 25.8318 7.41759 25.524C7.22699 25.3635 7.04298 25.196 6.85849 25.0289C6.63636 24.8279 6.43729 24.603 6.24809 24.3714C6.04055 24.1163 5.87019 23.834 5.74971 23.5281C5.64052 23.2504 5.59439 22.9454 5.60051 22.6485C5.60663 22.3256 5.73793 22.0239 5.89794 21.75C6.02077 21.5392 6.16526 21.3364 6.31257 21.142C6.634 20.7184 6.98039 20.3208 7.34183 19.9311C7.50796 19.7518 7.6915 19.5908 7.87598 19.4317C8.05435 19.2778 8.23837 19.1296 8.42426 18.9851C8.8563 18.6496 9.29633 18.3253 9.73825 18.002C10.0917 17.7436 10.4508 17.4932 10.8103 17.2433C10.9962 17.1139 11.1793 16.9807 11.3633 16.8485C11.5196 16.736 11.6678 16.6136 11.8184 16.4936C11.9521 16.3774 12.0848 16.2527 12.2326 16.1557C12.0848 16.063 11.9389 15.9661 11.7963 15.8639C11.3544 15.5467 10.9595 15.1632 10.6047 14.7523C10.5124 14.6455 10.4164 14.5401 10.3275 14.4304C10.0945 14.1414 9.88086 13.8431 9.68696 13.5263C9.38105 13.0261 9.14762 12.4552 9.04549 11.8773C8.9909 11.5685 8.93677 11.2589 8.90241 10.9468C8.84594 10.4301 8.78288 9.91475 8.78476 9.39376C8.7857 9.15421 8.80641 8.91608 8.82759 8.67747C8.84123 8.53063 8.85112 8.3838 8.87277 8.23791C8.89865 8.06613 8.92454 7.89436 8.94995 7.72305C8.96172 7.64634 8.98383 7.5701 8.99983 7.49433C9.02007 7.40067 9.04078 7.30701 9.06102 7.21336C9.06431 7.19689 9.06808 7.18089 9.07137 7.16489C9.07231 7.1583 9.07373 7.15171 9.07561 7.1456C9.07702 7.13901 9.07843 7.13241 9.07985 7.12582C9.10291 7.02228 9.13584 6.92157 9.16596 6.81992C9.20408 6.69285 9.23656 6.56201 9.28362 6.43824C9.36786 6.21798 9.44504 5.99398 9.54341 5.78031C9.60694 5.64289 9.67001 5.50594 9.73355 5.36851C9.86297 5.08802 10.0206 4.81835 10.1825 4.55528C10.3529 4.27808 10.544 4.01828 10.7604 3.77497C10.9953 3.51095 11.2447 3.26199 11.5087 3.02668C11.7436 2.81725 11.9921 2.63089 12.2603 2.4657C12.3488 2.4111 12.4392 2.35932 12.5305 2.30991C12.4867 2.27132 12.4443 2.23273 12.4034 2.1932C12.3064 2.10002 12.2119 2.00589 12.1182 1.90941C11.9408 1.72587 11.7666 1.53856 11.6029 1.34278C11.5224 1.24677 11.4716 1.13946 11.4744 1.01145C11.4772 0.88909 11.5295 0.770976 11.6179 0.686734C11.7921 0.520132 12.1116 0.507888 12.2744 0.701786C12.5211 0.996397 12.7874 1.27454 13.0637 1.54138C13.1291 1.5988 13.1964 1.65339 13.267 1.70563C13.2901 1.72069 13.3141 1.73481 13.339 1.74846C13.3663 1.76163 13.3936 1.77434 13.4223 1.78469C13.4698 1.80211 13.5117 1.82799 13.548 1.86047C13.7616 1.78564 13.98 1.72258 14.1993 1.66987C14.3909 1.62374 14.5843 1.5908 14.7782 1.55692C14.8883 1.53762 14.9989 1.51504 15.11 1.50233C15.2413 1.48727 15.3735 1.46514 15.5058 1.45855C15.6441 1.45149 15.7825 1.44349 15.9209 1.4416C16.0089 1.33995 16.1392 1.27642 16.2814 1.28019C16.3185 1.28113 16.3557 1.28254 16.3929 1.28395C16.44 0.964394 16.503 0.648609 16.5816 0.335172C16.6423 0.0895058 16.9191 -0.0507381 17.1558 0.0170319C17.4057 0.088567 17.5351 0.34647 17.4744 0.591196C17.4532 0.675437 17.4339 0.759211 17.4146 0.842982C17.3803 1.00911 17.3506 1.17571 17.3252 1.34278C17.4763 1.35972 17.6269 1.38137 17.7761 1.40961C18.009 1.45337 18.2415 1.50044 18.4749 1.54374C18.7065 1.58703 18.939 1.6261 19.1691 1.6741C19.5465 1.75223 19.9212 1.84165 20.2916 1.94801C20.3269 1.86047 20.364 1.7734 20.4069 1.68963C20.5725 1.36254 20.749 1.04347 20.9373 0.729088C21.0672 0.51213 21.3571 0.439185 21.574 0.569077C21.791 0.699441 21.8639 0.988874 21.734 1.20583C21.5994 1.43126 21.47 1.65857 21.3448 1.8887C21.2935 1.98989 21.2432 2.09014 21.197 2.19367C21.1914 2.20685 21.1853 2.22002 21.1801 2.2332C21.4733 2.33627 21.7637 2.44875 22.046 2.57817C22.2781 2.685 22.5101 2.7909 22.7374 2.90761C22.9765 3.03045 23.2099 3.15987 23.4405 3.29729C23.6358 3.41307 23.826 3.5406 24.0128 3.67002C24.2241 3.81686 24.4373 3.96181 24.642 4.11806C24.6712 4.14018 24.6994 4.16229 24.7281 4.18441C24.8599 3.98581 25.0209 3.80415 25.1889 3.63708C25.4218 3.40553 25.6703 3.19234 25.9231 2.98291C26.1184 2.82102 26.4304 2.89254 26.5716 3.08691C26.6422 3.18527 26.6723 3.30906 26.6544 3.42907C26.6346 3.55708 26.565 3.6545 26.4676 3.73544C26.4572 3.74391 26.4464 3.75286 26.4356 3.7618C26.2045 3.95711 25.9824 4.159 25.7668 4.37172C25.7202 4.42443 25.6732 4.47808 25.6266 4.53126C25.587 4.57597 25.5522 4.6268 25.5169 4.67527C25.4906 4.71575 25.4647 4.75576 25.4407 4.79671C25.5602 4.91248 25.6741 5.03248 25.7828 5.15813C26.1137 5.54217 26.405 5.95209 26.685 6.37424C26.7335 6.44766 26.781 6.52201 26.8276 6.59731C26.8925 6.48766 27.0022 6.40529 27.1279 6.37565C27.3514 6.26552 27.5712 6.14551 27.8023 6.05186C28.0352 5.95774 28.2687 5.86549 28.5044 5.77796C28.9487 5.61277 29.3958 5.44898 29.849 5.31015C29.9662 5.27391 30.0829 5.26826 30.1982 5.31815C30.3126 5.36756 30.4039 5.4631 30.4481 5.57981C30.5333 5.80477 30.4204 6.10409 30.1785 6.17845C29.8485 6.27963 29.5224 6.39636 29.1977 6.51401C28.8419 6.64249 28.4894 6.77615 28.1383 6.91734C27.9472 7.00534 27.7585 7.09477 27.5717 7.19171C27.4841 7.23689 27.3891 7.28159 27.2898 7.29195C27.2728 7.29383 27.2554 7.29478 27.2384 7.29478C27.2267 7.29478 27.2149 7.29431 27.2027 7.29337C27.2747 7.44632 27.3415 7.60162 27.4022 7.75881C27.5783 8.21532 27.6747 8.70289 27.7081 9.18999C27.7439 9.70909 27.7387 10.2287 27.679 10.7459C27.6484 11.0123 27.599 11.273 27.5382 11.5337C27.4794 11.7892 27.3872 12.0335 27.2945 12.2778C27.2036 12.5164 27.0761 12.7404 26.9551 12.9644C26.925 13.0195 26.8869 13.0717 26.8535 13.1249C26.8168 13.1828 26.7815 13.2425 26.741 13.2981C26.6737 13.3908 26.6088 13.4854 26.5377 13.5753C26.2252 13.9706 25.892 14.3476 25.54 14.7076C25.1799 15.0766 24.8129 15.4418 24.4072 15.7613C24.321 15.8296 24.2368 15.9035 24.146 15.9656C24.0198 16.0517 23.8937 16.1369 23.7676 16.223C23.6678 16.2908 23.5624 16.3506 23.4603 16.4136C23.3647 16.472 23.2697 16.5313 23.1723 16.5863C22.9289 16.7242 22.6852 16.8579 22.4381 16.9883C22.3524 17.0334 22.2668 17.0758 22.1792 17.1167C22.0611 17.1723 21.943 17.2344 21.8225 17.2852C21.871 17.3596 21.9194 17.4339 21.9731 17.5045C22.1082 17.6834 22.247 17.8589 22.3882 18.033C22.479 18.138 22.5699 18.2429 22.6612 18.3479C22.7412 18.4406 22.8287 18.5272 22.9129 18.6157C23.0838 18.7954 23.265 18.9621 23.448 19.1291C23.5906 19.2444 23.7332 19.3597 23.8758 19.475C23.9982 19.5743 24.1314 19.6628 24.2594 19.7546C24.3775 19.8313 24.4956 19.9085 24.6142 19.9852C24.7258 20.0586 24.8477 20.1198 24.9639 20.1852C25.0581 20.2318 25.1526 20.2779 25.2472 20.3245C25.3432 20.3725 25.4468 20.4088 25.5466 20.4492C25.6454 20.4836 25.7447 20.5193 25.8459 20.5466C25.9621 20.5786 26.0774 20.6074 26.1951 20.6337C26.3429 20.661 26.4897 20.685 26.6384 20.7029C26.7038 20.7067 26.7683 20.7085 26.8337 20.709C27.1062 20.6954 27.3754 20.661 27.6446 20.6187C27.919 20.5697 28.1882 20.5081 28.456 20.429C28.7143 20.3452 28.9657 20.2497 29.2137 20.1396C29.3892 20.0572 29.5615 19.9706 29.7323 19.8788C29.8735 19.8035 30.0396 19.8101 30.1733 19.8817C30.1733 19.8765 30.1737 19.8718 30.1737 19.8666C30.2029 18.7922 30.2279 17.7177 30.2533 16.6433C30.2641 16.2033 30.274 15.7623 30.2938 15.3222C30.3074 15.0182 30.322 14.7142 30.3352 14.4097C30.3469 14.1438 30.3705 13.8779 30.3884 13.6125C30.4246 13.0647 30.4712 12.5183 30.5093 11.9709C30.5135 11.9149 30.5168 11.8589 30.5201 11.8024C30.426 11.6659 30.3978 11.4815 30.4839 11.3332C30.5851 11.1586 30.7046 10.9925 30.8152 10.824C30.963 10.6004 31.1098 10.3774 31.2576 10.1538C31.5287 9.74345 31.7988 9.33259 32.0699 8.9222C32.6144 8.09767 33.1585 7.27312 33.7025 6.44812C33.9242 6.11115 34.1468 5.77467 34.3684 5.4377C34.5355 5.1845 34.7031 4.93177 34.8697 4.67858C34.8753 4.66963 34.8814 4.66163 34.8875 4.65363C34.9407 4.70352 34.9944 4.75292 35.048 4.80281C35.224 4.96612 35.4005 5.12944 35.577 5.29321C35.7507 5.4537 35.9238 5.61465 36.0975 5.7756C36.8331 6.45613 37.5677 7.13853 38.3029 7.81999C38.9486 8.41863 39.5943 9.01727 40.24 9.61591C40.2785 9.65167 40.3115 9.69073 40.3369 9.73356C40.3416 9.74109 40.3463 9.74861 40.3501 9.75661C40.3543 9.76414 40.3586 9.77215 40.3618 9.78015C40.3618 9.78015 40.3623 9.78016 40.3623 9.78063C40.3661 9.78816 40.3694 9.79663 40.3722 9.80463C40.3755 9.8131 40.3783 9.82109 40.3811 9.82956C40.384 9.83756 40.3863 9.84603 40.3882 9.85403C40.3887 9.85497 40.3887 9.85592 40.3887 9.85639C40.3906 9.86345 40.392 9.87004 40.3934 9.87663C40.3943 9.87898 40.3943 9.88181 40.3948 9.88417C40.3957 9.88887 40.3967 9.89404 40.3971 9.89922C40.3995 9.91098 40.4004 9.92369 40.4014 9.93593C40.4037 9.9684 40.4028 9.99993 40.399 10.0315C40.4047 10.0559 40.408 10.0814 40.4094 10.1068C40.4461 11.0763 40.4983 12.0457 40.5364 13.0152C40.5774 14.0624 40.6277 15.109 40.6734 16.1557C40.7614 18.1818 40.8504 20.2078 40.9384 22.2334C41.0245 24.2189 41.113 26.205 41.1982 28.1905C41.2852 30.2142 41.3751 32.2375 41.4631 34.2607C41.5144 35.4481 41.5667 36.6364 41.6184 37.8238C41.6241 37.8464 41.6278 37.8699 41.6292 37.8944C41.6819 38.8257 41.7031 39.7552 41.6805 40.6875C41.6688 41.1718 41.6462 41.6589 41.5756 42.138C41.5036 42.627 41.409 43.1141 41.2749 43.5899C41.209 43.8247 41.121 44.052 41.024 44.2756C40.9233 44.5071 40.7882 44.7213 40.6442 44.9274C40.3651 45.326 39.983 45.6357 39.5293 45.815C39.3142 45.9002 39.0907 45.9609 38.8653 46.0136C38.6267 46.0691 38.3871 46.119 38.1457 46.1628C38.0864 46.1736 38.0275 46.184 37.9678 46.1938C37.9287 46.2009 37.8896 46.2089 37.8501 46.2146C37.8087 46.223 37.7673 46.2277 37.7259 46.2343C37.5946 46.2546 37.4633 46.2743 37.332 46.2931C37.0863 46.3289 36.8402 46.3557 36.5931 46.375C36.4509 46.3863 36.3088 46.3906 36.1662 46.3906C35.8123 46.3906 35.4584 46.3623 35.1059 46.3317C34.8678 46.311 34.6273 46.2842 34.391 46.2442C34.1322 46.2009 33.8733 46.1576 33.6206 46.0847C33.3712 46.0127 33.1316 45.9218 32.893 45.8206C32.3593 45.5947 31.8906 45.2098 31.6143 44.6963C31.4581 44.4055 31.3847 44.0774 31.3145 43.7574C31.2618 43.5141 31.2279 43.2651 31.1908 43.019C31.1235 42.571 31.0628 42.1225 30.9908 41.6754C30.9409 41.3916 30.8905 41.1078 30.8397 40.824C30.779 40.4837 30.7154 40.144 30.6712 39.8009C30.6279 39.4639 30.595 39.1269 30.5757 38.7872C30.5653 38.613 30.562 38.4384 30.5639 38.2643C30.5644 38.2379 30.5648 38.2111 30.5662 38.1843C30.5502 38.0869 30.538 37.9894 30.5262 37.8915C30.4999 37.6647 30.4811 37.4369 30.4622 37.2096C30.4222 36.7272 30.3893 36.2444 30.3625 35.761C30.3356 35.2796 30.3154 34.7977 30.2862 34.3162C30.2556 33.8225 30.2175 33.3302 30.1893 32.8366C30.1733 32.5608 30.1601 32.2845 30.1488 32.0083C30.1497 32.028 30.1502 32.0478 30.1512 32.0676C30.1488 32.0196 30.1474 31.9711 30.1455 31.9231C30.1455 31.9202 30.145 31.9174 30.145 31.9141C30.1446 31.9028 30.1441 31.8915 30.1436 31.8802C30.1022 30.8736 30.0693 29.8664 30.0476 28.8593C30.026 27.8517 30.0321 26.8446 30.0396 25.8369C30.0528 24.1262 30.1013 22.4169 30.1488 20.7071C29.7563 20.9166 29.3525 21.1048 28.9313 21.2479C28.4875 21.3985 28.0343 21.4983 27.5717 21.5665C27.3481 21.5994 27.1236 21.623 26.8987 21.6324C26.8643 21.6338 26.8295 21.6347 26.7951 21.6347C26.5815 21.6347 26.3701 21.6079 26.1598 21.5693C25.6581 21.478 25.1762 21.3227 24.7183 21.0968C24.3239 20.9024 23.9488 20.6742 23.5925 20.4149C23.497 20.3452 23.4005 20.2751 23.3045 20.2055C23.2165 20.1414 23.1337 20.0675 23.049 19.9993C22.9675 19.9339 22.8856 19.8699 22.8094 19.7993C22.7063 19.7038 22.6033 19.6092 22.4997 19.5141C22.4225 19.4426 22.3487 19.3682 22.2757 19.2924C22.3995 19.6986 22.5054 20.1094 22.6131 20.5212C22.7374 20.998 22.8739 21.4714 22.9788 21.9529C23.0908 22.464 23.2024 22.9755 23.3149 23.4866C23.5323 24.475 23.7384 25.4656 23.9445 26.4563C24.1427 27.4117 24.3747 28.3623 24.5357 29.3252C24.6194 29.8269 24.698 30.3305 24.739 30.8383C24.754 31.0237 24.7667 31.2073 24.7658 31.3936C24.7644 31.7042 24.7018 32.0021 24.5437 32.2704C24.3291 32.6347 23.8998 32.7194 23.521 32.8083C23.0381 32.9222 22.5501 33.013 22.0625 33.102C21.5811 33.1895 21.0987 33.2719 20.6153 33.3472C20.4181 33.3782 20.221 33.4088 20.0238 33.4399C20.0351 33.4921 20.036 33.5467 20.0247 33.6023C20.0242 33.6027 20.0242 33.6041 20.0242 33.6046C20.0148 33.8056 20.0266 34.0075 20.0318 34.2084C20.0374 34.3957 20.0449 34.5821 20.0515 34.7694C20.0511 34.7496 20.0501 34.7299 20.0492 34.7101C20.0562 34.8847 20.0633 35.0603 20.0699 35.2349C20.0704 35.2429 20.0704 35.2509 20.0708 35.2589C20.1217 36.2768 20.1979 37.292 20.2892 38.3071C20.3777 39.2888 20.4591 40.2724 20.5763 41.2509C20.6426 41.802 20.7194 42.3512 20.8064 42.8985C20.8704 43.2623 20.9391 43.6256 21.0088 43.988C21.0417 44.1608 21.0733 44.3335 21.1053 44.5062C21.3669 44.3118 21.6446 44.1391 21.9425 44.0031C22.1684 43.9 22.4047 43.8205 22.6494 43.7748C22.8673 43.7344 23.0842 43.7353 23.3036 43.7579C23.5313 43.7814 23.7676 43.8704 23.9516 44.0059C24.145 44.1485 24.289 44.3278 24.378 44.5514C24.4561 44.7481 24.4406 44.9773 24.3733 45.1735C24.3018 45.3815 24.1545 45.5496 23.9921 45.694C23.8198 45.8475 23.6288 45.9759 23.4193 46.072C23.168 46.1877 22.9035 46.2522 22.6287 46.28C22.5473 46.2884 22.4654 46.2917 22.3835 46.2917C22.1976 46.2917 22.0107 46.2739 21.8263 46.256C21.6164 46.2357 21.405 46.1868 21.2055 46.1209C21.0328 46.0644 20.9071 45.9218 20.8765 45.7533C20.7099 45.7689 20.5414 45.7129 20.4346 45.5656C20.3678 45.4743 20.3297 45.382 20.3066 45.2714C20.2949 45.2149 20.2836 45.158 20.2727 45.1015C20.2497 44.9806 20.2275 44.8601 20.2054 44.7387C20.1174 44.2624 20.0214 43.7866 19.9376 43.3089C19.763 42.3079 19.6407 41.2998 19.5414 40.2884C19.4604 39.4658 19.3832 38.6427 19.3141 37.8186C19.2425 36.9762 19.1762 36.1314 19.1451 35.2862C19.1381 35.1116 19.1315 34.9365 19.1244 34.7614C19.1164 34.5605 19.1093 34.3595 19.1032 34.1585C19.0995 34.0329 19.0929 33.9068 19.0933 33.7806C19.0938 33.718 19.091 33.6531 19.0933 33.5886C18.739 33.646 18.3846 33.7039 18.0307 33.7632C17.0753 33.9303 16.1199 34.1218 15.1547 34.2207C14.9518 34.2414 14.7485 34.2611 14.5452 34.279C14.5424 34.7096 14.5236 35.1407 14.5052 35.5709C14.4817 36.1149 14.4577 36.659 14.4323 37.2026C14.3852 38.2008 14.332 39.1975 14.3005 40.1962C14.2694 41.1723 14.2643 42.1493 14.2285 43.1258C14.22 43.3607 14.2097 43.5951 14.1993 43.8299C14.1941 43.9452 14.189 44.061 14.1819 44.1763C14.1763 44.2657 14.1701 44.3551 14.1579 44.4431C14.1645 44.4455 14.1706 44.4483 14.1767 44.4507C14.4064 44.55 14.5217 44.8305 14.4181 45.0611C14.3193 45.2804 14.1678 45.4564 13.9937 45.6197C13.7682 45.8305 13.4854 45.9562 13.2063 46.08C12.7931 46.263 12.3507 46.3812 11.8984 46.3986C11.8749 46.3995 11.8509 46.4 11.8269 46.4C11.2861 46.4019 10.7477 46.1689 10.3294 45.8399ZM10.9496 44.9519C10.895 44.9556 10.8414 44.9608 10.7863 44.9674C10.7859 44.9679 10.7854 44.9679 10.7845 44.9679C10.7915 44.9815 10.7986 44.9952 10.8066 45.0083C10.816 45.0211 10.8259 45.0333 10.8353 45.046C10.8447 45.0563 10.8546 45.0667 10.8649 45.0766C10.9073 45.1124 10.9506 45.1462 10.9948 45.1792C11.0607 45.2211 11.128 45.2606 11.1972 45.2987C11.2687 45.3336 11.3417 45.3646 11.416 45.3942C11.4692 45.4121 11.5229 45.4281 11.5775 45.4423C11.6302 45.4521 11.6819 45.4601 11.7346 45.4667C11.8052 45.4714 11.8749 45.4729 11.9455 45.471C12.0071 45.4658 12.0674 45.4587 12.1281 45.4498C12.2344 45.4296 12.3385 45.4046 12.4425 45.375C12.6321 45.3138 12.8152 45.2394 12.9973 45.1599C12.9634 45.158 12.93 45.1561 12.8966 45.1533C12.6425 45.1349 12.3898 45.1058 12.137 45.0728C11.8311 45.0333 11.5257 44.9905 11.2188 44.9599C11.1445 44.9547 11.0701 44.9514 10.9958 44.9514C10.9798 44.9519 10.9647 44.9519 10.9496 44.9519ZM31.5569 39.4159C31.5823 39.6818 31.6289 39.9463 31.6713 40.2098C31.7668 40.7459 31.8661 41.2815 31.9518 41.8194C32.0327 42.3244 32.0972 42.8317 32.1786 43.3362C32.2191 43.556 32.2633 43.7739 32.325 43.9885C32.3504 44.0652 32.3782 44.1405 32.4097 44.2149C32.4327 44.261 32.4563 44.3057 32.4822 44.3499C32.5132 44.3956 32.5457 44.4398 32.5796 44.4836C32.6191 44.5288 32.6596 44.573 32.7019 44.6154C32.7608 44.6667 32.8205 44.7147 32.8836 44.7603C32.9702 44.8163 33.0582 44.8681 33.149 44.9161C33.2658 44.9735 33.3853 45.0234 33.5053 45.0738C33.6625 45.1283 33.8202 45.1778 33.9802 45.2244C34.1651 45.2634 34.3491 45.2982 34.5364 45.3298C34.7445 45.3651 34.9553 45.3853 35.1647 45.4088C35.3694 45.4267 35.5737 45.4441 35.7789 45.4526C36.001 45.4625 36.2218 45.463 36.4434 45.4573C36.8613 45.4244 37.2741 45.3679 37.6882 45.3029C37.7409 45.2931 37.7936 45.2832 37.8464 45.2766C37.9009 45.2677 37.9551 45.2568 38.0092 45.2469C38.1217 45.2267 38.2332 45.2037 38.3452 45.1801C38.5589 45.1354 38.7711 45.0846 38.9815 45.0258C39.077 44.9947 39.1697 44.9603 39.262 44.9213C39.3316 44.8865 39.3985 44.8493 39.4653 44.8093C39.5128 44.7759 39.5594 44.742 39.6051 44.7062C39.6493 44.6657 39.6921 44.6248 39.7345 44.5824C39.806 44.4968 39.8733 44.4092 39.9388 44.3179C40.0018 44.2196 40.0611 44.1207 40.1166 44.0182C40.1764 43.893 40.2315 43.7668 40.2828 43.6379C40.3694 43.3866 40.4376 43.132 40.4983 42.8731C40.5859 42.4519 40.6583 42.0312 40.7021 41.6034C40.7407 41.1266 40.7534 40.6499 40.759 40.1713C40.7647 39.7034 40.76 39.2352 40.743 38.7674C40.7402 38.7024 40.7374 38.6375 40.7346 38.5725C40.2014 38.6789 39.6456 38.6634 39.1043 38.6676C38.4153 38.6732 37.7268 38.6874 37.0383 38.7142C36.5493 38.7396 36.0608 38.7693 35.5728 38.8078C35.0824 38.8464 34.5934 38.9015 34.1039 38.9514C33.8136 38.9815 33.5232 38.9923 33.2323 38.9923C33.0182 38.9923 32.8041 38.9862 32.5899 38.9773C32.3391 38.9669 32.0826 38.9561 31.8332 38.9241C31.7249 38.9104 31.6176 38.8968 31.5108 38.8789C31.5244 39.0582 31.54 39.2366 31.5569 39.4159ZM22.9817 44.6714C22.9299 44.6751 22.8781 44.6803 22.8259 44.6879C22.7525 44.7029 22.68 44.7208 22.6075 44.7415C22.5167 44.7721 22.4282 44.8055 22.3402 44.8427C22.1755 44.9213 22.0206 45.0126 21.8648 45.1067C21.7834 45.1632 21.703 45.2206 21.6239 45.2794C21.6484 45.2855 21.6728 45.2921 21.6973 45.2978C21.8347 45.3227 21.9717 45.3406 22.11 45.3543C22.2296 45.3599 22.3477 45.3641 22.4672 45.3627C22.5369 45.358 22.6061 45.351 22.6753 45.3411C22.7332 45.3298 22.7892 45.3166 22.8452 45.3006C22.9045 45.2808 22.9624 45.2592 23.0198 45.2361C23.0682 45.2131 23.1153 45.1881 23.1619 45.1613C23.2207 45.1227 23.2763 45.0818 23.3318 45.0385C23.3718 45.0041 23.4104 44.9683 23.4485 44.9312C23.4608 44.917 23.473 44.902 23.4843 44.8874C23.4866 44.8846 23.4885 44.8817 23.4904 44.8785C23.4927 44.8747 23.4946 44.8705 23.4965 44.8667C23.497 44.8657 23.4974 44.8643 23.4979 44.8629C23.4979 44.862 23.4979 44.8601 23.4979 44.8596V44.8591C23.4979 44.8587 23.4975 44.8587 23.4975 44.8577C23.4942 44.8521 23.4909 44.846 23.488 44.8403C23.4838 44.8342 23.4791 44.8286 23.4749 44.8224C23.4636 44.8107 23.4523 44.7994 23.441 44.7881C23.4306 44.7796 23.4203 44.7707 23.4094 44.7627C23.3939 44.7533 23.3784 44.7439 23.3629 44.734C23.3464 44.7264 23.3294 44.7189 23.313 44.7123C23.2876 44.7043 23.2626 44.6973 23.2367 44.6907C23.201 44.6836 23.1647 44.6784 23.1285 44.6742C23.0894 44.6723 23.0504 44.6714 23.0113 44.6714C23.0024 44.6709 22.992 44.6714 22.9817 44.6714ZM31.4496 37.796C31.4548 37.8398 31.46 37.8835 31.4661 37.9273C31.6355 37.9617 31.8059 37.9852 31.9777 38.0073C32.2506 38.029 32.5236 38.0459 32.797 38.0567C33.0714 38.0685 33.3443 38.0647 33.6187 38.0572C34.1063 38.02 34.592 37.9645 35.0795 37.9188C35.5713 37.8727 36.0641 37.8412 36.5573 37.8106C37.556 37.7499 38.557 37.7447 39.5576 37.7358C39.702 37.7348 39.847 37.732 39.9915 37.7263C40.1665 37.7151 40.3402 37.6986 40.5139 37.6708C40.5524 37.6633 40.591 37.6553 40.6292 37.6464C40.6461 37.6426 40.6635 37.6384 40.6805 37.6341C40.6503 36.9446 40.6202 36.2552 40.5901 35.5662C39.9453 35.5596 39.3006 35.5431 38.6558 35.5295C37.6501 35.5092 36.6448 35.4608 35.6382 35.4532C34.8927 35.4476 34.1472 35.4481 33.4013 35.4368C33.0116 35.4306 32.6229 35.4198 32.2337 35.4034C32.0577 35.3963 31.8802 35.3864 31.7047 35.3676C31.6002 35.3563 31.4953 35.3478 31.3913 35.3323C31.3498 35.3266 31.3089 35.32 31.2675 35.3135C31.2835 35.6288 31.3009 35.9441 31.3221 36.2594C31.3969 36.2114 31.4854 36.1841 31.5795 36.1865C31.7668 36.1902 31.9541 36.2072 32.1414 36.2152C32.3523 36.2246 32.5631 36.2326 32.774 36.2415C33.2126 36.2604 33.6512 36.2844 34.0898 36.3004C34.9534 36.3314 35.8194 36.3488 36.6839 36.3187C37.2571 36.2891 37.8289 36.2547 38.3993 36.1865C38.6507 36.1564 38.8841 36.3507 38.9095 36.5997C38.9363 36.8538 38.7476 37.0797 38.4967 37.1098C37.6063 37.2167 36.707 37.2604 35.8104 37.2604C35.7309 37.2604 35.6509 37.26 35.5709 37.26C35.0555 37.2557 34.5411 37.2454 34.0263 37.227C33.542 37.2091 33.0577 37.1818 32.5735 37.1625C32.3894 37.155 32.2059 37.1475 32.0224 37.1395C31.8675 37.1324 31.7132 37.1183 31.5583 37.115C31.4957 37.1136 31.4355 37.099 31.3809 37.0741C31.3993 37.315 31.4214 37.556 31.4496 37.796ZM38.6243 30.0542C38.8813 30.0599 39.0775 30.2764 39.0775 30.5291C39.0775 30.5535 39.0775 30.5785 39.078 30.603C39.1109 31.3456 39.181 32.0869 39.2286 32.829C39.2526 33.2074 39.2752 33.5863 39.3001 33.9646C39.3142 34.1802 39.3236 34.3986 39.3491 34.6132C39.4531 34.6155 39.5571 34.6174 39.6611 34.6193C39.9576 34.6249 40.2536 34.6325 40.5501 34.6362C40.5129 33.7839 40.4753 32.9316 40.4386 32.0798C40.351 30.0566 40.2625 28.0329 40.1736 26.0092C40.0837 23.9474 39.9948 21.8856 39.9039 19.8238C39.8164 17.8377 39.7307 15.8517 39.6441 13.8652C39.6093 13.0726 39.5721 12.2792 39.5368 11.4862C39.5237 11.5106 39.511 11.5346 39.4982 11.5591C39.4502 11.657 39.4027 11.7549 39.3538 11.8523C39.2851 11.9893 39.2145 12.1347 39.1114 12.2495C39.1161 12.2787 39.1175 12.3088 39.1152 12.3389C39.1128 12.3676 39.11 12.3949 39.1067 12.4232C39.0902 12.6524 39.086 12.8821 39.0794 13.1117C39.0723 13.3607 39.0643 13.6092 39.0573 13.8586C39.0417 14.3857 39.0314 14.9133 39.021 15.4408C39.0017 16.4531 38.9984 17.4659 38.9994 18.4783C39.0003 19.4364 39.0399 20.3946 39.053 21.3528C39.0676 22.4004 39.0723 23.4476 39.0723 24.4952C39.0723 25.6195 39.0756 26.7438 39.0705 27.8686C39.069 28.1176 38.8511 28.3219 38.6055 28.3219C38.6022 28.3219 38.5989 28.3219 38.5951 28.3219C38.3391 28.3162 38.141 28.0997 38.1419 27.847C38.1466 26.8667 38.1438 25.8859 38.1438 24.9051C38.1438 23.9135 38.1476 22.9224 38.133 21.9312C38.1179 20.8667 38.0897 19.8016 38.0737 18.7371C38.0586 17.7191 38.0756 16.7007 38.0887 15.6827C38.0963 15.0954 38.1113 14.5081 38.1268 13.9207C38.1344 13.6576 38.1428 13.3941 38.1504 13.1315C38.1584 12.8416 38.1551 12.5474 38.1923 12.2594C38.1904 12.2792 38.1885 12.2989 38.1866 12.3187C38.1871 12.3187 38.1871 12.3182 38.1871 12.3182C38.1894 12.2853 38.1941 12.2533 38.2017 12.2222C38.1339 12.1526 38.068 12.081 38.0031 12.009C37.8407 11.8288 37.6826 11.6448 37.5244 11.4607C37.4496 11.3742 37.3753 11.2857 37.3004 11.1981C37.2599 11.3257 37.219 11.4532 37.1762 11.5798C37.0915 11.8326 36.9997 12.0848 36.883 12.3248C36.8411 12.4109 36.7884 12.4867 36.7333 12.5648C36.7009 12.6006 36.6679 12.6364 36.635 12.6717C36.6293 12.6773 36.6241 12.6834 36.618 12.6891C36.6171 12.7474 36.6171 12.8058 36.6185 12.8642C36.6613 13.8699 36.6863 14.8742 36.6693 15.8804C36.6524 16.8946 36.6251 17.9088 36.5931 18.9225C36.5587 20.012 36.5244 21.102 36.4971 22.1919C36.4726 23.1756 36.4585 24.1601 36.4458 25.1442C36.4194 27.1467 36.3992 29.1492 36.3973 31.1522C36.3963 31.748 36.3959 32.3443 36.3996 32.9401C36.4029 33.4408 36.402 33.9421 36.4208 34.4423C36.4208 34.4447 36.4213 34.447 36.4213 34.4494C36.4227 34.4781 36.4241 34.5073 36.426 34.5355C36.8811 34.5463 37.3353 34.5633 37.7904 34.5774C37.9979 34.584 38.2059 34.5892 38.4135 34.5939C38.3956 34.4033 38.3866 34.2113 38.3744 34.0206C38.348 33.6258 38.3245 33.2309 38.2996 32.8361C38.2737 32.4337 38.2436 32.0318 38.2148 31.6294C38.1885 31.2562 38.1499 30.8811 38.1499 30.5065C38.1499 30.2571 38.3702 30.0533 38.6144 30.0533C38.6172 30.0542 38.621 30.0542 38.6243 30.0542ZM34.1896 11.8307C33.958 12.1629 33.7303 12.5069 33.4507 12.8016C33.4032 12.8514 33.3505 12.8976 33.2945 12.938C33.2949 12.946 33.2954 12.9545 33.2954 12.9625C33.3006 13.1009 33.3034 13.2392 33.3039 13.3776C33.3043 13.6073 33.2963 13.8365 33.2888 14.0661C33.2709 14.6026 33.2549 15.1401 33.2413 15.6771C33.2163 16.6814 33.2069 17.6857 33.1886 18.69C33.1801 19.1635 33.174 19.6374 33.1702 20.1118C33.1712 20.1118 33.1726 20.1123 33.174 20.1123C33.4196 20.173 33.5599 20.4502 33.4921 20.6864C33.4451 20.8516 33.3171 20.9636 33.165 21.0032C33.1641 21.2469 33.1632 21.4907 33.1627 21.734C33.1599 22.7073 33.1665 23.6801 33.1585 24.6533C33.1495 25.6939 33.1359 26.734 33.1316 27.7745C33.1279 28.7548 33.1208 29.7356 33.157 30.715C33.1594 30.7804 33.1617 30.8458 33.1641 30.9112C33.1905 31.5033 33.2262 32.0948 33.278 32.6855C33.3274 33.2493 33.3646 33.8131 33.3938 34.3783C33.3961 34.4235 33.3942 34.4677 33.3867 34.5101C33.8686 34.5186 34.351 34.5195 34.8329 34.5219C35.0541 34.5228 35.2753 34.5233 35.4965 34.5242C35.4956 34.4908 35.4942 34.4574 35.4928 34.4244C35.4843 34.2117 35.4824 33.9985 35.4791 33.7853C35.4711 33.2771 35.4697 32.7683 35.4683 32.26C35.465 31.2684 35.4702 30.2773 35.4753 29.2857C35.4862 27.2884 35.5069 25.2906 35.5459 23.2937C35.5864 21.2131 35.6641 19.1338 35.7177 17.0541C35.7323 16.4569 35.7459 15.8597 35.7464 15.2625C35.7474 14.6426 35.7356 14.0238 35.7139 13.404C35.7069 13.2294 35.6989 13.0552 35.6923 12.8816C35.6899 12.8256 35.6867 12.7653 35.6862 12.7041C35.5836 12.6166 35.4942 12.5107 35.4052 12.4142C35.2908 12.2905 35.1774 12.1653 35.0645 12.0396C34.9548 11.9177 34.8456 11.7949 34.7369 11.6716C34.655 11.5779 34.5741 11.4829 34.4908 11.3906C34.391 11.5375 34.2913 11.6848 34.1896 11.8307ZM31.2162 34.3708C31.2924 34.3774 31.3682 34.3915 31.4435 34.4023C31.5677 34.4207 31.6924 34.4343 31.8172 34.4475C32.0346 34.4626 32.2525 34.4743 32.4704 34.4833C32.4699 34.4804 32.4695 34.4776 32.4695 34.4748C32.4478 34.0494 32.4229 33.6244 32.3894 33.1994C32.3523 32.7349 32.3071 32.2709 32.2798 31.8054C32.221 30.7931 32.2003 29.7817 32.2003 28.7675C32.2003 27.7651 32.205 26.7631 32.2167 25.7607C32.2285 24.7418 32.2304 23.7229 32.2318 22.7035C32.2327 22.0818 32.2341 21.4592 32.2374 20.8375C32.0388 20.7895 31.8402 20.741 31.6412 20.693C31.4538 20.6478 31.2665 20.6022 31.0811 20.5495C31.0628 21.2356 31.0435 21.9218 31.0237 22.608C30.9945 23.6227 30.979 24.6373 30.9691 25.6525C30.9597 26.6554 30.9559 27.6587 30.9715 28.6616C30.9875 29.7008 31.0284 30.7399 31.0661 31.7791C31.0675 31.8148 31.0689 31.8506 31.0703 31.8859C31.0703 31.8873 31.0703 31.8892 31.0708 31.8906C31.0708 31.8953 31.0712 31.8995 31.0712 31.9043C31.0712 31.9099 31.0717 31.9146 31.0722 31.9198C31.0722 31.9221 31.0726 31.925 31.0726 31.9273C31.075 31.9758 31.0764 32.0247 31.0788 32.0727C31.0783 32.0723 31.0783 32.0723 31.0783 32.0723C31.1117 32.8389 31.1701 33.6046 31.2162 34.3708ZM13.3079 16.8946C13.2642 17.1341 13.2204 17.3728 13.1766 17.6123C13.0754 18.1634 12.9757 18.715 12.8754 19.2665C12.706 20.2017 12.5347 21.1373 12.3836 22.0757C12.2142 23.1271 12.0523 24.1785 11.906 25.2331C11.7685 26.2266 11.6495 27.2215 11.5445 28.2188C11.473 28.8969 11.4137 29.5761 11.3511 30.2552C11.3003 30.8406 11.2522 31.4256 11.2108 32.012C11.1897 32.3104 11.1708 32.6088 11.153 32.9072C11.1398 33.1227 11.1224 33.3406 11.1139 33.5576C11.2367 33.5599 11.36 33.5575 11.4838 33.5557C11.4852 33.5557 11.4862 33.5557 11.488 33.5557C12.3088 33.5208 13.13 33.4733 13.948 33.4032C14.3668 33.3674 14.7885 33.3378 15.2055 33.2822C15.4243 33.2535 15.6455 33.2309 15.8639 33.1956C16.0733 33.1618 16.2828 33.1274 16.4922 33.0935C17.2556 32.958 18.0199 32.8253 18.7851 32.6996C19.5456 32.5744 20.308 32.4601 21.0686 32.3358C21.5072 32.26 21.9458 32.1847 22.3825 32.1C22.6113 32.0558 22.8391 32.0083 23.0668 31.9593C23.2678 31.9165 23.4702 31.8723 23.6674 31.8148C23.6899 31.8073 23.7125 31.7988 23.7347 31.7904C23.7384 31.788 23.7427 31.7857 23.7469 31.7833C23.7488 31.7819 23.7511 31.7805 23.753 31.7786C23.7535 31.7781 23.7544 31.7776 23.7554 31.7767C23.7605 31.7678 23.7657 31.7588 23.7709 31.7503C23.7794 31.732 23.7874 31.7136 23.7949 31.6948C23.801 31.6751 23.8067 31.6548 23.8123 31.6341C23.8184 31.6002 23.8236 31.5668 23.8274 31.5325C23.8349 31.4139 23.8358 31.2967 23.833 31.1781C23.8095 30.8783 23.7841 30.5785 23.7422 30.2806C23.6956 29.9507 23.6434 29.6227 23.5888 29.2937C23.3967 28.3082 23.1756 27.3288 22.9718 26.3457C22.7694 25.371 22.5628 24.3968 22.3487 23.4245C22.2023 22.7572 22.0616 22.0884 21.8931 21.4263C21.8107 21.1025 21.719 20.7805 21.6347 20.4577C21.5604 20.1725 21.486 19.8882 21.4018 19.6063C21.3194 19.3508 21.2394 19.0948 21.1509 18.8411C21.0766 18.626 20.9848 18.4171 20.8916 18.21C20.878 18.1813 20.8653 18.1526 20.8521 18.1234C20.7867 17.9803 20.7236 17.8373 20.6634 17.6928C20.6201 17.7055 20.5772 17.7172 20.5339 17.7295C20.1955 17.8213 19.8477 17.8782 19.4995 17.9112C19.3687 17.9234 19.2378 17.9286 19.107 17.9286C18.8609 17.9286 18.6147 17.9111 18.3686 17.8942C18.114 17.8768 17.8589 17.8589 17.6047 17.8382C17.3299 17.8156 17.056 17.7883 16.7821 17.7582C16.5374 17.7304 16.2945 17.6881 16.0512 17.6495C15.9401 17.6316 15.83 17.6005 15.7204 17.5751C15.6088 17.5497 15.4959 17.5281 15.3857 17.4965C15.1415 17.4269 14.8954 17.3624 14.6553 17.2786C14.3984 17.1892 14.1442 17.1007 13.8929 16.9963C13.7729 16.9464 13.6524 16.8965 13.5324 16.8466C13.4651 16.8188 13.3988 16.7864 13.3334 16.7539C13.3254 16.8009 13.3169 16.8475 13.3079 16.8946ZM6.55024 22.9544C6.55965 23.0024 6.57047 23.0499 6.58412 23.097C6.60718 23.168 6.63307 23.2372 6.66225 23.3064C6.69896 23.3808 6.73801 23.4528 6.78084 23.5243C6.86178 23.6453 6.94745 23.7624 7.03969 23.8758C7.17947 24.0392 7.32677 24.1935 7.48113 24.3437C7.70703 24.547 7.93481 24.7465 8.16683 24.9428C8.3852 25.1272 8.6078 25.3066 8.82947 25.4873C9.07325 25.6859 9.31704 25.884 9.56176 26.0817C9.77307 26.252 9.97968 26.4281 10.1999 26.5867C10.3322 26.6761 10.4668 26.7584 10.6084 26.8323C10.6578 26.8568 10.7073 26.8817 10.7572 26.9057C10.7783 26.7246 10.8009 26.5429 10.824 26.3622C10.9591 25.2939 11.1106 24.2284 11.2706 23.1643C11.4123 22.2249 11.5737 21.2884 11.7403 20.3532C11.921 19.3367 12.1055 18.3206 12.2904 17.305C12.2481 17.3393 12.2053 17.3737 12.162 17.4085C11.9869 17.5483 11.8048 17.6772 11.6226 17.8081C11.273 18.0599 10.9172 18.3032 10.5661 18.5531C9.88273 19.0397 9.20927 19.54 8.55839 20.0699C8.41532 20.1932 8.27602 20.316 8.14048 20.4483C8.00494 20.5805 7.87693 20.7189 7.74751 20.8582C7.57432 21.0596 7.40254 21.2615 7.23453 21.4677C7.09146 21.6427 6.96156 21.8272 6.83261 22.0117C6.7639 22.1199 6.69472 22.2273 6.63166 22.3388C6.60765 22.3896 6.58554 22.4404 6.56483 22.4922C6.5573 22.5167 6.55024 22.5416 6.54412 22.5666C6.53706 22.6014 6.53236 22.6367 6.52859 22.672C6.52859 22.6725 6.52859 22.6725 6.52859 22.6729C6.52624 22.7242 6.5267 22.7755 6.53 22.8268C6.52953 22.8071 6.52858 22.7873 6.52764 22.7675C6.53329 22.8297 6.54082 22.8922 6.55024 22.9544ZM31.3273 13.435C31.2463 14.4619 31.2148 15.4912 31.1832 16.5204C31.1588 17.3257 31.1428 18.1314 31.1239 18.9366C31.1188 19.1456 31.1136 19.3546 31.1084 19.563C31.1084 19.5696 31.1079 19.5762 31.1079 19.5828C31.131 19.5918 31.1541 19.6007 31.1766 19.6096C31.2501 19.6317 31.3244 19.6529 31.3983 19.6732C31.4308 19.6821 31.4637 19.6911 31.4962 19.6995C31.5018 19.7009 31.508 19.7024 31.5136 19.7042C31.5494 19.7136 31.5856 19.7226 31.6214 19.732C31.796 19.7772 31.9715 19.8186 32.1471 19.8609C32.1796 19.8689 32.2125 19.877 32.245 19.8845C32.2454 19.8186 32.2459 19.7527 32.2464 19.6868C32.2567 18.6736 32.2789 17.6608 32.2949 16.648C32.3043 16.0357 32.3174 15.4229 32.3367 14.8107C32.3551 14.2059 32.3871 13.6007 32.3702 12.9955C32.2158 12.8948 32.0906 12.7437 31.9654 12.6105C31.7776 12.411 31.6073 12.1954 31.4364 11.9813C31.4011 12.467 31.3654 12.9508 31.3273 13.435ZM9.98486 7.32066C9.97827 7.36349 9.9665 7.40584 9.95756 7.44867C9.94532 7.50562 9.93262 7.56304 9.92039 7.61998C9.9025 7.70046 9.88509 7.78046 9.86768 7.86094C9.84885 7.94707 9.84085 8.03648 9.82814 8.12354C9.81073 8.23885 9.79332 8.35463 9.7759 8.46993C9.7632 8.55512 9.76037 8.64312 9.75284 8.72925C9.74437 8.82431 9.7359 8.91937 9.72696 9.01444C9.71519 9.22904 9.70907 9.44366 9.71425 9.65873C9.74107 10.2254 9.81778 10.7887 9.89214 11.3506C9.93591 11.6024 9.98203 11.8509 10.0531 12.097C10.1105 12.2749 10.1769 12.4481 10.2531 12.619C10.3407 12.8016 10.4371 12.978 10.5421 13.1508C10.7026 13.3997 10.8776 13.6365 11.0631 13.8675C11.1525 13.9706 11.2414 14.0741 11.3308 14.1772C11.4871 14.3579 11.6542 14.5288 11.8292 14.6921C12.034 14.8756 12.2457 15.0479 12.4693 15.2065C12.7484 15.3952 13.0383 15.5637 13.3362 15.7209C13.5249 15.8122 13.7136 15.9035 13.9023 15.9943C13.9918 16.0376 14.0868 16.071 14.1781 16.1091C14.2807 16.1515 14.3843 16.1948 14.4869 16.2376C14.7579 16.3322 15.0267 16.4277 15.3029 16.5073C15.4394 16.5459 15.5754 16.5906 15.7138 16.6226C15.8724 16.6588 16.0305 16.695 16.1891 16.7313C16.3778 16.7614 16.5661 16.7915 16.7548 16.8217C16.9468 16.8522 17.144 16.8654 17.3379 16.8866C17.5911 16.9078 17.8448 16.9289 18.0984 16.9464C18.4684 16.9718 18.8401 17.0071 19.2105 17.001C19.42 16.9901 19.628 16.9671 19.8355 16.9337C20.0722 16.8904 20.3043 16.8325 20.5363 16.7661C20.6873 16.7167 20.8384 16.6673 20.9895 16.6183C21.062 16.5943 21.133 16.5609 21.2036 16.5332C21.2865 16.4997 21.3693 16.4673 21.4521 16.4343C21.5919 16.3689 21.7317 16.3035 21.8714 16.2376C22.0352 16.1604 22.1933 16.0677 22.3538 15.983C22.6499 15.8267 22.9351 15.6484 23.2207 15.4733C23.353 15.3839 23.4843 15.2935 23.6165 15.2041C23.6782 15.1622 23.7351 15.1105 23.7939 15.0639C23.8542 15.0163 23.9144 14.9688 23.9747 14.9213C24.0838 14.8238 24.1921 14.726 24.3008 14.6281C24.4138 14.5264 24.5206 14.4167 24.6293 14.3109C24.8246 14.1212 25.01 13.9207 25.1964 13.7221C25.339 13.564 25.4783 13.4044 25.6162 13.2425C25.7494 13.0863 25.8694 12.9188 25.9899 12.7526C26.0454 12.6651 26.101 12.5766 26.1565 12.4886C26.2083 12.4062 26.2516 12.3168 26.2967 12.2298C26.3414 12.1323 26.3852 12.0345 26.4304 11.937C26.4695 11.8514 26.4991 11.7605 26.5316 11.6721C26.5617 11.5732 26.5918 11.4749 26.6219 11.3765C26.6492 11.289 26.6657 11.1967 26.685 11.1064C26.7034 10.9962 26.7217 10.8861 26.7401 10.7765C26.7565 10.6748 26.7645 10.5708 26.7758 10.4682C26.7852 10.3124 26.7961 10.1566 26.7994 10.0004C26.8027 9.82768 26.8008 9.65544 26.797 9.48225C26.7834 9.29447 26.7674 9.10857 26.7471 8.92173C26.7344 8.84831 26.7217 8.7749 26.7095 8.70148C26.693 8.60595 26.6634 8.51087 26.6408 8.41628C26.6177 8.34098 26.5942 8.26521 26.5702 8.18944C26.541 8.09437 26.4986 8.00213 26.4629 7.91036C26.3843 7.73811 26.3061 7.56492 26.2125 7.4002C26.1165 7.23171 26.0181 7.06605 25.9169 6.90039C25.8073 6.7352 25.6958 6.57143 25.5828 6.40859C25.4642 6.2387 25.3338 6.07727 25.2058 5.9149C25.1009 5.79348 24.9969 5.67442 24.8844 5.56052C24.7719 5.44663 24.6561 5.33839 24.5385 5.23015C24.4034 5.11814 24.2693 5.00613 24.13 4.89977C23.9883 4.79153 23.8448 4.68846 23.6998 4.58492C23.4673 4.42444 23.233 4.26772 22.9944 4.11665C22.7548 3.96558 22.5035 3.83333 22.2522 3.7039C22.0169 3.59095 21.7806 3.47847 21.5411 3.37493C21.3109 3.2761 21.078 3.18621 20.8431 3.09915C20.8158 3.09021 20.7885 3.0808 20.7612 3.07186C20.6986 3.1048 20.6276 3.12315 20.5509 3.12315C20.5471 3.12315 20.5438 3.12316 20.5396 3.12269C20.3739 3.11892 20.2181 3.01915 20.1391 2.87702C19.8383 2.7876 19.5353 2.70713 19.2284 2.63606C18.8806 2.56406 18.5319 2.50193 18.1831 2.43511C17.9996 2.39981 17.817 2.36404 17.6335 2.32921C17.5097 2.30568 17.385 2.28874 17.2598 2.27415C17.2339 2.48687 17.0748 2.6657 16.8494 2.68971C16.8343 2.69159 16.8193 2.69206 16.8047 2.69206C16.6353 2.69206 16.4705 2.59464 16.3901 2.44828C16.3298 2.44404 16.2705 2.42663 16.2169 2.39416C16.1698 2.38663 16.1227 2.3805 16.0752 2.37486C15.9966 2.37109 15.9185 2.37015 15.8399 2.37062C15.7486 2.37391 15.6559 2.37486 15.5655 2.38568C15.4319 2.40074 15.2978 2.41627 15.1636 2.4318C14.8022 2.49487 14.4436 2.5584 14.0906 2.66147C13.8365 2.74148 13.588 2.83466 13.3437 2.94197C13.1093 3.05162 12.8825 3.17352 12.6608 3.30765C12.5229 3.39754 12.3921 3.49495 12.2646 3.59896C11.9982 3.82674 11.7478 4.07006 11.5097 4.32749C11.3803 4.47244 11.2574 4.62068 11.144 4.77881C10.9501 5.06495 10.7769 5.36381 10.6179 5.67066C10.52 5.86596 10.432 6.06645 10.3411 6.26458C10.3039 6.346 10.2766 6.43353 10.2446 6.5173C10.2126 6.60107 10.1811 6.68438 10.1491 6.76768C10.1223 6.8571 10.0955 6.94699 10.0691 7.03594C10.0409 7.13101 10.0051 7.22654 9.98344 7.32301C9.98532 7.31313 9.98768 7.30373 9.98956 7.29384C9.98956 7.30232 9.98721 7.31125 9.98486 7.32066ZM32.4906 9.96887C32.261 10.3167 32.0337 10.6659 31.8049 11.0141C31.8214 11.0278 31.8374 11.0428 31.852 11.0598C31.8816 11.0941 31.9183 11.1247 31.9508 11.1572C32.0068 11.2132 32.0591 11.2758 32.1085 11.3374C32.1993 11.4513 32.2897 11.5643 32.3805 11.6782C32.5142 11.8368 32.6521 11.9926 32.798 12.1408C32.8093 12.13 32.8201 12.1187 32.8314 12.1074C33.0695 11.8335 33.2738 11.5266 33.4804 11.2283C33.622 11.0235 33.7599 10.8155 33.8987 10.6085C33.975 10.4946 34.0559 10.3887 34.1792 10.3223C34.2988 10.2583 34.4536 10.2498 34.583 10.287C34.7209 10.3261 34.8414 10.4226 34.9426 10.52C35.0273 10.6009 35.1064 10.6856 35.1836 10.7736C35.3671 10.9821 35.5497 11.1916 35.7356 11.3982C35.857 11.5332 35.9775 11.6692 36.1013 11.802C36.1606 11.6645 36.2123 11.5243 36.2636 11.3831C36.3563 11.1092 36.4429 10.8334 36.5272 10.5572C36.5479 10.4884 36.5677 10.4197 36.5912 10.352C36.619 10.2738 36.6547 10.1919 36.707 10.1261C36.7592 10.0606 36.8251 10.0197 36.8976 9.98111C37.0331 9.90911 37.1974 9.91193 37.3376 9.97264C37.4995 10.0428 37.6247 10.1778 37.7428 10.3044C38.0398 10.6212 38.3113 10.9619 38.6003 11.2866C38.6794 11.1285 38.7594 10.9704 38.845 10.8155C38.982 10.5666 39.1175 10.3167 39.2512 10.0658C39.2629 10.0437 39.2766 10.0235 39.2916 10.0046C38.5146 9.28458 37.7381 8.56405 36.9611 7.84399C36.9239 7.89059 36.8773 7.93154 36.8232 7.96307C36.6392 8.07132 36.4401 8.16967 36.2373 8.23744C36.0076 8.31415 35.7784 8.3678 35.5389 8.40168C35.3845 8.42333 35.2283 8.43463 35.072 8.43463C34.8616 8.4351 34.6513 8.41392 34.4461 8.36921C34.2164 8.31932 33.9919 8.24027 33.7882 8.12261C33.7693 8.11178 33.7505 8.10049 33.7317 8.08873C33.3175 8.71513 32.9038 9.342 32.4906 9.96887Z" fill="#053B4A"/>
<path d="M11.4627 27.3513C11.2156 27.2991 11.0434 27.0647 11.0895 26.811C11.1342 26.5677 11.3822 26.3851 11.6298 26.4378C11.6623 26.4444 11.6947 26.4496 11.7277 26.4538C11.891 26.4637 12.0538 26.4642 12.2176 26.4642C13.2233 26.4275 14.2272 26.3635 15.232 26.3136C16.2264 26.2642 17.2213 26.2246 18.2162 26.1851C19.0224 26.1531 19.829 26.1281 20.6357 26.1041C21.0268 26.0924 21.4174 26.0815 21.8085 26.0707C22.1935 26.0604 22.5789 26.0472 22.9643 26.0552C23.2171 26.0608 23.4171 26.2952 23.4044 26.5423C23.3917 26.8007 23.17 26.988 22.9177 26.9828C22.7841 26.98 22.6514 26.9804 22.5182 26.9819C22.5379 26.9814 22.5582 26.9809 22.578 26.9809C21.6584 26.996 20.7388 27.028 19.8196 27.0576C18.8275 27.0896 17.8355 27.1282 16.8434 27.1706C15.9421 27.2092 15.0409 27.2501 14.1406 27.3C13.6897 27.3249 13.2389 27.356 12.7875 27.3715C12.548 27.38 12.3084 27.3913 12.0689 27.3913C12.0529 27.3913 12.0369 27.3913 12.0204 27.3913C11.834 27.3918 11.6458 27.3899 11.4627 27.3513Z" fill="#053B4A"/>
<path d="M16.2883 33.6735C16.2558 33.2217 16.2544 32.769 16.2553 32.3163C16.2563 31.8701 16.2647 31.424 16.2746 30.9783C16.2958 30.0318 16.3447 29.0845 16.3452 28.1376C16.341 27.9733 16.3349 27.8096 16.3254 27.6453C16.3179 27.5102 16.2873 27.3587 16.3358 27.2283C16.3871 27.0895 16.4845 26.977 16.6266 26.9281C16.8662 26.8462 17.1345 26.9742 17.2182 27.2137C17.2408 27.2782 17.2474 27.3455 17.2408 27.4105C17.2512 27.634 17.2653 27.8571 17.2709 28.0806C17.2771 28.3032 17.2728 28.5268 17.2676 28.7494C17.2563 29.2219 17.238 29.6939 17.2239 30.166C17.197 31.07 17.1754 31.9746 17.1843 32.8791C17.1839 32.8594 17.1834 32.8391 17.1834 32.8189C17.1872 33.0796 17.1952 33.3399 17.2145 33.5997C17.2323 33.8519 17.0413 34.0792 16.7885 34.0995C16.7768 34.1004 16.765 34.1009 16.7528 34.1009C16.5156 34.1009 16.3061 33.9136 16.2883 33.6735Z" fill="#053B4A"/>
</svg>
