<svg width="48" height="48" viewBox="0 0 48 48" fill="none" xmlns="http://www.w3.org/2000/svg">
<path d="M19.881 18.9072C19.4986 18.9048 19.1166 18.8831 18.7352 18.8576C18.2155 18.8229 17.6935 18.7598 17.1849 18.6467C16.6743 18.533 16.1701 18.376 15.6947 18.1559C15.2068 17.93 14.7628 17.6203 14.337 17.2947C14.0124 17.0462 13.7032 16.7683 13.4258 16.4678C13.2876 16.3175 13.1441 16.1706 13.0121 16.0146L13.0111 16.0136C13.014 16.017 13.0164 16.0204 13.0193 16.0233C13.016 16.0194 13.0131 16.016 13.0102 16.0127C12.9413 15.9452 12.883 15.86 12.8228 15.7877C12.7597 15.7126 12.6971 15.637 12.634 15.5614C12.6239 15.5503 12.6143 15.5392 12.6056 15.5272C12.6032 15.5243 12.6008 15.5214 12.5984 15.518C12.6008 15.5209 12.6032 15.5233 12.6051 15.5262C12.5974 15.5166 12.5892 15.507 12.5815 15.4978C12.5748 15.4896 12.568 15.4819 12.5613 15.4737C12.5753 15.4901 12.5892 15.507 12.6027 15.5233C12.5257 15.4313 12.4553 15.3336 12.3831 15.2382C12.2877 15.1125 12.1914 14.9878 12.0999 14.8587C11.8967 14.5712 11.7093 14.275 11.5456 13.9634C11.3674 13.6248 11.2282 13.2674 11.114 12.9033C10.9238 12.2989 10.8231 11.6588 10.8265 11.024C10.8279 10.7755 10.8255 10.5275 10.8395 10.2794C10.8491 10.1138 10.8588 9.94808 10.8684 9.78241C10.8833 9.52281 10.918 9.26419 10.9585 9.007C11.0678 8.31202 11.2768 7.64112 11.561 6.99864C11.8336 6.3812 12.1746 5.80037 12.6307 5.299C12.8093 5.1025 12.9957 4.90937 13.1975 4.73598C13.3223 4.62858 13.447 4.52119 13.5717 4.41379C13.9147 4.11904 14.2759 3.85173 14.6607 3.61526C14.9164 3.45777 15.1876 3.33544 15.4602 3.2107C15.6321 3.13219 15.8093 3.0691 15.9856 3.00312C16.2818 2.89138 16.6103 2.80132 16.9296 2.81625C16.9493 2.81721 16.9691 2.81914 16.9888 2.82251C17.1425 2.78254 17.2971 2.74594 17.4522 2.71367C17.7113 2.66021 17.9704 2.62168 18.2329 2.59086C18.3576 2.57641 18.4872 2.5711 18.6124 2.56869C18.7506 2.56628 18.8884 2.5634 19.0271 2.56484C19.2948 2.56773 19.5626 2.57544 19.8304 2.58604C20.34 2.60578 20.8481 2.65106 21.3547 2.705C21.8667 2.75942 22.3767 2.82925 22.8795 2.94099C23.3708 3.05032 23.8568 3.18759 24.3417 3.32196C24.5801 3.38794 24.821 3.45343 25.0545 3.53627C25.1942 3.58636 25.3377 3.63067 25.4755 3.68654C25.6021 3.73759 25.7283 3.78864 25.8545 3.83921C26.3226 4.02897 26.7802 4.25726 27.2161 4.51108C27.4318 4.6363 27.6471 4.76875 27.8475 4.91805C27.963 5.00426 28.0782 5.09046 28.1937 5.17667C28.304 5.25903 28.4061 5.35488 28.5116 5.4435C28.7192 5.61784 28.9051 5.81771 29.09 6.01517C29.2605 6.19723 29.4195 6.39181 29.5717 6.58927C29.7258 6.78914 29.8756 6.99238 30.0095 7.2067C30.0817 7.32181 30.1539 7.43692 30.2257 7.55251C30.2979 7.66858 30.3586 7.79283 30.4246 7.91227C30.4867 8.02449 30.5378 8.14394 30.5937 8.25953C30.6563 8.38908 30.7073 8.52538 30.7622 8.65831C30.8619 8.90008 30.9303 9.15535 30.9958 9.4082C31.0613 9.66297 31.0984 9.92401 31.1355 10.1836C31.1721 10.4413 31.1784 10.7009 31.1788 10.9605C31.1793 11.2234 31.1451 11.4869 31.1148 11.7484C31.0864 11.9935 31.0406 12.2358 30.991 12.478C30.9457 12.6981 30.8937 12.9154 30.8282 13.1306C30.7613 13.3522 30.6731 13.5655 30.5807 13.777C30.468 14.0346 30.3423 14.287 30.2079 14.5346C29.8707 15.153 29.4325 15.7035 28.9335 16.1995C28.7452 16.3869 28.542 16.5607 28.3421 16.7361C28.1056 16.9432 27.8576 17.1382 27.6004 17.3188C27.1453 17.6386 26.6323 17.8698 26.1151 18.0701C25.9768 18.1241 25.8381 18.1776 25.6999 18.2315C25.5679 18.283 25.4273 18.3177 25.292 18.3601C25.1889 18.3928 25.0854 18.4222 24.9809 18.4497C24.8523 18.4829 24.7246 18.5219 24.5951 18.5489C24.4453 18.5802 24.295 18.611 24.1448 18.6418C24.0128 18.6688 23.8784 18.6857 23.7455 18.7059C23.4999 18.743 23.2533 18.768 23.0057 18.7955C22.7736 18.8205 22.539 18.8321 22.3059 18.8451C22.029 18.861 21.753 18.8759 21.4756 18.8865C21.0792 18.9014 20.6834 18.9062 20.2875 18.9062C20.1512 18.9086 20.0163 18.9077 19.881 18.9072ZM19.2515 17.9387C19.5337 17.9469 19.8164 17.9574 20.0991 17.9589C20.6366 17.9623 21.1732 17.9512 21.7102 17.9314C22.0959 17.9093 22.4808 17.8847 22.8661 17.8558C23.2119 17.8303 23.5548 17.7778 23.8972 17.7253C24.0624 17.6911 24.2276 17.6569 24.3933 17.6227C24.5628 17.588 24.7309 17.5355 24.898 17.4917C25.0719 17.4383 25.2486 17.3896 25.4177 17.3236C25.7115 17.2095 26.0048 17.0973 26.2928 16.9687C26.5037 16.8695 26.7094 16.7625 26.9078 16.6412C27.1462 16.4837 27.3673 16.3084 27.5917 16.1321C27.9168 15.8465 28.2409 15.5619 28.5376 15.2454C28.725 15.0359 28.8988 14.8168 29.0621 14.5875C29.1941 14.3925 29.313 14.1907 29.4262 13.9841C29.4907 13.856 29.5562 13.7283 29.6203 13.6002C29.6593 13.5222 29.6906 13.4394 29.7258 13.3594C29.7773 13.2414 29.8255 13.1234 29.8703 13.0025C29.93 12.8253 29.9801 12.6461 30.0244 12.4641C30.062 12.2815 30.101 12.0995 30.1294 11.9145C30.1602 11.7152 30.1852 11.5158 30.2084 11.3154C30.2151 11.2133 30.2214 11.1112 30.2276 11.0091C30.2339 10.9056 30.2286 10.801 30.2276 10.6975C30.2194 10.592 30.2113 10.487 30.2035 10.3816C30.1949 10.2684 30.1727 10.1547 30.1554 10.0425C30.1352 9.93605 30.1149 9.8301 30.0947 9.72366C30.0735 9.6124 30.0388 9.5021 30.0095 9.39229C29.9709 9.27767 29.9324 9.16256 29.8934 9.04794C29.8539 8.93042 29.7995 8.8158 29.7508 8.70165C29.6661 8.52827 29.5823 8.35634 29.4888 8.18777C29.3949 8.01776 29.2928 7.85352 29.1907 7.68881C29.1127 7.57611 29.0347 7.46293 28.9566 7.35023C28.8791 7.23897 28.7905 7.13398 28.7072 7.02706C28.5872 6.88547 28.4678 6.74435 28.3411 6.60901C28.2068 6.46549 28.0671 6.33016 27.9245 6.19482C27.8181 6.10524 27.7116 6.01566 27.6057 5.92607C27.4954 5.83312 27.3735 5.75125 27.257 5.66552C27.0822 5.54945 26.9083 5.43434 26.7272 5.32887C26.5375 5.2181 26.3448 5.11695 26.1502 5.01629C26.1685 5.02592 26.1868 5.03508 26.2051 5.04471C25.8415 4.87374 25.475 4.71287 25.1017 4.56212C24.8836 4.48506 24.6659 4.41041 24.4443 4.34202C24.243 4.27989 24.0393 4.22499 23.836 4.1696C23.6106 4.10892 23.3857 4.04727 23.1603 3.98851C22.9393 3.9312 22.7182 3.8787 22.4952 3.82861C22.2024 3.77708 21.91 3.72652 21.6143 3.69136C21.3196 3.6562 21.0248 3.62489 20.7286 3.59647C20.0226 3.53916 19.3151 3.50786 18.6056 3.51894C18.4795 3.52665 18.3528 3.53387 18.2271 3.54832C18.0725 3.56614 17.9213 3.58973 17.7686 3.61574C17.7888 3.61237 17.8086 3.609 17.8288 3.60563C17.5374 3.66535 17.2489 3.73325 16.9623 3.81272C16.8631 3.84017 16.7615 3.82861 16.6714 3.7896C16.6035 3.80501 16.5361 3.82332 16.4687 3.84259C16.2842 3.90279 16.1036 3.97359 15.922 4.04198C15.8276 4.08484 15.7337 4.12819 15.6393 4.17106C15.439 4.26256 15.2468 4.36899 15.0585 4.48314C14.7676 4.67049 14.496 4.87903 14.2287 5.09817C14.127 5.18534 14.0259 5.273 13.9248 5.36018C13.7206 5.53549 13.5284 5.7238 13.3449 5.92078C13.2129 6.06768 13.0906 6.21986 12.976 6.38072C12.8498 6.56663 12.7356 6.75832 12.6307 6.95675C12.4645 7.2881 12.3171 7.62619 12.1914 7.9744C12.1042 8.22918 12.031 8.48638 11.9713 8.74838C11.9029 9.07733 11.8543 9.40868 11.8201 9.74293C11.8066 9.97748 11.7931 10.212 11.7791 10.4466C11.7734 10.5492 11.7772 10.6537 11.7767 10.7562C11.7753 10.9051 11.7743 11.0539 11.7782 11.2027C11.7897 11.4445 11.8129 11.6848 11.8499 11.9242C11.8914 12.1491 11.9443 12.3711 12.0084 12.5912C12.085 12.832 12.1726 13.0676 12.2752 13.2987C12.3812 13.5217 12.4982 13.7385 12.6278 13.9484C12.8435 14.2798 13.0839 14.5914 13.3213 14.9073C13.3897 14.9748 13.4475 15.0591 13.5077 15.1313C13.5708 15.2069 13.6343 15.283 13.6979 15.3591C13.7076 15.3692 13.7162 15.3803 13.7244 15.3914C13.7288 15.3962 13.7326 15.4015 13.7369 15.4068C13.734 15.4029 13.7312 15.3996 13.7278 15.3957C13.8217 15.5079 13.9267 15.6119 14.0259 15.7198C14.1728 15.8792 14.3236 16.0319 14.482 16.1798C14.7507 16.4201 15.0354 16.6397 15.3301 16.8483C15.531 16.9851 15.7371 17.1112 15.9519 17.2259C16.1344 17.3169 16.3208 17.3963 16.5125 17.4676C16.8063 17.5707 17.1044 17.6564 17.4083 17.7253C17.7835 17.8019 18.1601 17.8472 18.5397 17.8939C18.7781 17.9098 19.0145 17.9314 19.2515 17.9387Z" fill="#053B4A"/>
<path d="M17.6318 6.09637C17.5152 6.0458 17.4218 5.94804 17.3765 5.82908C17.3312 5.70915 17.3418 5.58971 17.3847 5.47171C17.5147 5.11194 17.6539 4.75458 17.7974 4.4001C17.8755 4.20842 17.9549 4.01818 18.0358 3.82794C18.0705 3.74607 18.1095 3.66612 18.1471 3.58521C18.2131 3.44217 18.281 3.276 18.4009 3.16908C18.594 2.99666 18.8893 2.99233 19.0728 3.1845C19.236 3.35548 19.249 3.64397 19.0916 3.82168C19.0829 3.83661 19.0747 3.85105 19.066 3.86598C18.9124 4.17326 18.7824 4.49307 18.6557 4.81238C18.5194 5.15674 18.3831 5.50109 18.2569 5.84979C18.1909 6.03088 18.0026 6.13394 17.8167 6.13394C17.7531 6.13394 17.69 6.12142 17.6318 6.09637Z" fill="#053B4A"/>
<path d="M20.6076 6.4098C20.3557 6.40402 20.1288 6.18248 20.1438 5.92385C20.1674 5.5164 20.1866 5.10846 20.2025 4.70053C20.2102 4.49102 20.2141 4.28056 20.2199 4.07057C20.2228 3.97425 20.2271 3.87792 20.2314 3.7816C20.2353 3.68816 20.2396 3.59088 20.2565 3.49937C20.3041 3.24459 20.5353 3.06158 20.7973 3.10107C21.0468 3.13912 21.2433 3.38811 21.1956 3.64192C21.1927 3.65782 21.1908 3.67371 21.1889 3.6896C21.1634 4.03589 21.1648 4.38363 21.1513 4.73088C21.1359 5.13592 21.1166 5.54095 21.0935 5.946C21.0791 6.20077 20.8792 6.40981 20.6191 6.41029C20.6158 6.40981 20.6114 6.4098 20.6076 6.4098Z" fill="#053B4A"/>
<path d="M23.3665 7.28095C23.2538 7.21352 23.184 7.10709 23.1488 6.98283C22.9971 6.45257 22.8531 5.91989 22.7091 5.38721C22.5752 4.89259 22.463 4.39316 22.331 3.89805C22.3228 3.87349 22.3151 3.84843 22.3074 3.82387C22.2689 3.70491 22.265 3.58306 22.3156 3.46651C22.3662 3.34947 22.4639 3.25605 22.5834 3.21078C22.8155 3.12264 23.1165 3.24015 23.196 3.48626C23.3602 3.99726 23.4609 4.52801 23.6015 5.04575C23.7566 5.61888 23.9107 6.19201 24.074 6.76273C24.1448 7.01125 23.9647 7.27758 23.7214 7.33489C23.6858 7.34308 23.6492 7.34741 23.6126 7.34741C23.5264 7.3479 23.4407 7.32526 23.3665 7.28095Z" fill="#053B4A"/>
<path d="M5.71162 8.841C5.61385 8.81355 5.50549 8.76298 5.43806 8.68303C5.33114 8.55588 5.25215 8.41092 5.16738 8.26836C4.95354 7.90763 4.73874 7.54785 4.51671 7.19241C4.38186 6.98484 4.24508 6.77918 4.11023 6.57112C4.03702 6.45842 3.96333 6.34621 3.89302 6.23158C3.77791 6.04279 3.6498 5.84147 3.62186 5.61752C3.60741 5.50193 3.61753 5.39789 3.64306 5.28423C3.6681 5.17394 3.73361 5.06846 3.78995 4.97262C3.87665 4.82476 3.99319 4.69473 4.10686 4.56662C4.28409 4.36771 4.46182 4.16929 4.64002 3.97134C4.98726 3.58653 5.34607 3.21375 5.7121 2.84627C5.8956 2.66181 6.09402 2.49324 6.29197 2.32563C6.46921 2.17537 6.65511 2.0357 6.8545 1.91578C6.9961 1.83101 7.14107 1.75829 7.29326 1.69327C7.46423 1.62054 7.64725 1.5743 7.82786 1.5324C8.22423 1.44041 8.63554 1.39177 9.04251 1.41489C9.47645 1.43993 9.90557 1.54542 10.3174 1.67931C10.7075 1.80597 11.0822 1.9726 11.4386 2.17584C11.8147 2.39065 12.1345 2.68781 12.4374 2.99461C12.6831 3.2436 12.9167 3.50464 13.1522 3.76279C13.341 3.96989 13.5259 4.1818 13.7224 4.38263C13.7778 4.42405 13.8245 4.47703 13.8578 4.53868C13.9184 4.6509 13.9237 4.77275 13.8958 4.8946V4.89509C13.8573 5.06414 13.707 5.18068 13.5486 5.22595C13.4118 5.26545 13.2413 5.22403 13.1339 5.13156C13.079 5.08388 13.0284 5.03283 12.9793 4.98034C12.8935 5.02561 12.7939 5.04487 12.6942 5.02561C12.5925 5.00634 12.4909 4.99141 12.3878 4.97985C12.2742 4.97118 12.1615 4.96588 12.0469 4.96443C11.9346 4.97069 11.8244 4.97985 11.7126 4.99671C11.5884 5.02175 11.466 5.05449 11.3432 5.08628C11.2551 5.11325 11.1655 5.13878 11.0802 5.17153C10.9618 5.21728 10.8433 5.26257 10.7248 5.30832C10.6039 5.36371 10.4835 5.41909 10.3626 5.47448C10.2205 5.53998 10.0838 5.62089 9.94603 5.6941C9.70089 5.82413 9.46537 5.97151 9.22745 6.1131C9.06177 6.22436 8.89513 6.33512 8.72897 6.44638C8.59267 6.5374 8.46312 6.63421 8.33212 6.73343C8.19389 6.83794 8.05037 6.93909 7.91696 7.04986C7.76284 7.17797 7.6092 7.30655 7.4546 7.43418C7.31108 7.56422 7.16756 7.69427 7.02404 7.82431C6.90508 7.93219 6.7972 8.05547 6.68594 8.17154C6.61611 8.25438 6.54626 8.33675 6.47643 8.41959C6.42201 8.48364 6.37384 8.55202 6.31557 8.61175C6.26933 8.65943 6.22117 8.70759 6.16723 8.7466C6.11907 8.78176 6.06417 8.80296 6.00974 8.82704C5.96062 8.8492 5.90475 8.85882 5.8484 8.85882C5.80264 8.85978 5.75496 8.85304 5.71162 8.841ZM5.48092 6.9439C5.62396 7.17219 5.7593 7.4053 5.8956 7.63744C5.91101 7.61914 5.9269 7.60034 5.94232 7.58204C6.03045 7.47753 6.13063 7.38169 6.22647 7.28344C6.4066 7.09801 6.60021 6.92849 6.79141 6.75462C6.98262 6.58124 7.18875 6.4223 7.38766 6.25807C7.47724 6.1839 7.57404 6.11647 7.667 6.04615C7.78355 5.95802 7.89962 5.86941 8.01665 5.78127C8.10045 5.71769 8.19293 5.66327 8.28058 5.60451C8.41592 5.51445 8.55078 5.42389 8.68611 5.33335C8.77569 5.27411 8.87009 5.22163 8.96256 5.16672C9.09837 5.08629 9.23419 5.00537 9.37049 4.92494C9.47548 4.86281 9.5877 4.80935 9.69559 4.75252C9.7948 4.70002 9.89353 4.64752 9.99564 4.60081C10.1247 4.54157 10.2528 4.47269 10.3853 4.42212C10.5071 4.37541 10.6285 4.32869 10.7499 4.2815C10.8881 4.22852 11.0359 4.18613 11.1795 4.14857C11.4087 4.08836 11.6399 4.03443 11.8778 4.02336C11.9515 4.01998 12.0247 4.01805 12.0984 4.01805C11.9096 3.81336 11.7174 3.61156 11.5156 3.41987C11.3976 3.31344 11.2767 3.21085 11.1486 3.11694C11.0176 3.02976 10.8823 2.95174 10.7431 2.87805C10.5529 2.78414 10.3578 2.70274 10.1594 2.62905C9.94651 2.55537 9.73171 2.49227 9.51209 2.4417C9.36327 2.41088 9.21493 2.38584 9.0637 2.36946C8.95052 2.36127 8.83782 2.35791 8.72463 2.36032C8.56714 2.37188 8.41062 2.39114 8.25506 2.41618C8.11009 2.44316 7.96753 2.47494 7.82545 2.51396C7.74021 2.54189 7.65688 2.57318 7.57356 2.60786C7.48639 2.65024 7.40211 2.69601 7.31879 2.74609C7.19838 2.82412 7.08328 2.90792 6.9701 2.99558C6.85788 3.08997 6.74373 3.18292 6.63681 3.28358C6.48703 3.42373 6.33917 3.56389 6.19469 3.70934C5.9245 3.98049 5.66394 4.26031 5.40483 4.54157C5.27912 4.68076 5.1539 4.82044 5.02868 4.95963C4.89142 5.11278 4.75031 5.26401 4.62749 5.42872C4.61015 5.4557 4.59378 5.48314 4.5774 5.51108C4.63038 5.61752 4.69251 5.71817 4.75464 5.81931C4.99689 6.19449 5.243 6.56583 5.48092 6.9439Z" fill="#053B4A"/>
<path d="M35.5356 8.21484C35.4249 8.15753 35.3242 8.0824 35.2216 8.0116C35.0834 7.91576 34.9437 7.82281 34.8036 7.73034C34.5358 7.55358 34.2656 7.38068 34.0017 7.19863C33.73 7.01128 33.4613 6.81911 33.1916 6.62791C33.0394 6.52436 32.8877 6.42033 32.7312 6.32256C32.5501 6.2089 32.3656 6.10391 32.1787 5.9994C32.0362 5.92908 31.8946 5.85779 31.7482 5.7947C31.5945 5.72824 31.4395 5.66852 31.2824 5.61073C31.1693 5.57412 31.0556 5.54184 30.94 5.51391C30.8451 5.49465 30.7503 5.47924 30.6539 5.46864C30.5379 5.46094 30.4228 5.45804 30.3067 5.45997C30.2022 5.46671 30.0986 5.47732 29.9951 5.49273C29.9132 5.50862 29.8332 5.52836 29.7523 5.54763C29.5534 5.61216 29.3584 5.68489 29.1662 5.76773C29.1238 5.78796 29.0819 5.8082 29.04 5.82939C28.8849 5.90741 28.7043 5.89824 28.5647 5.813C28.4269 5.86646 28.2617 5.85731 28.1355 5.78218C28.0267 5.71668 27.9467 5.60784 27.9174 5.48406C27.888 5.35884 27.9145 5.24228 27.9718 5.13006C28.2155 4.65904 28.5016 4.2121 28.7862 3.76564C29.1026 3.26909 29.4258 2.77398 29.8 2.31885C30.0134 2.05926 30.2503 1.81362 30.5128 1.60315C30.784 1.38546 31.0758 1.2116 31.3932 1.07049C32.0068 0.797889 32.7105 0.746356 33.3679 0.84846C33.6857 0.898066 33.9949 0.993425 34.295 1.10757C34.6143 1.22894 34.9187 1.39607 35.1975 1.59209C35.4648 1.7804 35.709 1.99616 35.9388 2.22878C36.0755 2.36701 36.2022 2.51342 36.3308 2.65887C36.6631 3.03406 36.9766 3.42561 37.2964 3.81042C37.3282 3.84799 37.3615 3.88459 37.3904 3.92408C37.4111 3.94768 37.4313 3.97273 37.4525 3.99778C37.4385 3.98092 37.425 3.96455 37.4111 3.94817C37.4771 4.02716 37.5459 4.10517 37.6095 4.1856C37.7058 4.30793 37.8031 4.44617 37.8142 4.60799C37.8195 4.68794 37.819 4.75873 37.8017 4.83772C37.7829 4.92152 37.754 4.99715 37.7135 5.07372C37.6548 5.1869 37.582 5.29285 37.5132 5.40025C37.4173 5.54907 37.3268 5.69983 37.2362 5.85154C37.1712 5.96038 37.1154 6.07404 37.0571 6.18674C36.9275 6.47378 36.8057 6.7618 36.692 7.05559C36.6987 7.03632 36.7055 7.01706 36.7122 6.9978C36.7012 7.02862 36.6906 7.05943 36.6795 7.08978C36.6809 7.0864 36.6819 7.08303 36.6833 7.07918C36.6809 7.0864 36.678 7.09363 36.6756 7.10086C36.6713 7.1129 36.667 7.12494 36.6626 7.13698C36.6631 7.13506 36.6641 7.13265 36.665 7.13072C36.6506 7.1707 36.6361 7.21115 36.6222 7.25113C36.6236 7.24728 36.6246 7.2439 36.626 7.24005C36.5798 7.37153 36.536 7.50349 36.4917 7.63593C36.455 7.74719 36.4204 7.85893 36.3693 7.96489C36.2985 8.11178 36.1613 8.24085 35.9994 8.27938C35.9503 8.29094 35.9022 8.29672 35.854 8.29672C35.7447 8.2972 35.6377 8.26782 35.5356 8.21484ZM35.1489 6.82152C35.2727 6.90147 35.3955 6.98237 35.5169 7.06473C35.5621 7.09555 35.6074 7.12784 35.6532 7.1601C35.6931 7.04114 35.7336 6.92218 35.776 6.80418C35.7687 6.82345 35.762 6.84271 35.7553 6.86197C35.7726 6.81333 35.7899 6.76468 35.8073 6.71652C35.8675 6.55084 35.9339 6.38806 36.0014 6.22527C36.0707 6.05719 36.143 5.88909 36.2272 5.72775C36.3236 5.54425 36.4209 5.3651 36.5273 5.1869C36.6207 5.02989 36.7281 4.87962 36.822 4.72213C36.7845 4.67734 36.7474 4.63303 36.7098 4.58824C36.6732 4.54489 36.6337 4.503 36.6005 4.45676C36.5287 4.37055 36.457 4.28482 36.3852 4.19861C36.2489 4.03486 36.1136 3.8711 35.9778 3.70783C35.6792 3.35336 35.3806 2.99745 35.0405 2.68102C34.911 2.56592 34.7771 2.45852 34.636 2.35786C34.5117 2.27502 34.385 2.19941 34.2536 2.12957C34.1062 2.05781 33.9569 1.99472 33.8032 1.93837C33.6616 1.89165 33.5186 1.85119 33.3736 1.81748C33.2489 1.79291 33.1246 1.77317 32.9985 1.7592C32.879 1.75149 32.7605 1.74908 32.6411 1.75245C32.5217 1.76016 32.4037 1.77269 32.2857 1.79099C32.1937 1.80881 32.1036 1.83 32.0135 1.85553C31.9033 1.89165 31.7959 1.93258 31.6894 1.97882C31.5844 2.02987 31.4828 2.08526 31.3826 2.14546C31.2805 2.21289 31.1832 2.28417 31.0879 2.35979C30.9477 2.47923 30.8177 2.60734 30.692 2.74171C30.5273 2.92617 30.3736 3.11881 30.2301 3.32013C30.1463 3.43717 30.0635 3.55468 29.9792 3.67124C29.76 4.00981 29.5361 4.34743 29.3223 4.69034C29.5433 4.61906 29.7697 4.56513 30.0004 4.53383C30.5253 4.46255 31.0556 4.54104 31.5565 4.70238C31.7756 4.7727 31.9871 4.86373 32.1975 4.95476C32.9879 5.29623 33.6824 5.81541 34.3807 6.31004C34.635 6.48294 34.8907 6.65392 35.1489 6.82152Z" fill="#053B4A"/>
<path d="M18.6448 12.4139C18.5735 11.927 18.5615 11.4295 18.5572 10.9382C18.5552 10.6868 18.5533 10.4345 18.5572 10.1831C18.5591 10.0559 18.5586 9.92829 18.5644 9.80066C18.5716 9.64028 18.5567 9.44282 18.6516 9.30412C18.7252 9.19672 18.8206 9.11677 18.9497 9.08594C19.0691 9.05753 19.1982 9.07728 19.3037 9.14037C19.4795 9.24584 19.5777 9.47943 19.5209 9.67786C19.5031 9.99717 19.5064 10.3184 19.5055 10.6387C19.5045 10.9489 19.5122 11.259 19.5238 11.5692C19.5368 11.8187 19.5541 12.0672 19.5902 12.3147C19.6278 12.5709 19.4173 12.8108 19.1674 12.8368C19.1505 12.8387 19.1337 12.8397 19.1168 12.8397C18.8745 12.8392 18.68 12.6538 18.6448 12.4139Z" fill="#053B4A"/>
<path d="M22.0258 12.7788C21.9227 12.6969 21.8698 12.5842 21.8491 12.457C21.7643 11.92 21.7383 11.3715 21.7383 10.8282C21.7383 10.5575 21.7407 10.2869 21.745 10.0162C21.7474 9.85532 21.7508 9.69494 21.7547 9.53456C21.7571 9.44498 21.7566 9.35299 21.772 9.26485C21.7994 9.11122 21.8861 8.99755 22.0176 8.9176C22.2387 8.78227 22.5436 8.89256 22.6611 9.11073C22.7126 9.20657 22.7295 9.31927 22.7092 9.42571C22.6986 9.60198 22.6991 9.7797 22.6962 9.95598C22.6938 10.1111 22.6909 10.2666 22.69 10.4222C22.6876 10.7405 22.6885 11.0579 22.6996 11.3763C22.7203 11.7047 22.7429 12.0327 22.794 12.3578C22.8345 12.6136 22.6187 12.8539 22.3711 12.8799C22.3548 12.8818 22.3384 12.8823 22.322 12.8823C22.2156 12.8823 22.1096 12.8457 22.0258 12.7788Z" fill="#053B4A"/>
<path d="M20.9201 16.8273C20.752 16.8148 20.583 16.7941 20.4183 16.7565C20.0831 16.6794 19.7503 16.5422 19.4743 16.3346C19.1873 16.1188 18.9657 15.8515 18.7928 15.5375C18.6801 15.3328 18.5674 15.0708 18.6363 14.8334C18.684 14.6701 18.8179 14.5415 18.9831 14.5025C19.0264 14.4919 19.0596 14.49 19.1044 14.49C19.3549 14.49 19.5605 14.7067 19.5682 14.9509C19.5783 14.9774 19.5889 15.0029 19.6005 15.0289C19.6294 15.0853 19.6592 15.1402 19.691 15.1951C19.7305 15.2543 19.772 15.3107 19.8163 15.3665C19.8572 15.4113 19.8996 15.4537 19.9439 15.4956C19.9757 15.5231 20.0084 15.5491 20.0421 15.5741C20.1067 15.617 20.1727 15.656 20.2406 15.6931C20.3003 15.721 20.3595 15.7465 20.4207 15.7706C20.4949 15.7952 20.5695 15.8168 20.6456 15.8356C20.7554 15.8554 20.8657 15.8693 20.977 15.8814C21.1012 15.8901 21.2255 15.8939 21.3497 15.8934C21.3883 15.8905 21.4263 15.8857 21.4644 15.8785C21.4571 15.8804 21.4499 15.8828 21.4432 15.8848C21.4523 15.8824 21.462 15.88 21.4711 15.8771C21.474 15.8766 21.4764 15.8761 21.4793 15.8756C21.4774 15.8761 21.475 15.8766 21.473 15.8766C21.5058 15.8669 21.5381 15.8559 21.5698 15.8429C21.6088 15.8236 21.6474 15.8034 21.6854 15.7822C21.7297 15.7523 21.7721 15.7215 21.8145 15.6883C21.8848 15.6266 21.9508 15.5621 22.0153 15.4947C22.1054 15.3925 22.1882 15.2866 22.2711 15.1782C22.3583 15.0491 22.4392 14.9186 22.5133 14.7809C22.5196 14.7684 22.5254 14.7563 22.5316 14.7438C22.589 14.6277 22.6756 14.5353 22.7994 14.4885C22.914 14.4452 23.0441 14.4481 23.1568 14.4967C23.3851 14.5959 23.5185 14.8897 23.4034 15.1219C23.2671 15.3974 23.1062 15.6502 22.9193 15.8944C22.7488 16.1179 22.5499 16.3173 22.3294 16.4916C22.0649 16.6997 21.7403 16.8152 21.4075 16.8408C21.3598 16.8446 21.3117 16.8461 21.2635 16.8461C21.1479 16.8442 21.0328 16.836 20.9201 16.8273Z" fill="#053B4A"/>
<path d="M10.8379 31.2659C10.7691 31.0463 10.7281 30.819 10.6718 30.596C10.6145 30.3691 10.5485 30.1462 10.4806 29.9222C10.3207 29.4675 10.1613 29.0114 9.97681 28.5655C9.76345 28.0496 9.54431 27.5372 9.31939 27.0262C9.11326 26.5571 8.91483 26.0851 8.71929 25.6112C8.62104 25.3733 8.52183 25.1354 8.42261 24.897C8.34074 24.6985 8.24827 24.5044 8.15917 24.3094C8.1611 24.3142 8.1635 24.3185 8.16543 24.3234C8.08789 24.1741 8.00939 24.0257 7.93184 23.8769C7.89861 23.8138 7.85671 23.7541 7.81963 23.6934C7.78447 23.6366 7.74931 23.5797 7.71415 23.5229C7.43192 23.1203 7.14006 22.7244 6.85879 22.3208C6.5756 21.9138 6.29482 21.5054 6.01692 21.095C5.89314 20.9125 5.79345 20.6958 5.86087 20.4713C5.89748 20.3495 5.95624 20.245 6.04919 20.1564C6.17345 20.0374 6.32997 19.9661 6.48891 19.9079C6.70997 19.826 6.93874 19.7677 7.16703 19.7118C7.29273 19.681 7.417 19.6507 7.54414 19.6261C8.05273 19.5283 8.56373 19.4556 9.0781 19.3954C9.58477 19.3362 10.0914 19.2702 10.5991 19.2201C10.8582 19.1946 11.1173 19.1637 11.3769 19.1474C11.6461 19.1305 11.9158 19.106 12.186 19.106C12.3512 19.106 12.5164 19.1055 12.6816 19.1055C12.7943 19.1055 12.908 19.118 13.0207 19.1257C13.3072 19.145 13.5899 19.1729 13.875 19.2052C14.1395 19.235 14.4015 19.2755 14.6649 19.3145C14.8874 19.3473 15.1118 19.3858 15.332 19.4315C15.6103 19.4898 15.8873 19.5486 16.1632 19.6165C16.4315 19.6834 16.6973 19.7576 16.9637 19.8322C17.4439 19.9666 17.9178 20.1217 18.3902 20.2811C18.6469 20.3678 18.895 20.4742 19.142 20.584C19.3853 20.6924 19.6164 20.8311 19.8457 20.9665C20.269 21.2159 20.6707 21.5064 21.0685 21.7948C21.1567 21.8584 21.2438 21.923 21.3305 21.988C21.5372 22.1435 21.5646 22.4576 21.4062 22.6555C21.2414 22.8616 20.9452 22.8867 20.7386 22.7311C20.5046 22.5548 20.2652 22.3858 20.0258 22.2167C19.8235 22.078 19.6184 21.9441 19.4108 21.8136C19.2148 21.6903 19.0115 21.5824 18.8073 21.4746C18.6913 21.423 18.5752 21.371 18.4591 21.3195C18.3464 21.2694 18.2275 21.2309 18.1114 21.188C17.7039 21.0507 17.295 20.9212 16.8832 20.7984C16.4719 20.676 16.0577 20.5686 15.6416 20.4651C15.2785 20.389 14.9149 20.3105 14.5479 20.2565C14.3466 20.2267 14.1447 20.1906 13.9425 20.1675C13.7344 20.1434 13.5268 20.1202 13.3193 20.0962C13.1117 20.0822 12.9046 20.0682 12.697 20.0538C12.5954 20.047 12.4909 20.0543 12.3888 20.0543C12.2785 20.0543 12.1687 20.0543 12.0584 20.0543C11.7497 20.0735 11.4414 20.0904 11.1337 20.1203C10.7546 20.1578 10.3766 20.1987 9.998 20.2431C9.34685 20.3187 8.69762 20.3972 8.04936 20.4945C7.68766 20.5643 7.32982 20.6404 6.97631 20.7439C6.96331 20.7483 6.94982 20.7526 6.93682 20.7574C7.44156 21.5015 7.967 22.2317 8.48619 22.9662C8.56518 23.0784 8.6326 23.2012 8.70437 23.3182C8.76698 23.4189 8.82043 23.5215 8.87534 23.6265C8.93073 23.7314 8.98756 23.836 9.03669 23.9438C9.10459 24.0931 9.1725 24.2429 9.24041 24.3927C9.34684 24.6282 9.44172 24.869 9.54046 25.1079C9.64256 25.3526 9.74322 25.5977 9.84388 25.8429C10.0105 26.246 10.1892 26.6438 10.3645 27.0431C10.5442 27.4529 10.7262 27.8633 10.8871 28.2808C10.9805 28.5226 11.0739 28.7649 11.1674 29.0071C11.2045 29.1044 11.2362 29.2036 11.2704 29.3019C11.3119 29.4199 11.3562 29.5374 11.3923 29.6573C11.4602 29.8813 11.5281 30.1043 11.5854 30.3316C11.6398 30.5445 11.6798 30.7612 11.7405 30.9726C11.7367 30.9591 11.7323 30.9461 11.7285 30.9326C11.7646 31.0511 11.7689 31.1691 11.7188 31.2852C11.6683 31.4022 11.5705 31.4956 11.4511 31.5404C11.3995 31.5602 11.3441 31.5693 11.2883 31.5693C11.0947 31.5708 10.8977 31.4576 10.8379 31.2659Z" fill="#053B4A"/>
<path d="M32.9676 35.9218C32.7552 35.8178 32.5433 35.7108 32.329 35.6112C32.081 35.4956 31.8334 35.3838 31.582 35.2755C31.3826 35.1897 31.1774 35.1165 30.9742 35.0409C30.6626 34.9412 30.3519 34.842 30.037 34.7529C29.7191 34.6628 29.4003 34.5781 29.0814 34.4938C28.4539 34.3281 27.8186 34.1928 27.1853 34.0541H27.1862C26.9397 34.0006 26.6936 33.9467 26.4465 33.8971C26.1854 33.8446 25.9249 33.7983 25.6619 33.7535C25.41 33.7107 25.1533 33.6847 24.8995 33.6553C24.6775 33.6293 24.455 33.6081 24.2325 33.5869C23.9127 33.5614 23.5938 33.5431 23.2731 33.5484C23.2326 33.5503 23.1922 33.5527 23.1517 33.5556C22.8936 33.5729 22.6576 33.3976 22.6296 33.1327C22.6036 32.8823 22.7939 32.628 23.0525 32.6107C23.5736 32.575 24.0918 32.6213 24.6105 32.6694C25.1307 32.7181 25.6479 32.7874 26.1633 32.8751C26.6569 32.9593 27.1458 33.0745 27.6351 33.1814C28.1663 33.2979 28.6956 33.4198 29.224 33.5508C29.5693 33.636 29.9137 33.7295 30.2561 33.8268C30.4213 33.8735 30.5865 33.9187 30.7498 33.9712C30.9496 34.0353 31.1524 34.0936 31.3489 34.1673C31.712 34.304 32.0718 34.4427 32.4234 34.607C32.6035 34.6913 32.7836 34.776 32.9628 34.8632C33.0471 34.9041 33.1314 34.9465 33.2157 34.9879C33.2161 34.9302 33.2166 34.8724 33.2176 34.8146C33.2205 34.5887 33.22 34.3633 33.2181 34.1379C33.2142 33.6736 33.2017 33.2093 33.1834 32.7455C33.1844 32.7657 33.1848 32.786 33.1858 32.8062C33.1815 32.6882 33.1766 32.5702 33.1718 32.4517C33.1718 32.4541 33.1718 32.4565 33.1723 32.4585C33.1718 32.4488 33.1713 32.4397 33.1709 32.4301C33.1275 31.4312 33.0654 30.4313 33.0476 29.4315C33.0298 28.4023 33.0298 27.3721 33.0615 26.3433C33.0933 25.3054 33.1612 24.2695 33.245 23.2345C33.3298 22.184 33.4237 21.1327 33.5817 20.0905C33.6053 19.9359 33.6274 19.7812 33.6578 19.6281C33.6958 19.434 33.7271 19.237 33.7748 19.0448C33.835 18.7992 33.8991 18.555 33.9655 18.3118C33.3033 18.3494 32.6435 18.4067 31.9837 18.4789C31.2242 18.5618 30.4699 18.6817 29.7162 18.806C29.4258 18.8667 29.1354 18.9269 28.8449 18.988C28.7072 19.0169 28.5709 19.0603 28.4341 19.0959C28.2896 19.134 28.1452 19.172 28.0007 19.2096C27.7796 19.2823 27.5585 19.355 27.3375 19.4277C27.1612 19.4855 26.9912 19.5549 26.8193 19.6242C26.6386 19.697 26.4561 19.7658 26.2784 19.8467C26.0727 19.9397 25.8671 20.0327 25.6614 20.1261C25.3498 20.2821 25.0339 20.4305 24.7295 20.6C24.5662 20.691 24.3986 20.7772 24.2387 20.874C24.0745 20.9728 23.9107 21.072 23.747 21.1707C23.5327 21.3061 23.3179 21.4395 23.1093 21.583C23 21.6581 22.8859 21.7294 22.7809 21.8108C22.6638 21.9023 22.5463 21.9933 22.4283 22.0848C22.2872 22.2101 22.1466 22.3348 22.0112 22.4663C21.8923 22.5814 21.7743 22.6984 21.6596 22.8179L21.6587 22.8188L21.6592 22.8184C21.6495 22.8285 21.6399 22.8381 21.6308 22.8482C21.6418 22.8357 21.6534 22.8232 21.6645 22.8106C21.6746 22.7962 21.6847 22.7817 21.6948 22.7673L21.6938 22.7687C21.6206 22.8761 21.5253 22.9566 21.3962 22.9869C21.2763 23.0153 21.1477 22.9956 21.0422 22.9325C20.8308 22.8058 20.732 22.4942 20.8785 22.2809C20.9497 22.1773 21.0417 22.0906 21.1299 22.002C21.2252 21.9057 21.322 21.8108 21.4193 21.7169C21.6057 21.5363 21.8037 21.3682 22.0088 21.2088C22.4192 20.8895 22.8541 20.6014 23.2996 20.3327C23.7258 20.076 24.1525 19.8174 24.5985 19.5953C24.8369 19.4764 25.0734 19.3521 25.3156 19.2423C25.4635 19.1754 25.6118 19.1084 25.7597 19.041C25.856 18.9976 25.9519 18.95 26.0501 18.9105C26.3126 18.805 26.5746 18.6995 26.8371 18.5941C26.9276 18.5575 27.0244 18.5319 27.1174 18.5016C27.2893 18.4452 27.4608 18.3889 27.6327 18.3325C27.8803 18.2511 28.1355 18.1933 28.3874 18.1274C28.62 18.0667 28.8536 18.0175 29.0891 17.9679C30.1135 17.7541 31.1543 17.6149 32.1946 17.5017C32.8361 17.4314 33.4796 17.3895 34.124 17.3548C34.3446 17.3428 34.5965 17.311 34.7944 17.4295C34.9317 17.5119 35.0256 17.6722 35.0424 17.8307C35.0603 18.0012 34.9924 18.176 34.9442 18.3364C34.8488 18.6514 34.7713 18.9716 34.6928 19.291C34.6437 19.5337 34.5917 19.7764 34.5541 20.0216C34.5078 20.3284 34.4621 20.6342 34.4245 20.942C34.3552 21.5117 34.3022 22.0824 34.2463 22.6536C34.1644 23.6679 34.0787 24.6813 34.0363 25.698C33.993 26.7339 33.9805 27.7699 33.9887 28.8063C33.993 29.3289 34.007 29.8505 34.0277 30.3731C34.059 31.0671 34.0936 31.7601 34.1206 32.4541C34.1197 32.4339 34.1192 32.4137 34.1182 32.3934C34.123 32.5114 34.1274 32.6299 34.1322 32.7479C34.1312 32.7277 34.1303 32.7075 34.1298 32.6872C34.149 33.164 34.163 33.6413 34.1673 34.1186C34.1697 34.3589 34.1697 34.5988 34.1673 34.8386C34.1664 34.9557 34.164 35.0727 34.1616 35.1897C34.1606 35.247 34.1587 35.3044 34.1567 35.3617C34.1543 35.433 34.1567 35.51 34.1428 35.5798C34.1187 35.6993 34.0855 35.8106 34.0079 35.9074C33.9333 36.0008 33.8138 36.0716 33.6973 36.099C33.6525 36.1096 33.6077 36.1145 33.5629 36.1145C33.3539 36.112 33.1482 36.0104 32.9676 35.9218Z" fill="#053B4A"/>
<path d="M12.1291 38.2626C12.0636 38.215 12.0082 38.161 11.9692 38.0888C11.9273 38.0108 11.9052 37.9265 11.8859 37.8407C11.8705 37.769 11.8584 37.6963 11.8454 37.624C11.8141 37.4501 11.7838 37.2768 11.7544 37.1024C11.7578 37.1226 11.7612 37.1424 11.7645 37.1626C11.5907 36.1474 11.4332 35.1302 11.2805 34.1116C11.1389 33.1676 11.0065 32.2226 10.8523 31.2801C10.8181 31.0894 10.7811 30.8982 10.7493 30.7065C10.7526 30.7267 10.756 30.7465 10.7599 30.7667V30.7662C10.7377 30.6424 10.7483 30.5225 10.8143 30.4122C10.8798 30.3034 10.9882 30.2239 11.1119 30.1945C11.3532 30.1372 11.6383 30.2918 11.6841 30.5466C11.688 30.5716 11.6923 30.5957 11.6961 30.6203C11.6928 30.6001 11.6894 30.5803 11.686 30.5601C11.8661 31.5551 12.0087 32.555 12.157 33.5553C12.3088 34.5749 12.4605 35.594 12.6324 36.6107C12.6416 36.6627 12.6502 36.7152 12.6589 36.7672C12.6579 36.7619 12.657 36.7571 12.656 36.7518C12.6714 36.8395 12.6859 36.9271 12.7008 37.0148C12.6974 36.9945 12.6941 36.9748 12.6907 36.9546C12.7013 37.0172 12.7119 37.0793 12.7225 37.1419C12.9464 36.9772 13.167 36.8081 13.3929 36.6463C13.7527 36.3891 14.1235 36.1464 14.4977 35.9114L14.4987 35.9109C14.5011 35.9094 14.5035 35.9075 14.5064 35.9061C14.5141 35.9012 14.5218 35.8964 14.53 35.8911C14.5199 35.8974 14.5098 35.9037 14.4996 35.9099C14.5025 35.908 14.5049 35.9066 14.5078 35.9046C14.5656 35.868 14.6229 35.8285 14.6817 35.7948C14.7617 35.7341 14.8546 35.6865 14.937 35.6349C14.9389 35.6335 14.9413 35.632 14.9432 35.6311L14.9437 35.6306C14.9586 35.621 14.9736 35.6118 14.989 35.6022C14.9774 35.6094 14.9659 35.6166 14.9543 35.6243L14.9553 35.6238C15.3839 35.3541 15.8125 35.0849 16.2508 34.8301C16.6987 34.5696 17.164 34.3442 17.6379 34.1356C18.0978 33.9343 18.5727 33.7672 19.0481 33.6078C19.5225 33.4484 20.0104 33.3318 20.4949 33.2095C20.9259 33.1001 21.355 32.9836 21.7885 32.8829C21.998 32.8343 22.2104 32.7967 22.4209 32.7529C22.6453 32.7062 22.8693 32.6585 23.0942 32.6156C23.348 32.5665 23.6047 32.7076 23.6659 32.9677C23.7236 33.2114 23.5681 33.4907 23.3138 33.5399C23.0171 33.5967 22.7228 33.6617 22.4271 33.7205C22.1165 33.7826 21.8092 33.852 21.5029 33.9314C20.8893 34.0894 20.2738 34.2392 19.6636 34.4097C19.6833 34.4039 19.7026 34.3976 19.7223 34.3914C19.0356 34.6028 18.3666 34.8532 17.7087 35.1403C17.5343 35.2255 17.3586 35.3089 17.1871 35.3999C16.9704 35.5155 16.758 35.6335 16.5456 35.7568C16.182 35.9682 15.8275 36.1955 15.4706 36.419C15.4682 36.4204 15.4658 36.4219 15.4634 36.4233C15.4605 36.4253 15.4576 36.4267 15.4547 36.4286C15.4533 36.4296 15.4523 36.4301 15.4509 36.431C15.4518 36.4305 15.4533 36.4296 15.4542 36.4291C15.4036 36.4619 15.3531 36.4961 15.3016 36.5259C15.2226 36.5861 15.1306 36.6338 15.0482 36.6844C15.0415 36.6887 15.0347 36.693 15.0275 36.6974L15.027 36.6979C15.0232 36.7003 15.0188 36.7031 15.015 36.7056C14.7231 36.8929 14.4337 37.0827 14.1466 37.2768C13.8861 37.4521 13.6356 37.6433 13.3833 37.8306C13.2503 37.9289 13.1174 38.0276 12.9825 38.1234C12.8804 38.1957 12.7779 38.2752 12.6599 38.32C12.5867 38.3474 12.512 38.3623 12.4383 38.3623C12.329 38.3638 12.223 38.3315 12.1291 38.2626Z" fill="#053B4A"/>
<path d="M21.2465 33.3634C21.1819 32.878 21.1506 32.3877 21.114 31.8993C21.076 31.4027 21.0394 30.9062 21.0013 30.4096C20.9219 29.3775 20.8371 28.3459 20.774 27.3123C20.7244 26.5032 20.7013 25.6917 20.6758 24.8816C20.6603 24.5262 20.644 24.1712 20.6208 23.8162C20.6103 23.6462 20.5924 23.4777 20.5765 23.3077C20.564 23.1786 20.5322 23.0486 20.5322 22.919C20.5322 22.6599 20.7639 22.4494 21.0182 22.4552C21.2672 22.461 21.4603 22.6594 21.4805 22.8997C21.4801 22.894 21.4801 22.8887 21.4796 22.8829C21.4897 23.0033 21.5128 23.1222 21.5248 23.2426C21.5379 23.3775 21.5533 23.5119 21.5614 23.6472C21.5826 23.9786 21.6009 24.3094 21.6149 24.6413C21.639 25.2062 21.6539 25.7711 21.6751 26.3366C21.7242 27.3581 21.7936 28.3772 21.874 29.3968C21.9511 30.3807 22.0228 31.3657 22.1023 32.3496C22.1269 32.6545 22.1509 32.9608 22.1914 33.2642C22.2251 33.5209 22.0204 33.7598 21.7685 33.7863C21.7517 33.7882 21.7353 33.7887 21.7189 33.7887C21.4777 33.7887 21.2778 33.6042 21.2465 33.3634Z" fill="#053B4A"/>
<path d="M10.8217 28.7801C10.5587 28.7743 10.3579 28.5528 10.3579 28.2942C10.3579 28.1434 10.4451 28.0038 10.5193 27.8785C10.5828 27.7702 10.6483 27.6632 10.7158 27.5568C10.8487 27.3449 11.0033 27.1522 11.1622 26.9601C11.2407 26.8652 11.3313 26.7751 11.4204 26.6909C11.5133 26.6022 11.6058 26.5136 11.6992 26.426C11.8928 26.2444 12.0913 26.0681 12.2984 25.9024C12.5006 25.7401 12.8156 25.8071 12.962 26.0089C13.0348 26.109 13.0651 26.2362 13.0468 26.3585C13.0271 26.4881 12.9563 26.5916 12.8556 26.6721C12.8219 26.6986 12.7887 26.726 12.7559 26.753C12.4559 27.0121 12.1683 27.2842 11.8924 27.5684C11.8302 27.6435 11.7681 27.7182 11.7055 27.7933C11.6501 27.8607 11.6019 27.9368 11.5523 28.0095C11.5576 28.0018 11.5629 27.9946 11.5677 27.9869C11.47 28.142 11.3741 28.2975 11.2845 28.457C11.2205 28.6438 11.0351 28.7801 10.8328 28.7801C10.8289 28.7801 10.8251 28.7801 10.8217 28.7801Z" fill="#053B4A"/>
<path d="M11.0395 30.6389C10.7934 30.5686 10.6388 30.2984 10.7139 30.0508C10.8184 29.7065 11.1002 29.4474 11.381 29.2403C11.6487 29.0423 11.9541 28.9012 12.2556 28.7625C12.5667 28.619 12.8841 28.4913 13.214 28.3974C13.4625 28.3266 13.7284 28.5063 13.7857 28.7495C13.8473 29.0096 13.6826 29.2509 13.4336 29.3217C13.4168 29.3265 13.3999 29.3313 13.3831 29.3361C13.1447 29.4132 12.9144 29.509 12.6847 29.6087C12.4694 29.7084 12.257 29.8115 12.0523 29.9333C11.9758 29.9834 11.9021 30.0354 11.8298 30.0918C11.7879 30.1284 11.748 30.1654 11.7089 30.2054C11.6902 30.2271 11.6723 30.2493 11.6555 30.2719C11.6468 30.2854 11.6386 30.2989 11.6309 30.3124C11.6256 30.3249 11.6203 30.3374 11.6145 30.3499C11.5418 30.5349 11.3622 30.6567 11.1681 30.6567C11.1257 30.6567 11.0823 30.6509 11.0395 30.6389Z" fill="#053B4A"/>
<path d="M33.1171 28.1584C33.1185 28.1603 33.12 28.1617 33.1214 28.1637C33.12 28.1617 33.1181 28.1598 33.1166 28.1579C33.1104 28.1511 33.1046 28.1444 33.0988 28.1377C33.0925 28.1304 33.0858 28.1237 33.0795 28.117C33.054 28.0958 33.028 28.0755 33.0015 28.0563C32.7491 27.8872 32.4838 27.7456 32.2141 27.606C31.8206 27.4114 31.4271 27.2144 31.0235 27.041C30.7856 26.9384 30.6738 26.6528 30.7764 26.4159C30.8795 26.1779 31.1636 26.0667 31.4016 26.1688C31.8114 26.3451 32.2112 26.5459 32.6109 26.7434C32.8156 26.8445 33.016 26.9548 33.2158 27.0656C33.3102 27.1176 33.3993 27.1797 33.4884 27.2404C33.6266 27.3353 33.7557 27.4359 33.8593 27.5694C34.0187 27.774 33.957 28.0847 33.7528 28.233C33.6695 28.2937 33.5746 28.3216 33.4812 28.3216C33.3463 28.3207 33.2134 28.2624 33.1171 28.1584Z" fill="#053B4A"/>
<path d="M33.4274 29.5562C33.3787 29.5389 33.3296 29.5249 33.28 29.5124C33.1196 29.4835 32.9583 29.4686 32.7965 29.4527C32.3153 29.4185 31.8337 29.3872 31.3511 29.3939C31.0925 29.3978 30.8815 29.1599 30.8873 28.908C30.8931 28.6421 31.1146 28.4475 31.3733 28.4442C31.7311 28.4394 32.088 28.4567 32.4449 28.4774C32.6077 28.487 32.7714 28.4967 32.9342 28.513C33.189 28.5386 33.4467 28.5573 33.6899 28.6431C33.8122 28.6859 33.9143 28.7577 33.9774 28.8747C34.0357 28.9831 34.0492 29.1127 34.0154 29.2311C33.9596 29.4267 33.7631 29.5789 33.5593 29.5789C33.515 29.5789 33.4707 29.5716 33.4274 29.5562Z" fill="#053B4A"/>
<path d="M31.7348 31.5373C31.6765 31.2916 31.8331 31.0166 32.0869 30.9651C32.3715 30.9073 32.6552 30.8476 32.9389 30.7859C33.0583 30.7599 33.1773 30.733 33.2967 30.706C33.4533 30.6713 33.6132 30.6309 33.774 30.6309C34.0331 30.6309 34.2441 30.8625 34.2378 31.1168C34.232 31.3653 34.0346 31.558 33.7947 31.5787C33.7904 31.5787 33.786 31.5792 33.7817 31.5792C33.7851 31.5792 33.788 31.5792 33.7913 31.5787C33.7841 31.5792 33.7769 31.5796 33.7692 31.5801C33.762 31.5806 33.7552 31.5816 33.7485 31.5825C33.2664 31.6774 32.7881 31.7916 32.3065 31.8893C32.2723 31.8961 32.2381 31.8994 32.2044 31.8994C31.9877 31.8994 31.7873 31.7603 31.7348 31.5373Z" fill="#053B4A"/>
<path d="M33.2413 26.7981C33.2543 26.8073 33.2673 26.8159 33.2803 26.8251C33.1488 26.7374 33.0203 26.6478 32.8965 26.5496C32.7616 26.4422 32.6282 26.3319 32.4914 26.2269C32.2102 26.0107 31.9241 25.8012 31.6332 25.5984C31.4203 25.4505 31.4035 25.1235 31.5576 24.9309C31.6361 24.8321 31.7536 24.7676 31.8793 24.7546C32.0079 24.7406 32.1211 24.783 32.2246 24.8553C32.4722 25.0277 32.7178 25.2025 32.9567 25.3865C33.198 25.5724 33.4325 25.7665 33.6762 25.9485C33.7249 25.9808 33.7735 26.0126 33.8212 26.0468C34.0321 26.1975 34.0524 26.5197 33.8973 26.7143C33.8183 26.8135 33.7008 26.8776 33.5751 26.8911C33.5587 26.8925 33.5428 26.8935 33.5274 26.8935C33.4229 26.893 33.3275 26.8573 33.2413 26.7981Z" fill="#053B4A"/>
<path d="M9.64958 27.4316C9.6202 26.884 9.84463 26.3523 10.0585 25.8567C10.1986 25.5326 10.3542 25.2128 10.5488 24.9175C10.6908 24.7018 10.9716 24.617 11.2004 24.7538C11.4152 24.8824 11.5062 25.1896 11.3641 25.4059C11.2832 25.5287 11.211 25.6549 11.1416 25.7844C10.9909 26.0898 10.8589 26.4009 10.7361 26.7183C10.6942 26.8411 10.6566 26.9639 10.6244 27.0896C10.6128 27.1484 10.6027 27.2062 10.5955 27.2659C10.5945 27.289 10.594 27.3122 10.594 27.3358C10.5945 27.3439 10.5945 27.3516 10.595 27.3598C10.595 27.3545 10.5945 27.3497 10.5945 27.3444C10.5945 27.3507 10.595 27.3569 10.595 27.3632C10.596 27.4778 10.5671 27.5862 10.4934 27.6782C10.4144 27.7769 10.2969 27.8415 10.1712 27.8545C10.1558 27.8559 10.1408 27.8569 10.1254 27.8569C9.89327 27.8564 9.66306 27.6748 9.64958 27.4316Z" fill="#053B4A"/>
<path d="M10.6078 31.5043C10.5476 31.2504 10.709 30.9952 10.9599 30.9326C11.2609 30.8574 11.5643 30.7972 11.8697 30.7399C12.163 30.685 12.4577 30.6364 12.7544 30.6007C13.0111 30.5704 13.25 30.7688 13.2765 31.0236C13.3035 31.2837 13.1108 31.5153 12.8536 31.5462C12.6653 31.5683 12.4785 31.5972 12.2916 31.6285C11.9188 31.6945 11.547 31.7653 11.1795 31.8573C11.1434 31.8664 11.1068 31.8708 11.0712 31.8708C10.8573 31.8698 10.6584 31.7181 10.6078 31.5043Z" fill="#053B4A"/>
<path d="M16.4024 20.6563C16.151 20.584 16.0094 20.3182 16.0768 20.0687C16.165 19.7426 16.2569 19.418 16.3494 19.0939C16.3952 18.934 16.4409 18.7741 16.4934 18.6161C16.5377 18.4813 16.5801 18.3382 16.6697 18.2255C16.7641 18.1075 16.9057 18.0449 17.0555 18.0449C17.3141 18.0449 17.525 18.2766 17.5193 18.5309C17.5173 18.6219 17.4894 18.7052 17.4432 18.7755C17.4374 18.789 17.4316 18.8025 17.4263 18.8165C17.263 19.315 17.1267 19.824 16.9895 20.3307C16.9336 20.5383 16.7352 20.6741 16.5286 20.6741C16.4872 20.6741 16.4443 20.6683 16.4024 20.6563Z" fill="#053B4A"/>
<path d="M27.9596 19.012C27.9871 19.0766 27.9967 19.145 27.9914 19.2119C27.7732 19.2837 27.5546 19.3554 27.3369 19.4272C27.2776 19.4469 27.2184 19.4676 27.1601 19.4893C27.1235 19.4484 27.0932 19.4012 27.071 19.3492C26.9631 19.0958 26.8581 18.8415 26.7546 18.5868C26.7055 18.4654 26.6578 18.3435 26.6106 18.2217C26.5658 18.1047 26.5152 17.9881 26.4777 17.8682C26.4232 17.6929 26.4459 17.4834 26.5942 17.3562C26.6915 17.2729 26.8032 17.2218 26.9333 17.2247C27.0585 17.2276 27.1794 17.2806 27.2656 17.3716C27.3099 17.4179 27.3436 17.4742 27.3653 17.5344C27.3658 17.5334 27.3658 17.532 27.3663 17.531C27.3995 17.637 27.4438 17.741 27.4838 17.8451C27.5358 17.9804 27.5883 18.1152 27.6427 18.2491C27.7467 18.5044 27.8517 18.7582 27.9596 19.012Z" fill="#053B4A"/>
<path d="M4.86098 41.8038C4.61391 41.6935 4.38129 41.5582 4.15156 41.4147C3.91171 41.2653 3.69835 41.0833 3.51389 40.8695C3.3877 40.723 3.27982 40.5631 3.17001 40.4047C3.09873 40.3021 3.03178 40.1933 2.96869 40.0854C2.86466 39.9077 2.75774 39.7304 2.67828 39.5397C2.4288 38.9391 2.35992 38.2913 2.42061 37.6474C2.47118 37.1167 2.71391 36.4289 3.31642 36.3355C3.56831 36.2965 3.78986 36.3798 3.98732 36.5339C4.09135 36.6153 4.17563 36.727 4.25462 36.832C4.30037 36.8922 4.34131 36.9572 4.38177 37.0218C4.51181 37.2318 4.63269 37.4475 4.72661 37.6763C4.77429 37.7919 4.81956 37.9056 4.85857 38.0236C4.90625 38.1651 4.94527 38.3072 4.98283 38.4522C5.04785 38.7022 5.08879 38.9589 5.13406 39.2132C5.17933 39.467 5.21593 39.7232 5.25639 39.978C5.2641 40.0199 5.27132 40.0613 5.27902 40.1027C5.32237 40.0574 5.36572 40.0127 5.40906 39.9679C5.58919 39.781 5.77028 39.5951 5.95233 39.4102C6.30344 39.0538 6.66513 38.7084 7.03261 38.3694C7.40394 38.0269 7.77623 37.6859 8.15575 37.3527C8.36525 37.1677 8.5709 36.9765 8.78763 36.7993C9.01737 36.6119 9.24662 36.4236 9.47635 36.2363C9.66948 36.0783 9.87754 35.9362 10.0779 35.7874C10.2778 35.6391 10.48 35.4941 10.6818 35.3477C10.8962 35.1916 11.1042 35.0274 11.3142 34.866C11.4833 34.736 11.674 34.633 11.8926 34.6936C12.1026 34.7514 12.2365 34.9494 12.2365 35.1627C12.2365 35.3588 12.1036 35.5273 11.9288 35.5947C11.6986 35.7575 11.4818 35.9406 11.2535 36.1067C11.0474 36.257 10.8393 36.4048 10.6347 36.557C10.4295 36.7102 10.2166 36.8561 10.0187 37.0179C9.80289 37.1942 9.58664 37.3705 9.37087 37.5472C8.59932 38.2278 7.83403 38.9131 7.088 39.6221C6.71041 39.9804 6.3516 40.3589 5.99038 40.7332C5.91188 40.8145 5.83433 40.8959 5.75535 40.9769C5.712 41.0216 5.66818 41.0664 5.62339 41.1103C5.59834 41.1353 5.57378 41.1594 5.54825 41.1835C5.53284 41.1979 5.51695 41.2119 5.50057 41.2249C5.53429 41.3304 5.53236 41.4474 5.48516 41.5563C5.40907 41.7325 5.22942 41.8423 5.04496 41.8423C4.98331 41.8428 4.9207 41.8303 4.86098 41.8038ZM4.36732 40.3922C4.30278 40.0618 4.25655 39.7275 4.20405 39.3952C4.17901 39.2546 4.15541 39.1144 4.12555 38.9748C4.08894 38.8004 4.04752 38.6294 4.00273 38.457C3.97769 38.3829 3.95313 38.3082 3.92808 38.234C3.90159 38.1546 3.86547 38.0775 3.8332 38.0004C3.75229 37.8333 3.66704 37.672 3.57024 37.513C3.5346 37.461 3.49896 37.4095 3.46139 37.3594C3.4508 37.3844 3.44068 37.4095 3.43105 37.4355C3.41949 37.4721 3.40937 37.5087 3.40022 37.5458C3.38096 37.6416 3.36699 37.7375 3.35688 37.8348C3.34869 37.9672 3.3458 38.0987 3.34918 38.2311C3.3564 38.3486 3.36892 38.4642 3.38626 38.5808C3.41082 38.7113 3.44116 38.8399 3.47825 38.9675C3.50473 39.0441 3.53267 39.1197 3.56349 39.1944C3.63911 39.3519 3.72724 39.5012 3.81538 39.6524C3.94253 39.8518 4.07208 40.0493 4.21946 40.2347C4.26473 40.2867 4.31097 40.3368 4.35961 40.3854C4.36202 40.3874 4.36443 40.3898 4.36732 40.3922Z" fill="#053B4A"/>
<path d="M34.9901 42.0955C34.9751 42.0569 34.9665 42.0165 34.9626 41.9765C34.8321 41.8566 34.7107 41.7261 34.5898 41.5975C34.4299 41.427 34.2705 41.2546 34.1179 41.0768C33.7807 40.6829 33.4561 40.2802 33.1565 39.8569C32.8676 39.4485 32.5858 39.0328 32.2785 38.6374C32.0397 38.3301 31.796 38.0291 31.5489 37.7286C31.1511 37.259 30.7412 36.7976 30.3578 36.3165C30.236 36.1638 30.1141 36.0111 29.9928 35.858C29.8883 35.727 29.7943 35.5864 29.6961 35.451C29.5295 35.2223 29.3734 34.9853 29.1971 34.7637C29.1962 34.7628 29.1957 34.7618 29.1947 34.7613L29.1962 34.7628C29.1865 34.7503 29.1764 34.7382 29.1663 34.7257C29.1779 34.7392 29.1894 34.7531 29.201 34.7671C29.215 34.7796 29.2284 34.7922 29.2424 34.8047L29.2414 34.8042C29.1451 34.7175 29.0787 34.614 29.0647 34.4825C29.0522 34.3592 29.0883 34.234 29.1658 34.1371C29.3199 33.944 29.6407 33.8872 29.8334 34.0611C29.9653 34.18 30.0674 34.3351 30.1695 34.4791C30.2841 34.6409 30.3988 34.8027 30.5158 34.9636C30.6174 35.1033 30.7171 35.2454 30.8255 35.3807C30.9632 35.5536 31.1015 35.726 31.2392 35.8994C31.8499 36.6209 32.4688 37.3346 33.0487 38.0812C33.3116 38.4197 33.5548 38.7742 33.8029 39.1248C34.0716 39.5048 34.35 39.8742 34.6447 40.234C34.8663 40.4926 35.0898 40.7527 35.3262 40.9993C35.437 40.7633 35.5463 40.5268 35.6653 40.2947C35.6557 40.3135 35.6465 40.3313 35.6369 40.3501C35.7202 40.1878 35.8035 40.0254 35.8868 39.8631C35.8777 39.8814 35.8681 39.8998 35.8584 39.9185C36.0925 39.4615 36.3608 39.016 36.655 38.595C36.8544 38.3099 37.0509 38.0094 37.3356 37.8013C37.5451 37.6486 37.8239 37.587 38.0748 37.6583C38.371 37.743 38.5849 37.9964 38.7116 38.2656C38.8305 38.518 38.8681 38.8002 38.8527 39.0767C38.8353 39.3883 38.7289 39.6782 38.582 39.9498C38.3903 40.3038 38.096 40.6024 37.8013 40.8736C37.6024 41.0571 37.4006 41.2353 37.1944 41.4106C37.0124 41.5652 36.825 41.7212 36.6252 41.8517C36.4638 41.9567 36.302 42.056 36.1315 42.1451C35.9625 42.2337 35.7828 42.3093 35.6027 42.3719C35.5483 42.3907 35.4924 42.3998 35.4375 42.3998C35.2453 42.3994 35.0628 42.2881 34.9901 42.0955ZM36.4918 40.7599C36.5144 40.7416 36.537 40.7233 36.5597 40.705C36.8698 40.4406 37.179 40.1723 37.4598 39.8761C37.534 39.7933 37.6038 39.7081 37.6698 39.618C37.7112 39.5549 37.7498 39.4904 37.7864 39.4244C37.81 39.3748 37.8316 39.3252 37.8519 39.2741C37.8625 39.2414 37.8721 39.2086 37.8808 39.1754C37.8909 39.1234 37.8991 39.0714 37.9053 39.0189C37.9068 38.9914 37.9077 38.9644 37.9077 38.937C37.9048 38.8946 37.901 38.8527 37.8952 38.8108C37.8899 38.7853 37.8841 38.7598 37.8769 38.7347C37.8678 38.7097 37.8581 38.6851 37.8494 38.6601C37.8432 38.6475 37.8369 38.6355 37.8302 38.623C37.8143 38.6384 37.7984 38.6538 37.783 38.6697C37.6452 38.8334 37.5224 39.0092 37.4001 39.1845C37.2744 39.3777 37.1511 39.5708 37.0321 39.7678C36.919 39.9556 36.8144 40.1478 36.708 40.3395C36.6358 40.4796 36.5635 40.6198 36.4918 40.7599Z" fill="#053B4A"/>
<path d="M20.2572 22.9767C19.8979 22.8742 19.5478 22.7451 19.1972 22.6174C18.6857 22.4359 18.1699 22.2779 17.6425 22.1508C16.7876 21.9779 15.926 21.8661 15.0576 21.7891C15.0779 21.791 15.0981 21.7929 15.1183 21.7948C14.6213 21.7606 14.1242 21.7313 13.6267 21.7135C13.3671 21.7043 13.108 21.7014 12.848 21.699C12.6303 21.6966 12.4126 21.7067 12.1954 21.712C11.7484 21.7356 11.3034 21.7645 10.8574 21.7987C10.4225 21.8319 9.99098 21.8965 9.55993 21.9596C9.38365 21.9947 9.20738 22.0299 9.03111 22.0645C8.87555 22.0954 8.72239 22.145 8.56924 22.1864C8.45846 22.223 8.34721 22.2582 8.23837 22.2986C8.10158 22.3497 7.96625 22.4031 7.82706 22.4455C7.57951 22.5211 7.31173 22.3328 7.25538 22.0935C7.22696 21.9735 7.2467 21.8449 7.3098 21.7395C7.37578 21.6296 7.47595 21.5641 7.59491 21.5251C7.58143 21.5295 7.56794 21.5333 7.55446 21.5377C7.67101 21.4982 7.78564 21.4534 7.90122 21.4105C8.02019 21.3662 8.14204 21.3291 8.26244 21.2882C8.38814 21.2463 8.51867 21.2174 8.6463 21.1832C8.75466 21.1543 8.8611 21.1307 8.97091 21.1085C9.10432 21.082 9.23725 21.0556 9.37065 21.0291C9.52381 20.9992 9.68129 20.9823 9.83589 20.9602C10.107 20.9207 10.3796 20.8937 10.6522 20.8648C11.1445 20.8128 11.64 20.7911 12.1342 20.7651C12.6529 20.7382 13.1745 20.7468 13.6937 20.7656C14.7306 20.8027 15.7642 20.8803 16.79 21.0349C17.2991 21.1114 17.8077 21.2005 18.3042 21.3373C18.7916 21.4707 19.2689 21.634 19.7428 21.8069C19.7785 21.8199 19.8146 21.8329 19.8502 21.8459C20.0708 21.9244 20.2933 21.9991 20.5192 22.0636C20.7682 22.1344 20.9161 22.4026 20.8448 22.6512C20.7855 22.8583 20.591 22.995 20.3844 22.995C20.3425 22.9946 20.2996 22.9888 20.2572 22.9767Z" fill="#053B4A"/>
<path d="M21.5878 23.1855C21.4626 23.1826 21.3417 23.1291 21.2555 23.0386C21.085 22.8604 21.0729 22.5339 21.2709 22.3672C21.8488 21.8813 22.566 21.6294 23.2648 21.3717C23.5345 21.2725 23.8056 21.1757 24.0763 21.0798C24.1649 21.0485 24.255 21.022 24.3446 20.9946C24.4886 20.9503 24.6316 20.8987 24.7776 20.8612C25.016 20.8005 25.2539 20.7364 25.4952 20.6873C25.7591 20.6334 26.023 20.5852 26.2879 20.5385C26.7758 20.4528 27.2671 20.3786 27.7588 20.3169C28.2895 20.25 28.8203 20.1884 29.3534 20.1416C29.8707 20.0959 30.3899 20.0732 30.9091 20.0559C31.3897 20.04 31.8709 20.0294 32.352 20.0294C32.7474 20.0285 33.1476 20.0318 33.5402 20.0853C33.6105 20.0944 33.6803 20.1055 33.7506 20.1171C34.0059 20.1594 34.1879 20.4003 34.1489 20.6579C34.1104 20.9113 33.8628 21.0986 33.6081 21.0562C33.4901 21.037 33.3711 21.0192 33.2522 21.0071C32.8664 20.9792 32.4796 20.9763 32.0929 20.9806C31.6142 20.9859 31.1345 20.9979 30.6557 21.0138C29.9723 21.0447 29.2908 21.0924 28.6108 21.1709C27.9033 21.2527 27.1996 21.351 26.4969 21.4656C26.2503 21.509 26.0047 21.5528 25.7596 21.6034C25.5053 21.6554 25.2553 21.7204 25.0034 21.7849C24.8301 21.8384 24.6567 21.8914 24.4833 21.9448C24.2911 22.0041 24.1028 22.0797 23.913 22.1461C23.7329 22.2102 23.5533 22.2767 23.3751 22.345C23.1097 22.4467 22.8443 22.5454 22.5843 22.6605C22.4499 22.7246 22.3189 22.7934 22.1913 22.8695C22.0867 22.9384 21.9851 23.0106 21.8869 23.0882C21.897 23.08 21.9071 23.0713 21.9172 23.0627C21.8243 23.1383 21.7207 23.186 21.5984 23.186C21.595 23.1855 21.5916 23.1855 21.5878 23.1855Z" fill="#053B4A"/>
<path d="M21.0291 37.1732C20.8071 37.1674 20.5836 37.1529 20.3625 37.1351C20.0991 37.1139 19.8352 37.0946 19.5722 37.0696C19.0458 37.019 18.5194 36.9646 17.9958 36.8876C17.6327 36.8341 17.2676 36.7777 16.9103 36.691C16.7104 36.6429 16.512 36.5938 16.3145 36.5369C16.1387 36.4864 15.9677 36.4238 15.7929 36.3698C15.5632 36.3366 15.385 36.1223 15.3908 35.8887C15.3965 35.6257 15.6181 35.4249 15.8767 35.4249C15.9904 35.4249 16.0987 35.4701 16.2042 35.5063C16.302 35.54 16.4007 35.5727 16.4999 35.6011C16.7388 35.67 16.9777 35.7302 17.2195 35.7885C17.6255 35.8656 18.031 35.9436 18.4423 35.9917C18.8989 36.0457 19.3555 36.0948 19.813 36.1391C20.2802 36.1767 20.7478 36.2152 21.2165 36.2277C21.4871 36.235 21.7559 36.2383 22.0265 36.2369C22.251 36.2364 22.4749 36.2277 22.6994 36.22C23.0524 36.1983 23.4054 36.1781 23.7565 36.1391C24.1408 36.0962 24.5228 36.0462 24.9047 35.9874C25.1224 35.9484 25.3406 35.9094 25.5554 35.8569C25.8015 35.7967 26.0447 35.7302 26.2879 35.658C26.7036 35.5246 27.1125 35.3777 27.5117 35.2C27.6976 35.1113 27.8792 35.0169 28.0555 34.9105C28.1585 34.844 28.2582 34.7742 28.3536 34.6976C28.4287 34.6321 28.501 34.5632 28.5694 34.4905C28.5968 34.4592 28.6238 34.4279 28.6507 34.3961C28.8174 34.1982 29.1121 34.1558 29.3183 34.3205C29.5162 34.4785 29.561 34.7901 29.3939 34.988C29.2846 35.1186 29.1685 35.2438 29.0413 35.3574C28.8641 35.5149 28.67 35.6479 28.4677 35.7707C28.0646 36.0149 27.621 36.2032 27.1779 36.3607C26.7069 36.5278 26.2268 36.6862 25.7379 36.7907C25.2327 36.8991 24.7231 36.9887 24.2102 37.0455C23.6958 37.1028 23.1795 37.1539 22.6623 37.1707C22.3834 37.1804 22.105 37.1876 21.8262 37.1881C21.8103 37.1881 21.7944 37.1881 21.7785 37.1881C21.5285 37.1876 21.2791 37.1794 21.0291 37.1732Z" fill="#053B4A"/>
</svg>
