<svg width="48" height="48" viewBox="0 0 48 48" fill="none" xmlns="http://www.w3.org/2000/svg">
<path d="M24.1485 17.9368C23.8987 17.9345 23.649 17.9264 23.3992 17.9184C22.8765 17.9019 22.3538 17.8594 21.8349 17.7966C21.349 17.738 20.866 17.6436 20.391 17.5275C20.1257 17.4623 19.8612 17.3967 19.5978 17.3254C19.3343 17.2536 19.076 17.1724 18.8159 17.0893C18.5826 17.0147 18.3565 16.9179 18.1279 16.8301C17.8366 16.7177 17.5557 16.5694 17.287 16.4127C16.9886 16.2384 16.7086 16.0293 16.455 15.7951C15.9583 15.3371 15.5641 14.7719 15.2482 14.177C15.0891 13.8776 14.9602 13.5627 14.8431 13.2449C14.717 12.9035 14.6249 12.5574 14.5664 12.1986C14.5357 12.0107 14.5234 11.8199 14.5083 11.6301C14.4984 11.505 14.4871 11.3803 14.4828 11.2547C14.4771 11.097 14.4719 10.9398 14.4663 10.7826C14.4583 10.538 14.4701 10.2925 14.4918 10.0488C14.5116 9.82218 14.5414 9.5979 14.5839 9.37457C14.6098 9.23811 14.6306 9.0993 14.6651 8.96426C14.7028 8.81647 14.7406 8.66868 14.7784 8.52136C14.8535 8.22862 14.9573 7.94154 15.074 7.66297C15.2874 7.15208 15.5579 6.66481 15.8318 6.18508C15.9437 5.98866 16.0627 5.7946 16.1854 5.60432C16.3271 5.38524 16.464 5.16285 16.616 4.95084C16.8517 4.62127 17.0844 4.29217 17.3446 3.98054C17.7563 3.48666 18.2446 3.05321 18.8041 2.7345C18.957 2.64762 19.1162 2.57301 19.2743 2.49605C19.3825 2.44364 19.4901 2.39217 19.6011 2.34543C19.7238 2.29396 19.8461 2.24203 19.9684 2.19056C20.0992 2.13579 20.2404 2.09802 20.375 2.05222C20.6672 1.95306 20.9713 1.88412 21.2716 1.81424C21.4081 1.78214 21.5436 1.75711 21.6815 1.73445C21.8231 1.71131 21.9652 1.68204 22.1083 1.6674C22.2858 1.64993 22.4629 1.63199 22.6404 1.61452C22.6999 1.60838 22.7618 1.61027 22.8213 1.60838C22.9251 1.60602 23.0295 1.60271 23.1334 1.60035C23.267 1.59658 23.4025 1.60791 23.5352 1.6183C23.7028 1.63057 23.869 1.64474 24.0347 1.67118C24.1561 1.69054 24.2599 1.75617 24.3308 1.8473C24.4441 1.86713 24.5565 1.88885 24.6684 1.91293C24.9087 1.96439 25.1434 2.03097 25.3795 2.09896C25.8488 2.23447 26.3172 2.37187 26.7865 2.50738C27.254 2.6429 27.72 2.79116 28.1676 2.98333C28.6289 3.18117 29.0647 3.4248 29.4925 3.68591C29.9052 3.93757 30.3117 4.19821 30.6998 4.48623C31.096 4.78039 31.4836 5.09061 31.8495 5.42159C32.046 5.59913 32.2363 5.7795 32.4161 5.97356C32.5026 6.06657 32.5814 6.16667 32.6626 6.26441C32.7334 6.3494 32.8029 6.44053 32.8638 6.5326C33.0139 6.76018 33.1574 6.98777 33.2779 7.23235C33.3383 7.35511 33.3931 7.47882 33.4459 7.60489C33.4969 7.72624 33.538 7.85089 33.5805 7.97507C33.6197 8.08791 33.6447 8.20596 33.6754 8.32117C33.6915 8.38113 33.6985 8.44487 33.7099 8.50578C33.7217 8.56858 33.7349 8.63185 33.7425 8.69559C33.7727 8.95481 33.7925 9.21261 33.7916 9.47372C33.7892 9.98461 33.7401 10.4955 33.6641 11.0007C33.5918 11.4833 33.4865 11.9663 33.3435 12.4333C33.2963 12.5867 33.2509 12.7402 33.1966 12.8913C33.0786 13.2213 32.9318 13.5358 32.7622 13.8422C32.5148 14.2889 32.1862 14.6803 31.833 15.0462C31.434 15.4594 31.0034 15.8418 30.5511 16.195C30.2938 16.3962 30.0194 16.5765 29.7357 16.7385C29.4377 16.9089 29.1171 17.0449 28.7965 17.1667C28.6483 17.2229 28.4981 17.272 28.348 17.3221C28.2266 17.3627 28.1053 17.4071 27.982 17.442C27.745 17.5095 27.5103 17.5827 27.27 17.6365C27.1236 17.6701 26.9773 17.7026 26.8304 17.7362C26.7011 17.7654 26.5665 17.7787 26.4347 17.799C25.9513 17.8731 25.4583 17.9128 24.9691 17.9264C24.735 17.9331 24.5012 17.9382 24.2675 17.9382C24.2274 17.9378 24.1882 17.9373 24.1485 17.9368ZM21.4959 16.805C21.7707 16.8523 22.046 16.8848 22.3227 16.9184C22.775 16.9528 23.2264 16.9816 23.6801 16.9953C23.9261 17.0029 24.1717 17.0057 24.4177 17.0076C24.615 17.0095 24.8129 17 25.0102 16.9939C25.2709 16.9779 25.531 16.9632 25.7912 16.9377C25.9201 16.9255 26.049 16.9165 26.1774 16.8962C26.3228 16.874 26.4687 16.8518 26.6142 16.8291C26.8026 16.7862 26.9914 16.7437 27.1798 16.7007C27.2738 16.6795 27.3663 16.6478 27.4593 16.6218C27.5576 16.594 27.6562 16.5661 27.7545 16.5383C28.1379 16.4103 28.5198 16.2847 28.89 16.1209C29.0935 16.026 29.2914 15.9221 29.4835 15.805C29.7286 15.6478 29.9614 15.4759 30.1885 15.2936C30.3825 15.1279 30.5771 14.9627 30.7636 14.7884C30.8514 14.7067 30.942 14.6269 31.0256 14.5405C31.1295 14.4338 31.2324 14.3262 31.3363 14.2195C31.4803 14.057 31.6163 13.8889 31.7438 13.7128C31.8599 13.5414 31.9633 13.3644 32.0601 13.1812C32.1602 12.9805 32.2481 12.7756 32.325 12.565C32.4591 12.1759 32.5583 11.7774 32.6508 11.377C32.6839 11.2047 32.7169 11.0328 32.7429 10.8595C32.7712 10.6716 32.7934 10.4837 32.8151 10.2948C32.8279 10.147 32.8406 10.0002 32.8482 9.85193C32.8567 9.67628 32.86 9.50158 32.8605 9.32499C32.8562 9.23811 32.8515 9.15123 32.8468 9.06436C32.8416 8.96756 32.825 8.87029 32.8132 8.7735C32.7981 8.69418 32.7835 8.61438 32.7684 8.53458C32.7528 8.45148 32.7259 8.36885 32.7028 8.28717C32.6735 8.20171 32.6442 8.11672 32.6149 8.03126C32.5866 7.94768 32.5474 7.86647 32.512 7.78526C32.4714 7.70216 32.4303 7.61811 32.3888 7.53501C32.3482 7.45191 32.2972 7.37258 32.2504 7.29232C32.1735 7.17663 32.0974 7.0619 32.0143 6.95047C31.9393 6.8499 31.8604 6.75357 31.7806 6.65678C31.6531 6.51938 31.5238 6.38812 31.3897 6.2578C31.1271 6.02219 30.8585 5.79508 30.5851 5.57222C30.3211 5.35738 30.0463 5.15813 29.7678 4.96265C29.2951 4.65007 28.814 4.3493 28.3149 4.0797C28.144 3.99423 27.9716 3.91161 27.796 3.83653C27.6185 3.76004 27.4381 3.69299 27.2563 3.62784C27.2615 3.62972 27.2662 3.63161 27.2714 3.63303C26.8144 3.48241 26.3526 3.3502 25.8903 3.21611C25.4385 3.08437 24.988 2.94319 24.5305 2.83223C24.2854 2.78077 24.0395 2.7378 23.7911 2.70664C23.6764 2.69247 23.5772 2.63204 23.5073 2.54752C23.385 2.53996 23.2632 2.5343 23.1409 2.5291C23.0078 2.52391 22.8723 2.53383 22.7386 2.53902C22.5479 2.55791 22.3571 2.57726 22.1664 2.59615C22.08 2.60512 21.9936 2.62401 21.9081 2.63817C21.824 2.65187 21.74 2.66556 21.656 2.67925C21.4827 2.71939 21.3099 2.75952 21.137 2.80013C20.9921 2.83412 20.8485 2.87992 20.705 2.92147C20.6332 2.94603 20.5615 2.97011 20.4892 2.99513C20.4241 3.01732 20.3561 3.03574 20.2923 3.06265C20.1464 3.12403 20.001 3.18542 19.8551 3.24727C19.6077 3.3672 19.3593 3.4843 19.1228 3.625C18.9717 3.72274 18.8272 3.8285 18.6874 3.9423C18.5227 4.08489 18.3664 4.23504 18.2176 4.39369C17.8819 4.76717 17.5939 5.17654 17.3035 5.58544C17.0972 5.90604 16.8927 6.22664 16.6958 6.5529C16.515 6.85179 16.3512 7.15775 16.1906 7.46749C16.0551 7.74985 15.921 8.02937 15.8124 8.32353C15.7128 8.61769 15.6363 8.91562 15.5598 9.21686C15.5381 9.33018 15.5164 9.44303 15.4947 9.55541C15.4578 9.75041 15.4328 9.94683 15.4149 10.1437C15.3983 10.376 15.3894 10.6074 15.3969 10.8397C15.4016 10.9795 15.4068 11.1188 15.4111 11.258C15.4342 11.5569 15.4531 11.8558 15.4994 12.1518C15.5296 12.3091 15.566 12.4635 15.6103 12.6174C15.7029 12.905 15.8105 13.1873 15.9328 13.4626C16.04 13.6892 16.1571 13.9088 16.2879 14.1227C16.4187 14.3271 16.558 14.5254 16.71 14.7148C16.8318 14.8578 16.9593 14.9943 17.0962 15.1232C17.2313 15.2417 17.371 15.3527 17.5174 15.457C17.6817 15.5666 17.8503 15.6662 18.0245 15.7587C18.3517 15.9216 18.6903 16.0505 19.0312 16.1818C19.3046 16.2696 19.5765 16.3551 19.8532 16.4306C20.1384 16.5081 20.4245 16.5784 20.7116 16.6488H20.7107C20.9727 16.7049 21.2329 16.7597 21.4959 16.805Z" fill="#053B4A"/>
<path d="M12.8807 10.2404C12.5313 10.2064 12.1771 10.1389 11.8452 10.0223C11.5746 9.92782 11.315 9.79325 11.1048 9.59636C10.8791 9.38483 10.7436 9.11664 10.6775 8.81634C10.5647 8.29979 10.6364 7.7686 10.7337 7.25583C10.7795 7.01503 10.8414 6.77753 10.9089 6.54144C10.9764 6.30772 11.0453 6.07353 11.1214 5.84217C11.1629 5.71563 11.2045 5.58956 11.2455 5.46254C11.2909 5.32467 11.3447 5.18916 11.4009 5.05554C11.4273 4.9918 11.4604 4.9323 11.493 4.87139C11.5331 4.79774 11.5874 4.73871 11.6455 4.67875C11.7319 4.58951 11.8636 4.54607 11.9831 4.53427C12.1294 4.52057 12.2749 4.57676 12.382 4.6745C12.5449 4.82323 12.6332 5.03618 12.7376 5.22693C12.884 5.49512 13.0365 5.75718 13.197 6.01734C13.4425 6.38846 13.6918 6.75817 13.9732 7.10285C14.0833 7.23175 14.1975 7.35546 14.3203 7.47256C14.3892 7.53252 14.4596 7.58918 14.5332 7.64348C14.58 7.67275 14.6277 7.70014 14.6763 7.72658C14.7547 7.76436 14.8349 7.79788 14.9166 7.82857C14.9379 7.83565 14.9591 7.84179 14.9808 7.84746C15.0148 7.8536 15.0493 7.85879 15.0842 7.86162C15.0701 7.86068 15.0559 7.85926 15.0413 7.85784C15.1626 7.86965 15.2722 7.91025 15.3586 8.00091C15.4436 8.09015 15.4898 8.21055 15.4875 8.33332C15.4856 8.42161 15.4554 8.50849 15.4058 8.58262C15.5342 8.76535 15.5205 9.03543 15.3487 9.1903C15.1504 9.36878 14.9435 9.53215 14.7226 9.68135C14.6291 9.74415 14.5299 9.80128 14.4303 9.85369C14.2084 9.97032 13.9817 10.0813 13.7409 10.1545C13.5318 10.2187 13.3174 10.2503 13.1007 10.2503C13.028 10.2513 12.9543 10.2479 12.8807 10.2404ZM11.6955 8.87158C11.7092 8.88669 11.7229 8.90086 11.7375 8.91502C11.7626 8.93674 11.789 8.95752 11.8154 8.97735C11.8608 9.0071 11.9066 9.03448 11.9543 9.06045C12.0156 9.08878 12.077 9.11475 12.1393 9.13978C12.2706 9.18369 12.4042 9.21721 12.5397 9.2479C12.6866 9.27623 12.8339 9.29984 12.9826 9.31542C13.0516 9.3192 13.1205 9.32062 13.1894 9.3192C13.2234 9.31684 13.257 9.31306 13.29 9.30834C13.3533 9.29606 13.4156 9.28095 13.4779 9.26301C13.5658 9.23185 13.6526 9.19738 13.7386 9.16102C13.893 9.08736 14.0431 9.00662 14.1909 8.9188C14.3047 8.84137 14.4152 8.76063 14.5233 8.67564C14.4624 8.65203 14.4024 8.62653 14.3434 8.60009C14.019 8.45513 13.7494 8.22613 13.5039 7.97352C13.2985 7.76199 13.1101 7.52686 12.9401 7.28652C12.8471 7.15573 12.7508 7.02683 12.662 6.89321C12.4916 6.63541 12.3202 6.37808 12.1653 6.11036C12.1327 6.05417 12.1006 5.99704 12.0685 5.94038C11.9189 6.38988 11.7895 6.84505 11.6738 7.30447C11.6304 7.53205 11.5874 7.75869 11.5643 7.99005C11.5567 8.09629 11.5524 8.20205 11.5534 8.30876C11.5581 8.39234 11.5657 8.47497 11.5775 8.55854C11.5879 8.61142 11.5992 8.66383 11.6129 8.71577C11.6233 8.74363 11.6346 8.77149 11.6469 8.7984C11.6431 8.79273 11.6398 8.78707 11.636 8.7814C11.6403 8.78848 11.6445 8.79557 11.6488 8.80265C11.6521 8.80973 11.6554 8.81634 11.6587 8.82295C11.6563 8.81729 11.6535 8.81162 11.6511 8.80643C11.6639 8.82767 11.679 8.84987 11.6955 8.87158Z" fill="#053B4A"/>
<path d="M35.4042 11.7565C35.2989 11.7556 35.1936 11.7547 35.0883 11.7537C34.9882 11.7528 34.8867 11.7372 34.7875 11.7287C34.5798 11.7112 34.3767 11.6631 34.1746 11.6154C34.0108 11.5762 33.846 11.519 33.6907 11.4563C33.4928 11.376 33.3007 11.2891 33.1132 11.1866C32.8908 11.0644 32.8261 10.7593 32.9532 10.5478C33.0873 10.324 33.3696 10.265 33.592 10.3873C33.6104 10.3977 33.6298 10.408 33.6487 10.4184C33.829 10.5077 34.0127 10.5827 34.2011 10.6522C34.3352 10.6923 34.4683 10.7282 34.6043 10.7612C34.6893 10.7749 34.7748 10.7891 34.8598 10.8023C34.8583 10.8023 34.8574 10.8023 34.856 10.8023C34.9377 10.8094 35.0198 10.816 35.102 10.8226C35.1747 10.8283 35.2488 10.8273 35.3225 10.8264C35.3532 10.8259 35.3843 10.8259 35.415 10.8259C35.5161 10.8193 35.6176 10.8132 35.7186 10.8066C35.8258 10.7995 35.9335 10.7796 36.0397 10.7659C36.1771 10.7409 36.3145 10.7159 36.451 10.6828C36.5865 10.6503 36.7201 10.6125 36.8542 10.5728C37.0275 10.5096 37.196 10.442 37.3655 10.3693C37.5044 10.3018 37.6399 10.2291 37.7721 10.1488C37.8443 10.0997 37.9142 10.0483 37.9822 9.99395C38.0289 9.95146 38.0747 9.90755 38.1191 9.86175C38.1578 9.81736 38.1942 9.77203 38.2296 9.72482C38.2622 9.67571 38.2924 9.62661 38.3217 9.57514C38.3547 9.50762 38.3845 9.43916 38.4109 9.36833C38.4284 9.31073 38.444 9.2536 38.4577 9.19457C38.4737 9.1077 38.486 9.02082 38.495 8.93252C38.5035 8.80079 38.5063 8.67 38.5044 8.53826C38.4983 8.42919 38.4926 8.31965 38.4865 8.21011C38.4799 8.09018 38.461 7.9693 38.4482 7.84937C38.4392 7.76674 38.4284 7.68412 38.4156 7.60196C38.3802 7.65012 38.3453 7.69781 38.3089 7.7455C38.2381 7.83804 38.1682 7.93153 38.095 8.02219C37.9293 8.22758 37.7485 8.41833 37.5587 8.60154C37.4274 8.72808 37.2881 8.85084 37.1474 8.96746C36.9637 9.12045 36.7829 9.27626 36.5917 9.4198C36.1908 9.72104 35.755 9.97696 35.2904 10.1658C35.0713 10.2546 34.8413 10.3188 34.6095 10.3627C34.3758 10.4066 34.1312 10.4265 33.8947 10.4C33.6855 10.3769 33.4584 10.3273 33.3054 10.1715C33.2058 10.07 33.1491 9.94485 33.1491 9.80178C33.1491 9.54776 33.3762 9.34142 33.6255 9.34708C33.7403 9.34945 33.8427 9.39383 33.9211 9.46513C33.9447 9.4689 33.9688 9.47221 33.9924 9.47551C34.0542 9.47882 34.1152 9.47929 34.177 9.47882C34.2587 9.47315 34.3399 9.46371 34.4206 9.45143C34.5274 9.43019 34.6317 9.40469 34.7356 9.37447C34.8668 9.33103 34.9948 9.28145 35.1213 9.22621C35.3078 9.13697 35.4882 9.03782 35.6639 8.92922C35.8674 8.79748 36.0657 8.6582 36.2522 8.50332C36.3735 8.40275 36.4939 8.30218 36.6153 8.20161C36.5988 8.21483 36.5827 8.22852 36.5666 8.24174C36.7777 8.05241 36.9873 7.86496 37.1823 7.65862C37.4364 7.37201 37.6597 7.0618 37.8793 6.74923C37.9411 6.65999 38.0034 6.57075 38.0625 6.47915C38.1734 6.30586 38.282 6.11511 38.4898 6.04995C38.672 5.99282 38.8538 6.02681 38.9917 6.16374C39.1286 6.3002 39.1612 6.48623 39.1971 6.66801C39.2235 6.80117 39.2481 6.93479 39.2698 7.06841C39.3076 7.29552 39.3501 7.52311 39.3741 7.75211C39.402 8.01463 39.4313 8.27763 39.4351 8.54204C39.4374 8.70588 39.4341 8.86925 39.4195 9.03262C39.4058 9.18702 39.3793 9.33623 39.3453 9.48732C39.2745 9.80367 39.1149 10.0941 38.9232 10.3519C38.5927 10.7957 38.0823 11.0724 37.5856 11.2882C37.3448 11.3925 37.0978 11.4704 36.8466 11.546C36.7446 11.5767 36.6389 11.596 36.535 11.621C36.4755 11.6352 36.4132 11.6432 36.3528 11.6541C36.2852 11.6664 36.2168 11.6819 36.1483 11.6904C36.0359 11.7046 35.9221 11.7263 35.8098 11.7334C35.6804 11.7414 35.5501 11.757 35.4202 11.7575C35.415 11.757 35.4094 11.7565 35.4042 11.7565Z" fill="#053B4A"/>
<path d="M21.1926 6.76039C20.9589 6.65935 20.8513 6.38077 20.9509 6.14752C21.2195 5.51765 21.5298 4.90525 21.8291 4.28955C21.9755 3.98831 22.1223 3.68659 22.2564 3.37968C22.3334 3.20309 22.4103 3.0265 22.4873 2.84944C22.5558 2.69268 22.6271 2.53781 22.7078 2.38719C22.7815 2.24979 22.8948 2.11192 23.0449 2.05667C23.2465 1.98254 23.4567 2.05337 23.5875 2.2191C23.7334 2.40419 23.6904 2.68088 23.5251 2.83528C23.5133 2.85463 23.5025 2.87446 23.4911 2.89477C23.3353 3.21112 23.2083 3.54069 23.0605 3.86082C22.9075 4.19134 22.7522 4.51996 22.5931 4.84765C22.3244 5.40103 22.0477 5.95204 21.806 6.51817C21.7314 6.6924 21.5557 6.79769 21.3744 6.79769C21.3126 6.79769 21.2512 6.78542 21.1926 6.76039Z" fill="#053B4A"/>
<path d="M22.9712 7.38102C22.7323 7.31256 22.5755 7.04673 22.652 6.80498C22.7786 6.40553 22.9226 6.01174 23.0642 5.61795C23.1894 5.26997 23.3187 4.92245 23.4547 4.57824C23.6016 4.20854 23.7536 3.84025 23.8929 3.46771C23.9661 3.27034 24.0393 3.07392 24.1124 2.87656C24.1606 2.74765 24.2007 2.60884 24.2876 2.49977C24.3806 2.38314 24.5213 2.32129 24.6691 2.32129C24.9227 2.32129 25.13 2.5484 25.1238 2.7977C25.1215 2.89025 25.0927 2.97524 25.0436 3.04559C24.9968 3.15702 24.9576 3.27223 24.9151 3.38602C24.8575 3.54042 24.8004 3.69577 24.7423 3.85064C24.6498 4.09947 24.5487 4.34547 24.451 4.59194C24.23 5.14862 24.019 5.70861 23.8164 6.2719C23.823 6.25302 23.8301 6.23413 23.8362 6.21524C23.7366 6.49666 23.637 6.77759 23.5468 7.06184C23.4831 7.26204 23.2998 7.39896 23.0973 7.39896C23.0567 7.39896 23.0142 7.3933 22.9712 7.38102Z" fill="#053B4A"/>
<path d="M27.1917 7.25201C27.069 7.24918 26.9505 7.19724 26.8655 7.108C26.7772 7.01546 26.7413 6.90119 26.7366 6.77607C26.7149 6.14903 26.6945 5.522 26.6738 4.89449C26.6558 4.44971 26.6436 4.00162 26.5746 3.56109C26.5359 3.31037 26.7465 3.07476 26.9892 3.04926C27.1101 3.03699 27.2333 3.0724 27.3282 3.14794C27.4288 3.22821 27.4817 3.3387 27.501 3.46335C27.5874 4.01437 27.594 4.57861 27.612 5.13529C27.6304 5.68961 27.6483 6.24347 27.6682 6.79779C27.6766 7.04804 27.4406 7.25296 27.2012 7.25296C27.1979 7.25248 27.195 7.25249 27.1917 7.25201Z" fill="#053B4A"/>
<path d="M22.2187 11.9058C21.9671 11.9002 21.7551 11.683 21.764 11.4294C21.7806 10.9544 21.8075 10.4799 21.832 10.0049C21.8561 9.545 21.8745 9.08511 21.8873 8.62475C21.8943 8.3712 22.1092 8.16392 22.3637 8.17005C22.6163 8.17572 22.8255 8.39292 22.8184 8.64647C22.8056 9.1073 22.7872 9.56719 22.7631 10.0271C22.7381 10.5016 22.7117 10.9761 22.6951 11.4511C22.6862 11.7009 22.4803 11.9058 22.2296 11.9058C22.2253 11.9058 22.222 11.9058 22.2187 11.9058Z" fill="#053B4A"/>
<path d="M24.2135 11.9002C23.9713 11.895 23.7376 11.6773 23.7588 11.4238C23.8344 10.5106 23.8816 9.59506 23.959 8.68236C23.9694 8.55676 24.01 8.44486 24.1026 8.35609C24.1918 8.2711 24.3122 8.22483 24.435 8.22766C24.6767 8.23333 24.9114 8.45053 24.8897 8.70408C24.8122 9.61725 24.7655 10.5323 24.6895 11.4455C24.6791 11.5706 24.638 11.683 24.5455 11.7717C24.4591 11.8539 24.3434 11.9006 24.2244 11.9006C24.2211 11.9006 24.2173 11.9002 24.2135 11.9002Z" fill="#053B4A"/>
<path d="M21.1345 14.5203C20.8852 14.3484 20.6614 14.1473 20.4475 13.9329C20.2138 13.6982 20.0202 13.4338 19.8445 13.1533C19.5537 12.6878 19.37 12.1391 19.37 11.5876C19.37 11.3336 19.5971 11.1268 19.8464 11.1329C20.1042 11.1386 20.3011 11.3558 20.3011 11.6094C20.3011 11.6264 20.3011 11.6434 20.3016 11.6608C20.3063 11.7302 20.3143 11.7992 20.3242 11.8676C20.3422 11.9555 20.3639 12.0409 20.3885 12.1264C20.4168 12.2104 20.448 12.2926 20.482 12.3743C20.5433 12.5022 20.6123 12.6255 20.6864 12.7463C20.7634 12.863 20.8441 12.9753 20.9315 13.0835C21.0514 13.2213 21.1793 13.3507 21.313 13.4758C21.4216 13.5717 21.5325 13.6623 21.6501 13.7473C21.7998 13.8484 21.9546 13.9404 22.1138 14.0254C22.2984 14.117 22.4858 14.1982 22.6789 14.2691C22.8574 14.329 23.0378 14.3805 23.2219 14.4235C23.4122 14.4627 23.6034 14.4929 23.7966 14.5132C23.9812 14.5269 24.1648 14.5292 24.349 14.5236C24.5539 14.5122 24.756 14.4924 24.959 14.4612C25.1597 14.4249 25.3566 14.3781 25.5525 14.321C25.7372 14.262 25.9166 14.1945 26.0941 14.1166C26.2693 14.0349 26.4383 13.9433 26.6036 13.8422C26.7372 13.7558 26.8666 13.6638 26.9917 13.5646C27.089 13.4796 27.182 13.3904 27.2712 13.2959C27.3614 13.193 27.4445 13.0854 27.5238 12.9735C27.6565 12.777 27.7694 12.5712 27.8813 12.3625C27.9776 12.1684 28.0692 11.9743 28.1471 11.7718C28.1636 11.7227 28.1792 11.6736 28.1938 11.6235C28.2642 11.3799 28.5258 11.2345 28.7699 11.3043C29.0135 11.3738 29.1594 11.6367 29.0891 11.8804C29.0216 12.1127 28.9281 12.3332 28.8265 12.5518C28.7751 12.6637 28.717 12.7737 28.6585 12.8823C28.5494 13.0854 28.4375 13.2846 28.3072 13.4749C28.1367 13.7247 27.9436 13.9522 27.7236 14.1595C27.4691 14.3989 27.1711 14.5916 26.8699 14.7658C26.2976 15.0958 25.6541 15.2913 25.0048 15.3952C24.7343 15.4382 24.4604 15.4594 24.1861 15.4594C23.1063 15.4608 22.0222 15.1327 21.1345 14.5203Z" fill="#053B4A"/>
<path d="M18.6014 32.4939C18.1146 32.4878 17.6288 32.4613 17.1429 32.4358C16.8818 32.4221 16.6221 32.4061 16.3619 32.3858C16.1504 32.3697 15.9422 32.3471 15.7358 32.297C15.6272 32.271 15.5238 32.2116 15.4403 32.1393C15.3321 32.0463 15.2519 31.9028 15.2363 31.7597C15.2188 31.5916 15.2656 31.4211 15.2986 31.2568C15.3222 31.1407 15.3477 31.025 15.3727 30.9088C15.4275 30.6553 15.4861 30.4027 15.5446 30.1501C15.7684 29.1836 16.0338 28.2284 16.2878 27.2699C16.5579 26.2514 16.8242 25.232 17.1051 24.2164C17.3676 23.2683 17.667 22.3296 17.9635 21.3919C18.1661 20.7507 18.3715 20.1109 18.5717 19.4697C18.7582 18.8724 18.9404 18.2732 19.0816 17.6636C19.0934 17.6027 19.1057 17.5418 19.1147 17.4804C19.1269 17.2368 19.3484 17.0413 19.5906 17.047C19.8484 17.0531 20.0453 17.2699 20.0453 17.5234C20.0453 17.641 20.0127 17.7661 19.9863 17.8799C19.9603 17.9937 19.9376 18.1094 19.9074 18.2217C19.8418 18.4607 19.7771 18.6996 19.7063 18.9371C19.5656 19.4092 19.4216 19.88 19.2719 20.3498C18.9466 21.3692 18.6245 22.3896 18.312 23.4127C18.0169 24.3793 17.7567 25.3557 17.4984 26.3326C17.2397 27.31 16.9748 28.286 16.7198 29.2638C16.5654 29.8569 16.4257 30.4537 16.2925 31.0519C16.2925 31.0514 16.2925 31.0514 16.2925 31.051C16.2916 31.0552 16.2906 31.059 16.2897 31.0632C16.2892 31.0647 16.2887 31.0661 16.2887 31.0675C16.2887 31.068 16.2883 31.0694 16.2883 31.0699C16.2878 31.0722 16.2873 31.0751 16.2869 31.0779C16.2864 31.0802 16.2854 31.0831 16.285 31.0854C16.2595 31.203 16.234 31.3201 16.2104 31.4381C16.2477 31.4429 16.285 31.4471 16.3223 31.4509C17.2879 31.5236 18.2558 31.5685 19.2237 31.5689C20.2767 31.5699 21.3286 31.5619 22.3816 31.5401C23.1389 31.525 23.8968 31.5113 24.6541 31.4995C25.4101 31.4877 26.1655 31.4858 26.921 31.4665C27.4654 31.4386 28.0079 31.3961 28.5504 31.3418C29.1076 31.2856 29.6633 31.2247 30.2162 31.135C30.4466 31.093 30.6766 31.0496 30.9056 31C31.1388 30.9499 31.374 30.9018 31.603 30.8352C31.6115 30.8324 31.6195 30.8295 31.6275 30.8262C31.6275 30.8257 31.6275 30.8253 31.6275 30.8253C31.6275 30.8116 31.6275 30.7974 31.6275 30.7833C31.6252 30.7568 31.6223 30.7308 31.619 30.7044C31.5888 30.5533 31.5444 30.4069 31.501 30.2591C31.4037 29.9588 31.3032 29.66 31.2016 29.3611C31.0874 29.0244 30.9679 28.6878 30.8711 28.3459C30.6856 27.692 30.5175 27.0338 30.3295 26.3808C30.2837 26.2405 30.2384 26.0994 30.1926 25.9582C30.1445 25.8109 30.0845 25.6664 30.0302 25.5214C29.9263 25.2429 29.8007 24.9709 29.6789 24.6994C29.5066 24.3283 29.3314 23.959 29.1477 23.5936C28.965 23.2314 28.7615 22.8797 28.5589 22.5288C28.354 22.1747 28.1514 21.8197 27.9541 21.4613C27.7586 21.1053 27.5617 20.7502 27.3502 20.4036C27.1372 20.0707 26.9148 19.7464 26.6731 19.4328C26.4342 19.1226 26.1887 18.8181 25.9611 18.4994C25.8133 18.2926 25.8586 17.9984 26.0654 17.8487C26.2699 17.7005 26.5678 17.7467 26.7156 17.9531C26.9847 18.3294 27.2784 18.6859 27.556 19.0551C27.8526 19.4494 28.1193 19.8663 28.3686 20.2912C28.6264 20.7308 28.863 21.1832 29.1133 21.6265C29.3503 22.0468 29.601 22.459 29.8276 22.8844C30.0477 23.2975 30.2502 23.7192 30.4466 24.1437C30.645 24.571 30.831 25.003 30.9953 25.4449C31.1497 25.8609 31.2781 26.2878 31.3915 26.7165C31.5161 27.1863 31.6417 27.6547 31.7744 28.1221C31.9255 28.5957 32.0846 29.0665 32.2447 29.5372C32.3254 29.7756 32.3986 30.0155 32.4699 30.2568C32.5407 30.4957 32.5709 30.7365 32.5468 30.9844C32.5412 31.042 32.5199 31.1015 32.5001 31.1558C32.4812 31.2087 32.4604 31.2644 32.4297 31.3121C32.3603 31.4211 32.2805 31.5113 32.1743 31.5864C32.0289 31.6884 31.8504 31.7361 31.6795 31.7781C31.5529 31.8093 31.4264 31.839 31.2994 31.8673C31.069 31.9193 30.8371 31.9665 30.6043 32.009C30.1114 32.0992 29.6171 32.1658 29.1189 32.2191C28.6449 32.2696 28.1699 32.3178 27.6944 32.3523C27.1778 32.3896 26.6608 32.4051 26.1429 32.4122C25.1508 32.4254 24.1593 32.4382 23.1677 32.4557C22.163 32.4731 21.1591 32.4963 20.1544 32.4991C19.9886 32.5 19.8224 32.5 19.6562 32.5C19.3054 32.5 18.9537 32.4986 18.6014 32.4939Z" fill="#053B4A"/>
<path d="M16.289 31.0696C16.289 31.069 16.2897 31.0677 16.2897 31.0671C16.2897 31.0684 16.289 31.0696 16.289 31.0716C16.2884 31.0709 16.289 31.0703 16.289 31.0696Z" fill="#053B4A"/>
<path d="M16.2921 31.0547C16.2911 31.058 16.2907 31.0614 16.2897 31.0647C16.2892 31.0662 16.2888 31.0676 16.2888 31.069C16.2897 31.0642 16.2907 31.0595 16.2921 31.0547Z" fill="#053B4A"/>
<path d="M25.7215 39.5534C25.6322 39.543 25.5567 39.5161 25.4722 39.4863C25.4113 39.4646 25.3485 39.4202 25.2984 39.3801C25.2517 39.3428 25.2078 39.297 25.1709 39.2503C25.093 39.1516 25.0378 39.0453 24.9877 38.9311C24.933 38.805 24.9122 38.6653 24.8919 38.5307C24.864 38.3475 24.8702 38.1563 24.8796 37.9721C24.8843 37.8777 24.8933 37.7842 24.9042 37.6912C24.8456 37.7455 24.7847 37.7979 24.7219 37.847C24.2134 38.2455 23.5882 38.4688 22.9423 38.4787C22.6524 38.4835 22.3582 38.4207 22.0844 38.3295C21.7558 38.2209 21.4649 38.0297 21.2071 37.8021C20.9847 37.6048 20.7921 37.3729 20.6278 37.125C20.4379 36.8384 20.3034 36.5226 20.1924 36.1982C20.0715 35.8459 19.9932 35.4824 19.9077 35.1207C19.8515 34.8827 19.8119 34.6386 19.7722 34.3969C19.6796 33.8359 19.6027 33.2736 19.5649 32.7056C19.5479 32.453 19.7193 32.2211 19.9795 32.1937C20.2245 32.1682 20.4743 32.3547 20.4913 32.6083C20.531 33.208 20.6174 33.8001 20.7142 34.3926C20.8025 34.8459 20.8945 35.2978 21.0239 35.7416C21.0806 35.922 21.1438 36.1004 21.2198 36.2737C21.2727 36.3833 21.3303 36.489 21.3931 36.5929C21.4555 36.6864 21.522 36.7761 21.5919 36.8635C21.6618 36.9433 21.734 37.0188 21.8101 37.092C21.8804 37.1534 21.9522 37.211 22.0273 37.2657C22.0853 37.3031 22.1429 37.338 22.2024 37.3715C22.2558 37.3965 22.3091 37.4197 22.3639 37.4409C22.4428 37.4664 22.5221 37.4881 22.6024 37.508C22.6793 37.5226 22.7553 37.5344 22.8328 37.5424C22.8946 37.5457 22.956 37.5467 23.0179 37.5462C23.0906 37.5415 23.1623 37.5339 23.2346 37.5231C23.3163 37.5066 23.3965 37.4867 23.4768 37.4641C23.5722 37.4315 23.6657 37.3956 23.7582 37.3555C23.8338 37.3186 23.9069 37.2794 23.9792 37.2365C24.0434 37.1921 24.1062 37.1463 24.1681 37.0977C24.314 36.9706 24.4447 36.8309 24.5765 36.6892C24.7517 36.4763 24.9197 36.2591 25.0836 36.0381C25.1629 35.9314 25.2422 35.8252 25.3206 35.718C25.4004 35.6094 25.4769 35.4965 25.5633 35.3927C25.6832 35.2487 25.874 35.1826 26.0558 35.235C26.1148 35.2515 26.17 35.2817 26.2182 35.3204C26.4255 35.2595 26.6512 35.3544 26.7612 35.5466C27.0572 36.0646 27.2834 36.6571 27.3174 37.2563C27.3335 37.5363 27.3084 37.8215 27.248 38.0944C27.2164 38.2379 27.1734 38.3739 27.1172 38.5099C27.0563 38.6567 26.9694 38.7908 26.8783 38.9202C26.7966 39.0359 26.6927 39.1407 26.5874 39.2347C26.4869 39.3244 26.3759 39.4004 26.2536 39.4566C26.1403 39.5081 26.0256 39.5359 25.9023 39.5529C25.8759 39.5567 25.8476 39.5581 25.8192 39.5581C25.7857 39.5591 25.7526 39.5572 25.7215 39.5534ZM25.8641 38.6128C25.873 38.6086 25.882 38.6034 25.8915 38.5982C25.9127 38.5831 25.9335 38.568 25.9543 38.5519C25.9939 38.516 26.0312 38.4792 26.0676 38.441C26.1002 38.4018 26.1318 38.3616 26.162 38.3206C26.1885 38.2785 26.213 38.2365 26.2366 38.1931C26.2583 38.1463 26.2782 38.0991 26.2966 38.051C26.3131 37.9948 26.3287 37.9386 26.3419 37.8815C26.358 37.7946 26.3707 37.7077 26.3806 37.6203C26.3872 37.5217 26.3901 37.423 26.3887 37.3238C26.3835 37.2497 26.3759 37.1765 26.3655 37.1024C26.3466 37.0065 26.323 36.9126 26.2985 36.8177C26.2541 36.6803 26.2059 36.5457 26.1516 36.4125C26.1176 36.5164 26.0846 36.6208 26.0539 36.7261C26.0029 36.9012 25.9609 37.0783 25.9174 37.2554C25.8957 37.372 25.8745 37.4891 25.8532 37.6057C25.8334 37.7148 25.8258 37.8276 25.8145 37.9381C25.8069 38.0543 25.8036 38.1695 25.8055 38.2861C25.8102 38.3536 25.8169 38.4202 25.8268 38.4868C25.8315 38.5109 25.8372 38.5345 25.8433 38.5581C25.8494 38.576 25.856 38.594 25.8631 38.6114C25.8631 38.6114 25.8636 38.6119 25.8641 38.6128C25.865 38.6119 25.8655 38.6119 25.8664 38.6114C25.8655 38.6119 25.8645 38.6119 25.8641 38.6128Z" fill="#053B4A"/>
<path d="M30.2596 39.2072C30.142 39.1888 30.0254 39.1557 29.93 39.0806C29.8309 39.0027 29.7365 38.9055 29.6803 38.7903C29.6246 38.6755 29.583 38.5636 29.557 38.439C29.5235 38.2798 29.5211 38.1146 29.5226 37.9526C29.5235 37.8133 29.5348 37.6693 29.5533 37.5315C29.5684 37.4144 29.5806 37.2959 29.6 37.1797C29.6297 36.9993 29.659 36.8176 29.6963 36.6381C29.6312 36.6688 29.5651 36.6967 29.4975 36.7222C29.2067 36.8317 28.8979 36.8539 28.5915 36.8223C28.3511 36.7977 28.1174 36.6953 27.9139 36.5697C27.6674 36.4176 27.471 36.1929 27.3076 35.9568C27.0876 35.639 26.9502 35.2773 26.81 34.9204C26.7675 34.8127 26.7368 34.6989 26.7014 34.5885C26.6674 34.4855 26.6367 34.3826 26.6079 34.2778C26.5389 34.0285 26.4743 33.7792 26.4124 33.528C26.3624 33.3249 26.3166 33.121 26.2684 32.9175C26.2165 32.6993 26.1593 32.4816 26.1121 32.2621C26.0587 32.0142 26.2065 31.7607 26.4577 31.7016C26.7004 31.6436 26.9653 31.7989 27.0182 32.0468C27.0966 32.4099 27.1905 32.7701 27.2755 33.1318C27.3582 33.4845 27.4507 33.8335 27.5475 34.1824C27.6391 34.4633 27.7321 34.7424 27.8501 35.0134C27.9078 35.1371 27.971 35.2566 28.04 35.3741C28.0853 35.4431 28.133 35.5097 28.184 35.5748C28.2199 35.6145 28.2557 35.6522 28.294 35.6895C28.3303 35.7207 28.3676 35.7505 28.4064 35.7783C28.4323 35.7953 28.4597 35.8109 28.4866 35.826C28.5112 35.8378 28.5357 35.8487 28.5603 35.8586C28.6018 35.8718 28.6434 35.8836 28.6849 35.894C28.7123 35.8987 28.7397 35.903 28.7671 35.9058C28.8039 35.9082 28.8408 35.9086 28.8776 35.9077C28.9168 35.9053 28.956 35.9011 28.9947 35.8954C29.0353 35.8879 29.0759 35.8789 29.1156 35.8676C29.1741 35.8477 29.2308 35.8265 29.2879 35.8029C29.3441 35.775 29.3984 35.7457 29.4527 35.7146C29.5854 35.6277 29.7091 35.5314 29.8328 35.4313C29.9045 35.3704 29.9763 35.3099 30.0438 35.2448C30.1062 35.1843 30.1666 35.1248 30.244 35.0838C30.3182 35.0432 30.3975 35.0276 30.4778 35.0304C30.5075 35.0101 30.5406 34.9931 30.5745 34.9799C30.8021 34.8935 31.0982 35.0082 31.1751 35.2504C31.2568 35.5073 31.3267 35.7675 31.3933 36.0286C31.4566 36.2783 31.5052 36.5286 31.5467 36.7821C31.5746 36.9526 31.5774 37.1334 31.576 37.3053C31.5737 37.6202 31.508 37.9271 31.399 38.2218C31.3078 38.4687 31.1813 38.7043 30.9938 38.8922C30.8257 39.0599 30.5958 39.2152 30.3493 39.2152C30.3191 39.2143 30.2894 39.2124 30.2596 39.2072ZM30.5538 37.1212C30.5236 37.302 30.4985 37.4833 30.4749 37.6656C30.4645 37.7978 30.4551 37.9281 30.4546 38.0608C30.4834 38.0008 30.5094 37.9399 30.533 37.8776C30.5599 37.7978 30.5845 37.718 30.6052 37.6368C30.6194 37.5655 30.6307 37.4946 30.6388 37.4219C30.643 37.3327 30.6449 37.243 30.6444 37.1533C30.6378 37.0447 30.626 36.938 30.6104 36.8308C30.5892 36.9271 30.5698 37.0234 30.5538 37.1212Z" fill="#053B4A"/>
<path d="M33.5363 23.2175C33.0311 23.1991 32.5202 23.1165 32.0334 22.9829C31.5362 22.8459 31.0471 22.6802 30.5787 22.4654C30.4559 22.4092 30.3279 22.3582 30.2094 22.293C30.0834 22.2236 29.9568 22.1542 29.8303 22.0848C29.6282 21.9738 29.437 21.843 29.2434 21.7179C29.1268 21.6424 29.0172 21.5541 28.9058 21.4719C28.8208 21.4091 28.7353 21.3473 28.6541 21.2793C28.5299 21.1763 28.4062 21.0734 28.282 20.9705C28.1909 20.8949 28.1069 20.8099 28.02 20.7287C27.9161 20.6315 27.8071 20.5375 27.7093 20.4332C27.5818 20.2967 27.4539 20.1602 27.3259 20.0238C27.1352 19.8203 26.9572 19.604 26.7721 19.3953C26.5728 19.1711 26.3698 18.951 26.1658 18.731C25.9684 18.5181 25.7616 18.3042 25.5992 18.0629C25.4571 17.8528 25.4925 17.5657 25.7036 17.4127C25.9037 17.2678 26.2121 17.3065 26.3537 17.5171C26.4033 17.5907 26.4604 17.6601 26.5166 17.7291C26.8802 18.1427 27.2622 18.5402 27.6253 18.9548C27.8358 19.1956 28.0479 19.4326 28.2669 19.6659C28.4501 19.8618 28.6475 20.0427 28.843 20.2263C28.9974 20.3543 29.1508 20.4818 29.3052 20.6097C29.3742 20.6669 29.4502 20.7169 29.5224 20.7698C29.5966 20.8241 29.6707 20.8784 29.7453 20.9337C29.8945 21.0295 30.0432 21.1249 30.192 21.2217C30.2642 21.2684 30.3449 21.3057 30.4205 21.3473C30.4984 21.3898 30.5758 21.4323 30.6537 21.4752C30.8162 21.5494 30.9776 21.6235 31.1401 21.6981C31.2874 21.7656 31.4437 21.8166 31.5957 21.8742C31.7307 21.9191 31.8658 21.9634 32.0008 22.0083C32.1335 22.0517 32.2714 22.0824 32.4064 22.1197C32.574 22.1561 32.7412 22.192 32.9112 22.2184C33.101 22.2472 33.2889 22.2661 33.4792 22.284C33.7162 22.293 33.9509 22.2968 34.1874 22.2954C34.347 22.2878 34.5057 22.2789 34.6648 22.2656C34.8121 22.2538 34.958 22.2298 35.1034 22.2047C35.3036 22.1627 35.501 22.1136 35.6979 22.0579C36.0124 21.9592 36.3216 21.8511 36.6233 21.7179C36.7976 21.6329 36.9675 21.5427 37.1333 21.4417C37.2593 21.3586 37.3826 21.2727 37.5016 21.1792C37.5861 21.1055 37.6659 21.0281 37.7424 20.9464C38.0441 20.5984 38.3094 20.156 38.7712 20.0082C38.8836 19.9723 38.9979 19.9549 39.1159 19.9553C39.3449 19.9567 39.5319 20.0984 39.6386 20.292C39.7529 20.4983 39.7665 20.7656 39.7222 20.9922C39.6735 21.2415 39.4502 21.4219 39.1914 21.3827C39.0304 21.3581 38.8902 21.2425 38.8279 21.0947C38.6895 21.2599 38.5587 21.4308 38.4133 21.59C38.2443 21.7746 38.0573 21.9346 37.8533 22.0791C37.451 22.3643 37.0105 22.5796 36.5506 22.7539C36.3216 22.8407 36.0855 22.9158 35.8495 22.9824C35.5926 23.0551 35.3334 23.1085 35.0704 23.1528C34.8277 23.1939 34.5807 23.2086 34.3352 23.2189C34.2139 23.2241 34.093 23.226 33.9721 23.226C33.8276 23.2255 33.6822 23.2222 33.5363 23.2175Z" fill="#053B4A"/>
<path d="M38.3747 22.1813C38.2123 22.0996 38.098 21.9575 38.0277 21.7918C37.9663 21.6468 37.9474 21.4985 37.945 21.3423C37.9413 21.0882 38.1745 20.8814 38.4215 20.8876C38.4928 20.889 38.5584 20.9064 38.6169 20.9357C38.6254 20.9083 38.6335 20.8809 38.6405 20.854C38.6859 20.6378 38.8776 20.473 39.107 20.4787C39.3578 20.4843 39.5717 20.701 39.5617 20.9551C39.5561 21.1076 39.4923 21.2558 39.4399 21.3965C39.3833 21.55 39.3063 21.7002 39.2289 21.8442C39.1075 22.0694 38.87 22.2398 38.6198 22.2398C38.5381 22.2398 38.455 22.2219 38.3747 22.1813Z" fill="#053B4A"/>
<path d="M12.522 26.2134C12.0187 26.0227 11.5881 25.6855 11.2349 25.2832C11.0597 25.0835 10.8888 24.8824 10.7349 24.6657C10.6447 24.5377 10.5583 24.4069 10.4771 24.2723C10.4095 24.3592 10.3326 24.4437 10.2452 24.5061C10.0394 24.6534 9.7896 24.7554 9.53179 24.7162C9.29477 24.6803 9.06482 24.5254 8.9515 24.3115C8.69464 23.8266 8.87123 23.2581 9.13612 22.8166C9.2688 22.5943 9.45719 22.421 9.70272 22.3346C9.94163 22.2515 10.1947 22.31 10.4034 22.4413C10.6825 22.6165 10.8255 22.9441 10.9719 23.227C11.0758 23.4281 11.1815 23.6274 11.2944 23.8238C11.3657 23.9357 11.4384 24.0462 11.5154 24.1548C11.589 24.2586 11.6688 24.3573 11.7486 24.457C11.8827 24.6095 12.0149 24.7606 12.1608 24.9022C12.2491 24.9806 12.3402 25.0538 12.4356 25.1227C12.5074 25.1695 12.5796 25.2143 12.6547 25.2559C12.726 25.2908 12.7982 25.322 12.8728 25.3503C12.9569 25.3782 13.0414 25.4022 13.1273 25.424C13.21 25.4405 13.2926 25.4532 13.3766 25.4627C13.4494 25.4664 13.5216 25.4679 13.5943 25.4674C13.6722 25.4617 13.7487 25.4537 13.8257 25.4419C13.8922 25.4287 13.9579 25.4131 14.023 25.3961C14.1165 25.3654 14.2072 25.33 14.2969 25.2903C14.3979 25.2412 14.4957 25.1879 14.592 25.1293C14.7511 25.0254 14.9032 24.9131 15.0509 24.7931C15.296 24.583 15.517 24.3526 15.7408 24.1203C15.9112 23.9286 16.0732 23.7317 16.2219 23.5225C16.3867 23.278 16.5331 23.0244 16.6724 22.7647C16.8664 22.3766 17.0577 21.9885 17.2375 21.5928C17.434 21.1598 17.6313 20.7268 17.8282 20.2939C18.2093 19.4572 18.5643 18.6092 18.8915 17.7498C18.9317 17.6365 18.9718 17.5232 19.0115 17.4099C19.0615 17.2668 19.096 17.1101 19.1692 16.9764C19.2915 16.754 19.5965 16.6893 19.808 16.8164C20.0219 16.9443 20.0847 17.2087 19.9832 17.4259C19.9865 17.4193 19.9898 17.4127 19.9931 17.4061C19.9974 17.3943 20.0016 17.3815 20.0063 17.3697C20.0026 17.3815 19.9983 17.3929 19.9941 17.4047C19.995 17.4037 19.9955 17.4023 19.9964 17.4009C19.994 17.4066 19.9922 17.4122 19.9898 17.4179C19.8368 17.8608 19.6848 18.3032 19.5077 18.7376C19.3132 19.214 19.1168 19.6904 18.9071 20.1607C18.6951 20.6367 18.4784 21.1107 18.2631 21.5852C18.1521 21.8294 18.0407 22.073 17.9278 22.3162C17.8159 22.5579 17.6974 22.7954 17.578 23.0334C17.3334 23.5192 17.0591 23.9853 16.7186 24.4107C16.5883 24.5731 16.4481 24.7275 16.3036 24.8772C16.1941 24.991 16.0864 25.1071 15.9721 25.2167C15.5127 25.6581 14.9844 26.0491 14.3781 26.2597C14.1066 26.3541 13.821 26.3985 13.5343 26.3985C13.1882 26.3994 12.8431 26.3348 12.522 26.2134Z" fill="#053B4A"/>
<path d="M38.5356 22.1527C38.3344 22.0673 38.1871 21.885 38.1163 21.6825C38.045 21.4771 38.0563 21.257 38.0912 21.046C38.1219 20.8604 38.1828 20.6616 38.273 20.4964C38.3632 20.3311 38.4921 20.1895 38.6909 20.1701C38.9374 20.1465 39.1649 20.3212 39.2004 20.5658C39.258 20.5053 39.3335 20.46 39.4237 20.4388C39.6626 20.3821 39.9369 20.5346 39.9846 20.7839C40.0507 21.13 39.9554 21.512 39.7457 21.7948C39.6121 21.9752 39.4341 22.1159 39.2178 22.1815C39.114 22.2127 39.0106 22.2297 38.9076 22.2297C38.7825 22.2297 38.6578 22.2051 38.5356 22.1527ZM39.0691 20.9926C39.0497 21.0497 39.0323 21.1064 39.0172 21.1645C39.0134 21.1857 39.0096 21.2075 39.0063 21.2287C39.0129 21.2183 39.0195 21.207 39.0257 21.1961C39.0327 21.1805 39.0394 21.165 39.046 21.1489C39.0549 21.1196 39.0625 21.0908 39.07 21.0616C39.0729 21.0441 39.0752 21.0271 39.0771 21.0096C39.0771 21.0039 39.0776 20.9978 39.0776 20.9917C39.0771 20.987 39.0762 20.9827 39.0752 20.978C39.0733 20.9822 39.071 20.9874 39.0691 20.9926Z" fill="#053B4A"/>
<path d="M22.7987 46.5309C22.6443 46.5281 22.4894 46.5285 22.335 46.5205C22.1325 46.5106 21.9299 46.5002 21.7269 46.4903C21.5517 46.4813 21.3765 46.4658 21.2014 46.4539C20.8746 46.4308 20.5483 46.3996 20.2221 46.3708C20.0356 46.3548 19.85 46.3293 19.6645 46.3085C19.528 46.2934 19.3934 46.275 19.2579 46.2547C19.096 46.2301 18.9321 46.2113 18.7716 46.181C18.5686 46.1423 18.366 46.1036 18.163 46.0649C18.0048 46.0347 17.8476 45.9959 17.6899 45.961C17.5548 45.9308 17.4198 45.901 17.2857 45.8675C17.0949 45.8203 16.9032 45.7726 16.7125 45.7254C16.5349 45.6815 16.3593 45.6253 16.1836 45.5752C16.0467 45.5365 15.9136 45.4931 15.779 45.4473C15.627 45.3958 15.4721 45.35 15.3234 45.2896C15.1468 45.2173 14.9706 45.1451 14.7941 45.0733C14.7298 45.0474 14.667 45.0129 14.6042 44.9827C14.4961 44.9312 14.388 44.8802 14.2799 44.8288C14.1363 44.7603 13.9989 44.6795 13.8601 44.6035C13.7794 44.5591 13.6986 44.5148 13.6179 44.4704C13.5726 44.4458 13.5301 44.4156 13.4871 44.3877C13.3294 44.2867 13.1717 44.1857 13.014 44.0841C12.9578 44.0483 12.9059 44.0039 12.8525 43.9642C12.7519 43.8887 12.6518 43.8131 12.5513 43.7376C12.5111 43.7074 12.4686 43.679 12.4304 43.6464C12.3596 43.5855 12.2883 43.5242 12.217 43.4632C12.098 43.3608 11.9766 43.2612 11.8619 43.1535C11.7179 43.0185 11.5734 42.883 11.4294 42.7479C11.3864 42.7078 11.3463 42.6648 11.3047 42.6228C11.2165 42.534 11.1282 42.4453 11.0399 42.356C10.9388 42.2545 10.8434 42.1483 10.7471 42.0425C10.6744 41.9627 10.6022 41.8829 10.5295 41.8031C10.4445 41.7096 10.3651 41.6119 10.2853 41.5132C9.99119 41.1492 9.73575 40.7549 9.52138 40.3394C9.44442 40.1897 9.3684 40.0363 9.30513 39.88C9.26877 39.7898 9.23241 39.6991 9.19605 39.609C9.13987 39.4697 9.07943 39.3308 9.03032 39.1892C8.96044 38.9881 8.89056 38.7869 8.82068 38.5858C8.76922 38.438 8.72672 38.2869 8.68045 38.1377C8.63843 38.0017 8.59452 37.8662 8.55721 37.7293C8.5015 37.521 8.44578 37.3128 8.39007 37.1046C8.35088 36.9587 8.32586 36.8081 8.29517 36.6598C8.26542 36.5158 8.22953 36.3723 8.21017 36.2264C8.18184 36.0134 8.15304 35.8005 8.12424 35.587C8.10488 35.4435 8.09733 35.2976 8.08458 35.1531C8.07136 34.9973 8.05153 34.8405 8.04444 34.6843C8.03547 34.4789 8.02556 34.273 8.01611 34.0671C8.01045 33.9406 8.00242 33.8141 8.00242 33.6875C8.00195 33.3405 7.9977 32.9939 8.00903 32.6469C8.01564 32.4349 8.02225 32.2224 8.02886 32.0099C8.03358 31.8602 8.04728 31.711 8.0572 31.5623C8.06758 31.4065 8.07419 31.2502 8.08836 31.0944C8.10677 30.8937 8.12518 30.6926 8.14313 30.4919C8.15493 30.3677 8.16438 30.2426 8.17901 30.1184C8.20545 29.8974 8.23236 29.6769 8.2588 29.4555C8.29941 29.1217 8.35372 28.7893 8.40518 28.4569C8.44626 28.1896 8.49772 27.9238 8.54399 27.6575C8.59074 27.3902 8.6474 27.1244 8.70029 26.8586C8.7985 26.36 8.91086 25.8642 9.02088 25.3684C9.02135 25.3675 9.02135 25.3665 9.02135 25.3656C9.01994 25.3722 9.01852 25.3788 9.0171 25.3854C9.01994 25.3722 9.02277 25.359 9.02561 25.3453C9.02513 25.3467 9.02513 25.3481 9.02466 25.3495C9.08321 25.0776 9.14223 24.8056 9.20078 24.5332C9.22722 24.4095 9.25319 24.2853 9.28388 24.163C9.30182 24.0907 9.31976 24.018 9.33771 23.9458C9.34573 23.9123 9.35706 23.8792 9.36698 23.8462C9.37831 23.807 9.38917 23.7659 9.40617 23.7286C9.45858 23.6129 9.59457 23.5562 9.71261 23.6072C9.82734 23.6568 9.88589 23.798 9.83395 23.9137C9.82734 23.9274 9.82215 23.9415 9.81837 23.9566C9.82168 23.9472 9.82498 23.9378 9.82876 23.9283C9.76313 24.1521 9.71213 24.3788 9.66114 24.6063C9.66161 24.6045 9.66209 24.6026 9.66256 24.6007C9.59976 24.8939 9.53649 25.1876 9.47274 25.4808C9.47369 25.4765 9.47464 25.4723 9.47558 25.4685C9.42884 25.6876 9.3802 25.9067 9.33157 26.1253C9.33298 26.1196 9.33393 26.114 9.33534 26.1083C9.2716 26.4029 9.20739 26.6976 9.14884 26.9936C9.10682 27.2037 9.06574 27.4143 9.02419 27.6244C8.99491 27.7727 8.97225 27.9219 8.94581 28.0697C8.91984 28.2179 8.89151 28.3662 8.86885 28.5149C8.83627 28.7265 8.80463 28.9375 8.77205 29.1491C8.72011 29.4885 8.68423 29.8304 8.64268 30.1718C8.60301 30.498 8.58177 30.8267 8.55108 31.1539C8.53549 31.3947 8.51991 31.636 8.50433 31.8772C8.49253 32.068 8.48828 32.2587 8.48261 32.45C8.47647 32.6403 8.46797 32.8305 8.46845 33.0208C8.46892 33.2734 8.46987 33.5256 8.46987 33.7782C8.48073 33.9963 8.49017 34.2145 8.49961 34.4331C8.50764 34.6073 8.52086 34.7801 8.53644 34.9539C8.54825 35.0955 8.56099 35.2372 8.57327 35.3783C8.57799 35.4322 8.58177 35.4855 8.58885 35.5389C8.61954 35.765 8.64929 35.9912 8.67998 36.2174C8.73287 36.4653 8.78196 36.7136 8.83485 36.962C8.8424 36.9979 8.85373 37.0323 8.86318 37.0673C8.88726 37.1565 8.91087 37.2453 8.93495 37.3345C8.96847 37.4587 9.00153 37.5829 9.03505 37.7071C9.03222 37.6972 9.02938 37.6877 9.02607 37.6783C9.0884 37.877 9.14931 38.0754 9.21069 38.2746C9.25838 38.4276 9.31221 38.5787 9.36509 38.7303C9.41797 38.8818 9.4685 39.0339 9.52846 39.1831C9.61581 39.4007 9.69844 39.6208 9.79571 39.8342C9.79193 39.8252 9.78721 39.8158 9.78343 39.8063C9.91044 40.0816 10.0507 40.3479 10.2103 40.6057C10.3803 40.8725 10.5677 41.1251 10.7693 41.3682C10.7622 41.3602 10.7561 41.3522 10.749 41.3442C10.8817 41.5033 11.0243 41.6534 11.1636 41.8064C11.2656 41.9183 11.3699 42.0255 11.4766 42.1327C11.5876 42.2446 11.6962 42.3589 11.8114 42.467C11.9497 42.5964 12.0881 42.7267 12.2264 42.856C12.3936 43.0001 12.5612 43.1436 12.7283 43.2871C12.7529 43.3079 12.7803 43.3258 12.8058 43.3452C12.8719 43.3948 12.9384 43.4448 13.0046 43.4949C13.0933 43.5615 13.1821 43.6285 13.2709 43.6951C13.4616 43.8178 13.6528 43.9401 13.8436 44.0624C13.8663 44.0771 13.8908 44.0884 13.9139 44.1011C13.9857 44.1403 14.057 44.18 14.1288 44.2192C14.2275 44.273 14.3261 44.3273 14.4248 44.3816C14.6094 44.4694 14.795 44.5577 14.9801 44.6456C15.0637 44.6852 15.1529 44.7159 15.2388 44.7513C15.3427 44.7933 15.4461 44.8358 15.55 44.8783C15.651 44.9123 15.7521 44.9468 15.8531 44.9813C15.9528 45.0153 16.0529 45.0544 16.1544 45.0833C16.2734 45.1172 16.3928 45.1508 16.5118 45.1843C16.6218 45.215 16.7318 45.2499 16.8433 45.2778C17.0789 45.3363 17.315 45.3949 17.5506 45.4534C17.7781 45.5096 18.009 45.5554 18.238 45.6064C18.2281 45.604 18.2187 45.6022 18.2088 45.5998C18.324 45.622 18.4392 45.6437 18.5549 45.6659C18.662 45.6862 18.7697 45.7108 18.8778 45.7273C19.0091 45.7471 19.1408 45.7665 19.2726 45.7868C19.3708 45.8014 19.469 45.8194 19.5681 45.8302C19.8108 45.8576 20.0535 45.8907 20.2967 45.9119C20.5394 45.9331 20.7821 45.9549 21.0248 45.9761C21.2604 45.9926 21.496 46.0092 21.7311 46.0252C21.8388 46.0323 21.9469 46.0356 22.0546 46.0413C22.1726 46.0469 22.2906 46.0564 22.4087 46.0587C22.5329 46.0611 22.657 46.0635 22.7817 46.0658C22.8879 46.0677 22.9956 46.0748 23.1018 46.0715C23.3384 46.0639 23.5754 46.0559 23.812 46.0484C24.0693 46.0257 24.3266 46.0035 24.584 45.9808C24.7048 45.9704 24.8252 45.9483 24.9452 45.9313C25.0708 45.9143 25.1959 45.8968 25.3215 45.8798C25.5094 45.8458 25.6973 45.8113 25.8848 45.7769C26.0344 45.7495 26.1822 45.7136 26.331 45.6796C26.4792 45.6456 26.628 45.613 26.7743 45.5719C26.958 45.5209 27.1417 45.4695 27.3254 45.4185C27.551 45.3434 27.7763 45.2683 28.0024 45.1933C28.0383 45.1815 28.0728 45.1649 28.1077 45.1512C28.1856 45.1201 28.2631 45.0889 28.3405 45.0582C28.45 45.0148 28.5591 44.9709 28.6682 44.9274C28.8731 44.8288 29.0785 44.731 29.2839 44.6328C29.307 44.6215 29.3297 44.6068 29.3524 44.5941C29.4218 44.5544 29.4912 44.5152 29.5606 44.4756C29.6578 44.4203 29.7546 44.3656 29.8514 44.3108C30.0148 44.2022 30.1777 44.0941 30.3406 43.9855C30.3765 43.9614 30.41 43.9359 30.4445 43.909C30.5465 43.8306 30.648 43.7522 30.7495 43.6738C30.8694 43.5808 30.9894 43.4887 31.1069 43.3934C31.2741 43.2569 31.4412 43.1205 31.6079 42.9835C31.7344 42.8759 31.8614 42.7687 31.9885 42.661C32.1004 42.5661 32.2047 42.4627 32.3114 42.3622C32.4059 42.2724 32.4998 42.1846 32.5891 42.0897C32.7095 41.9608 32.8299 41.8329 32.9503 41.704C33.0669 41.5642 33.1835 41.4249 33.3001 41.2856C33.3898 41.1784 33.4734 41.0665 33.5575 40.9551C33.6453 40.8389 33.735 40.7242 33.8181 40.6048C33.9173 40.4636 34.0159 40.3224 34.1142 40.1807C34.4263 39.7081 34.7431 39.2374 35.0353 38.752C35.1893 38.4961 35.3432 38.2411 35.49 37.9819C35.6308 37.7335 35.7644 37.4818 35.8989 37.2302C36.093 36.8449 36.2828 36.4572 36.4542 36.0616C36.5482 35.8439 36.6369 35.6258 36.7248 35.4057C36.7975 35.223 36.8641 35.0374 36.9316 34.8523C37 34.6408 37.0699 34.4302 37.1299 34.2159C37.2021 33.9576 37.2692 33.6988 37.3353 33.4392C37.4467 32.9967 37.5426 32.5501 37.6436 32.1053C37.6766 31.9523 37.7102 31.7993 37.7442 31.6468C37.7418 31.6567 37.7399 31.6662 37.7376 31.6761C37.8768 31.0316 37.9996 30.3833 38.1049 29.7322C38.2126 29.0669 38.2933 28.3988 38.3759 27.7307C38.434 27.2604 38.4916 26.7896 38.5511 26.3194C38.6087 25.8633 38.663 25.4071 38.7074 24.9491C38.7069 24.9562 38.7064 24.9628 38.7055 24.9699C38.706 24.9628 38.7064 24.9562 38.7074 24.9491C38.7079 24.9463 38.7079 24.943 38.7083 24.9402C38.7079 24.9425 38.7079 24.9454 38.7074 24.9477C38.7966 23.8419 38.8684 22.7333 38.9005 21.6237C38.9043 21.4971 39.011 21.3933 39.1385 21.3966C39.265 21.3994 39.3698 21.508 39.3661 21.635C39.3467 22.2965 39.3127 22.9575 39.2693 23.6176C39.2471 23.9585 39.2235 24.2994 39.1984 24.6403C39.1739 24.9803 39.1385 25.3198 39.1012 25.6583C39.0639 25.994 39.0185 26.3288 38.9765 26.664C38.9373 26.9761 38.8996 27.2887 38.8608 27.6013C38.7796 28.2576 38.7088 28.9168 38.603 29.5698C38.5336 29.9999 38.4642 30.4315 38.3788 30.8592C38.289 31.3102 38.196 31.7601 38.0969 32.2092C38.0983 32.2035 38.0992 32.1974 38.1007 32.1917C38.0341 32.5005 37.9637 32.8093 37.8905 33.1167C37.8126 33.4453 37.7371 33.7753 37.646 34.1007C37.5558 34.4236 37.4661 34.7475 37.3504 35.0625C37.2932 35.2178 37.2389 35.3741 37.178 35.5275C37.1143 35.6871 37.0548 35.8481 36.9863 36.0054C36.8489 36.3241 36.7125 36.6442 36.5576 36.9549C36.4769 37.1173 36.3957 37.2793 36.314 37.4408C36.229 37.6089 36.1374 37.7732 36.0491 37.9394C35.8966 38.2255 35.7299 38.5036 35.5623 38.7808C35.3984 39.0532 35.2304 39.3238 35.058 39.591C34.9688 39.7298 34.8795 39.8701 34.7879 40.0079C34.6878 40.159 34.5906 40.312 34.4862 40.4607C34.3748 40.6199 34.2634 40.779 34.1524 40.9386C34.0566 41.0755 33.9513 41.2063 33.8507 41.3399C33.7619 41.4575 33.6698 41.5699 33.5754 41.6832C33.4711 41.8078 33.3705 41.9363 33.2591 42.0548C33.1184 42.2054 32.9777 42.3555 32.8365 42.5062C32.8044 42.5406 32.768 42.5718 32.734 42.6049C32.6448 42.6889 32.5555 42.7734 32.4668 42.8575C32.3539 42.9642 32.2354 43.0629 32.1174 43.1625C32.005 43.2579 31.8926 43.3532 31.7784 43.4462C31.6145 43.5799 31.4511 43.714 31.2868 43.8476C31.1617 43.9496 31.0309 44.0459 30.9025 44.1446C30.791 44.2305 30.682 44.3183 30.5649 44.3962C30.47 44.459 30.3751 44.5223 30.2802 44.5856C30.215 44.629 30.1513 44.6767 30.0833 44.7154C29.919 44.8084 29.7551 44.9019 29.5913 44.995C29.4652 45.0662 29.3335 45.1257 29.2027 45.1885C29.0672 45.2528 28.9335 45.3236 28.7943 45.3793C28.5969 45.4582 28.4 45.537 28.2026 45.6159C28.06 45.673 27.9104 45.7155 27.7645 45.7641C27.629 45.809 27.4949 45.8552 27.3575 45.8935C27.1639 45.9478 26.9703 46.0016 26.7762 46.0554C26.7285 46.0687 26.6794 46.0786 26.6313 46.0894C26.5104 46.1173 26.39 46.1452 26.2691 46.173C26.1336 46.2042 25.9986 46.2301 25.8616 46.2552C25.6978 46.2849 25.5344 46.3217 25.3692 46.3444C25.1609 46.3727 24.9532 46.4015 24.745 46.4299C24.6094 46.4483 24.473 46.4591 24.3365 46.4709C24.2213 46.4813 24.1056 46.4912 23.99 46.5012C23.9338 46.5064 23.8776 46.5125 23.8214 46.5144C23.6198 46.521 23.4186 46.5276 23.217 46.5342C23.1627 46.5361 23.1089 46.5366 23.0551 46.5366C22.9687 46.5342 22.8842 46.5323 22.7987 46.5309Z" fill="#053B4A"/>
</svg>
