<svg width="375" height="319" viewBox="0 0 375 319" fill="none" xmlns="http://www.w3.org/2000/svg">
<g filter="url(#filter0_d_7015_117564)">
<path d="M125.092 133.321C125.092 140.894 121.749 148.157 115.8 153.512C109.85 158.867 101.78 161.875 93.3663 161.875H14.0524C7.86362 161.881 1.86861 159.933 -2.88828 156.37C-7.64519 152.807 -10.8625 147.854 -11.9798 142.376C-13.097 136.897 -12.0434 131.24 -9.00253 126.388C-5.96162 121.537 -1.12612 117.799 4.66163 115.827C3.35339 112.478 3.1116 108.867 3.96359 105.401C4.81559 101.935 6.72741 98.7522 9.48312 96.2126C12.2388 93.673 15.7286 91.8775 19.5584 91.0289C23.3881 90.1802 27.4052 90.3123 31.156 91.4102C33.5819 83.0345 39.5347 75.8375 47.7537 71.3432C55.9727 66.8489 65.8125 65.4103 75.1895 67.332C84.5665 69.2536 92.7444 74.3846 97.9912 81.6385C103.238 88.8924 105.142 97.6995 103.3 106.195C109.642 108.077 115.163 111.712 119.075 116.582C122.988 121.453 125.094 127.311 125.092 133.321Z" fill="#FCFCFC"/>
</g>
<g filter="url(#filter1_d_7015_117564)">
<path d="M217.92 150.02C217.92 155.681 215.663 161.111 211.647 165.114C207.63 169.117 202.183 171.366 196.503 171.366H142.959C138.781 171.371 134.734 169.914 131.523 167.251C128.311 164.587 126.139 160.885 125.385 156.789C124.631 152.694 125.342 148.464 127.395 144.837C129.448 141.211 132.712 138.417 136.619 136.942C135.736 134.439 135.573 131.739 136.148 129.148C136.723 126.557 138.014 124.177 139.874 122.279C141.735 120.38 144.091 119.038 146.676 118.404C149.261 117.769 151.973 117.868 154.505 118.689C156.143 112.427 160.162 107.047 165.71 103.687C171.259 100.327 177.901 99.2519 184.232 100.688C190.562 102.125 196.083 105.961 199.625 111.384C203.167 116.806 204.452 123.39 203.209 129.741C207.49 131.148 211.217 133.866 213.858 137.507C216.5 141.148 217.921 145.527 217.92 150.02Z" fill="#FCFCFC"/>
</g>
<g filter="url(#filter2_d_7015_117564)">
<path d="M303.572 140.894C303.572 148.853 300.399 156.486 294.749 162.114C289.1 167.742 281.438 170.903 273.449 170.903H198.141C192.265 170.91 186.572 168.862 182.056 165.117C177.539 161.373 174.484 156.168 173.424 150.41C172.363 144.652 173.363 138.706 176.25 133.608C179.138 128.509 183.729 124.581 189.224 122.508C187.982 118.989 187.753 115.193 188.562 111.551C189.371 107.908 191.186 104.563 193.802 101.894C196.419 99.225 199.733 97.3379 203.369 96.4461C207.005 95.5542 210.819 95.693 214.381 96.8469C216.684 88.0443 222.336 80.4804 230.14 75.7571C237.944 71.0337 247.287 69.5217 256.19 71.5413C265.094 73.5609 272.859 78.9535 277.84 86.5771C282.822 94.2007 284.63 103.457 282.881 112.385C288.903 114.363 294.145 118.183 297.86 123.302C301.575 128.421 303.574 134.577 303.572 140.894Z" fill="#FCFCFC"/>
</g>
<g filter="url(#filter3_d_7015_117564)">
<path d="M415.15 157.961C415.15 169.743 410.452 181.043 402.088 189.374C393.724 197.706 382.381 202.386 370.553 202.386H259.06C250.36 202.395 241.933 199.364 235.246 193.821C228.559 188.277 224.036 180.572 222.466 172.049C220.895 163.525 222.376 154.723 226.651 147.175C230.925 139.627 237.723 133.812 245.859 130.743C244.02 125.533 243.68 119.915 244.878 114.522C246.075 109.13 248.763 104.178 252.636 100.227C256.51 96.2757 261.416 93.4821 266.8 92.1618C272.183 90.8415 277.83 91.0471 283.103 92.7552C286.513 79.7241 294.881 68.5268 306.434 61.5345C317.988 54.5421 331.82 52.3039 345.002 55.2936C358.183 58.2834 369.679 66.2664 377.054 77.5521C384.43 88.8379 387.107 102.54 384.517 115.757C393.432 118.685 401.193 124.341 406.693 131.919C412.193 139.497 415.153 148.61 415.15 157.961Z" fill="#FCFCFC"/>
</g>
<g filter="url(#filter4_d_7015_117564)">
<path d="M161.668 183.878C161.668 191.304 158.804 198.425 153.705 203.676C148.607 208.927 141.692 211.877 134.482 211.877H66.518C61.2149 211.883 56.0777 209.973 52.0015 206.479C47.9253 202.985 45.1684 198.129 44.211 192.757C43.2536 187.384 44.1565 181.836 46.7622 177.079C49.368 172.322 53.5115 168.657 58.4711 166.723C57.35 163.439 57.1429 159.898 57.8729 156.499C58.603 153.101 60.2412 149.98 62.6026 147.49C64.964 144.999 67.9544 143.239 71.2362 142.407C74.5179 141.574 77.9601 141.704 81.1741 142.781C83.2529 134.567 88.3539 127.51 95.3967 123.103C102.44 118.696 110.871 117.285 118.907 119.17C126.942 121.054 133.949 126.086 138.445 133.199C142.942 140.312 144.573 148.948 142.994 157.278C148.429 159.123 153.16 162.688 156.513 167.464C159.865 172.24 161.67 177.984 161.668 183.878Z" fill="#FCFCFC"/>
</g>
<g filter="url(#filter5_d_7015_117564)">
<path d="M238.059 174.073C238.059 181.646 241.401 188.909 247.351 194.264C253.3 199.619 261.37 202.627 269.784 202.627H349.098C355.287 202.633 361.282 200.685 366.039 197.122C370.796 193.558 374.013 188.606 375.13 183.128C376.247 177.649 375.194 171.991 372.153 167.14C369.112 162.289 364.277 158.551 358.489 156.579C359.797 153.23 360.039 149.619 359.187 146.153C358.335 142.687 356.423 139.504 353.667 136.965C350.912 134.425 347.422 132.629 343.592 131.781C339.762 130.932 335.745 131.064 331.994 132.162C329.568 123.786 323.616 116.589 315.397 112.095C307.178 107.601 297.338 106.162 287.961 108.084C278.584 110.006 270.406 115.137 265.159 122.39C259.912 129.644 258.008 138.451 259.851 146.947C253.508 148.829 247.988 152.464 244.075 157.334C240.162 162.205 238.057 168.063 238.059 174.073Z" fill="#FCFCFC"/>
</g>
<g filter="url(#filter6_d_7015_117564)">
<path d="M145.23 190.772C145.23 196.433 147.487 201.863 151.503 205.866C155.52 209.869 160.968 212.118 166.648 212.118H220.191C224.369 212.123 228.416 210.666 231.628 208.003C234.839 205.339 237.011 201.637 237.765 197.541C238.52 193.446 237.808 189.216 235.755 185.589C233.703 181.963 230.438 179.169 226.531 177.694C227.414 175.191 227.577 172.491 227.002 169.9C226.427 167.309 225.136 164.929 223.276 163.031C221.416 161.132 219.06 159.79 216.474 159.156C213.889 158.521 211.177 158.62 208.645 159.441C207.007 153.179 202.989 147.799 197.44 144.439C191.892 141.079 185.249 140.004 178.919 141.44C172.588 142.877 167.068 146.713 163.526 152.136C159.984 157.558 158.698 164.142 159.942 170.493C155.66 171.9 151.933 174.618 149.292 178.259C146.651 181.9 145.229 186.279 145.23 190.772Z" fill="#FCFCFC"/>
</g>
<g filter="url(#filter7_d_7015_117564)">
<path d="M59.5781 181.646C59.5781 189.605 62.7518 197.238 68.401 202.866C74.0502 208.494 81.7122 211.655 89.7014 211.655H165.009C170.886 211.662 176.578 209.614 181.095 205.869C185.611 202.125 188.666 196.92 189.727 191.162C190.788 185.404 189.787 179.458 186.9 174.36C184.013 169.261 179.421 165.333 173.926 163.26C175.168 159.741 175.398 155.945 174.589 152.303C173.78 148.66 171.965 145.315 169.348 142.646C166.731 139.977 163.418 138.09 159.782 137.198C156.145 136.306 152.331 136.445 148.77 137.599C146.466 128.796 140.814 121.232 133.01 116.509C125.206 111.786 115.864 110.274 106.96 112.293C98.0567 114.313 90.2919 119.705 85.31 127.329C80.3281 134.953 78.5203 144.209 80.2695 153.137C74.2476 155.115 69.0058 158.935 65.2906 164.054C61.5754 169.173 59.5763 175.329 59.5781 181.646Z" fill="#FCFCFC"/>
</g>
<g filter="url(#filter8_d_7015_117564)">
<path d="M-52 198.713C-52 210.495 -47.3014 221.795 -38.9377 230.126C-30.5741 238.458 -19.2306 243.138 -7.40264 243.138H104.091C112.79 243.147 121.218 240.116 127.905 234.573C134.592 229.029 139.114 221.324 140.685 212.801C142.255 204.277 140.774 195.475 136.5 187.927C132.225 180.379 125.428 174.564 117.292 171.495C119.131 166.285 119.47 160.667 118.273 155.274C117.075 149.882 114.388 144.93 110.514 140.979C106.64 137.028 101.734 134.234 96.3508 132.914C90.9673 131.593 85.3203 131.799 80.0478 133.507C76.6376 120.476 68.2697 109.279 56.7161 102.286C45.1624 95.2941 31.3303 93.0558 18.1488 96.0456C4.96734 99.0353 -6.52843 107.018 -13.9041 118.304C-21.2798 129.59 -23.9562 143.292 -21.3666 156.509C-30.2819 159.437 -38.0424 165.093 -43.5427 172.671C-49.0431 180.249 -52.0027 189.362 -52 198.713Z" fill="#FCFCFC"/>
</g>
<g filter="url(#filter9_d_7015_117564)">
<path d="M201.482 224.63C201.482 232.055 204.347 239.177 209.445 244.428C214.543 249.679 221.458 252.629 228.668 252.629H296.632C301.936 252.635 307.073 250.725 311.149 247.231C315.225 243.737 317.982 238.881 318.939 233.508C319.897 228.136 318.994 222.588 316.388 217.831C313.782 213.074 309.639 209.409 304.679 207.475C305.8 204.191 306.008 200.65 305.277 197.251C304.547 193.853 302.909 190.732 300.548 188.242C298.186 185.751 295.196 183.991 291.914 183.159C288.633 182.326 285.19 182.456 281.976 183.532C279.897 175.319 274.797 168.262 267.754 163.855C260.711 159.448 252.279 158.037 244.244 159.922C236.209 161.806 229.201 166.838 224.705 173.951C220.209 181.064 218.577 189.7 220.156 198.03C214.721 199.875 209.991 203.44 206.638 208.216C203.285 212.992 201.481 218.736 201.482 224.63Z" fill="#FCFCFC"/>
</g>
<path d="M176.517 211.677C176.326 211.597 176.197 211.468 176.114 211.314C175.858 210.842 175.696 210.348 175.567 209.855C175.43 209.331 175.305 208.807 175.216 208.281C175.162 207.956 175.48 207.682 175.88 207.677C176.292 207.672 176.653 207.939 176.707 208.264C176.734 208.423 176.764 208.582 176.794 208.741C176.92 209.305 177.057 209.869 177.252 210.426C177.329 210.619 177.413 210.808 177.514 210.996C177.682 211.304 177.449 211.646 177.084 211.729C177.029 211.741 176.973 211.748 176.916 211.75C176.781 211.754 176.643 211.729 176.517 211.677Z" fill="black"/>
<path d="M178.647 210.454C178.432 209.918 178.226 209.38 178.021 208.844C177.905 208.542 177.789 208.24 177.678 207.939C177.628 207.805 177.585 207.672 177.54 207.537C177.495 207.401 177.451 207.251 177.452 207.113C177.453 206.788 177.788 206.549 178.181 206.585C178.548 206.619 178.853 206.88 178.896 207.176C178.896 207.174 178.895 207.173 178.896 207.171C178.897 207.183 178.899 207.195 178.901 207.207C178.975 207.474 179.072 207.737 179.169 208.002C179.168 208 179.168 207.998 179.167 207.996C179.44 208.709 179.71 209.422 179.994 210.133C180.055 210.287 180.064 210.44 179.989 210.581C179.915 210.721 179.768 210.828 179.587 210.871C179.538 210.883 179.486 210.889 179.434 210.891C179.112 210.9 178.756 210.728 178.647 210.454Z" fill="black"/>
<path d="M180.147 217.892C179.92 217.897 179.686 217.864 179.451 217.835C179.074 217.787 178.682 217.69 178.295 217.562C177.911 217.436 177.53 217.282 177.146 217.072C176.725 216.841 176.313 216.527 175.915 216.177C174.997 215.37 174.209 214.234 173.584 213.05C173.442 212.781 173.303 212.511 173.167 212.24C173.05 212.008 172.932 211.754 172.855 211.508C172.729 211.111 172.858 210.755 173.134 210.727C173.41 210.698 173.742 211.005 173.868 211.399C173.885 211.441 173.902 211.482 173.919 211.524C174.134 211.988 174.373 212.44 174.617 212.888C174.757 213.133 174.904 213.37 175.058 213.603C175.214 213.828 175.373 214.046 175.54 214.257C175.683 214.431 175.828 214.596 175.98 214.756C176.139 214.915 176.3 215.064 176.465 215.206C176.633 215.342 176.802 215.468 176.974 215.584C177.13 215.682 177.286 215.772 177.444 215.854C177.695 215.972 177.946 216.067 178.196 216.151C178.49 216.242 178.777 216.304 179.067 216.366C179.292 216.394 179.516 216.423 179.736 216.43C179.842 216.426 179.945 216.416 180.048 216.401C180.182 216.372 180.312 216.333 180.439 216.283C180.55 216.23 180.658 216.172 180.762 216.105C180.866 216.028 180.966 215.944 181.061 215.852C181.181 215.724 181.292 215.584 181.396 215.435C181.485 215.294 181.568 215.146 181.645 214.991C181.701 214.859 181.752 214.722 181.796 214.578C181.826 214.458 181.852 214.336 181.873 214.209C181.894 214.028 181.905 213.842 181.911 213.653C181.913 213.223 181.889 212.784 181.855 212.339C181.796 211.727 181.731 211.115 181.627 210.492C181.602 210.366 181.577 210.24 181.548 210.113C181.456 209.714 181.631 209.401 181.919 209.425C182.212 209.447 182.522 209.8 182.614 210.198C182.793 210.982 182.87 211.755 182.944 212.516C182.983 212.905 183.003 213.286 183.02 213.668C183.038 214.088 183.025 214.503 182.977 214.889C182.917 215.371 182.77 215.786 182.587 216.164C182.426 216.501 182.215 216.791 181.987 217.044C181.737 217.322 181.442 217.531 181.117 217.679C180.909 217.774 180.686 217.837 180.452 217.868C180.353 217.882 180.251 217.89 180.147 217.892Z" fill="black"/>
<path d="M183.987 236.393C183.362 236.412 182.736 236.434 182.101 236.396C181.854 236.382 181.609 236.367 181.358 236.328C181.166 236.298 180.979 236.252 180.788 236.188C180.604 236.125 180.427 236.003 180.272 235.864C180.027 235.648 179.834 235.347 179.714 235.045C179.643 234.865 179.586 234.679 179.532 234.496C179.132 233.145 178.787 231.784 178.45 230.427C178.115 229.078 177.798 227.727 177.49 226.377C177.167 224.964 176.848 223.552 176.551 222.138C176.406 221.446 176.269 220.75 176.151 220.058C176.083 219.656 176.015 219.255 175.951 218.853C175.922 218.67 175.875 218.465 175.883 218.287C175.892 218.093 175.971 217.919 176.126 217.838C176.386 217.701 176.753 217.837 176.944 218.156C177.023 218.287 177.059 218.433 177.055 218.568C177.089 218.86 177.143 219.154 177.19 219.445C177.425 220.809 177.697 222.17 177.995 223.533C178.295 224.901 178.609 226.27 178.928 227.638C179.411 229.711 179.921 231.785 180.495 233.852C180.583 234.159 180.666 234.471 180.78 234.773C180.786 234.786 180.792 234.799 180.798 234.811C180.817 234.844 180.835 234.876 180.855 234.908C180.862 234.917 180.869 234.927 180.876 234.936C180.884 234.943 180.891 234.952 180.898 234.96C180.907 234.967 180.916 234.975 180.925 234.983C180.926 234.984 180.928 234.985 180.929 234.986C180.938 234.99 180.946 234.994 180.954 234.998C180.975 235.005 180.996 235.012 181.016 235.019C181.096 235.04 181.174 235.057 181.253 235.072C181.538 235.113 181.818 235.128 182.099 235.143C182.684 235.149 183.264 235.141 183.845 235.123C184.391 235.106 184.93 235.058 185.467 235.003C185.975 234.935 186.479 234.858 186.978 234.764C187.477 234.669 187.964 234.544 188.45 234.418C188.437 234.421 188.423 234.425 188.41 234.429C188.905 234.293 189.396 234.149 189.888 234.006C190.378 233.863 190.873 233.736 191.369 233.608C191.394 233.601 191.417 233.593 191.441 233.586C191.446 233.566 191.451 233.547 191.456 233.528C191.466 233.462 191.473 233.396 191.479 233.33C191.485 233.206 191.486 233.082 191.482 232.955C191.467 232.778 191.444 232.6 191.418 232.422C191.364 232.122 191.308 231.823 191.244 231.522C191.165 231.15 191.077 230.779 190.988 230.407C190.835 229.762 190.648 229.118 190.468 228.474C190.065 227.108 189.649 225.745 189.198 224.386C188.751 223.042 188.29 221.699 187.833 220.357C187.501 219.378 187.17 218.4 186.837 217.422C186.537 216.538 186.23 215.655 185.936 214.77C185.823 214.429 185.967 214.097 186.266 214.04C186.56 213.984 186.912 214.219 187.026 214.561C187.431 215.783 187.856 216.999 188.268 218.219C188.7 219.502 189.143 220.783 189.578 222.065C190.044 223.44 190.51 224.814 190.936 226.195C191.149 226.887 191.356 227.579 191.56 228.271C191.663 228.619 191.763 228.968 191.854 229.316C191.941 229.651 192.036 229.988 192.116 230.324C192.217 230.747 192.315 231.17 192.405 231.593C192.441 231.764 192.474 231.933 192.505 232.103C192.569 232.461 192.634 232.819 192.651 233.173C192.671 233.588 192.652 234.017 192.497 234.363C192.433 234.506 192.326 234.635 192.196 234.711C192.085 234.775 191.969 234.816 191.842 234.849C191.547 234.925 191.25 234.999 190.956 235.078C190.414 235.229 189.877 235.392 189.336 235.546C188.742 235.715 188.138 235.86 187.529 235.993C187.254 236.053 186.974 236.099 186.694 236.143C186.395 236.19 186.095 236.236 185.79 236.268C185.447 236.303 185.102 236.334 184.756 236.358C184.501 236.372 184.245 236.385 183.987 236.393Z" fill="black"/>
<path d="M189.922 216.277C189.516 216.311 189.09 216.241 188.652 216.088C188.249 215.949 187.833 215.752 187.435 215.498C187.134 215.305 186.846 215.07 186.559 214.825C186.539 214.81 186.521 214.797 186.501 214.783C186.504 214.785 186.506 214.786 186.508 214.787C186.337 214.671 186.185 214.47 186.108 214.221C185.99 213.84 186.111 213.461 186.393 213.45C186.539 213.444 186.669 213.507 186.819 213.616C186.938 213.702 187.056 213.812 187.172 213.912C187.31 214.021 187.449 214.123 187.59 214.219C187.739 214.312 187.887 214.393 188.038 214.469C188.257 214.571 188.474 214.661 188.693 214.738C188.795 214.768 188.895 214.792 188.995 214.811C189.108 214.826 189.219 214.834 189.329 214.838C189.49 214.834 189.647 214.819 189.802 214.793C189.956 214.76 190.105 214.717 190.25 214.664C190.437 214.585 190.615 214.489 190.787 214.38C190.983 214.243 191.169 214.093 191.348 213.93C191.469 213.807 191.589 213.683 191.71 213.559C191.767 213.5 191.816 213.425 191.867 213.359C191.93 213.28 191.993 213.201 192.056 213.121C192.051 213.129 192.045 213.136 192.04 213.144C192.139 212.999 192.239 212.854 192.338 212.71C192.325 212.729 192.311 212.748 192.298 212.768C192.395 212.627 192.482 212.472 192.562 212.311C192.652 212.107 192.729 211.893 192.797 211.668C192.895 211.31 192.968 210.932 193.039 210.554C193.039 210.558 193.038 210.563 193.038 210.567C193.079 210.292 193.121 210.019 193.143 209.732C193.166 209.426 193.184 209.119 193.195 208.807C193.199 208.465 193.195 208.12 193.172 207.766C193.17 207.743 193.168 207.718 193.166 207.695C193.151 207.503 193.177 207.337 193.269 207.227C193.355 207.123 193.485 207.085 193.627 207.119C193.914 207.189 194.231 207.583 194.263 207.966C194.308 208.505 194.314 209.024 194.298 209.54C194.283 210.011 194.249 210.479 194.184 210.922C194.145 211.18 194.104 211.434 194.057 211.686C194.014 211.911 193.961 212.128 193.908 212.346C193.789 212.851 193.605 213.308 193.369 213.702C193.238 213.919 193.091 214.118 192.951 214.324C192.964 214.304 192.977 214.284 192.991 214.265C192.828 214.502 192.647 214.718 192.456 214.916C192.312 215.063 192.17 215.212 192.019 215.346C191.704 215.625 191.355 215.855 190.979 216.022C190.708 216.141 190.417 216.217 190.115 216.257C190.051 216.266 189.986 216.272 189.922 216.277Z" fill="black"/>
<path d="M194.272 207.114C194.558 207.184 194.868 207.565 194.891 207.935L194.891 207.936C194.84 207.984 194.777 208.01 194.71 208.018C194.618 208.029 194.517 208.006 194.413 207.952C194.31 207.898 194.207 207.819 194.105 207.752C194.013 207.692 193.922 207.631 193.83 207.569C193.818 207.561 193.806 207.553 193.794 207.545C193.796 207.502 193.801 207.461 193.809 207.422C193.81 207.421 193.81 207.419 193.81 207.419C193.813 207.404 193.817 207.39 193.821 207.377C193.823 207.369 193.826 207.362 193.828 207.355C193.834 207.339 193.84 207.323 193.847 207.308C193.851 207.301 193.854 207.294 193.858 207.287C193.863 207.276 193.87 207.265 193.877 207.255C193.882 207.248 193.886 207.241 193.892 207.235C193.896 207.227 193.902 207.22 193.909 207.214C193.921 207.2 193.934 207.187 193.948 207.176C194.035 207.106 194.15 207.084 194.272 207.114Z" fill="black"/>
<path d="M183.678 249.56C183.261 249.54 182.844 249.417 182.46 249.251C181.665 248.907 181.109 248.138 181.089 247.425C181.079 247.099 181.15 246.785 181.325 246.509C181.418 246.365 181.526 246.23 181.665 246.115C181.802 246.003 181.953 245.917 182.125 245.845C182.288 245.775 182.488 245.734 182.672 245.708C182.872 245.679 183.078 245.664 183.287 245.675C183.763 245.703 184.23 245.819 184.685 245.976C184.96 246.07 185.236 246.179 185.5 246.304C185.415 245.716 185.32 245.129 185.252 244.541C185.147 243.627 185.06 242.713 184.992 241.799C184.993 241.8 184.993 241.802 184.992 241.803C184.907 240.662 184.826 239.523 184.754 238.383C184.718 237.823 184.683 237.264 184.65 236.704C184.633 236.419 184.619 236.134 184.606 235.85C184.596 235.632 184.585 235.415 184.594 235.199C184.603 234.99 184.656 234.798 184.836 234.661C185.108 234.453 185.578 234.509 185.846 234.763C186.029 234.935 186.084 235.158 186.023 235.348C186.022 235.355 186.021 235.361 186.021 235.368C186.009 235.678 186.034 235.993 186.049 236.305C186.058 236.504 186.069 236.703 186.081 236.901C186.109 237.363 186.138 237.826 186.167 238.288C186.228 239.262 186.293 240.237 186.365 241.211C186.364 241.199 186.363 241.187 186.362 241.175C186.38 241.408 186.397 241.641 186.415 241.874C186.415 241.87 186.414 241.866 186.414 241.862C186.415 241.87 186.415 241.877 186.416 241.884C186.417 241.902 186.419 241.92 186.42 241.939C186.419 241.927 186.418 241.916 186.418 241.904C186.506 243.002 186.604 244.1 186.754 245.199C186.827 245.744 186.91 246.29 186.99 246.836C187.019 247.036 187.032 247.229 187.012 247.427C187.005 247.499 186.972 247.574 186.929 247.641C186.951 247.771 186.924 247.903 186.845 248.015C186.668 248.263 186.467 248.497 186.257 248.723C186.034 248.963 185.754 249.162 185.425 249.297C185.13 249.418 184.801 249.491 184.467 249.529C184.326 249.545 184.185 249.556 184.043 249.561C183.923 249.566 183.802 249.565 183.678 249.56ZM183.856 248.365C184.025 248.351 184.19 248.33 184.355 248.303C184.417 248.289 184.479 248.275 184.54 248.26C184.602 248.24 184.662 248.217 184.722 248.193C184.765 248.172 184.807 248.15 184.849 248.127C184.898 248.093 184.945 248.059 184.99 248.023C185.087 247.934 185.175 247.84 185.261 247.743C185.304 247.694 185.345 247.644 185.386 247.594C185.274 247.53 185.161 247.466 185.046 247.406C184.836 247.304 184.622 247.214 184.403 247.128C184.228 247.066 184.054 247.008 183.875 246.959C183.773 246.935 183.672 246.915 183.569 246.897C183.489 246.886 183.41 246.879 183.329 246.873C183.288 246.873 183.246 246.874 183.204 246.876C183.157 246.88 183.11 246.885 183.064 246.893C182.989 246.908 182.917 246.926 182.845 246.945C182.833 246.949 182.821 246.953 182.809 246.958C182.795 246.966 182.781 246.974 182.767 246.982C182.752 246.992 182.737 247.003 182.722 247.015C182.708 247.028 182.695 247.042 182.681 247.055C182.65 247.096 182.62 247.137 182.591 247.18C182.579 247.2 182.569 247.22 182.56 247.241C182.549 247.268 182.541 247.296 182.533 247.324C182.526 247.359 182.521 247.393 182.517 247.428C182.515 247.465 182.514 247.501 182.516 247.538C182.519 247.571 182.525 247.604 182.531 247.638C182.538 247.662 182.546 247.688 182.554 247.712C182.574 247.763 182.597 247.812 182.624 247.86C182.626 247.862 182.627 247.864 182.629 247.867C182.622 247.853 182.614 247.839 182.606 247.825C182.624 247.853 182.643 247.881 182.66 247.909C182.682 247.936 182.704 247.962 182.727 247.989C182.764 248.026 182.802 248.062 182.842 248.097C182.863 248.114 182.884 248.13 182.905 248.145C182.923 248.156 182.941 248.165 182.959 248.176C183.028 248.208 183.098 248.238 183.169 248.266C183.211 248.28 183.252 248.294 183.294 248.306C183.366 248.323 183.438 248.337 183.511 248.349C183.582 248.358 183.654 248.364 183.725 248.368C183.769 248.367 183.812 248.367 183.856 248.365Z" fill="black"/>
<path d="M195.169 245.851C194.83 245.78 194.496 245.669 194.17 245.546C193.805 245.409 193.452 245.239 193.118 245.037C193.028 244.983 192.954 244.913 192.897 244.836C192.802 244.79 192.713 244.731 192.649 244.663C192.591 244.601 192.53 244.542 192.488 244.471C192.448 244.403 192.412 244.337 192.379 244.267C192.345 244.192 192.313 244.115 192.28 244.04C192.151 243.74 192.038 243.438 191.933 243.134C191.503 241.886 191.124 240.629 190.73 239.375C190.339 238.13 189.947 236.886 189.556 235.64C189.363 235.026 189.175 234.41 188.988 233.794C188.908 233.53 188.828 233.264 188.761 232.999C188.72 232.836 188.679 232.674 188.638 232.511C188.597 232.346 188.557 232.173 188.553 232.008C188.552 231.927 188.563 231.835 188.601 231.766C188.678 231.625 188.793 231.517 188.967 231.471C189.128 231.429 189.314 231.447 189.477 231.522C189.742 231.644 189.932 231.924 189.914 232.175C189.924 232.238 189.936 232.302 189.95 232.366C190.285 233.692 190.717 235.008 191.131 236.325C191.531 237.592 191.93 238.861 192.326 240.13C192.501 240.689 192.678 241.248 192.857 241.807C193.02 242.314 193.182 242.823 193.369 243.326C193.386 243.371 193.405 243.417 193.423 243.462C193.897 243.066 194.312 242.611 194.874 242.305C195.509 241.96 196.348 241.954 197.081 242.31C197.48 242.504 197.775 242.83 198.006 243.172C198.123 243.347 198.196 243.545 198.251 243.735C198.315 243.953 198.34 244.177 198.337 244.394C198.327 245.149 197.75 245.739 196.978 245.926C196.813 245.966 196.642 245.987 196.467 245.994C196.04 246.01 195.594 245.939 195.169 245.851ZM196.286 244.771C196.353 244.764 196.419 244.756 196.485 244.745C196.513 244.738 196.542 244.731 196.57 244.722C196.619 244.703 196.666 244.682 196.711 244.657C196.687 244.669 196.662 244.681 196.638 244.693C196.693 244.662 196.745 244.63 196.795 244.594C196.791 244.598 196.787 244.602 196.783 244.606C196.788 244.602 196.793 244.597 196.798 244.593C196.807 244.586 196.815 244.58 196.824 244.574C196.816 244.579 196.809 244.584 196.801 244.589C196.809 244.582 196.817 244.574 196.824 244.567C196.816 244.574 196.808 244.582 196.799 244.59C196.786 244.6 196.771 244.609 196.757 244.619C196.783 244.598 196.809 244.577 196.835 244.556C196.852 244.539 196.868 244.521 196.884 244.503C196.898 244.482 196.912 244.46 196.926 244.439C196.935 244.423 196.942 244.405 196.95 244.388C196.958 244.358 196.967 244.329 196.975 244.299C196.972 244.315 196.969 244.331 196.965 244.347C196.961 244.358 196.957 244.37 196.953 244.381C196.957 244.371 196.961 244.36 196.965 244.35C196.964 244.358 196.962 244.366 196.96 244.374C196.963 244.365 196.964 244.355 196.967 244.346C196.97 244.337 196.973 244.328 196.976 244.319C196.973 244.327 196.97 244.334 196.967 244.342C196.976 244.3 196.982 244.258 196.986 244.214C196.986 244.183 196.985 244.151 196.983 244.119C196.973 244.044 196.96 243.969 196.944 243.895C196.935 243.865 196.927 243.836 196.918 243.807C196.904 243.772 196.889 243.738 196.872 243.704C196.853 243.671 196.833 243.638 196.812 243.606C196.786 243.571 196.76 243.538 196.731 243.504C196.705 243.48 196.681 243.455 196.655 243.431C196.637 243.416 196.619 243.402 196.6 243.388C196.581 243.376 196.562 243.365 196.544 243.354C196.526 243.346 196.509 243.337 196.491 243.329C196.502 243.333 196.512 243.337 196.522 243.341C196.521 243.34 196.52 243.34 196.518 243.339C196.482 243.325 196.445 243.312 196.408 243.301C196.353 243.288 196.298 243.276 196.242 243.266C196.207 243.262 196.173 243.258 196.138 243.257C196.104 243.256 196.072 243.256 196.039 243.258C196.005 243.262 195.971 243.267 195.937 243.273C195.909 243.279 195.883 243.286 195.856 243.294C195.798 243.315 195.743 243.338 195.688 243.363C195.621 243.4 195.557 243.438 195.493 243.479C195.217 243.677 194.97 243.903 194.722 244.128C194.626 244.214 194.53 244.3 194.431 244.383C194.458 244.394 194.486 244.405 194.513 244.417C194.695 244.485 194.878 244.546 195.063 244.603C195.22 244.643 195.377 244.678 195.536 244.712C195.703 244.737 195.869 244.76 196.037 244.772C196.121 244.774 196.202 244.774 196.286 244.771Z" fill="black"/>
<path d="M178.084 235.847C177.824 235.578 177.815 235.195 178.032 234.975C178.098 234.908 178.163 234.84 178.227 234.771C178.4 234.575 178.559 234.37 178.708 234.155C178.738 234.106 178.767 234.058 178.795 234.009C178.732 233.981 178.668 233.954 178.605 233.927C178.631 233.939 178.657 233.949 178.684 233.961C177.403 233.426 176.109 232.943 174.838 232.374C174.521 232.231 174.204 232.082 173.893 231.918C173.658 231.793 173.425 231.667 173.195 231.53C172.777 231.282 172.393 230.979 172.036 230.643C171.713 230.341 171.448 229.989 171.217 229.62C170.979 229.238 170.83 228.798 170.831 228.383C170.831 227.858 171.018 227.365 171.239 226.929C171.377 226.658 171.514 226.388 171.668 226.128C171.759 225.975 171.844 225.816 171.943 225.67C172.044 225.521 172.144 225.372 172.245 225.223C172.394 225.001 172.558 224.785 172.726 224.579C172.914 224.348 173.1 224.115 173.294 223.889C173.731 223.38 174.173 222.878 174.648 222.404C175.086 221.967 175.549 221.557 176.015 221.149C176.171 221.012 176.326 220.873 176.493 220.748C176.631 220.644 176.768 220.532 176.927 220.456C177.21 220.319 177.605 220.466 177.79 220.775C177.976 221.085 177.895 221.455 177.612 221.592C177.51 221.655 177.416 221.727 177.321 221.8C176.857 222.183 176.412 222.587 175.971 222.994C175.546 223.386 175.155 223.808 174.766 224.234C174.437 224.615 174.114 225 173.795 225.391C173.514 225.735 173.262 226.102 173.012 226.472C172.774 226.874 172.547 227.282 172.334 227.7C172.261 227.873 172.19 228.044 172.134 228.226C172.115 228.299 172.099 228.373 172.086 228.448C172.08 228.499 172.077 228.55 172.076 228.601C172.078 228.628 172.08 228.655 172.082 228.682C172.086 228.706 172.091 228.731 172.096 228.755C172.105 228.784 172.114 228.812 172.123 228.841C172.151 228.91 172.181 228.977 172.215 229.045C172.26 229.123 172.308 229.199 172.357 229.275C172.428 229.376 172.502 229.473 172.58 229.569C172.685 229.687 172.794 229.799 172.908 229.908C173.036 230.021 173.166 230.128 173.301 230.231C173.5 230.371 173.703 230.5 173.912 230.622C174.548 230.979 175.207 231.271 175.868 231.556C176.843 231.961 177.824 232.345 178.799 232.748C179.076 232.863 179.356 232.975 179.62 233.125C179.742 233.195 179.856 233.321 179.938 233.433C180.016 233.541 180.08 233.668 180.104 233.793C180.13 233.925 180.144 234.06 180.119 234.186C180.09 234.332 180.049 234.471 179.984 234.601C179.729 235.11 179.356 235.544 178.963 235.943C178.879 236.028 178.765 236.072 178.643 236.078C178.45 236.088 178.236 236.004 178.084 235.847Z" fill="black"/>
<path d="M193.909 207.36C193.922 207.346 193.935 207.334 193.95 207.322C193.925 207.423 193.875 207.506 193.806 207.562C193.825 207.483 193.858 207.414 193.909 207.36Z" fill="black"/>
<path d="M194.266 208.281C193.896 208.271 193.552 207.77 193.616 207.395C193.642 207.241 193.691 207.098 193.738 206.955C193.829 206.665 193.912 206.369 193.982 206.067C194.021 205.897 194.052 205.722 194.094 205.552C194.145 205.347 194.215 205.151 194.281 204.956C194.381 204.658 194.745 204.602 195.025 204.795C195.167 204.893 195.282 205.045 195.341 205.214C195.402 205.385 195.396 205.544 195.347 205.69C195.326 205.753 195.305 205.816 195.284 205.88C195.185 206.2 195.126 206.54 195.043 206.869C194.968 207.162 194.881 207.449 194.79 207.733C194.777 207.776 194.764 207.819 194.753 207.863C194.74 207.969 194.702 208.064 194.641 208.137C194.562 208.23 194.459 208.271 194.34 208.28C194.316 208.281 194.291 208.282 194.266 208.281Z" fill="black"/>
<path d="M193.415 208.362C193.208 208.227 193.111 208.023 193.042 207.835C192.991 207.696 192.949 207.557 192.913 207.418C192.844 207.15 192.786 206.882 192.731 206.613C192.626 206.103 192.537 205.592 192.44 205.082C192.379 204.76 192.733 204.487 193.142 204.483C193.347 204.481 193.555 204.541 193.715 204.65C193.879 204.762 193.967 204.907 193.997 205.066C194.107 205.644 194.212 206.223 194.33 206.801C194.393 207.083 194.458 207.364 194.557 207.642C194.558 207.643 194.558 207.645 194.559 207.647C194.748 207.868 194.734 208.165 194.516 208.351C194.384 208.464 194.203 208.521 194.014 208.526C193.808 208.532 193.591 208.476 193.415 208.362Z" fill="black"/>
<path d="M194.518 208.493C194.251 208.251 194.099 207.785 194.231 207.514C194.367 207.232 194.558 207.002 194.727 206.757C194.925 206.473 195.12 206.187 195.314 205.899C195.677 205.361 196.04 204.822 196.406 204.286C196.568 204.047 196.901 204.068 197.164 204.36C197.416 204.64 197.513 205.099 197.35 205.337C196.997 205.856 196.645 206.377 196.294 206.897C196.102 207.181 195.909 207.465 195.714 207.746C195.544 207.991 195.356 208.221 195.211 208.493C195.217 208.482 195.223 208.47 195.229 208.459C195.163 208.577 195.061 208.647 194.941 208.661C194.812 208.676 194.662 208.623 194.518 208.493Z" fill="black"/>
<path d="M197.454 209.122C197.018 209.096 196.574 209.039 196.131 208.979C195.891 208.946 195.649 208.912 195.404 208.861C195.194 208.818 194.982 208.745 194.767 208.653C194.564 208.565 194.377 208.409 194.238 208.144C194.035 207.756 194.074 207.311 194.305 207.179C194.424 207.111 194.571 207.132 194.714 207.218C194.713 207.216 194.711 207.215 194.709 207.213C194.687 207.202 194.664 207.19 194.641 207.179C194.741 207.228 194.84 207.268 194.938 207.302C195.139 207.361 195.334 207.395 195.529 207.428C196.057 207.502 196.584 207.577 197.102 207.607C197.392 207.624 197.717 207.996 197.812 208.405C197.901 208.786 197.769 209.083 197.525 209.119C197.503 209.123 197.478 209.124 197.454 209.122Z" fill="black"/>
<path d="M193.84 209.156C193.438 208.968 193.049 208.641 192.674 208.346C192.285 208.042 191.898 207.737 191.513 207.423C191.233 207.193 191.125 206.731 191.248 206.47C191.31 206.337 191.423 206.256 191.56 206.246C191.703 206.236 191.845 206.304 191.983 206.417C192.063 206.483 192.143 206.547 192.224 206.612C192.201 206.594 192.178 206.575 192.154 206.556C192.437 206.783 192.72 207.006 193.004 207.229C193.283 207.448 193.562 207.662 193.85 207.855C193.883 207.874 193.916 207.894 193.949 207.91C193.935 207.904 193.921 207.897 193.907 207.89C194.048 207.961 194.175 208.068 194.274 208.23C194.369 208.388 194.421 208.572 194.415 208.737C194.407 208.985 194.257 209.176 194.056 209.196C193.988 209.203 193.915 209.191 193.84 209.156Z" fill="black"/>
<defs>
<filter id="filter0_d_7015_117564" x="-72.4141" y="12.5005" width="257.506" height="215.375" filterUnits="userSpaceOnUse" color-interpolation-filters="sRGB">
<feFlood flood-opacity="0" result="BackgroundImageFix"/>
<feColorMatrix in="SourceAlpha" type="matrix" values="0 0 0 0 0 0 0 0 0 0 0 0 0 0 0 0 0 0 127 0" result="hardAlpha"/>
<feOffset dy="6"/>
<feGaussianBlur stdDeviation="30"/>
<feComposite in2="hardAlpha" operator="out"/>
<feColorMatrix type="matrix" values="0 0 0 0 0 0 0 0 0 0 0 0 0 0 0 0 0 0 0.06 0"/>
<feBlend mode="normal" in2="BackgroundImageFix" result="effect1_dropShadow_7015_117564"/>
<feBlend mode="normal" in="SourceGraphic" in2="effect1_dropShadow_7015_117564" result="shape"/>
</filter>
<filter id="filter1_d_7015_117564" x="65.0918" y="46.0669" width="212.828" height="191.299" filterUnits="userSpaceOnUse" color-interpolation-filters="sRGB">
<feFlood flood-opacity="0" result="BackgroundImageFix"/>
<feColorMatrix in="SourceAlpha" type="matrix" values="0 0 0 0 0 0 0 0 0 0 0 0 0 0 0 0 0 0 127 0" result="hardAlpha"/>
<feOffset dy="6"/>
<feGaussianBlur stdDeviation="30"/>
<feComposite in2="hardAlpha" operator="out"/>
<feColorMatrix type="matrix" values="0 0 0 0 0 0 0 0 0 0 0 0 0 0 0 0 0 0 0.06 0"/>
<feBlend mode="normal" in2="BackgroundImageFix" result="effect1_dropShadow_7015_117564"/>
<feBlend mode="normal" in="SourceGraphic" in2="effect1_dropShadow_7015_117564" result="shape"/>
</filter>
<filter id="filter2_d_7015_117564" x="113.012" y="16.6675" width="250.561" height="220.236" filterUnits="userSpaceOnUse" color-interpolation-filters="sRGB">
<feFlood flood-opacity="0" result="BackgroundImageFix"/>
<feColorMatrix in="SourceAlpha" type="matrix" values="0 0 0 0 0 0 0 0 0 0 0 0 0 0 0 0 0 0 127 0" result="hardAlpha"/>
<feOffset dy="6"/>
<feGaussianBlur stdDeviation="30"/>
<feComposite in2="hardAlpha" operator="out"/>
<feColorMatrix type="matrix" values="0 0 0 0 0 0 0 0 0 0 0 0 0 0 0 0 0 0 0.06 0"/>
<feBlend mode="normal" in2="BackgroundImageFix" result="effect1_dropShadow_7015_117564"/>
<feBlend mode="normal" in="SourceGraphic" in2="effect1_dropShadow_7015_117564" result="shape"/>
</filter>
<filter id="filter3_d_7015_117564" x="161.855" y="0" width="313.295" height="268.386" filterUnits="userSpaceOnUse" color-interpolation-filters="sRGB">
<feFlood flood-opacity="0" result="BackgroundImageFix"/>
<feColorMatrix in="SourceAlpha" type="matrix" values="0 0 0 0 0 0 0 0 0 0 0 0 0 0 0 0 0 0 127 0" result="hardAlpha"/>
<feOffset dy="6"/>
<feGaussianBlur stdDeviation="30"/>
<feComposite in2="hardAlpha" operator="out"/>
<feColorMatrix type="matrix" values="0 0 0 0 0 0 0 0 0 0 0 0 0 0 0 0 0 0 0.06 0"/>
<feBlend mode="normal" in2="BackgroundImageFix" result="effect1_dropShadow_7015_117564"/>
<feBlend mode="normal" in="SourceGraphic" in2="effect1_dropShadow_7015_117564" result="shape"/>
</filter>
<filter id="filter4_d_7015_117564" x="-16.1621" y="64.3545" width="237.83" height="213.522" filterUnits="userSpaceOnUse" color-interpolation-filters="sRGB">
<feFlood flood-opacity="0" result="BackgroundImageFix"/>
<feColorMatrix in="SourceAlpha" type="matrix" values="0 0 0 0 0 0 0 0 0 0 0 0 0 0 0 0 0 0 127 0" result="hardAlpha"/>
<feOffset dy="6"/>
<feGaussianBlur stdDeviation="30"/>
<feComposite in2="hardAlpha" operator="out"/>
<feColorMatrix type="matrix" values="0 0 0 0 0 0 0 0 0 0 0 0 0 0 0 0 0 0 0.06 0"/>
<feBlend mode="normal" in2="BackgroundImageFix" result="effect1_dropShadow_7015_117564"/>
<feBlend mode="normal" in="SourceGraphic" in2="effect1_dropShadow_7015_117564" result="shape"/>
</filter>
<filter id="filter5_d_7015_117564" x="178.059" y="53.2524" width="257.506" height="215.375" filterUnits="userSpaceOnUse" color-interpolation-filters="sRGB">
<feFlood flood-opacity="0" result="BackgroundImageFix"/>
<feColorMatrix in="SourceAlpha" type="matrix" values="0 0 0 0 0 0 0 0 0 0 0 0 0 0 0 0 0 0 127 0" result="hardAlpha"/>
<feOffset dy="6"/>
<feGaussianBlur stdDeviation="30"/>
<feComposite in2="hardAlpha" operator="out"/>
<feColorMatrix type="matrix" values="0 0 0 0 0 0 0 0 0 0 0 0 0 0 0 0 0 0 0.06 0"/>
<feBlend mode="normal" in2="BackgroundImageFix" result="effect1_dropShadow_7015_117564"/>
<feBlend mode="normal" in="SourceGraphic" in2="effect1_dropShadow_7015_117564" result="shape"/>
</filter>
<filter id="filter6_d_7015_117564" x="85.2305" y="86.8188" width="212.828" height="191.299" filterUnits="userSpaceOnUse" color-interpolation-filters="sRGB">
<feFlood flood-opacity="0" result="BackgroundImageFix"/>
<feColorMatrix in="SourceAlpha" type="matrix" values="0 0 0 0 0 0 0 0 0 0 0 0 0 0 0 0 0 0 127 0" result="hardAlpha"/>
<feOffset dy="6"/>
<feGaussianBlur stdDeviation="30"/>
<feComposite in2="hardAlpha" operator="out"/>
<feColorMatrix type="matrix" values="0 0 0 0 0 0 0 0 0 0 0 0 0 0 0 0 0 0 0.06 0"/>
<feBlend mode="normal" in2="BackgroundImageFix" result="effect1_dropShadow_7015_117564"/>
<feBlend mode="normal" in="SourceGraphic" in2="effect1_dropShadow_7015_117564" result="shape"/>
</filter>
<filter id="filter7_d_7015_117564" x="-0.421875" y="57.4194" width="250.561" height="220.236" filterUnits="userSpaceOnUse" color-interpolation-filters="sRGB">
<feFlood flood-opacity="0" result="BackgroundImageFix"/>
<feColorMatrix in="SourceAlpha" type="matrix" values="0 0 0 0 0 0 0 0 0 0 0 0 0 0 0 0 0 0 127 0" result="hardAlpha"/>
<feOffset dy="6"/>
<feGaussianBlur stdDeviation="30"/>
<feComposite in2="hardAlpha" operator="out"/>
<feColorMatrix type="matrix" values="0 0 0 0 0 0 0 0 0 0 0 0 0 0 0 0 0 0 0.06 0"/>
<feBlend mode="normal" in2="BackgroundImageFix" result="effect1_dropShadow_7015_117564"/>
<feBlend mode="normal" in="SourceGraphic" in2="effect1_dropShadow_7015_117564" result="shape"/>
</filter>
<filter id="filter8_d_7015_117564" x="-112" y="40.752" width="313.295" height="268.386" filterUnits="userSpaceOnUse" color-interpolation-filters="sRGB">
<feFlood flood-opacity="0" result="BackgroundImageFix"/>
<feColorMatrix in="SourceAlpha" type="matrix" values="0 0 0 0 0 0 0 0 0 0 0 0 0 0 0 0 0 0 127 0" result="hardAlpha"/>
<feOffset dy="6"/>
<feGaussianBlur stdDeviation="30"/>
<feComposite in2="hardAlpha" operator="out"/>
<feColorMatrix type="matrix" values="0 0 0 0 0 0 0 0 0 0 0 0 0 0 0 0 0 0 0.06 0"/>
<feBlend mode="normal" in2="BackgroundImageFix" result="effect1_dropShadow_7015_117564"/>
<feBlend mode="normal" in="SourceGraphic" in2="effect1_dropShadow_7015_117564" result="shape"/>
</filter>
<filter id="filter9_d_7015_117564" x="141.482" y="105.106" width="237.83" height="213.522" filterUnits="userSpaceOnUse" color-interpolation-filters="sRGB">
<feFlood flood-opacity="0" result="BackgroundImageFix"/>
<feColorMatrix in="SourceAlpha" type="matrix" values="0 0 0 0 0 0 0 0 0 0 0 0 0 0 0 0 0 0 127 0" result="hardAlpha"/>
<feOffset dy="6"/>
<feGaussianBlur stdDeviation="30"/>
<feComposite in2="hardAlpha" operator="out"/>
<feColorMatrix type="matrix" values="0 0 0 0 0 0 0 0 0 0 0 0 0 0 0 0 0 0 0.06 0"/>
<feBlend mode="normal" in2="BackgroundImageFix" result="effect1_dropShadow_7015_117564"/>
<feBlend mode="normal" in="SourceGraphic" in2="effect1_dropShadow_7015_117564" result="shape"/>
</filter>
</defs>
</svg>
