<svg width="28" height="28" viewBox="0 0 28 28" fill="none" xmlns="http://www.w3.org/2000/svg">
<path d="M7 6.125C6.76794 6.125 6.54538 6.21719 6.38128 6.38128C6.21719 6.54538 6.125 6.76794 6.125 7V9.8245C6.125 10.1726 5.98672 10.5064 5.74058 10.7526C5.49444 10.9987 5.1606 11.137 4.8125 11.137C4.4644 11.137 4.13056 10.9987 3.88442 10.7526C3.63828 10.5064 3.5 10.1726 3.5 9.8245V7C3.5 6.07174 3.86875 5.1815 4.52513 4.52513C5.1815 3.86875 6.07174 3.5 7 3.5H9.8245C10.1726 3.5 10.5064 3.63828 10.7526 3.88442C10.9987 4.13056 11.137 4.4644 11.137 4.8125C11.137 5.1606 10.9987 5.49444 10.7526 5.74058C10.5064 5.98672 10.1726 6.125 9.8245 6.125H7ZM16.863 4.8125C16.863 4.4644 17.0013 4.13056 17.2474 3.88442C17.4936 3.63828 17.8274 3.5 18.1755 3.5H21C21.9283 3.5 22.8185 3.86875 23.4749 4.52513C24.1313 5.1815 24.5 6.07174 24.5 7V9.8245C24.5 10.1726 24.3617 10.5064 24.1156 10.7526C23.8694 10.9987 23.5356 11.137 23.1875 11.137C22.8394 11.137 22.5056 10.9987 22.2594 10.7526C22.0133 10.5064 21.875 10.1726 21.875 9.8245V7C21.875 6.76794 21.7828 6.54538 21.6187 6.38128C21.4546 6.21719 21.2321 6.125 21 6.125H18.1755C17.8274 6.125 17.4936 5.98672 17.2474 5.74058C17.0013 5.49444 16.863 5.1606 16.863 4.8125ZM4.8125 16.863C5.1606 16.863 5.49444 17.0013 5.74058 17.2474C5.98672 17.4936 6.125 17.8274 6.125 18.1755V21C6.125 21.2321 6.21719 21.4546 6.38128 21.6187C6.54538 21.7828 6.76794 21.875 7 21.875H9.8245C10.1726 21.875 10.5064 22.0133 10.7526 22.2594C10.9987 22.5056 11.137 22.8394 11.137 23.1875C11.137 23.5356 10.9987 23.8694 10.7526 24.1156C10.5064 24.3617 10.1726 24.5 9.8245 24.5H7C6.07174 24.5 5.1815 24.1313 4.52513 23.4749C3.86875 22.8185 3.5 21.9283 3.5 21V18.1755C3.5 17.8274 3.63828 17.4936 3.88442 17.2474C4.13056 17.0013 4.4644 16.863 4.8125 16.863ZM23.1875 16.863C23.5356 16.863 23.8694 17.0013 24.1156 17.2474C24.3617 17.4936 24.5 17.8274 24.5 18.1755V21C24.5 21.9283 24.1313 22.8185 23.4749 23.4749C22.8185 24.1313 21.9283 24.5 21 24.5H18.1755C17.8274 24.5 17.4936 24.3617 17.2474 24.1156C17.0013 23.8694 16.863 23.5356 16.863 23.1875C16.863 22.8394 17.0013 22.5056 17.2474 22.2594C17.4936 22.0133 17.8274 21.875 18.1755 21.875H21C21.2321 21.875 21.4546 21.7828 21.6187 21.6187C21.7828 21.4546 21.875 21.2321 21.875 21V18.1755C21.875 17.8274 22.0133 17.4936 22.2594 17.2474C22.5056 17.0013 22.8394 16.863 23.1875 16.863Z" fill="#F8ECAE"/>
</svg>
