<svg width="27" height="36" viewBox="0 0 27 36" fill="none" xmlns="http://www.w3.org/2000/svg">
<path d="M10.6464 32.1151L9.84021 31.8974L9.37645 32.2499C9.03079 32.5126 8.80885 32.8717 8.75127 33.2613L8.67931 33.7482L8.81282 34.0237C8.91613 34.2369 9.07167 34.4292 9.26924 34.588L9.35759 34.659C9.54834 34.8123 9.77417 34.9312 10.0213 35.0083L10.5388 35.1697C10.9119 35.2861 11.3278 35.2507 11.6658 35.0737L13.6777 34.0204C13.6777 34.0204 12.8313 33.2086 12.625 33.0232C12.5963 32.9974 12.5636 32.9781 12.5266 32.9615C12.2143 32.8206 10.6688 32.1233 10.6464 32.1151Z" fill="#FCFCFC"/>
<path d="M1.244 11.3126L1.68161 14.2595L4.97085 14.8584L26.0891 12.6902L25.1823 7.33272L23.2781 4.42436L19.9231 2.28136L16.3868 0.827179L13.7572 0.521036L11.581 0.827179L8.86074 1.36293L5.59643 3.12325L3.42021 5.18972L1.244 11.3126Z" fill="#FCFCFC"/>
<path d="M10.1305 13.5324C5.63299 11.0833 2.4533 13.3283 1.42565 14.757L2.24173 18.1245L7.1382 25.5485L20.6488 23.8647L24.0945 19.9614L25.5453 16.2877V11.0067L25.0919 8.63413C20.2317 6.8585 17.0823 9.6291 16.2057 11.3129C13.014 10.5169 10.8257 12.4609 10.1305 13.5324Z" fill="#FCFCFC"/>
<path d="M8.58885 21.0324C6.63078 20.147 4.96485 20.7082 4.14347 21.2068C4.08693 21.2411 4.05507 21.2967 4.05507 21.3555C4.05507 21.3945 4.0693 21.4325 4.09583 21.4643L9.29477 27.712C9.36803 27.8 9.45141 27.8817 9.54371 27.9559L11.165 29.2593C11.2604 29.3359 11.3392 29.4259 11.3981 29.5253C11.616 29.8931 12.0871 30.1031 12.5698 30.0475L13.0992 29.9866C13.5251 29.9376 13.9184 29.7671 14.2137 29.5035L21.6461 22.8696L23.641 20.5735C23.9601 20.1694 23.9168 19.6216 23.4734 19.3122C20.4765 17.2216 18.2781 19.6878 18.1098 19.5783C11.7625 15.4456 8.70136 21.0834 8.58885 21.0324Z" fill="#FCFCFC"/>
<path d="M26.303 11.8263C26.2867 12.9866 26.216 14.1438 26.0328 15.2949C25.8605 16.3817 25.5395 17.444 25.2095 18.5033C25.0898 18.8906 24.8812 19.2533 24.6491 19.6054C23.8113 20.8759 22.783 22.0301 21.684 23.1475C20.9169 23.9266 20.1171 24.6767 19.2757 25.3976C18.7733 25.8278 18.242 26.2334 17.7759 26.6911C16.9508 27.5024 15.9697 28.1881 15.1844 29.0285C14.858 29.379 14.5116 29.7127 14.0854 29.9791C13.9657 30.0541 13.8315 30.1138 13.7046 30.1827C13.6193 30.2286 13.5903 30.2714 13.6411 30.3694C13.7354 30.5546 13.846 30.7322 13.9004 30.9358C14.0401 31.473 13.7155 32.2185 12.796 32.4007C12.6274 32.4343 12.4551 32.4573 12.2846 32.4849C12.2411 32.4925 12.1885 32.4894 12.174 32.5338C12.1595 32.5782 12.2012 32.6058 12.2375 32.6257L12.366 32.6796C12.9321 32.9172 13.4273 33.2597 13.8144 33.6817L13.9004 33.7755C13.9004 33.7755 14.1296 34.1288 13.7444 34.3825C13.481 34.5559 13.1534 34.7565 12.7966 34.9406C12.4734 35.1074 12.1264 35.2606 11.7815 35.3676C11.2606 35.5293 10.3513 35.4062 9.93067 35.2453C9.64957 35.1381 9.07832 34.7978 8.85163 34.6126C8.498 34.3248 8.3783 33.9559 8.35836 33.5564C8.30939 32.6058 8.82805 31.9292 9.78015 31.4593C9.89258 31.4042 9.99233 31.3965 10.1211 31.4348L11.403 32.1304C11.5105 32.1887 11.6452 32.197 11.7597 32.1491C12.1334 31.9928 12.963 31.6229 13.1678 31.3383C13.36 31.072 13.233 30.8036 12.9682 30.5909C12.8884 30.525 12.807 30.5092 12.807 30.5092L12.2398 30.3399C11.7736 30.2008 11.3586 29.9612 11.0359 29.645L11.0011 29.6109L10.9001 29.5104C10.86 29.4705 10.8185 29.4318 10.7753 29.3941C10.4886 29.1443 9.31894 28.1256 8.70292 27.6003C8.32571 27.2789 8.02648 26.9023 7.70549 26.5426C7.17051 25.9441 6.59381 25.3731 6.09691 24.7501C5.44405 23.9312 4.93082 23.0434 4.3106 22.2122C3.61059 21.2739 3.11913 20.2575 2.6186 19.2442C2.23232 18.4635 2.02558 17.6277 1.6919 16.8302C1.25303 15.7786 1.1424 14.6765 1.02634 13.5836C0.90846 12.4677 0.990069 11.3411 1.20225 10.2298C1.30381 9.70169 1.42531 9.17818 1.50692 8.64702C1.60847 7.98728 1.90952 7.36887 2.17066 6.74587C2.42818 6.13359 2.74373 5.54273 3.13182 4.97943C3.3966 4.59675 3.70852 4.24927 4.06578 3.92782C4.64792 3.40585 5.2228 2.87775 5.87748 2.41701C6.54485 1.94708 7.28476 1.58736 8.10809 1.35622C8.96588 1.1159 9.78559 0.776083 10.696 0.676586L12.4523 0.460755L12.7114 0.415657C12.9894 0.367271 13.2725 0.34289 13.5563 0.34289C13.6479 0.34289 13.7388 0.340305 13.8303 0.336623C14.1812 0.322494 15.1252 0.297205 15.6741 0.404119C17.0578 0.670464 18.3526 1.13121 19.6076 1.68533C21.149 2.36496 22.482 3.2635 23.6462 4.34571C24.3789 5.02535 24.8885 5.81367 25.2657 6.67852C25.7771 7.84799 26.0328 9.05878 26.2323 10.2834C26.3157 10.7946 26.3085 11.3135 26.2994 11.8294L26.303 11.8263ZM11.4994 26.3237C11.4758 26.3314 11.4504 26.3406 11.4268 26.3482C11.3216 26.1982 11.2001 26.0574 11.133 25.8875C10.9589 25.4405 10.7885 24.9905 10.6053 24.5466C10.239 23.6618 9.92704 22.7648 9.72755 21.8418C9.5317 20.9341 9.37936 20.0202 9.2506 19.1033C9.09283 17.9706 8.98764 16.8348 8.86795 15.699C8.79722 15.0255 8.82987 14.3489 8.85707 13.6724C8.8879 12.933 8.88065 12.1937 8.955 11.4559C9.00759 10.9278 9.15993 10.4135 9.24153 9.88996C9.30501 9.48585 9.37936 9.08175 9.48999 8.68682C9.69129 7.97504 9.91979 7.26785 10.1211 6.55607C10.2752 6.01419 10.5418 5.50752 10.7486 4.98096C10.9245 4.53399 11.0968 4.08396 11.3652 3.66914C11.6934 3.16247 12.0507 2.66805 12.3771 2.16138C12.6546 1.72972 12.9139 1.29193 13.3655 0.962829C13.4271 0.918439 13.4616 0.858741 13.4235 0.79292C13.3854 0.727099 13.3002 0.739346 13.2421 0.759245C12.816 0.904663 12.3499 0.832719 11.9165 0.947522C11.6372 1.021 11.3452 1.06386 11.0587 1.12049C10.2861 1.27356 9.53895 1.50164 8.81173 1.76339C8.19514 1.98535 7.56948 2.2073 7.02361 2.53947C6.02981 3.14869 5.19197 3.9018 4.40853 4.69318C3.57794 5.53201 3.13908 6.54535 2.72922 7.56787C2.43362 8.3072 2.26859 9.06797 2.109 9.83332C1.7735 11.439 1.64837 13.0432 1.94216 14.6627C2.05278 15.2674 2.10537 15.8797 2.34476 16.4613C2.82534 17.6277 3.12819 18.8431 3.75567 19.9682C4.11112 20.6065 4.39402 21.277 4.86191 21.8663C5.36969 22.5077 5.74509 23.2118 6.24924 23.8547C6.53578 24.219 6.80237 24.5971 7.09615 24.9583C7.52052 25.4772 7.99203 25.9655 8.43996 26.4691C8.82443 26.9008 9.20526 27.3325 9.66952 27.7121C10.2027 28.1468 11.1868 29.0826 11.1868 29.0826C11.2594 29.2112 11.8009 29.5674 11.8009 29.5674L12.2375 29.8287L12.4614 29.8857C12.6971 29.9457 12.9536 29.9312 13.1648 29.8244C13.2403 29.7862 13.3101 29.7472 13.3509 29.7158C13.5359 29.575 13.7245 29.4403 13.8968 29.2872C14.5388 28.707 15.1119 28.0733 15.7992 27.5284C16.414 27.0401 16.9254 26.4691 17.5238 25.9671C18.4052 25.2277 19.2847 24.4853 20.0881 23.6863C20.9006 22.8781 21.7185 22.0729 22.4765 21.2249C23.0732 20.5575 23.6045 19.858 24.0996 19.1385C24.4532 18.6258 24.5748 18.0395 24.7452 17.4747C25.2349 15.8582 25.4888 14.2127 25.5504 12.5458C25.5994 11.2385 25.4307 9.9466 25.0825 8.67764C24.8014 7.65206 24.4877 6.6326 23.7913 5.72182C23.3797 5.18454 22.939 4.67328 22.4276 4.20795C21.6768 3.52372 20.7664 2.99715 19.8669 2.46905C19.2811 2.12464 18.5992 1.91647 17.9536 1.65777C16.9508 1.25673 15.8971 0.996506 14.829 0.76996C14.7183 0.746999 14.6041 0.733222 14.4572 0.782205C14.809 0.94293 15.1028 1.11437 15.4238 1.25367C15.8862 1.45266 16.3759 1.62563 16.7694 1.91493C17.6598 2.56855 18.4723 3.27727 18.9765 4.20489C19.3192 4.83554 19.7 5.45242 19.905 6.12746C20.1081 6.79332 20.2532 7.46837 20.4128 8.14189C20.7192 9.43993 20.8099 10.7472 20.7065 12.0605C20.6231 13.132 20.4835 14.2035 20.2223 15.2597C20.0827 15.8261 20.0029 16.4032 19.8433 16.9665C19.6112 17.7839 19.379 18.6013 19.1379 19.4156C18.9819 19.9406 18.8404 20.4718 18.6337 20.9831C18.2819 21.8556 17.8883 22.7174 17.4785 23.573C16.9163 24.744 16.2326 25.8599 15.4945 26.9544C15.2678 27.2896 15.0303 27.6233 14.7238 27.9157C14.5932 28.0397 14.3756 28.058 14.2359 27.9601C14.0927 27.859 14.1652 27.7427 14.2214 27.631C14.4753 27.1136 14.7564 26.6023 14.9069 26.0558C15.1699 25.0946 15.4909 24.1455 15.7139 23.1766C15.9298 22.2459 16.1546 21.3152 16.3523 20.3815C16.5282 19.5488 16.579 18.6977 16.5953 17.8497C16.6352 15.6546 16.4593 13.4672 16.2743 11.2799C16.1419 9.72771 15.9261 8.18474 15.5779 6.65556C15.402 5.88408 15.2388 5.11413 15.3313 4.32428C15.3386 4.26152 15.2987 4.16662 15.4202 4.15437C15.5308 4.14213 15.5399 4.23397 15.5725 4.2952C15.8318 4.78656 15.9896 5.30547 16.1365 5.82591C16.5445 7.26632 16.7531 8.73427 16.9417 10.2022C17.1376 11.736 17.2047 13.279 17.2863 14.8189C17.3606 16.2394 17.3588 17.6614 17.23 19.0804C17.1702 19.734 17.0596 20.383 16.8927 21.0259C16.7875 21.43 16.6969 21.8372 16.6026 22.2428C16.4375 22.9623 16.2634 23.6786 16.0422 24.3874C15.937 24.7241 15.8209 25.0609 15.7593 25.3992C15.8536 25.3334 15.9152 25.2415 15.966 25.1435C16.1963 24.6889 16.4466 24.2404 16.6679 23.7812C17.0831 22.9133 17.4966 22.0469 17.8484 21.1606C18.2148 20.2361 18.4596 19.2824 18.7244 18.3349C18.9329 17.591 19.1886 16.8578 19.3537 16.1047C19.4607 15.6164 19.5695 15.1281 19.6837 14.6413C19.8814 13.7963 20.05 12.9499 20.0355 12.085C20.0138 10.8176 20.0301 9.55014 19.749 8.29343C19.5695 7.49133 19.3972 6.6923 19.0834 5.91775C18.8858 5.42639 18.5648 4.98555 18.3091 4.51868C17.8503 3.67985 17.1412 3.01246 16.3378 2.4063C15.9298 2.10015 15.4528 1.87973 14.9704 1.66543C14.5841 1.49399 14.1997 1.31642 13.8569 1.08222C13.8116 1.05008 13.7572 1.01181 13.6937 1.03171C13.6121 1.05773 13.652 1.12202 13.6592 1.16488C13.6883 1.3302 13.5577 1.43888 13.4688 1.55981C13.3818 1.67767 13.2693 1.78482 13.1932 1.90728C12.9629 2.27925 12.7579 2.66192 12.5222 3.03083C12.1957 3.53902 11.8113 4.02579 11.5882 4.57532C11.1584 5.63457 10.7014 6.68464 10.3822 7.77758C10.0105 9.05572 9.79465 10.3522 9.56252 11.6488C9.45734 12.2304 9.52081 12.8198 9.50087 13.406C9.46641 14.3933 9.43014 15.3791 9.52625 16.3679C9.626 17.3828 9.59154 18.4053 9.76745 19.4171C9.90165 20.1917 10.0322 20.9662 10.1628 21.7423C10.2353 22.1724 10.3913 22.5857 10.4856 23.0128C10.696 23.9588 10.9208 24.9002 11.3162 25.8063C11.3905 25.9762 11.4359 26.1538 11.4957 26.3283L11.4994 26.3237ZM10.8076 33.4488L11.339 34.8948C11.3486 34.921 11.3798 34.9371 11.4117 34.932C11.6779 34.8896 11.7246 34.8567 11.9879 34.7633C12.2899 34.6562 12.5704 34.5177 12.8283 34.3456C12.9335 34.2754 13.1586 34.1174 13.2988 34.0187C13.3717 33.9674 13.3991 33.8834 13.3679 33.8077C13.3591 33.7864 13.3459 33.7665 13.329 33.749L13.2607 33.6785C13.204 33.6199 13.1364 33.5694 13.0607 33.5288L12.2375 33.088L10.4967 32.231C10.4462 32.2062 10.3858 32.2463 10.4024 32.2935L10.8076 33.4488ZM9.74764 32.179C9.74506 32.1711 9.73354 32.1681 9.72618 32.1735L9.46362 32.3661C9.31288 32.4767 9.16672 32.6612 9.08963 32.8167C9.05365 32.8893 9.05054 32.9161 9.03218 32.9933L9.01445 33.0678C8.9843 33.1945 8.96862 33.3234 8.96763 33.4526L8.96693 33.5436C8.96574 33.6979 8.9765 33.8522 8.9991 34.0049C9.09159 34.3079 9.44283 34.5192 9.75294 34.6768C9.84037 34.7216 10.3476 34.8604 10.5565 34.9166C10.5954 34.9271 10.6322 34.8969 10.6214 34.8637L9.74764 32.179Z" fill="#053B4A"/>
<path d="M4.73138 14.2325C4.69874 13.6508 4.80574 13.0798 4.80936 12.5073C4.81662 11.4741 4.99434 10.4547 5.11584 9.43061C5.24279 8.36982 5.55471 7.34577 6.07338 6.36152C6.60473 5.35431 7.1234 4.34404 7.92316 3.46541C8.37472 2.96946 8.92603 2.5531 9.55894 2.22094C10.2318 1.86734 10.9209 1.5413 11.6717 1.31781C11.7007 1.30863 11.7279 1.29791 11.7569 1.29026C11.824 1.27342 11.8984 1.25659 11.9419 1.31628C11.9927 1.38823 11.9074 1.4219 11.8585 1.44945C11.61 1.59334 11.3561 1.72958 11.1041 1.87193C10.5346 2.19338 9.96154 2.51024 9.43018 2.87914C8.8553 3.2756 8.4128 3.76237 8.03197 4.29046C7.57678 4.92112 7.21407 5.5931 6.8822 6.27733C6.66458 6.7243 6.43427 7.16668 6.26017 7.62895C6.01535 8.27645 5.89747 8.94384 5.80679 9.61429C5.67078 10.6077 5.54383 11.6027 5.48036 12.6022C5.36248 14.4866 5.36974 16.3647 5.94825 18.2062C6.15861 18.8767 6.26924 19.5655 6.48867 20.2359C6.86044 21.3763 7.45165 22.4248 8.26047 23.3923C8.59053 23.7857 8.84623 24.2219 9.15997 24.626C9.56438 25.1465 10.0141 25.6424 10.3968 26.1766C10.9082 26.8884 11.5193 27.5466 11.98 28.286C12.0435 28.3855 12.1378 28.4712 12.2121 28.5676C12.2357 28.5982 12.2466 28.6441 12.1958 28.6686C12.1523 28.6885 12.1287 28.6533 12.1051 28.6319C11.6028 28.1911 11.1131 27.741 10.725 27.2221C10.1211 26.4154 9.52086 25.6072 8.9224 24.799C8.37472 24.0597 7.76538 23.3555 7.19957 22.6284C6.55396 21.8018 6.16768 20.8773 5.82855 19.9359C5.56741 19.2119 5.29901 18.4879 5.12128 17.7439C4.97439 17.1255 4.84019 16.5056 4.8148 15.8719C4.79123 15.3239 4.70055 14.7789 4.73319 14.2371L4.73138 14.2325Z" fill="#053B4A"/>
</svg>
