<svg width="90" height="90" viewBox="0 0 90 90" fill="none" xmlns="http://www.w3.org/2000/svg">
<g opacity="0.9">
<path d="M89.2684 47.7395C88.6364 62.3262 80.0959 76.5714 67.1845 84.0312C54.2731 91.4899 37.3881 91.7725 24.66 84.4715C11.9307 77.1716 5.01246 62.5065 5.21861 47.9142C5.54766 24.6234 18.2774 14.1404 27.0023 9.57199C44.4884 0.416165 62.9572 4.51924 72.6191 10.8211C84.1697 18.355 89.8639 34.0109 89.2684 47.7395Z" fill="#ADD7DA"/>
<path d="M80.8416 18.8212C78.558 14.8801 75.6644 11.3679 72.138 8.55758C69.0674 6.11058 65.5299 4.33073 61.8562 3.02761C52.7825 -0.191093 42.747 -0.701429 33.3398 1.79694C26.3154 3.66245 19.5934 7.12246 14.1705 12.1747C8.72127 17.2513 4.81072 23.9049 2.77311 31.1245C0.141299 40.4493 -0.0597771 50.6722 2.72603 59.8783C5.44946 68.8785 10.8873 76.9179 18.5444 82.1229C26.6305 87.6194 36.7281 89.6776 46.4041 88.7406C56.1039 87.8012 65.4034 83.6516 72.6233 76.7793C79.5263 70.2087 84.3999 61.4195 86.3175 52.0002C86.7835 49.711 87.0422 47.395 87.1472 45.0665C87.5276 35.9633 85.341 26.5866 80.8416 18.8212ZM84.7576 46.0214C84.756 46.0566 84.7547 46.0844 84.7538 46.1073C84.7521 46.1288 84.7502 46.1548 84.7478 46.1865C84.7294 46.4341 84.7113 46.6817 84.6897 46.9291C84.6379 47.5229 84.573 48.1157 84.4955 48.7069C84.3469 49.8407 84.1518 50.9691 83.9116 52.0879C83.8019 52.5992 83.683 53.1086 83.5548 53.6158C83.545 53.6547 83.5186 53.7564 83.5056 53.8068C83.476 53.9174 83.4463 54.028 83.4157 54.1384C83.336 54.4268 83.2532 54.7145 83.1677 55.0013C82.8392 56.1025 82.4673 57.1907 82.0548 58.263C81.6411 59.3383 81.1864 60.3974 80.6926 61.4374C80.6496 61.5279 80.606 61.6182 80.5627 61.7087C80.5443 61.7471 80.5303 61.7763 80.5196 61.7991C80.5083 61.8212 80.494 61.8493 80.4755 61.886C80.3623 62.1098 80.2496 62.3339 80.134 62.5564C79.856 63.091 79.5677 63.6199 79.2693 64.143C78.1636 66.0801 76.8115 68.0935 75.5061 69.7406C74.1929 71.3973 72.5428 73.1798 70.9087 74.6928C69.213 76.2628 67.6134 77.5258 65.7157 78.7849C61.7631 81.4075 57.4466 83.285 52.9095 84.4281C43.7473 86.7365 33.8224 86.1122 25.2537 82.2603C21.1715 80.4253 17.5264 77.9267 14.4118 74.7376C11.3063 71.5578 8.94518 68.0625 7.05236 63.9918C6.0858 61.913 5.44864 60.202 4.81606 58.0074C4.50275 56.9202 4.23028 55.8198 3.99929 54.7096C3.89889 54.2269 3.80634 53.7423 3.72163 53.2561C3.67082 52.9644 3.62286 52.6722 3.57774 52.3794C3.55517 52.233 3.53369 52.0864 3.5122 51.9399C3.50615 51.8982 3.50195 51.8704 3.49917 51.8521C3.49664 51.8308 3.49289 51.799 3.48692 51.751C3.20968 49.505 3.07095 47.25 3.11215 44.9792C3.15648 42.5413 3.32295 40.3542 3.71213 37.7922C3.87801 36.7004 4.07812 35.6136 4.31574 34.5345C4.42986 34.0161 4.55545 33.5008 4.68398 32.9858C4.69071 32.9589 4.69622 32.9365 4.70088 32.9176C4.70593 32.8994 4.71179 32.8783 4.71879 32.8527C4.75618 32.7168 4.7927 32.5805 4.83058 32.4446C4.90561 32.1757 4.98307 31.9075 5.06306 31.6399C5.6309 29.7411 6.32583 27.88 7.15397 26.0807C7.25871 25.8531 7.36636 25.6269 7.4745 25.401C7.47601 25.3979 7.47702 25.3958 7.47843 25.3928C7.5274 25.2945 7.57627 25.1962 7.62593 25.0982C7.84586 24.6641 8.07376 24.234 8.3095 23.8085C8.73795 23.0354 9.19258 22.2773 9.67257 21.5363C10.1342 20.8237 10.6192 20.1271 11.1268 19.448C11.2589 19.2713 11.3925 19.0956 11.5277 18.9213C11.5725 18.8636 11.6176 18.8061 11.6625 18.7485C11.4304 19.0464 11.6595 18.7532 11.7007 18.7019C11.9702 18.3664 12.2452 18.0357 12.5256 17.7098C13.5293 16.5437 14.6024 15.441 15.7348 14.4074C16.2808 13.9089 16.8407 13.4265 17.4131 12.9604C17.5344 12.8617 17.6563 12.7637 17.7787 12.6664C17.8516 12.6084 17.925 12.5511 17.998 12.4934C17.9602 12.5232 17.932 12.5456 17.9109 12.5623C17.9479 12.5331 17.9951 12.4961 18.016 12.4802C18.2817 12.2777 18.5482 12.0764 18.8178 11.8796C21.2929 10.0735 23.9603 8.56639 26.7368 7.32707C35.7281 3.314 45.8298 2.45201 55.2919 4.48393C59.1934 5.32177 62.7593 6.54861 66.2985 8.44173C69.8774 10.3562 72.8463 12.7999 75.4677 15.9642C78.1415 19.1916 80.228 22.9502 81.7934 27.025C81.8369 27.1383 81.8797 27.2518 81.9226 27.3653C81.9384 27.4071 81.9505 27.4389 81.9595 27.4625C81.968 27.4865 81.9794 27.5189 81.9948 27.5622C82.0761 27.791 82.1579 28.0197 82.2368 28.2495C82.4262 28.8009 82.6055 29.3561 82.7747 29.9147C83.0986 30.9837 83.3856 32.0652 83.6357 33.1563C83.8737 34.195 84.0785 35.2423 84.2492 36.2961C84.2956 36.5822 84.3386 36.8689 84.3807 37.1557C84.3857 37.1895 84.3896 37.2163 84.3929 37.2384C84.3958 37.2619 84.3995 37.2918 84.4044 37.331C84.4165 37.4266 84.4294 37.5221 84.4414 37.6177C84.5136 38.1895 84.5756 38.7628 84.6274 39.3372C84.8144 41.4078 84.8664 43.4921 84.7793 45.5749C84.7727 45.7238 84.7646 45.8725 84.7576 46.0214Z" fill="#020909"/>
<path d="M33.8207 54.3458C30.6493 56.5341 25.9961 54.369 25.9961 50.516C25.9961 49.198 26.5757 47.9472 27.6102 47.1306C31.1752 44.3168 39.7779 37.9375 44.4961 37.9375C48.9521 37.9375 57.957 42.2729 62.3985 44.5606C64.015 45.3933 64.9961 47.0659 64.9961 48.8842V49.1945C64.9961 53.0617 60.7604 55.5214 57.2875 53.82C52.8617 51.6518 47.5856 49.4375 44.4961 49.4375C41.687 49.4375 37.5008 51.8066 33.8207 54.3458Z" fill="#F8ECAE"/>
<path d="M62.2758 48.8548C59.7421 43.0708 54.8433 38.338 48.6497 36.727C42.5793 35.1478 35.7059 36.9238 31.4256 41.5737C28.7165 44.5163 27.0969 48.2921 25.5177 51.9145C25.2228 52.5913 24.2309 52.7464 23.6466 52.405C22.9478 51.9961 22.8601 51.2138 23.1562 50.534C24.7072 46.9716 26.3226 43.422 28.8171 40.4046C31.1282 37.6091 34.237 35.5928 37.6701 34.4575C44.5858 32.1714 52.049 33.8303 57.6572 38.3546C60.761 40.8583 63.131 44.1791 64.6428 47.8556C65.1976 49.2018 62.865 50.1986 62.2758 48.8548Z" fill="#020909"/>
<path d="M56.7308 44.7658C58.2187 45.6357 59.6495 46.5982 61.0945 47.538C61.797 47.9947 62.5014 48.4477 63.2088 48.8965C63.4265 49.0344 63.6447 49.1711 63.8624 49.3085C63.9574 49.0522 64.0536 48.796 64.145 48.5385C64.2847 48.1449 64.4227 47.7513 64.5588 47.3565C64.5704 47.3222 64.5894 47.267 64.5949 47.2517C64.6268 47.1573 64.6593 47.0629 64.6912 46.9685C64.7629 46.7564 64.8346 46.5436 64.9051 46.3309C65.1651 45.5505 65.4213 44.7683 65.6739 43.9854C65.7965 43.6053 65.9173 43.2246 66.0423 42.8457C66.2079 42.3449 66.3948 41.7214 66.786 41.3432C67.0968 41.0428 67.472 40.8699 67.9134 40.9606C68.2898 41.0379 68.7017 41.3438 68.7937 41.7374C69.015 42.6864 68.6515 43.6347 68.3787 44.539C68.1267 45.3739 67.8619 46.204 67.5848 47.0304C67.1017 48.4741 66.0338 51.9685 65.8517 52.2425C65.5813 52.6496 65.1786 52.8316 64.7458 52.8353C64.4638 52.8794 64.1726 52.8451 63.9304 52.7127C63.7851 52.6336 62.2776 51.608 61.9018 51.3689C61.1729 50.9048 60.4465 50.4371 59.7225 49.965C58.2217 48.986 56.7247 47.9996 55.3208 46.8857C54.194 45.9925 55.4624 44.0246 56.7308 44.7658Z" fill="#020909"/>
</g>
</svg>
