<svg width="375" height="2199" viewBox="0 0 375 2199" fill="none" xmlns="http://www.w3.org/2000/svg">
<path d="M457.066 35.5756C466.838 26.0402 462.661 9.50537 449.532 5.75536L445.344 4.55888C438.304 2.54805 430.956 6.57292 428.861 13.5878C426.051 22.9933 414.402 26.2654 407.106 19.6985L388.164 2.65022C381.402 -3.43669 371.168 4.16521 375.042 12.398C377.911 18.4964 372.735 25.3031 366.092 24.167L274.499 8.50413C267.386 7.28775 260.18 10.0733 255.734 15.7575L244.478 30.1481C239.102 37.0219 228.181 34.7738 225.957 26.3354C224.347 20.2292 217.772 16.8929 211.894 19.1995L174.06 34.0451C161.911 38.8123 148.142 33.3931 142.501 21.6242L140.72 17.9087C133.602 3.0578 113.404 0.763073 103.136 13.6388L102.469 14.475C95.4388 23.2903 82.738 25.0594 73.5666 18.5008L68.2471 14.6967C57.541 7.04061 42.5445 13.6504 40.9726 26.7181C39.7032 37.271 29.317 44.2022 19.085 41.3249L-48.486 22.3235C-59.1237 19.3321 -68.4753 30.0142 -64.1036 40.1628C-63.438 41.7078 -63.0755 43.3663 -63.0357 45.0481L-11.3084 2230.5H387.876L465.094 196.004C465.561 183.701 465.076 171.38 463.642 159.152L451.017 51.4468C450.356 45.8063 452.349 40.1783 456.414 36.2121L457.066 35.5756Z" fill="#FCFCFC"/>
</svg>
