<svg width="144" height="150" viewBox="0 0 144 150" fill="none" xmlns="http://www.w3.org/2000/svg">
<path fill-rule="evenodd" clip-rule="evenodd" d="M98.7868 2.74945C97.4283 3.66803 96.4292 6.22513 96.7235 7.98583C97.0454 9.9431 97.7687 11.2194 99.2174 12.4015C102.067 14.7093 105.024 14.3732 107.333 11.497C109.496 8.80512 108.61 3.93827 105.623 2.25861C103.644 1.14678 100.876 1.31752 98.7868 2.74945ZM102.925 5.84439C104.086 5.91575 105.52 7.47766 105.334 8.50009C105.17 9.37838 104.276 10.5609 103.621 10.7725C102.967 10.9841 101.905 10.1596 101.213 8.86983C100.756 8.0915 100.769 7.70874 101.193 6.88362C101.785 5.73002 101.734 5.7826 102.925 5.84439Z" fill="#053B4A"/>
<path fill-rule="evenodd" clip-rule="evenodd" d="M61.9491 25.8568C60.6035 28.6271 60.4684 43.3412 61.6821 52.5314L62.2319 56.6817L58.9432 57.8133C54.5318 59.3077 49.6376 61.7475 40.9711 66.8188C38.103 68.5026 34.6329 70.4494 33.2764 71.1619C30.5865 72.5467 29.6673 73.4276 29.5093 74.7507C29.3504 75.9697 30.1285 76.9902 31.6897 77.5488C34.5604 78.6463 48.0846 80.9414 54.126 81.3924C56.1773 81.5545 58.0717 81.7674 58.3807 81.873C58.815 82.0425 59.1884 82.985 60.319 87.1205C61.7111 92.0652 64.3445 99.2505 67.0294 105.219C68.6924 108.977 70.5934 111.66 72.1601 112.458C73.1902 112.983 73.5021 112.986 74.5742 112.467C75.4998 112.031 76.0371 111.446 76.8172 109.922C77.3873 108.811 77.8226 107.81 77.7825 107.686C77.7319 107.529 78.0795 106.044 78.5209 104.322C79.663 100.072 81.6233 90.7821 82.5829 84.9045C83.0568 82.2105 83.4317 79.9596 83.4413 79.888C83.4634 79.8449 86.1559 81.1403 89.405 82.7711C96.5643 86.3669 102.796 89.2286 105.1 89.9612C107.934 90.8327 110.162 89.6296 110.041 87.2293C110.002 85.8329 107.179 79.2243 104.673 74.6721C103.116 71.8781 100.63 67.597 100.282 67.1582C100.107 66.9408 99.7808 66.3579 99.5583 65.8819C99.3453 65.4355 98.6419 64.2212 98.0304 63.1795C97.4294 62.1702 96.899 61.2784 96.8789 61.2164C96.8589 61.1544 97.5418 60.2813 98.4305 59.3059C100.309 57.1202 102.389 54.3864 102.412 54.0332C102.424 53.8566 102.581 53.7047 102.771 53.6434C103.955 53.2604 108.246 45.1059 110.157 39.6121C111.64 35.3527 111.178 32.9613 108.716 32.2794C107.622 31.9809 107.714 31.9512 99.8805 35.8562C94.0031 38.7867 94.3075 38.6557 87.2905 41.4717C82.6588 43.3472 81.785 43.6297 81.2915 43.3782C80.9921 43.201 79.7121 41.6904 78.4838 40.0262C74.2494 34.2846 68.4904 26.8018 67.6881 26.0305C66.2416 24.5411 64.8564 23.9908 63.6094 24.3939C62.7701 24.6619 62.3401 25.0422 61.9491 25.8568ZM70.4158 37.4449C77.1564 46.4663 77.8533 47.2358 79.8459 47.9648C81.5917 48.5682 81.5917 48.5682 84.0804 47.5224C85.4865 46.9635 89.8284 44.8393 93.7674 42.8452C97.7256 40.8091 101.551 38.8877 102.299 38.5414C103.048 38.1951 104.278 37.6279 105.091 37.2606C105.893 36.8646 106.538 36.7246 106.588 36.8811C106.779 37.4717 102.646 45.5755 100.478 48.8887C97.9296 52.7359 94.9901 56.5367 93.7147 57.6012C92.2727 58.7881 91.7892 60.3893 92.3619 62.1611C92.633 62.9998 94.6596 66.7087 96.8823 70.3868C100.645 76.5908 104.327 83.6099 104.33 84.47C104.314 85.0589 97.7475 82.2337 90.7988 78.6415C84.9299 75.6267 82.9785 74.8125 82.1047 75.095C81.6692 75.2357 80.0928 78.2534 79.3688 80.2748C79.0896 81.1217 78.3574 83.8665 77.7536 86.3611C77.1478 88.8596 76.4009 91.9842 76.0764 93.3285C75.751 94.6698 74.9945 97.7649 74.4118 100.223C72.7251 107.262 72.973 107.078 71.0137 103.041C67.287 95.3476 64.561 88.0879 63.0779 81.9007L62.3512 78.8022L60.7214 77.9201C59.3384 77.1636 57.8086 76.9047 50.9121 76.2474C46.4286 75.8081 41.4256 75.2596 39.8528 74.9787C37.2974 74.5327 37.018 74.4175 37.5398 74.0075C38.887 72.9523 49.6027 67.0849 52.6838 65.7465C54.5149 64.9132 57.6834 63.4097 59.7558 62.3614C62.7146 60.8571 63.6918 60.4695 64.3127 60.5786C64.8714 60.7079 65.2772 60.5767 65.7072 60.1964C66.1898 59.7664 66.2669 59.0533 66.0535 56.6826C65.9447 55.0707 65.7577 53.2068 65.6913 52.576C65.3811 50.341 65.0752 42.5729 65.1368 38.6033C65.2109 33.1847 65.4403 31.121 65.9317 31.5786C66.1422 31.7845 68.1677 34.4273 70.4158 37.4449Z" fill="#053B4A"/>
<path fill-rule="evenodd" clip-rule="evenodd" d="M7.2388 44.0203C6.37132 44.7476 5.18885 46.9497 4.94567 48.2319C4.58326 50.4103 6.39499 53.4646 8.81113 54.6438C12.1942 56.2639 15.7855 54.7932 16.7958 51.4106C17.4175 49.2853 17.0578 48.0611 15.1515 45.9995C12.094 42.7249 9.58081 42.0957 7.2388 44.0203ZM12.3416 49.0376C13.0787 49.83 13.6312 50.5777 13.5995 50.6923C13.3465 51.185 11.446 51.4895 10.8176 51.1446C9.75697 50.5253 9.17802 49.372 9.57955 48.5899C10.2206 47.3846 10.9142 47.5061 12.3416 49.0376Z" fill="#053B4A"/>
<path fill-rule="evenodd" clip-rule="evenodd" d="M114.228 111.154C113.047 112.087 111.668 114.216 111.469 115.516C111.15 117.302 112.388 119.958 114.036 121.007C115.746 122.137 118.319 122.748 119.93 122.399C122.61 121.843 124.896 119.421 125.346 116.663C125.643 115.021 124.797 112.617 123.512 111.314C122.115 109.978 121.724 109.83 119.266 109.799C117.02 109.772 115.504 110.194 114.228 111.154ZM120.551 113.438C121.551 113.973 121.871 116.136 121.092 117.249C119.663 119.224 116.303 119.175 115.65 117.152C115.388 116.343 115.93 114.932 116.788 114.276C117.552 113.654 119.942 113.156 120.551 113.438Z" fill="#053B4A"/>
</svg>
