<svg width="25" height="24" viewBox="0 0 25 24" fill="none" xmlns="http://www.w3.org/2000/svg">
<path d="M21.3262 7.48016C21.5914 7.16195 21.5484 6.68903 21.2302 6.42385C20.9119 6.15868 20.439 6.20167 20.1739 6.51988L14.7832 12.9887C13.7003 14.2881 12.9386 15.1994 12.2779 15.796C11.6326 16.3787 11.1873 16.5639 10.75 16.5639C10.3128 16.5639 9.86742 16.3787 9.22213 15.796C8.56143 15.1994 7.79969 14.2881 6.71686 12.9887L5.32618 11.3199C5.06101 11.0017 4.58809 10.9587 4.26988 11.2239C3.95167 11.489 3.90868 11.9619 4.17385 12.2802L5.60312 13.9953C6.63839 15.2376 7.46748 16.2326 8.21684 16.9092C8.99089 17.6082 9.78216 18.0639 10.75 18.0639C11.7179 18.0639 12.5091 17.6082 13.2832 16.9092C14.0326 16.2326 14.8616 15.2377 15.8969 13.9953L21.3262 7.48016Z" fill="#053B4A"/>
</svg>
