<svg width="20" height="21" viewBox="0 0 20 21" fill="none" xmlns="http://www.w3.org/2000/svg">
<g clip-path="url(#clip0_3365_152591)">
<path d="M16.364 14.9699C16.0712 14.677 15.5963 14.677 15.3034 14.9699C15.0105 15.2628 15.0105 15.7377 15.3034 16.0306L16.364 14.9699ZM18.6366 19.3639C18.9295 19.6567 19.4044 19.6568 19.6973 19.3639C19.9902 19.071 19.9902 18.5961 19.6973 18.3032L18.6366 19.3639ZM7.79915 4.62556C8.20826 4.56076 8.48738 4.17658 8.42259 3.76746C8.35779 3.35835 7.97361 3.07923 7.56449 3.14402L7.79915 4.62556ZM3.4775 7.23102C3.4127 7.64014 3.69182 8.02432 4.10094 8.08911C4.51005 8.15391 4.89423 7.87479 4.95903 7.46567L3.4775 7.23102ZM15.8337 15.5002L15.3034 16.0306L18.6366 19.3639L19.167 18.8335L19.6973 18.3032L16.364 14.9699L15.8337 15.5002ZM9.16699 16.3335V15.5835C5.43907 15.5835 2.41699 12.5614 2.41699 8.8335H1.66699H0.916992C0.916992 13.3898 4.61064 17.0835 9.16699 17.0835V16.3335ZM16.667 8.8335H15.917C15.917 12.5614 12.8949 15.5835 9.16699 15.5835V16.3335V17.0835C13.7233 17.0835 17.417 13.3898 17.417 8.8335H16.667ZM9.16699 1.3335V2.0835C12.8949 2.0835 15.917 5.10557 15.917 8.8335H16.667H17.417C17.417 4.27715 13.7233 0.583496 9.16699 0.583496V1.3335ZM9.16699 1.3335V0.583496C4.61064 0.583496 0.916992 4.27715 0.916992 8.8335H1.66699H2.41699C2.41699 5.10557 5.43907 2.0835 9.16699 2.0835V1.3335ZM7.68182 3.88479L7.56449 3.14402C5.46069 3.47723 3.81071 5.12722 3.4775 7.23102L4.21826 7.34835L4.95903 7.46567C5.19058 6.00371 6.33718 4.85711 7.79915 4.62556L7.68182 3.88479Z" fill="currentColor"/>
</g>
<defs>
<clipPath id="clip0_3365_152591">
<rect width="20" height="20" fill="white" transform="translate(0 0.5)"/>
</clipPath>
</defs>
</svg>
