<svg width="21" height="20" viewBox="0 0 21 20" fill="none" xmlns="http://www.w3.org/2000/svg">
<g clip-path="url(#clip0_1423_246239)">
<path fill-rule="evenodd" clip-rule="evenodd" d="M11.4583 4.16699C11.4583 3.82181 11.1785 3.54199 10.8333 3.54199C10.4882 3.54199 10.2083 3.82181 10.2083 4.16699V4.42373C9.93604 4.49205 9.66885 4.59878 9.41445 4.74565C7.14624 6.05521 7.43452 9.41607 9.89261 10.3202L10.2083 10.4364V14.3499C9.76261 14.2241 9.36438 13.9311 9.11504 13.4993L8.80207 12.9572C8.62948 12.6583 8.24724 12.5559 7.94831 12.7284C7.64937 12.901 7.54695 13.2833 7.71954 13.5822L8.03251 14.1243C8.51456 14.9592 9.32723 15.4833 10.2083 15.6282V15.8337C10.2083 16.1788 10.4882 16.4587 10.8333 16.4587C11.1785 16.4587 11.4583 16.1788 11.4583 15.8337V15.577C11.7307 15.5087 11.9979 15.4019 12.2524 15.255C14.5206 13.9454 14.2323 10.5846 11.7742 9.68043L11.4583 9.56426L11.4583 5.65075C11.9041 5.77645 12.3024 6.06946 12.5518 6.50137L12.8648 7.04345C13.0374 7.34238 13.4196 7.44481 13.7185 7.27222C14.0175 7.09963 14.1199 6.71738 13.9473 6.41845L13.6343 5.87637C13.1523 5.04138 12.3395 4.51725 11.4583 4.3724V4.16699ZM10.0394 5.82819C10.0949 5.79616 10.1513 5.76738 10.2083 5.74176L10.2083 9.10028C8.85251 8.50153 8.72553 6.58678 10.0394 5.82819ZM11.6274 14.1725C11.5719 14.2045 11.5155 14.2333 11.4583 14.259V10.9003C12.8143 11.499 12.9414 13.4138 11.6274 14.1725Z" fill="#053B4A"/>
<path fill-rule="evenodd" clip-rule="evenodd" d="M10.8333 1.04199C5.88578 1.04199 1.875 5.05277 1.875 10.0003C1.875 14.9479 5.88578 18.9587 10.8333 18.9587C15.7809 18.9587 19.7917 14.9479 19.7917 10.0003C19.7917 5.05277 15.7809 1.04199 10.8333 1.04199ZM3.125 10.0003C3.125 5.74313 6.57614 2.29199 10.8333 2.29199C15.0905 2.29199 18.5417 5.74313 18.5417 10.0003C18.5417 14.2575 15.0905 17.7087 10.8333 17.7087C6.57614 17.7087 3.125 14.2575 3.125 10.0003Z" fill="#053B4A"/>
<path fill-rule="evenodd" clip-rule="evenodd" d="M11.4583 4.16699C11.4583 3.82181 11.1785 3.54199 10.8333 3.54199C10.4882 3.54199 10.2083 3.82181 10.2083 4.16699V4.42373C9.93604 4.49205 9.66885 4.59878 9.41445 4.74565C7.14624 6.05521 7.43452 9.41607 9.89261 10.3202L10.2083 10.4364V14.3499C9.76261 14.2241 9.36438 13.9311 9.11504 13.4993L8.80207 12.9572C8.62948 12.6583 8.24724 12.5559 7.94831 12.7284C7.64937 12.901 7.54695 13.2833 7.71954 13.5822L8.03251 14.1243C8.51456 14.9592 9.32723 15.4833 10.2083 15.6282V15.8337C10.2083 16.1788 10.4882 16.4587 10.8333 16.4587C11.1785 16.4587 11.4583 16.1788 11.4583 15.8337V15.577C11.7307 15.5087 11.9979 15.4019 12.2524 15.255C14.5206 13.9454 14.2323 10.5846 11.7742 9.68043L11.4583 9.56426L11.4583 5.65075C11.9041 5.77645 12.3024 6.06946 12.5518 6.50137L12.8648 7.04345C13.0374 7.34238 13.4196 7.44481 13.7185 7.27222C14.0175 7.09963 14.1199 6.71738 13.9473 6.41845L13.6343 5.87637C13.1523 5.04138 12.3395 4.51725 11.4583 4.3724V4.16699ZM10.0394 5.82819C10.0949 5.79616 10.1513 5.76738 10.2083 5.74176L10.2083 9.10028C8.85251 8.50153 8.72553 6.58678 10.0394 5.82819ZM11.6274 14.1725C11.5719 14.2045 11.5155 14.2333 11.4583 14.259V10.9003C12.8143 11.499 12.9414 13.4138 11.6274 14.1725Z" stroke="#053B4A" stroke-width="0.5" stroke-linecap="round"/>
<path fill-rule="evenodd" clip-rule="evenodd" d="M10.8333 1.04199C5.88578 1.04199 1.875 5.05277 1.875 10.0003C1.875 14.9479 5.88578 18.9587 10.8333 18.9587C15.7809 18.9587 19.7917 14.9479 19.7917 10.0003C19.7917 5.05277 15.7809 1.04199 10.8333 1.04199ZM3.125 10.0003C3.125 5.74313 6.57614 2.29199 10.8333 2.29199C15.0905 2.29199 18.5417 5.74313 18.5417 10.0003C18.5417 14.2575 15.0905 17.7087 10.8333 17.7087C6.57614 17.7087 3.125 14.2575 3.125 10.0003Z" stroke="#053B4A" stroke-width="0.5" stroke-linecap="round"/>
</g>
<defs>
<clipPath id="clip0_1423_246239">
<rect width="20" height="20" fill="white" transform="translate(0.833984)"/>
</clipPath>
</defs>
</svg>
