<svg width="42" height="32" viewBox="0 0 42 32" fill="none" xmlns="http://www.w3.org/2000/svg">
<path d="M15.6743 31.5537C15.2761 31.5503 14.8789 31.5243 14.4826 31.4886C14.1089 31.4548 13.7406 31.399 13.3703 31.3431C12.9809 31.2848 12.5949 31.2226 12.209 31.1423C11.631 31.0228 11.0599 30.8616 10.5064 30.6569C10.189 30.5393 9.87162 30.4223 9.55423 30.3047C8.32776 29.8517 7.16594 29.2169 6.08543 28.4846C5.46436 28.0629 4.8717 27.601 4.31332 27.0989C3.77943 26.6185 3.28962 26.0978 2.83361 25.5428C2.3727 24.9825 1.9647 24.3825 1.58755 23.7634C1.20844 23.1413 0.890067 22.483 0.639287 21.7988C0.385078 21.1028 0.229325 20.373 0.133323 19.6387C0.0348723 18.8884 0.033891 18.1287 0.102464 17.3758C0.171526 16.621 0.341979 15.8751 0.563861 15.1511C0.783783 14.4336 1.06052 13.7332 1.38477 13.0562C1.70853 12.3798 2.08471 11.7303 2.49565 11.1039C2.89925 10.4892 3.33518 9.89554 3.80882 9.33275C4.76051 8.20032 5.86404 7.19132 7.04545 6.3033C7.54995 5.92419 8.07943 5.57055 8.6236 5.2512C8.9792 5.04254 9.33479 4.83389 9.69088 4.62523C9.91031 4.49641 10.1386 4.38376 10.3639 4.26572C10.5618 4.16237 10.7592 4.05901 10.9575 3.95566C11.0491 3.90766 11.1397 3.8582 11.2343 3.81558C11.2215 3.82146 11.2093 3.82685 11.197 3.83273C11.6707 3.61623 12.1448 3.39876 12.6189 3.18276C12.8364 3.08676 13.0627 3.00839 13.2836 2.92169C13.5589 2.81393 13.8337 2.70666 14.1084 2.59842C14.1608 2.57785 14.2162 2.56266 14.2701 2.54503C14.4381 2.48968 14.6061 2.43384 14.7741 2.37899C15.0636 2.28347 15.3535 2.18747 15.643 2.09196C15.8649 2.01849 16.0966 1.97098 16.3224 1.9122C16.6133 1.83677 16.9042 1.76085 17.1957 1.6864C17.251 1.6722 17.3078 1.66387 17.3637 1.6531C17.5371 1.6193 17.7114 1.58599 17.8848 1.55219C18.1851 1.4944 18.4848 1.43611 18.7851 1.37831C19.0212 1.33276 19.2612 1.30141 19.4992 1.26615C19.8333 1.21668 20.1678 1.17504 20.5038 1.14174C21.1891 1.07365 21.8807 1.04426 22.5688 1.05798C22.8946 1.06435 23.2203 1.08835 23.5445 1.11774C23.7189 1.13341 23.8943 1.14712 24.0672 1.17308C24.3767 1.21863 24.6858 1.26419 24.9948 1.30974C25.9676 1.45325 26.9345 1.64673 27.871 1.9509C28.4872 2.15074 29.0832 2.41866 29.6406 2.74928C29.886 2.89475 30.128 3.06423 30.3308 3.26505C30.4895 3.42178 30.6565 3.6128 30.7065 3.83664C30.7226 3.90913 30.7221 3.98211 30.7065 4.05069C30.9283 4.19812 31.1463 4.35094 31.3584 4.5116C31.7546 4.81136 32.1176 5.15275 32.4756 5.4961C32.84 5.84484 33.2001 6.2073 33.5106 6.60503C34.1611 7.4372 34.7047 8.34187 35.1397 9.30434C35.3508 9.77064 35.5335 10.2521 35.6716 10.7453C35.7436 11.0025 35.8122 11.2601 35.8783 11.5192C35.9449 11.7808 35.9915 12.0492 36.0448 12.3137C36.2481 13.3296 36.3554 14.3675 36.3715 15.4034C36.3794 15.9211 36.3593 16.4388 36.3 16.9531C36.2398 17.4816 36.1609 18.0082 36.0306 18.5244C35.894 19.0642 35.747 19.6035 35.5595 20.128C35.5663 20.1085 35.5737 20.0889 35.58 20.0693C35.4899 20.3225 35.4047 20.5782 35.3028 20.8265C35.247 20.9627 35.1906 21.0988 35.1343 21.235C35.0819 21.3624 35.0187 21.4858 34.9609 21.6112C34.8434 21.8649 34.7121 22.1108 34.5843 22.3591C34.5309 22.462 34.4682 22.5604 34.4094 22.6608C34.3516 22.7608 34.2958 22.8616 34.2326 22.9581C34.0798 23.1932 33.9274 23.4279 33.7648 23.6561C33.6776 23.7786 33.5909 23.9005 33.5037 24.023C33.4278 24.1298 33.3392 24.2292 33.2579 24.332C33.1814 24.4276 33.1085 24.5265 33.0252 24.6156C32.914 24.7352 32.8023 24.8552 32.6907 24.9747C32.5075 25.1716 32.3067 25.3508 32.1102 25.535C31.9202 25.7138 31.7115 25.8744 31.5122 26.042C31.2986 26.2212 31.0714 26.3843 30.85 26.5528C30.6428 26.7115 30.4243 26.855 30.2108 27.0044C30.0109 27.1435 29.8067 27.2733 29.6005 27.4041C29.3923 27.5359 29.1866 27.6706 28.973 27.7935C28.7179 27.9409 28.4627 28.0884 28.2075 28.2353C28.1178 28.2867 28.0238 28.3323 27.9317 28.3808C27.7583 28.4724 27.584 28.5644 27.4101 28.656C27.2171 28.7579 27.0207 28.851 26.8238 28.946C26.5892 29.0587 26.357 29.1811 26.1175 29.284C25.8207 29.4113 25.5229 29.5382 25.226 29.6655C24.7406 29.8732 24.2391 30.0402 23.7434 30.2205C23.5215 30.3008 23.2884 30.3576 23.0626 30.4237C22.8921 30.4742 22.7212 30.5247 22.5507 30.5746C22.4768 30.5967 22.4033 30.6221 22.3279 30.6398C22.0256 30.7113 21.7234 30.7842 21.4207 30.8562C21.2317 30.9013 21.0436 30.9483 20.8526 30.9851C20.5053 31.0512 20.158 31.1173 19.8107 31.1829C19.6153 31.2202 19.4199 31.2471 19.2225 31.2745C18.8948 31.3201 18.5671 31.3656 18.2395 31.4107C18.021 31.4411 17.7977 31.4484 17.5772 31.4661C17.3049 31.4881 17.0321 31.5096 16.7598 31.5317C16.5849 31.5459 16.4076 31.5454 16.2322 31.5493C16.1078 31.5523 15.9839 31.5532 15.8595 31.5532C15.7988 31.5542 15.7365 31.5542 15.6743 31.5537ZM16.6064 30.5736C16.8342 30.5624 17.062 30.5393 17.2892 30.5212C17.5596 30.4992 17.8295 30.4776 18.0994 30.4561C18.1523 30.4522 18.2052 30.4419 18.2581 30.4345C18.4236 30.4115 18.5892 30.3885 18.7552 30.3655C18.9952 30.3322 19.2352 30.2989 19.4747 30.2655C19.8372 30.1955 20.2001 30.1274 20.5631 30.0584C20.8526 30.003 21.1381 29.9315 21.4242 29.8634C21.7146 29.7939 22.0065 29.7302 22.2936 29.6454C22.656 29.5382 23.018 29.4324 23.3804 29.3246C23.7973 29.1738 24.2141 29.0214 24.6309 28.8701C24.6824 28.8515 24.7323 28.8265 24.7832 28.8049C24.9121 28.7496 25.0409 28.6942 25.1702 28.6394C25.371 28.5532 25.5718 28.4665 25.7731 28.3813C26.0367 28.2544 26.3002 28.1275 26.5632 28.0012C26.7728 27.8998 26.9781 27.7925 27.1838 27.6838C27.4081 27.5657 27.6354 27.4511 27.8548 27.3248C28.1169 27.1739 28.3784 27.0221 28.6414 26.8717C29.0039 26.642 29.3673 26.4162 29.7195 26.1708C29.9002 26.0449 30.0854 25.9234 30.2607 25.7902C30.4645 25.6344 30.6678 25.4792 30.8715 25.3234C30.8676 25.3268 30.8632 25.3303 30.8593 25.3337C31.1047 25.128 31.3515 24.9252 31.5857 24.7058C31.7081 24.5912 31.836 24.4805 31.9501 24.3575C32.074 24.2248 32.1984 24.0911 32.3223 23.9578C32.4629 23.7815 32.6035 23.6052 32.7436 23.4288C32.8092 23.3466 32.8665 23.2569 32.9277 23.1712C32.9885 23.085 33.0502 22.9993 33.1114 22.9131C33.2725 22.6657 33.4332 22.4208 33.5816 22.1656C33.6487 22.0505 33.7188 21.9369 33.78 21.8184C33.8628 21.6582 33.9455 21.4975 34.0283 21.3369C34.0185 21.3555 34.0092 21.3741 33.9994 21.3932C34.0822 21.2144 34.165 21.0357 34.2473 20.8569C34.2909 20.7614 34.3271 20.6619 34.3673 20.565C34.402 20.4807 34.4407 20.397 34.4716 20.3112C34.4647 20.3308 34.4574 20.3504 34.451 20.37C34.5196 20.177 34.5882 19.984 34.6572 19.7916C34.74 19.5324 34.8247 19.2743 34.9007 19.0133C34.9795 18.7424 35.0496 18.4701 35.1186 18.1968C35.1686 17.9602 35.2181 17.7251 35.2558 17.4865C35.2984 17.2166 35.3302 16.9468 35.3616 16.6754C35.3802 16.4173 35.3973 16.1606 35.4042 15.902C35.411 15.6419 35.4061 15.3823 35.4027 15.1222C35.3939 14.9557 35.3856 14.7897 35.3768 14.6231C35.3674 14.4444 35.3464 14.2666 35.3317 14.0883C35.3023 13.7439 35.2499 13.4006 35.2009 13.0582C35.1397 12.7178 35.0775 12.3779 35.0035 12.0394C34.9247 11.6755 34.8301 11.3169 34.7292 10.9584C34.6533 10.714 34.5784 10.4681 34.4824 10.2311C34.3824 9.98468 34.2791 9.74222 34.1704 9.50026C34.0778 9.3156 33.9862 9.13046 33.8887 8.94825C33.7829 8.74988 33.6708 8.55543 33.5581 8.36049C33.4239 8.14987 33.2877 7.94121 33.1477 7.73354C33.0159 7.53761 32.8685 7.35198 32.723 7.16536C32.5276 6.93711 32.3272 6.71572 32.1176 6.49971C31.9084 6.28518 31.69 6.07946 31.471 5.87472C31.4872 5.88941 31.5034 5.90411 31.5195 5.91881C31.3476 5.76158 31.1742 5.60778 30.9964 5.45741C30.8235 5.31096 30.6389 5.17871 30.4552 5.04646C29.742 4.55911 28.9975 4.11976 28.2516 3.6853C28.0336 3.55893 27.9577 3.27141 28.0693 3.05099C27.9885 3.01818 27.9067 2.98634 27.8249 2.95597C27.3131 2.77572 26.7895 2.63369 26.26 2.51662C26.2625 2.51711 26.2649 2.5176 26.2674 2.51809C26.2644 2.5176 26.262 2.51662 26.259 2.51613C26.2419 2.51221 26.2243 2.5083 26.2071 2.50487C26.2208 2.50781 26.235 2.51123 26.2487 2.51417C25.9225 2.44462 25.5939 2.37507 25.2637 2.32658C25.0806 2.29964 24.8979 2.2727 24.7152 2.24576C24.4977 2.21343 24.2802 2.18159 24.0632 2.14976C23.8605 2.11988 23.6577 2.09784 23.4534 2.07825C22.8177 2.02339 22.1834 2.01016 21.5456 2.03612C21.5662 2.03563 21.5868 2.03465 21.6074 2.03367C21.1807 2.05277 20.7556 2.0851 20.3314 2.13212C19.8876 2.18111 19.4454 2.2487 19.005 2.31972C18.4814 2.4216 17.9578 2.52103 17.4352 2.6234C17.3769 2.63467 17.3191 2.65278 17.2618 2.66797C17.085 2.71352 16.9087 2.75907 16.7323 2.80511C16.4776 2.87075 16.2224 2.93687 15.9677 3.003C15.4667 3.171 14.9641 3.33459 14.4616 3.49966C14.3989 3.52023 14.3372 3.54815 14.276 3.57215C14.1045 3.63926 13.9331 3.70636 13.7617 3.77346C13.4996 3.87632 13.2366 3.9782 12.9745 4.08204C12.9878 4.07616 13.001 4.06979 13.0147 4.06392C13.0098 4.06636 13.0044 4.06881 12.9995 4.07077C12.5244 4.28775 12.0498 4.50572 11.5742 4.72221C11.5933 4.71339 11.6124 4.70507 11.6315 4.69625C11.5693 4.72466 11.509 4.75992 11.4483 4.79176C11.2965 4.87111 11.1446 4.95046 10.9933 5.02981C10.7528 5.15569 10.5123 5.28157 10.2718 5.40696C10.2018 5.44321 10.1351 5.4868 10.0671 5.52696C9.91717 5.61513 9.7673 5.7028 9.61693 5.79097C9.37447 5.9335 9.1281 6.07113 8.89005 6.22101C8.55601 6.43261 8.22588 6.64861 7.90359 6.87686C7.55044 7.12666 7.21003 7.39459 6.87647 7.66937C6.19711 8.23705 5.55301 8.84294 4.95447 9.49487C4.45487 10.0493 3.99494 10.6342 3.56832 11.2464C3.15198 11.8523 2.76896 12.4778 2.42952 13.1302C2.14838 13.6837 1.90152 14.2519 1.68992 14.8347C1.51604 15.3289 1.36371 15.8295 1.24861 16.3409C1.16142 16.7528 1.09529 17.1677 1.05513 17.5869C1.02525 17.9754 1.01693 18.3633 1.03015 18.7527C1.04975 19.1538 1.09334 19.5515 1.15799 19.9478C1.22608 20.3323 1.31228 20.7129 1.42248 21.0881C1.54053 21.4623 1.68208 21.8272 1.84274 22.1852C2.05776 22.6471 2.30463 23.0899 2.57451 23.5219C2.91737 24.0607 3.28864 24.5774 3.69518 25.0692C3.69322 25.0667 3.69126 25.0643 3.68931 25.0619C4.06156 25.5037 4.45977 25.92 4.88345 26.3123C5.38991 26.7713 5.92526 27.195 6.48511 27.5878C7.09492 28.008 7.72922 28.3906 8.38605 28.7325C8.91063 28.9989 9.45088 29.2384 10.0029 29.4422C10.3051 29.5539 10.6073 29.666 10.9095 29.7777C11.3694 29.9325 11.8313 30.0721 12.3055 30.1779C12.545 30.2288 12.7865 30.2802 13.0289 30.316C13.1925 30.3405 13.3556 30.365 13.5192 30.3895C13.6975 30.4159 13.8753 30.4429 14.0536 30.4693C14.2662 30.5011 14.4807 30.5207 14.6952 30.5403C15.3295 30.5908 15.9672 30.5971 16.6064 30.5736Z" fill="currentColor"/>
<path d="M16.0346 6.36877C15.7858 6.32322 15.585 6.06264 15.6457 5.80647C15.8005 5.15748 15.9636 4.50996 16.1262 3.86342C16.2026 3.56121 16.279 3.26047 16.3525 2.95777C16.3956 2.78144 16.4382 2.60511 16.4798 2.42927C16.5396 2.18044 16.5788 1.83807 16.8443 1.72003C16.9613 1.66811 17.0852 1.65244 17.2092 1.6926C17.3316 1.73276 17.435 1.82093 17.4923 1.93652C17.5608 2.07367 17.5559 2.24168 17.4883 2.37735C17.4732 2.4278 17.459 2.47874 17.4472 2.52968C17.4526 2.5091 17.458 2.48804 17.4629 2.46747C17.1837 3.64056 16.8751 4.80678 16.5959 5.98085C16.5656 6.10869 16.5014 6.22036 16.3902 6.29481C16.3104 6.3482 16.2149 6.37661 16.1193 6.37661C16.0914 6.37612 16.063 6.37367 16.0346 6.36877Z" fill="currentColor"/>
<path d="M19.1174 5.24683C18.8568 5.19883 18.6834 4.94365 18.7289 4.68454C18.8685 3.8891 18.9827 3.08826 19.087 2.28743C19.1046 2.12824 19.1223 1.96906 19.1389 1.80938C19.1507 1.69868 19.156 1.58015 19.1908 1.47386C19.2315 1.34994 19.3196 1.2319 19.4411 1.17704C19.6801 1.0683 19.9681 1.1506 20.0891 1.39305C20.143 1.50032 20.1513 1.6262 20.1205 1.74032C20.1136 1.78049 20.1087 1.82065 20.1038 1.8613C19.9985 2.86393 19.854 3.86509 19.6797 4.85842C19.639 5.08961 19.4289 5.25467 19.2011 5.25467C19.1732 5.25467 19.1453 5.25222 19.1174 5.24683Z" fill="currentColor"/>
<path d="M22.6958 3.9327C22.6551 3.44681 22.6096 2.96043 22.5635 2.47454C22.5415 2.23895 22.5175 2.00335 22.4969 1.76726C22.492 1.71192 22.4866 1.65608 22.4827 1.60024C22.4768 1.51403 22.4616 1.42048 22.4705 1.33477C22.4827 1.21624 22.5116 1.10995 22.5919 1.01738C22.6453 0.955662 22.7193 0.902271 22.7977 0.878761C22.9221 0.841535 23.0484 0.843005 23.167 0.899822C23.2816 0.95517 23.3712 1.05558 23.4129 1.17607C23.4339 1.23583 23.4413 1.2995 23.4373 1.3622C23.4373 1.3622 23.4378 1.36122 23.4383 1.36024C23.4378 1.36465 23.4373 1.36905 23.4369 1.37346C23.4457 1.57036 23.4667 1.76678 23.4858 1.96319C23.5064 2.17969 23.5275 2.39569 23.5475 2.61218C23.5867 3.02656 23.6244 3.44142 23.6597 3.85628C23.6818 4.11882 23.4775 4.3554 23.2164 4.37597C23.2037 4.37695 23.191 4.37743 23.1787 4.37743C22.9299 4.37792 22.7168 4.1825 22.6958 3.9327Z" fill="currentColor"/>
<path d="M10.7141 20.6042C9.99946 20.5435 9.30933 20.3456 8.66474 20.0321C8.04857 19.7324 7.499 19.2964 7.0763 18.7567C6.64429 18.2047 6.36266 17.5561 6.14469 16.8939C5.76558 15.7439 5.73081 14.5052 6.01979 13.3311C6.15841 12.7678 6.36951 12.2173 6.66389 11.7167C6.9803 11.1799 7.37068 10.6881 7.79974 10.237C8.5756 9.42098 9.54394 8.76122 10.6475 8.4879C10.7709 8.45754 10.8943 8.42667 11.0178 8.3963C11.1231 8.37035 11.2318 8.35565 11.3381 8.33606C11.5183 8.30177 11.7064 8.28904 11.8916 8.28267C11.9856 8.15679 12.137 8.07451 12.3001 8.08969C12.5572 8.11369 12.8149 8.14455 13.0681 8.19696C13.3194 8.24936 13.5755 8.30423 13.817 8.3919C14.3264 8.57754 14.8 8.8337 15.2654 9.11044C15.7174 9.37935 16.1426 9.69527 16.5467 10.0318C16.7607 10.2101 16.9576 10.403 17.1511 10.6034C17.3284 10.7866 17.4847 10.9884 17.6424 11.1887C17.8035 11.3939 17.9456 11.6143 18.0886 11.8328C18.2311 12.0503 18.3482 12.2839 18.4662 12.5151C18.5201 12.6209 18.5603 12.736 18.6068 12.8452C18.7376 13.1543 18.8204 13.4854 18.8772 13.8155C18.9502 14.2407 18.9521 14.6815 18.9124 15.111C18.8845 15.4147 18.8532 15.7164 18.7924 16.0152C18.7312 16.314 18.6323 16.6015 18.5064 16.8792C18.4172 17.0752 18.3026 17.2608 18.1959 17.4474C17.8927 17.9784 17.5043 18.4437 17.0321 18.8331C16.7847 19.0368 16.5183 19.2161 16.2464 19.3851C16.0304 19.5193 15.8066 19.6486 15.5729 19.7505C15.2947 19.8715 15.0156 19.9856 14.7329 20.0953C14.4959 20.1874 14.2554 20.2721 14.0119 20.3427C13.6676 20.4431 13.3194 20.5097 12.9643 20.5567C12.7047 20.5905 12.4411 20.6135 12.1796 20.6223C11.9616 20.6297 11.7446 20.6351 11.5277 20.6351C11.2563 20.636 10.9859 20.6277 10.7141 20.6042ZM11.6619 19.6746C11.7637 19.6711 11.8656 19.6677 11.9675 19.6643C12.0615 19.6613 12.1575 19.6633 12.2511 19.6545C12.5073 19.6315 12.7629 19.6104 13.0176 19.5761C13.2513 19.5399 13.48 19.4889 13.7083 19.4267C14.0893 19.3146 14.4582 19.1671 14.828 19.0231C14.9558 18.9673 15.0836 18.9114 15.2115 18.8561C15.3403 18.7998 15.4637 18.7253 15.5876 18.6582C15.8301 18.5069 16.0706 18.3545 16.2993 18.1826C16.4414 18.0705 16.5771 17.9534 16.7078 17.8285C16.8283 17.7046 16.942 17.5753 17.0487 17.4391C17.2172 17.2094 17.3598 16.9664 17.5013 16.7201C17.5699 16.5932 17.6345 16.4658 17.6918 16.3331C17.7384 16.2126 17.7776 16.0907 17.8118 15.9662C17.8598 15.764 17.8902 15.5607 17.9196 15.3555C17.9456 15.0655 17.9686 14.7765 17.9705 14.4846C17.9661 14.345 17.9554 14.2064 17.9382 14.0673C17.9108 13.8944 17.8755 13.7244 17.83 13.5549C17.7972 13.4462 17.7609 13.3384 17.7217 13.2317C17.6825 13.1391 17.6434 13.0465 17.6042 12.9535C17.5591 12.8472 17.4984 12.7453 17.4455 12.6429C17.3627 12.5023 17.2794 12.3632 17.1903 12.2271C17.0933 12.0791 16.9914 11.9366 16.8886 11.7931C16.794 11.6726 16.7 11.5526 16.5996 11.4375C16.4904 11.3121 16.3772 11.1931 16.2616 11.0736C16.146 10.9663 16.0309 10.86 15.9095 10.7591C15.7855 10.6558 15.6587 10.5563 15.5308 10.4569C15.3692 10.3399 15.2066 10.2248 15.042 10.1121C14.8872 10.0068 14.7246 9.91226 14.564 9.81674C14.2642 9.64923 13.962 9.4925 13.6465 9.3578C13.4893 9.30098 13.3311 9.252 13.1695 9.2084C12.9246 9.15208 12.6792 9.10603 12.4299 9.07322C12.3495 9.17167 12.233 9.23926 12.1012 9.2422C11.9024 9.24661 11.7059 9.26424 11.5086 9.28677C11.4111 9.30441 11.3121 9.31861 11.2166 9.34212C11.0917 9.37298 10.9673 9.40433 10.8429 9.4347C10.6377 9.49641 10.4369 9.56645 10.2385 9.64678C10.0769 9.7178 9.91962 9.79666 9.76583 9.88287C9.57529 9.99601 9.39308 10.1204 9.21626 10.2536C9.00222 10.4226 8.79944 10.6034 8.6045 10.7949C8.35176 11.052 8.11714 11.3253 7.89575 11.6109C7.74489 11.8127 7.60529 12.0209 7.47696 12.2374C7.36725 12.4348 7.27124 12.637 7.18504 12.8457C7.09834 13.0715 7.02487 13.3007 6.96267 13.5344C6.90585 13.7695 6.86079 14.006 6.82944 14.2456C6.8025 14.4968 6.79075 14.7486 6.79173 15.0008C6.7976 15.2325 6.81523 15.4622 6.84609 15.692C6.88087 15.9089 6.92593 16.123 6.98275 16.3356C7.06749 16.626 7.16643 16.9116 7.28202 17.1912C7.36921 17.3891 7.46325 17.5826 7.56954 17.7707C7.6479 17.898 7.73118 18.022 7.82032 18.142C7.90946 18.2541 8.00301 18.3609 8.10244 18.4643C8.22 18.5789 8.34294 18.6856 8.47225 18.7865C8.60547 18.8825 8.74213 18.9712 8.8832 19.055C9.0654 19.1554 9.2525 19.2445 9.445 19.3239C9.64827 19.4022 9.85399 19.4679 10.0646 19.5227C10.2512 19.5663 10.4383 19.6006 10.6289 19.6251C10.9727 19.6613 11.3161 19.6746 11.6619 19.6746Z" fill="currentColor"/>
<path d="M13.1828 16.088C13.0853 16.0028 13.0359 15.8891 13.0192 15.7627C12.9232 15.0398 12.8243 14.3173 12.7224 13.5954C12.7253 13.6159 12.7283 13.6365 12.7317 13.6571C12.6489 13.0904 12.5642 12.5232 12.4545 11.9614C12.404 11.7028 12.5671 11.4441 12.8277 11.3888C13.0824 11.3354 13.3493 11.5039 13.3998 11.762C13.5266 12.4095 13.6217 13.0634 13.7137 13.7168C13.8058 14.3732 13.8955 15.03 13.9826 15.6863C14.0169 15.9479 13.7911 16.1859 13.5394 16.2065C13.5271 16.2075 13.5144 16.208 13.5021 16.208C13.3851 16.2075 13.2705 16.1649 13.1828 16.088Z" fill="currentColor"/>
<path d="M22.107 19.7385C20.7629 19.5215 19.5325 18.7163 18.8659 17.5207C18.7116 17.2444 18.6151 16.9339 18.5319 16.6302C18.4388 16.2893 18.3908 15.9361 18.3595 15.585C18.2968 14.8743 18.3717 14.1645 18.5711 13.4808C18.6749 13.1247 18.8238 12.7833 18.9712 12.4433C19.0511 12.2592 19.1324 12.0789 19.2215 11.8997C19.3156 11.7111 19.4047 11.5201 19.512 11.3384C19.6413 11.1189 19.7657 10.8956 19.9043 10.681C20.21 10.2049 20.5567 9.75677 20.9442 9.34485C21.3267 8.93782 21.7621 8.59642 22.2544 8.33193C22.5008 8.19919 22.7662 8.09927 23.0298 8.00865C23.2854 7.92049 23.5494 7.85094 23.8139 7.79608C24.0941 7.7378 24.3821 7.71673 24.6682 7.72604C24.6711 7.72604 24.674 7.72604 24.677 7.72653C24.77 7.53796 24.9821 7.42971 25.1981 7.46301C25.7139 7.54285 26.2213 7.6609 26.7165 7.82547C27.2004 7.98711 27.6628 8.22858 28.0904 8.50385C28.519 8.77961 28.9153 9.11072 29.2934 9.45162C29.4991 9.63677 29.696 9.82926 29.8875 10.0296C30.2652 10.4254 30.5855 10.8784 30.7912 11.3873C30.9249 11.7184 31.043 12.0486 31.1135 12.3998C31.1723 12.6941 31.1933 13.0022 31.2041 13.302C31.209 13.4377 31.212 13.5714 31.2075 13.707C31.2036 13.8442 31.1899 13.9784 31.1762 14.1146C31.1155 14.7067 30.9004 15.2725 30.5992 15.7819C30.4885 15.9685 30.3548 16.1409 30.2225 16.3128C30.0967 16.4759 29.9703 16.6376 29.8361 16.7938C29.5657 17.1083 29.2547 17.3776 28.9442 17.65C28.8496 17.7332 28.7428 17.8062 28.6434 17.8841C28.5489 17.9571 28.4558 18.0301 28.3574 18.0972C28.2237 18.1883 28.0894 18.2804 27.9552 18.3715C27.8475 18.4449 27.7275 18.5052 27.6148 18.5708C27.5198 18.6257 27.4267 18.6874 27.3278 18.7359C27.1755 18.8103 27.0231 18.8848 26.8708 18.9597C26.62 19.0822 26.3585 19.1816 26.1008 19.2889C25.8599 19.3888 25.6081 19.4662 25.3573 19.5377C25.0037 19.6386 24.6461 19.7111 24.2822 19.763C23.953 19.81 23.6185 19.8335 23.284 19.8335C22.8892 19.8335 22.4944 19.8012 22.107 19.7385ZM23.3692 18.8642C23.6601 18.8569 23.9491 18.8338 24.2376 18.7947C24.5183 18.7506 24.794 18.6903 25.0683 18.6169C25.3446 18.537 25.6164 18.4454 25.8814 18.3352C26.0284 18.2745 26.1753 18.2133 26.3222 18.152C26.5167 18.0565 26.7116 17.9615 26.9066 17.866C26.9869 17.8268 27.0638 17.7754 27.1412 17.7303C27.2274 17.6803 27.3141 17.6304 27.4003 17.5799C27.5658 17.4668 27.7319 17.3541 27.8974 17.2415C27.9577 17.1949 28.0179 17.1484 28.0777 17.1014C28.1531 17.0426 28.2334 16.9873 28.3054 16.9246C28.4945 16.7595 28.6846 16.5964 28.8638 16.4206C29.1092 16.1683 29.3257 15.8955 29.5403 15.6173C29.6421 15.4782 29.7391 15.3376 29.8278 15.1892C29.8949 15.0663 29.9556 14.9409 30.01 14.812C30.059 14.6837 30.1021 14.5534 30.1388 14.4207C30.1687 14.2978 30.1927 14.1743 30.2123 14.0494C30.2206 13.9686 30.2289 13.8873 30.2372 13.8065C30.2461 13.7173 30.2441 13.6262 30.2456 13.5366C30.2353 13.2667 30.2167 12.9988 30.1883 12.7294C30.1662 12.5922 30.1383 12.4576 30.103 12.3229C30.0433 12.1215 29.9674 11.9266 29.8885 11.7317C29.8322 11.6087 29.7719 11.4882 29.7058 11.3702C29.6338 11.2512 29.5574 11.1366 29.4746 11.0249C29.3326 10.8485 29.1788 10.6869 29.0225 10.5238C28.6855 10.1991 28.3348 9.89244 27.9685 9.6015C27.7471 9.4379 27.5218 9.28509 27.2847 9.14403C27.0648 9.02549 26.8429 8.91675 26.6142 8.81732C26.3884 8.73357 26.1606 8.66059 25.9279 8.59643C25.7957 8.56361 25.6634 8.53373 25.5307 8.50581C25.5283 8.5107 25.5263 8.51609 25.5238 8.52099C25.4087 8.76002 25.1168 8.85798 24.8788 8.74631C24.8729 8.74337 24.867 8.74091 24.8611 8.73797C24.8391 8.73063 24.8171 8.72378 24.795 8.7179C24.7593 8.70957 24.723 8.70271 24.6868 8.69732C24.6172 8.69145 24.5491 8.68899 24.4796 8.6885C24.3689 8.69389 24.2587 8.70369 24.1485 8.71741C23.978 8.74581 23.8105 8.78451 23.6435 8.82908C23.4118 8.89569 23.1855 8.97406 22.9617 9.06418C22.8191 9.12688 22.6815 9.19595 22.5458 9.27187C22.4155 9.35072 22.2902 9.43595 22.1682 9.52755C22.0252 9.64167 21.889 9.76216 21.7582 9.88951C21.5319 10.1207 21.3213 10.3651 21.1225 10.6203C20.9285 10.8784 20.7453 11.1439 20.5807 11.4221C20.4857 11.5833 20.3907 11.7439 20.2957 11.9051C20.1909 12.1157 20.086 12.3263 19.9812 12.5369C19.9352 12.629 19.8984 12.7265 19.8578 12.8205C19.8005 12.9527 19.7417 13.0845 19.6873 13.2177C19.5864 13.4724 19.4983 13.7296 19.4287 13.9946C19.3871 14.1758 19.3543 14.358 19.3308 14.5422C19.3112 14.742 19.3023 14.9404 19.3028 15.1407C19.3092 15.3856 19.3293 15.629 19.3621 15.872C19.3944 16.0748 19.4356 16.2751 19.4885 16.4735C19.5311 16.615 19.5796 16.7541 19.6344 16.8913C19.6717 16.9745 19.7118 17.0558 19.7554 17.1357C19.8235 17.2469 19.896 17.3541 19.9744 17.4585C20.0601 17.5652 20.1507 17.6666 20.2467 17.7651C20.3711 17.8841 20.4999 17.9968 20.6356 18.103C20.7595 18.1932 20.8869 18.2764 21.0191 18.3543C21.1572 18.4288 21.2973 18.4959 21.4413 18.5571C21.5927 18.6149 21.7455 18.6653 21.9017 18.7089C22.1089 18.7594 22.3176 18.7966 22.5292 18.8245C22.8093 18.8539 23.0885 18.8657 23.3692 18.8642Z" fill="currentColor"/>
<path d="M23.9551 15.8634C23.6921 15.8502 23.4839 15.6195 23.4966 15.3565C23.529 14.6928 23.5412 14.0276 23.5549 13.3634C23.5613 13.0475 23.5667 12.7316 23.5657 12.4157C23.5652 12.2482 23.5638 12.0811 23.5618 11.9131C23.5613 11.8225 23.5593 11.7324 23.5642 11.6418C23.5721 11.5041 23.6343 11.3895 23.7308 11.293C23.9169 11.1069 24.2475 11.149 24.4126 11.3366C24.4949 11.4302 24.5385 11.5551 24.5321 11.68C24.5311 11.6961 24.5296 11.7123 24.5272 11.7275C24.5203 11.8881 24.5277 12.0512 24.5297 12.2119C24.5311 12.3569 24.5306 12.5019 24.5311 12.6469C24.5321 12.9515 24.5228 13.2571 24.5164 13.5618C24.5037 14.1765 24.491 14.7912 24.4611 15.4049C24.4488 15.6601 24.2304 15.8639 23.9771 15.8639C23.9703 15.8644 23.9629 15.8639 23.9551 15.8634Z" fill="currentColor"/>
<path d="M30.4305 14.0218C30.2885 13.8098 30.3379 13.4899 30.5618 13.3513C30.6548 13.294 30.7528 13.2431 30.8483 13.1897C31.705 12.6861 32.5033 12.0969 33.315 11.5248C33.767 11.2064 34.2211 10.893 34.6864 10.5942C34.9196 10.4438 35.1561 10.2993 35.3927 10.1543C35.6038 10.025 35.8179 9.89621 36.0353 9.77866C36.4953 9.52935 36.9571 9.27661 37.4474 9.09195C37.7046 8.99497 37.9632 8.89456 38.2297 8.82354C38.3874 8.78191 38.5436 8.7388 38.7038 8.70599C39.0089 8.64427 39.3195 8.63301 39.6271 8.68688C39.9077 8.73586 40.1918 8.86567 40.4117 9.04641C40.5229 9.138 40.6277 9.23939 40.712 9.35645C40.8129 9.49604 40.8873 9.64299 40.9495 9.80315C41.0573 10.0819 41.072 10.4012 41.0392 10.6956C41.002 11.0286 40.882 11.3431 40.7164 11.6326C40.4049 12.1777 39.9949 12.6675 39.5727 13.1299C39.5453 13.1603 39.5174 13.1897 39.4899 13.2195C39.3112 13.4125 39.0109 13.4424 38.8081 13.2651C38.6146 13.0956 38.5833 12.7758 38.7626 12.5833C39.0085 12.3193 39.2411 12.0445 39.4654 11.7624C39.6143 11.5601 39.7588 11.3578 39.8862 11.1413C39.9259 11.0673 39.9616 10.9934 39.9944 10.9165C40.0174 10.8523 40.038 10.7882 40.0566 10.7225C40.0654 10.6828 40.0728 10.6432 40.0787 10.603C40.0841 10.5452 40.0875 10.4884 40.089 10.4301C40.0865 10.3767 40.0821 10.3248 40.0752 10.2719C40.0689 10.2386 40.0615 10.2053 40.0532 10.1725C40.0439 10.1421 40.0336 10.1127 40.0223 10.0833C40.0091 10.0544 39.9949 10.026 39.9797 9.99809C39.9641 9.97262 39.9474 9.94813 39.9303 9.92413C39.9117 9.9016 39.8925 9.88005 39.8725 9.85899C39.8475 9.83499 39.822 9.81245 39.7951 9.7909C39.7716 9.77376 39.7476 9.7576 39.7226 9.74241C39.6785 9.7189 39.6339 9.69785 39.5884 9.67776C39.5605 9.66797 39.5321 9.65866 39.5036 9.65082C39.4532 9.63956 39.4032 9.63074 39.3523 9.62339C39.3014 9.61996 39.2514 9.61801 39.2009 9.61752C39.1363 9.62144 39.0726 9.62731 39.0089 9.63466C38.8253 9.66502 38.647 9.71205 38.4672 9.76005C38.2184 9.84038 37.9735 9.92658 37.7291 10.0192C37.4523 10.1392 37.1756 10.2596 36.9106 10.4032C36.6069 10.5677 36.3067 10.7372 36.0074 10.9106C36.0104 10.9086 36.0138 10.9072 36.0167 10.9052C35.6043 11.158 35.1909 11.4092 34.7903 11.6806C34.3362 11.9877 33.888 12.3031 33.4423 12.622C33.0568 12.8977 32.6704 13.1725 32.2756 13.4351C32.0713 13.5712 31.8661 13.7059 31.656 13.8328C31.4699 13.9454 31.2793 14.0512 31.0907 14.16C31.0883 14.1614 31.0859 14.1629 31.0839 14.1639C31.0721 14.1707 31.0609 14.1771 31.0491 14.184C31.0584 14.1786 31.0672 14.1732 31.0765 14.1678C30.9982 14.2104 30.9125 14.232 30.8282 14.232C30.6739 14.2315 30.524 14.1614 30.4305 14.0218Z" fill="currentColor"/>
<path d="M1.27726 15.3389C0.730143 14.8579 0.310874 14.2334 0.11985 13.5251C0.0336444 13.2028 -0.0109305 12.883 0.0022942 12.5485C0.0150291 12.2223 0.123273 11.8995 0.259439 11.6061C0.385319 11.3357 0.566061 11.0722 0.781576 10.8655C0.887863 10.7631 0.999537 10.672 1.12444 10.5927C1.26256 10.505 1.41538 10.4541 1.5731 10.4139C1.86159 10.3399 2.1834 10.3806 2.46651 10.4594C2.79614 10.5506 3.09982 10.6955 3.39322 10.8699C3.65379 11.0252 3.90065 11.2079 4.13771 11.396C4.23029 11.4694 4.32776 11.54 4.41641 11.6183C4.54474 11.7325 4.67307 11.8466 4.80189 11.9612C4.98949 12.1277 5.16043 12.3158 5.33725 12.4941C5.39064 12.548 5.43815 12.6116 5.48762 12.6694C5.55669 12.7498 5.62574 12.8301 5.69481 12.9104C5.75456 12.9805 5.80795 13.0579 5.86428 13.1318C5.91767 13.2019 5.974 13.2704 6.02494 13.3419C6.13123 13.4918 6.23849 13.6407 6.34086 13.7936C6.39572 13.8754 6.4496 13.9576 6.50152 14.0419C6.53776 14.1002 6.5696 14.1629 6.60879 14.2192C6.75867 14.4352 6.69352 14.7443 6.47752 14.8897C6.25661 15.0377 5.95685 14.9745 5.80697 14.7585C5.74428 14.6674 5.69138 14.5679 5.63309 14.4739C5.57138 14.3745 5.50476 14.277 5.43717 14.182C5.28484 13.9674 5.12859 13.7578 4.96892 13.5487C4.91014 13.4801 4.85087 13.411 4.79161 13.3419C4.73087 13.2709 4.67356 13.1945 4.60842 13.1284C4.47666 12.9962 4.34539 12.8634 4.21363 12.7312C4.06571 12.5994 3.9173 12.4676 3.76938 12.3364C3.64644 12.2272 3.51174 12.1297 3.38195 12.0283C3.19092 11.8956 3.00235 11.7618 2.80349 11.6418C2.68593 11.5772 2.56594 11.5189 2.44201 11.4665C2.3612 11.4371 2.28037 11.4102 2.1976 11.3867C2.13098 11.372 2.06535 11.3597 1.99727 11.3494C2.01833 11.3519 2.0394 11.3538 2.05997 11.3568C2.0056 11.3484 1.95074 11.344 1.89539 11.3426C1.87384 11.3435 1.8518 11.3455 1.83024 11.348C1.80281 11.3524 1.77539 11.3582 1.74845 11.3646C1.72739 11.3715 1.70681 11.3788 1.68575 11.3857C1.69555 11.3818 1.70486 11.3773 1.71465 11.3734C1.71857 11.3724 1.72249 11.371 1.7269 11.37C1.72298 11.371 1.71955 11.372 1.71563 11.3729C1.72494 11.369 1.73376 11.3651 1.74306 11.3612C1.73229 11.3651 1.72151 11.3695 1.71122 11.3739C1.68918 11.3832 1.66665 11.3935 1.64559 11.4053C1.62208 11.42 1.59906 11.4351 1.57653 11.4513C1.53 11.4895 1.48591 11.5287 1.44232 11.5698C1.40314 11.6124 1.36542 11.6556 1.32918 11.7006C1.27922 11.7711 1.23171 11.8431 1.18714 11.9171C1.14844 11.9896 1.11268 12.0626 1.07986 12.138C1.05146 12.2144 1.02648 12.2918 1.00444 12.3707C0.992193 12.4265 0.981902 12.4823 0.973085 12.5392C0.968187 12.6038 0.965249 12.667 0.964759 12.7317C0.968188 12.8051 0.973574 12.8776 0.981411 12.9506C1.001 13.0642 1.02598 13.1759 1.05537 13.2871C1.08525 13.3846 1.11807 13.4801 1.1553 13.5751C1.20036 13.6775 1.24983 13.7779 1.3037 13.8763C1.37522 13.9939 1.4531 14.1065 1.53489 14.2172C1.61522 14.3127 1.69702 14.4043 1.78421 14.4935C1.82682 14.5332 1.86992 14.5723 1.91351 14.611C2.11139 14.7844 2.13294 15.094 1.95906 15.2928C1.86502 15.4006 1.72934 15.456 1.59367 15.456C1.48052 15.4564 1.36689 15.4177 1.27726 15.3389Z" fill="currentColor"/>
<path d="M17.1112 25.8972C16.472 25.7355 16.0332 25.2124 15.7314 24.655C15.3494 23.9497 15.2338 23.1278 15.1691 22.3382C15.1588 22.2153 15.1589 22.0909 15.1593 21.9675C15.1603 21.7691 15.1966 21.5433 15.3851 21.4321C15.5144 21.3557 15.6575 21.3258 15.8034 21.3738C15.9499 21.4213 16.0557 21.5325 16.1105 21.6741C16.1438 21.7593 16.1473 21.8494 16.1272 21.9341C16.1252 21.9817 16.1242 22.0287 16.1242 22.0762C16.136 22.3329 16.1615 22.5861 16.1914 22.8418C16.2296 23.071 16.2678 23.2987 16.3256 23.5241C16.3696 23.6783 16.4211 23.8297 16.4799 23.9791C16.5328 24.1001 16.591 24.2171 16.6557 24.3322C16.7061 24.4126 16.7586 24.4899 16.8154 24.5659C16.858 24.6173 16.9021 24.6668 16.9481 24.7157C16.9912 24.7559 17.0348 24.7941 17.0808 24.8313C17.1092 24.8519 17.1386 24.8715 17.1685 24.8896C17.1979 24.9053 17.2283 24.92 17.2591 24.9332C17.2386 24.9254 17.2185 24.9171 17.1984 24.9087C17.2469 24.9298 17.2964 24.9474 17.3468 24.9621C17.3262 24.9567 17.3052 24.9514 17.2846 24.9465C17.3292 24.9592 17.3747 24.97 17.4208 24.9768C17.4722 24.9817 17.5231 24.9842 17.5751 24.9847C17.6054 24.9832 17.6363 24.9802 17.6666 24.9768C17.7107 24.969 17.7543 24.9597 17.7979 24.9489C17.8356 24.9376 17.8733 24.9244 17.9106 24.9102C17.9689 24.8842 18.0257 24.8563 18.082 24.8264C18.1432 24.7882 18.2025 24.7481 18.2603 24.7055C18.3249 24.6526 18.3862 24.5977 18.4459 24.5399C18.5096 24.4723 18.5698 24.4028 18.6276 24.3308C18.7031 24.2279 18.7721 24.1226 18.8373 24.0124C18.9465 23.8126 19.0342 23.6068 19.1194 23.3967C19.282 22.9471 19.4344 22.495 19.5553 22.0321C19.5886 21.8901 19.6185 21.748 19.643 21.604C19.6866 21.3449 19.9491 21.1686 20.2053 21.2156C20.4669 21.2636 20.6373 21.5183 20.5937 21.7779C20.5095 22.2765 20.3625 22.7649 20.1989 23.2424C20.1103 23.501 20.0143 23.7557 19.9119 24.009C19.6905 24.5561 19.3467 25.0665 18.8872 25.4407C18.5057 25.7512 18.0257 25.9506 17.5368 25.9506C17.3943 25.9496 17.2518 25.9329 17.1112 25.8972Z" fill="currentColor"/>
</svg>
