<svg width="25" height="25" viewBox="0 0 25 25" fill="none" xmlns="http://www.w3.org/2000/svg">
<path d="M21.1875 6.4082H4.1875M19.5205 8.9082L19.0605 15.8082C18.8835 18.4622 18.7955 19.7892 17.9305 20.5982C17.0655 21.4072 15.7345 21.4082 13.0745 21.4082H12.3005C9.6405 21.4082 8.3095 21.4082 7.4445 20.5982C6.5795 19.7892 6.4905 18.4622 6.3145 15.8082L5.8545 8.9082M10.1875 11.4082L10.6875 16.4082M15.1875 11.4082L14.6875 16.4082" stroke="#053B4A" stroke-width="1.5" stroke-linecap="round"/>
<path d="M7.1875 6.4082H7.2975C7.69995 6.39792 8.08992 6.26643 8.41642 6.03092C8.74293 5.79541 8.99075 5.46684 9.1275 5.0882L9.1615 4.9852L9.2585 4.6942C9.3415 4.4452 9.3835 4.3212 9.4385 4.2152C9.54671 4.00759 9.70201 3.82819 9.89198 3.69136C10.0819 3.55453 10.3013 3.46406 10.5325 3.4272C10.6495 3.4082 10.7805 3.4082 11.0425 3.4082H14.3325C14.5945 3.4082 14.7255 3.4082 14.8425 3.4272C15.0737 3.46406 15.2931 3.55453 15.483 3.69136C15.673 3.82819 15.8283 4.00759 15.9365 4.2152C15.9915 4.3212 16.0335 4.4452 16.1165 4.6942L16.2135 4.9852C16.3402 5.40648 16.6023 5.77421 16.9592 6.03147C17.316 6.28872 17.7478 6.42113 18.1875 6.4082" stroke="#053B4A" stroke-width="1.5"/>
</svg>
