<svg width="52" height="33" viewBox="0 0 52 33" fill="none" xmlns="http://www.w3.org/2000/svg">
<path d="M32.4645 3.92871H18.627V28.8865H32.4645V3.92871Z" fill="#FF5A00"/>
<path d="M19.5486 16.4079C19.5486 11.3373 21.9231 6.83686 25.5667 3.92906C22.8851 1.81243 19.5025 0.533203 15.8129 0.533203C7.07228 0.533203 0 7.63317 0 16.4079C0 25.1827 7.07228 32.2827 15.8129 32.2827C19.5025 32.2827 22.8851 31.0035 25.5667 28.8868C21.9179 26.0201 19.5486 21.4786 19.5486 16.4079Z" fill="#EB001B"/>
<path d="M51.1331 16.4079C51.1331 25.1827 44.0608 32.2827 35.3202 32.2827C31.6306 32.2827 28.2479 31.0035 25.5664 28.8868C29.2561 25.9739 31.5845 21.4786 31.5845 16.4079C31.5845 11.3373 29.21 6.83686 25.5664 3.92906C28.2428 1.81243 31.6254 0.533203 35.3151 0.533203C44.0608 0.533203 51.1331 7.67941 51.1331 16.4079Z" fill="#F79E1B"/>
</svg>
