<svg width="20" height="20" viewBox="0 0 20 20" fill="none" xmlns="http://www.w3.org/2000/svg">
<path d="M18.125 8.75041C18.125 8.25313 17.9275 7.77621 17.5758 7.42458C17.2242 7.07295 16.7473 6.87541 16.25 6.87541H10.625V6.17228C11.1615 6.03294 11.6365 5.7196 11.9758 5.28134C12.3151 4.84308 12.4995 4.30466 12.5 3.75041C12.5 1.56291 10.4344 0.163687 10.3469 0.105094C10.2442 0.0365692 10.1235 0 10 0C9.87653 0 9.75583 0.0365692 9.65312 0.105094C9.56562 0.163687 7.5 1.56291 7.5 3.75041C7.50052 4.30466 7.68487 4.84308 8.02417 5.28134C8.36347 5.7196 8.83855 6.03294 9.375 6.17228V6.87541H3.75C3.25272 6.87541 2.77581 7.07295 2.42417 7.42458C2.07254 7.77621 1.875 8.25313 1.875 8.75041V10.5731C1.87564 11.2549 2.09468 11.9186 2.5 12.4668V15.6254C2.5 16.1227 2.69754 16.5996 3.04917 16.9512C3.40081 17.3029 3.87772 17.5004 4.375 17.5004H15.625C16.1223 17.5004 16.5992 17.3029 16.9508 16.9512C17.3025 16.5996 17.5 16.1227 17.5 15.6254V12.4668C17.9053 11.9186 18.1244 11.2549 18.125 10.5731V8.75041ZM8.75 3.75041C8.75 2.69025 9.53125 1.83947 10 1.42306C10.4688 1.83947 11.25 2.69025 11.25 3.75041C11.25 4.08193 11.1183 4.39987 10.8839 4.63429C10.6495 4.86871 10.3315 5.00041 10 5.00041C9.66848 5.00041 9.35054 4.86871 9.11612 4.63429C8.8817 4.39987 8.75 4.08193 8.75 3.75041ZM3.125 8.75041C3.125 8.58465 3.19085 8.42567 3.30806 8.30846C3.42527 8.19125 3.58424 8.12541 3.75 8.12541H16.25C16.4158 8.12541 16.5747 8.19125 16.6919 8.30846C16.8092 8.42567 16.875 8.58465 16.875 8.75041V10.5731C16.875 11.6082 16.0578 12.4723 15.0531 12.4996C14.8025 12.5067 14.5531 12.4635 14.3194 12.3725C14.0858 12.2815 13.8729 12.1446 13.6931 11.9699C13.5133 11.7951 13.3704 11.5861 13.2729 11.3552C13.1753 11.1243 13.125 10.8761 13.125 10.6254C13.125 10.4596 13.0592 10.3007 12.9419 10.1835C12.8247 10.0663 12.6658 10.0004 12.5 10.0004C12.3342 10.0004 12.1753 10.0663 12.0581 10.1835C11.9408 10.3007 11.875 10.4596 11.875 10.6254C11.875 11.1227 11.6775 11.5996 11.3258 11.9512C10.9742 12.3029 10.4973 12.5004 10 12.5004C9.50272 12.5004 9.02581 12.3029 8.67417 11.9512C8.32254 11.5996 8.125 11.1227 8.125 10.6254C8.125 10.4596 8.05915 10.3007 7.94194 10.1835C7.82473 10.0663 7.66576 10.0004 7.5 10.0004C7.33424 10.0004 7.17527 10.0663 7.05806 10.1835C6.94085 10.3007 6.875 10.4596 6.875 10.6254C6.8751 10.8762 6.8249 11.1244 6.72737 11.3554C6.62983 11.5864 6.48695 11.7956 6.30718 11.9704C6.1274 12.1452 5.91438 12.2822 5.68073 12.3732C5.44708 12.4643 5.19754 12.5075 4.94688 12.5004C3.94219 12.4723 3.125 11.6082 3.125 10.5731V8.75041ZM15.625 16.2504H4.375C4.20924 16.2504 4.05027 16.1846 3.93306 16.0673C3.81585 15.9501 3.75 15.7912 3.75 15.6254V13.4817C4.11587 13.6474 4.51102 13.7387 4.9125 13.7504C5.33019 13.7634 5.74619 13.6918 6.13552 13.5399C6.52485 13.3881 6.87949 13.1591 7.17812 12.8668C7.29471 12.7532 7.40232 12.6307 7.5 12.5004C7.79108 12.8885 8.16853 13.2035 8.60246 13.4205C9.03638 13.6375 9.51486 13.7504 10 13.7504C10.4851 13.7504 10.9636 13.6375 11.3975 13.4205C11.8315 13.2035 12.2089 12.8885 12.5 12.5004C12.598 12.6301 12.7059 12.7521 12.8227 12.8652C13.4041 13.4347 14.1862 13.7527 15 13.7504H15.0891C15.49 13.7385 15.8846 13.6472 16.25 13.4817V15.6254C16.25 15.7912 16.1842 15.9501 16.0669 16.0673C15.9497 16.1846 15.7908 16.2504 15.625 16.2504Z" fill="#F4A672"/>
</svg>
