<svg width="40" height="57" viewBox="0 0 40 57" fill="none" xmlns="http://www.w3.org/2000/svg">
<path d="M20.186 20.4215C19.8738 20.4186 19.5616 20.4085 19.2494 20.3985C18.596 20.3778 17.9427 20.3247 17.294 20.2462C16.6867 20.173 16.0829 20.055 15.4892 19.9098C15.1575 19.8284 14.8269 19.7463 14.4976 19.6572C14.1683 19.5675 13.8454 19.466 13.5202 19.3621C13.2287 19.2688 12.946 19.1479 12.6603 19.0381C12.2961 18.8976 11.945 18.7123 11.6091 18.5163C11.2361 18.2985 10.8861 18.0371 10.5692 17.7443C9.9483 17.1718 9.45547 16.4654 9.06062 15.7217C8.86172 15.3475 8.7006 14.9538 8.55422 14.5566C8.39664 14.1299 8.28155 13.6973 8.20836 13.2487C8.17 13.0138 8.15465 12.7754 8.13577 12.5381C8.12337 12.3817 8.10921 12.2259 8.10389 12.0689C8.09681 11.8718 8.09032 11.6752 8.08324 11.4787C8.0732 11.173 8.08796 10.8661 8.11511 10.5615C8.1399 10.2782 8.17708 9.99787 8.2302 9.7187C8.26266 9.54813 8.28863 9.37461 8.33172 9.20581C8.37893 9.02107 8.42614 8.83634 8.47336 8.65219C8.5672 8.28626 8.69705 7.92742 8.84283 7.5792C9.10961 6.94059 9.44779 6.3315 9.79011 5.73184C9.92999 5.48632 10.0787 5.24374 10.2322 5.00589C10.4092 4.73203 10.5804 4.45405 10.7704 4.18904C11.065 3.77708 11.3559 3.3657 11.6811 2.97617C12.1958 2.35881 12.8061 1.817 13.5055 1.41861C13.6967 1.31001 13.8956 1.21676 14.0933 1.12055C14.2285 1.05504 14.363 0.990707 14.5017 0.932276C14.6552 0.867943 14.8081 0.803021 14.9609 0.738688C15.1244 0.670224 15.3009 0.623008 15.4691 0.565758C15.8344 0.441815 16.2145 0.355643 16.5899 0.268292C16.7605 0.228158 16.9299 0.196878 17.1022 0.168548C17.2793 0.139628 17.4569 0.103036 17.6357 0.0847397C17.8577 0.062902 18.079 0.0404744 18.3009 0.0186367C18.3753 0.010964 18.4526 0.0133246 18.527 0.0109637C18.6568 0.0080127 18.7872 0.00388 18.9171 0.000928966C19.0841 -0.0037927 19.2535 0.0103735 19.4194 0.023358C19.6289 0.0387034 19.8366 0.0564094 20.0438 0.089461C20.1955 0.11366 20.3253 0.195699 20.4139 0.309609C20.5555 0.334398 20.696 0.361547 20.8359 0.391648C21.1363 0.455981 21.4296 0.539198 21.7247 0.624188C22.3114 0.793578 22.8969 0.965329 23.4835 1.13472C24.0678 1.30411 24.6504 1.48943 25.2099 1.72965C25.7865 1.97694 26.3313 2.28149 26.866 2.60788C27.3818 2.92246 27.89 3.24825 28.3752 3.60828C28.8703 3.97598 29.3549 4.36374 29.8123 4.77748C30.0578 4.9994 30.2957 5.22486 30.5206 5.46743C30.6286 5.5837 30.7271 5.70883 30.8287 5.831C30.9172 5.93724 31.004 6.05115 31.0801 6.16624C31.2678 6.45072 31.4472 6.7352 31.5977 7.04093C31.6732 7.19438 31.7417 7.34902 31.8078 7.5066C31.8716 7.65828 31.9229 7.8141 31.976 7.96932C32.025 8.11038 32.0563 8.25793 32.0947 8.40195C32.1147 8.4769 32.1236 8.55658 32.1377 8.63272C32.1525 8.71121 32.169 8.7903 32.1785 8.86998C32.2162 9.194 32.241 9.51626 32.2398 9.84264C32.2369 10.4812 32.1755 11.1199 32.0805 11.7514C31.9902 12.3546 31.8586 12.9583 31.6797 13.5421C31.6207 13.7339 31.5641 13.9257 31.4962 14.1146C31.3486 14.5271 31.1651 14.9202 30.9532 15.3032C30.6439 15.8616 30.2331 16.3509 29.7917 16.8083C29.2929 17.3247 28.7547 17.8028 28.1892 18.2442C27.8676 18.4957 27.5247 18.7211 27.17 18.9236C26.7975 19.1366 26.3968 19.3066 25.996 19.4589C25.8107 19.5291 25.623 19.5905 25.4353 19.6531C25.2837 19.7038 25.132 19.7593 24.9779 19.803C24.6816 19.8874 24.3883 19.9789 24.0879 20.0462C23.9049 20.0881 23.722 20.1288 23.5384 20.1707C23.3767 20.2073 23.2085 20.2238 23.0438 20.2492C22.4395 20.3418 21.8233 20.3914 21.2118 20.4085C20.9191 20.4168 20.6269 20.4233 20.3348 20.4233C20.2846 20.4227 20.2356 20.4221 20.186 20.4215ZM16.8702 19.0068C17.2137 19.0658 17.5578 19.1065 17.9037 19.1484C18.4691 19.1915 19.0334 19.2275 19.6006 19.2447C19.9081 19.2541 20.215 19.2576 20.5225 19.26C20.7692 19.2624 21.0165 19.2506 21.2632 19.2429C21.589 19.2228 21.9142 19.2045 22.2394 19.1726C22.4005 19.1573 22.5616 19.1461 22.7222 19.1207C22.9039 19.093 23.0863 19.0652 23.2681 19.0369C23.5036 18.9832 23.7397 18.9301 23.9752 18.8764C24.0926 18.8498 24.2083 18.8103 24.3246 18.7778C24.4473 18.743 24.5707 18.7082 24.6935 18.6733C25.1727 18.5134 25.6502 18.3564 26.1129 18.1516C26.3673 18.033 26.6146 17.9031 26.8548 17.7567C27.1611 17.5602 27.4521 17.3454 27.736 17.1175C27.9785 16.9104 28.2217 16.7038 28.4548 16.486C28.5646 16.3839 28.6779 16.2842 28.7824 16.1762C28.9123 16.0428 29.0409 15.9082 29.1708 15.7748C29.3508 15.5718 29.5208 15.3617 29.6801 15.1415C29.8253 14.9273 29.9546 14.706 30.0756 14.477C30.2007 14.2261 30.3105 13.97 30.4067 13.7067C30.5743 13.2204 30.6982 12.7223 30.8139 12.2218C30.8552 12.0063 30.8965 11.7915 30.929 11.5749C30.9644 11.34 30.9922 11.1051 31.0193 10.869C31.0352 10.6843 31.0512 10.5007 31.0606 10.3154C31.0712 10.0958 31.0754 9.87746 31.076 9.65673C31.0706 9.54813 31.0647 9.43953 31.0588 9.33093C31.0523 9.20994 31.0317 9.08836 31.0169 8.96736C30.998 8.86821 30.9797 8.76846 30.9609 8.66872C30.9414 8.56484 30.9077 8.46156 30.8788 8.35945C30.8422 8.25262 30.8056 8.14639 30.769 8.03956C30.7336 7.93509 30.6846 7.83358 30.6404 7.73206C30.5896 7.62818 30.5383 7.52313 30.4863 7.41925C30.4356 7.31537 30.3718 7.21622 30.3134 7.11588C30.2172 6.97128 30.1222 6.82786 30.0183 6.68857C29.9245 6.56286 29.8259 6.44245 29.7262 6.32146C29.5668 6.14971 29.4051 5.98564 29.2375 5.82274C28.9093 5.52822 28.5735 5.24433 28.2317 4.96576C27.9018 4.69721 27.5583 4.44814 27.2101 4.2038C26.6193 3.81308 26.0179 3.43712 25.394 3.10011C25.1804 2.99328 24.9649 2.89 24.7454 2.79615C24.5235 2.70054 24.298 2.61673 24.0708 2.53528C24.0773 2.53764 24.0832 2.54 24.0897 2.54177C23.5183 2.3535 22.9411 2.18824 22.3633 2.02062C21.7985 1.85595 21.2354 1.67948 20.6635 1.54078C20.3572 1.47645 20.0497 1.42274 19.7393 1.38379C19.5958 1.36608 19.4719 1.29053 19.3845 1.18489C19.2317 1.17544 19.0794 1.16836 18.9265 1.16187C18.7601 1.15538 18.5907 1.16777 18.4237 1.17426C18.1852 1.19787 17.9468 1.22207 17.7083 1.24568C17.6003 1.25689 17.4923 1.2805 17.3855 1.29821C17.2804 1.31532 17.1754 1.33244 17.0703 1.34955C16.8537 1.39972 16.6377 1.44989 16.4217 1.50065C16.2405 1.54314 16.0611 1.60039 15.8816 1.65233C15.7919 1.68302 15.7022 1.71312 15.6119 1.7444C15.5305 1.77214 15.4455 1.79516 15.3658 1.8288C15.1834 1.90553 15.0016 1.98226 14.8193 2.05957C14.51 2.20949 14.1996 2.35586 13.9039 2.53174C13.715 2.65391 13.5344 2.78612 13.3597 2.92836C13.1537 3.1066 12.9584 3.29429 12.7724 3.4926C12.3528 3.95945 11.9928 4.47116 11.6298 4.98228C11.3719 5.38303 11.1163 5.78378 10.8702 6.19162C10.6441 6.56522 10.4393 6.94767 10.2387 7.33485C10.0693 7.68779 9.90166 8.0372 9.76592 8.4049C9.64138 8.7726 9.54577 9.14502 9.45015 9.52157C9.423 9.66322 9.39585 9.80428 9.3687 9.94475C9.32267 10.1885 9.29139 10.434 9.26896 10.6801C9.24831 10.9705 9.23709 11.2597 9.24653 11.5501C9.25243 11.7248 9.25893 11.8989 9.26425 12.073C9.29317 12.4466 9.31677 12.8202 9.37461 13.1903C9.41239 13.3868 9.45783 13.5798 9.51331 13.7722C9.62899 14.1317 9.76356 14.4846 9.91642 14.8287C10.0504 15.112 10.1968 15.3865 10.3603 15.6538C10.5237 15.9094 10.6979 16.1573 10.8879 16.3939C11.0402 16.5728 11.1995 16.7433 11.3707 16.9045C11.5395 17.0526 11.7142 17.1913 11.8972 17.3218C12.1026 17.4587 12.3133 17.5832 12.531 17.6989C12.9401 17.9025 13.3632 18.0636 13.7894 18.2277C14.1311 18.3375 14.4711 18.4443 14.8169 18.5388C15.1734 18.6356 15.5311 18.7235 15.8899 18.8114H15.8887C16.2163 18.8817 16.5415 18.9501 16.8702 19.0068Z" fill="currentColor"/>
<path d="M6.1012 10.8012C5.66445 10.7587 5.22179 10.6743 4.80687 10.5285C4.46869 10.4105 4.14407 10.2423 3.88143 9.99618C3.59931 9.73177 3.42992 9.39653 3.3473 9.02116C3.20624 8.37547 3.29594 7.71149 3.41752 7.07052C3.47477 6.76952 3.55209 6.47264 3.63649 6.17754C3.72089 5.88539 3.80706 5.59264 3.90208 5.30344C3.95402 5.14526 4.00596 4.98768 4.05731 4.82891C4.11397 4.65657 4.18126 4.48718 4.25149 4.32015C4.28454 4.24048 4.32585 4.16611 4.36658 4.08997C4.41675 3.9979 4.48462 3.92413 4.55721 3.84917C4.66522 3.73762 4.8299 3.68332 4.97922 3.66857C5.16218 3.65145 5.34397 3.72168 5.47795 3.84386C5.68157 4.02977 5.79193 4.29596 5.92237 4.5344C6.10533 4.86964 6.29597 5.1972 6.49664 5.52241C6.80355 5.98631 7.11518 6.44844 7.46694 6.8793C7.60446 7.04042 7.74729 7.19506 7.90075 7.34143C7.98692 7.41638 8.07486 7.48721 8.16693 7.55508C8.22536 7.59168 8.28497 7.62591 8.34576 7.65896C8.44374 7.70618 8.54407 7.74808 8.64618 7.78644C8.67274 7.7953 8.6993 7.80297 8.72645 7.81005C8.76894 7.81773 8.81202 7.82422 8.8557 7.82776C8.83799 7.82658 8.82029 7.82481 8.80199 7.82304C8.95367 7.83779 9.09061 7.88855 9.19862 8.00187C9.30485 8.11342 9.36269 8.26392 9.35974 8.41738C9.35738 8.52775 9.3196 8.63634 9.25763 8.72901C9.41817 8.95742 9.40105 9.29501 9.18621 9.4886C8.93833 9.7117 8.67982 9.91591 8.40361 10.1024C8.28674 10.1809 8.1628 10.2523 8.03827 10.3178C7.76087 10.4636 7.47756 10.6023 7.17656 10.6938C6.9151 10.7741 6.64714 10.8136 6.37623 10.8136C6.28534 10.8148 6.19328 10.8107 6.1012 10.8012ZM4.61978 9.09021C4.63689 9.1091 4.65401 9.12681 4.67231 9.14451C4.70359 9.17166 4.73664 9.19763 4.76969 9.22242C4.82635 9.2596 4.8836 9.29384 4.94321 9.3263C5.01994 9.36171 5.09667 9.39417 5.17457 9.42545C5.33865 9.48034 5.50569 9.52225 5.67507 9.56061C5.85863 9.59602 6.04277 9.62553 6.22868 9.64501C6.31485 9.64973 6.40103 9.6515 6.4872 9.64973C6.52969 9.64678 6.57159 9.64206 6.61291 9.63615C6.692 9.62081 6.76991 9.60192 6.84782 9.57949C6.9576 9.54054 7.06619 9.49746 7.1736 9.45201C7.3666 9.35994 7.55429 9.25901 7.73903 9.14923C7.88127 9.05244 8.01937 8.95151 8.15453 8.84528C8.07839 8.81577 8.00344 8.7839 7.92966 8.75084C7.52419 8.56965 7.18718 8.2834 6.88027 7.96764C6.62353 7.70323 6.38804 7.4093 6.17557 7.10889C6.0593 6.9454 5.93889 6.78427 5.82793 6.61724C5.61487 6.29499 5.40063 5.97333 5.20704 5.63868C5.16632 5.56844 5.12618 5.49703 5.08605 5.4262C4.89895 5.98808 4.73723 6.55704 4.59263 7.13131C4.53833 7.41579 4.48462 7.69909 4.4557 7.9883C4.44626 8.12109 4.44095 8.2533 4.44213 8.38668C4.44803 8.49115 4.45747 8.59444 4.47223 8.69891C4.48521 8.76501 4.49937 8.83052 4.51649 8.89544C4.52947 8.93027 4.54364 8.96509 4.55899 8.99873C4.55427 8.99165 4.55014 8.98456 4.54542 8.97748C4.55073 8.98634 4.55604 8.99519 4.56135 9.00404C4.56548 9.0129 4.56961 9.02116 4.57374 9.02942C4.57079 9.02234 4.56725 9.01526 4.5643 9.00876C4.58024 9.03532 4.59912 9.06306 4.61978 9.09021Z" fill="currentColor"/>
<path d="M34.2556 12.6957C34.124 12.6945 33.9924 12.6933 33.8608 12.6921C33.7356 12.691 33.6087 12.6715 33.4848 12.6609C33.2251 12.639 32.9713 12.5788 32.7187 12.5192C32.5139 12.4702 32.3079 12.3988 32.1137 12.3203C31.8664 12.22 31.6262 12.1114 31.3919 11.9833C31.1139 11.8304 31.0331 11.4492 31.1918 11.1848C31.3595 10.905 31.7124 10.8312 31.9904 10.9841C32.0134 10.9971 32.0376 11.0101 32.0612 11.023C32.2867 11.1346 32.5163 11.2284 32.7518 11.3152C32.9194 11.3654 33.0858 11.4102 33.2558 11.4515C33.362 11.4686 33.4689 11.4864 33.5751 11.5029C33.5733 11.5029 33.5721 11.5029 33.5704 11.5029C33.6725 11.5117 33.7752 11.52 33.8779 11.5283C33.9688 11.5353 34.0614 11.5342 34.1535 11.533C34.1919 11.5324 34.2308 11.5324 34.2692 11.5324C34.3955 11.5241 34.5224 11.5165 34.6487 11.5082C34.7827 11.4993 34.9172 11.4745 35.05 11.4574C35.2218 11.4262 35.3935 11.3949 35.5641 11.3536C35.7335 11.3128 35.9005 11.2656 36.0681 11.216C36.2847 11.1369 36.4954 11.0525 36.7073 10.9617C36.8808 10.8773 37.0502 10.7864 37.2155 10.686C37.3058 10.6246 37.3931 10.5603 37.4781 10.4924C37.5366 10.4393 37.5938 10.3844 37.6493 10.3272C37.6977 10.2717 37.7431 10.215 37.7874 10.156C37.8281 10.0946 37.8659 10.0333 37.9025 9.96893C37.9438 9.88453 37.981 9.79895 38.014 9.71041C38.0359 9.63841 38.0554 9.56699 38.0725 9.49322C38.0925 9.38462 38.1079 9.27602 38.1191 9.16565C38.1297 9.00099 38.1333 8.8375 38.1309 8.67283C38.1232 8.53649 38.1162 8.39956 38.1085 8.26264C38.1002 8.11272 38.0766 7.96163 38.0607 7.81172C38.0495 7.70843 38.0359 7.60515 38.0199 7.50245C37.9757 7.56265 37.932 7.62226 37.8866 7.68187C37.798 7.79755 37.7107 7.91441 37.6192 8.02773C37.412 8.28447 37.186 8.52292 36.9487 8.75192C36.7846 8.91009 36.6105 9.06355 36.4347 9.20933C36.2051 9.40056 35.979 9.59532 35.74 9.77475C35.2389 10.1513 34.6941 10.4712 34.1134 10.7073C33.8395 10.8182 33.5521 10.8985 33.2623 10.9534C32.9701 11.0083 32.6644 11.0331 32.3687 11C32.1072 10.9711 31.8234 10.9091 31.6321 10.7144C31.5076 10.5875 31.4368 10.4311 31.4368 10.2522C31.4368 9.9347 31.7207 9.67677 32.0323 9.68386C32.1757 9.68681 32.3038 9.74229 32.4018 9.83141C32.4313 9.83613 32.4614 9.84026 32.4909 9.84439C32.5682 9.84852 32.6443 9.84911 32.7217 9.84852C32.8238 9.84144 32.9253 9.82964 33.0262 9.81429C33.1596 9.78773 33.29 9.75586 33.4199 9.71809C33.5839 9.66379 33.7439 9.60182 33.9021 9.53276C34.1352 9.42121 34.3607 9.29727 34.5802 9.16152C34.8346 8.99686 35.0825 8.82274 35.3156 8.62916C35.4673 8.50344 35.6178 8.37773 35.7695 8.25201C35.7488 8.26854 35.7288 8.28565 35.7087 8.30218C35.9725 8.06551 36.2346 7.83119 36.4783 7.57327C36.7959 7.21502 37.075 6.82725 37.3495 6.43653C37.4268 6.32499 37.5047 6.21343 37.5785 6.09893C37.7172 5.88233 37.8529 5.64388 38.1126 5.56244C38.3404 5.49102 38.5677 5.53352 38.74 5.70468C38.9112 5.87525 38.9519 6.10779 38.9967 6.33502C39.0298 6.50146 39.0605 6.66849 39.0876 6.83551C39.1349 7.1194 39.188 7.40389 39.2181 7.69014C39.2529 8.01829 39.2895 8.34703 39.2942 8.67755C39.2972 8.88235 39.293 9.08657 39.2747 9.29078C39.2576 9.48378 39.2246 9.67028 39.1821 9.85915C39.0935 10.2546 38.8941 10.6176 38.6544 10.9398C38.2413 11.4946 37.6033 11.8405 36.9824 12.1102C36.6814 12.2406 36.3727 12.338 36.0587 12.4325C35.9312 12.4708 35.799 12.495 35.6692 12.5263C35.5948 12.544 35.5169 12.554 35.4413 12.5676C35.3569 12.583 35.2714 12.6024 35.1858 12.6131C35.0453 12.6308 34.9031 12.6579 34.7626 12.6668C34.6009 12.6768 34.438 12.6963 34.2757 12.6969C34.2692 12.6963 34.2621 12.6957 34.2556 12.6957Z" fill="currentColor"/>
<path d="M16.4912 6.45147C16.199 6.32516 16.0645 5.97694 16.189 5.68538C16.5248 4.89804 16.9126 4.13254 17.2868 3.36291C17.4697 2.98636 17.6533 2.60922 17.8209 2.22558C17.9171 2.00484 18.0133 1.78411 18.1095 1.56278C18.1951 1.36683 18.2842 1.17324 18.3851 0.984965C18.4772 0.813215 18.6189 0.640874 18.8066 0.571819C19.0586 0.479157 19.3212 0.567687 19.4847 0.77485C19.6671 1.00621 19.6134 1.35207 19.4068 1.54507C19.392 1.56927 19.3785 1.59406 19.3643 1.61944C19.1695 2.01488 19.0108 2.42684 18.826 2.827C18.6348 3.24015 18.4406 3.65093 18.2417 4.06054C17.9059 4.75226 17.56 5.44103 17.2579 6.14869C17.1646 6.36648 16.945 6.49809 16.7184 6.49809C16.6411 6.49809 16.5644 6.48275 16.4912 6.45147Z" fill="currentColor"/>
<path d="M18.7144 7.22701C18.4158 7.14143 18.2198 6.80914 18.3154 6.50696C18.4736 6.00764 18.6536 5.51541 18.8307 5.02318C18.9871 4.58819 19.1488 4.1538 19.3188 3.72354C19.5023 3.2614 19.6924 2.80104 19.8665 2.33537C19.958 2.08866 20.0495 1.84313 20.141 1.59643C20.2012 1.4353 20.2513 1.26178 20.3599 1.12544C20.4762 0.979662 20.6521 0.902344 20.8368 0.902344C21.1537 0.902344 21.4128 1.18623 21.4052 1.49786C21.4022 1.61354 21.3662 1.71978 21.3048 1.80772C21.2464 1.94701 21.1974 2.09102 21.1443 2.23326C21.0723 2.42626 21.0009 2.62044 20.9283 2.81403C20.8126 3.12507 20.6863 3.43257 20.5641 3.74065C20.2879 4.43651 20.0241 5.13649 19.7709 5.84061C19.7792 5.817 19.788 5.7934 19.7957 5.76979C19.6711 6.12155 19.5466 6.47272 19.4339 6.82803C19.3542 7.07828 19.1252 7.24944 18.872 7.24944C18.8212 7.24944 18.7681 7.24236 18.7144 7.22701Z" fill="currentColor"/>
<path d="M23.9901 7.06502C23.8366 7.06147 23.6885 6.99655 23.5822 6.885C23.4719 6.76932 23.427 6.62649 23.4211 6.47009C23.394 5.68629 23.3686 4.9025 23.3426 4.11811C23.3202 3.56213 23.3048 3.00203 23.2187 2.45136C23.1703 2.13796 23.4335 1.84345 23.7369 1.81158C23.888 1.79623 24.042 1.8405 24.1606 1.93493C24.2864 2.03527 24.3525 2.17337 24.3767 2.32919C24.4847 3.01796 24.4929 3.72326 24.5154 4.41911C24.5384 5.11202 24.5608 5.80433 24.5856 6.49724C24.5962 6.81005 24.3011 7.0662 24.0019 7.0662C23.9977 7.06561 23.9942 7.06561 23.9901 7.06502Z" fill="currentColor"/>
<path d="M17.7738 12.8828C17.4592 12.8757 17.1942 12.6042 17.2054 12.2873C17.2261 11.6935 17.2597 11.1004 17.2904 10.5066C17.3205 9.93174 17.3435 9.35688 17.3595 8.78143C17.3683 8.46449 17.6369 8.20538 17.955 8.21306C18.2707 8.22014 18.5322 8.49163 18.5234 8.80858C18.5074 9.38462 18.4844 9.95948 18.4543 10.5343C18.423 11.1275 18.39 11.7207 18.3693 12.3144C18.3581 12.6266 18.1008 12.8828 17.7874 12.8828C17.7821 12.8828 17.7779 12.8828 17.7738 12.8828Z" fill="currentColor"/>
<path d="M20.2673 12.8759C19.9645 12.8695 19.6724 12.5974 19.6989 12.2804C19.7934 11.139 19.8524 9.99455 19.9492 8.85368C19.9622 8.69669 20.0129 8.55681 20.1286 8.44585C20.2402 8.33961 20.3907 8.28177 20.5441 8.28531C20.8463 8.29239 21.1396 8.56389 21.1125 8.88083C21.0157 10.0223 20.9573 11.1661 20.8622 12.3076C20.8493 12.464 20.7979 12.6045 20.6822 12.7154C20.5742 12.8181 20.4296 12.8765 20.2809 12.8765C20.2768 12.8765 20.272 12.8759 20.2673 12.8759Z" fill="currentColor"/>
<path d="M16.4185 16.1503C16.1069 15.9355 15.8271 15.6841 15.5597 15.4161C15.2676 15.1228 15.0256 14.7923 14.806 14.4417C14.4425 13.8597 14.2129 13.1739 14.2129 12.4846C14.2129 12.167 14.4968 11.9085 14.8084 11.9162C15.1307 11.9233 15.3768 12.1948 15.3768 12.5117C15.3768 12.533 15.3768 12.5542 15.3774 12.576C15.3833 12.6628 15.3933 12.749 15.4057 12.8345C15.4281 12.9443 15.4553 13.0512 15.486 13.158C15.5214 13.263 15.5603 13.3657 15.6028 13.4678C15.6796 13.6278 15.7657 13.7818 15.8584 13.9329C15.9546 14.0787 16.0555 14.2192 16.1647 14.3543C16.3146 14.5267 16.4746 14.6884 16.6416 14.8448C16.7773 14.9646 16.916 15.0779 17.063 15.1842C17.2501 15.3105 17.4437 15.4256 17.6426 15.5318C17.8734 15.6463 18.1077 15.7478 18.3491 15.8363C18.5722 15.9113 18.7976 15.9756 19.0278 16.0293C19.2657 16.0783 19.5047 16.1161 19.7461 16.1415C19.9769 16.1586 20.2064 16.1615 20.4366 16.1545C20.6928 16.1403 20.9454 16.1155 21.1992 16.0766C21.45 16.0311 21.6961 15.9727 21.9411 15.9013C22.1718 15.8275 22.3961 15.7431 22.618 15.6457C22.837 15.5436 23.0483 15.4291 23.2549 15.3028C23.4219 15.1948 23.5836 15.0797 23.74 14.9558C23.8616 14.8495 23.9779 14.738 24.0894 14.6199C24.2022 14.4913 24.306 14.3567 24.4052 14.2168C24.571 13.9713 24.7121 13.714 24.852 13.4531C24.9724 13.2105 25.0869 12.9679 25.1843 12.7147C25.2049 12.6534 25.2244 12.592 25.2427 12.5294C25.3306 12.2249 25.6576 12.0431 25.9627 12.1304C26.2673 12.2172 26.4497 12.5459 26.3617 12.8505C26.2773 13.1409 26.1605 13.4165 26.0336 13.6898C25.9692 13.8296 25.8966 13.9672 25.8235 14.1029C25.6871 14.3567 25.5472 14.6058 25.3843 14.8436C25.1713 15.1558 24.9299 15.4403 24.6548 15.6994C24.3367 15.9986 23.9643 16.2395 23.5878 16.4572C22.8724 16.8698 22.068 17.1141 21.2564 17.244C20.9182 17.2977 20.5759 17.3243 20.233 17.3243C18.8832 17.326 17.5281 16.9158 16.4185 16.1503Z" fill="currentColor"/>
<path d="M13.2522 38.6174C12.6437 38.6097 12.0363 38.5767 11.429 38.5448C11.1026 38.5277 10.778 38.5076 10.4528 38.4822C10.1884 38.4622 9.92811 38.4338 9.67019 38.3713C9.53444 38.3388 9.40519 38.2644 9.30072 38.1741C9.16556 38.0579 9.06523 37.8784 9.04575 37.6996C9.02392 37.4895 9.08234 37.2764 9.12365 37.071C9.15316 36.9258 9.18504 36.7812 9.21632 36.6361C9.28479 36.3191 9.35797 36.0034 9.43116 35.6876C9.71092 34.4794 10.0426 33.2854 10.3601 32.0873C10.6977 30.8142 11.0306 29.54 11.3818 28.2705C11.7099 27.0853 12.0841 25.912 12.4548 24.7398C12.708 23.9383 12.9647 23.1386 13.215 22.3371C13.4481 21.5905 13.6759 20.8415 13.8524 20.0796C13.8672 20.0034 13.8825 19.9273 13.8937 19.8506C13.9091 19.546 14.1859 19.3017 14.4886 19.3087C14.8109 19.3164 15.057 19.5873 15.057 19.9043C15.057 20.0512 15.0163 20.2076 14.9832 20.3499C14.9508 20.4921 14.9224 20.6367 14.8847 20.7772C14.8026 21.0758 14.7218 21.3745 14.6332 21.6713C14.4574 22.2616 14.2774 22.85 14.0903 23.4372C13.6836 24.7115 13.2811 25.9869 12.8904 27.2659C12.5215 28.4741 12.1963 29.6946 11.8734 30.9158C11.55 32.1375 11.2189 33.3575 10.9002 34.5798C10.7072 35.3211 10.5325 36.0671 10.366 36.8149C10.366 36.8143 10.366 36.8143 10.366 36.8137C10.3649 36.819 10.3637 36.8237 10.3625 36.8291C10.3619 36.8308 10.3613 36.8326 10.3613 36.8344C10.3613 36.835 10.3607 36.8367 10.3607 36.8373C10.3601 36.8403 10.3596 36.8438 10.359 36.8474C10.3584 36.8503 10.3572 36.8538 10.3566 36.8568C10.3247 37.0038 10.2929 37.1501 10.2633 37.2977C10.31 37.3036 10.3566 37.3089 10.4032 37.3136C11.6102 37.4045 12.8201 37.4606 14.0301 37.4612C15.3462 37.4623 16.6612 37.4523 17.9774 37.4252C18.9241 37.4063 19.8713 37.3892 20.818 37.3744C21.763 37.3597 22.7073 37.3573 23.6516 37.3331C24.3321 37.2983 25.0103 37.2452 25.6884 37.1773C26.3849 37.107 27.0795 37.0309 27.7707 36.9188C28.0587 36.8662 28.3461 36.8119 28.6324 36.75C28.9239 36.6874 29.2179 36.6272 29.5041 36.544C29.5147 36.5404 29.5248 36.5369 29.5348 36.5328C29.5348 36.5322 29.5348 36.5316 29.5348 36.5316C29.5348 36.5145 29.5348 36.4968 29.5348 36.4791C29.5319 36.446 29.5283 36.4135 29.5242 36.3805C29.4864 36.1916 29.4309 36.0087 29.3766 35.8239C29.255 35.4486 29.1293 35.075 29.0024 34.7014C28.8596 34.2805 28.7103 33.8597 28.5893 33.4324C28.3573 32.615 28.1472 31.7922 27.9123 30.976C27.8551 30.8007 27.7984 30.6242 27.7412 30.4477C27.681 30.2636 27.606 30.083 27.5381 29.9018C27.4083 29.5536 27.2513 29.2136 27.099 28.8742C26.8836 28.4103 26.6646 27.9488 26.435 27.492C26.2066 27.0393 25.9522 26.5996 25.699 26.1611C25.4429 25.7184 25.1897 25.2746 24.943 24.8266C24.6987 24.3816 24.4525 23.9377 24.1881 23.5045C23.9219 23.0884 23.644 22.683 23.3418 22.2911C23.0431 21.9033 22.7362 21.5226 22.4517 21.1242C22.267 20.8657 22.3237 20.498 22.5822 20.3109C22.8377 20.1256 23.2101 20.1834 23.3949 20.4414C23.7313 20.9117 24.0984 21.3574 24.4454 21.8189C24.8161 22.3117 25.1496 22.8329 25.4612 23.3641C25.7834 23.9135 26.0791 24.479 26.392 25.0332C26.6882 25.5585 27.0016 26.0737 27.2849 26.6055C27.56 27.1219 27.8132 27.649 28.0587 28.1796C28.3066 28.7137 28.5391 29.2537 28.7445 29.8062C28.9375 30.3261 29.0981 30.8597 29.2397 31.3956C29.3955 31.9829 29.5525 32.5683 29.7184 33.1527C29.9072 33.7446 30.1061 34.3331 30.3062 34.9215C30.4071 35.2196 30.4986 35.5194 30.5877 35.821C30.6763 36.1196 30.7141 36.4206 30.6839 36.7305C30.6769 36.8025 30.6503 36.8769 30.6255 36.9447C30.6019 37.0108 30.5759 37.0805 30.5376 37.1401C30.4508 37.2764 30.3511 37.3892 30.2183 37.483C30.0365 37.6105 29.8134 37.6701 29.5997 37.7226C29.4416 37.7616 29.2834 37.7988 29.1246 37.8342C28.8366 37.8991 28.5468 37.9581 28.2558 38.0112C27.6396 38.124 27.0217 38.2072 26.399 38.2739C25.8065 38.337 25.2127 38.3972 24.6184 38.4403C23.9727 38.4869 23.3264 38.5064 22.679 38.5153C21.4389 38.5318 20.1995 38.5477 18.9601 38.5696C17.7041 38.5914 16.4493 38.6203 15.1934 38.6239C14.9862 38.6251 14.7784 38.6251 14.5707 38.6251C14.1322 38.6251 13.6925 38.6233 13.2522 38.6174Z" fill="currentColor"/>
<path d="M10.3617 36.838C10.3617 36.8372 10.3625 36.8356 10.3625 36.8348C10.3625 36.8364 10.3617 36.838 10.3617 36.8405C10.3609 36.8397 10.3617 36.8388 10.3617 36.838Z" fill="currentColor"/>
<path d="M10.3655 36.8184C10.3643 36.8225 10.3637 36.8267 10.3625 36.8309C10.3619 36.8327 10.3613 36.8345 10.3613 36.8363C10.3625 36.8303 10.3637 36.8243 10.3655 36.8184Z" fill="currentColor"/>
<path d="M22.1522 47.4427C22.0407 47.4297 21.9463 47.3961 21.8406 47.3589C21.7645 47.3318 21.686 47.2763 21.6234 47.2261C21.565 47.1795 21.5101 47.1222 21.4641 47.0638C21.3667 46.9405 21.2976 46.8077 21.2351 46.6648C21.1666 46.5072 21.1406 46.3325 21.1152 46.1643C21.0804 45.9353 21.0881 45.6963 21.0999 45.4661C21.1058 45.3481 21.117 45.2312 21.1306 45.1149C21.0574 45.1828 20.9813 45.2483 20.9028 45.3097C20.2671 45.8078 19.4857 46.087 18.6783 46.0994C18.3159 46.1053 17.9482 46.0268 17.6059 45.9129C17.1951 45.7772 16.8315 45.5381 16.5093 45.2536C16.2313 45.0069 15.9905 44.7171 15.7851 44.4073C15.5478 44.049 15.3796 43.6542 15.2409 43.2487C15.0898 42.8084 14.9918 42.3539 14.885 41.9019C14.8148 41.6044 14.7652 41.2992 14.7156 40.9971C14.5999 40.2959 14.5037 39.593 14.4565 38.8829C14.4353 38.5672 14.6495 38.2774 14.9747 38.2431C15.281 38.2113 15.5933 38.4444 15.6145 38.7614C15.6641 39.5109 15.7721 40.251 15.8931 40.9918C16.0035 41.5583 16.1186 42.1232 16.2803 42.678C16.3511 42.9034 16.4302 43.1265 16.5252 43.3431C16.5913 43.4801 16.6633 43.6123 16.7418 43.7421C16.8197 43.859 16.9029 43.9711 16.9903 44.0803C17.0776 44.18 17.1679 44.2745 17.263 44.366C17.3509 44.4427 17.4406 44.5147 17.5345 44.5832C17.6071 44.6298 17.6791 44.6735 17.7534 44.7154C17.8201 44.7467 17.8868 44.7756 17.9553 44.8021C18.0538 44.834 18.153 44.8612 18.2533 44.8859C18.3495 44.9042 18.4446 44.919 18.5413 44.929C18.6187 44.9332 18.6954 44.9343 18.7727 44.9337C18.8636 44.9278 18.9533 44.9184 19.0436 44.9048C19.1457 44.8842 19.2461 44.8594 19.3464 44.831C19.4656 44.7903 19.5825 44.7455 19.6982 44.6953C19.7926 44.6493 19.8841 44.6003 19.9744 44.5466C20.0546 44.4911 20.1331 44.4338 20.2105 44.373C20.3928 44.2143 20.5563 44.0396 20.721 43.8625C20.94 43.5963 21.1501 43.3248 21.3549 43.0486C21.454 42.9152 21.5532 42.7824 21.6512 42.6485C21.7509 42.5127 21.8465 42.3717 21.9545 42.2418C22.1044 42.0618 22.3429 41.9792 22.5701 42.0447C22.6439 42.0653 22.7129 42.1031 22.7731 42.1515C23.0322 42.0754 23.3144 42.194 23.4519 42.4342C23.8219 43.0817 24.1046 43.8224 24.1471 44.5714C24.1672 44.9214 24.1359 45.2778 24.0604 45.619C24.0208 45.7984 23.9671 45.9684 23.8969 46.1384C23.8208 46.3219 23.7122 46.4895 23.5983 46.6512C23.4961 46.7959 23.3663 46.9269 23.2347 47.0443C23.109 47.1565 22.9703 47.2515 22.8174 47.3217C22.6758 47.3861 22.5323 47.4209 22.3783 47.4421C22.3452 47.4468 22.3098 47.4486 22.2744 47.4486C22.2325 47.4498 22.1912 47.4474 22.1522 47.4427ZM22.3305 46.267C22.3417 46.2617 22.3529 46.2552 22.3647 46.2487C22.3913 46.2298 22.4172 46.211 22.4432 46.1909C22.4928 46.146 22.5394 46.1 22.5849 46.0522C22.6256 46.0032 22.6651 45.953 22.7029 45.9017C22.736 45.8492 22.7666 45.7966 22.7962 45.7423C22.8233 45.6839 22.8481 45.6249 22.8711 45.5647C22.8918 45.4944 22.9113 45.4242 22.9278 45.3528C22.9478 45.2442 22.9638 45.1356 22.9762 45.0264C22.9844 44.9031 22.988 44.7797 22.9862 44.6558C22.9797 44.5631 22.9703 44.4716 22.9573 44.379C22.9337 44.2591 22.9042 44.1417 22.8735 44.0231C22.818 43.8513 22.7578 43.6831 22.6899 43.5167C22.6474 43.6465 22.6061 43.7769 22.5677 43.9086C22.504 44.1275 22.4515 44.3488 22.3972 44.5702C22.37 44.716 22.3435 44.8623 22.3169 45.0081C22.2921 45.1444 22.2827 45.2855 22.2685 45.4236C22.2591 45.5688 22.2549 45.7128 22.2573 45.8586C22.2632 45.943 22.2715 46.0262 22.2839 46.1094C22.2898 46.1395 22.2968 46.1691 22.3045 46.1986C22.3122 46.221 22.3204 46.2434 22.3293 46.2653C22.3293 46.2653 22.3299 46.2658 22.3305 46.267C22.3317 46.2658 22.3323 46.2658 22.3334 46.2653C22.3323 46.2658 22.3311 46.2658 22.3305 46.267Z" fill="currentColor"/>
<path d="M27.8249 47.0085C27.678 46.9855 27.5322 46.9442 27.4129 46.8503C27.289 46.7529 27.171 46.6313 27.1007 46.4873C27.0311 46.3439 26.9791 46.204 26.9467 46.0482C26.9048 45.8493 26.9018 45.6427 26.9036 45.4403C26.9048 45.2662 26.9189 45.0862 26.942 44.9138C26.9608 44.7675 26.9762 44.6193 27.0004 44.4741C27.0376 44.2487 27.0742 44.0214 27.1208 43.7972C27.0393 43.8355 26.9567 43.8704 26.8723 43.9022C26.5087 44.0392 26.1228 44.0669 25.7397 44.0274C25.4393 43.9967 25.1471 43.8686 24.8928 43.7116C24.5847 43.5215 24.3391 43.2406 24.1349 42.9455C23.8599 42.5483 23.6881 42.0962 23.5129 41.65C23.4597 41.5154 23.4214 41.3732 23.3771 41.2351C23.3346 41.1064 23.2962 40.9777 23.2602 40.8467C23.1741 40.5351 23.0932 40.2235 23.0159 39.9095C22.9533 39.6557 22.8961 39.4007 22.8359 39.1463C22.771 38.8737 22.6995 38.6016 22.6405 38.3271C22.5738 38.0173 22.7586 37.7003 23.0726 37.6265C23.3759 37.554 23.707 37.7481 23.7731 38.058C23.8711 38.5119 23.9886 38.9622 24.0948 39.4143C24.1981 39.8552 24.3138 40.2913 24.4348 40.7275C24.5493 41.0787 24.6655 41.4275 24.8131 41.7663C24.8851 41.9209 24.9642 42.0702 25.0503 42.2172C25.107 42.3034 25.1666 42.3866 25.2304 42.468C25.2752 42.5176 25.3201 42.5648 25.3679 42.6114C25.4133 42.6504 25.4599 42.6876 25.5083 42.7224C25.5408 42.7437 25.575 42.7631 25.6087 42.782C25.6394 42.7968 25.6701 42.8103 25.7007 42.8227C25.7527 42.8393 25.8046 42.854 25.8566 42.867C25.8908 42.8729 25.925 42.8782 25.9593 42.8818C26.0053 42.8847 26.0513 42.8853 26.0974 42.8841C26.1464 42.8812 26.1953 42.8759 26.2437 42.8688C26.2945 42.8593 26.3453 42.8481 26.3948 42.8339C26.468 42.8092 26.5388 42.7826 26.6103 42.7531C26.6805 42.7183 26.7484 42.6817 26.8162 42.6427C26.9821 42.5341 27.1367 42.4137 27.2914 42.2886C27.3811 42.2125 27.4708 42.1369 27.5552 42.0555C27.6331 41.9799 27.7086 41.9056 27.8054 41.8542C27.8981 41.8034 27.9972 41.784 28.0976 41.7875C28.1348 41.7621 28.1761 41.7409 28.2186 41.7244C28.5031 41.6164 28.8731 41.7598 28.9693 42.0625C29.0714 42.3836 29.1588 42.7088 29.242 43.0352C29.3211 43.3474 29.3819 43.6602 29.4338 43.9772C29.4686 44.1902 29.4722 44.4163 29.4704 44.6311C29.4675 45.0248 29.3854 45.4084 29.2491 45.7767C29.1352 46.0854 28.977 46.3799 28.7427 46.6148C28.5326 46.8243 28.2451 47.0185 27.937 47.0185C27.8993 47.0173 27.8621 47.015 27.8249 47.0085ZM28.1926 44.4009C28.1548 44.627 28.1236 44.8536 28.094 45.0815C28.0811 45.2467 28.0693 45.4096 28.0687 45.5755C28.1047 45.5005 28.1371 45.4244 28.1666 45.3465C28.2003 45.2467 28.231 45.147 28.2569 45.0455C28.2746 44.9563 28.2888 44.8678 28.2988 44.7769C28.3042 44.6654 28.3065 44.5532 28.3059 44.4411C28.2977 44.3053 28.2829 44.172 28.2634 44.038C28.2369 44.1584 28.2127 44.2788 28.1926 44.4009Z" fill="currentColor"/>
<path d="M31.9208 27.0224C31.2893 26.9994 30.6507 26.8961 30.0421 26.7291C29.4207 26.5579 28.8092 26.3507 28.2237 26.0822C28.0703 26.012 27.9103 25.9482 27.7622 25.8668C27.6046 25.78 27.4464 25.6932 27.2882 25.6065C27.0356 25.4678 26.7966 25.3043 26.5546 25.1479C26.4088 25.0535 26.2719 24.9431 26.1326 24.8404C26.0264 24.7619 25.9196 24.6846 25.818 24.5996C25.6628 24.4709 25.5082 24.3423 25.353 24.2136C25.239 24.1192 25.134 24.0129 25.0254 23.9114C24.8955 23.7898 24.7592 23.6724 24.637 23.5419C24.4777 23.3714 24.3177 23.2008 24.1578 23.0302C23.9193 22.7758 23.6968 22.5055 23.4655 22.2447C23.2164 21.9643 22.9626 21.6893 22.7076 21.4142C22.4609 21.1481 22.2024 20.8807 21.9994 20.5791C21.8217 20.3165 21.866 19.9576 22.1298 19.7664C22.3801 19.5852 22.7655 19.6336 22.9425 19.8968C23.0045 19.9889 23.0759 20.0756 23.1462 20.1618C23.6006 20.6788 24.0781 21.1758 24.532 21.694C24.7952 21.995 25.0602 22.2913 25.3341 22.5828C25.5631 22.8278 25.8098 23.0538 26.0541 23.2834C26.2471 23.4434 26.4389 23.6027 26.6319 23.7627C26.7181 23.8341 26.8131 23.8966 26.9034 23.9628C26.9961 24.0306 27.0888 24.0985 27.182 24.1676C27.3685 24.2874 27.5544 24.4066 27.7403 24.5276C27.8306 24.586 27.9316 24.6326 28.026 24.6846C28.1234 24.7377 28.2202 24.7908 28.3176 24.8445C28.5206 24.9372 28.7224 25.0299 28.9255 25.1231C29.1096 25.2075 29.305 25.2712 29.495 25.3433C29.6638 25.3993 29.8326 25.4548 30.0014 25.5109C30.1673 25.5652 30.3396 25.6035 30.5084 25.6502C30.7179 25.6956 30.9269 25.7405 31.1393 25.7735C31.3766 25.8095 31.6115 25.8331 31.8494 25.8555C32.1457 25.8668 32.439 25.8715 32.7347 25.8697C32.9342 25.8603 33.1325 25.8491 33.3314 25.8325C33.5155 25.8178 33.6979 25.7877 33.8797 25.7564C34.1299 25.7039 34.3766 25.6425 34.6228 25.5728C35.0158 25.4495 35.4024 25.3143 35.7796 25.1479C35.9973 25.0417 36.2098 24.9289 36.417 24.8026C36.5746 24.6987 36.7286 24.5913 36.8773 24.4745C36.983 24.3824 37.0827 24.2856 37.1784 24.1835C37.5555 23.7485 37.8872 23.1955 38.4644 23.0107C38.6049 22.9659 38.7477 22.9441 38.8953 22.9446C39.1815 22.9464 39.4152 23.1235 39.5486 23.3655C39.6915 23.6234 39.7086 23.9574 39.6531 24.2407C39.5923 24.5524 39.3131 24.7778 38.9897 24.7288C38.7884 24.6982 38.6131 24.5536 38.5352 24.3688C38.3623 24.5754 38.1988 24.789 38.017 24.9879C37.8057 25.2187 37.572 25.4188 37.3171 25.5994C36.8142 25.9559 36.2635 26.225 35.6887 26.4428C35.4024 26.5514 35.1073 26.6452 34.8122 26.7285C34.4911 26.8194 34.1671 26.8861 33.8384 26.9415C33.535 26.9929 33.2263 27.0112 32.9194 27.0242C32.7677 27.0307 32.6166 27.033 32.4655 27.033C32.2849 27.0324 32.1032 27.0283 31.9208 27.0224Z" fill="currentColor"/>
<path d="M37.9688 25.7281C37.7658 25.626 37.6229 25.4483 37.535 25.2412C37.4583 25.06 37.4346 24.8746 37.4317 24.6793C37.427 24.3617 37.7185 24.1032 38.0272 24.1109C38.1163 24.1127 38.1984 24.1345 38.2716 24.1711C38.2822 24.1369 38.2922 24.1026 38.3011 24.069C38.3577 23.7987 38.5974 23.5927 38.8842 23.5998C39.1976 23.6069 39.465 23.8778 39.4526 24.1953C39.4455 24.3859 39.3658 24.5713 39.3003 24.7472C39.2295 24.939 39.1333 25.1267 39.0365 25.3067C38.8848 25.5882 38.5879 25.8013 38.2751 25.8013C38.173 25.8013 38.0691 25.7788 37.9688 25.7281Z" fill="currentColor"/>
<path d="M5.65292 30.7663C5.02376 30.5278 4.48548 30.1064 4.04401 29.6036C3.82504 29.3539 3.61139 29.1025 3.41898 28.8316C3.30626 28.6716 3.19824 28.5081 3.09673 28.3399C3.01233 28.4485 2.91613 28.5542 2.80694 28.6321C2.54961 28.8162 2.23739 28.9437 1.91513 28.8947C1.61885 28.8499 1.33142 28.6563 1.18977 28.3889C0.868693 27.7828 1.08943 27.0722 1.42054 26.5203C1.58639 26.2423 1.82188 26.0257 2.12879 25.9177C2.42743 25.8138 2.74379 25.887 3.00466 26.0511C3.35347 26.2701 3.5323 26.6797 3.71527 27.0332C3.84511 27.2846 3.97732 27.5337 4.11838 27.7792C4.2075 27.9191 4.29839 28.0572 4.3946 28.193C4.48667 28.3228 4.58642 28.4462 4.68616 28.5707C4.85378 28.7613 5.01904 28.9502 5.20141 29.1273C5.31178 29.2252 5.42568 29.3167 5.54491 29.4029C5.63462 29.4613 5.72492 29.5174 5.81877 29.5693C5.90789 29.613 5.99819 29.652 6.09144 29.6874C6.1965 29.7222 6.30215 29.7523 6.40957 29.7795C6.51285 29.8001 6.61614 29.816 6.7212 29.8279C6.81209 29.8326 6.90239 29.8343 6.99328 29.8338C7.09067 29.8267 7.18627 29.8166 7.28248 29.8019C7.3657 29.7854 7.44774 29.7659 7.52918 29.7446C7.64605 29.7063 7.75937 29.662 7.87151 29.6124C7.99781 29.551 8.11998 29.4843 8.24039 29.4112C8.43929 29.2813 8.62933 29.1408 8.81407 28.9909C9.12039 28.7283 9.3966 28.4403 9.67636 28.1499C9.88943 27.9103 10.0919 27.6641 10.2778 27.4027C10.4838 27.097 10.6667 26.78 10.8408 26.4554C11.0834 25.9703 11.3225 25.4851 11.5473 24.9905C11.7929 24.4493 12.0396 23.9081 12.2857 23.3668C12.762 22.321 13.2058 21.261 13.6148 20.1868C13.665 20.0452 13.7152 19.9035 13.7647 19.7619C13.8273 19.583 13.8704 19.3871 13.9619 19.22C14.1147 18.9421 14.496 18.8612 14.7604 19.02C15.0278 19.1799 15.1063 19.5104 14.9794 19.7819C14.9835 19.7737 14.9876 19.7654 14.9918 19.7571C14.9971 19.7424 15.0024 19.7264 15.0083 19.7117C15.0036 19.7264 14.9983 19.7406 14.993 19.7554C14.9941 19.7542 14.9947 19.7524 14.9959 19.7506C14.993 19.7577 14.9906 19.7648 14.9876 19.7719C14.7964 20.3255 14.6064 20.8785 14.385 21.4215C14.1419 22.017 13.8964 22.6126 13.6343 23.2004C13.3693 23.7953 13.0984 24.3879 12.8293 24.9811C12.6906 25.2862 12.5513 25.5907 12.4102 25.8947C12.2703 26.1969 12.1222 26.4938 11.9729 26.7912C11.6671 27.3986 11.3242 27.9811 10.8987 28.5129C10.7358 28.7159 10.5605 28.9089 10.3799 29.096C10.243 29.2382 10.1084 29.3834 9.96557 29.5203C9.39129 30.0722 8.73086 30.5609 7.97303 30.8241C7.63366 30.9422 7.27658 30.9976 6.91833 30.9976C6.4857 30.9988 6.05426 30.918 5.65292 30.7663Z" fill="currentColor"/>
<path d="M38.1698 25.6919C37.9184 25.5851 37.7343 25.3572 37.6457 25.104C37.5566 24.8473 37.5708 24.5723 37.6144 24.3084C37.6528 24.0765 37.7289 23.828 37.8417 23.6214C37.9544 23.4149 38.1155 23.2378 38.364 23.2136C38.6721 23.1841 38.9566 23.4025 39.0008 23.7082C39.0728 23.6327 39.1673 23.576 39.28 23.5494C39.5787 23.4786 39.9216 23.6692 39.9812 23.9809C40.0638 24.4135 39.9446 24.891 39.6825 25.2445C39.5155 25.47 39.293 25.6459 39.0227 25.7279C38.8928 25.7668 38.7636 25.7881 38.6349 25.7881C38.4785 25.7881 38.3227 25.7574 38.1698 25.6919ZM38.8368 24.2417C38.8126 24.3132 38.7907 24.384 38.7718 24.4566C38.7671 24.4831 38.7624 24.5103 38.7583 24.5369C38.7665 24.5239 38.7748 24.5097 38.7825 24.4961C38.7913 24.4766 38.7996 24.4572 38.8078 24.4371C38.8191 24.4005 38.8285 24.3645 38.8379 24.3279C38.8415 24.3061 38.8444 24.2848 38.8468 24.263C38.8468 24.2559 38.8474 24.2482 38.8474 24.2406C38.8468 24.2347 38.8456 24.2294 38.8444 24.2235C38.8421 24.2288 38.8391 24.2353 38.8368 24.2417Z" fill="currentColor"/>
<path d="M18.4988 56.1641C18.3058 56.1606 18.1122 56.1612 17.9192 56.1511C17.666 56.1387 17.4128 56.1258 17.159 56.1134C16.94 56.1022 16.7211 56.0827 16.5021 56.0679C16.0937 56.039 15.6858 56 15.278 55.964C15.0449 55.944 14.8129 55.9121 14.581 55.8861C14.4104 55.8672 14.2422 55.8442 14.0728 55.8189C13.8703 55.7882 13.6655 55.7646 13.4649 55.7268C13.2111 55.6784 12.9579 55.63 12.7041 55.5816C12.5064 55.5438 12.3098 55.4954 12.1127 55.4517C11.9439 55.414 11.7751 55.3768 11.6075 55.3349C11.369 55.2759 11.1294 55.2162 10.891 55.1572C10.6691 55.1023 10.4495 55.0321 10.2299 54.9695C10.0588 54.9212 9.89234 54.8668 9.72413 54.8096C9.53409 54.7453 9.3405 54.688 9.15458 54.6125C8.93385 54.5222 8.7137 54.4319 8.49296 54.3422C8.41269 54.3097 8.3342 54.2666 8.2557 54.2288C8.12054 54.1645 7.98538 54.1008 7.85022 54.0364C7.6708 53.9508 7.49905 53.8499 7.32553 53.7549C7.22461 53.6994 7.12368 53.6439 7.02276 53.5885C6.9661 53.5578 6.91298 53.52 6.85927 53.4852C6.66214 53.3589 6.465 53.2326 6.26788 53.1057C6.19764 53.0608 6.13272 53.0053 6.06603 52.9558C5.94031 52.8613 5.81519 52.7669 5.68947 52.6725C5.63931 52.6347 5.58619 52.5993 5.53838 52.5585C5.44985 52.4824 5.36073 52.4057 5.27161 52.3295C5.12288 52.2015 4.9712 52.0769 4.82778 51.9424C4.64776 51.7736 4.46716 51.6042 4.28715 51.4354C4.23344 51.3852 4.18326 51.3315 4.13133 51.279C4.02096 51.168 3.91059 51.0571 3.80022 50.9455C3.67391 50.8186 3.55469 50.6858 3.43429 50.5536C3.3434 50.4539 3.2531 50.3541 3.16221 50.2544C3.05597 50.1375 2.95682 50.0153 2.85707 49.892C2.48937 49.4369 2.17007 48.9441 1.90212 48.4247C1.80591 48.2376 1.71088 48.0458 1.6318 47.8505C1.58635 47.7377 1.5409 47.6244 1.49546 47.5117C1.42522 47.3376 1.34968 47.164 1.2883 46.987C1.20094 46.7356 1.11359 46.4841 1.02624 46.2327C0.96191 46.048 0.908793 45.8591 0.850953 45.6726C0.798424 45.5026 0.743534 45.3332 0.696908 45.1621C0.627263 44.9018 0.557616 44.6415 0.487972 44.3812C0.438985 44.1988 0.40771 44.0106 0.369347 43.8252C0.332164 43.6452 0.287303 43.4658 0.263105 43.2834C0.227692 43.0172 0.191694 42.7511 0.155692 42.4843C0.131493 42.3049 0.12205 42.1225 0.106115 41.9419C0.0895888 41.7471 0.0647961 41.5512 0.055943 41.3558C0.044729 41.0991 0.0323361 40.8417 0.0205319 40.5844C0.0134494 40.4262 0.00341181 40.2681 0.00341181 40.1099C0.0028216 39.6761 -0.0024858 39.2429 0.0116792 38.8091C0.0199421 38.5441 0.0282004 38.2785 0.0364633 38.0129C0.0423654 37.8258 0.059489 37.6393 0.0718833 37.4534C0.0848679 37.2586 0.0931274 37.0632 0.110834 36.8685C0.133852 36.6176 0.156868 36.3662 0.179296 36.1154C0.194051 35.9601 0.205858 35.8037 0.224154 35.6485C0.257206 35.3723 0.290843 35.0967 0.323894 34.8198C0.374652 34.4026 0.442533 33.9871 0.506866 33.5716C0.558214 33.2375 0.622542 32.9052 0.680382 32.5723C0.738812 32.2383 0.809643 31.906 0.875746 31.5737C0.998509 30.9504 1.13897 30.3307 1.27649 29.711C1.27708 29.7098 1.27708 29.7087 1.27708 29.7075C1.27531 29.7157 1.27354 29.724 1.27177 29.7323C1.27531 29.7157 1.27885 29.6992 1.2824 29.6821C1.28181 29.6839 1.28181 29.6856 1.28122 29.6874C1.3544 29.3474 1.42818 29.0075 1.50136 28.6669C1.53442 28.5123 1.56687 28.3571 1.60524 28.2042C1.62767 28.1139 1.65009 28.023 1.67252 27.9327C1.68255 27.8908 1.69672 27.8495 1.70911 27.8082C1.72328 27.7592 1.73686 27.7078 1.7581 27.6612C1.82362 27.5166 1.9936 27.4458 2.14115 27.5095C2.28457 27.5715 2.35775 27.748 2.29283 27.8926C2.28456 27.9097 2.27808 27.9274 2.27336 27.9463C2.27749 27.9345 2.28162 27.9227 2.28634 27.9109C2.2043 28.1906 2.14055 28.4739 2.07681 28.7584C2.0774 28.7561 2.078 28.7537 2.07859 28.7513C2.00009 29.1179 1.921 29.485 1.84132 29.8515C1.8425 29.8462 1.84369 29.8409 1.84487 29.8361C1.78644 30.11 1.72564 30.3839 1.66485 30.6571C1.66662 30.65 1.6678 30.643 1.66957 30.6359C1.58989 31.0042 1.50963 31.3724 1.43644 31.7425C1.38391 32.0052 1.33256 32.2684 1.28062 32.531C1.24403 32.7164 1.2157 32.9029 1.18265 33.0876C1.15019 33.2729 1.11478 33.4582 1.08645 33.6442C1.04572 33.9086 1.00618 34.1724 0.965453 34.4368C0.90053 34.8612 0.855673 35.2885 0.803735 35.7152C0.754158 36.123 0.727598 36.5338 0.689235 36.9428C0.669758 37.2438 0.650281 37.5454 0.630805 37.847C0.616049 38.0855 0.610735 38.3239 0.603652 38.5629C0.595979 38.8008 0.585356 39.0387 0.585947 39.2765C0.586537 39.5923 0.587721 39.9074 0.587721 40.2232C0.601295 40.4959 0.613102 40.7686 0.624906 41.0418C0.634939 41.2596 0.651467 41.4756 0.670944 41.6928C0.685699 41.8699 0.701627 42.0469 0.716973 42.2234C0.722875 42.2907 0.727599 42.3574 0.736452 42.4241C0.774816 42.7068 0.812004 42.9895 0.850367 43.2722C0.916471 43.5821 0.977845 43.8925 1.04395 44.203C1.05339 44.2478 1.06756 44.2909 1.07936 44.3346C1.10946 44.4461 1.13898 44.5571 1.16908 44.6686C1.21098 44.8239 1.2523 44.9791 1.2942 45.1343C1.29066 45.1219 1.28711 45.1101 1.28298 45.0983C1.36089 45.3468 1.43703 45.5947 1.51376 45.8438C1.57337 46.035 1.64065 46.2238 1.70675 46.4133C1.77286 46.6028 1.83601 46.7928 1.91097 46.9793C2.02016 47.2514 2.12344 47.5264 2.24502 47.7932C2.2403 47.782 2.2344 47.7702 2.22968 47.7584C2.38844 48.1025 2.56374 48.4354 2.76323 48.7576C2.9757 49.0911 3.21001 49.4068 3.46203 49.7108C3.45318 49.7008 3.4455 49.6907 3.43665 49.6807C3.6025 49.8796 3.78075 50.0673 3.95486 50.2585C4.08234 50.3984 4.21277 50.5324 4.34616 50.6663C4.48486 50.8062 4.62061 50.9491 4.76462 51.0842C4.93755 51.2459 5.11048 51.4088 5.28341 51.5705C5.49234 51.7506 5.70187 51.93 5.9108 52.1094C5.94149 52.1354 5.97573 52.1578 6.0076 52.182C6.09023 52.244 6.17345 52.3065 6.25608 52.3691C6.36704 52.4523 6.47799 52.5361 6.58895 52.6193C6.8274 52.7728 7.06643 52.9257 7.30487 53.0785C7.3332 53.0968 7.36389 53.111 7.39282 53.1269C7.48253 53.1759 7.57165 53.2255 7.66136 53.2745C7.78471 53.3418 7.90807 53.4096 8.03142 53.4775C8.26219 53.5873 8.49414 53.6976 8.7255 53.8074C8.82997 53.857 8.94152 53.8954 9.04894 53.9396C9.17878 53.9922 9.30804 54.0453 9.43788 54.0984C9.56419 54.1409 9.69049 54.184 9.81679 54.2271C9.94133 54.2696 10.0665 54.3185 10.1933 54.3545C10.3421 54.397 10.4914 54.4389 10.6401 54.4809C10.7777 54.5192 10.9152 54.5629 11.0545 54.5977C11.349 54.6709 11.6441 54.7441 11.9386 54.8173C12.2231 54.8875 12.5117 54.9448 12.7979 55.0085C12.7855 55.0055 12.7737 55.0032 12.7613 55.0002C12.9054 55.028 13.0494 55.0551 13.194 55.0829C13.3279 55.1082 13.4625 55.1389 13.5977 55.1596C13.7617 55.1844 13.9264 55.2086 14.0911 55.234C14.2138 55.2523 14.3366 55.2747 14.4606 55.2883C14.7639 55.3225 15.0673 55.3638 15.3712 55.3904C15.6746 55.4169 15.978 55.4441 16.2813 55.4706C16.5759 55.4913 16.8704 55.5119 17.1643 55.532C17.2989 55.5409 17.434 55.545 17.5686 55.5521C17.7161 55.5592 17.8637 55.571 18.0112 55.5739C18.1665 55.5769 18.3217 55.5798 18.4775 55.5828C18.6103 55.5851 18.7449 55.594 18.8777 55.5899C19.1734 55.5804 19.4696 55.5704 19.7653 55.5609C20.087 55.5326 20.4087 55.5049 20.7303 55.4765C20.8814 55.4635 21.0319 55.4358 21.1818 55.4146C21.3388 55.3933 21.4952 55.3715 21.6522 55.3502C21.8871 55.3077 22.122 55.2646 22.3563 55.2216C22.5434 55.1873 22.7282 55.1425 22.9141 55.1C23.0994 55.0575 23.2853 55.0168 23.4683 54.9654C23.6979 54.9017 23.9275 54.8373 24.1571 54.7736C24.4392 54.6798 24.7207 54.5859 25.0034 54.4921C25.0483 54.4773 25.0914 54.4567 25.1351 54.4395C25.2324 54.4006 25.3292 54.3616 25.426 54.3233C25.563 54.269 25.6993 54.2141 25.8356 54.1598C26.0918 54.0364 26.3485 53.9143 26.6053 53.7915C26.6342 53.7773 26.6625 53.759 26.6908 53.7431C26.7776 53.6935 26.8644 53.6445 26.9511 53.595C27.0727 53.5259 27.1937 53.4574 27.3147 53.389C27.5189 53.2532 27.7225 53.1181 27.9261 52.9823C27.971 52.9522 28.0129 52.9203 28.056 52.8867C28.1835 52.7887 28.3104 52.6908 28.4373 52.5928C28.5872 52.4765 28.7371 52.3614 28.884 52.2422C29.093 52.0716 29.3019 51.9011 29.5103 51.7299C29.6684 51.5953 29.8272 51.4613 29.986 51.3268C30.1258 51.2082 30.2563 51.0789 30.3897 50.9532C30.5077 50.841 30.6252 50.7313 30.7367 50.6126C30.8872 50.4515 31.0377 50.2916 31.1882 50.1304C31.334 49.9557 31.4798 49.7816 31.6256 49.6075C31.7377 49.4735 31.8422 49.3337 31.9472 49.1944C32.057 49.0492 32.1691 48.9058 32.273 48.7564C32.397 48.58 32.5203 48.4035 32.6431 48.2264C33.0332 47.6356 33.4292 47.0472 33.7946 46.4405C33.987 46.1206 34.1794 45.8018 34.3629 45.4778C34.5388 45.1674 34.7059 44.8528 34.8741 44.5382C35.1166 44.0566 35.3539 43.572 35.5682 43.0774C35.6856 42.8054 35.7966 42.5327 35.9063 42.2577C35.9972 42.0292 36.0805 41.7973 36.1649 41.5659C36.2504 41.3015 36.3378 41.0383 36.4127 40.7703C36.503 40.4475 36.5868 40.124 36.6695 39.7994C36.8088 39.2464 36.9286 38.6881 37.0549 38.1321C37.0962 37.9409 37.1381 37.7496 37.1806 37.559C37.1776 37.5714 37.1753 37.5832 37.1723 37.5956C37.3464 36.79 37.4999 35.9796 37.6315 35.1657C37.7661 34.3341 37.867 33.499 37.9703 32.6638C38.0429 32.076 38.1149 31.4875 38.1893 30.8997C38.2613 30.3296 38.3291 29.7594 38.3846 29.1869C38.384 29.1958 38.3834 29.204 38.3823 29.2129C38.3828 29.204 38.3834 29.1958 38.3846 29.1869C38.3852 29.1834 38.3852 29.1792 38.3858 29.1757C38.3852 29.1786 38.3852 29.1822 38.3846 29.1851C38.4962 27.8029 38.5859 26.4171 38.626 25.0301C38.6307 24.8719 38.7641 24.7421 38.9235 24.7462C39.0817 24.7497 39.2127 24.8855 39.208 25.0442C39.1838 25.8711 39.1413 26.6974 39.087 27.5225C39.0592 27.9487 39.0297 28.3748 38.9984 28.8009C38.9677 29.2259 38.9235 29.6502 38.8769 30.0734C38.8302 30.493 38.7736 30.9115 38.721 31.3305C38.6721 31.7207 38.6248 32.1114 38.5764 32.5021C38.4749 33.3225 38.3864 34.1464 38.2542 34.9627C38.1674 35.5004 38.0807 36.0398 37.9738 36.5745C37.8617 37.1382 37.7454 37.7007 37.6215 38.2619C37.6232 38.2549 37.6244 38.2472 37.6262 38.2401C37.543 38.6261 37.455 39.0121 37.3636 39.3963C37.2662 39.8071 37.1717 40.2197 37.0578 40.6263C36.9451 41.03 36.833 41.4349 36.6884 41.8286C36.617 42.0227 36.5491 42.2181 36.4729 42.4099C36.3933 42.6094 36.3189 42.8107 36.2333 43.0072C36.0616 43.4056 35.891 43.8058 35.6974 44.1941C35.5965 44.3972 35.495 44.5996 35.3929 44.8014C35.2866 45.0116 35.1721 45.217 35.0618 45.4247C34.8711 45.7824 34.6628 46.13 34.4532 46.4765C34.2484 46.817 34.0383 47.1552 33.8229 47.4893C33.7114 47.6628 33.5998 47.8381 33.4853 48.0104C33.3602 48.1993 33.2386 48.3905 33.1082 48.5764C32.9689 48.7753 32.8296 48.9742 32.6909 49.1737C32.5711 49.3449 32.4395 49.5084 32.3137 49.6754C32.2028 49.8223 32.0877 49.9628 31.9697 50.1045C31.8392 50.2603 31.7135 50.4208 31.5742 50.569C31.3983 50.7572 31.2225 50.9449 31.046 51.1332C31.0058 51.1763 30.9604 51.2152 30.9179 51.2565C30.8064 51.3616 30.6948 51.4673 30.5838 51.5723C30.4428 51.7057 30.2946 51.8291 30.1471 51.9536C30.0066 52.0728 29.8662 52.192 29.7233 52.3083C29.5185 52.4753 29.3143 52.6429 29.1089 52.81C28.9525 52.9375 28.789 53.0579 28.6285 53.1812C28.4892 53.2886 28.3529 53.3984 28.2065 53.4958C28.0879 53.5743 27.9692 53.6534 27.8506 53.7325C27.7691 53.7868 27.6895 53.8464 27.6045 53.8948C27.3991 54.011 27.1943 54.1279 26.9895 54.2442C26.8319 54.3333 26.6672 54.4077 26.5037 54.4862C26.3344 54.5664 26.1673 54.655 25.9932 54.7246C25.7465 54.8232 25.5004 54.9217 25.2537 55.0203C25.0754 55.0917 24.8883 55.1448 24.706 55.2056C24.5366 55.2617 24.369 55.3195 24.1972 55.3673C23.9552 55.4352 23.7132 55.5025 23.4707 55.5698C23.4111 55.5863 23.3497 55.5987 23.2895 55.6123C23.1384 55.6471 22.9879 55.6819 22.8368 55.7167C22.6674 55.7557 22.4986 55.7882 22.3274 55.8194C22.1226 55.8566 21.9184 55.9027 21.7118 55.931C21.4516 55.9664 21.1919 56.0024 20.9316 56.0378C20.7622 56.0608 20.5916 56.0744 20.4211 56.0892C20.2771 56.1022 20.1324 56.1145 19.9878 56.1269C19.9176 56.1334 19.8474 56.1411 19.7771 56.1435C19.5251 56.1517 19.2737 56.16 19.0217 56.1683C18.9538 56.1706 18.8865 56.1712 18.8192 56.1712C18.7112 56.1683 18.6056 56.1659 18.4988 56.1641Z" fill="currentColor"/>
</svg>
