<svg width="212" height="231" viewBox="0 0 212 231" fill="none" xmlns="http://www.w3.org/2000/svg">
<path fill-rule="evenodd" clip-rule="evenodd" d="M62.3155 89.864C62.3149 89.9373 61.398 91.0663 60.2654 92.3593C59.144 93.6653 57.7705 95.3355 57.191 96.0765C56.6239 96.8319 55.7675 97.9085 55.2743 98.4814C54.7812 99.0542 54.0932 99.8892 53.719 100.332C53.3572 100.789 52.5732 101.732 51.9826 102.435C50.6437 104.025 50.5332 104.553 51.4109 105.376C51.7556 105.701 52.2675 105.977 52.7805 106.109C53.5912 106.318 56.4563 106.692 57.6868 106.754C58.0452 106.755 59.704 107.045 61.3749 107.374C67.209 108.508 67.4363 108.601 66.6908 109.246C66.0298 109.819 62.9871 114.158 62.3676 115.414C61.6653 116.815 61.6527 116.826 56.0276 117.979C53.9701 118.395 51.8397 118.848 51.336 118.995C50.8211 119.129 50.1029 119.296 49.7565 119.357C45.9874 120.03 38.3527 123.261 34.6658 125.734C28.914 129.614 26.4554 132.438 22.4469 139.772C19.9272 144.426 19.8544 144.61 20.6002 145.473C21.2279 146.201 21.9332 146.093 25.5037 144.799C31.4234 142.624 33.1907 142.482 38.1407 143.833C38.7973 144.009 40.097 144.371 41.038 144.61C41.98 144.874 42.8027 145.145 42.8848 145.24C42.9681 145.336 42.8593 145.479 42.5597 145.642C41.768 146.089 38.3768 149.074 38.3748 149.34C38.3738 149.484 38.2653 149.578 38.0496 149.597C37.8225 149.625 37.3291 150.077 36.3532 151.209C32.2319 155.979 29.0543 162.473 27.1468 169.978C26.2728 173.445 26.2797 174.207 27.2044 175.278C28.057 176.265 28.7867 176.235 33.4675 174.986C38.4723 173.65 42.1932 173.042 47.2253 172.785C56.6676 172.281 60.9997 171.553 64.3563 169.892C64.8595 169.647 65.3397 169.448 65.4111 169.459C65.7818 169.497 64.8164 175.683 64.1312 177.691C64.0094 178.06 63.9468 178.402 63.994 178.456C64.0413 178.511 63.9926 178.649 63.884 178.768C63.7753 178.885 63.5685 179.401 63.4207 179.912C63.2728 180.422 63.0288 181.21 62.8339 181.643C61.9583 183.793 62.7714 185.222 64.6515 184.867C65.4889 184.693 70.414 182.777 72.7759 181.692C76.4696 180.005 80.5949 177.774 82.9967 176.199C85.1101 174.824 89.596 170.916 90.1268 169.998C90.2956 169.731 90.6701 169.241 90.9719 168.931C91.5621 168.277 92.1408 167.486 93.0716 166.008C93.4104 165.451 93.7489 164.918 93.8212 164.808C95.2718 162.545 97.254 157.854 97.7726 155.508C97.896 154.92 98.0206 154.334 98.0578 154.206C98.0941 154.054 98.4417 153.994 98.9677 154.042C99.445 154.084 99.9952 154.088 100.199 154.055C100.869 153.93 104.677 152.695 106.236 152.09L107.769 151.504L107.826 153.735C107.853 154.959 107.735 157.867 107.551 160.21C107.114 166.009 107.376 167.918 108.65 168.541C109.696 169.049 110.512 168.727 115.492 165.805C116.523 165.199 118.863 163.892 120.675 162.899C124.945 160.566 127.322 159.132 129.138 157.728C131.36 156.042 131.517 155.811 131.906 153.34C132.082 152.18 132.344 150.537 132.471 149.685C132.834 147.476 132.974 144.645 132.735 144.562C132.639 144.525 132.64 144.476 132.759 144.468C133.022 144.432 132.915 141.142 132.579 139.634L132.325 138.463L133.995 137.208C136.89 135.035 143.975 128.685 147.202 125.362C151.836 120.628 155.674 115.409 160.514 107.284C162.981 103.131 165.079 99.0367 166.684 95.1984C167.062 94.2722 167.414 93.487 167.449 93.4564C167.485 93.4257 167.801 92.6712 168.142 91.7767C168.484 90.8822 168.787 90.1385 168.824 90.1069C168.86 90.0753 169.433 88.5246 170.08 86.6435C171.472 82.6804 172.635 78.7694 173.51 75.0846C173.868 73.6475 174.274 71.9522 174.422 71.3211C174.57 70.689 174.791 69.8007 174.914 69.3348C175.319 67.7838 176.603 62.1873 177.037 60.108C177.272 58.9683 177.507 57.9019 177.545 57.7258C177.594 57.5628 177.742 56.8103 177.892 56.059C178.029 55.3163 178.24 54.1973 178.364 53.6112C178.477 53.0107 178.593 51.8786 178.622 51.0855C178.693 49.4641 178.331 48.5318 177.415 47.8863C176.392 47.1641 175.497 47.1972 170.508 48.0406C168.904 48.3253 166.92 48.6548 166.117 48.797C162.48 49.3804 160.709 49.7143 156.855 50.4856C150.789 51.6866 150.92 51.6681 148.849 52.1667C147.808 52.4216 146.166 52.8343 145.21 53.0641C144.253 53.294 143.043 53.5967 142.54 53.746C142.025 53.88 140.564 54.2821 139.307 54.6263C133.631 56.1832 127.545 58.4575 120.556 61.6323C117.715 62.9179 112.808 65.7295 108.797 68.3397C100.597 73.7164 93.1301 80.1836 88.9671 85.5384C88.4725 86.1581 87.9307 86.8688 87.7612 87.0862C87.484 87.4469 87.3399 87.4511 86.2076 87.1611C83.5592 86.4556 79.2611 86.1019 75.8788 86.3214C72.029 86.561 64.2509 88.3106 63.0248 89.204C62.6416 89.4859 62.316 89.7906 62.3155 89.864ZM67.3415 90.4275C74.8597 88.5455 78.4469 88.2214 84.1879 88.9081L85.9073 89.1223L85.293 89.8229C84.9316 90.2088 83.3672 91.755 81.7905 93.2893C80.2262 94.8127 78.7215 96.2594 78.4814 96.5152C74.6293 100.476 71.3564 103.575 69.6131 104.916L67.6415 106.455L66.6156 106.191C64.2059 105.591 60.7337 104.93 57.3202 104.457C55.303 104.166 53.6441 103.899 53.6557 103.864C53.6562 103.791 55.0182 102.156 57.8999 98.726C58.5395 97.9807 59.1407 97.2186 59.2748 97.0318C59.4066 96.8448 59.6848 96.5082 59.8895 96.2831C60.6838 95.4743 62.648 93.247 63.0216 92.7298C63.9165 91.5243 64.7809 91.0626 67.3415 90.4275ZM33.4887 129.847C35.3987 128.504 37.7751 126.997 38.6744 126.578C39.0341 126.41 39.3829 126.181 39.443 126.033C39.5029 125.908 39.5998 125.849 39.647 125.904C39.6943 125.959 40.0535 125.864 40.4733 125.692C40.8694 125.517 41.6842 125.171 42.2714 124.927C42.8823 124.685 43.4712 124.368 43.6265 124.234C43.7579 124.095 43.9149 124.032 43.9746 124.101C44.0814 124.224 45.016 123.798 45.378 123.461C45.4865 123.367 45.6184 123.326 45.6656 123.381C45.7129 123.435 46.2514 123.329 46.8746 123.126C48.2151 122.707 50.6944 122.024 54.0462 121.159C59.0145 119.855 61.0992 119.129 61.9772 118.369C62.4099 117.994 62.7081 118.168 63.2627 119.127C63.5104 119.537 64.0415 120.443 64.455 121.142C64.8673 121.839 65.293 122.575 65.3995 122.747C65.5876 123.087 65.5762 123.097 64.0063 123.689C63.0963 124.022 60.8213 124.553 58.6912 124.959C54.5155 125.697 53.4743 125.975 50.2513 127.063C47.7482 127.912 45.1697 129.137 42.4579 130.743C40.2019 132.073 39.9131 132.323 39.825 133.049C39.7487 133.545 39.8202 133.7 40.2832 134.139C40.592 134.423 41.2947 134.823 41.9011 135.04C42.485 135.254 43.3906 135.67 43.8899 135.957C46.448 137.362 49.6886 138.682 52.0396 139.237C52.6001 139.376 53.1004 139.541 53.1712 139.624C53.349 139.829 52.2773 142.557 51.3814 144.221C50.9204 145.051 49.9174 146.616 49.1209 147.714C46.0552 151.952 44.8475 153.743 43.2133 156.452C41.0356 160.112 40.7029 161.384 41.725 162.323C42.2715 162.833 42.4266 162.867 45.7102 163.116C48.4211 163.334 50.3216 163.296 53.0715 162.975C59.2901 162.267 64.1926 160.179 69.7443 155.899C70.5383 155.284 71.4497 154.613 71.7631 154.415L72.3159 154.057L72.8392 156.027C73.5356 158.685 73.5506 160.04 72.9315 163.095C72.2869 166.22 72.2832 166.727 72.865 167.375C74.0039 168.62 75.8713 167.984 78.9973 165.277C81.8822 162.801 85.5116 158.58 87.325 155.57C87.5913 155.148 88.0149 154.469 88.2446 154.079C88.4869 153.678 88.9718 152.682 89.3127 151.835L89.9331 150.314L90.5627 150.776C92.1311 151.936 92.9755 152.5 94.4521 153.332C95.3209 153.828 96.0234 154.251 96.0221 154.275C95.8876 154.824 95.155 156.8 95.034 156.905C94.9495 156.978 94.9488 157.074 95.0326 157.097C95.1038 157.131 95.0906 157.238 94.9831 157.357C94.887 157.465 94.4625 158.263 94.0739 159.128C92.4105 162.728 89.6077 167.002 87.5962 169.031C85.682 170.928 85.3453 171.22 83.5907 172.548C79.9017 175.311 76.3751 177.263 69.1339 180.513C67.4562 181.272 65.5385 181.949 65.4429 181.838C65.3956 181.783 65.5679 181.033 65.8376 180.153C66.8787 176.637 67.4267 173.522 67.6466 169.832C67.7707 167.613 67.713 167.28 67.108 166.7C66.7633 166.375 65.5812 166.367 65.0411 166.691C63.1803 167.822 61.9702 168.392 60.7607 168.72C59.3476 169.129 56.9067 169.539 55.3527 169.663C53.4287 169.819 47.2124 170.214 45.5021 170.304C42.7899 170.423 40.2055 170.742 37.4652 171.291C34.809 171.818 31.4324 172.654 31.2166 172.841C30.9757 173.05 29.2419 173.255 29.2443 173.087C29.2583 172.884 29.9202 170.486 30.6067 168.14C31.7219 164.417 34.0528 159.376 36.2271 156.028C38.1235 153.138 39.1359 151.997 42.3113 149.198C43.9348 147.792 45.3782 146.494 45.5463 146.324C45.9199 145.952 45.8261 145.601 45.1405 144.564L44.6084 143.802L41.5576 142.75C36.0275 140.847 34.2271 140.393 32.0271 140.427C30.5104 140.422 28.0922 140.982 25.6351 141.885C24.377 142.35 23.6349 142.538 23.6597 142.395C23.697 142.267 24.1332 141.409 24.6185 140.51C25.1153 139.6 25.5274 138.787 25.5519 138.695C25.5878 138.591 25.697 138.401 25.8182 138.274C25.9496 138.135 26.6624 137.157 27.4224 136.092C29.6189 132.959 30.7392 131.798 33.4887 129.847ZM103.372 75.0749C108.778 71.0396 116.076 66.5897 121.64 63.978C128.51 60.7375 137.003 57.7943 145.418 55.7348C146.47 55.47 147.8 55.1588 148.363 55.0085C149.823 54.6545 150.444 54.572 150.528 54.6926C150.553 54.7442 150.739 55.2529 150.927 55.7871C151.98 58.8559 155.396 63.8605 158.634 67.0521C161.304 69.6818 163.836 71.4461 168.014 73.6081C169.359 74.3143 170.489 74.9183 170.537 74.973C170.869 75.3574 167.298 86.3887 165.561 90.3889C165.148 91.3227 164.127 93.6693 163.277 95.6059C161.83 98.9453 159.868 102.685 157.847 106.041C156.034 109.028 155.622 109.695 154.788 110.897C154.33 111.559 153.76 112.434 153.519 112.837C151.33 116.484 147.363 121.238 142.911 125.502C140.083 128.216 131.328 135.869 130.85 136.045C130.682 136.094 130.239 136.214 129.856 136.307C129.473 136.399 128.406 136.964 127.469 137.559C126.521 138.141 124.613 139.265 123.208 140.049C121.803 140.833 120.04 141.809 119.309 142.226C118.576 142.645 117.126 143.373 116.107 143.873C115.087 144.371 113.937 144.937 113.54 145.16C113.156 145.371 112.209 145.905 111.428 146.317C110.648 146.728 109.533 147.408 108.92 147.842C107.851 148.6 106.822 148.941 106.537 148.611C106.466 148.529 105.193 147.833 103.692 147.044C100.049 145.162 98.7646 144.453 97.6583 143.707C95.7921 142.47 92.7148 139.93 90.7337 137.975C89.9036 137.159 89.8563 137.104 90.1193 136.972C90.2752 136.91 91.4859 136.412 92.8036 135.87C97.3097 134.005 101.341 131.809 104.681 129.397C106.939 127.753 107.192 127.438 107.093 126.228C107.05 125.641 106.955 125.459 106.48 125.055C105.413 124.11 104.323 122.727 102.207 119.618C100.374 116.935 97.7094 113.823 96.6504 113.133C95.7109 112.532 94.5892 112.351 93.7256 112.692C92.7916 113.045 91.2014 114.709 88.4041 118.237C85.365 122.092 80.8797 127.464 80.7495 127.433C80.677 127.423 80.3344 126.953 79.9564 126.369C79.5782 125.808 78.9631 124.902 78.5733 124.376C75.2836 119.861 69.7628 110.348 69.9012 109.413C69.9262 109.247 70.2167 108.779 70.5416 108.402C70.879 108.037 71.3256 107.459 71.5663 107.13C71.7957 106.788 73.0484 105.511 74.3587 104.279C75.67 103.047 77.6194 101.142 78.7028 100.061C79.7974 98.9918 81.3629 97.4445 82.1685 96.6511C82.9867 95.8468 83.6736 95.1562 83.6853 95.0982C83.6983 95.0392 84.4556 94.3355 85.3577 93.529C87.1857 91.9206 88.68 90.196 88.7429 89.661C88.7555 89.4815 88.7216 89.3196 88.6616 89.2987C88.3158 89.2634 88.6669 88.5745 89.4854 87.7221C90.0145 87.1909 90.9419 86.1964 91.5686 85.5101C94.368 82.4659 99.1077 78.2901 103.372 75.0749ZM45.2427 132.021C47.0905 130.971 48.2172 130.476 50.4693 129.675C53.3436 128.648 53.9074 128.497 57.9992 127.59C62.7623 126.559 64.9536 125.859 65.795 125.13L66.4446 124.567L66.9418 125.143C67.2264 125.473 67.9474 126.479 68.5737 127.399C69.9676 129.453 72.7139 133.047 73.9237 134.375L74.8239 135.369L74.2415 136.52C73.0293 138.914 72.9271 139.866 73.7685 140.84C74.4198 141.595 75.5069 141.71 77.7215 141.231L79.4099 140.873L80.0625 141.604C81.6504 143.346 84.9508 146.413 86.6622 147.714C87.3029 148.213 87.8258 148.696 87.825 148.792C87.8231 149.058 86.1364 152.437 85.0239 154.384C83.0264 157.913 80.0743 161.359 76.8894 163.901C75.5554 164.96 74.7505 165.514 74.5715 165.476C74.4038 165.452 74.3329 165.37 74.3823 165.28C74.4306 165.19 74.6779 164.113 74.9489 162.894C75.469 160.501 75.532 158.408 75.1272 156.527C74.9888 155.905 74.7353 154.587 74.5394 153.607C74.1483 151.547 73.8052 151.004 72.8399 150.834C72.3629 150.743 72.1343 150.821 71.6662 151.226C70.4515 152.278 66.6682 155.052 65.2264 155.964C62.238 157.857 57.4799 159.747 54.3825 160.248C51.2363 160.766 46.5145 160.946 44.5464 160.612L43.8666 160.506L44.255 159.667C45.1524 157.81 45.3583 157.415 46.5914 155.411C47.9335 153.242 49.0449 151.583 50.3243 149.924C52.158 147.543 53.5979 145.025 54.6093 142.47C55.6923 139.733 55.7019 138.575 54.6662 137.96C54.4403 137.821 53.1646 137.439 51.8647 137.1C49.181 136.425 47.6438 135.814 45.7656 134.66C45.0757 134.226 44.1956 133.718 43.85 133.514L43.1833 133.155L43.591 132.946C43.8028 132.835 44.5467 132.407 45.2427 132.021ZM68.6333 111.52C68.657 111.547 68.8456 111.96 69.0214 112.431C69.4681 113.557 69.4793 113.57 69.7893 113.54C69.9924 113.533 70.0046 113.57 69.8596 113.696C69.7511 113.79 69.7258 114.003 69.821 114.162C69.9495 114.433 69.8783 114.545 69.2898 114.982C68.6899 115.406 67.051 117.208 65.7479 118.865L65.41 119.301L64.9141 118.556C64.6426 118.144 64.4188 117.714 64.4321 117.607C64.4204 117.496 64.8807 116.763 65.4369 115.946C66.0043 115.143 66.8257 113.903 67.2607 113.214C68.032 111.993 68.5152 111.383 68.6333 111.52ZM70.808 116.329C70.939 116.407 71.4708 117.219 71.9893 118.137L72.921 119.801L72.4878 120.249C72.2352 120.492 71.4144 121.513 70.6311 122.504C69.8706 123.497 69.1711 124.367 69.0991 124.429C69.0146 124.503 68.7893 124.29 68.3995 123.765C67.2642 122.181 66.543 121.055 66.5459 120.813C66.548 120.524 68.8987 117.721 69.8969 116.806C70.3903 116.356 70.6419 116.234 70.808 116.329ZM73.9595 121.586C74.0066 121.666 74.4208 122.266 74.8808 122.97L75.7201 124.233L74.5775 125.344C73.9401 125.944 73.0961 126.866 72.6987 127.379C72.3013 127.891 71.9272 128.311 71.8672 128.29C71.7119 128.281 71.0135 127.447 70.3634 126.523L69.8439 125.75L70.6034 124.901C73.0347 122.244 73.8414 121.449 73.9595 121.586ZM158.141 52.9682C161.013 52.4004 163.705 51.8903 164.123 51.8404C164.53 51.7752 165.535 51.6243 166.337 51.483C167.151 51.3539 168.263 51.1581 168.813 51.0645C171.277 50.6569 175.249 50.0719 175.595 50.0591C175.93 50.0561 176.001 50.1153 176.034 50.4215C176.078 51.0803 174.353 59.5995 173.133 64.6395C172.973 65.3067 172.639 66.794 172.368 67.9644C171.824 70.4264 171.173 72.7888 171.053 72.7721C170.54 72.6884 164.665 68.902 163.074 67.618C159.593 64.8529 155.886 60.3872 153.954 56.6403C153.4 55.5598 152.789 54.0986 152.861 54.0363C152.899 54.006 155.28 53.5262 158.141 52.9682ZM77.5076 126.766C77.8738 127.264 78.2771 127.803 78.4188 127.967C78.6674 128.255 78.6195 128.297 76.6238 130.025L74.5676 131.806L73.7154 130.745L72.8633 129.684L73.3941 129.081C73.6949 128.748 74.5861 127.88 75.4036 127.172L76.871 125.853L77.5076 126.766ZM95.6093 115.26C96.3361 115.614 99.9498 119.728 101.878 122.424C102.67 123.512 103.617 124.78 103.984 125.205C104.35 125.63 104.646 126.046 104.622 126.116C104.549 126.322 101.87 128.26 100.827 128.852C97.3111 130.866 92.8963 133.129 92.348 133.174C92.2764 133.188 91.8566 133.36 91.4127 133.551C88.1155 135.016 81.6224 137.426 79.6597 137.903C76.8593 138.603 76.3322 138.699 76.2489 138.603C76.1893 138.534 76.238 138.396 76.3704 138.281C76.4903 138.178 76.7438 137.789 76.9269 137.417C77.5703 136.165 80.9361 131.69 83.0207 129.285C83.9839 128.187 87.4098 123.876 90.7379 119.602C92.2944 117.582 93.1616 116.592 93.9663 115.917C95.062 115.014 95.0734 115.004 95.6093 115.26ZM78.0017 131.016C77.7839 131.469 75.9978 133.71 75.8666 133.655C75.7828 133.632 75.6772 133.485 75.6069 133.329C75.5133 133.098 75.7068 132.86 76.7878 131.946C77.4854 131.342 78.0387 130.911 78.0017 131.016ZM84.8846 139.037L88.0354 137.891L88.4741 138.399C88.7587 138.729 88.8636 138.973 88.7802 139.045C88.0223 139.676 83.5831 142.323 83.3805 142.26C83.2493 142.205 82.8692 141.91 82.5368 141.599C82.193 141.298 81.7298 140.884 81.4917 140.705C81.1353 140.415 81.1233 140.352 81.3995 140.282C81.5792 140.222 83.1476 139.678 84.8846 139.037ZM85.8605 142.87C86.4244 142.55 86.9883 142.227 87.0842 142.144C87.1914 142.074 87.9016 141.605 88.6449 141.105C89.6889 140.439 90.0964 140.255 90.2634 140.375C90.4068 140.467 91.0939 141.142 91.8168 141.883L93.133 143.236L92.7139 143.456C92.485 143.581 91.2987 144.153 90.0523 144.73L87.7984 145.771L87.2046 145.374C86.8715 145.159 86.3965 144.803 86.1586 144.602C85.9095 144.387 85.4819 144.061 85.2077 143.865C84.9584 143.674 84.7441 143.499 84.7681 143.479C84.792 143.458 85.2728 143.187 85.8605 142.87ZM91.3113 145.848C92.4978 145.397 93.7074 144.9 93.9842 144.733C94.4526 144.448 94.559 144.474 95.1311 144.892C95.4753 145.145 96.2487 145.65 96.8438 146.023C97.4616 146.399 97.9016 146.737 97.8411 146.79C97.5887 147.008 91.8762 148.791 91.6612 148.713C91.53 148.658 91.1383 148.398 90.7694 148.119C90.413 147.829 89.8658 147.414 89.5578 147.178C89.26 146.955 89.0347 146.743 89.0712 146.711C89.1077 146.679 90.1135 146.287 91.3113 145.848ZM95.4535 149.671C96.7945 149.35 98.9519 148.465 99.4451 148.038C99.6734 147.84 100.042 147.951 101.77 148.807C102.889 149.373 103.829 149.854 103.84 149.867C103.853 149.882 102.701 150.325 101.288 150.855C99.8506 151.38 98.4 151.94 98.0652 152.111C97.4665 152.391 97.4065 152.37 96.3711 151.707C95.7885 151.323 94.9911 150.839 94.5866 150.613C94.146 150.371 93.9205 150.183 94.005 150.11C94.0758 150.049 94.7227 149.848 95.4535 149.671ZM114.957 147.457C116.421 146.645 118.209 145.672 118.929 145.313C119.649 144.929 120.752 144.31 121.388 143.903C122.024 143.495 123.321 142.757 124.268 142.248C125.216 141.74 126.261 141.147 126.596 140.927C127.796 140.175 130.245 138.703 130.316 138.712C130.519 138.704 130.707 140.796 130.692 142.799C130.669 145.985 130.258 149.82 129.6 153.075L129.353 154.273L128.187 155.284C126.527 156.721 124.81 157.823 121.908 159.355C120.517 160.08 119.233 160.784 119.064 160.931C118.885 161.063 118.692 161.157 118.62 161.147C118.512 161.119 115.79 162.687 111.505 165.223C110.664 165.735 109.898 166.112 109.803 166.05C109.72 166.002 109.749 163.722 109.876 160.998C110.003 158.273 110.124 154.761 110.159 153.221L110.204 150.399L111.25 149.662C111.825 149.259 113.482 148.257 114.957 147.457Z" fill="#053B4A"/>
<path fill-rule="evenodd" clip-rule="evenodd" d="M100.162 83.4643C99.9645 83.9303 100.448 84.5664 100.934 84.4884C101.347 84.4225 102.993 83.4559 107.907 80.3827C115.246 75.8089 116.808 74.7683 117.175 74.2289C117.654 73.4927 116.931 72.4027 116.103 72.6074C115.556 72.7389 114.459 73.3255 112.143 74.7546C111.07 75.4185 109.754 76.2216 109.217 76.5658C105.876 78.6117 100.446 82.75 100.162 83.4643Z" fill="#053B4A"/>
<path fill-rule="evenodd" clip-rule="evenodd" d="M120.309 70.4234C120.199 70.8018 120.75 71.5115 121.152 71.5192C121.437 71.5346 123.266 70.6876 123.648 70.358C123.779 70.2445 123.805 69.9612 123.725 69.6996C123.481 68.9857 122.807 68.8567 121.75 69.3201C120.717 69.7629 120.419 69.9726 120.309 70.4234Z" fill="#053B4A"/>
<path fill-rule="evenodd" clip-rule="evenodd" d="M128.525 65.562C128.439 65.7803 128.45 66.0846 128.533 66.278C128.804 66.8614 129.523 66.9373 130.556 66.4993C131.097 66.2705 131.662 66.0462 131.818 66.0322C132.071 65.9821 135.879 64.4872 136.924 64.0131C137.189 63.9048 138.475 63.3685 139.797 62.8235C141.131 62.2938 142.393 61.7048 142.623 61.5306C143.551 60.7995 142.84 59.6322 141.45 59.6577C140.982 59.6538 138.268 60.6352 135.888 61.662C131.791 63.4332 131.165 63.7101 130.708 64.0104C130.443 64.167 129.879 64.4893 129.457 64.7335C129.037 64.9538 128.675 65.1464 128.676 65.1707C128.676 65.1707 128.599 65.3535 128.525 65.562Z" fill="#053B4A"/>
<path fill-rule="evenodd" clip-rule="evenodd" d="M126.547 76.7564C123.44 81.1273 123.264 86.6238 126.03 91.8206C127.005 93.6777 128.935 95.8743 130.547 97.0202C135.209 100.305 140.703 100.575 145.009 97.7513C148.741 95.2831 150.646 90.9006 150.13 85.9296C149.743 82.1716 148.252 79.2024 145.405 76.4933C144.665 75.7824 143.552 74.8803 142.926 74.4677C139.887 72.4581 135.82 71.752 132.451 72.6524C130.383 73.1994 127.812 74.9946 126.547 76.7564ZM132.15 75.2113C133.216 74.6889 135.367 74.2544 136.732 74.3127C138.832 74.3877 141.438 75.3532 143.233 76.7123C146.166 78.9522 148.114 83.0635 148.069 86.9139C148.028 90.155 146.803 92.884 144.509 94.8805C141.169 97.7772 136.477 98.0051 132.356 95.4851C130.893 94.5821 128.894 92.4918 127.997 90.8936C126.365 87.9752 125.94 84.576 126.866 81.5246C127.431 79.6673 128.069 78.5356 129.283 77.33C130.426 76.1604 130.813 75.8959 132.15 75.2113Z" fill="#053B4A"/>
<path fill-rule="evenodd" clip-rule="evenodd" d="M130.554 80.7151C129.428 82.385 128.924 85.1037 129.352 87.1378C129.948 89.9597 132.287 92.7261 134.889 93.6579C136.966 94.4117 139.505 94.3241 141.513 93.4336C142.559 92.9533 144.151 91.5827 144.814 90.5442C146.498 87.951 146.578 84.1514 145.01 81.3965C143.258 78.2882 139.471 76.4877 136.142 77.1621C135.357 77.3251 134.313 77.6415 133.831 77.8705C132.728 78.3999 131.242 79.68 130.554 80.7151ZM135.127 79.5753C136.091 79.1664 137.941 79.0192 139.062 79.2428C140.218 79.4823 141.511 80.1893 142.463 81.1189C144.319 82.9482 144.962 85.6829 144.088 88.0919C143.704 89.1686 143.644 89.242 142.206 90.4806C140.732 91.75 140.721 91.7597 139.385 92.025C136.864 92.5395 134.578 91.7559 132.863 89.7806C132.099 88.9 131.937 88.6188 131.607 87.5274C131.187 86.1644 131.153 84.5839 131.56 83.4625C132.124 81.8119 133.589 80.2005 135.127 79.5753Z" fill="#053B4A"/>
<path fill-rule="evenodd" clip-rule="evenodd" d="M113.684 137.507C113.706 137.781 113.815 137.908 114.142 138.09C114.893 138.467 117.535 137.223 122.801 133.964C124.068 133.18 125.604 132.185 126.214 131.729C126.836 131.285 127.971 130.47 128.726 129.934C130.982 128.337 131.532 127.81 131.534 127.218C131.537 126.674 131.079 126.14 130.725 126.276C130.578 126.329 130.591 126.393 130.748 126.451C130.918 126.525 130.93 126.564 130.783 126.568C130.649 126.586 130.469 126.499 130.371 126.385C130.275 126.273 130.13 126.253 130.044 126.327C129.947 126.412 129.251 126.845 128.484 127.317C127.729 127.779 126.839 128.356 126.497 128.581C126.168 128.818 125.4 129.315 124.79 129.699C124.193 130.096 122.681 131.118 121.425 131.991C117.803 134.531 115.292 136.202 114.659 136.532C113.822 136.946 113.65 137.119 113.684 137.507Z" fill="#053B4A"/>
<path fill-rule="evenodd" clip-rule="evenodd" d="M141.793 115.517C141.418 116.201 141.44 116.494 141.903 116.934C142.568 117.581 143.024 117.428 144.311 116.144C145.658 114.809 145.854 114.28 145.273 113.584C144.811 113.048 144.224 113.222 143.033 114.276C142.455 114.8 141.89 115.362 141.793 115.517Z" fill="#053B4A"/>
<path fill-rule="evenodd" clip-rule="evenodd" d="M135.391 122.392C135.206 122.936 135.586 123.571 136.1 123.557C136.579 123.551 138.386 121.985 138.63 121.389C138.837 120.897 138.53 120.224 138.064 120.124C137.646 120.029 135.609 121.744 135.391 122.392Z" fill="#053B4A"/>
</svg>
