<svg width="21" height="20" viewBox="0 0 21 20" fill="none" xmlns="http://www.w3.org/2000/svg">
<path d="M8.66732 6.04167C8.32214 6.04167 8.04232 6.32149 8.04232 6.66667C8.04232 7.01185 8.32214 7.29167 8.66732 7.29167H12.0007C12.3458 7.29167 12.6257 7.01185 12.6257 6.66667C12.6257 6.32149 12.3458 6.04167 12.0007 6.04167H8.66732Z" fill="#053B4A"/>
<path d="M7.00065 9.375C6.65547 9.375 6.37565 9.65482 6.37565 10C6.37565 10.3452 6.65547 10.625 7.00065 10.625H13.6673C14.0125 10.625 14.2923 10.3452 14.2923 10C14.2923 9.65482 14.0125 9.375 13.6673 9.375H7.00065Z" fill="#053B4A"/>
<path fill-rule="evenodd" clip-rule="evenodd" d="M14.0536 1.97811C13.1018 1.87499 11.9021 1.87499 10.3717 1.875H10.2963C8.76583 1.87499 7.56616 1.87499 6.61438 1.97811C5.6431 2.08334 4.85612 2.30194 4.18418 2.79013C3.77739 3.08568 3.41966 3.44341 3.12411 3.8502C2.63592 4.52213 2.41732 5.30912 2.31209 6.2804C2.20897 7.23218 2.20898 8.43185 2.20898 9.96229V10.0377C2.20898 11.5682 2.20897 12.7678 2.31209 13.7196C2.41732 14.6909 2.63592 15.4779 3.12411 16.1498C3.41966 16.5566 3.77739 16.9143 4.18418 17.2099C4.85612 17.6981 5.6431 17.9167 6.61438 18.0219C7.56614 18.125 8.76579 18.125 10.2962 18.125H10.3432C11.3099 18.125 12.141 18.125 12.8554 18.1005C14.4166 18.047 15.5641 17.8781 16.4838 17.2099C16.8906 16.9143 17.2483 16.5566 17.5439 16.1498C18.2121 15.2301 18.381 14.0826 18.4345 12.5214C18.459 11.8071 18.459 10.9759 18.459 10.0092V9.96227C18.459 8.43187 18.459 7.23216 18.3559 6.2804C18.2506 5.30912 18.032 4.52213 17.5439 3.8502C17.2483 3.44341 16.8906 3.08567 16.4838 2.79013C15.8119 2.30194 15.0249 2.08334 14.0536 1.97811ZM4.91891 3.8014C5.34225 3.49383 5.8841 3.31454 6.74902 3.22083C7.62564 3.12586 8.75767 3.125 10.334 3.125C11.9103 3.125 13.0423 3.12586 13.9189 3.22083C14.7839 3.31454 15.3257 3.49383 15.7491 3.8014C16.0497 4.01985 16.3141 4.28426 16.5326 4.58493C16.8402 5.00826 17.0194 5.55011 17.1132 6.41504C17.2081 7.29166 17.209 8.42369 17.209 10C17.209 10.707 17.2089 11.3265 17.2 11.8765C16.8044 11.8802 16.5132 11.8925 16.2511 11.934C14.2008 12.2587 12.5927 13.8668 12.268 15.9171C12.2265 16.1793 12.2141 16.4704 12.2105 16.866C11.6605 16.875 11.0409 16.875 10.334 16.875C8.75767 16.875 7.62564 16.8741 6.74902 16.7792C5.8841 16.6855 5.34225 16.5062 4.91891 16.1986C4.61824 15.9802 4.35383 15.7157 4.13538 15.4151C3.82781 14.9917 3.64853 14.4499 3.55482 13.585C3.45984 12.7083 3.45898 11.5763 3.45898 10C3.45898 8.42369 3.45984 7.29166 3.55482 6.41504C3.64853 5.55011 3.82781 5.00826 4.13538 4.58493C4.35383 4.28426 4.61824 4.01985 4.91891 3.8014ZM16.4466 13.1686C16.6175 13.1415 16.8153 13.1312 17.1528 13.1273C17.0746 14.2609 16.8955 14.9155 16.5326 15.4151C16.3141 15.7157 16.0497 15.9802 15.7491 16.1986C15.2495 16.5615 14.5949 16.7407 13.4613 16.8188C13.4652 16.4813 13.4755 16.2835 13.5026 16.1126C13.7426 14.5972 14.9312 13.4086 16.4466 13.1686Z" fill="#053B4A"/>
<path d="M8.66732 6.04167C8.32214 6.04167 8.04232 6.32149 8.04232 6.66667C8.04232 7.01185 8.32214 7.29167 8.66732 7.29167H12.0007C12.3458 7.29167 12.6257 7.01185 12.6257 6.66667C12.6257 6.32149 12.3458 6.04167 12.0007 6.04167H8.66732Z" stroke="#053B4A" stroke-width="0.5" stroke-linecap="round"/>
<path d="M7.00065 9.375C6.65547 9.375 6.37565 9.65482 6.37565 10C6.37565 10.3452 6.65547 10.625 7.00065 10.625H13.6673C14.0125 10.625 14.2923 10.3452 14.2923 10C14.2923 9.65482 14.0125 9.375 13.6673 9.375H7.00065Z" stroke="#053B4A" stroke-width="0.5" stroke-linecap="round"/>
<path fill-rule="evenodd" clip-rule="evenodd" d="M14.0536 1.97811C13.1018 1.87499 11.9021 1.87499 10.3717 1.875H10.2963C8.76583 1.87499 7.56616 1.87499 6.61438 1.97811C5.6431 2.08334 4.85612 2.30194 4.18418 2.79013C3.77739 3.08568 3.41966 3.44341 3.12411 3.8502C2.63592 4.52213 2.41732 5.30912 2.31209 6.2804C2.20897 7.23218 2.20898 8.43185 2.20898 9.96229V10.0377C2.20898 11.5682 2.20897 12.7678 2.31209 13.7196C2.41732 14.6909 2.63592 15.4779 3.12411 16.1498C3.41966 16.5566 3.77739 16.9143 4.18418 17.2099C4.85612 17.6981 5.6431 17.9167 6.61438 18.0219C7.56614 18.125 8.76579 18.125 10.2962 18.125H10.3432C11.3099 18.125 12.141 18.125 12.8554 18.1005C14.4166 18.047 15.5641 17.8781 16.4838 17.2099C16.8906 16.9143 17.2483 16.5566 17.5439 16.1498C18.2121 15.2301 18.381 14.0826 18.4345 12.5214C18.459 11.8071 18.459 10.9759 18.459 10.0092V9.96227C18.459 8.43187 18.459 7.23216 18.3559 6.2804C18.2506 5.30912 18.032 4.52213 17.5439 3.8502C17.2483 3.44341 16.8906 3.08567 16.4838 2.79013C15.8119 2.30194 15.0249 2.08334 14.0536 1.97811ZM4.91891 3.8014C5.34225 3.49383 5.8841 3.31454 6.74902 3.22083C7.62564 3.12586 8.75767 3.125 10.334 3.125C11.9103 3.125 13.0423 3.12586 13.9189 3.22083C14.7839 3.31454 15.3257 3.49383 15.7491 3.8014C16.0497 4.01985 16.3141 4.28426 16.5326 4.58493C16.8402 5.00826 17.0194 5.55011 17.1132 6.41504C17.2081 7.29166 17.209 8.42369 17.209 10C17.209 10.707 17.2089 11.3265 17.2 11.8765C16.8044 11.8802 16.5132 11.8925 16.2511 11.934C14.2008 12.2587 12.5927 13.8668 12.268 15.9171C12.2265 16.1793 12.2141 16.4704 12.2105 16.866C11.6605 16.875 11.0409 16.875 10.334 16.875C8.75767 16.875 7.62564 16.8741 6.74902 16.7792C5.8841 16.6855 5.34225 16.5062 4.91891 16.1986C4.61824 15.9802 4.35383 15.7157 4.13538 15.4151C3.82781 14.9917 3.64853 14.4499 3.55482 13.585C3.45984 12.7083 3.45898 11.5763 3.45898 10C3.45898 8.42369 3.45984 7.29166 3.55482 6.41504C3.64853 5.55011 3.82781 5.00826 4.13538 4.58493C4.35383 4.28426 4.61824 4.01985 4.91891 3.8014ZM16.4466 13.1686C16.6175 13.1415 16.8153 13.1312 17.1528 13.1273C17.0746 14.2609 16.8955 14.9155 16.5326 15.4151C16.3141 15.7157 16.0497 15.9802 15.7491 16.1986C15.2495 16.5615 14.5949 16.7407 13.4613 16.8188C13.4652 16.4813 13.4755 16.2835 13.5026 16.1126C13.7426 14.5972 14.9312 13.4086 16.4466 13.1686Z" stroke="#053B4A" stroke-width="0.5" stroke-linecap="round"/>
</svg>
