<svg width="46" height="52" viewBox="0 0 46 52" fill="none" xmlns="http://www.w3.org/2000/svg">
<path d="M21.8514 22.6335C21.3734 22.6305 20.896 22.6034 20.4192 22.5715C19.7696 22.5282 19.117 22.4493 18.4813 22.3078C17.8431 22.1657 17.2128 21.9695 16.6186 21.6944C16.0087 21.412 15.4537 21.0249 14.9215 20.6179C14.5157 20.3073 14.1292 19.9599 13.7824 19.5842C13.6097 19.3964 13.4303 19.2128 13.2653 19.0177L13.2641 19.0165C13.2677 19.0208 13.2707 19.025 13.2743 19.0286C13.2701 19.0238 13.2665 19.0195 13.2629 19.0153C13.1768 18.931 13.104 18.8245 13.0287 18.7342C12.9498 18.6403 12.8716 18.5458 12.7927 18.4512C12.7801 18.4374 12.768 18.4235 12.7572 18.4085C12.7542 18.4049 12.7512 18.4013 12.7482 18.3971C12.7512 18.4007 12.7542 18.4037 12.7566 18.4073C12.747 18.3953 12.7367 18.3832 12.7271 18.3718C12.7187 18.3615 12.7102 18.3519 12.7018 18.3417C12.7193 18.3621 12.7367 18.3832 12.7536 18.4037C12.6573 18.2887 12.5694 18.1665 12.4791 18.0473C12.3599 17.8901 12.2395 17.7342 12.1251 17.5729C11.871 17.2135 11.6368 16.8432 11.4321 16.4537C11.2094 16.0305 11.0354 15.5838 10.8927 15.1287C10.6549 14.3731 10.5291 13.573 10.5333 12.7795C10.5351 12.4689 10.5321 12.1589 10.5496 11.8488C10.5616 11.6417 10.5736 11.4346 10.5857 11.2275C10.6043 10.903 10.6477 10.5797 10.6983 10.2583C10.8349 9.38954 11.0962 8.55091 11.4514 7.74781C11.7921 6.97601 12.2184 6.24997 12.7885 5.62326C13.0118 5.37764 13.2448 5.13622 13.4971 4.91949C13.653 4.78524 13.8089 4.651 13.9649 4.51675C14.3935 4.14831 14.845 3.81418 15.326 3.51858C15.6457 3.32172 15.9847 3.16881 16.3254 3.01288C16.5403 2.91475 16.7619 2.83589 16.9822 2.75341C17.3525 2.61374 17.763 2.50116 18.1622 2.51982C18.1869 2.52103 18.2116 2.52343 18.2362 2.52765C18.4283 2.47768 18.6215 2.43194 18.8154 2.3916C19.1393 2.32478 19.4632 2.27661 19.7913 2.23808C19.9472 2.22002 20.1091 2.21339 20.2657 2.21038C20.4384 2.20737 20.6106 2.20376 20.784 2.20556C21.1187 2.20917 21.4535 2.21881 21.7882 2.23206C22.4251 2.25674 23.0603 2.31333 23.6936 2.38076C24.3335 2.44879 24.9711 2.53608 25.5996 2.67575C26.2137 2.81241 26.8211 2.984 27.4274 3.15196C27.7254 3.23444 28.0264 3.3163 28.3184 3.41985C28.4929 3.48246 28.6723 3.53785 28.8445 3.60769C29.0029 3.6715 29.1606 3.73531 29.3183 3.79852C29.9035 4.03572 30.4754 4.32109 31.0203 4.63836C31.29 4.79489 31.5591 4.96044 31.8095 5.14707C31.954 5.25483 32.0979 5.36259 32.2424 5.47035C32.3802 5.5733 32.5079 5.69311 32.6397 5.80388C32.8992 6.02182 33.1316 6.27165 33.3627 6.51848C33.5759 6.74604 33.7745 6.98927 33.9648 7.2361C34.1574 7.48594 34.3446 7.73999 34.512 8.00789C34.6023 8.15177 34.6926 8.29567 34.7823 8.44015C34.8726 8.58524 34.9485 8.74055 35.0309 8.88985C35.1086 9.03013 35.1724 9.17943 35.2423 9.32392C35.3205 9.48587 35.3843 9.65624 35.453 9.8224C35.5776 10.1246 35.6631 10.4437 35.745 10.7598C35.8268 11.0782 35.8732 11.4045 35.9195 11.729C35.9653 12.0511 35.9731 12.3756 35.9737 12.7001C35.9743 13.0288 35.9316 13.3581 35.8936 13.685C35.8581 13.9914 35.8009 14.2942 35.7389 14.5971C35.6823 14.8722 35.6173 15.1437 35.5355 15.4128C35.4518 15.6898 35.3416 15.9564 35.226 16.2207C35.0851 16.5428 34.928 16.8583 34.76 17.1677C34.3386 17.9407 33.7908 18.6288 33.1671 19.2489C32.9317 19.4831 32.6776 19.7004 32.4278 19.9196C32.1322 20.1785 31.8221 20.4223 31.5007 20.648C30.9318 21.0478 30.2906 21.3367 29.644 21.5872C29.4712 21.6546 29.2979 21.7215 29.1251 21.7889C28.9601 21.8533 28.7843 21.8966 28.6152 21.9496C28.4863 21.9906 28.3569 22.0273 28.2262 22.0616C28.0655 22.1031 27.906 22.1519 27.744 22.1856C27.5568 22.2247 27.369 22.2633 27.1811 22.3018C27.0162 22.3355 26.8482 22.3566 26.6821 22.3819C26.375 22.4282 26.0668 22.4595 25.7573 22.4938C25.4672 22.5251 25.174 22.5396 24.8826 22.5559C24.5364 22.5757 24.1915 22.5944 23.8447 22.6076C23.3492 22.6263 22.8544 22.6323 22.3595 22.6323C22.1891 22.6353 22.0206 22.6341 21.8514 22.6335ZM21.0646 21.4228C21.4173 21.4331 21.7707 21.4463 22.1241 21.4481C22.796 21.4523 23.4666 21.4385 24.1379 21.4138C24.6201 21.3861 25.1011 21.3554 25.5828 21.3193C26.015 21.2874 26.4437 21.2218 26.8717 21.1561C27.0782 21.1134 27.2847 21.0707 27.4918 21.0279C27.7037 20.9846 27.9138 20.9189 28.1227 20.8642C28.34 20.7973 28.561 20.7365 28.7723 20.6541C29.1395 20.5114 29.5062 20.3711 29.8662 20.2104C30.1299 20.0863 30.3869 19.9527 30.635 19.801C30.933 19.6041 31.2093 19.385 31.4898 19.1646C31.8962 18.8076 32.3014 18.4518 32.6722 18.0563C32.9064 17.7944 33.1237 17.5205 33.3278 17.2339C33.4928 16.9901 33.6415 16.7379 33.7829 16.4796C33.8636 16.3195 33.9455 16.1599 34.0256 15.9998C34.0743 15.9023 34.1135 15.7987 34.1574 15.6988C34.2218 15.5513 34.282 15.4038 34.338 15.2527C34.4127 15.0311 34.4753 14.8072 34.5307 14.5796C34.5776 14.3514 34.6264 14.1239 34.6619 13.8927C34.7004 13.6434 34.7317 13.3942 34.7606 13.1438C34.7691 13.0161 34.7769 12.8885 34.7847 12.7609C34.7925 12.6315 34.7859 12.5008 34.7847 12.3714C34.7745 12.2395 34.7642 12.1083 34.7546 11.9764C34.7438 11.835 34.7161 11.6929 34.6944 11.5526C34.6691 11.4196 34.6438 11.2871 34.6186 11.1541C34.5921 11.015 34.5487 10.8771 34.512 10.7399C34.4638 10.5966 34.4157 10.4527 34.3669 10.3094C34.3175 10.1625 34.2495 10.0193 34.1887 9.87658C34.0828 9.65985 33.978 9.44494 33.8612 9.23423C33.7438 9.02171 33.6162 8.81641 33.4886 8.61052C33.391 8.46965 33.2935 8.32817 33.196 8.18729C33.0991 8.04823 32.9883 7.91699 32.8841 7.78334C32.7342 7.60635 32.5849 7.42995 32.4266 7.26078C32.2586 7.08137 32.084 6.91221 31.9058 6.74304C31.7728 6.63107 31.6397 6.51908 31.5073 6.4071C31.3694 6.29091 31.2171 6.18858 31.0714 6.08142C30.8529 5.93633 30.6356 5.79244 30.4092 5.6606C30.172 5.52213 29.9312 5.3957 29.688 5.26987C29.7108 5.28191 29.7337 5.29336 29.7566 5.3054C29.3021 5.09169 28.8439 4.8906 28.3774 4.70217C28.1046 4.60584 27.8325 4.51253 27.5556 4.42704C27.3039 4.34938 27.0493 4.28075 26.7952 4.21151C26.5135 4.13566 26.2323 4.05859 25.9506 3.98515C25.6743 3.91351 25.3979 3.84789 25.1192 3.78527C24.7532 3.72086 24.3877 3.65766 24.0181 3.61371C23.6496 3.56977 23.2812 3.53062 22.911 3.4951C22.0284 3.42346 21.144 3.38434 20.2572 3.39819C20.0995 3.40782 19.9412 3.41685 19.784 3.43491C19.5908 3.45719 19.4018 3.48668 19.2109 3.51919C19.2362 3.51497 19.2609 3.51076 19.2862 3.50655C18.9219 3.5812 18.5613 3.66608 18.2031 3.76541C18.0791 3.79973 17.9521 3.78528 17.8395 3.73651C17.7546 3.75578 17.6703 3.77867 17.586 3.80275C17.3555 3.878 17.1297 3.9665 16.9027 4.05199C16.7847 4.10557 16.6674 4.15975 16.5494 4.21333C16.2989 4.32772 16.0587 4.46075 15.8233 4.60343C15.4597 4.83762 15.1201 5.0983 14.786 5.37222C14.659 5.48119 14.5326 5.59076 14.4061 5.69973C14.1509 5.91887 13.9107 6.15426 13.6813 6.40049C13.5163 6.58411 13.3634 6.77434 13.2202 6.97542C13.0624 7.2078 12.9197 7.44741 12.7885 7.69545C12.5808 8.10964 12.3966 8.53225 12.2395 8.96751C12.1305 9.28599 12.039 9.60748 11.9643 9.93499C11.8788 10.3462 11.818 10.7604 11.7753 11.1782C11.7584 11.4714 11.7416 11.7645 11.7241 12.0577C11.7169 12.186 11.7217 12.3166 11.7211 12.4448C11.7193 12.6308 11.7181 12.8169 11.7229 13.0029C11.7374 13.3051 11.7663 13.6055 11.8126 13.9047C11.8644 14.1859 11.9306 14.4634 12.0107 14.7385C12.1064 15.0395 12.216 15.334 12.3442 15.6229C12.4767 15.9017 12.6229 16.1726 12.7849 16.4351C13.0546 16.8493 13.355 17.2388 13.6518 17.6337C13.7373 17.718 13.8095 17.8233 13.8848 17.9136C13.9637 18.0081 14.0431 18.1033 14.1226 18.1984C14.1346 18.211 14.1455 18.2249 14.1557 18.2387C14.1611 18.2447 14.1659 18.2514 14.1714 18.258C14.1677 18.2532 14.1641 18.249 14.1599 18.2441C14.2773 18.3844 14.4085 18.5144 14.5326 18.6493C14.7162 18.8486 14.9046 19.0394 15.1027 19.2242C15.4386 19.5247 15.7944 19.7992 16.1629 20.0599C16.4139 20.2308 16.6716 20.3886 16.9401 20.5318C17.1682 20.6456 17.4012 20.7449 17.6408 20.834C18.0081 20.9629 18.3807 21.07 18.7606 21.1561C19.2296 21.2519 19.7004 21.3084 20.1748 21.3668C20.4728 21.3867 20.7684 21.4138 21.0646 21.4228Z" fill="currentColor"/>
<path d="M19.0393 6.62022C18.8936 6.55701 18.7768 6.4348 18.7203 6.2861C18.6637 6.1362 18.6769 5.98689 18.7305 5.8394C18.893 5.38968 19.067 4.94298 19.2464 4.49989C19.344 4.26028 19.4433 4.02249 19.5444 3.78469C19.5878 3.68234 19.6365 3.58241 19.6835 3.48127C19.766 3.30246 19.8509 3.09476 20.0008 2.96111C20.2422 2.74558 20.6112 2.74017 20.8406 2.98038C21.0447 3.1941 21.0609 3.55471 20.8641 3.77686C20.8532 3.79552 20.843 3.81357 20.8322 3.83223C20.6401 4.21633 20.4776 4.61609 20.3192 5.01523C20.1489 5.44568 19.9785 5.87612 19.8208 6.31199C19.7383 6.53835 19.5029 6.66718 19.2705 6.66718C19.191 6.66718 19.1122 6.65153 19.0393 6.62022Z" fill="currentColor"/>
<path d="M22.7603 7.01177C22.4455 7.00454 22.1619 6.72761 22.1806 6.40432C22.2101 5.89501 22.2341 5.38508 22.254 4.87517C22.2636 4.61329 22.2685 4.35021 22.2757 4.08773C22.2793 3.96732 22.2847 3.84691 22.2901 3.72651C22.2949 3.60972 22.3004 3.48811 22.3214 3.37372C22.381 3.05525 22.67 2.82648 22.9975 2.87585C23.3094 2.92341 23.555 3.23465 23.4954 3.55192C23.4918 3.57178 23.4894 3.59165 23.487 3.61152C23.4551 4.04437 23.4569 4.47905 23.44 4.91311C23.4207 5.41941 23.3967 5.9257 23.3678 6.43201C23.3497 6.75048 23.0999 7.01177 22.7748 7.01237C22.7706 7.01177 22.7651 7.01177 22.7603 7.01177Z" fill="currentColor"/>
<path d="M26.2082 8.10168C26.0673 8.01739 25.98 7.88435 25.9361 7.72903C25.7464 7.0662 25.5664 6.40035 25.3864 5.73451C25.2191 5.11623 25.0788 4.49194 24.9138 3.87305C24.9036 3.84235 24.894 3.81103 24.8843 3.78033C24.8362 3.63163 24.8314 3.47931 24.8946 3.33362C24.9578 3.18733 25.08 3.07055 25.2293 3.01396C25.5195 2.90379 25.8957 3.05068 25.9951 3.35832C26.2004 3.99706 26.3262 4.6605 26.502 5.30768C26.6958 6.02409 26.8885 6.7405 27.0926 7.4539C27.1811 7.76455 26.9559 8.09746 26.6519 8.1691C26.6073 8.17934 26.5616 8.18476 26.5158 8.18476C26.4081 8.18536 26.3009 8.15706 26.2082 8.10168Z" fill="currentColor"/>
<path d="M4.14001 10.0515C4.0178 10.0172 3.88235 9.95397 3.79806 9.85403C3.66441 9.6951 3.56567 9.51389 3.45972 9.33569C3.19242 8.88478 2.92392 8.43506 2.64638 7.99076C2.47781 7.73129 2.30684 7.47422 2.13828 7.21414C2.04677 7.07327 1.95465 6.93301 1.86676 6.78972C1.72287 6.55373 1.56273 6.30209 1.52782 6.02214C1.50976 5.87766 1.5224 5.74761 1.55431 5.60553C1.58561 5.46767 1.66749 5.33582 1.73793 5.21602C1.8463 5.0312 1.99198 4.86866 2.13406 4.70852C2.3556 4.45988 2.57776 4.21185 2.80051 3.96442C3.23457 3.4834 3.68308 3.01743 4.14062 2.55809C4.36999 2.32751 4.61802 2.11679 4.86545 1.90728C5.087 1.71945 5.31938 1.54487 5.56862 1.39497C5.74561 1.28901 5.92682 1.1981 6.11706 1.11683C6.33078 1.02592 6.55955 0.968121 6.78531 0.915744C7.28078 0.800757 7.79491 0.73996 8.30362 0.768857C8.84605 0.800163 9.38245 0.932013 9.89719 1.09938C10.3848 1.25771 10.8532 1.466 11.2987 1.72005C11.7689 1.98855 12.1686 2.36001 12.5473 2.7435C12.8543 3.05475 13.1463 3.38105 13.4407 3.70373C13.6767 3.96261 13.9079 4.22749 14.1535 4.47853C14.2227 4.53031 14.2811 4.59653 14.3227 4.67359C14.3985 4.81387 14.4052 4.96619 14.3702 5.1185V5.1191C14.3221 5.33042 14.1342 5.4761 13.9362 5.53269C13.7652 5.58205 13.5521 5.53029 13.4178 5.4147C13.3492 5.3551 13.286 5.29129 13.2246 5.22566C13.1174 5.28226 12.9928 5.30633 12.8682 5.28225C12.7412 5.25817 12.6141 5.23951 12.4853 5.22506C12.3432 5.21422 12.2023 5.20759 12.0591 5.20579C11.9188 5.21361 11.7809 5.22506 11.6413 5.24613C11.4859 5.27744 11.333 5.31836 11.1795 5.35809C11.0693 5.39181 10.9574 5.42371 10.8508 5.46465C10.7027 5.52184 10.5546 5.57845 10.4065 5.63564C10.2554 5.70488 10.1049 5.77411 9.95377 5.84334C9.77618 5.92522 9.60521 6.02636 9.43303 6.11786C9.1266 6.28041 8.8322 6.46463 8.5348 6.64162C8.3277 6.78069 8.1194 6.91915 7.9117 7.05822C7.74133 7.172 7.57939 7.29301 7.41564 7.41703C7.24286 7.54767 7.06345 7.6741 6.89669 7.81257C6.70404 7.97271 6.51199 8.13343 6.31874 8.29297C6.13934 8.45552 5.95994 8.61808 5.78053 8.78063C5.63183 8.91548 5.49698 9.06959 5.35791 9.21467C5.27062 9.31822 5.18332 9.42118 5.09603 9.52473C5.028 9.6048 4.96779 9.69028 4.89495 9.76493C4.83715 9.82453 4.77695 9.88473 4.70953 9.93349C4.64932 9.97744 4.58069 10.0039 4.51267 10.034C4.45126 10.0617 4.38142 10.0738 4.31098 10.0738C4.25379 10.075 4.19419 10.0666 4.14001 10.0515ZM3.85164 7.68012C4.03044 7.96548 4.19961 8.25686 4.36999 8.54704C4.38925 8.52416 4.40912 8.50067 4.42838 8.4778C4.53855 8.34716 4.66377 8.22736 4.78358 8.10454C5.00873 7.87276 5.25075 7.66085 5.48975 7.44352C5.72876 7.22679 5.98642 7.02812 6.23506 6.82283C6.34703 6.73012 6.46804 6.64583 6.58423 6.55794C6.72992 6.44777 6.87501 6.337 7.0213 6.22683C7.12606 6.14736 7.24165 6.07933 7.35122 6.00588C7.52039 5.89331 7.68896 5.78011 7.85813 5.66693C7.97011 5.59288 8.0881 5.52728 8.20368 5.45864C8.37346 5.35811 8.54323 5.25696 8.7136 5.15642C8.84484 5.07876 8.98512 5.01193 9.11997 4.94089C9.24399 4.87527 9.3674 4.80965 9.49503 4.75125C9.65638 4.6772 9.81652 4.59111 9.98208 4.5279C10.1344 4.4695 10.2861 4.41111 10.4378 4.35211C10.6106 4.28589 10.7954 4.23291 10.9748 4.18595C11.2614 4.1107 11.5504 4.04329 11.8478 4.02944C11.9399 4.02523 12.0314 4.02281 12.1235 4.02281C11.8875 3.76695 11.6473 3.51469 11.395 3.27509C11.2475 3.14204 11.0964 3.01381 10.9363 2.89641C10.7725 2.78745 10.6034 2.68992 10.4294 2.59781C10.1916 2.48041 9.94775 2.37867 9.69972 2.28656C9.43362 2.19445 9.16512 2.11558 8.8906 2.05237C8.70457 2.01384 8.51915 1.98254 8.33011 1.96207C8.18864 1.95184 8.04776 1.94763 7.90628 1.95064C7.70942 1.96509 7.51377 1.98917 7.31931 2.02048C7.1381 2.05419 6.9599 2.09392 6.78231 2.14269C6.67575 2.17761 6.57159 2.21672 6.46744 2.26007C6.35847 2.31305 6.25312 2.37025 6.14897 2.43286C5.99847 2.53039 5.85458 2.63515 5.71311 2.74471C5.57284 2.86271 5.43015 2.9789 5.2965 3.10472C5.10927 3.27991 4.92445 3.4551 4.74385 3.63691C4.40611 3.97585 4.08041 4.32563 3.75652 4.67721C3.59939 4.8512 3.44286 5.02579 3.28634 5.19978C3.11476 5.39122 2.93837 5.58026 2.78485 5.78615C2.76318 5.81986 2.74271 5.85417 2.72224 5.88909C2.78846 6.02214 2.86612 6.14795 2.94378 6.27438C3.2466 6.74336 3.55424 7.20753 3.85164 7.68012Z" fill="currentColor"/>
<path d="M41.4208 9.2688C41.2823 9.19715 41.1565 9.10324 41.0282 9.01474C40.8555 8.89494 40.6809 8.77876 40.5057 8.66317C40.171 8.44222 39.8332 8.22609 39.5033 7.99853C39.1638 7.76434 38.8278 7.52413 38.4907 7.28513C38.3005 7.15569 38.1108 7.02565 37.9152 6.90344C37.6888 6.76137 37.4582 6.63013 37.2247 6.49949C37.0465 6.41159 36.8694 6.32248 36.6864 6.24362C36.4944 6.16054 36.3005 6.08589 36.1043 6.01365C35.9628 5.9679 35.8207 5.92755 35.6762 5.89263C35.5576 5.86855 35.439 5.84929 35.3186 5.83605C35.1735 5.82641 35.0297 5.8228 34.8846 5.82521C34.7539 5.83363 34.6245 5.84689 34.4951 5.86616C34.3927 5.88602 34.2928 5.9107 34.1916 5.93478C33.943 6.01545 33.6992 6.10636 33.459 6.2099C33.406 6.23519 33.3536 6.26049 33.3012 6.28698C33.1074 6.3845 32.8816 6.37305 32.707 6.26649C32.5349 6.33332 32.3284 6.32188 32.1706 6.22796C32.0346 6.14609 31.9346 6.01004 31.8979 5.85532C31.8612 5.69879 31.8943 5.55309 31.966 5.41282C32.2706 4.82404 32.6282 4.26537 32.984 3.70729C33.3795 3.08661 33.7835 2.46772 34.2512 1.89881C34.5179 1.57432 34.8141 1.26727 35.1422 1.00418C35.4812 0.732069 35.846 0.514745 36.2427 0.338352C37.0097 -0.00239508 37.8893 -0.066811 38.711 0.0608185C39.1084 0.122827 39.4949 0.242025 39.87 0.384705C40.2691 0.536416 40.6496 0.745326 40.9981 0.99035C41.3323 1.22574 41.6375 1.49544 41.9247 1.78622C42.0956 1.959 42.254 2.14202 42.4147 2.32384C42.8301 2.79281 43.222 3.28226 43.6218 3.76327C43.6615 3.81023 43.7031 3.85598 43.7392 3.90535C43.7651 3.93485 43.7903 3.96616 43.8168 3.99747C43.7994 3.9764 43.7825 3.95593 43.7651 3.93546C43.8475 4.03419 43.9336 4.13171 44.0131 4.23225C44.1335 4.38516 44.2551 4.55795 44.2689 4.76023C44.2756 4.86017 44.275 4.94866 44.2533 5.04739C44.2298 5.15215 44.1937 5.24668 44.1431 5.3424C44.0697 5.48387 43.9788 5.61631 43.8927 5.75056C43.7729 5.93658 43.6597 6.12503 43.5465 6.31466C43.4652 6.45072 43.3954 6.59279 43.3226 6.73366C43.1606 7.09247 43.0083 7.45249 42.8662 7.81973C42.8747 7.79565 42.8831 7.77157 42.8915 7.74749C42.8777 7.78602 42.8644 7.82454 42.8506 7.86246C42.8524 7.85825 42.8536 7.85403 42.8554 7.84922C42.8524 7.85825 42.8488 7.86729 42.8458 7.87632C42.8403 7.89137 42.8349 7.90642 42.8295 7.92147C42.8301 7.91907 42.8313 7.91606 42.8325 7.91365C42.8145 7.96362 42.7964 8.01419 42.7789 8.06415C42.7807 8.05934 42.7819 8.05512 42.7838 8.0503C42.726 8.21465 42.6712 8.3796 42.6158 8.54516C42.57 8.68423 42.5267 8.82391 42.4629 8.95635C42.3744 9.13997 42.2028 9.30131 42.0005 9.34947C41.9391 9.36392 41.8789 9.37115 41.8187 9.37115C41.682 9.37175 41.5484 9.33502 41.4208 9.2688ZM40.9373 7.52715C41.0921 7.62709 41.2456 7.72821 41.3973 7.83116C41.4539 7.86969 41.5105 7.91004 41.5677 7.95037C41.6176 7.80167 41.6682 7.65297 41.7212 7.50547C41.7121 7.52955 41.7037 7.55363 41.6953 7.57771C41.717 7.5169 41.7386 7.4561 41.7603 7.3959C41.8356 7.1888 41.9186 6.98532 42.0029 6.78184C42.0896 6.57173 42.1799 6.36161 42.2853 6.15993C42.4057 5.93056 42.5273 5.70661 42.6603 5.48387C42.7771 5.2876 42.9114 5.09977 43.0288 4.90291C42.9818 4.84692 42.9355 4.79153 42.8885 4.73554C42.8428 4.68136 42.7934 4.62899 42.7519 4.5712C42.6621 4.46344 42.5724 4.35627 42.4827 4.24851C42.3124 4.04382 42.1432 3.83912 41.9734 3.63504C41.6002 3.19194 41.2269 2.74705 40.8019 2.35152C40.6399 2.20764 40.4726 2.07339 40.2962 1.94757C40.1409 1.84402 39.9825 1.7495 39.8182 1.66221C39.634 1.57251 39.4473 1.49364 39.2553 1.4232C39.0783 1.36481 38.8995 1.31423 38.7183 1.27209C38.5623 1.24139 38.407 1.2167 38.2493 1.19924C38.1 1.18961 37.9519 1.1866 37.8026 1.19081C37.6533 1.20044 37.5058 1.21611 37.3583 1.23898C37.2433 1.26126 37.1307 1.28775 37.0182 1.31966C36.8803 1.36481 36.746 1.41597 36.613 1.47376C36.4817 1.53758 36.3547 1.60682 36.2295 1.68207C36.1019 1.76635 35.9803 1.85546 35.8611 1.94998C35.6859 2.09928 35.5233 2.25942 35.3662 2.42738C35.1603 2.65796 34.9683 2.89876 34.7889 3.15041C34.6841 3.2967 34.5806 3.4436 34.4752 3.58929C34.2013 4.01251 33.9213 4.43453 33.654 4.86317C33.9304 4.77407 34.2133 4.70666 34.5017 4.66753C35.1579 4.57843 35.8207 4.67654 36.4468 4.87822C36.7208 4.96612 36.985 5.07991 37.2481 5.19369C38.236 5.62053 39.1042 6.26951 39.9771 6.88779C40.295 7.10392 40.6147 7.31764 40.9373 7.52715Z" fill="currentColor"/>
<path d="M20.3057 14.5177C20.2166 13.909 20.2016 13.2871 20.1961 12.673C20.1937 12.3588 20.1913 12.0433 20.1961 11.7291C20.1985 11.5701 20.1979 11.4106 20.2052 11.2511C20.2142 11.0506 20.1955 10.8038 20.3141 10.6304C20.4062 10.4961 20.5254 10.3962 20.6868 10.3577C20.8361 10.3222 20.9974 10.3468 21.1293 10.4257C21.349 10.5575 21.4718 10.8495 21.4008 11.0976C21.3785 11.4967 21.3827 11.8983 21.3815 12.2986C21.3803 12.6863 21.39 13.074 21.4044 13.4617C21.4207 13.7736 21.4423 14.0842 21.4875 14.3936C21.5344 14.7139 21.2714 15.0137 20.9589 15.0462C20.9378 15.0487 20.9168 15.0499 20.8957 15.0499C20.5929 15.0493 20.3497 14.8175 20.3057 14.5177Z" fill="currentColor"/>
<path d="M24.5313 14.9737C24.4025 14.8713 24.3362 14.7305 24.3103 14.5715C24.2044 13.9003 24.1719 13.2146 24.1719 12.5355C24.1719 12.1971 24.1749 11.8588 24.1803 11.5205C24.1833 11.3194 24.1875 11.1189 24.1923 10.9184C24.1954 10.8065 24.1947 10.6915 24.214 10.5813C24.2483 10.3893 24.3567 10.2472 24.5211 10.1472C24.7974 9.97808 25.1785 10.1159 25.3254 10.3887C25.3898 10.5085 25.4108 10.6493 25.3856 10.7824C25.3723 11.0027 25.3729 11.2249 25.3693 11.4452C25.3663 11.6391 25.3627 11.8335 25.3615 12.028C25.3585 12.4259 25.3597 12.8227 25.3735 13.2206C25.3994 13.6312 25.4277 14.0412 25.4915 14.4475C25.5421 14.7672 25.2724 15.0676 24.9629 15.1001C24.9425 15.1025 24.922 15.1031 24.9015 15.1031C24.7685 15.1031 24.636 15.0574 24.5313 14.9737Z" fill="currentColor"/>
<path d="M23.1507 20.0339C22.9405 20.0182 22.7292 19.9923 22.5233 19.9454C22.1043 19.8491 21.6883 19.6775 21.3434 19.418C20.9846 19.1483 20.7076 18.8142 20.4915 18.4216C20.3506 18.1658 20.2098 17.8383 20.2958 17.5415C20.3554 17.3374 20.5228 17.1767 20.7293 17.1279C20.7835 17.1147 20.825 17.1122 20.881 17.1122C21.1941 17.1122 21.4511 17.3832 21.4608 17.6884C21.4734 17.7215 21.4867 17.7534 21.5011 17.7859C21.5372 17.8563 21.5745 17.925 21.6143 17.9936C21.6636 18.0677 21.7154 18.1381 21.7708 18.2079C21.822 18.2639 21.875 18.3169 21.9304 18.3693C21.9701 18.4036 22.011 18.4361 22.0532 18.4674C22.1338 18.521 22.2163 18.5697 22.3012 18.6161C22.3758 18.651 22.4499 18.6829 22.5264 18.713C22.6191 18.7437 22.7124 18.7708 22.8075 18.7943C22.9448 18.819 23.0826 18.8364 23.2217 18.8515C23.377 18.8623 23.5323 18.8672 23.6877 18.8665C23.7358 18.8629 23.7834 18.8569 23.8309 18.8479C23.8219 18.8503 23.8129 18.8533 23.8045 18.8557C23.8159 18.8527 23.8279 18.8497 23.8394 18.8461C23.843 18.8455 23.846 18.8449 23.8496 18.8443C23.8472 18.8449 23.8442 18.8455 23.8418 18.8455C23.8827 18.8334 23.9231 18.8196 23.9628 18.8033C24.0115 18.7792 24.0597 18.754 24.1073 18.7275C24.1627 18.6901 24.2156 18.6516 24.2686 18.6101C24.3565 18.533 24.439 18.4524 24.5197 18.3681C24.6322 18.2404 24.7358 18.108 24.8393 17.9725C24.9483 17.8112 25.0494 17.648 25.1422 17.4759C25.15 17.4602 25.1572 17.4452 25.165 17.4295C25.2367 17.2844 25.345 17.1688 25.4998 17.1104C25.643 17.0562 25.8056 17.0599 25.9465 17.1207C26.2318 17.2447 26.3986 17.6119 26.2547 17.9021C26.0843 18.2464 25.8832 18.5625 25.6497 18.8677C25.4365 19.1471 25.1879 19.3963 24.9122 19.6143C24.5817 19.8743 24.1759 20.0188 23.7599 20.0507C23.7003 20.0555 23.6401 20.0574 23.5799 20.0574C23.4354 20.0549 23.2915 20.0447 23.1507 20.0339Z" fill="currentColor"/>
<path d="M10.5474 38.0824C10.4613 37.8079 10.4101 37.5237 10.3397 37.245C10.268 36.9614 10.1856 36.6827 10.1007 36.4027C9.9008 35.8344 9.70152 35.2643 9.47095 34.7068C9.20425 34.0621 8.93033 33.4215 8.64918 32.7828C8.39151 32.1964 8.14348 31.6064 7.89905 31.014C7.77624 30.7166 7.65222 30.4192 7.52821 30.1212C7.42586 29.8732 7.31028 29.6306 7.1989 29.3867C7.20131 29.3928 7.20432 29.3982 7.20673 29.4042C7.1098 29.2176 7.01167 29.0321 6.91474 28.8461C6.8732 28.7672 6.82083 28.6926 6.77447 28.6167C6.73052 28.5457 6.68658 28.4747 6.64263 28.4036C6.28984 27.9003 5.92502 27.4055 5.57343 26.901C5.21944 26.3923 4.86846 25.8817 4.52109 25.3688C4.36637 25.1406 4.24175 24.8697 4.32603 24.5892C4.37178 24.4369 4.44524 24.3062 4.56143 24.1955C4.71675 24.0468 4.9124 23.9577 5.11107 23.8848C5.3874 23.7825 5.67337 23.7096 5.95873 23.6398C6.11586 23.6013 6.27118 23.5633 6.43012 23.5326C7.06586 23.4104 7.70461 23.3195 8.34757 23.2443C8.9809 23.1702 9.61423 23.0877 10.2488 23.0251C10.5727 22.9932 10.8965 22.9547 11.221 22.9342C11.5576 22.9131 11.8947 22.8824 12.2324 22.8824C12.4389 22.8824 12.6454 22.8818 12.8519 22.8818C12.9928 22.8818 13.1349 22.8975 13.2758 22.9071C13.634 22.9312 13.9873 22.9661 14.3437 23.0065C14.6743 23.0438 15.0018 23.0944 15.3311 23.1431C15.6092 23.1841 15.8897 23.2322 16.1649 23.2894C16.5128 23.3623 16.859 23.4357 17.204 23.5206C17.5393 23.6043 17.8716 23.697 18.2045 23.7903C18.8048 23.9583 19.3971 24.1521 19.9877 24.3514C20.3086 24.4598 20.6187 24.5928 20.9275 24.7301C21.2315 24.8655 21.5205 25.0389 21.8071 25.2081C22.3362 25.5199 22.8383 25.8829 23.3356 26.2436C23.4458 26.323 23.5547 26.4037 23.6631 26.485C23.9214 26.6794 23.9557 27.0719 23.7576 27.3194C23.5517 27.577 23.1815 27.6084 22.9232 27.4139C22.6306 27.1936 22.3314 26.9822 22.0322 26.7709C21.7794 26.5976 21.5229 26.4302 21.2634 26.267C21.0184 26.1129 20.7644 25.9781 20.5091 25.8432C20.364 25.7788 20.2189 25.7138 20.0738 25.6494C19.933 25.5867 19.7843 25.5386 19.6392 25.485C19.1299 25.3134 18.6187 25.1515 18.104 24.998C17.5899 24.8451 17.0721 24.7108 16.552 24.5814C16.098 24.4863 15.6435 24.3881 15.1848 24.3207C14.9331 24.2834 14.6809 24.2382 14.428 24.2093C14.1679 24.1792 13.9085 24.1503 13.649 24.1202C13.3895 24.1027 13.1307 24.0853 12.8712 24.0672C12.7442 24.0588 12.6135 24.0678 12.4859 24.0678C12.348 24.0678 12.2108 24.0678 12.0729 24.0678C11.687 24.0919 11.3017 24.113 10.917 24.1503C10.4432 24.1973 9.97063 24.2484 9.49744 24.3038C8.6835 24.3983 7.87197 24.4965 7.06164 24.6181C6.60952 24.7054 6.16222 24.8005 5.72033 24.9299C5.70407 24.9354 5.68722 24.9408 5.67096 24.9468C6.30189 25.8769 6.95869 26.7896 7.60768 27.7077C7.70641 27.848 7.79069 28.0015 7.8804 28.1478C7.95866 28.2736 8.02548 28.4018 8.09411 28.5331C8.16335 28.6643 8.23439 28.7949 8.2958 28.9298C8.38068 29.1164 8.46556 29.3037 8.55045 29.4909C8.68349 29.7853 8.80209 30.0863 8.92551 30.3849C9.05314 30.6907 9.17896 30.9972 9.30479 31.3036C9.51309 31.8075 9.73644 32.3048 9.95557 32.8038C10.1801 33.3162 10.4077 33.8291 10.6088 34.351C10.7256 34.6533 10.8424 34.9561 10.9592 35.2589C11.0055 35.3805 11.0452 35.5045 11.088 35.6273C11.1398 35.7748 11.1951 35.9217 11.2403 36.0716C11.3252 36.3516 11.4101 36.6303 11.4817 36.9145C11.5497 37.1806 11.5997 37.4515 11.6756 37.7158C11.6708 37.6989 11.6653 37.6826 11.6605 37.6658C11.7057 37.8139 11.7111 37.9614 11.6485 38.1065C11.5853 38.2528 11.4631 38.3696 11.3138 38.4255C11.2493 38.4502 11.1801 38.4617 11.1103 38.4617C10.8683 38.4635 10.622 38.322 10.5474 38.0824Z" fill="currentColor"/>
<path d="M38.2102 43.9027C37.9447 43.7727 37.6798 43.639 37.4119 43.5144C37.1019 43.3699 36.7924 43.2303 36.4782 43.0948C36.2289 42.9877 35.9725 42.8962 35.7184 42.8016C35.3289 42.677 34.9406 42.553 34.5469 42.4416C34.1495 42.3291 33.751 42.2231 33.3525 42.1177C32.568 41.9106 31.7739 41.7415 30.9823 41.5681H30.9835C30.6752 41.5013 30.3676 41.4338 30.0588 41.3718C29.7325 41.3062 29.4068 41.2484 29.0781 41.1924C28.7632 41.1388 28.4423 41.1063 28.1251 41.0696C27.8475 41.0371 27.5694 41.0106 27.2913 40.9841C26.8915 40.9522 26.493 40.9293 26.092 40.936C26.0415 40.9384 25.9909 40.9414 25.9403 40.945C25.6176 40.9667 25.3226 40.7475 25.2877 40.4164C25.2552 40.1034 25.493 39.7855 25.8163 39.7638C26.4677 39.7193 27.1155 39.7771 27.7638 39.8373C28.414 39.8981 29.0606 39.9848 29.7048 40.0943C30.3219 40.1997 30.9329 40.3436 31.5446 40.4772C32.2086 40.6229 32.8702 40.7752 33.5307 40.939C33.9623 41.0455 34.3927 41.1623 34.8208 41.2839C35.0273 41.3423 35.2338 41.3989 35.4379 41.4645C35.6877 41.5446 35.9412 41.6175 36.1868 41.7096C36.6407 41.8805 37.0904 42.0539 37.5299 42.2592C37.7551 42.3646 37.9802 42.4705 38.2042 42.5795C38.3095 42.6307 38.4149 42.6836 38.5202 42.7354C38.5208 42.6632 38.5214 42.5909 38.5226 42.5187C38.5263 42.2363 38.5257 41.9546 38.5233 41.6728C38.5184 41.0925 38.5028 40.5121 38.4799 39.9324C38.4811 39.9577 38.4817 39.983 38.4829 40.0082C38.4775 39.8607 38.4715 39.7132 38.4655 39.5651C38.4655 39.5682 38.4655 39.5712 38.4661 39.5736C38.4655 39.5615 38.4649 39.5501 38.4643 39.5381C38.4101 38.2895 38.3324 37.0396 38.3101 35.7898C38.2879 34.5033 38.2879 33.2156 38.3276 31.9297C38.3673 30.6323 38.4522 29.3373 38.557 28.0436C38.6629 26.7306 38.7803 25.4163 38.9778 24.1136C39.0073 23.9203 39.035 23.727 39.0729 23.5356C39.1205 23.293 39.1596 23.0468 39.2192 22.8065C39.2944 22.4995 39.3745 22.1943 39.4576 21.8903C38.6298 21.9372 37.805 22.0089 36.9803 22.0992C36.0309 22.2027 35.0881 22.3526 34.1459 22.508C33.7829 22.5838 33.4199 22.6591 33.0569 22.7355C32.8847 22.7716 32.7143 22.8258 32.5433 22.8704C32.3627 22.9179 32.1821 22.9655 32.0015 23.0124C31.7252 23.1033 31.4488 23.1943 31.1725 23.2852C30.9522 23.3574 30.7397 23.4441 30.5247 23.5308C30.299 23.6217 30.0708 23.7078 29.8487 23.8089C29.5916 23.9251 29.3345 24.0413 29.0775 24.1581C28.688 24.3532 28.293 24.5386 27.9125 24.7505C27.7085 24.8643 27.499 24.972 27.2991 25.093C27.0938 25.2165 26.8891 25.3405 26.6844 25.4639C26.4165 25.6331 26.148 25.7998 25.8873 25.9792C25.7507 26.0731 25.608 26.1622 25.4767 26.264C25.3305 26.3784 25.1836 26.4922 25.0361 26.6065C24.8597 26.7631 24.6839 26.919 24.5147 27.0833C24.366 27.2272 24.2185 27.3735 24.0752 27.5228L24.074 27.524L24.0746 27.5234C24.0626 27.5361 24.0505 27.5481 24.0391 27.5607C24.053 27.5451 24.0674 27.5294 24.0813 27.5138C24.0939 27.4957 24.1065 27.4777 24.1192 27.4596L24.118 27.4614C24.0265 27.5957 23.9073 27.6962 23.7459 27.7341C23.596 27.7697 23.4353 27.745 23.3034 27.6661C23.0391 27.5078 22.9157 27.1183 23.0987 26.8516C23.1878 26.7221 23.3028 26.6138 23.413 26.503C23.5322 26.3826 23.6532 26.264 23.7748 26.1466C24.0078 25.9208 24.2552 25.7107 24.5117 25.5115C25.0246 25.1123 25.5683 24.7523 26.1251 24.4164C26.6579 24.0955 27.1913 23.7722 27.7488 23.4947C28.0468 23.346 28.3424 23.1906 28.6452 23.0534C28.83 22.9697 29.0155 22.886 29.2003 22.8017C29.3207 22.7475 29.4405 22.6879 29.5633 22.6386C29.8914 22.5067 30.2189 22.3749 30.547 22.2431C30.6602 22.1973 30.7812 22.1654 30.8974 22.1275C31.1123 22.057 31.3266 21.9866 31.5416 21.9162C31.851 21.8144 32.1701 21.7422 32.4849 21.6597C32.7757 21.5838 33.0677 21.5224 33.3621 21.4604C34.6426 21.1931 35.9436 21.0191 37.2439 20.8777C38.0458 20.7898 38.8502 20.7374 39.6557 20.6941C39.9314 20.679 40.2463 20.6393 40.4937 20.7874C40.6653 20.8903 40.7827 21.0908 40.8037 21.2888C40.826 21.502 40.7411 21.7205 40.6809 21.921C40.5617 22.3147 40.4648 22.715 40.3667 23.1142C40.3053 23.4176 40.2402 23.721 40.1933 24.0275C40.1355 24.411 40.0783 24.7932 40.0313 25.1779C39.9446 25.8901 39.8784 26.6035 39.8086 27.3175C39.7062 28.5854 39.5991 29.8521 39.5461 31.1229C39.4919 32.4179 39.4763 33.7128 39.4865 35.0084C39.4919 35.6616 39.5094 36.3136 39.5353 36.9668C39.5744 37.8343 39.6177 38.7006 39.6514 39.5682C39.6502 39.5429 39.6496 39.5176 39.6484 39.4923C39.6545 39.6398 39.6599 39.7879 39.6659 39.9354C39.6647 39.9101 39.6635 39.8848 39.6629 39.8595C39.687 40.4555 39.7044 41.0521 39.7098 41.6488C39.7129 41.9492 39.7129 42.249 39.7098 42.5488C39.7086 42.6951 39.7056 42.8414 39.7026 42.9877C39.7014 43.0593 39.699 43.131 39.6966 43.2026C39.6936 43.2917 39.6966 43.388 39.6791 43.4753C39.649 43.6246 39.6075 43.7637 39.5106 43.8847C39.4173 44.0015 39.268 44.09 39.1223 44.1243C39.0663 44.1375 39.0103 44.1436 38.9543 44.1436C38.693 44.1405 38.436 44.0135 38.2102 43.9027Z" fill="currentColor"/>
<path d="M12.1623 46.8285C12.0804 46.7689 12.0112 46.7015 11.9624 46.6112C11.9101 46.5137 11.8824 46.4083 11.8583 46.3012C11.839 46.2115 11.824 46.1206 11.8077 46.0303C11.7686 45.8129 11.7307 45.5962 11.6939 45.3783C11.6981 45.4035 11.7024 45.4282 11.7066 45.4535C11.4892 44.1844 11.2924 42.913 11.1015 41.6397C10.9245 40.4597 10.759 39.2785 10.5663 38.1004C10.5236 37.862 10.4772 37.623 10.4375 37.3834C10.4417 37.4086 10.4459 37.4333 10.4507 37.4586V37.458C10.4231 37.3033 10.4363 37.1534 10.5188 37.0155C10.6007 36.8795 10.7361 36.7801 10.8908 36.7434C11.1924 36.6718 11.5488 36.865 11.606 37.1835C11.6109 37.2148 11.6163 37.2449 11.6211 37.2756C11.6169 37.2503 11.6127 37.2256 11.6084 37.2004C11.8336 38.4441 12.0118 39.6939 12.1972 40.9443C12.3869 42.2188 12.5765 43.4927 12.7914 44.7636C12.8029 44.8286 12.8137 44.8942 12.8245 44.9593C12.8233 44.9526 12.8221 44.9466 12.8209 44.94C12.8402 45.0496 12.8582 45.1591 12.8769 45.2687C12.8727 45.2434 12.8685 45.2187 12.8643 45.1934C12.8775 45.2717 12.8908 45.3494 12.904 45.4276C13.1839 45.2217 13.4597 45.0104 13.742 44.8082C14.1917 44.4867 14.6553 44.1832 15.1231 43.8895L15.1243 43.8889C15.1273 43.887 15.1303 43.8846 15.1339 43.8828C15.1435 43.8768 15.1532 43.8708 15.1634 43.8642C15.1508 43.872 15.1381 43.8798 15.1255 43.8876C15.1291 43.8852 15.1321 43.8834 15.1357 43.881C15.208 43.8353 15.2796 43.7859 15.353 43.7438C15.453 43.6679 15.5692 43.6083 15.6721 43.5439C15.6745 43.5421 15.6775 43.5403 15.6799 43.5391L15.6805 43.5385C15.6992 43.5264 15.7179 43.515 15.7371 43.503C15.7227 43.512 15.7082 43.521 15.6938 43.5306L15.695 43.53C16.2308 43.1929 16.7666 42.8564 17.3144 42.5379C17.8743 42.2122 18.4559 41.9305 19.0483 41.6698C19.6232 41.4181 20.2168 41.2092 20.811 41.01C21.404 40.8107 22.0139 40.665 22.6195 40.5121C23.1583 40.3754 23.6947 40.2297 24.2365 40.1039C24.4984 40.0431 24.7639 39.9961 25.027 39.9414C25.3075 39.883 25.5875 39.8234 25.8686 39.7698C26.1859 39.7084 26.5068 39.8848 26.5832 40.2099C26.6555 40.5145 26.461 40.8637 26.1432 40.9251C25.7723 40.9961 25.4045 41.0774 25.0348 41.1508C24.6465 41.2285 24.2624 41.3152 23.8795 41.4145C23.1126 41.612 22.3432 41.7992 21.5804 42.0123C21.6051 42.0051 21.6292 41.9973 21.6538 41.9895C20.7954 42.2538 19.9591 42.5668 19.1368 42.9256C18.9188 43.0322 18.6991 43.1363 18.4848 43.2501C18.2139 43.3946 17.9484 43.5421 17.6829 43.6962C17.2284 43.9605 16.7853 44.2446 16.3392 44.524C16.3362 44.5258 16.3331 44.5276 16.3301 44.5294C16.3265 44.5318 16.3229 44.5336 16.3193 44.536C16.3175 44.5372 16.3163 44.5378 16.3145 44.539C16.3157 44.5384 16.3175 44.5372 16.3187 44.5366C16.2555 44.5776 16.1923 44.6203 16.1279 44.6576C16.0291 44.7329 15.9141 44.7925 15.8112 44.8557C15.8028 44.8611 15.7943 44.8665 15.7853 44.872L15.7847 44.8726C15.7799 44.8756 15.7745 44.8792 15.7696 44.8822C15.4048 45.1164 15.043 45.3536 14.6842 45.5962C14.3585 45.8153 14.0454 46.0543 13.73 46.2885C13.5638 46.4113 13.3977 46.5348 13.2291 46.6546C13.1015 46.7449 12.9732 46.8442 12.8257 46.9002C12.7342 46.9345 12.6409 46.9532 12.5488 46.9532C12.4121 46.955 12.2797 46.9146 12.1623 46.8285Z" fill="currentColor"/>
<path d="M23.5569 40.7038C23.4762 40.097 23.4371 39.4841 23.3913 38.8736C23.3437 38.2529 23.298 37.6322 23.2504 37.0116C23.1511 35.7214 23.0451 34.4319 22.9663 33.1399C22.9043 32.1285 22.8754 31.1141 22.8435 30.1015C22.8242 29.6572 22.8037 29.2135 22.7748 28.7698C22.7616 28.5573 22.7393 28.3466 22.7194 28.1341C22.7038 27.9727 22.6641 27.8102 22.6641 27.6483C22.6641 27.3244 22.9536 27.0613 23.2715 27.0685C23.5828 27.0757 23.8242 27.3238 23.8494 27.6242C23.8488 27.617 23.8488 27.6103 23.8482 27.6031C23.8609 27.7536 23.8898 27.9023 23.9048 28.0528C23.9211 28.2214 23.9404 28.3894 23.9506 28.5585C23.9771 28.9727 24 29.3863 24.0174 29.8011C24.0475 30.5073 24.0662 31.2134 24.0927 31.9202C24.1541 33.1971 24.2408 34.471 24.3413 35.7455C24.4376 36.9754 24.5273 38.2066 24.6267 39.4365C24.6574 39.8176 24.6875 40.2005 24.738 40.5798C24.7802 40.9007 24.5243 41.1993 24.2095 41.2324C24.1884 41.2348 24.1679 41.2354 24.1475 41.2354C23.8458 41.2354 23.596 41.0048 23.5569 40.7038Z" fill="currentColor"/>
<path d="M10.527 34.9754C10.1983 34.9682 9.94727 34.6912 9.94727 34.3679C9.94727 34.1795 10.0562 34.0049 10.1489 33.8484C10.2284 33.713 10.3103 33.5793 10.3946 33.4463C10.5607 33.1814 10.754 32.9405 10.9526 32.7003C11.0508 32.5817 11.164 32.4692 11.2753 32.3638C11.3915 32.253 11.5071 32.1423 11.6239 32.0327C11.8659 31.8057 12.114 31.5854 12.3728 31.3783C12.6257 31.1754 13.0194 31.2591 13.2024 31.5113C13.2933 31.6366 13.3313 31.7955 13.3084 31.9484C13.2837 32.1104 13.1952 32.2398 13.0694 32.3403C13.0272 32.3734 12.9857 32.4078 12.9448 32.4415C12.5697 32.7654 12.2103 33.1055 11.8653 33.4607C11.7877 33.5546 11.71 33.6479 11.6317 33.7419C11.5625 33.8261 11.5023 33.9212 11.4403 34.0121C11.4469 34.0025 11.4535 33.9935 11.4596 33.9839C11.3373 34.1777 11.2175 34.3722 11.1056 34.5714C11.0255 34.805 10.7937 34.9754 10.5409 34.9754C10.5361 34.9754 10.5312 34.9754 10.527 34.9754Z" fill="currentColor"/>
<path d="M10.798 37.2989C10.4904 37.211 10.2971 36.8732 10.391 36.5638C10.5217 36.1333 10.8739 35.8094 11.2249 35.5506C11.5596 35.3031 11.9413 35.1267 12.3181 34.9534C12.707 34.7739 13.1038 34.6144 13.5162 34.497C13.8268 34.4085 14.1591 34.6331 14.2308 34.9371C14.3078 35.2622 14.1019 35.5638 13.7907 35.6523C13.7696 35.6583 13.7485 35.6644 13.7275 35.6704C13.4295 35.7667 13.1417 35.8865 12.8545 36.0111C12.5854 36.1357 12.3199 36.2646 12.0641 36.4169C11.9684 36.4795 11.8762 36.5445 11.7859 36.615C11.7336 36.6607 11.6836 36.7071 11.6348 36.757C11.6114 36.7841 11.5891 36.8118 11.568 36.8401C11.5572 36.857 11.5469 36.8738 11.5373 36.8907C11.5307 36.9063 11.5241 36.922 11.5168 36.9376C11.4259 37.1688 11.2014 37.3211 10.9588 37.3211C10.9058 37.3211 10.8516 37.3139 10.798 37.2989Z" fill="currentColor"/>
<path d="M38.3954 34.1975C38.3972 34.1999 38.399 34.2017 38.4008 34.2041C38.399 34.2017 38.3966 34.1993 38.3948 34.1969C38.387 34.1884 38.3797 34.18 38.3725 34.1716C38.3647 34.1626 38.3563 34.1541 38.3484 34.1457C38.3165 34.1192 38.284 34.0939 38.2509 34.0698C37.9354 33.8585 37.6037 33.6815 37.2666 33.5069C36.7747 33.2637 36.2829 33.0175 35.7784 32.8008C35.481 32.6725 35.3413 32.3155 35.4695 32.0193C35.5984 31.7219 35.9536 31.5829 36.251 31.7105C36.7633 31.9308 37.263 32.1819 37.7627 32.4287C38.0185 32.5551 38.269 32.693 38.5188 32.8315C38.6368 32.8965 38.7482 32.9742 38.8595 33.05C39.0323 33.1686 39.1937 33.2944 39.3231 33.4612C39.5224 33.7171 39.4453 34.1054 39.1901 34.2908C39.0859 34.3666 38.9673 34.4016 38.8505 34.4016C38.682 34.4004 38.5158 34.3275 38.3954 34.1975Z" fill="currentColor"/>
<path d="M38.7846 35.9458C38.7238 35.9241 38.6624 35.9066 38.6004 35.891C38.3999 35.8549 38.1982 35.8362 37.9959 35.8163C37.3945 35.7736 36.7925 35.7345 36.1893 35.7429C35.866 35.7477 35.6023 35.4503 35.6095 35.1354C35.6167 34.8031 35.8937 34.5599 36.217 34.5557C36.6643 34.5497 37.1104 34.5714 37.5565 34.5972C37.76 34.6093 37.9646 34.6213 38.1681 34.6418C38.4866 34.6737 38.8087 34.6972 39.1127 34.8043C39.2656 34.8579 39.3933 34.9476 39.4721 35.0939C39.545 35.2294 39.5618 35.3913 39.5197 35.5394C39.4498 35.7838 39.2042 35.9741 38.9496 35.9741C38.8942 35.9741 38.8388 35.965 38.7846 35.9458Z" fill="currentColor"/>
<path d="M36.6676 38.4211C36.5947 38.1141 36.7904 37.7703 37.1076 37.7059C37.4634 37.6336 37.818 37.559 38.1726 37.4819C38.3219 37.4494 38.4706 37.4157 38.6199 37.382C38.8156 37.3386 39.0155 37.2881 39.2165 37.2881C39.5404 37.2881 39.8041 37.5777 39.7963 37.8955C39.7891 38.2062 39.5422 38.447 39.2424 38.4729C39.237 38.4729 39.2316 38.4735 39.2262 38.4735C39.2304 38.4735 39.234 38.4735 39.2382 38.4729C39.2292 38.4735 39.2201 38.4741 39.2105 38.4747C39.2015 38.4753 39.1931 38.4765 39.1846 38.4777C38.582 38.5963 37.9842 38.739 37.3822 38.8612C37.3394 38.8696 37.2967 38.8738 37.2545 38.8738C36.9836 38.8738 36.7332 38.6998 36.6676 38.4211Z" fill="currentColor"/>
<path d="M38.5525 32.4971C38.5688 32.5086 38.585 32.5194 38.6013 32.5309C38.4369 32.4213 38.2762 32.3093 38.1215 32.1865C37.9529 32.0523 37.7861 31.9144 37.6151 31.7831C37.2636 31.5128 36.906 31.251 36.5423 30.9975C36.2762 30.8127 36.2552 30.4039 36.4478 30.1631C36.546 30.0397 36.6928 29.959 36.85 29.9428C37.0107 29.9253 37.1522 29.9783 37.2816 30.0686C37.5911 30.2841 37.8981 30.5026 38.1967 30.7326C38.4983 30.965 38.7915 31.2076 39.0961 31.4352C39.1569 31.4755 39.2177 31.5152 39.2773 31.558C39.541 31.7464 39.5663 32.1492 39.3725 32.3924C39.2737 32.5164 39.1268 32.5965 38.9697 32.6133C38.9492 32.6151 38.9294 32.6163 38.9101 32.6163C38.7795 32.6157 38.6603 32.5712 38.5525 32.4971Z" fill="currentColor"/>
<path d="M9.06185 33.2895C9.02513 32.605 9.30567 31.9403 9.57297 31.3209C9.74816 30.9157 9.94261 30.516 10.1858 30.1469C10.3634 29.8772 10.7144 29.7713 11.0004 29.9422C11.2689 30.103 11.3827 30.4871 11.2051 30.7574C11.1039 30.9109 11.0136 31.0686 10.9269 31.2306C10.7385 31.6122 10.5735 32.0012 10.42 32.3979C10.3676 32.5514 10.3207 32.7049 10.2803 32.862C10.2659 32.9355 10.2533 33.0077 10.2442 33.0824C10.243 33.1113 10.2424 33.1402 10.2424 33.1697C10.243 33.1799 10.243 33.1896 10.2436 33.1998C10.2436 33.1932 10.243 33.1872 10.243 33.1805C10.243 33.1884 10.2436 33.1962 10.2436 33.204C10.2448 33.3473 10.2087 33.4827 10.1166 33.5977C10.0179 33.7211 9.87097 33.8018 9.71384 33.8181C9.69457 33.8199 9.67591 33.8211 9.65665 33.8211C9.36647 33.8205 9.07871 33.5935 9.06185 33.2895Z" fill="currentColor"/>
<path d="M10.2599 38.3803C10.1847 38.063 10.3863 37.744 10.7 37.6657C11.0763 37.5718 11.4555 37.4965 11.8372 37.4249C12.2039 37.3563 12.5723 37.2955 12.9431 37.2509C13.264 37.213 13.5626 37.461 13.5957 37.7795C13.6295 38.1046 13.3887 38.3942 13.0672 38.4327C12.8318 38.4604 12.5982 38.4965 12.3646 38.5356C11.8986 38.6181 11.4339 38.7066 10.9745 38.8216C10.9294 38.833 10.8836 38.8384 10.8391 38.8384C10.5718 38.8372 10.3231 38.6476 10.2599 38.3803Z" fill="currentColor"/>
<path d="M17.5021 24.8198C17.1879 24.7295 17.0109 24.3972 17.0952 24.0854C17.2053 23.6778 17.3203 23.272 17.4359 22.8669C17.4931 22.667 17.5503 22.4671 17.6159 22.2697C17.6713 22.1011 17.7243 21.9223 17.8363 21.7814C17.9543 21.6339 18.1312 21.5557 18.3185 21.5557C18.6418 21.5557 18.9055 21.8452 18.8982 22.1631C18.8958 22.2769 18.8609 22.381 18.8031 22.4689C18.7959 22.4858 18.7887 22.5027 18.782 22.5201C18.578 23.1432 18.4076 23.7795 18.236 24.4129C18.1662 24.6724 17.9181 24.8421 17.6599 24.8421C17.6081 24.8421 17.5545 24.8349 17.5021 24.8198Z" fill="currentColor"/>
<path d="M31.9487 22.7645C31.983 22.8452 31.995 22.9307 31.9884 23.0144C31.7157 23.1041 31.4424 23.1938 31.1702 23.2835C31.0962 23.3082 31.0221 23.3341 30.9493 23.3612C30.9035 23.31 30.8656 23.251 30.8379 23.186C30.7031 22.8693 30.5718 22.5514 30.4424 22.233C30.381 22.0812 30.3214 21.9289 30.2624 21.7766C30.2064 21.6303 30.1432 21.4846 30.0962 21.3347C30.0282 21.1156 30.0565 20.8537 30.2419 20.6948C30.3635 20.5906 30.5032 20.5268 30.6657 20.5304C30.8223 20.534 30.9734 20.6003 31.0811 20.7141C31.1365 20.7718 31.1787 20.8423 31.2058 20.9175C31.2064 20.9163 31.2064 20.9145 31.207 20.9133C31.2485 21.0458 31.3039 21.1758 31.3539 21.3058C31.4189 21.475 31.4845 21.6436 31.5525 21.8109C31.6826 22.13 31.8138 22.4473 31.9487 22.7645Z" fill="currentColor"/>
<path d="M3.07635 51.2548C2.76751 51.1169 2.47673 50.9477 2.18957 50.7683C1.88976 50.5817 1.62306 50.3541 1.39248 50.0868C1.23475 49.9038 1.09989 49.7039 0.962632 49.5059C0.873532 49.3776 0.789851 49.2416 0.710986 49.1067C0.580948 48.8846 0.4473 48.663 0.347966 48.4246C0.0361166 47.6739 -0.0499753 46.8642 0.02588 46.0593C0.0890927 45.3958 0.392514 44.5361 1.14565 44.4194C1.46051 44.3706 1.73744 44.4747 1.98427 44.6674C2.11431 44.7691 2.21966 44.9088 2.31839 45.04C2.37559 45.1153 2.42676 45.1966 2.47733 45.2772C2.63988 45.5397 2.79099 45.8094 2.90839 46.0954C2.96799 46.2399 3.02457 46.3819 3.07333 46.5294C3.13293 46.7064 3.1817 46.884 3.22866 47.0653C3.30994 47.3777 3.36111 47.6986 3.4177 48.0164C3.47429 48.3337 3.52004 48.654 3.57061 48.9725C3.58024 49.0248 3.58927 49.0766 3.5989 49.1284C3.65308 49.0718 3.70727 49.0158 3.76145 48.9598C3.98661 48.7262 4.21298 48.4939 4.44054 48.2627C4.87942 47.8172 5.33154 47.3855 5.79088 46.9617C6.25504 46.5337 6.72041 46.1074 7.19481 45.6908C7.45669 45.4597 7.71375 45.2206 7.98466 44.9991C8.27183 44.7649 8.5584 44.5295 8.84556 44.2953C9.08698 44.0979 9.34705 43.9203 9.59749 43.7342C9.84733 43.5488 10.1002 43.3676 10.3524 43.1846C10.6203 42.9895 10.8804 42.7842 11.1429 42.5826C11.3542 42.42 11.5926 42.2912 11.8659 42.367C12.1284 42.4393 12.2958 42.6867 12.2958 42.9534C12.2958 43.1984 12.1296 43.4091 11.9111 43.4934C11.6233 43.6969 11.3524 43.9257 11.067 44.1334C10.8094 44.3212 10.5493 44.506 10.2934 44.6963C10.037 44.8877 9.77087 45.0701 9.52344 45.2724C9.25373 45.4928 8.98342 45.7131 8.71372 45.934C7.74927 46.7847 6.79266 47.6414 5.86012 48.5276C5.38813 48.9755 4.93962 49.4487 4.4881 49.9164C4.38997 50.0182 4.29304 50.1199 4.1943 50.2211C4.14012 50.2771 4.08535 50.3331 4.02936 50.3878C3.99805 50.4191 3.96735 50.4492 3.93544 50.4793C3.91617 50.4974 3.89631 50.5149 3.87584 50.5311C3.91798 50.663 3.91557 50.8093 3.85658 50.9453C3.76145 51.1657 3.5369 51.3029 3.30632 51.3029C3.22926 51.3035 3.151 51.2879 3.07635 51.2548ZM2.45927 49.4902C2.3786 49.0772 2.3208 48.6594 2.25518 48.244C2.22388 48.0682 2.19438 47.893 2.15706 47.7184C2.1113 47.5005 2.05953 47.2868 2.00354 47.0713C1.97223 46.9786 1.94153 46.8852 1.91022 46.7925C1.87711 46.6932 1.83196 46.5969 1.79162 46.5006C1.69048 46.2917 1.58393 46.09 1.46292 45.8913C1.41837 45.8263 1.37382 45.7619 1.32686 45.6992C1.31362 45.7306 1.30098 45.7619 1.28893 45.7944C1.27449 45.8401 1.26184 45.8859 1.2504 45.9322C1.22632 46.052 1.20886 46.1718 1.19622 46.2934C1.18598 46.459 1.18238 46.6234 1.18659 46.7889C1.19562 46.9358 1.21127 47.0803 1.23294 47.226C1.26365 47.3891 1.30157 47.5499 1.34793 47.7094C1.38104 47.8051 1.41596 47.8997 1.45449 47.993C1.54901 48.1898 1.65917 48.3765 1.76934 48.5655C1.92828 48.8147 2.09023 49.0616 2.27445 49.2933C2.33104 49.3584 2.38883 49.421 2.44964 49.4818C2.45265 49.4842 2.45566 49.4872 2.45927 49.4902Z" fill="currentColor"/>
<path d="M40.7379 51.6193C40.7192 51.5712 40.7084 51.5206 40.7036 51.4706C40.5404 51.3207 40.3887 51.1576 40.2376 50.9968C40.0377 50.7837 39.8385 50.5682 39.6476 50.346C39.2262 49.8536 38.8204 49.3503 38.446 48.8211C38.0848 48.3106 37.7326 47.791 37.3485 47.2968C37.0499 46.9127 36.7453 46.5364 36.4364 46.1607C35.9391 45.5738 35.4268 44.997 34.9476 44.3956C34.7953 44.2048 34.643 44.0139 34.4913 43.8225C34.3606 43.6587 34.2432 43.4829 34.1204 43.3138C33.9121 43.0278 33.7171 42.7316 33.4967 42.4547C33.4955 42.4535 33.4949 42.4523 33.4937 42.4517L33.4955 42.4535C33.4835 42.4378 33.4708 42.4228 33.4582 42.4071C33.4726 42.424 33.4871 42.4414 33.5015 42.4589C33.519 42.4745 33.5359 42.4902 33.5533 42.5058L33.5521 42.5052C33.4317 42.3969 33.3486 42.2674 33.3312 42.1031C33.3155 41.949 33.3607 41.7924 33.4576 41.6714C33.6502 41.43 34.0512 41.359 34.292 41.5763C34.457 41.725 34.5846 41.9189 34.7122 42.0989C34.8555 42.3012 34.9988 42.5034 35.1451 42.7045C35.2721 42.8791 35.3967 43.0567 35.5322 43.2259C35.7043 43.442 35.8771 43.6575 36.0493 43.8743C36.8127 44.7761 37.5863 45.6683 38.3111 46.6014C38.6398 47.0247 38.9439 47.4677 39.2539 47.906C39.5898 48.381 39.9378 48.8428 40.3062 49.2925C40.5832 49.6158 40.8625 49.9409 41.1581 50.2491C41.2966 49.9541 41.4332 49.6585 41.5819 49.3683C41.5699 49.3918 41.5585 49.4141 41.5464 49.4376C41.6506 49.2347 41.7547 49.0318 41.8589 48.8289C41.8474 48.8518 41.8354 48.8747 41.8233 48.8982C42.1159 48.3268 42.4513 47.77 42.8191 47.2438C43.0683 46.8874 43.314 46.5117 43.6698 46.2516C43.9316 46.0608 44.2802 45.9837 44.5939 46.0728C44.9641 46.1788 45.2314 46.4955 45.3897 46.832C45.5384 47.1475 45.5854 47.5003 45.5661 47.8458C45.5445 48.2353 45.4114 48.5977 45.2278 48.9373C44.9882 49.3798 44.6204 49.753 44.2519 50.092C44.0033 50.3214 43.751 50.5441 43.4934 50.7632C43.2658 50.9565 43.0316 51.1515 42.7818 51.3147C42.5801 51.4459 42.3778 51.57 42.1647 51.6813C41.9534 51.7921 41.7288 51.8866 41.5037 51.9649C41.4356 51.9884 41.3658 51.9998 41.2972 51.9998C41.057 51.9992 40.8288 51.8601 40.7379 51.6193ZM42.615 49.9499C42.6433 49.927 42.6716 49.9042 42.6999 49.8813C43.0876 49.5508 43.4741 49.2154 43.8251 48.8452C43.9178 48.7416 44.0051 48.6351 44.0876 48.5225C44.1393 48.4436 44.1875 48.363 44.2333 48.2805C44.2627 48.2185 44.2898 48.1565 44.3151 48.0927C44.3284 48.0517 44.3404 48.0108 44.3512 47.9692C44.3639 47.9042 44.3741 47.8392 44.382 47.7736C44.3838 47.7393 44.385 47.7055 44.385 47.6712C44.3813 47.6182 44.3765 47.5659 44.3693 47.5135C44.3627 47.4816 44.3555 47.4497 44.3464 47.4184C44.335 47.3871 44.323 47.3564 44.3121 47.3251C44.3043 47.3094 44.2965 47.2944 44.288 47.2787C44.2682 47.298 44.2483 47.3172 44.229 47.3371C44.0569 47.5418 43.9033 47.7615 43.7504 47.9807C43.5933 48.2221 43.4392 48.4635 43.2905 48.7097C43.149 48.9445 43.0184 49.1847 42.8853 49.4243C42.795 49.5995 42.7047 49.7747 42.615 49.9499Z" fill="currentColor"/>
<path d="M22.3209 27.7204C21.8718 27.5922 21.4341 27.4309 20.9958 27.2713C20.3565 27.0444 19.7117 26.8469 19.0525 26.688C17.9839 26.4718 16.9069 26.3322 15.8214 26.2358C15.8467 26.2382 15.872 26.2406 15.8973 26.2431C15.276 26.2003 14.6547 26.1636 14.0328 26.1413C13.7083 26.1299 13.3844 26.1263 13.0593 26.1233C12.7872 26.1203 12.5151 26.1329 12.2436 26.1395C11.6849 26.169 11.1286 26.2051 10.5712 26.2479C10.0275 26.2894 9.48811 26.3701 8.9493 26.449C8.72896 26.4929 8.50862 26.5368 8.28828 26.5802C8.09382 26.6187 7.90238 26.6807 7.71094 26.7325C7.57247 26.7783 7.4334 26.8222 7.29735 26.8728C7.12637 26.9366 6.9572 27.0034 6.78321 27.0564C6.47377 27.1509 6.13905 26.9155 6.06861 26.6163C6.03309 26.4664 6.05777 26.3057 6.13663 26.1738C6.21911 26.0366 6.34433 25.9547 6.49303 25.9059C6.47617 25.9113 6.45932 25.9162 6.44246 25.9216C6.58815 25.8722 6.73143 25.8162 6.87592 25.7627C7.02462 25.7073 7.17693 25.6609 7.32744 25.6097C7.48457 25.5573 7.64773 25.5212 7.80726 25.4785C7.94272 25.4424 8.07576 25.4129 8.21303 25.3852C8.37979 25.3521 8.54595 25.3189 8.71271 25.2858C8.90415 25.2485 9.10101 25.2274 9.29426 25.1997C9.6332 25.1504 9.97395 25.1167 10.3147 25.0805C10.93 25.0155 11.5494 24.9884 12.1671 24.9559C12.8155 24.9222 13.4675 24.9331 14.1165 24.9565C15.4127 25.0029 16.7046 25.0998 17.9869 25.2931C18.6233 25.3888 19.259 25.5002 19.8797 25.6711C20.4889 25.8379 21.0855 26.042 21.6779 26.2581C21.7225 26.2744 21.7676 26.2906 21.8122 26.3069C22.0879 26.405 22.3661 26.4983 22.6484 26.579C22.9597 26.6675 23.1445 27.0028 23.0554 27.3135C22.9813 27.5723 22.7381 27.7433 22.4798 27.7433C22.4275 27.7427 22.3739 27.7355 22.3209 27.7204Z" fill="currentColor"/>
<path d="M23.9847 27.9814C23.8282 27.9777 23.6771 27.9109 23.5693 27.7977C23.3562 27.575 23.3412 27.1668 23.5886 26.9585C24.311 26.3511 25.2074 26.0362 26.081 25.7141C26.4181 25.5901 26.7571 25.4691 27.0954 25.3493C27.2062 25.3102 27.3187 25.2771 27.4307 25.2427C27.6107 25.1874 27.7895 25.1229 27.9719 25.076C28.2699 25.0001 28.5674 24.9201 28.869 24.8587C29.1989 24.7912 29.5288 24.731 29.8599 24.6726C30.4698 24.5655 31.0838 24.4727 31.6985 24.3957C32.3619 24.312 33.0253 24.235 33.6918 24.1766C34.3384 24.1194 34.9874 24.0911 35.6363 24.0694C36.2372 24.0495 36.8386 24.0363 37.44 24.0363C37.9343 24.0351 38.4346 24.0393 38.9252 24.1061C39.0131 24.1176 39.1004 24.1314 39.1883 24.1458C39.5074 24.1988 39.7349 24.4998 39.6862 24.8219C39.638 25.1386 39.3286 25.3728 39.0101 25.3198C38.8626 25.2957 38.7139 25.2735 38.5652 25.2584C38.083 25.2235 37.5995 25.2199 37.1161 25.2253C36.5177 25.2319 35.9181 25.2469 35.3197 25.2668C34.4654 25.3053 33.6135 25.365 32.7635 25.4631C31.8791 25.5654 30.9995 25.6882 30.1212 25.8315C29.8129 25.8857 29.5059 25.9405 29.1995 26.0037C28.8816 26.0687 28.5692 26.15 28.2543 26.2307C28.0376 26.2975 27.8208 26.3637 27.6041 26.4305C27.3639 26.5046 27.1285 26.5991 26.8913 26.6822C26.6662 26.7623 26.4416 26.8453 26.2188 26.9308C25.8871 27.0578 25.5554 27.1813 25.2303 27.3251C25.0624 27.4052 24.8986 27.4913 24.7391 27.5864C24.6084 27.6725 24.4814 27.7628 24.3586 27.8597C24.3712 27.8495 24.3839 27.8387 24.3965 27.8279C24.2803 27.9224 24.1509 27.982 23.998 27.982C23.9938 27.9814 23.9895 27.9814 23.9847 27.9814Z" fill="currentColor"/>
<path d="M23.2864 45.4664C23.0088 45.4592 22.7295 45.4412 22.4532 45.4189C22.1239 45.3924 21.794 45.3683 21.4652 45.337C20.8072 45.2738 20.1492 45.2058 19.4948 45.1094C19.0409 45.0426 18.5845 44.9722 18.1378 44.8638C17.888 44.8036 17.64 44.7422 17.3931 44.6712C17.1734 44.608 16.9597 44.5297 16.7411 44.4623C16.454 44.4207 16.2312 44.1528 16.2385 43.8608C16.2457 43.5321 16.5226 43.2811 16.8459 43.2811C16.988 43.2811 17.1234 43.3377 17.2553 43.3828C17.3775 43.425 17.5009 43.4659 17.6249 43.5014C17.9235 43.5875 18.2221 43.6628 18.5243 43.7356C19.0319 43.8319 19.5388 43.9295 20.0529 43.9897C20.6236 44.0571 21.1943 44.1185 21.7663 44.1739C22.3502 44.2208 22.9348 44.269 23.5206 44.2847C23.8589 44.2937 24.1948 44.2979 24.5332 44.2961C24.8137 44.2955 25.0937 44.2847 25.3742 44.275C25.8155 44.2479 26.2568 44.2227 26.6956 44.1739C27.1761 44.1203 27.6535 44.0577 28.1309 43.9842C28.403 43.9355 28.6757 43.8867 28.9442 43.8211C29.2518 43.7458 29.5559 43.6628 29.8599 43.5725C30.3794 43.4057 30.8906 43.2221 31.3896 42.9999C31.622 42.8892 31.849 42.7712 32.0693 42.6381C32.1982 42.555 32.3228 42.4678 32.442 42.372C32.5359 42.2902 32.6262 42.2041 32.7117 42.1132C32.746 42.074 32.7797 42.0349 32.8134 41.9952C33.0217 41.7477 33.3902 41.6947 33.6478 41.9006C33.8953 42.0981 33.9513 42.4876 33.7424 42.7351C33.6057 42.8982 33.4606 43.0547 33.3017 43.1968C33.0801 43.3937 32.8375 43.5598 32.5847 43.7133C32.0808 44.0186 31.5263 44.254 30.9724 44.4508C30.3837 44.6597 29.7834 44.8578 29.1724 44.9884C28.5409 45.1239 27.9039 45.2359 27.2627 45.3069C26.6198 45.3786 25.9744 45.4424 25.3278 45.4634C24.9793 45.4755 24.6313 45.4845 24.2827 45.4851C24.2629 45.4851 24.243 45.4851 24.2231 45.4851C23.9107 45.4845 23.5988 45.4743 23.2864 45.4664Z" fill="currentColor"/>
</svg>
