<svg width="20" height="21" viewBox="0 0 20 21" fill="none" xmlns="http://www.w3.org/2000/svg">
<g clip-path="url(#clip0_1423_270970)">
<path d="M10 0.5C4.47719 0.5 0 4.97719 0 10.5C0 16.0231 4.47719 20.5 10 20.5C15.5231 20.5 20 16.0231 20 10.5C20 4.97719 15.5231 0.5 10 0.5ZM10 19.2697C5.17531 19.2697 1.25 15.3247 1.25 10.5C1.25 5.67527 5.17531 1.74996 10 1.74996C14.8247 1.74996 18.75 5.67529 18.75 10.5C18.75 15.3246 14.8247 19.2697 10 19.2697ZM13.9909 6.84094L8.12373 12.745L5.48154 10.1028C5.23748 9.85875 4.84186 9.85875 4.59748 10.1028C4.35342 10.3469 4.35342 10.7425 4.59748 10.9866L7.69092 14.0803C7.93498 14.3241 8.33061 14.3241 8.57498 14.0803C8.60311 14.0522 8.62719 14.0215 8.64906 13.9897L14.8753 7.72498C15.1191 7.48092 15.1191 7.08529 14.8753 6.84094C14.6309 6.59688 14.2353 6.59688 13.9909 6.84094Z" fill="#053B4A"/>
</g>
<defs>
<clipPath id="clip0_1423_270970">
<rect width="20" height="20" fill="white" transform="translate(0 0.5)"/>
</clipPath>
</defs>
</svg>
