<svg width="187" height="102" viewBox="0 0 187 102" fill="none" xmlns="http://www.w3.org/2000/svg">
<path d="M42.2189 33.349C40.7063 33.1752 39.2195 32.8352 37.7991 32.283C35.0499 31.2149 32.6257 29.3426 30.7028 27.1322C28.7146 24.8454 27.3768 22.0562 26.8034 19.0942C26.5083 17.568 26.5121 15.9919 26.6876 14.4546C26.8584 12.9637 27.2252 11.5198 27.7969 10.1326C28.3504 8.79007 29.0926 7.53103 29.9828 6.38205C30.8775 5.22863 31.9417 4.2462 33.1725 3.45354C34.7063 2.46535 36.4057 1.7134 38.1627 1.21394C39.0786 0.954629 40.0131 0.770535 40.9537 0.624924C41.9151 0.475877 42.8835 0.367108 43.8553 0.318256C44.4276 0.289944 45.0006 0.290245 45.5736 0.311106C46.0027 0.326524 46.4354 0.332132 46.8635 0.365422C47.6047 0.423179 48.342 0.530971 49.061 0.71731C49.2543 0.765997 49.4457 0.817354 49.6354 0.876744C49.7405 0.910532 49.8429 0.953244 49.9499 0.98615C50.25 1.08026 50.4705 1.31686 50.572 1.59736C50.6961 1.63753 50.8192 1.67859 50.9423 1.71966C51.9532 2.05994 52.9259 2.52244 53.8687 3.01782C54.8448 3.53041 55.7775 4.11064 56.6722 4.75498C57.5166 5.36412 58.3356 6.03745 59.0734 6.77281C59.4768 7.17603 59.8992 7.57224 60.2656 8.00918C60.4475 8.22675 60.6293 8.44342 60.8112 8.6601C61.2591 9.19414 61.6313 9.78936 61.9728 10.3942C62.1552 10.7155 62.3105 11.0518 62.4587 11.3907C62.5774 11.6641 62.696 11.9457 62.7859 12.2305C62.8819 12.5369 62.978 12.8433 63.0741 13.1497C63.1613 13.4283 63.2133 13.7219 63.2798 14.0057C63.341 14.2654 63.3805 14.5249 63.4219 14.788C63.5063 15.3294 63.5593 15.8733 63.614 16.4172C63.6862 17.1275 63.6467 17.8505 63.5678 18.5571C63.5315 18.8894 63.4683 19.2206 63.4176 19.5519C63.3845 19.7645 63.3342 19.9742 63.2876 20.1849C63.2044 20.5615 63.1185 20.9346 63.0183 21.3067C62.6308 22.7407 61.9972 24.0863 61.2074 25.3415C60.4148 26.6029 59.458 27.7451 58.3524 28.746C57.2513 29.7416 55.9836 30.5394 54.6355 31.1614C53.9732 31.4672 53.2841 31.7074 52.6013 31.9621C52.3472 32.0569 52.0816 32.1293 51.8231 32.2125C51.6132 32.2799 51.4043 32.3518 51.1908 32.4102C50.6379 32.5629 50.0876 32.7246 49.5267 32.8504C48.6272 33.0517 47.735 33.2469 46.817 33.356C46.0259 33.4498 45.2322 33.4919 44.4396 33.4865C43.7001 33.4806 42.959 33.4345 42.2189 33.349ZM44.4152 31.4883C45.1367 31.4887 45.8557 31.448 46.573 31.3679C47.1634 31.2915 47.7486 31.1926 48.3293 31.0633C48.694 30.9818 49.0577 30.8993 49.4224 30.8177C50.0464 30.6459 50.6678 30.4748 51.2847 30.2761C51.5567 30.1885 51.8314 30.1072 52.0999 30.0071C52.4485 29.8763 52.7989 29.7464 53.1476 29.6164C53.7188 29.3771 54.2766 29.1145 54.8192 28.8178C55.3087 28.5359 55.7768 28.228 56.2296 27.8922C56.6743 27.5466 57.0958 27.1776 57.5011 26.7879C57.9155 26.3714 58.2994 25.9306 58.6627 25.4682C58.6356 25.5038 58.6085 25.5384 58.5823 25.574C59.0459 24.9702 59.471 24.341 59.8566 23.6848C60.1318 23.194 60.3783 22.6915 60.5978 22.1736C60.8048 21.6529 60.9785 21.1231 61.1279 20.5833C61.2328 20.1763 61.3153 19.763 61.4058 19.3524C61.478 19.0283 61.5134 18.6924 61.5622 18.3638C61.5976 18.0315 61.6258 17.7 61.6332 17.3657C61.6264 16.7515 61.5629 16.1468 61.5003 15.5367C61.4528 15.2324 61.4053 14.929 61.3578 14.6247C61.3349 14.4789 61.2886 14.332 61.254 14.1887C61.2186 14.0392 61.184 13.8905 61.1486 13.7419C61.0044 13.2823 60.8648 12.8245 60.6901 12.3746C60.5152 11.9604 60.3214 11.5586 60.1015 11.1656C59.8761 10.7877 59.6318 10.4249 59.3676 10.0717C58.9942 9.59541 58.5873 9.15104 58.1759 8.70753C57.7922 8.325 57.4076 7.94515 56.9986 7.58927C56.5592 7.20547 56.1079 6.84125 55.645 6.48679C55.313 6.24764 54.9782 6.01385 54.638 5.78537C54.3194 5.56956 53.9809 5.37775 53.6479 5.1824C52.8263 4.7236 51.9875 4.30492 51.1225 3.93165C50.1369 3.54147 49.1259 3.2423 48.1031 2.96451C47.8981 2.91128 47.6932 2.85894 47.4882 2.80928C47.2222 2.7449 46.9978 2.58873 46.8528 2.38035C46.6091 2.35992 46.3644 2.34486 46.1188 2.33605C45.759 2.32288 45.3992 2.30972 45.0394 2.29656C44.1352 2.30207 43.2363 2.35499 42.3381 2.45708C41.2571 2.59191 40.1841 2.7697 39.1279 3.03164C38.4705 3.20509 37.8284 3.40994 37.1942 3.65328C36.4446 3.95573 35.7164 4.29945 35.0106 4.6916C34.5157 4.97789 34.0315 5.28125 33.5697 5.61962C33.2206 5.89081 32.8894 6.17911 32.5698 6.48536C32.2005 6.85744 31.8591 7.25115 31.5364 7.66466C31.1432 8.18855 30.7797 8.72962 30.4493 9.29505C30.1668 9.79913 29.9122 10.315 29.6836 10.8445C29.4431 11.4338 29.2359 12.0331 29.0664 12.6461C28.9167 13.2387 28.8049 13.8378 28.7208 14.4424C28.644 15.0686 28.5958 15.6958 28.5846 16.3269C28.5862 16.9008 28.6157 17.4723 28.6802 18.043C28.7521 18.571 28.8555 19.0928 28.9814 19.6113C29.1634 20.3018 29.3868 20.9782 29.6508 21.6425C29.8997 22.2342 30.1766 22.8099 30.4886 23.3708C30.831 23.9586 31.2069 24.5217 31.6143 25.0671C32.0576 25.6387 32.5316 26.1809 33.0381 26.6975C33.6531 27.3042 34.3024 27.8744 34.9861 28.4038C35.5307 28.8116 36.0935 29.19 36.6815 29.5345C37.2167 29.8332 37.7654 30.1006 38.3304 30.3377C38.8946 30.5624 39.4679 30.7567 40.053 30.918C40.7541 31.0943 41.4653 31.2261 42.1811 31.3257C42.922 31.4192 43.6668 31.4752 44.4152 31.4883Z" fill="#F4A672"/>
<path d="M43.8937 16.7998C43.353 16.7612 42.9023 16.2711 42.953 15.7262C43.0573 14.5764 43.1869 13.4285 43.302 12.2797C43.4265 11.0423 43.5384 9.80212 43.6385 8.56186C43.6819 8.01689 44.1629 7.59306 44.7171 7.63172C45.2633 7.67032 45.7022 8.16035 45.6587 8.70532C45.5614 9.91605 45.4524 11.1249 45.3307 12.3337C45.2119 13.5129 45.0795 14.6903 44.9715 15.8696C44.9236 16.3931 44.4878 16.8056 43.9569 16.802C43.937 16.8019 43.9154 16.8017 43.8937 16.7998Z" fill="#F4A672"/>
<path d="M49.1849 18.9318C48.6504 18.8933 48.1843 18.4031 48.2431 17.8582C48.3953 16.4598 48.5475 15.0604 48.7014 13.662C48.7835 12.9203 48.8656 12.1786 48.9495 11.4377C49.0241 10.7757 49.1213 10.1093 49.1508 9.44421C49.1753 8.8973 49.6897 8.47636 50.2296 8.51403C50.7894 8.55362 51.1959 9.04076 51.1714 9.58767C51.1429 10.2241 51.0513 10.8619 50.9804 11.4944C50.8955 12.2433 50.8116 12.9922 50.7286 13.741C50.5736 15.1618 50.4178 16.5817 50.2638 18.0017C50.2068 18.5242 49.7854 18.9377 49.2508 18.9341C49.2291 18.9339 49.2066 18.9329 49.1849 18.9318Z" fill="#F4A672"/>
<path d="M42.3431 26.6252C41.5031 26.2978 40.7656 25.72 40.2338 24.997C39.6052 24.1429 39.2219 23.1555 38.9556 22.1385C38.8242 21.6345 38.7324 21.128 38.674 20.6111C38.633 20.256 38.6387 19.8995 38.6382 19.5438C38.6376 19.1917 38.6533 18.8361 38.6833 18.4851C38.7302 17.9412 39.2032 17.5172 39.7581 17.5567C40.3157 17.5963 40.7207 18.0825 40.6962 18.6274C40.6953 18.6364 40.6944 18.6453 40.6944 18.6542C40.6943 18.656 40.6943 18.6587 40.6934 18.6605C40.6718 18.9284 40.6627 19.1974 40.651 19.4654C40.6524 19.8434 40.66 20.2179 40.6983 20.5953C40.7483 20.9388 40.8164 21.2779 40.8971 21.6163C40.9957 21.9825 41.1104 22.3425 41.2441 22.6973C41.3458 22.9393 41.4584 23.1742 41.5844 23.4047C41.6765 23.5555 41.7732 23.7009 41.8761 23.8437C41.9523 23.938 42.032 24.0297 42.1145 24.1187C42.2176 24.2177 42.3234 24.3114 42.4346 24.4015C42.5325 24.4701 42.6321 24.5351 42.7335 24.5966C42.8386 24.6518 42.9437 24.7034 43.0515 24.7515C43.1683 24.7952 43.2851 24.8344 43.4037 24.871C43.5268 24.9013 43.6509 24.9263 43.7768 24.9477C43.9198 24.9629 44.061 24.9737 44.2049 24.9792C44.3507 24.9757 44.4955 24.9677 44.6413 24.9553C44.816 24.9297 44.9879 24.8969 45.1608 24.8578C45.3751 24.7967 45.585 24.7249 45.7931 24.645C46.0454 24.5359 46.2896 24.416 46.5356 24.2934C46.8187 24.1291 47.0928 23.9567 47.3616 23.7682C47.5655 23.606 47.7622 23.4393 47.9517 23.2601C47.9761 23.2352 48.0014 23.2095 48.0258 23.1846C48.2163 22.9893 48.448 22.8604 48.726 22.8444C48.9888 22.8301 49.2511 22.9194 49.4494 23.0924C49.8476 23.4391 49.9289 24.1153 49.5469 24.5068C49.2562 24.8051 48.9511 25.0774 48.6228 25.3334C48.2872 25.5957 47.9238 25.8131 47.5542 26.0251C46.897 26.4013 46.1781 26.6771 45.4416 26.8526C45.0508 26.9456 44.6476 26.9893 44.2446 26.9866C43.5951 26.9849 42.9441 26.8599 42.3431 26.6252Z" fill="#F4A672"/>
<path d="M58.058 67.235C58.0657 67.8471 58.0591 68.4564 58.0488 69.0684C58.0388 69.6008 57.9865 70.1329 57.8964 70.6575C57.8458 70.957 57.7627 71.2678 57.6356 71.5444C57.4886 71.8637 57.3076 72.1265 57.0437 72.36C56.6995 72.6655 56.2282 72.733 55.7885 72.7847C55.5335 72.8143 55.2767 72.8376 55.0209 72.8627C53.9947 72.9622 52.9667 73.0421 51.938 73.1031C49.8498 73.2259 47.7585 73.2136 45.6663 73.203C43.4111 73.1904 41.1575 73.2083 38.9031 73.2333C38.1447 73.2416 37.3836 73.2517 36.6253 73.2466C36.3551 73.2447 36.084 73.2411 35.8138 73.2348C35.2392 73.2211 34.6665 73.2083 34.0929 73.1758C32.9772 73.1109 31.8382 73.0218 30.8095 72.5531C30.5604 72.4405 30.28 72.2605 30.1096 72.0446C30.0209 71.9312 29.9186 71.8205 29.8569 71.6885C29.797 71.5584 29.7479 71.4372 29.7097 71.2992C29.5816 70.841 29.6365 70.343 29.6472 69.8723C29.658 69.3471 29.6707 68.822 29.6816 68.2968C29.7061 67.2115 29.7298 66.128 29.7543 65.0427C29.8037 62.7862 29.8595 60.5289 29.9179 58.2716C29.973 56.1888 30.0065 54.104 30.0751 52.0222C30.1498 49.7346 30.2489 47.4498 30.3569 45.1642C30.4553 43.0862 30.595 41.0075 30.7446 38.9324C30.9151 36.5739 31.1018 34.2172 31.301 31.8625C31.4815 29.7402 31.6862 27.6208 31.8612 25.4985C32.2155 25.9331 32.5896 26.35 32.9836 26.7508C33.2259 26.9896 33.4736 27.2231 33.7259 27.4494C33.447 30.6689 33.1348 33.8856 32.9019 37.1072C32.5827 41.5292 32.2942 45.9549 32.1488 50.3861C32.0024 54.845 31.9038 59.307 31.8015 63.7689C31.7512 66.0325 31.6981 68.2979 31.6514 70.5624C31.6521 70.6188 31.6546 70.6752 31.6562 70.7316C31.6949 70.7515 31.7326 70.7697 31.7722 70.7869C31.9062 70.8371 32.0403 70.8809 32.177 70.9194C32.4371 70.9811 32.6972 71.0285 32.9619 71.0688C33.9621 71.1901 34.9699 71.2077 35.9758 71.2324C38.1581 71.2417 40.3387 71.2073 42.5211 71.1916C44.6386 71.1773 46.7559 71.2167 48.8743 71.2006C50.0659 71.1907 51.2559 71.137 52.4459 71.0601C53.5387 70.9887 54.6342 70.8995 55.7218 70.7744C55.7389 70.7718 55.7569 70.7693 55.774 70.7658C55.7831 70.7453 55.7922 70.7247 55.8022 70.7042C55.8204 70.6542 55.8376 70.6034 55.8531 70.5525C55.897 70.3684 55.9328 70.1861 55.9605 69.9993C56.0385 69.3278 56.0427 68.6549 56.0532 67.9802C56.0381 66.909 56.0094 65.8404 55.9492 64.7706C55.8873 63.6848 55.8182 62.6015 55.7464 61.5165C55.6011 59.3213 55.4548 57.1253 55.3329 54.9285C55.0883 50.5037 54.9922 46.0735 55.0313 41.6434C55.0528 39.1326 55.1112 36.6239 55.1264 34.113C55.1255 33.3524 55.1192 32.5935 55.0994 31.8337C55.0805 31.0658 55.0354 30.2986 54.9922 29.5314C54.9778 29.2808 54.9643 29.0283 54.9507 28.7777C55.384 28.5211 55.8002 28.2438 56.2038 27.9441C56.4395 27.7614 56.669 27.5714 56.893 27.3752C56.9083 27.6392 56.9227 27.9042 56.938 28.1692C57.0007 29.2721 57.0653 30.3741 57.1091 31.4768C57.1521 32.5455 57.1448 33.6175 57.1392 34.6868C57.1327 35.7409 57.1155 36.7958 57.0983 37.8498C57.0726 39.4926 57.0524 41.1354 57.0394 42.7782C57.0323 47.0681 57.1387 51.3596 57.3965 55.6431C57.5267 57.797 57.6713 59.9483 57.8096 62.1013C57.8822 63.2186 57.9647 64.3359 58.0084 65.4548C58.028 66.0482 58.0502 66.6407 58.058 67.235Z" fill="#F4A672"/>
<path d="M67.9116 57.8738C67.6434 57.7842 67.4584 57.595 67.3232 57.3551C66.2825 55.515 65.2184 53.6856 64.2581 51.8031C63.773 50.8528 63.2925 49.9008 62.839 48.9356C62.3489 47.8904 61.8723 46.8391 61.4029 45.7843C60.5079 43.7751 59.6463 41.7546 58.8516 39.7049C58.0728 37.6966 57.3663 35.6609 56.7031 33.6131C56.5106 33.0157 56.3162 32.4183 56.1327 31.8182C56.0534 31.5599 55.9795 31.3017 55.9102 31.0398C55.7963 30.6139 55.6537 30.1771 55.6625 29.7341C55.6734 29.1864 56.2102 28.7658 56.7399 28.8043C57.0057 28.8231 57.2576 28.9483 57.4326 29.1482C57.6032 29.3426 57.6762 29.5776 57.6798 29.8292C57.6799 29.8104 57.68 29.7916 57.68 29.7719C57.6792 29.7656 57.6783 29.7593 57.6774 29.754C57.6783 29.7584 57.6792 29.762 57.6801 29.7665C57.6801 29.7629 57.6801 29.7602 57.6801 29.7576C57.681 29.7656 57.6818 29.7728 57.6827 29.7809C57.7057 29.9036 57.7305 30.0246 57.7589 30.1457C58.1921 31.7588 58.7245 33.3493 59.2686 34.9291C59.587 35.8523 59.9109 36.7719 60.2456 37.688C60.5392 38.4919 60.8509 39.2888 61.1608 40.0866C62.8003 44.0726 64.5301 48.035 66.5541 51.8454C67.3858 53.412 68.2725 54.9494 69.1457 56.493C69.4152 56.971 69.1444 57.6073 68.6723 57.8315C68.5342 57.8977 68.3827 57.9297 68.2304 57.9287C68.1223 57.9262 68.0142 57.9085 67.9116 57.8738Z" fill="#F4A672"/>
<path d="M66.8248 62.1269C66.2681 62.0061 65.8114 61.6046 65.59 61.092C65.3561 60.5508 65.4383 59.9464 65.6499 59.4154C65.866 58.8754 66.2303 58.4427 66.6529 58.0516C66.9346 57.7908 67.2513 57.5705 67.5599 57.3429C67.8433 57.1331 68.1446 56.9412 68.4449 56.7574C69.199 56.2988 70.0561 55.9865 70.9505 56.0292C71.5004 56.0553 71.9252 56.5648 71.8882 57.1006C71.8511 57.6543 71.3619 58.0539 70.813 58.0279C70.795 58.0269 70.7779 58.0267 70.7608 58.0257C71.0923 58.2004 71.3676 58.473 71.4878 58.8384C71.6312 59.2735 71.5567 59.7359 71.324 60.1247C71.0768 60.5385 70.6978 60.8263 70.3071 61.0998C69.7098 61.5166 69.0749 61.8813 68.365 62.0712C68.0614 62.1523 67.7543 62.1967 67.4456 62.1946C67.2386 62.1941 67.0316 62.1721 66.8248 62.1269ZM67.5102 60.1954C67.5201 60.1946 67.5309 60.1938 67.5409 60.193C67.6309 60.1802 67.7201 60.1647 67.8083 60.1456C67.911 60.1168 68.0111 60.0845 68.1111 60.0485C68.2355 59.9966 68.3563 59.9403 68.4771 59.8785C68.5646 59.8273 68.6503 59.7761 68.7351 59.723C68.646 59.726 68.5568 59.729 68.4668 59.7337C68.3227 59.7551 68.1813 59.7827 68.0372 59.8157C67.9309 59.84 67.8247 59.8438 67.7213 59.8297C67.7167 59.835 67.7122 59.8403 67.7077 59.8465C67.6679 59.8999 67.6308 59.955 67.5964 60.0111C67.5692 60.0618 67.5438 60.1135 67.5203 60.166C67.5175 60.1749 67.5139 60.1856 67.5102 60.1954Z" fill="#F4A672"/>
<path d="M20.5951 40.9795C19.1355 40.7831 17.7597 40.2677 16.479 39.5513C15.2953 38.89 14.2219 38.0483 13.2369 37.1206C13.0003 36.8976 12.7782 36.6605 12.5524 36.4269C12.3956 36.2643 12.2253 36.107 12.0802 35.9346C11.7588 35.5549 11.4265 35.1814 11.1212 34.7875C10.7641 34.3264 10.4078 33.8652 10.0615 33.3952C9.48424 32.6131 8.93045 31.8159 8.37486 31.0187C7.82552 30.2314 7.28069 29.4405 6.75028 28.6399C6.44796 28.1836 6.58059 27.5535 7.03935 27.2549C7.49901 26.9572 8.13338 27.0909 8.43571 27.5464C9.60117 29.3053 10.8135 31.0334 12.0655 32.7331C12.4361 33.2113 12.8067 33.686 13.198 34.1482C13.3843 34.3673 13.5642 34.5898 13.7649 34.7965C14.0005 35.0399 14.2371 35.2843 14.4727 35.5286C14.9477 35.9808 15.4398 36.4098 15.9573 36.8132C16.42 37.1599 16.9009 37.4809 17.3998 37.7743C17.827 38.0119 18.2615 38.2282 18.7122 38.4177C19.0642 38.5558 19.4199 38.6787 19.7837 38.7829C20.1475 38.8755 20.5133 38.9484 20.8844 39.0027C21.1838 39.036 21.4813 39.0558 21.7826 39.0641C22.0604 39.0615 22.3365 39.0455 22.6136 39.0171C22.8781 38.9796 23.139 38.9314 23.3982 38.8689C23.5999 38.8104 23.797 38.7448 23.9933 38.6721C24.2266 38.5737 24.4545 38.4672 24.6779 38.3491C24.9888 38.1683 25.2862 37.9713 25.5765 37.759C25.92 37.4909 26.2466 37.2057 26.5597 36.9044C26.9378 36.5196 27.2899 36.1168 27.6232 35.6933C28 35.196 28.357 34.6817 28.67 34.1421C28.8465 33.838 29.0238 33.5331 29.2002 33.2281C29.4121 32.8128 29.6249 32.3974 29.8368 31.9812C30.0414 31.58 30.2129 31.159 30.3987 30.7488C30.5692 30.3296 30.7406 29.9104 30.8977 29.4857C30.9794 29.264 31.0611 29.0424 31.141 28.8207C31.2818 28.4316 31.3948 28.0049 31.6621 27.6827C32.0098 27.2638 32.6816 27.2388 33.085 27.5914C33.2823 27.7641 33.4243 28.0257 33.4306 28.2908C33.4352 28.4934 33.3833 28.6868 33.2874 28.8521C33.2765 28.8744 33.2657 28.8957 33.2557 28.918C33.0506 29.4449 32.8823 29.9864 32.67 30.5098C32.4641 31.0154 32.2627 31.5209 32.037 32.0183C31.9111 32.295 31.7842 32.5726 31.6582 32.8494C31.5459 33.0949 31.4119 33.3314 31.2897 33.5716C31.1765 33.7948 31.0678 34.0199 30.9429 34.2359C30.7729 34.5275 30.6037 34.8209 30.4336 35.1125C29.8672 36.0869 29.203 37.0061 28.4456 37.8427C27.4761 38.9134 26.3083 39.8444 24.9771 40.4325C23.9729 40.8764 22.8734 41.0698 21.7755 41.0624C21.3798 41.0606 20.9852 41.0321 20.5951 40.9795Z" fill="#F4A672"/>
<path d="M10.4262 33.7902C10.3978 33.6458 10.402 33.4945 10.3998 33.3485C10.3977 33.1613 10.402 32.9724 10.4036 32.7853C10.4066 32.4334 10.4124 32.0806 10.4164 31.7287C10.4242 31.0535 10.4311 30.3792 10.4398 29.705C10.4557 28.2759 10.4726 26.8468 10.4966 25.4186C10.5058 24.8715 11.0474 24.4507 11.5784 24.4883C11.8452 24.5071 12.099 24.6324 12.2738 24.8324C12.4567 25.0396 12.5255 25.2917 12.5218 25.5612C12.4801 28.1346 12.4484 30.708 12.4266 33.2816C12.4267 33.2538 12.4277 33.2261 12.4278 33.1983C12.4283 33.2932 12.4253 33.3881 12.4313 33.4831C12.5 33.9985 12.1327 34.4975 11.6149 34.5934C11.5515 34.6055 11.4882 34.6105 11.4258 34.61C10.949 34.6059 10.5223 34.2646 10.4262 33.7902Z" fill="#F4A672"/>
<path d="M10.4233 35.1059C10.4162 35.1023 10.4081 35.0996 10.4009 35.0968C9.71487 34.8228 9.01976 34.5728 8.3301 34.3085C7.61888 34.0361 6.90948 33.7592 6.19826 33.4877C4.80007 32.9528 3.40279 32.4126 1.99552 31.9035C1.47823 31.7162 1.18346 31.1585 1.36067 30.6342C1.53242 30.1269 2.12249 29.8222 2.63888 30.0086C4.05603 30.5213 5.46319 31.0625 6.87035 31.6037C7.64891 31.9024 8.42567 32.2038 9.20424 32.5017C9.90558 32.7696 10.6169 33.0188 11.31 33.3099C11.8164 33.5238 12.0048 34.1808 11.7738 34.6494C11.6551 34.8903 11.4387 35.0771 11.1821 35.1592C11.0813 35.1915 10.9805 35.206 10.8798 35.2054C10.7242 35.2052 10.5724 35.1685 10.4233 35.1059Z" fill="#F4A672"/>
<path d="M12.0339 35.8203C11.5389 35.5789 11.3295 34.9673 11.5698 34.4768C11.7266 34.1576 11.9517 33.8674 12.149 33.5717C12.3761 33.2323 12.6005 32.8894 12.8213 32.5473C13.2448 31.8916 13.6593 31.2305 14.064 30.5631C14.3482 30.0961 15.0191 29.9906 15.4627 30.2853C15.9358 30.5981 16.0309 31.2098 15.7475 31.6768C15.3655 32.3059 14.9763 32.9314 14.5763 33.5496C14.379 33.8552 14.1836 34.1608 13.9809 34.4636C13.7836 34.7602 13.5729 35.0514 13.3873 35.3561C13.3864 35.3588 13.3846 35.3615 13.3837 35.3641C13.2106 35.7182 12.8417 35.9242 12.4647 35.9216C12.3189 35.9197 12.1714 35.8874 12.0339 35.8203Z" fill="#F4A672"/>
<path d="M1.52307 36.7073C1.32054 36.5321 1.1956 36.2812 1.17946 36.0169C1.14893 35.5006 1.57511 34.9644 2.12611 34.9672C3.68294 34.975 5.24265 34.9305 6.79791 34.8762C7.61239 34.848 8.42512 34.81 9.23792 34.7516C9.70275 34.7193 10.1685 34.686 10.6333 34.6528C11.0379 34.6236 11.448 34.5847 11.8542 34.6034C12.4033 34.6292 12.8285 35.1348 12.7915 35.6666C12.7536 36.2161 12.2659 36.6136 11.7168 36.5877C11.7123 36.5877 11.7078 36.5877 11.7042 36.5868C10.9032 36.608 10.103 36.6842 9.30455 36.7418C8.48996 36.7993 7.67546 36.8346 6.86007 36.8637C5.32459 36.9181 3.78375 36.961 2.24669 36.9533C1.97793 36.9515 1.73007 36.8869 1.52307 36.7073Z" fill="#F4A672"/>
<path d="M30.1041 60.2604C29.8691 59.8816 29.8834 59.4012 30.1875 59.0613C30.349 58.8799 30.5732 58.7668 30.8 58.6845C31.1149 58.5694 31.4387 58.5116 31.7722 58.475C32.3684 58.4085 32.9706 58.3922 33.5701 58.3689C34.656 58.3276 35.7427 58.2961 36.8294 58.2575C39.0136 58.1795 41.1978 58.1217 43.382 58.0543C45.5239 57.9875 47.6634 57.8536 49.8071 57.8106C50.8731 57.7895 51.9399 57.7772 53.0076 57.7728C53.9882 57.7679 54.9696 57.7815 55.9502 57.7572C56.0293 57.7551 56.1084 57.7529 56.1884 57.7499C56.7367 57.7289 57.2215 58.1359 57.2546 58.6808C57.2868 59.2117 56.8582 59.7034 56.309 59.7244C55.3624 59.7613 54.4116 59.7426 53.4643 59.746C52.4227 59.7497 51.3801 59.7568 50.3375 59.7781C48.1004 59.8231 45.8648 59.9369 43.6302 60.0252C41.7147 60.1006 39.7975 60.131 37.8821 60.1994C36.9176 60.2344 35.9522 60.2703 34.9868 60.3009C33.9837 60.333 32.9699 60.3359 31.971 60.4421C31.8487 60.4589 31.7282 60.4793 31.6068 60.504C31.5825 60.5109 31.5591 60.5187 31.5358 60.5265C31.524 60.5343 31.5123 60.5422 31.5006 60.55C31.3349 60.6565 31.1388 60.7081 30.9437 60.7068C30.613 60.7028 30.2846 60.5499 30.1041 60.2604Z" fill="#F4A672"/>
<path d="M43.6838 58.03C43.6779 58.1589 43.6729 58.2869 43.667 58.4159C43.6253 59.4571 43.5863 60.4984 43.5445 61.5397C43.458 63.736 43.3705 65.9323 43.2739 68.1294C43.1999 69.8296 43.1233 71.5289 43.0475 73.23C42.37 73.2317 41.6917 73.2361 41.0142 73.2423C41.1549 70.0926 41.2947 66.9428 41.4227 63.7922C41.4842 62.2889 41.5421 60.7865 41.5999 59.2832C41.6149 58.8875 41.6299 58.4899 41.6458 58.0942C42.2246 58.0766 42.8025 58.0599 43.3813 58.0414C43.4827 58.0367 43.5833 58.0338 43.6838 58.03Z" fill="#F4A672"/>
<path d="M30.4641 96.7518C29.9423 96.6524 29.4507 96.4199 29.0226 96.1118C28.2076 95.5235 27.56 94.5381 27.7089 93.5033C27.7468 93.2395 27.8233 93.0073 27.9441 92.7691C27.9904 92.679 28.0457 92.5952 28.1091 92.5169C28.1916 92.4011 28.2967 92.2747 28.4106 92.1895C28.6149 92.0351 28.8138 91.8932 29.0585 91.8045C29.361 91.6955 29.666 91.6412 29.9872 91.6138C30.2163 91.5939 30.4543 91.6098 30.6833 91.6293C30.9384 91.6498 31.2016 91.69 31.4503 91.7526C31.6972 91.8142 31.9459 91.8732 32.19 91.9492C32.6611 92.0956 33.1195 92.2661 33.577 92.4527C33.7967 92.5419 34.011 92.6418 34.2243 92.7435C34.276 91.9167 34.296 91.0861 34.3323 90.2601C34.3803 89.1952 34.4264 88.1293 34.4735 87.0653C34.5717 84.7904 34.6654 82.5164 34.7528 80.2424C34.7955 79.1452 34.8309 78.0479 34.8655 76.9507C34.8827 76.411 34.8964 75.8722 34.9118 75.3316C34.9191 75.0551 34.9264 74.7776 34.9364 74.5011C34.9473 74.2183 34.9385 73.9157 34.9972 73.6368C35.1127 73.0888 35.6396 72.7602 36.1867 72.8517C36.723 72.9412 37.0754 73.4959 36.9852 74.0118C36.932 74.5253 36.94 75.0508 36.9265 75.5664C36.9121 76.0756 36.8976 76.5849 36.8832 77.0941C36.8524 78.1502 36.8153 79.2063 36.7755 80.2623C36.6881 82.5256 36.5945 84.7898 36.4972 87.0521C36.4312 88.6057 36.3617 90.1575 36.2922 91.7101C36.2746 92.0994 36.257 92.4896 36.2394 92.8789C36.2178 93.3594 36.2142 93.8866 36.0205 94.332C35.8914 94.6328 35.6143 94.9488 35.2812 95.045C35.2256 95.2075 35.1295 95.3582 34.9938 95.4799C34.6609 95.7784 34.2794 96.022 33.8766 96.2162C33.2849 96.5023 32.65 96.7432 31.9906 96.8059C31.7741 96.8268 31.5604 96.837 31.3484 96.8356C31.0536 96.8336 30.7615 96.8075 30.4641 96.7518ZM31.3465 94.8358C31.5034 94.8306 31.6586 94.82 31.8146 94.8058C31.9193 94.7904 32.0213 94.7714 32.1232 94.7488C32.2695 94.7033 32.4122 94.6523 32.5548 94.5995C32.7102 94.5352 32.8619 94.4674 33.0128 94.3941C32.9723 94.375 32.9317 94.3559 32.8903 94.3377C32.4095 94.1447 31.9285 93.9714 31.434 93.8168C31.1682 93.7496 30.9042 93.6861 30.632 93.6431C30.5157 93.6306 30.4003 93.6218 30.284 93.6156C30.1857 93.6176 30.0883 93.6215 29.989 93.6297C29.9214 93.64 29.8546 93.6539 29.7887 93.6714L29.786 93.6731C29.8104 93.667 29.8347 93.6609 29.8591 93.6548C29.8347 93.6636 29.8094 93.6724 29.7851 93.6812C29.7742 93.6865 29.7643 93.6918 29.7534 93.6971L29.7516 93.698C29.7462 93.7033 29.7408 93.7086 29.7362 93.714C29.7317 93.7193 29.7281 93.7256 29.7236 93.7309C29.7217 93.7354 29.719 93.7389 29.7172 93.7434C29.7154 93.7487 29.7136 93.7541 29.7117 93.7595C29.7117 93.7613 29.7117 93.763 29.7108 93.7648C29.7107 93.7845 29.7116 93.8042 29.7115 93.8239C29.7168 93.8571 29.7239 93.8902 29.7319 93.9234C29.7328 93.9252 29.7337 93.927 29.7346 93.9297C29.731 93.9145 29.7275 93.9001 29.7239 93.8849C29.7346 93.9154 29.7453 93.9459 29.7552 93.9764C29.7659 93.9997 29.7775 94.0231 29.7892 94.0456C29.8143 94.086 29.8412 94.1265 29.869 94.1651C29.9031 94.2066 29.9382 94.2471 29.975 94.2867C30.0469 94.3543 30.1197 94.4193 30.1961 94.4825C30.2708 94.534 30.3464 94.5828 30.4247 94.6299C30.4652 94.6508 30.5057 94.6707 30.548 94.6889C30.6165 94.7145 30.6867 94.7382 30.7579 94.7593C30.8588 94.7823 30.9597 94.8018 31.0616 94.8186C31.158 94.8273 31.2518 94.8324 31.3465 94.8358Z" fill="#F4A672"/>
<path d="M48.3438 96.4383C47.7992 96.346 47.443 95.7796 47.5477 95.2557C47.5542 95.2217 47.5633 95.1895 47.5724 95.1574C47.5411 95.0882 47.5152 95.0155 47.4956 94.9402C47.4101 94.612 47.4195 94.2602 47.4189 93.9236C47.4144 92.8904 47.4154 91.8573 47.4172 90.8242C47.4212 88.6935 47.4802 86.5641 47.5391 84.4347C47.595 82.4056 47.6509 80.3782 47.7041 78.349C47.7313 77.291 47.7603 76.233 47.7893 75.175C47.8028 74.6953 47.8135 74.2101 47.8468 73.7314C47.8677 73.4397 47.8877 73.1479 47.9085 72.8562C47.9209 72.6746 47.9396 72.4921 47.9664 72.3114C47.996 72.1164 48.0211 71.9035 48.1173 71.7269C48.378 71.2453 48.9607 71.0209 49.4705 71.2687C49.9191 71.4875 50.1634 72.0505 49.9822 72.5148C49.9767 72.5443 49.9712 72.5747 49.9665 72.6051C49.8372 73.7171 49.8224 74.8459 49.7913 75.9638C49.7614 77.0424 49.7332 78.1201 49.705 79.1987C49.6464 81.4695 49.5815 83.7404 49.5203 86.0103C49.4776 87.6054 49.4485 89.1996 49.4375 90.7949C49.4364 91.3454 49.4363 91.896 49.437 92.4475C49.4823 92.4075 49.5284 92.3684 49.5746 92.3294C49.7882 92.1473 50.0197 91.9859 50.245 91.8191C50.6891 91.4891 51.2007 91.2472 51.7129 91.0466C52.2523 90.8345 52.8408 90.7749 53.4155 90.7922C53.9946 90.8086 54.5489 90.9995 55.0377 91.3018C55.3033 91.4665 55.5018 91.715 55.6868 91.9597C55.7838 92.0866 55.8527 92.2536 55.9144 92.399C55.9717 92.5328 56.0235 92.6791 56.0455 92.8234C56.1241 93.3145 56.0926 93.8094 55.8834 94.269C55.6333 94.8206 55.2402 95.2682 54.7589 95.6356C54.2568 96.0181 53.6812 96.2756 53.0742 96.4479C52.5396 96.5992 51.9609 96.683 51.4043 96.681C51.379 96.6808 51.3537 96.6807 51.3294 96.6805C50.3315 96.6738 49.3285 96.6061 48.3438 96.4383ZM51.0405 94.675C51.3031 94.675 51.563 94.6695 51.8256 94.6445C52.0486 94.6146 52.2671 94.5749 52.4865 94.5245C52.6265 94.4843 52.7629 94.4395 52.9002 94.3894C53.0285 94.3339 53.1514 94.2738 53.2743 94.2093C53.3476 94.1659 53.419 94.119 53.4896 94.0702C53.5909 93.9912 53.6859 93.9095 53.7792 93.8224C53.8172 93.7824 53.8543 93.7405 53.8897 93.6969C53.9196 93.6523 53.9504 93.6078 53.9804 93.5614C53.9677 93.5846 53.9541 93.6078 53.9404 93.631C53.925 93.6515 53.9096 93.6711 53.8942 93.6916C53.9087 93.6729 53.9232 93.6551 53.9377 93.6364C53.9305 93.6497 53.9223 93.6622 53.915 93.6756C53.925 93.6596 53.935 93.6435 53.9441 93.6275C53.9531 93.6159 53.9613 93.6043 53.9704 93.5927C53.9631 93.6025 53.9549 93.6123 53.9477 93.6221C53.9758 93.573 54.0022 93.5231 54.0258 93.4713C54.0359 93.441 54.0468 93.4097 54.0568 93.3793C54.0605 93.3615 54.0642 93.3436 54.0678 93.3248C54.0688 93.3123 54.0688 93.2988 54.0689 93.2863C54.068 93.272 54.0672 93.2576 54.0654 93.2424C54.0637 93.2335 54.0628 93.2236 54.061 93.2146C54.0557 93.1949 54.0503 93.1752 54.045 93.1563C54.036 93.1357 54.0271 93.1141 54.0181 93.0935C54.0397 93.1312 54.0612 93.169 54.0836 93.2076C54.0827 93.2175 54.0808 93.2273 54.0799 93.2371C54.0799 93.238 54.0808 93.2389 54.0808 93.2389C54.0817 93.2282 54.0836 93.2184 54.0845 93.2076C54.0845 93.204 54.0854 93.2014 54.0854 93.1987C54.0854 93.2014 54.0845 93.2049 54.0845 93.2076C54.0316 93.1025 53.9661 93.0045 53.8879 92.9144C53.9167 92.9504 53.9436 92.9873 53.9715 93.0233C53.9616 93.0134 53.9517 93.0035 53.9418 92.9936C53.9283 92.9828 53.9139 92.971 53.9004 92.9602C53.8833 92.9493 53.8662 92.9394 53.8491 92.9285C53.8194 92.914 53.7897 92.9003 53.7608 92.8858C53.7239 92.8722 53.686 92.8594 53.6482 92.8484C53.5968 92.8373 53.5454 92.8271 53.494 92.816C53.3975 92.8055 53.301 92.7977 53.2036 92.7925C53.1061 92.7955 53.0096 92.8011 52.913 92.8103C52.8155 92.8257 52.7198 92.8448 52.6232 92.8665C52.5085 92.9006 52.3965 92.9384 52.2853 92.9806C52.1227 93.052 51.9645 93.1298 51.809 93.2137C51.5287 93.3811 51.2682 93.5664 51.0077 93.7589C50.7398 93.9881 50.4828 94.2209 50.2293 94.4645C50.1804 94.517 50.1315 94.5686 50.0835 94.6211C50.401 94.6438 50.7212 94.6612 51.0405 94.675Z" fill="#F4A672"/>
<path d="M143.275 35.5932C140.232 35.2383 137.217 34.2516 134.607 32.642C133.346 31.8647 132.199 30.888 131.255 29.7472C130.322 28.6191 129.66 27.2801 129.215 25.8951C128.768 24.5048 128.653 23.0434 128.773 21.5961C128.9 20.0657 129.259 18.5503 129.773 17.1066C130.26 15.7369 130.913 14.4327 131.741 13.2351C132.154 12.639 132.616 12.0736 133.086 11.5208C133.594 10.9235 134.144 10.3623 134.713 9.8227C135.812 8.78339 137.041 7.86206 138.353 7.10309C139.655 6.34941 141.055 5.78769 142.504 5.37647C143.954 4.96526 145.447 4.71971 146.956 4.67181C147.646 4.64967 148.37 4.66976 149.071 4.78892C149.113 4.79099 149.154 4.79574 149.196 4.80228C150.251 4.97926 151.303 5.17498 152.345 5.4198C153.419 5.6711 154.471 6.05007 155.484 6.4842C156.498 6.91923 157.47 7.44069 158.371 8.07697C159.244 8.6934 160.043 9.4309 160.729 10.2481C161.08 10.6652 161.432 11.1047 161.706 11.5776C161.995 12.0766 162.264 12.5763 162.504 13.0982C162.951 14.0702 163.346 15.0802 163.63 16.1119C163.779 16.6519 163.912 17.1919 164.012 17.7432C164.113 18.2963 164.171 18.8544 164.218 19.4143C164.264 19.9626 164.25 20.5122 164.232 21.061C164.215 21.5927 164.118 22.1257 164.037 22.6499C163.995 22.9186 163.929 23.1926 163.856 23.4549C163.788 23.694 163.731 23.9386 163.651 24.174C163.475 24.694 163.298 25.2157 163.069 25.7138C162.96 25.9491 162.86 26.1888 162.738 26.416C162.549 26.7669 162.362 27.1169 162.157 27.4588C161.816 28.0259 161.412 28.5541 160.97 29.0463C160.706 29.3395 160.415 29.6084 160.132 29.8845C159.759 30.2476 159.346 30.5701 158.933 30.8847C158.514 31.2054 158.084 31.5207 157.631 31.793C156.675 32.3684 155.701 32.9214 154.682 33.3856C154.166 33.6208 153.651 33.856 153.128 34.0741C152.882 34.177 152.637 34.2889 152.385 34.3793C152.073 34.4925 151.76 34.6048 151.448 34.7171C150.287 35.1347 149.069 35.4 147.847 35.5669C147.029 35.6776 146.206 35.7275 145.384 35.7219C144.681 35.7198 143.977 35.6748 143.275 35.5932ZM145.402 33.7269C146.058 33.7233 146.709 33.6848 147.361 33.6114C148.082 33.5189 148.794 33.3869 149.499 33.2147C149.972 33.09 150.437 32.9493 150.897 32.7843C151.172 32.6852 151.446 32.586 151.721 32.4878C152.06 32.3462 152.399 32.2054 152.738 32.0638C153.1 31.9134 153.452 31.7397 153.808 31.5776C154.471 31.2755 155.111 30.9259 155.752 30.5798C156.033 30.4101 156.314 30.2412 156.596 30.0724C156.874 29.9053 157.138 29.7078 157.407 29.5246C157.717 29.2889 158.025 29.0559 158.319 28.8013C158.636 28.5264 158.938 28.2415 159.238 27.9494C159.477 27.6972 159.704 27.4377 159.919 27.1656C160.163 26.8348 160.386 26.4939 160.596 26.1405C160.72 25.9098 160.844 25.6782 160.969 25.4475C161.089 25.224 161.185 24.9842 161.29 24.7516C161.408 24.452 161.526 24.1552 161.629 23.8511C161.734 23.5407 161.825 23.2276 161.914 22.9126C161.961 22.6939 162.01 22.4744 162.056 22.2557C162.1 22.0548 162.123 21.8467 162.152 21.6431C162.174 21.4234 162.195 21.2036 162.216 20.983C162.237 20.7739 162.233 20.5612 162.237 20.3502C162.221 19.888 162.195 19.431 162.156 18.9686C162.118 18.6832 162.081 18.3987 162.03 18.115C161.969 17.7812 161.895 17.4508 161.819 17.1214C161.704 16.7094 161.582 16.3019 161.452 15.8934C161.325 15.4983 161.169 15.1129 161.017 14.7275C160.775 14.1636 160.523 13.6104 160.245 13.0632C160.125 12.8568 160.005 12.6522 159.872 12.4529C159.725 12.2293 159.568 12.0155 159.408 11.8016C159.179 11.5302 158.948 11.2649 158.707 11.004C158.492 10.7925 158.275 10.5855 158.054 10.3802C157.838 10.1829 157.603 10.0052 157.371 9.82848C156.976 9.55138 156.577 9.29303 156.163 9.04709C155.59 8.74108 155.01 8.46363 154.413 8.20663C153.72 7.93287 153.02 7.69126 152.303 7.47993C151.912 7.37806 151.52 7.28691 151.125 7.2029C150.794 7.43039 150.335 7.45589 149.987 7.21933C149.937 7.18592 149.895 7.15078 149.851 7.11383C149.849 7.11203 149.847 7.11023 149.844 7.10842C149.796 7.08306 149.745 7.05859 149.695 7.03679C149.539 6.97942 149.383 6.92831 149.224 6.88165C148.988 6.82463 148.75 6.77743 148.51 6.74095C148.14 6.69732 147.769 6.67962 147.396 6.67352C146.822 6.67679 146.251 6.71405 145.681 6.77634C144.966 6.86625 144.262 7.00094 143.564 7.17231C142.801 7.37095 142.052 7.61081 141.316 7.89456C140.718 8.13812 140.139 8.41488 139.573 8.72302C138.896 9.10817 138.248 9.53732 137.624 10.0006C136.955 10.5145 136.319 11.0653 135.715 11.6539C135.045 12.326 134.426 13.0405 133.841 13.7874C133.461 14.2845 133.113 14.7998 132.795 15.3375C132.492 15.8736 132.223 16.4224 131.983 16.9884C131.7 17.6873 131.454 18.3971 131.255 19.1234C131.077 19.8212 130.942 20.5274 130.842 21.2418C130.782 21.733 130.749 22.2227 130.743 22.7169C130.746 23.0495 130.764 23.3795 130.797 23.7104C130.848 24.0916 130.92 24.4666 131.009 24.8399C131.122 25.2573 131.258 25.664 131.415 26.0664C131.595 26.4904 131.791 26.9047 132.01 27.3103C132.196 27.6297 132.398 27.9368 132.618 28.236C132.879 28.5694 133.157 28.8868 133.451 29.1927C133.846 29.5788 134.262 29.9374 134.698 30.2756C135.17 30.6256 135.66 30.9453 136.166 31.2429C136.831 31.6156 137.519 31.9439 138.222 32.2391C139.026 32.5619 139.845 32.8365 140.681 33.0639C141.53 33.2823 142.388 33.4526 143.256 33.5747C143.969 33.6618 144.683 33.7175 145.402 33.7269Z" fill="#F4A672"/>
<path d="M127.118 29.0788C126.665 29.0364 126.231 28.9002 125.803 28.7569C125.242 28.5661 124.713 28.3291 124.211 28.0135C123.681 27.679 123.221 27.2375 122.811 26.7678C122.321 26.2108 121.965 25.5581 121.738 24.8562C121.623 24.4976 121.545 24.1152 121.504 23.7303C121.478 23.7149 121.451 23.6995 121.425 23.6832C120.637 23.2065 120.156 22.3302 119.918 21.4726C119.391 19.5673 120.12 17.506 121.384 16.0583C122.031 15.3167 122.901 14.7805 123.819 14.436C124.754 14.0846 125.763 13.8821 126.766 13.8996C127.788 13.9164 128.813 14.1308 129.767 14.4987C130.399 14.7436 130.962 15.0953 131.438 15.5744C131.826 15.9652 131.736 16.648 131.341 16.9897C131.14 17.1628 130.874 17.2505 130.609 17.2317C130.331 17.2128 130.109 17.0816 129.917 16.8889C129.947 16.9186 129.975 16.9474 130.005 16.9762C129.91 16.8834 129.808 16.7978 129.704 16.7139C129.653 16.6778 129.6 16.6425 129.546 16.6091C129.392 16.5257 129.235 16.4495 129.073 16.3795C128.837 16.2903 128.6 16.2118 128.358 16.143C128.044 16.0649 127.729 16.001 127.41 15.9506C127.18 15.924 126.95 15.9081 126.718 15.9021C126.513 15.9042 126.309 15.9145 126.104 15.9337C125.805 15.9737 125.511 16.029 125.218 16.0976C124.971 16.1648 124.728 16.2419 124.488 16.3306C124.273 16.4195 124.065 16.5147 123.859 16.6234C123.706 16.7162 123.558 16.8136 123.413 16.9182C123.275 17.0282 123.144 17.1436 123.017 17.2644C122.907 17.3817 122.802 17.5017 122.7 17.6254C122.581 17.7865 122.468 17.9503 122.363 18.1213C122.254 18.321 122.154 18.5242 122.064 18.7338C122.001 18.9051 121.943 19.0783 121.893 19.2533C121.86 19.3944 121.832 19.5355 121.807 19.6776C121.787 19.8465 121.774 20.0137 121.769 20.1836C121.773 20.3089 121.78 20.4332 121.791 20.5594C121.81 20.683 121.833 20.8048 121.859 20.9275C121.873 20.9777 121.889 21.0279 121.905 21.0772C121.938 21.0113 121.974 20.9453 122.012 20.8812C122.632 19.837 123.887 19.0655 125.132 19.4246C125.401 19.5024 125.642 19.6194 125.873 19.7758C126.103 19.9312 126.275 20.1407 126.439 20.3592C126.589 20.5579 126.702 20.844 126.742 21.0876C126.793 21.3992 126.791 21.6881 126.732 21.9981C126.628 22.5475 126.254 23.0128 125.839 23.366C125.315 23.8115 124.618 24.0537 123.948 24.1699C123.849 24.1871 123.75 24.1999 123.651 24.2072C123.683 24.313 123.716 24.4161 123.755 24.5201C123.809 24.6439 123.866 24.7642 123.928 24.8845C124.005 25.0102 124.086 25.1315 124.171 25.2519C124.317 25.4372 124.471 25.6127 124.635 25.7828C124.767 25.9081 124.901 26.0279 125.042 26.1425C125.201 26.2599 125.365 26.3674 125.535 26.4696C125.678 26.5457 125.82 26.6156 125.968 26.6819C126.277 26.8029 126.592 26.9088 126.911 27.0049C127.034 27.0353 127.157 27.0593 127.283 27.0799C127.386 27.0886 127.487 27.0947 127.589 27.098C127.793 27.0932 127.993 27.0766 128.193 27.0565C128.365 27.0264 128.534 26.9935 128.704 26.9562C128.891 26.9011 129.074 26.8397 129.255 26.7712C129.417 26.6989 129.578 26.6222 129.735 26.5401C129.741 26.5365 129.747 26.5339 129.752 26.5304C129.987 26.3987 130.233 26.3333 130.504 26.387C130.767 26.4397 131.003 26.5988 131.15 26.8225C131.439 27.2574 131.34 27.9428 130.861 28.2106C130.365 28.489 129.857 28.7118 129.309 28.8709C128.768 29.0283 128.185 29.1066 127.614 29.1028C127.446 29.1025 127.281 29.0943 127.118 29.0788ZM123.621 22.1864C123.701 22.1726 123.78 22.157 123.86 22.1397C123.937 22.1178 124.013 22.0933 124.088 22.0661C124.196 22.0203 124.299 21.9718 124.403 21.9171C124.445 21.8914 124.485 21.8648 124.525 21.8365C124.559 21.8063 124.594 21.7779 124.629 21.7486C124.613 21.7637 124.598 21.7797 124.583 21.7948C124.575 21.801 124.566 21.8072 124.558 21.8134C124.566 21.8081 124.574 21.8019 124.581 21.7966C124.565 21.8126 124.548 21.8286 124.532 21.8446C124.551 21.8277 124.569 21.8099 124.587 21.7913C124.598 21.7833 124.608 21.7753 124.619 21.7673C124.609 21.7744 124.599 21.7824 124.589 21.7895C124.622 21.7566 124.655 21.722 124.686 21.6864C124.7 21.6659 124.716 21.6446 124.73 21.6241C124.736 21.6116 124.743 21.5982 124.749 21.5849C124.753 21.5741 124.756 21.5625 124.76 21.5518C124.761 21.5456 124.763 21.5384 124.764 21.5322C124.764 21.5259 124.765 21.5197 124.765 21.5134C124.765 21.5089 124.765 21.5045 124.764 21.5C124.763 21.4946 124.762 21.4892 124.761 21.4839C124.759 21.4785 124.758 21.4731 124.757 21.4677C124.756 21.4659 124.755 21.4632 124.754 21.4615C124.751 21.457 124.749 21.4534 124.746 21.4489C124.739 21.4417 124.732 21.4336 124.724 21.4264C124.716 21.42 124.709 21.4128 124.701 21.4065C124.692 21.4002 124.683 21.3939 124.674 21.3876C124.661 21.3803 124.647 21.3731 124.634 21.3658C124.641 21.3686 124.648 21.3722 124.656 21.3749L124.653 21.3722C124.634 21.3649 124.615 21.3585 124.595 21.353C124.582 21.3512 124.569 21.3484 124.556 21.3465C124.541 21.3455 124.526 21.3445 124.51 21.3444C124.492 21.3452 124.474 21.346 124.456 21.3467C124.437 21.3493 124.417 21.3527 124.398 21.3553C124.37 21.3631 124.342 21.3719 124.315 21.3816C124.273 21.4018 124.231 21.4221 124.19 21.4415C124.157 21.4619 124.125 21.4822 124.093 21.5044C124.059 21.5337 124.025 21.5621 123.992 21.5905C123.937 21.6491 123.884 21.7087 123.832 21.771C123.804 21.8101 123.778 21.8502 123.752 21.8912C123.716 21.958 123.683 22.0267 123.653 22.0962C123.643 22.1275 123.632 22.1569 123.621 22.1864Z" fill="#F4A672"/>
<path d="M159.398 34.7389C159.114 34.7289 158.828 34.6742 158.548 34.6276C158.252 34.5782 157.958 34.4878 157.669 34.4045C157.417 34.3321 157.169 34.2438 156.927 34.1474C156.374 33.93 155.844 33.6618 155.374 33.2966C154.94 32.9602 154.931 32.2745 155.278 31.8827C155.455 31.6819 155.709 31.5584 155.977 31.5433C156.246 31.529 156.481 31.6235 156.691 31.7832C156.778 31.8437 156.866 31.8997 156.956 31.9539C157.159 32.0635 157.368 32.1623 157.58 32.254C157.868 32.365 158.161 32.4627 158.458 32.5496C158.707 32.6121 158.955 32.6638 159.208 32.7075C159.422 32.7286 159.634 32.7426 159.848 32.7521C160.04 32.7471 160.231 32.7341 160.423 32.714C160.612 32.6848 160.799 32.6468 160.987 32.6087C161.12 32.5721 161.253 32.5354 161.387 32.4979C161.528 32.4577 161.666 32.4006 161.805 32.3488C162.11 32.2149 162.408 32.0748 162.707 31.9249C162.916 31.8038 163.124 31.6828 163.328 31.551C163.555 31.4023 163.774 31.2456 163.993 31.0853C164.205 30.9079 164.415 30.7324 164.615 30.5424C164.743 30.4083 164.864 30.2723 164.98 30.1292C165.046 30.0367 165.109 29.9424 165.169 29.8453C165.181 29.8204 165.193 29.7963 165.206 29.7714C165.112 29.6849 165.022 29.595 164.935 29.5014C164.165 28.6675 163.815 27.2903 164.499 26.3144C164.79 25.8998 165.302 25.6529 165.81 25.6886C166.41 25.7319 166.921 26.16 167.193 26.6723C167.452 27.1576 167.569 27.6831 167.594 28.2286C167.603 28.4226 167.595 28.6157 167.575 28.8077C167.623 28.8179 167.673 28.8271 167.722 28.8355C167.855 28.8498 167.987 28.8597 168.121 28.865C168.256 28.8615 168.39 28.8525 168.524 28.8392C168.671 28.8151 168.817 28.7875 168.963 28.7545C169.181 28.6943 169.395 28.6243 169.607 28.5452C169.882 28.4309 170.149 28.3031 170.411 28.1627C170.658 28.0187 170.896 27.863 171.127 27.6938C171.284 27.5688 171.434 27.4384 171.58 27.3018C171.709 27.1694 171.831 27.0335 171.949 26.8913C172.074 26.7205 172.19 26.5452 172.3 26.3636C172.395 26.1845 172.483 26.0028 172.565 25.8174C172.671 25.5535 172.761 25.2859 172.839 25.0129C172.901 24.764 172.951 24.5158 172.991 24.2631C173.019 24.0246 173.036 23.7869 173.041 23.5465C173.037 23.3141 173.022 23.0851 172.996 22.8543C172.964 22.6512 172.925 22.4507 172.878 22.251C172.807 21.9877 172.72 21.7306 172.622 21.4761C172.528 21.2573 172.425 21.0448 172.312 20.8357C172.225 20.6903 172.134 20.5485 172.036 20.4102C171.934 20.287 171.83 20.1701 171.719 20.0558C171.47 19.8155 171.204 19.5982 170.93 19.3845C170.716 19.224 170.499 19.0732 170.27 18.934C170.042 18.8082 169.808 18.6949 169.569 18.5914C169.324 18.4967 169.077 18.4137 168.825 18.3405C168.557 18.2725 168.286 18.218 168.011 18.1759C167.764 18.1483 167.518 18.1332 167.27 18.1271C166.955 18.1285 166.641 18.1461 166.327 18.1788C166.045 18.2189 165.766 18.2742 165.489 18.3412C165.321 18.3883 165.157 18.4399 164.994 18.5005C164.895 18.5454 164.799 18.5922 164.704 18.6425C164.685 18.6557 164.665 18.6681 164.645 18.6814C164.441 18.9366 164.113 19.0935 163.775 19.0697C163.216 19.0311 162.813 18.5439 162.837 17.9987C162.858 17.5171 163.246 17.189 163.62 16.9483C164.183 16.5839 164.864 16.4151 165.514 16.28C166.18 16.1424 166.861 16.1157 167.538 16.1319C168.244 16.1474 168.937 16.2906 169.614 16.4847C170.22 16.6596 170.812 16.9246 171.351 17.2465C171.651 17.4255 171.932 17.6276 172.207 17.8404C172.513 18.0785 172.811 18.3192 173.088 18.5901C174.039 19.5191 174.596 20.7439 174.894 22.0206C175.209 23.3708 175.049 24.7839 174.621 26.087C174.198 27.3749 173.401 28.511 172.309 29.3233C171.765 29.7273 171.18 30.0603 170.557 30.3296C169.915 30.6069 169.248 30.7758 168.553 30.856C168.031 30.9159 167.496 30.8569 166.987 30.7274C166.977 30.7461 166.968 30.7648 166.958 30.7835C166.819 31.0454 166.641 31.2793 166.459 31.5114C166.145 31.9142 165.75 32.244 165.361 32.5713C164.949 32.9162 164.489 33.2197 164.024 33.4883C163.532 33.7728 163.025 34.0483 162.487 34.2404C161.926 34.4413 161.362 34.6064 160.771 34.6927C160.441 34.7406 160.114 34.7544 159.785 34.7522C159.656 34.7469 159.527 34.7433 159.398 34.7389Z" fill="#F4A672"/>
<path d="M160.927 14.8592C160.122 14.7371 159.328 14.5154 158.554 14.2627C157.716 13.9899 156.901 13.6693 156.1 13.3015C155.728 13.1316 155.369 12.928 155.018 12.7182C154.327 12.3058 153.678 11.8438 153.086 11.2967C152.42 10.6832 151.797 9.95789 151.393 9.13965C151.182 9.25664 150.967 9.36826 150.754 9.47989C150.299 9.71632 149.832 9.93307 149.366 10.1498C148.919 10.3578 148.467 10.5622 148.008 10.7443C145.973 11.5533 143.867 12.2513 141.699 12.6169C141.276 12.6879 140.855 12.7563 140.429 12.8051C139.585 12.9027 138.73 12.9165 137.882 12.8654C137.325 12.8322 136.778 12.7377 136.232 12.6254C136.029 12.5831 135.835 12.5124 135.639 12.4514C135.117 12.3482 134.783 11.7841 134.883 11.2818C134.935 11.0213 135.094 10.7882 135.319 10.6428C135.546 10.4956 135.805 10.4609 136.069 10.5001C136.148 10.5122 136.217 10.5429 136.291 10.5683C136.399 10.6056 136.508 10.6366 136.619 10.6658C136.88 10.7192 137.14 10.7717 137.404 10.8126C137.831 10.8654 138.258 10.8914 138.688 10.8988C139.274 10.8974 139.856 10.8603 140.439 10.7957C141.263 10.6873 142.074 10.5111 142.886 10.3296C143.535 10.1515 144.18 9.96889 144.823 9.76934C145.443 9.57676 146.053 9.35294 146.66 9.12823C147.907 8.62915 149.134 8.08009 150.316 7.44524C150.58 7.29567 150.838 7.13982 151.085 6.96342C151.111 6.94223 151.136 6.92103 151.162 6.89984C151.251 6.7384 151.375 6.59768 151.532 6.50526C151.8 6.34769 152.107 6.29546 152.407 6.3963C152.733 6.50534 153.031 6.81005 153.076 7.15847C153.103 7.36965 153.095 7.55835 153.016 7.75279C153.02 7.77329 153.024 7.7938 153.029 7.81342C153.058 7.91155 153.091 8.00792 153.128 8.10344C153.168 8.19184 153.21 8.27938 153.256 8.36427C153.375 8.56539 153.504 8.75857 153.643 8.94825C153.837 9.19083 154.042 9.42281 154.258 9.64595C154.526 9.90595 154.808 10.15 155.103 10.3799C155.492 10.6657 155.898 10.9141 156.312 11.1618C156.585 11.3034 156.856 11.4485 157.134 11.5768C157.41 11.7033 157.686 11.8218 157.966 11.9368C158.684 12.2043 159.408 12.4451 160.146 12.6504C160.535 12.75 160.925 12.839 161.322 12.8987C161.865 12.9807 162.217 13.5609 162.115 14.0748C162.063 14.3353 161.904 14.5684 161.679 14.7138C161.506 14.8257 161.317 14.8725 161.119 14.8711C161.054 14.8743 160.991 14.8685 160.927 14.8592Z" fill="#F4A672"/>
<path d="M142.398 25.3152C141.849 25.2765 141.419 24.7866 141.457 24.2416C141.51 23.498 141.625 22.7611 141.74 22.026C141.846 21.3525 141.965 20.681 142.085 20.0104C142.355 18.509 142.626 17.0068 143.022 15.5323C143.164 15.0032 143.807 14.7372 144.305 14.9044C144.562 14.9912 144.777 15.1806 144.894 15.4232C145.007 15.6567 145.01 15.8975 144.951 16.1416C144.953 16.1335 144.956 16.1255 144.957 16.1165C144.64 17.3391 144.406 18.5793 144.176 19.8213C143.956 21.0123 143.747 22.2051 143.58 23.4046C143.538 23.7311 143.5 24.0558 143.477 24.3842C143.439 24.9086 142.987 25.32 142.462 25.3165C142.441 25.3172 142.419 25.3171 142.398 25.3152Z" fill="#F4A672"/>
<path d="M146.571 24.2714C146.035 24.2337 145.572 23.7426 145.63 23.1987C145.883 20.8044 146.059 18.4034 146.274 16.0044C146.324 15.4595 146.795 15.0356 147.353 15.0743C147.894 15.1128 148.344 15.6029 148.294 16.1479C148.079 18.5459 147.903 20.9479 147.649 23.3412C147.594 23.8637 147.171 24.2772 146.637 24.2736C146.615 24.2734 146.593 24.2733 146.571 24.2714Z" fill="#F4A672"/>
<path d="M142.114 31.587C140.783 31.2665 139.603 30.4911 138.74 29.442C138.349 28.9655 138.034 28.4181 137.812 27.8454C137.585 27.262 137.414 26.6469 137.341 26.0253C137.292 25.6108 137.242 25.1991 137.299 24.7827C137.367 24.2959 137.737 23.9022 138.247 23.8717C138.795 23.8406 139.283 24.2714 139.315 24.8151C139.321 24.9079 139.313 24.9989 139.293 25.0862C139.292 25.1183 139.29 25.1496 139.289 25.1817C139.297 25.3995 139.319 25.6129 139.345 25.8291C139.381 26.0444 139.425 26.2562 139.475 26.4689C139.541 26.7041 139.617 26.9339 139.703 27.163C139.777 27.3331 139.858 27.4987 139.946 27.6617C140.032 27.8051 140.123 27.9431 140.221 28.0794C140.351 28.2436 140.488 28.3989 140.634 28.5499C140.775 28.6811 140.919 28.8052 141.069 28.924C141.228 29.0367 141.39 29.1422 141.556 29.2415C141.689 29.3111 141.822 29.3745 141.958 29.4361C142.154 29.5123 142.352 29.5797 142.555 29.6373C142.784 29.6906 143.013 29.7332 143.245 29.7678C143.534 29.8001 143.82 29.8172 144.108 29.8236C144.381 29.8201 144.65 29.8068 144.919 29.78C145.162 29.7451 145.403 29.6994 145.642 29.643C145.888 29.5706 146.127 29.4848 146.366 29.3927C146.619 29.2882 146.865 29.1756 147.107 29.0478C147.24 28.9684 147.37 28.8872 147.498 28.7997C147.691 28.6475 147.873 28.4845 148.05 28.3144C148.319 28.0333 148.565 27.736 148.813 27.436C149.469 26.5507 150.096 25.6438 150.657 24.6954C150.725 24.5736 150.792 24.4509 150.856 24.3273C151.108 23.8435 151.704 23.6271 152.205 23.8714C152.691 24.1076 152.92 24.7276 152.669 25.2114C152.174 26.1647 151.561 27.0566 150.943 27.9332C150.623 28.3871 150.282 28.8194 149.929 29.2472C149.517 29.7468 149.019 30.1906 148.487 30.5591C147.867 30.9877 147.129 31.2737 146.415 31.5063C145.758 31.7196 145.055 31.8023 144.366 31.8226C144.266 31.8255 144.164 31.8266 144.062 31.8259C143.407 31.8197 142.751 31.7412 142.114 31.587Z" fill="#F4A672"/>
<path d="M118.335 76.88C117.898 76.5906 117.717 75.9234 118.05 75.4879C119.199 73.982 120.189 72.3711 121.171 70.7549C122.187 69.0816 123.225 67.4236 124.206 65.7295C125.065 64.1858 125.898 62.6285 126.634 61.0222C127.416 59.3159 128.175 57.5997 128.915 55.8744C128.908 55.8914 128.901 55.9092 128.894 55.9262C128.903 55.9047 128.912 55.8833 128.921 55.8619C129.075 55.4852 129.231 55.1094 129.386 54.7336C129.385 54.7363 129.384 54.738 129.383 54.7407C129.385 54.7363 129.387 54.7318 129.389 54.7273C129.403 54.6916 129.418 54.6568 129.433 54.6211C129.425 54.639 129.418 54.6559 129.411 54.6738C129.924 53.4196 130.39 52.1489 130.834 50.8692C131.278 49.5912 131.632 48.2795 131.994 46.9769C132.551 44.8788 133.058 42.7688 133.58 40.6625C133.827 39.6607 134.07 38.658 134.316 37.6562C134.577 36.5918 134.855 35.5294 135.074 34.4549C135.117 34.2412 135.16 34.0285 135.196 33.813C135.207 33.7316 135.222 33.6511 135.244 33.5707C135.395 33.0445 136.022 32.7748 136.525 32.9429C136.781 33.0297 136.996 33.2191 137.113 33.4616C137.197 33.6367 137.223 33.8186 137.203 34.002C137.206 33.9904 137.208 33.9788 137.211 33.9663C137.152 34.5021 137.019 35.0293 136.9 35.5539C136.798 36.0125 136.687 36.4682 136.575 36.9249C136.307 38.0178 136.041 39.1117 135.772 40.2047C135.505 41.2931 135.236 42.3816 134.967 43.4701C134.723 44.4602 134.487 45.4532 134.225 46.4387C133.79 48.0793 133.324 49.7071 132.814 51.3257C132.594 52.0224 132.335 52.709 132.077 53.3929C131.807 54.109 131.532 54.8233 131.239 55.5303C131.247 55.5133 131.253 55.4963 131.26 55.4794C131.102 55.8641 130.944 56.2489 130.785 56.6327C130.389 57.595 129.965 58.5472 129.541 59.4977C129.082 60.5231 128.626 61.5495 128.139 62.5622C127.164 64.5929 126.075 66.5594 124.921 68.494C124.499 69.2019 124.058 69.8972 123.628 70.5996C123.214 71.2745 122.805 71.9511 122.394 72.6268C121.567 73.989 120.703 75.3313 119.736 76.5994C119.569 76.8185 119.36 76.9791 119.082 77.0292C119.019 77.0404 118.955 77.0462 118.891 77.0458C118.694 77.0462 118.5 76.9894 118.335 76.88Z" fill="#F4A672"/>
<path d="M162.908 76.126C162.631 76.1062 162.405 75.9767 162.215 75.782C161.728 75.2818 161.272 74.7523 160.826 74.2175C160.39 73.6944 159.954 73.1704 159.538 72.6304C159.543 72.6367 159.547 72.6421 159.552 72.6484C159.486 72.5629 159.417 72.4792 159.357 72.3902C159.337 72.3659 159.318 72.3416 159.299 72.3173C159.285 72.2993 159.272 72.2822 159.258 72.2642C159.256 72.2615 159.254 72.2579 159.251 72.2552L159.25 72.2543C159.221 72.2209 159.195 72.1858 159.171 72.1508C159.138 72.1076 159.105 72.0644 159.072 72.0203C159.099 72.0563 159.126 72.0932 159.155 72.1292C157.834 70.4022 156.83 68.4706 155.97 66.4862C155.514 65.4302 155.099 64.3612 154.705 63.2824C154.328 62.2529 153.992 61.2094 153.66 60.166C152.991 58.0558 152.478 55.9027 151.981 53.748C151.518 51.7314 151.141 49.6903 150.826 47.6451C150.501 45.5318 150.196 43.4169 149.898 41.3002C149.753 40.2697 149.614 39.2374 149.471 38.205C149.397 37.67 149.317 37.1359 149.237 36.6009C149.202 36.3634 149.158 36.1268 149.119 35.8892C149.082 35.6723 149.032 35.4571 149.004 35.2394C148.939 34.6964 149.429 34.2091 149.954 34.1795C150.218 34.1652 150.481 34.2547 150.68 34.4279C150.892 34.6129 150.991 34.8535 151.024 35.125C151.019 35.0856 151.015 35.048 151.009 35.0085C151.218 36.0735 151.363 37.1488 151.512 38.2242C151.651 39.2243 151.786 40.2261 151.926 41.2262C152.232 43.3948 152.52 45.5687 152.885 47.7288C153.128 49.171 153.378 50.6105 153.679 52.0432C153.978 53.4678 154.317 54.882 154.664 56.2953C154.85 57.002 155.035 57.7079 155.24 58.4094C155.466 59.1799 155.709 59.9444 155.952 60.7097C156.411 62.1542 156.957 63.5688 157.515 64.9782C157.775 65.578 158.03 66.1787 158.309 66.7688C158.437 67.0382 158.557 67.3139 158.697 67.5789C158.866 67.8979 159.035 68.2178 159.204 68.5367C159.682 69.3386 160.164 70.1404 160.732 70.8855C160.704 70.8495 160.677 70.8118 160.649 70.7758C160.714 70.8612 160.783 70.9441 160.842 71.0322C160.861 71.0556 160.88 71.079 160.898 71.1024C160.897 71.0997 160.894 71.097 160.892 71.0943C160.895 71.0979 160.899 71.1024 160.901 71.106C160.917 71.1267 160.934 71.1483 160.95 71.169C160.951 71.1699 160.951 71.1699 160.951 71.1708C160.981 71.2051 161.009 71.2411 161.033 71.2779C161.065 71.3202 161.098 71.3625 161.13 71.4048C161.102 71.3688 161.074 71.3319 161.047 71.295C161.07 71.3256 161.094 71.3571 161.118 71.3877C161.107 71.3742 161.097 71.3598 161.086 71.3463C161.931 72.4138 162.786 73.4895 163.738 74.4655C164.122 74.8593 164.039 75.5374 163.64 75.8812C163.455 76.0402 163.215 76.1281 162.97 76.1264C162.952 76.1281 162.93 76.1271 162.908 76.126Z" fill="#F4A672"/>
<path d="M140.227 86.0082C139.944 85.9681 139.661 85.8835 139.38 85.8221C139.13 85.7671 138.886 85.6961 138.64 85.6233C138.403 85.5533 138.158 85.4956 137.926 85.4078C137.612 85.2884 137.299 85.169 136.985 85.0495C136.728 84.9518 136.48 84.8257 136.232 84.7111C136.012 84.611 135.801 84.5091 135.588 84.3948C135.319 84.2508 135.036 84.1191 134.777 83.9556C134.514 83.7894 134.252 83.6223 133.989 83.457C133.807 83.3411 133.636 83.2119 133.462 83.0863C133.243 82.9266 133.017 82.774 132.809 82.6001C132.579 82.4075 132.348 82.2148 132.118 82.0213C131.894 81.834 131.689 81.6228 131.475 81.4241C131.082 81.0588 130.714 80.6643 130.35 80.2707C130.105 80.0078 129.864 79.7404 129.614 79.4836C129.498 79.3717 129.381 79.2642 129.255 79.163C129.217 79.1369 129.18 79.1109 129.141 79.0866C129.13 79.0812 129.118 79.0758 129.107 79.0695C129.103 79.0677 129.098 79.0668 129.094 79.065C129.086 79.064 129.078 79.0622 129.071 79.0613C129.066 79.0621 129.061 79.0621 129.056 79.0629C129.044 79.0655 129.032 79.0681 129.021 79.0707C128.421 79.2462 127.837 79.469 127.243 79.6605C126.566 79.8791 125.882 80.0709 125.178 80.1942C124.385 80.3328 123.573 80.3283 122.775 80.2269C121.871 80.1115 121.033 79.7752 120.25 79.3219C119.923 79.1331 119.625 78.8964 119.33 78.6624C119.006 78.4043 118.713 78.1107 118.44 77.7996C118.254 77.5859 118.066 77.3393 117.936 77.0886C117.835 76.896 117.78 76.6974 117.792 76.4797C117.82 75.9368 118.324 75.5179 118.866 75.5562C119.256 75.5837 119.576 75.8321 119.721 76.1664C119.774 76.2468 119.829 76.3236 119.885 76.4013C119.998 76.5381 120.116 76.6686 120.238 76.7957C120.435 76.9801 120.64 77.1521 120.852 77.3189C121.045 77.4598 121.242 77.59 121.449 77.7114C121.629 77.8077 121.811 77.8951 121.999 77.9764C122.179 78.0443 122.36 78.1041 122.545 78.1569C122.697 78.1926 122.85 78.2239 123.004 78.2498C123.286 78.2828 123.567 78.3034 123.85 78.3106C124.066 78.3076 124.28 78.2966 124.495 78.2776C124.831 78.2319 125.159 78.1656 125.491 78.095C125.958 77.9692 126.418 77.8328 126.876 77.6794C127.149 77.5879 127.421 77.4955 127.694 77.4023C127.985 77.3029 128.278 77.1902 128.579 77.1255C128.835 77.0704 129.104 77.0482 129.365 77.0917C129.714 77.1501 130.009 77.2747 130.308 77.4616C130.81 77.7734 131.208 78.2508 131.605 78.6783C131.986 79.0889 132.373 79.4915 132.766 79.8915C132.99 80.0992 133.214 80.3078 133.437 80.5164C133.67 80.7331 133.927 80.9277 134.172 81.1311C134.44 81.3258 134.708 81.5214 134.976 81.7161C135.108 81.8121 135.256 81.8931 135.394 81.9802C135.547 82.0772 135.701 82.1743 135.854 82.2722C136.154 82.4333 136.454 82.5944 136.754 82.7556C136.898 82.833 137.055 82.8927 137.203 82.9612C137.368 83.037 137.533 83.1119 137.697 83.1877C138.003 83.3035 138.309 83.4202 138.615 83.537C138.771 83.5958 138.94 83.6334 139.099 83.6807C139.266 83.7307 139.433 83.7798 139.6 83.8298C139.937 83.9041 140.274 83.9783 140.611 84.0526C140.753 84.0838 140.903 84.0955 141.048 84.116C141.222 84.1403 141.395 84.1654 141.57 84.1906C141.926 84.2259 142.281 84.2505 142.639 84.2574C143.066 84.2522 143.489 84.2266 143.913 84.1806C144.611 84.0893 145.295 83.9437 145.981 83.7901C146.505 83.6505 147.021 83.5011 147.54 83.3401C147.995 83.1992 148.441 83.02 148.884 82.8452C149.321 82.649 149.75 82.4456 150.178 82.2281C150.556 82.0084 150.926 81.7825 151.295 81.5449C151.637 81.3241 151.965 81.0792 152.292 80.8361C152.939 80.3356 153.561 79.8091 154.195 79.2943C154.489 79.0562 154.786 78.8636 155.144 78.7335C155.539 78.5895 155.998 78.6211 156.405 78.6878C156.822 78.7573 157.235 78.84 157.653 78.9042C157.929 78.9309 158.204 78.9523 158.48 78.9675C158.796 78.9652 159.108 78.9495 159.423 78.917C159.518 78.8999 159.614 78.8836 159.708 78.8665C159.851 78.8283 159.992 78.7893 160.131 78.7404C160.216 78.7028 160.298 78.6633 160.38 78.6212C160.465 78.5685 160.548 78.5139 160.631 78.4567C160.734 78.3729 160.832 78.2874 160.93 78.1982C161.051 78.0693 161.164 77.9385 161.275 77.8024C161.42 77.6024 161.556 77.3989 161.683 77.1873C161.769 77.0261 161.848 76.864 161.921 76.6974C162.002 76.4899 162.072 76.2788 162.132 76.0641C162.152 75.9852 162.171 75.9062 162.189 75.8272C162.313 75.2983 162.824 74.9382 163.375 75.0476C163.901 75.1525 164.291 75.6929 164.167 76.2218C163.996 76.9602 163.738 77.6518 163.356 78.3097C162.915 79.072 162.317 79.7498 161.577 80.239C160.701 80.8189 159.604 80.9644 158.571 80.9592C158.156 80.9573 157.738 80.9287 157.327 80.8682C156.897 80.8057 156.471 80.7193 156.042 80.6471C155.966 80.6386 155.891 80.6319 155.816 80.6278C155.805 80.6286 155.795 80.6295 155.784 80.6294C155.778 80.6302 155.773 80.6311 155.766 80.6319C155.766 80.6319 155.764 80.6328 155.762 80.6337C155.748 80.6398 155.735 80.6468 155.721 80.653C155.691 80.6723 155.66 80.6916 155.63 80.7128C155.236 81.0168 154.861 81.3494 154.476 81.6641C154.035 82.0238 153.582 82.3701 153.124 82.7074C152.91 82.866 152.689 83.0156 152.471 83.1679C152.264 83.3123 152.047 83.4566 151.829 83.5823C151.365 83.8503 150.901 84.1325 150.411 84.3514C149.912 84.5738 149.412 84.798 148.896 84.9794C148.387 85.1582 147.877 85.3477 147.355 85.4873C146.76 85.645 146.166 85.7904 145.565 85.925C145.305 85.9828 145.038 86.0192 144.775 86.0664C144.161 86.1733 143.537 86.226 142.913 86.2432C142.822 86.2452 142.73 86.2464 142.638 86.2458C141.825 86.243 141.03 86.1238 140.227 86.0082Z" fill="#F4A672"/>
<path d="M112.829 63.9204C112.627 63.6865 112.504 63.4388 112.467 63.1317C112.425 62.787 112.511 62.4584 112.675 62.1563C112.871 61.7989 113.175 61.5058 113.469 61.2287C113.696 61.0129 113.973 60.8162 114.242 60.657C114.819 60.3147 115.419 60.0262 116.015 59.719C116.306 59.5474 116.586 59.3642 116.861 59.1683C117.825 58.4074 118.722 57.5601 119.599 56.7037C120.459 55.8329 121.287 54.9377 122.101 54.0246C122.858 53.1772 123.564 52.2875 124.261 51.3906C125.532 49.6763 126.782 47.9414 127.947 46.1531C128.548 45.2287 129.141 44.2988 129.724 43.3626C130.29 42.4532 130.865 41.5482 131.411 40.6261C131.665 40.1958 131.92 39.7646 132.175 39.3342C132.795 38.231 133.411 37.1278 134.02 36.0191C134.309 35.4933 134.589 34.9612 134.898 34.4472C135.249 33.8645 135.6 33.2899 136.046 32.7724C136.403 32.3588 137.061 32.323 137.471 32.6809C137.888 33.0451 137.925 33.6823 137.567 34.0967C137.52 34.1509 137.475 34.2061 137.429 34.2612C137.119 34.6778 136.852 35.1152 136.582 35.5597C135.526 37.4498 134.502 39.358 133.4 41.2219C132.301 43.0804 131.156 44.9171 129.979 46.7286C128.758 48.6051 127.474 50.44 126.141 52.2387C124.873 53.9485 123.483 55.5716 122.011 57.1118C121.052 58.1152 120.053 59.0745 119.013 59.9951C118.602 60.3591 118.178 60.7086 117.726 61.0196C117.987 61.3872 117.999 61.9302 117.672 62.267C117.197 62.7549 116.692 63.2059 116.123 63.5822C115.746 63.8319 115.341 64.0555 114.914 64.2073C114.62 64.3118 114.28 64.3846 113.948 64.3824C113.527 64.3804 113.117 64.256 112.829 63.9204Z" fill="#F4A672"/>
<path d="M162.716 47.4182C162.038 47.3155 161.376 47.0959 160.742 46.8408C160.057 46.5658 159.409 46.2169 158.786 45.8244C157.53 45.0332 156.421 44.0118 155.453 42.895C154.874 42.2271 154.371 41.5034 153.86 40.7841C152.624 39.0443 151.622 37.1543 150.534 35.3236C150.433 35.1524 150.314 34.9731 150.285 34.7721C150.248 34.5104 150.285 34.2563 150.434 34.0332C150.583 33.8102 150.821 33.6539 151.087 33.6048C151.553 33.5187 152.07 33.7944 152.227 34.2426C152.848 35.2892 153.447 36.3473 154.07 37.3913C154.439 38.0088 154.827 38.6112 155.218 39.2154C155.544 39.72 155.909 40.2027 156.257 40.6932C156.731 41.3069 157.228 41.894 157.772 42.4466C158.187 42.851 158.621 43.2297 159.078 43.5862C159.482 43.887 159.898 44.1656 160.332 44.4229C160.697 44.6262 161.071 44.8099 161.455 44.9741C161.791 45.1066 162.13 45.2232 162.477 45.3228C162.728 45.3843 162.979 45.4351 163.235 45.4752C163.538 45.5111 163.84 45.5337 164.144 45.5411C164.387 45.5392 164.629 45.5283 164.871 45.5059C165.158 45.4676 165.439 45.4151 165.72 45.3492C165.969 45.2794 166.212 45.1972 166.454 45.106C166.857 44.9391 167.246 44.7517 167.628 44.5427C168.101 44.271 168.565 43.9823 169.002 43.6568C169.24 43.479 169.477 43.3012 169.714 43.1243C169.989 42.8923 170.264 42.6595 170.539 42.4275C170.774 42.2292 170.991 42.0057 171.215 41.793C171.416 41.5766 171.618 41.3611 171.82 41.1456C172.012 40.9389 172.183 40.7098 172.361 40.4915C172.631 40.1282 172.894 39.7641 173.149 39.3901C173.36 39.0809 173.549 38.7573 173.737 38.4328C174.172 37.6253 174.579 36.8016 174.939 35.9579C174.976 35.8654 175.012 35.7737 175.048 35.6802C175.245 35.1719 175.789 34.8739 176.326 35.0543C176.83 35.2246 177.157 35.8158 176.96 36.325C176.578 37.314 176.112 38.2775 175.608 39.2103C175.37 39.6496 175.113 40.087 174.831 40.5001C174.516 40.9612 174.201 41.4249 173.845 41.8545C173.677 42.0578 173.518 42.2727 173.338 42.466C173.129 42.6913 172.919 42.9157 172.709 43.141C172.52 43.3432 172.305 43.5265 172.104 43.7153C171.928 43.8819 171.748 44.0377 171.562 44.1944C170.137 45.3986 168.586 46.469 166.814 47.1103C165.967 47.417 165.071 47.5421 164.173 47.5361C163.685 47.5328 163.197 47.4911 162.716 47.4182Z" fill="#F4A672"/>
<path d="M175.086 35.6163C175.054 34.5291 174.991 33.4434 174.927 32.3568C174.895 31.8094 174.851 31.2638 174.802 30.719C174.758 30.2334 174.699 29.7477 174.696 29.2596C174.701 29.0036 174.769 28.7685 174.943 28.5709C175.119 28.3706 175.375 28.2461 175.644 28.2309C176.168 28.2013 176.717 28.6286 176.715 29.1766C176.715 29.2285 176.715 29.2787 176.715 29.3306C176.715 29.2876 176.715 29.2455 176.715 29.2016C176.721 29.6996 176.785 30.1987 176.831 30.6951C176.878 31.2175 176.919 31.7398 176.95 32.263C177.013 33.3424 177.076 34.4218 177.108 35.5028C177.123 36.0501 176.721 36.5309 176.158 36.5629C176.138 36.5637 176.118 36.5644 176.098 36.5643C175.581 36.5599 175.102 36.143 175.086 35.6163Z" fill="#F4A672"/>
<path d="M175.608 37.8486C175.118 37.6101 174.895 36.9933 175.143 36.5058C175.81 35.1886 176.557 33.9112 177.291 32.6293C177.67 31.9692 178.065 31.3164 178.486 30.6816C178.899 30.0593 179.34 29.4568 179.791 28.8607C179.956 28.6418 180.168 28.4823 180.445 28.4314C180.702 28.384 180.974 28.4377 181.192 28.5822C181.63 28.8723 181.807 29.537 181.477 29.973C181.065 30.5184 180.654 31.0656 180.277 31.6354C179.874 32.2435 179.493 32.8633 179.121 33.4904C178.38 34.7785 177.63 36.0657 176.959 37.3909C176.781 37.743 176.415 37.9516 176.039 37.949C175.893 37.948 175.746 37.9157 175.608 37.8486Z" fill="#F4A672"/>
<path d="M175.32 37.2922C175.075 36.7849 175.308 36.2104 175.792 35.9565C177.468 35.0782 179.127 34.1703 180.779 33.2526C181.14 33.0424 181.5 32.8323 181.855 32.6114C182.195 32.3993 182.524 32.1577 182.882 31.9752C183.371 31.7267 183.995 31.9667 184.229 32.4488C184.471 32.9479 184.247 33.5288 183.765 33.7801C183.197 34.1362 182.632 34.4959 182.053 34.8341C181.479 35.1696 180.891 35.4863 180.307 35.8048C179.097 36.4638 177.888 37.1255 176.667 37.7666C176.533 37.8372 176.388 37.8683 176.244 37.8674C175.863 37.8639 175.488 37.6381 175.32 37.2922Z" fill="#F4A672"/>
<path d="M174.839 37.3765C174.808 36.8507 175.236 36.3386 175.785 36.3273C178.22 36.2789 180.658 36.2979 183.095 36.3169C183.682 36.3155 184.266 36.3079 184.852 36.2879C185.4 36.2695 185.885 36.6742 185.918 37.2248C185.951 37.7559 185.522 38.2537 184.973 38.2731C183.797 38.3139 182.621 38.2981 181.445 38.2875C179.599 38.2822 177.752 38.2752 175.907 38.3124C175.897 38.3123 175.887 38.3123 175.876 38.3122C175.34 38.3095 174.873 37.9217 174.839 37.3765Z" fill="#F4A672"/>
<path d="M174.052 38.371C173.473 37.5368 172.942 36.6726 172.411 35.8093C172.149 35.3844 171.892 34.9568 171.635 34.5292C171.378 34.1034 171.144 33.6671 170.957 33.206C170.853 32.9494 170.767 32.6912 170.701 32.4232C170.661 32.2574 170.63 32.0926 170.638 31.9209C170.663 31.3745 171.175 30.9539 171.715 30.9924C172.201 31.027 172.571 31.4008 172.642 31.8575L172.642 31.8549C172.649 31.8943 172.657 31.9328 172.666 31.9722C172.71 32.1291 172.759 32.2806 172.816 32.434C172.944 32.739 173.094 33.0299 173.256 33.319C173.632 33.9702 174.032 34.6098 174.429 35.2468C174.854 35.9296 175.282 36.6115 175.74 37.2731C176.053 37.7243 175.902 38.3683 175.451 38.6613C175.281 38.772 175.091 38.8226 174.903 38.8213C174.573 38.8209 174.251 38.6577 174.052 38.371Z" fill="#F4A672"/>
<path d="M128.943 100.598C128.465 100.522 128.004 100.381 127.581 100.144C127.146 99.9007 126.795 99.5681 126.524 99.1519C126.013 98.368 126.086 97.2597 126.779 96.6119C127.528 95.9117 128.61 95.7571 129.601 95.7826C130.501 95.8065 131.368 96.1078 132.204 96.4123C132.516 96.5254 132.822 96.6564 133.131 96.7784C133.133 96.6227 133.133 96.466 133.135 96.3094C133.135 96.2566 133.134 96.2047 133.134 96.1528C133.134 96.1206 133.134 96.0893 133.136 96.058C133.136 96.0562 133.136 96.0553 133.136 96.0535C133.128 95.9156 133.137 95.7743 133.138 95.6373C133.138 95.6803 133.138 95.7232 133.138 95.7662C133.138 95.6991 133.138 95.6302 133.138 95.5622C133.138 95.6051 133.138 95.6481 133.138 95.691C133.139 95.4172 133.14 95.1433 133.141 94.8703C133.141 94.9133 133.14 94.9563 133.14 94.9992C133.142 94.6278 133.144 94.2564 133.145 93.885C133.145 93.928 133.145 93.97 133.145 94.0139C133.151 92.207 133.161 90.4019 133.137 88.5947C133.125 87.7033 133.108 86.8117 133.078 85.9192C133.061 85.4385 133.042 84.9587 133.022 84.4779C133.013 84.2703 133.003 84.0617 132.994 83.854C132.986 83.6668 132.967 83.4752 132.977 83.2882C133.006 82.7416 133.512 82.3199 134.054 82.3585C134.577 82.396 134.972 82.8292 134.994 83.3341C134.994 83.3242 134.994 83.3153 134.994 83.3054C135.01 84.1701 135.068 85.035 135.097 85.8989C135.128 86.8227 135.144 87.7464 135.156 88.671C135.179 90.4728 135.168 92.277 135.16 94.0785C135.16 94.0365 135.161 93.9926 135.161 93.9505C135.159 94.3193 135.158 94.688 135.156 95.0558C135.156 95.0137 135.156 94.9699 135.156 94.9278C135.156 95.1766 135.155 95.4263 135.153 95.6751C135.153 95.6563 135.153 95.6384 135.154 95.6196C135.154 95.6626 135.154 95.7047 135.153 95.7476C135.154 95.8908 135.162 96.0394 135.15 96.1835C135.152 96.2577 135.15 96.332 135.149 96.4081C135.149 96.3651 135.15 96.3222 135.15 96.2792C135.148 96.6623 135.144 97.0444 135.135 97.4265C135.125 97.813 135.046 98.2501 134.781 98.55C134.671 98.6745 134.54 98.7801 134.391 98.8561C134.375 98.8649 134.358 98.8729 134.341 98.8799C134.006 99.224 133.645 99.5223 133.258 99.807C132.727 100.199 132.077 100.337 131.447 100.487C130.931 100.61 130.388 100.674 129.85 100.671C129.545 100.669 129.241 100.645 128.943 100.598ZM129.85 98.6607C130.044 98.6566 130.235 98.6463 130.428 98.6288C130.75 98.5827 131.067 98.515 131.384 98.4402C131.484 98.4131 131.582 98.386 131.68 98.3563C131.283 98.2032 130.879 98.0653 130.471 97.9489C130.273 97.9001 130.074 97.8567 129.872 97.8223C129.701 97.8023 129.531 97.7886 129.36 97.783C129.207 97.7864 129.056 97.7953 128.904 97.8112C128.814 97.8241 128.725 97.8404 128.635 97.8604C128.558 97.8814 128.482 97.9059 128.407 97.9332C128.362 97.9526 128.318 97.9746 128.273 97.9967C128.254 98.0082 128.235 98.0206 128.216 98.033L128.216 98.0339C128.22 98.0447 128.224 98.0563 128.228 98.068C128.234 98.0815 128.242 98.0949 128.248 98.1084C128.262 98.13 128.276 98.1507 128.289 98.1722C128.32 98.2082 128.351 98.2425 128.383 98.2758C128.405 98.2974 128.426 98.319 128.449 98.3398C128.43 98.3209 128.411 98.3019 128.392 98.283C128.39 98.2821 128.389 98.2803 128.388 98.2794C128.39 98.2803 128.39 98.2821 128.392 98.283C128.379 98.2695 128.366 98.256 128.353 98.2434C128.382 98.2677 128.41 98.293 128.439 98.3173C128.482 98.3481 128.527 98.3761 128.573 98.4042C128.613 98.425 128.654 98.4459 128.695 98.4641C128.785 98.4987 128.876 98.5297 128.968 98.559C129.077 98.5848 129.186 98.6061 129.297 98.6247C129.481 98.6439 129.664 98.6559 129.85 98.6607Z" fill="#F4A672"/>
<path d="M147.098 98.7549C146.546 98.6957 146.004 98.5462 145.48 98.3476C145.343 98.4782 145.19 98.5863 145.004 98.6593C144.704 98.7763 144.399 98.7375 144.118 98.5933C143.82 98.4392 143.655 98.1921 143.566 97.8774C143.5 97.6416 143.5 97.3965 143.5 97.1531C143.498 96.8203 143.499 96.4865 143.502 96.1528C143.501 96.1725 143.501 96.1922 143.5 96.2118C143.508 94.4403 143.543 92.6689 143.619 90.8988C143.657 90.0383 143.7 89.1778 143.745 88.3174C143.769 87.8532 143.793 87.3899 143.821 86.9257C143.849 86.483 143.861 86.0339 143.926 85.5941C144.007 85.0534 144.594 84.7048 145.113 84.8085C145.377 84.8613 145.612 85.0204 145.761 85.2442C145.9 85.4536 145.94 85.6883 145.915 85.9315C145.918 85.9118 145.92 85.8922 145.922 85.8716C145.873 86.2748 145.86 86.6836 145.835 87.0879C145.807 87.5458 145.783 88.0028 145.76 88.4599C145.716 89.3203 145.671 90.1808 145.634 91.0413C145.572 92.4733 145.54 93.9047 145.524 95.3379C145.598 95.274 145.674 95.211 145.751 95.1498C146.694 94.3992 147.825 93.8244 149.02 93.6034C149.991 93.4239 151.169 93.5831 151.89 94.3136C152.263 94.6928 152.438 95.1691 152.464 95.6927C152.49 96.2091 152.266 96.7284 151.975 97.1424C151.711 97.5173 151.341 97.8146 150.963 98.0697C150.488 98.3904 149.93 98.579 149.376 98.713C149.002 98.8027 148.618 98.8332 148.231 98.8305C147.852 98.8289 147.47 98.795 147.098 98.7549ZM148.16 96.8232C148.344 96.8199 148.525 96.8095 148.707 96.7929C148.832 96.7731 148.954 96.7498 149.078 96.722C149.199 96.6861 149.317 96.6476 149.435 96.6036C149.546 96.5534 149.655 96.5022 149.762 96.4457C149.846 96.3943 149.927 96.3412 150.007 96.2845C150.089 96.2171 150.17 96.1469 150.247 96.075C150.273 96.0474 150.297 96.0189 150.321 95.9896C150.339 95.9637 150.357 95.9379 150.374 95.9112C150.387 95.8844 150.399 95.8586 150.413 95.8318C150.42 95.8104 150.428 95.7899 150.436 95.7684C150.438 95.7577 150.44 95.7479 150.443 95.7372C150.444 95.7327 150.444 95.7282 150.445 95.7229C150.445 95.7229 150.445 95.7202 150.445 95.7184C150.444 95.7148 150.444 95.7112 150.443 95.7077C150.428 95.6986 150.413 95.6896 150.398 95.6805C150.361 95.6624 150.324 95.6433 150.288 95.6252C150.306 95.6325 150.325 95.6398 150.343 95.647C150.341 95.6461 150.34 95.6443 150.338 95.6434C150.273 95.617 150.208 95.5951 150.141 95.5777C150.138 95.5776 150.135 95.5767 150.132 95.5767C150.156 95.5831 150.181 95.5896 150.205 95.596C150.155 95.5867 150.107 95.5774 150.057 95.5682C149.973 95.5595 149.889 95.5536 149.804 95.5494C149.698 95.5514 149.594 95.5561 149.487 95.5643C149.368 95.5823 149.252 95.6048 149.135 95.629C148.945 95.6814 148.76 95.7428 148.575 95.8113C148.339 95.9117 148.11 96.0202 147.884 96.1413C147.63 96.289 147.385 96.4475 147.145 96.6177C147.107 96.6469 147.069 96.6771 147.031 96.7073C147.122 96.7258 147.213 96.7425 147.305 96.7583C147.588 96.7898 147.873 96.815 148.16 96.8232Z" fill="#F4A672"/>
<path d="M92.2626 49.0618C91.9505 49.0508 91.6375 49.0397 91.3253 49.0287C90.8045 49.0091 90.2848 48.9465 89.7658 48.8975C89.5104 48.8734 89.256 48.8198 89.0034 48.7788C88.6464 48.7218 88.2913 48.6658 87.938 48.5919C86.5374 48.2982 85.1643 47.8491 83.8837 47.2103C82.6345 46.5887 81.5057 45.7578 80.5773 44.7201C79.5845 43.6112 78.8813 42.2291 78.4977 40.8017C78.1079 39.3528 78.0926 37.8421 78.3542 36.3726C78.4854 35.6379 78.7183 34.9164 78.9708 34.2164C79.2361 33.4861 79.5544 32.7714 79.9113 32.082C80.6043 30.7433 81.5136 29.5195 82.5862 28.4586C83.6695 27.388 84.9311 26.5429 86.2723 25.8217C87.2169 25.315 88.2044 24.8926 89.2168 24.5402C90.3022 24.1631 91.434 23.9116 92.5699 23.7378C93.6312 23.5743 94.7065 23.4877 95.7804 23.5575C96.0143 23.5725 96.2445 23.6009 96.4729 23.6427C96.6818 23.5744 96.9004 23.583 97.1161 23.6452C98.1586 23.9437 99.1838 24.3117 100.167 24.7689C101.103 25.2033 102.022 25.7351 102.806 26.4081C103.223 26.7676 103.622 27.1421 104.004 27.538C104.39 27.9366 104.736 28.3626 105.07 28.8037C105.736 29.6797 106.247 30.6548 106.707 31.6492C106.804 31.8608 106.883 32.0821 106.971 32.2981C107.074 32.5544 107.175 32.8224 107.249 33.0884C107.394 33.6069 107.546 34.1272 107.623 34.6614C107.703 35.2179 107.772 35.7725 107.784 36.3348C107.797 36.8775 107.793 37.4191 107.738 37.9595C107.681 38.5214 107.595 39.0723 107.455 39.6193C107.384 39.8932 107.304 40.159 107.214 40.4283C107.121 40.7021 107.008 40.9668 106.898 41.2351C106.794 41.4856 106.667 41.7261 106.546 41.9702C106.484 42.0976 106.401 42.2195 106.33 42.3423C106.261 42.4599 106.198 42.5846 106.122 42.6976C105.926 42.9814 105.737 43.2679 105.525 43.5382C105.168 43.9925 104.776 44.4109 104.35 44.7995C103.944 45.1695 103.529 45.5341 103.079 45.851C102.854 46.0104 102.636 46.1823 102.404 46.3282C102.134 46.498 101.862 46.6678 101.592 46.8376C101.376 46.9729 101.143 47.0848 100.919 47.2058C100.501 47.4318 100.08 47.639 99.6413 47.8246C98.9818 48.1053 98.3 48.3286 97.6048 48.5053C97.2176 48.6037 96.8288 48.6735 96.4363 48.7459C95.3695 48.9407 94.2752 49.0325 93.192 49.0502C92.9392 49.0539 92.6855 49.0674 92.4327 49.0657C92.3751 49.0653 92.3184 49.064 92.2626 49.0618ZM91.1642 47.0173C91.354 47.0356 91.5483 47.0315 91.739 47.0382C91.9351 47.0449 92.1321 47.0525 92.3291 47.0601C92.8743 47.0521 93.4186 47.0451 93.9639 47.0103C94.2222 46.9933 94.484 46.9853 94.7423 46.9548C95.0483 46.9194 95.3552 46.8821 95.6612 46.8466C96.1329 46.7604 96.6064 46.6832 97.0719 46.5719C97.605 46.4325 98.1265 46.2635 98.64 46.065C99.0382 45.9023 99.4301 45.7271 99.8078 45.5223C100.03 45.4022 100.252 45.2822 100.475 45.1621C100.749 44.9906 101.021 44.819 101.294 44.6474C101.536 44.4953 101.765 44.3181 101.998 44.1508C102.207 43.9824 102.416 43.8139 102.625 43.6455C102.826 43.4824 103.011 43.2942 103.203 43.1185C103.475 42.8423 103.732 42.5554 103.973 42.2513C104.134 42.0325 104.284 41.8065 104.438 41.5823C104.562 41.4017 104.664 41.2021 104.774 41.0116C104.76 41.0356 104.746 41.0588 104.732 41.0828C104.831 40.8833 104.929 40.6837 105.028 40.4842C105.012 40.5252 104.995 40.5644 104.979 40.6045C105.062 40.4031 105.145 40.2016 105.228 39.9993C105.308 39.805 105.363 39.5971 105.43 39.3982C105.477 39.2153 105.524 39.0323 105.571 38.8494C105.627 38.638 105.651 38.4147 105.687 38.1977C105.709 37.9771 105.731 37.7556 105.754 37.534C105.778 37.3054 105.774 37.0694 105.78 36.8379C105.775 36.6198 105.77 36.4017 105.765 36.1826C105.759 35.9564 105.731 35.7283 105.711 35.502C105.682 35.3025 105.652 35.103 105.623 34.9026C105.592 34.6896 105.534 34.4783 105.488 34.267C105.435 34.0745 105.381 33.882 105.328 33.6894C105.267 33.4718 105.181 33.2585 105.106 33.0453C104.953 32.6742 104.794 32.3102 104.627 31.9453C104.471 31.6099 104.285 31.2878 104.102 30.9665C103.829 30.5321 103.544 30.1127 103.236 29.7022C102.949 29.3561 102.652 29.0243 102.341 28.7004C101.971 28.343 101.591 28.0035 101.188 27.6816C100.886 27.466 100.58 27.2637 100.263 27.0711C99.7158 26.7689 99.1572 26.5006 98.5796 26.2589C98.3738 26.1779 98.1672 26.1006 97.9596 26.025C97.6155 26.1683 97.2 26.119 96.9022 25.8641C96.895 25.8596 96.8879 25.855 96.8807 25.8505C96.8484 25.8351 96.816 25.8197 96.7837 25.8061C96.6543 25.756 96.5249 25.7105 96.3919 25.6702C96.2481 25.6362 96.1034 25.6093 95.9577 25.5869C95.6834 25.5582 95.41 25.5402 95.1338 25.533C94.5635 25.5336 93.9974 25.5772 93.4313 25.6422C92.6366 25.7449 91.8507 25.8907 91.0718 26.0803C90.392 26.2589 89.7264 26.4788 89.0714 26.7327C88.3065 27.043 87.5667 27.4009 86.8447 27.7956C86.2443 28.1365 85.6672 28.5089 85.1125 28.9199C84.7381 29.2115 84.3826 29.5201 84.0396 29.8476C83.6396 30.248 83.2657 30.6683 82.9141 31.112C82.5625 31.5771 82.2415 32.0602 81.9455 32.5632C81.6187 33.1465 81.3341 33.747 81.0764 34.3629C80.8486 34.9317 80.6513 35.5086 80.4855 36.0983C80.3888 36.4776 80.3128 36.8569 80.2556 37.2445C80.2166 37.5803 80.193 37.9162 80.1873 38.255C80.1924 38.5964 80.2128 38.9353 80.2493 39.2752C80.295 39.5991 80.3541 39.9186 80.4295 40.2373C80.5192 40.5651 80.6251 40.8858 80.7463 41.203C80.8775 41.5132 81.0239 41.8145 81.1839 42.1106C81.3735 42.4336 81.5775 42.7461 81.8005 43.0479C81.9912 43.287 82.1911 43.5154 82.4035 43.7367C82.6536 43.9806 82.9146 44.2103 83.1891 44.4276C83.5283 44.6792 83.8792 44.9122 84.2419 45.1274C84.7016 45.3844 85.1722 45.6128 85.6582 45.8163C86.2592 46.0537 86.8703 46.2536 87.4931 46.4249C87.9991 46.5553 88.507 46.6677 89.0231 46.7508C89.3288 46.7993 89.6354 46.8497 89.9411 46.8982C90.3503 46.9403 90.7568 46.9788 91.1642 47.0173Z" fill="#F4A672"/>
<path d="M89.7876 77.4221C88.7553 77.3919 87.7166 77.3625 86.6861 77.292C85.8708 77.2364 85.0563 77.1951 84.2502 77.0528C83.6583 76.9486 83.0873 76.7703 82.5754 76.4519C82.4568 76.3787 82.35 76.2778 82.2487 76.1823C82.1518 76.0895 82.0477 75.9814 81.9788 75.8665C81.8196 75.5988 81.7179 75.3369 81.646 75.0349C81.5821 74.7688 81.585 74.479 81.5823 74.208C81.5811 74.0487 81.5862 73.8886 81.5867 73.7303C81.5912 73.4718 81.5966 73.2124 81.6075 72.9548C81.6309 72.4326 81.6543 71.9112 81.6868 71.389C81.8298 69.1259 81.9891 66.8637 82.1555 64.6025C82.3124 62.4772 82.4811 60.3511 82.7055 58.2317C82.889 56.4984 83.1057 54.7698 83.3189 53.0402C83.4347 52.1017 83.5452 51.1623 83.6502 50.2219C83.6921 49.8394 83.7249 49.4567 83.7587 49.0741C83.7924 48.6968 83.8001 48.2979 83.8816 47.9263C83.9987 47.3921 84.5211 47.0316 85.068 47.1409C85.5997 47.2473 85.9794 47.7893 85.8623 48.3235C85.8596 48.3351 85.8577 48.3458 85.855 48.3574C85.8012 48.8007 85.7708 49.2487 85.7287 49.6939C85.6717 50.2973 85.6057 50.8998 85.5396 51.5023C85.4178 52.6009 85.269 53.6966 85.131 54.7933C84.8698 56.8785 84.6391 58.9693 84.4652 61.0641C84.2762 63.3386 84.1034 65.6149 83.9415 67.8914C83.7928 69.9729 83.6288 72.0588 83.598 74.1464C83.6001 74.3066 83.6068 74.465 83.6215 74.6252C83.625 74.644 83.6286 74.6637 83.6321 74.6825C83.6392 74.7031 83.6455 74.7238 83.6526 74.7435C83.6535 74.7453 83.6544 74.748 83.6553 74.7498C83.6571 74.7525 83.6598 74.7552 83.6615 74.7579C83.6714 74.7669 83.6813 74.775 83.6912 74.7831C83.7136 74.7967 83.7361 74.8111 83.7585 74.8247C83.7945 74.8428 83.8313 74.8601 83.8673 74.8764C83.9859 74.9211 84.1046 74.9603 84.226 74.996C84.4662 75.0522 84.7063 75.0977 84.9493 75.1351C85.6466 75.223 86.3503 75.2681 87.0514 75.3005C87.7481 75.333 88.4429 75.3636 89.1395 75.3898C90.4275 75.4379 91.7155 75.4698 93.0044 75.4947C95.911 75.5063 98.8206 75.4293 101.71 75.1099C102.117 75.058 102.523 75.0062 102.922 74.9132C102.972 74.8992 103.022 74.8826 103.07 74.8659C103.096 74.8544 103.121 74.8439 103.146 74.8324L103.147 74.8324C103.153 74.8226 103.159 74.8119 103.164 74.8021C103.162 74.8093 103.158 74.8164 103.155 74.8235C103.157 74.8218 103.158 74.82 103.16 74.8173C103.178 74.7727 103.193 74.7272 103.208 74.6808C103.238 74.5477 103.263 74.4155 103.285 74.2814C103.33 73.8863 103.344 73.4919 103.362 73.094C103.346 70.3959 103.043 67.712 102.719 65.0333C102.145 60.7615 101.385 56.5144 100.643 52.2682C100.365 50.6785 100.107 49.0782 99.7394 47.5067C99.6152 46.9736 100.019 46.4324 100.542 46.3358C101.099 46.2331 101.599 46.605 101.723 47.1372C101.946 48.0923 102.119 49.0596 102.295 50.0234C102.474 51.0122 102.644 52.0027 102.818 52.9923C103.194 55.1248 103.554 57.2599 103.903 59.3975C104.086 60.5152 104.269 61.631 104.436 62.7512C104.605 63.8858 104.747 65.0228 104.887 66.1617C105.01 67.1644 105.114 68.1724 105.192 69.1802C105.278 70.2882 105.371 71.399 105.375 72.5109C105.377 73.2158 105.383 73.9324 105.272 74.6312C105.178 75.2273 105.012 75.8291 104.563 76.2617C104.177 76.6339 103.672 76.8138 103.152 76.9186C102.58 77.0337 101.999 77.0941 101.42 77.1591C100.932 77.214 100.443 77.2572 99.9554 77.2914C98.8461 77.3662 97.737 77.424 96.626 77.4603C95.4656 77.4981 94.307 77.5046 93.1459 77.4985C93.1198 77.4983 93.0928 77.4982 93.0666 77.498C91.9748 77.4924 90.8812 77.4537 89.7876 77.4221Z" fill="#F4A672"/>
<path d="M81.0317 99.4359C79.8591 99.1845 78.7388 98.4296 78.2308 97.3306C78.026 96.888 77.9836 96.3856 78.0925 95.9147C78.2252 95.3418 78.646 94.8578 79.1526 94.5712C79.6033 94.3183 80.1023 94.1543 80.6091 94.0512C81.0908 93.9524 81.5864 93.9612 82.0749 93.9725C83.0139 93.9941 83.9281 94.1712 84.8495 94.3251C85.0829 92.2968 85.2623 90.2627 85.4695 88.2324C85.6936 86.05 85.9527 83.8715 86.1939 81.6911C86.2628 81.0695 86.3271 80.447 86.3888 79.8253C86.4243 79.4738 86.4571 79.1223 86.4953 78.7717C86.5186 78.5615 86.5409 78.3514 86.5642 78.1421C86.5959 77.846 86.6312 77.5429 86.7512 77.2671C86.9711 76.7656 87.6251 76.5767 88.1029 76.8099C88.5986 77.0514 88.776 77.6164 88.5886 78.1065C88.5959 78.0878 88.604 78.0699 88.6113 78.0512C88.6214 78.0119 88.6314 77.9735 88.6424 77.9342C88.6232 78.0101 88.6076 78.0861 88.5965 78.1639C88.5993 78.1397 88.603 78.1156 88.6049 78.0914C88.4521 79.245 88.3605 80.407 88.2393 81.5635C88.1246 82.6537 87.9991 83.7421 87.8735 84.8314C87.628 86.9707 87.4105 89.1119 87.1947 91.254C87.0882 92.3014 86.9845 93.3488 86.8744 94.3952C86.8595 94.5383 86.8473 94.6841 86.8305 94.8308C87.2127 95.0723 87.4282 95.5696 87.259 96.0053C87.0634 96.507 86.831 96.9851 86.5257 97.4288C86.0202 98.1638 85.3232 98.7578 84.5144 99.1399C84.0386 99.3649 83.5001 99.4839 82.979 99.5386C82.7428 99.5638 82.5075 99.5756 82.2732 99.5741C81.8577 99.5695 81.4442 99.5246 81.0317 99.4359ZM82.2712 97.5692C82.4416 97.5659 82.6093 97.5571 82.7787 97.5413C82.9357 97.5182 83.0899 97.4906 83.2441 97.4567C83.347 97.4279 83.448 97.3963 83.55 97.3621C83.6745 97.3084 83.7946 97.2519 83.9147 97.1883C83.9851 97.1458 84.0538 97.1015 84.1207 97.0545C84.221 96.9755 84.3159 96.8947 84.4108 96.8095C84.5529 96.6627 84.6841 96.5106 84.8117 96.3521C84.5766 96.3174 84.3424 96.2693 84.1083 96.2265C83.8633 96.1819 83.6174 96.1435 83.3715 96.1025C83.1129 96.0694 82.8553 96.0346 82.5958 96.014C82.2885 95.9887 81.9831 95.9768 81.6749 95.9693C81.5189 95.9727 81.3639 95.9806 81.2079 95.993C81.0898 96.0092 80.9735 96.0281 80.8562 96.0515C80.6866 96.0996 80.5197 96.1548 80.3554 96.2173C80.2895 96.2455 80.2254 96.2763 80.1613 96.309C80.1505 96.3161 80.1387 96.3232 80.1279 96.3303C80.1134 96.3427 80.099 96.3552 80.0845 96.3676C80.0773 96.3756 80.0709 96.3836 80.0637 96.3916C80.0592 96.3978 80.0555 96.405 80.051 96.4112C80.051 96.4139 80.0501 96.4166 80.0501 96.4193C80.0501 96.422 80.05 96.4255 80.05 96.4282C80.0518 96.4381 80.0536 96.4479 80.0553 96.4578C80.0634 96.4802 80.0705 96.5026 80.0785 96.5251C80.0902 96.5502 80.1027 96.5763 80.1143 96.6023C80.1412 96.6463 80.1708 96.6904 80.2004 96.7317C80.2336 96.7723 80.2677 96.8119 80.3036 96.8506C80.3863 96.9281 80.4707 97.0012 80.5588 97.0725C80.6163 97.1132 80.6757 97.152 80.7359 97.1892C80.852 97.2508 80.9689 97.308 81.0904 97.3607C81.1714 97.3908 81.2533 97.4182 81.3371 97.4429C81.4721 97.477 81.6063 97.5047 81.7441 97.5289C81.9207 97.5507 82.0946 97.5635 82.2712 97.5692Z" fill="#F4A672"/>
<path d="M100.003 96.8064C99.6761 96.7657 99.3608 96.6704 99.0436 96.5841C98.7022 96.4905 98.368 96.3755 98.0393 96.2443C97.825 96.1578 97.6423 96.0303 97.5177 95.8424C97.2606 95.8487 97.0066 95.7745 96.798 95.5958C96.6253 95.4478 96.4862 95.2606 96.4139 95.0435C96.3104 94.7294 96.3143 94.3874 96.3218 94.0625C96.3462 93.0161 96.405 91.9707 96.4592 90.9263C96.5705 88.7667 96.6972 86.6081 96.8095 84.4485C96.8733 83.2197 96.9408 81.9909 96.9875 80.7611C97.0392 79.4274 97.0637 78.0918 97.1433 76.761C97.1759 76.2151 97.6752 75.7923 98.2216 75.8309C98.7743 75.8705 99.1946 76.3586 99.162 76.9045C99.0978 77.9632 99.0787 79.0249 99.038 80.0847C98.9973 81.1489 98.952 82.2131 98.8968 83.2763C98.7817 85.4914 98.6548 87.7055 98.5379 89.9206C98.4818 90.9776 98.4185 92.0354 98.376 93.0933C98.6209 92.9553 98.8784 92.8335 99.1286 92.7117C99.8152 92.3779 100.582 92.2103 101.347 92.2844C101.762 92.3248 102.159 92.4528 102.534 92.6308C102.919 92.8134 103.222 93.1189 103.453 93.4679C103.644 93.7583 103.758 94.0984 103.751 94.4466C103.742 94.8235 103.603 95.1646 103.381 95.4675C103.146 95.79 102.822 96.0331 102.497 96.2601C102.116 96.527 101.663 96.6618 101.214 96.7626C100.974 96.8165 100.722 96.8399 100.472 96.8382C100.314 96.8363 100.157 96.8253 100.003 96.8064ZM100.384 94.8286C100.496 94.8257 100.606 94.8193 100.717 94.8093C100.797 94.7964 100.876 94.78 100.956 94.7617C101.026 94.7425 101.096 94.7197 101.165 94.6951C101.212 94.6748 101.258 94.6527 101.303 94.6298C101.364 94.5935 101.423 94.5545 101.48 94.5137C101.522 94.4808 101.563 94.4471 101.604 94.4124C101.577 94.3997 101.55 94.387 101.523 94.3743C101.47 94.3551 101.417 94.3369 101.363 94.3213C101.301 94.3065 101.238 94.2936 101.175 94.2833C101.106 94.2757 101.037 94.2716 100.966 94.2694C100.923 94.27 100.88 94.2724 100.837 94.2757C100.743 94.2884 100.649 94.3048 100.555 94.3248C100.444 94.3571 100.335 94.3922 100.225 94.4309C100.042 94.5084 99.8641 94.5941 99.6853 94.6806C99.7456 94.698 99.8051 94.7145 99.8664 94.7311C99.9961 94.7651 100.126 94.7946 100.258 94.8197C100.301 94.8235 100.342 94.8265 100.384 94.8286Z" fill="#F4A672"/>
<path d="M70.6746 57.3919C70.5612 57.158 70.5442 56.8836 70.6278 56.6376C70.7169 56.3728 70.9056 56.1883 71.1471 56.0559C71.1949 56.0294 71.2426 56.0029 71.2913 55.9765C71.2859 55.98 71.2805 55.9826 71.2751 55.9853C72.1295 55.5015 72.9643 54.9854 73.7946 54.4612C74.7168 53.8778 75.6346 53.2871 76.5408 52.6795C78.3197 51.4854 80.0915 50.2824 81.8122 49.0057C82.0242 48.8481 82.2361 48.6914 82.4481 48.5338C82.9324 48.1627 83.414 47.7925 83.8679 47.3846C83.9843 47.2809 84.0954 47.1708 84.2118 47.0653C84.4193 46.8782 84.7066 46.7783 84.9863 46.7981C85.4746 46.8326 85.9157 47.2448 85.9283 47.7434C85.9369 48.1089 85.7612 48.4445 85.4754 48.6365C85.1063 48.9708 84.7417 49.306 84.3449 49.6098C83.8533 49.9871 83.3582 50.3589 82.8604 50.7281C82.0514 51.3293 81.2317 51.9179 80.4021 52.4903C78.568 53.7537 76.7179 54.9929 74.8346 56.1818C73.9105 56.7661 72.9784 57.3369 72.0213 57.8656C71.8888 57.9389 71.7448 57.9709 71.6009 57.97C71.2204 57.9674 70.8389 57.7325 70.6746 57.3919Z" fill="#F4A672"/>
<path d="M112.515 65.1226C112.133 64.7989 111.89 64.3734 111.829 63.8757C111.795 63.6018 111.818 63.3372 111.876 63.0684C111.937 62.7907 112.068 62.5456 112.214 62.3043C112.344 62.0896 112.536 61.9112 112.716 61.7398C112.9 61.563 113.129 61.4287 113.357 61.3095C112.782 60.7591 112.203 60.2124 111.64 59.6496C111.672 59.682 111.704 59.7144 111.737 59.7468C111.004 59.0148 110.281 58.273 109.58 57.5107C108.842 56.7098 108.119 55.8964 107.393 55.0848C106.009 53.5426 104.541 52.074 103.091 50.593C102.727 50.2284 102.368 49.8575 101.99 49.5088C101.769 49.3061 101.555 49.0945 101.327 48.8998C101.098 48.7041 100.867 48.5094 100.638 48.312C100.222 47.9532 100.18 47.3055 100.542 46.8974C100.905 46.4849 101.549 46.4463 101.965 46.8051C102.377 47.1594 102.785 47.5127 103.185 47.8803C103.607 48.2677 104.007 48.6764 104.412 49.0807C105.207 49.8731 105.982 50.6823 106.765 51.4854C108.28 53.0366 109.699 54.6747 111.167 56.2703C111.665 56.8112 112.169 57.3476 112.689 57.8671C112.657 57.8347 112.625 57.8023 112.592 57.7699C112.758 57.9356 112.925 58.1004 113.091 58.2669C113.723 58.8865 114.357 59.5025 114.996 60.1123C115.142 60.251 115.287 60.3897 115.433 60.5285C115.567 60.6546 115.699 60.7816 115.815 60.9236C115.973 61.117 116.074 61.3618 116.089 61.6115C116.101 61.8181 116.048 62.027 115.937 62.2025C115.997 62.2708 116.049 62.3481 116.094 62.4307C116.15 62.5232 116.196 62.6183 116.233 62.7196C116.29 62.8559 116.319 62.9885 116.35 63.1309C116.41 63.4023 116.347 63.6871 116.259 63.9432C116.101 64.4009 115.676 64.7415 115.289 65.0072C114.911 65.2658 114.458 65.4702 114.001 65.5198C113.911 65.53 113.819 65.5347 113.727 65.5341C113.293 65.5303 112.849 65.4065 112.515 65.1226ZM113.853 63.5012C113.922 63.4704 113.99 63.4369 114.058 63.4016C114.127 63.3591 114.196 63.3158 114.262 63.2688C114.24 63.2248 114.223 63.18 114.209 63.1343C114.174 63.1564 114.139 63.1794 114.105 63.2025C114.073 63.2291 114.041 63.2566 114.01 63.285C113.979 63.3196 113.948 63.3552 113.916 63.3899C113.904 63.4086 113.891 63.4273 113.878 63.446C113.87 63.4638 113.862 63.4816 113.854 63.4986C113.854 63.5004 113.853 63.5012 113.853 63.5012Z" fill="#F4A672"/>
<path d="M114.737 63.0751C114.73 63.0241 114.722 62.9722 114.714 62.9212C114.713 62.9176 114.711 62.914 114.71 62.9104C114.706 62.9005 114.7 62.8898 114.695 62.8799C114.683 62.862 114.672 62.8449 114.66 62.8278C114.493 62.7945 114.338 62.7246 114.202 62.6057C113.999 62.4299 113.874 62.1761 113.858 61.9095C113.826 61.3881 114.254 60.85 114.806 60.8511C115.307 60.8527 115.748 61.0541 116.095 61.415C116.434 61.7687 116.66 62.2209 116.72 62.7059C116.755 62.9698 116.722 63.2209 116.571 63.4469C116.422 63.6704 116.184 63.827 115.918 63.8762C115.859 63.8874 115.8 63.8923 115.74 63.8919C115.273 63.8888 114.797 63.5565 114.737 63.0751Z" fill="#F4A672"/>
<path d="M88.7227 36.3498C88.6658 34.8263 88.674 33.2951 88.7272 31.7724C88.7498 31.2254 89.2663 30.8036 89.8055 30.843C90.369 30.8827 90.7641 31.3698 90.7459 31.9159L90.7459 31.9176L90.7459 31.9203C90.7229 32.5676 90.7161 33.214 90.7111 33.8605C90.711 34.6538 90.7136 35.4463 90.7424 36.238C90.763 36.7844 90.3527 37.2661 89.7925 37.2981C89.7727 37.2989 89.752 37.2996 89.7321 37.2995C89.2145 37.2942 88.7424 36.8773 88.7227 36.3498Z" fill="#F4A672"/>
<path d="M93.1475 38.7122C93.1375 37.4522 93.1573 36.1925 93.1753 34.9327C93.1837 34.3704 93.1947 33.8082 93.2202 33.246C93.2496 32.6113 93.2663 31.9703 93.349 31.3405C93.3834 31.0712 93.4827 30.8337 93.6931 30.6533C93.8953 30.4801 94.1622 30.3914 94.4288 30.4102C94.9557 30.4478 95.4411 30.94 95.3705 31.484C95.3082 31.9653 95.2857 32.4549 95.2623 32.9392C95.2378 33.479 95.2169 34.0188 95.2068 34.5587C95.1869 35.5838 95.1761 36.6082 95.1697 37.6334C95.1686 37.9557 95.1684 38.2772 95.1708 38.5987C95.1735 38.8655 95.1039 39.114 94.9233 39.3179C94.7454 39.519 94.4892 39.6427 94.2198 39.6587C94.2008 39.6595 94.1809 39.6603 94.1619 39.6601C93.6512 39.6567 93.151 39.2405 93.1475 38.7122Z" fill="#F4A672"/>
<path d="M90.4337 46.2738C89.8309 46.0706 89.315 45.7321 88.8325 45.3242C88.3268 44.8974 87.8689 44.4138 87.4931 43.8699C87.1924 43.4356 86.9639 42.9436 86.7705 42.4537C86.6688 42.194 86.5708 41.9379 86.4845 41.6738C86.4 41.4133 86.3299 41.152 86.2606 40.888C86.1967 40.6455 86.1445 40.4004 86.1067 40.1528C86.0672 39.8997 86.0186 39.6421 86.0123 39.3857C85.9981 38.8399 86.3955 38.3602 86.9586 38.3283C87.4939 38.298 88.0113 38.7257 88.0265 39.2716C88.0289 39.3493 88.0376 39.4271 88.0455 39.504C88.0877 39.7767 88.1362 40.0459 88.191 40.3178C88.2567 40.5648 88.3242 40.81 88.4024 41.0535C88.4923 41.3301 88.5957 41.5988 88.7027 41.8692C88.8035 42.0959 88.9124 42.3173 89.0313 42.5351C89.1225 42.6858 89.2173 42.8311 89.3211 42.9721C89.4519 43.1293 89.5881 43.2812 89.7306 43.4286C89.9295 43.6202 90.1358 43.8029 90.351 43.9777C90.4533 44.0525 90.5574 44.1238 90.6641 44.1933C90.7584 44.2439 90.8527 44.291 90.9505 44.3346C90.9874 44.3464 91.0242 44.3592 91.061 44.3719C91.115 44.3848 91.1689 44.395 91.2237 44.4043C91.2903 44.4119 91.3568 44.4168 91.4233 44.4181C91.4989 44.4169 91.5745 44.4129 91.6491 44.4063C91.776 44.3884 91.8993 44.366 92.0235 44.3391C92.1442 44.3051 92.2612 44.2666 92.3783 44.2245C92.4963 44.1726 92.6107 44.1189 92.7252 44.0598C92.8549 43.9812 92.9803 43.8981 93.1038 43.8087C93.2382 43.7015 93.3654 43.5898 93.4899 43.4728C93.6939 43.2643 93.8845 43.0467 94.0688 42.8211C94.6571 42.0202 95.197 41.1878 95.6974 40.3301C95.8658 40.0276 96.0269 39.7232 96.172 39.4097C96.3995 38.9129 97.0369 38.7171 97.52 38.9526C98.0255 39.199 98.2122 39.7987 97.9847 40.2938C97.5605 41.2199 97.007 42.0844 96.4527 42.9363C96.1298 43.4317 95.7837 43.9126 95.4061 44.3674C95.0114 44.8435 94.5467 45.2575 94.0391 45.6113C93.518 45.9731 92.9137 46.1941 92.2962 46.3338C92.0189 46.3962 91.7193 46.4308 91.4189 46.4288C91.079 46.4256 90.7392 46.3777 90.4337 46.2738Z" fill="#F4A672"/>
<path d="M84.0694 30.685C83.8114 30.6099 83.625 30.4037 83.4601 30.2049C83.3284 30.0483 83.2102 29.8767 83.0902 29.7103C82.8672 29.4002 82.6506 29.0847 82.4348 28.7683C81.9863 28.114 81.5386 27.4578 81.1027 26.7946C80.802 26.3354 80.9311 25.7055 81.392 25.4063C81.8502 25.1079 82.4887 25.2401 82.7894 25.6984C83.1573 26.2592 83.5333 26.8146 83.9129 27.3683C84.2746 27.8968 84.6326 28.428 85.0178 28.9405C85.0205 28.9441 85.0241 28.9486 85.0276 28.9522C85.3417 29.2102 85.4786 29.6692 85.3477 30.0584C85.2013 30.4896 84.8018 30.7329 84.3752 30.73C84.2744 30.7293 84.171 30.7152 84.0694 30.685Z" fill="#F4A672"/>
<path d="M90.0132 27.3219C89.8055 26.9687 89.6943 26.5688 89.5732 26.1804C89.4637 25.827 89.3686 25.4674 89.269 25.1114C89.0707 24.4012 88.8751 23.6909 88.684 22.9781C88.6155 22.7216 88.6164 22.4674 88.7353 22.2248C88.8541 21.983 89.0709 21.7956 89.3279 21.7132C89.8283 21.5519 90.4613 21.8283 90.6026 22.3582C90.7742 22.9976 90.9502 23.6361 91.1272 24.2745C91.3113 24.9346 91.4873 25.5972 91.7164 26.2432C91.7307 26.2737 91.7459 26.3034 91.762 26.333C91.7495 26.3115 91.737 26.2899 91.7253 26.2683C91.8444 26.4875 91.8975 26.7233 91.848 26.9727C91.7958 27.2355 91.6364 27.468 91.4117 27.6151C91.2465 27.7223 91.0482 27.7746 90.85 27.7733C90.5195 27.7702 90.1878 27.6175 90.0132 27.3219Z" fill="#F4A672"/>
<path d="M96.7804 28.4817C96.2354 28.444 95.7983 27.9541 95.8408 27.4092C95.9087 26.5574 96.109 25.7128 96.3021 24.8816C96.5025 24.0165 96.7128 23.1514 96.9528 22.2954C97.1015 21.7683 97.7314 21.4995 98.2336 21.6676C98.4901 21.7544 98.7048 21.9438 98.822 22.1863C98.9392 22.4297 98.941 22.6866 98.8689 22.9421C98.8443 23.0279 98.8205 23.1137 98.7968 23.2004C98.6178 23.8723 98.4532 24.548 98.2958 25.2263C98.1339 25.9271 97.9791 26.6296 97.8757 27.3415C97.8682 27.4121 97.8617 27.4828 97.8569 27.5535C97.8154 28.0769 97.3706 28.4893 96.8453 28.4857C96.8237 28.4847 96.8021 28.4836 96.7804 28.4817Z" fill="#F4A672"/>
<path d="M101.561 30.2955C101.114 29.9993 100.959 29.3501 101.277 28.9053C101.546 28.5273 101.902 28.215 102.241 27.8991C102.502 27.6559 102.77 27.4191 103.038 27.1849C103.592 26.7005 104.152 26.2243 104.717 25.7535C105.137 25.4041 105.774 25.4361 106.14 25.8552C106.497 26.2625 106.464 26.9193 106.043 27.2696C105.048 28.0968 104.054 28.934 103.125 29.835C103.06 29.9034 102.998 29.9727 102.938 30.0456C102.929 30.058 102.919 30.0696 102.909 30.0811C102.903 30.0891 102.897 30.0962 102.891 30.1043C102.896 30.098 102.9 30.0918 102.905 30.0856C102.7 30.3273 102.403 30.463 102.101 30.4609C101.917 30.4597 101.73 30.4075 101.561 30.2955Z" fill="#F4A672"/>
<path d="M104.617 33.1904C104.602 32.9298 104.691 32.6698 104.864 32.4737C105.046 32.267 105.286 32.1669 105.556 32.1357C105.523 32.1391 105.49 32.1433 105.456 32.1476C105.566 32.1322 105.675 32.1107 105.784 32.09C106.843 31.8071 107.882 31.442 108.919 31.0912C109.438 30.9153 110.023 31.2209 110.193 31.7343C110.365 32.2575 110.069 32.8195 109.549 32.9953C108.935 33.2027 108.318 33.4091 107.7 33.6093C107.043 33.8226 106.373 34.0572 105.684 34.1338C105.651 34.1371 105.617 34.1396 105.585 34.1393C105.08 34.135 104.646 33.6806 104.617 33.1904Z" fill="#F4A672"/>
<path d="M80.1516 34.498C79.5932 34.4576 79.0958 34.2096 78.5974 33.9759C78.2706 33.8237 77.9528 33.6465 77.6332 33.4801C76.9571 33.1265 76.2802 32.7728 75.6105 32.4049C75.3699 32.272 75.1817 32.0797 75.0945 31.8157C75.0126 31.5697 75.0316 31.2957 75.1457 31.0643C75.3777 30.5936 76.0136 30.3426 76.4947 30.6074C77.0657 30.922 77.642 31.2249 78.2193 31.5279C78.7984 31.8318 79.3765 32.1518 79.98 32.4094C80.0582 32.4385 80.1354 32.4658 80.2154 32.4905C80.2262 32.4923 80.2379 32.4951 80.2486 32.497C80.2612 32.4979 80.2738 32.4989 80.2864 32.4999C80.8349 32.5402 81.2614 33.0252 81.2235 33.5705C81.1883 34.0925 80.7344 34.5037 80.2137 34.5002C80.1948 34.5009 80.1732 34.4999 80.1516 34.498Z" fill="#F4A672"/>
</svg>
