<svg width="28" height="36" viewBox="0 0 28 36" fill="none" xmlns="http://www.w3.org/2000/svg">
<path d="M27.038 11.791C27.0208 12.9804 26.9464 14.1666 26.7536 15.3465C26.5723 16.4606 26.2345 17.5495 25.8871 18.6353C25.7611 19.0323 25.5416 19.4042 25.2973 19.765C24.4155 21.0674 23.3333 22.2504 22.1766 23.3959C21.3693 24.1945 20.5275 24.9634 19.6419 25.7024C19.1132 26.1433 18.554 26.5591 18.0634 27.0283C17.195 27.8599 16.1624 28.5628 15.3359 29.4242C14.9924 29.7835 14.6278 30.1256 14.1793 30.3986C14.0533 30.4755 13.9121 30.5367 13.7785 30.6073C13.6888 30.6544 13.6582 30.6983 13.7117 30.7987C13.8109 30.9886 13.9273 31.1706 13.9846 31.3793C14.1316 31.93 13.7899 32.6942 12.8222 32.8809C12.6447 32.9154 12.4634 32.9389 12.284 32.9672C12.2382 32.975 12.1828 32.9719 12.1675 33.0174C12.1523 33.0629 12.1962 33.0911 12.2344 33.1115L12.317 33.1453C12.9483 33.4033 13.517 33.7937 13.9846 34.2901C13.9846 34.2901 14.2258 34.6523 13.8204 34.9123C13.5432 35.0901 13.1983 35.2958 12.8228 35.4845C12.4827 35.6554 12.1174 35.8124 11.7545 35.9222C11.2062 36.0879 10.2492 35.9617 9.80652 35.7968C9.51068 35.6869 8.90945 35.338 8.67086 35.1482C8.29867 34.8532 8.1727 34.475 8.1517 34.0655C8.10017 33.0911 8.64605 32.3976 9.6481 31.9159C9.76644 31.8594 9.87142 31.8516 10.0069 31.8908C10.9802 32.4051 12.2254 32.6175 13.0806 31.9244C13.1365 31.879 13.182 31.8345 13.2135 31.7919C13.4158 31.5189 13.2821 31.2438 13.0035 31.0257C12.9195 30.9583 12.8338 30.942 12.8338 30.942L12.2246 30.7649C11.7407 30.6243 11.2977 30.3692 10.9331 30.0213L10.7634 29.8568C10.7634 29.8568 9.25682 28.5769 8.51435 27.9603C8.11735 27.6308 7.80241 27.2448 7.46458 26.8761C6.90152 26.2625 6.29456 25.6773 5.77159 25.0387C5.08447 24.1992 4.54431 23.2892 3.89155 22.4372C3.1548 21.4753 2.63755 20.4335 2.11076 19.3947C1.70421 18.5945 1.48662 17.7378 1.13543 16.9203C0.673526 15.8424 0.557098 14.7126 0.434943 13.5923C0.310879 12.4485 0.39677 11.2936 0.620084 10.1545C0.72697 9.61317 0.854849 9.07655 0.94074 8.53208C1.04763 7.85581 1.36447 7.22191 1.63931 6.5833C1.91035 5.95567 2.24246 5.35001 2.65091 4.7726C2.92958 4.38033 3.25787 4.02415 3.63388 3.69464C4.24656 3.15959 4.85161 2.61827 5.54064 2.14598C6.24303 1.66427 7.02177 1.29554 7.8883 1.05861C8.79111 0.812268 9.65383 0.463936 10.612 0.361947L12.4604 0.140708L12.5877 0.119141C12.9773 0.0530903 13.3718 0.01989 13.767 0.01989C13.767 0.01989 15.1317 -0.0538559 15.8513 0.082653C17.3076 0.355671 18.6704 0.827959 19.9912 1.39596C21.6136 2.09263 23.0164 3.01367 24.2418 4.123C25.0129 4.81967 25.5493 5.62774 25.9463 6.51426C26.4845 7.71303 26.7536 8.95416 26.9636 10.2094C27.0514 10.7335 27.0437 11.2654 27.0342 11.7942L27.038 11.791ZM11.4575 26.6517C11.4327 26.6595 11.406 26.6689 11.3812 26.6768C11.2705 26.523 11.1426 26.3787 11.072 26.2045C10.8887 25.7463 10.7093 25.285 10.5165 24.83C10.131 23.9231 9.8027 23.0036 9.59275 22.0574C9.38661 21.127 9.22628 20.1903 9.09077 19.2504C8.92472 18.0893 8.81401 16.925 8.68804 15.7608C8.6136 15.0704 8.64796 14.3769 8.67659 13.6833C8.70903 12.9255 8.7014 12.1676 8.77966 11.4113C8.83501 10.87 8.99533 10.3428 9.08122 9.80616C9.14803 9.39193 9.22628 8.9777 9.34271 8.57288C9.55458 7.84326 9.79507 7.11835 10.0069 6.38874C10.1692 5.83329 10.4497 5.31392 10.6673 4.77416C10.8525 4.316 11.0338 3.85469 11.3163 3.42947C11.6617 2.91011 12.0378 2.4033 12.3813 1.88394C12.6733 1.44146 12.9463 0.992711 13.4215 0.655362C13.4864 0.609859 13.5227 0.548665 13.4826 0.481195C13.4425 0.413725 13.3528 0.426279 13.2918 0.446677C12.8432 0.595738 12.3527 0.521991 11.8965 0.639671C11.6026 0.714987 11.2953 0.75892 10.9937 0.816976C10.1806 0.973882 9.39425 1.20767 8.62887 1.47598C7.97992 1.7035 7.32143 1.93101 6.74692 2.2715C5.70097 2.89599 4.81916 3.66797 3.99462 4.47918C3.12044 5.33903 2.65855 6.37775 2.22719 7.42589C1.91607 8.18375 1.74238 8.96357 1.57442 9.74811C1.22132 11.3941 1.08962 13.0384 1.39882 14.6985C1.51525 15.3183 1.5706 15.9459 1.82255 16.5422C2.32834 17.7378 2.64709 18.9836 3.30749 20.1369C3.68159 20.7912 3.97935 21.4785 4.47178 22.0826C5.00621 22.74 5.4013 23.4618 5.93192 24.1208C6.23349 24.4942 6.51406 24.8818 6.82327 25.2521C7.2699 25.784 7.76615 26.2845 8.23759 26.8007C8.64223 27.2432 9.04305 27.6857 9.53167 28.0748C10.0928 28.5204 11.1286 29.4797 11.1286 29.4797C11.2049 29.6115 11.7749 29.9767 11.7749 29.9767L12.2344 30.2445L12.2606 30.251C12.6476 30.3469 13.0874 30.3681 13.4063 30.1287C13.601 29.9844 13.7995 29.8463 13.9808 29.6894C14.6565 29.0947 15.2596 28.4451 15.983 27.8865C16.63 27.386 17.1683 26.8007 17.7981 26.2861C18.7257 25.5282 19.6515 24.7672 20.497 23.9482C21.3521 23.1197 22.2129 22.2944 23.0107 21.4251C23.6387 20.741 24.1979 20.0239 24.719 19.2865C25.0912 18.7608 25.2191 18.1599 25.3985 17.5809C25.9138 15.924 26.181 14.2372 26.2459 12.5285C26.2974 11.1885 26.1199 9.86422 25.7535 8.56346C25.4576 7.51219 25.1274 6.46719 24.3945 5.53359C23.9612 4.98285 23.4974 4.45878 22.9592 3.98178C22.169 3.28041 21.2108 2.74065 20.2641 2.19932C19.6476 1.84628 18.93 1.63289 18.2505 1.36772C17.195 0.956623 16.0861 0.689882 14.9618 0.45766C14.8454 0.434124 14.7252 0.420001 14.5706 0.470212C14.9409 0.634964 15.2501 0.8107 15.5879 0.953485C16.0746 1.15746 16.5899 1.33477 17.0041 1.63132C17.9413 2.30131 18.7964 3.02779 19.327 3.97865C19.6877 4.6251 20.0885 5.25744 20.3042 5.9494C20.518 6.63194 20.6707 7.3239 20.8386 8.01429C21.1612 9.34486 21.2566 10.6848 21.1478 12.0311C21.06 13.1294 20.9131 14.2278 20.6382 15.3105C20.4913 15.891 20.4073 16.4825 20.2393 17.06C19.995 17.8978 19.7507 18.7357 19.4968 19.5705C19.3327 20.1087 19.1838 20.6531 18.9662 21.1772C18.596 22.0716 18.1818 22.955 17.7504 23.8321C17.1587 25.0324 16.4392 26.1762 15.6623 27.2981C15.4237 27.6418 15.1737 27.9838 14.8511 28.2835C14.7137 28.4106 14.4847 28.4294 14.3377 28.329C14.1869 28.2255 14.2633 28.1062 14.3224 27.9917C14.5897 27.4613 14.8855 26.9372 15.0439 26.3771C15.3207 25.3917 15.6585 24.4189 15.8933 23.4257C16.1204 22.4717 16.3571 21.5177 16.5651 20.5606C16.7503 19.707 16.8037 18.8346 16.8209 17.9653C16.8629 15.7153 16.6777 13.4731 16.4831 11.2309C16.3437 9.63984 16.1166 8.05822 15.7501 6.49072C15.565 5.69991 15.3932 4.91067 15.4905 4.10104C15.4982 4.0367 15.4562 3.93942 15.5841 3.92687C15.7005 3.91432 15.71 4.00846 15.7444 4.07122C16.0173 4.57489 16.1834 5.10681 16.338 5.64029C16.7674 7.11678 16.9869 8.62152 17.1854 10.1263C17.3916 11.6985 17.4622 13.2801 17.5481 14.8586C17.6264 16.3147 17.6244 17.7723 17.4889 19.2268C17.4259 19.8968 17.3095 20.5621 17.1339 21.2211C17.0232 21.6354 16.9278 22.0527 16.8285 22.4685C16.6548 23.206 16.4716 23.9403 16.2387 24.6668C16.128 25.012 16.0059 25.3572 15.941 25.704C16.0402 25.6365 16.1051 25.5423 16.1586 25.4419C16.401 24.9759 16.6644 24.5162 16.8972 24.0455C17.3343 23.1558 17.7695 22.2677 18.1398 21.3592C18.5253 20.4115 18.783 19.434 19.0617 18.4627C19.2812 17.7001 19.5503 16.9486 19.724 16.1766C19.8366 15.676 19.9511 15.1755 20.0714 14.6765C20.2794 13.8104 20.4569 12.9427 20.4416 12.0562C20.4187 10.757 20.4359 9.45783 20.1401 8.16963C19.9511 7.34743 19.7698 6.52838 19.4396 5.73443C19.2315 5.23076 18.8937 4.77887 18.6246 4.30031C18.1417 3.44046 17.3954 2.75634 16.5499 2.13499C16.1204 1.82118 15.6184 1.59523 15.1107 1.37556C14.7042 1.19983 14.2995 1.01782 13.9388 0.777749C13.8911 0.744798 13.8338 0.705573 13.767 0.725971C13.6811 0.752645 13.7231 0.818545 13.7307 0.862479C13.7613 1.03194 13.6239 1.14334 13.5303 1.2673C13.4387 1.38812 13.3204 1.49795 13.2402 1.62348C12.9978 2.00476 12.7821 2.39703 12.534 2.77517C12.1905 3.2961 11.7858 3.79507 11.551 4.35836C11.0987 5.44416 10.6177 6.52054 10.2818 7.64085C9.8905 8.95102 9.66337 10.28 9.41906 11.609C9.30836 12.2053 9.37516 12.8094 9.35417 13.4103C9.3179 14.4224 9.27973 15.4328 9.38089 16.4465C9.48586 17.4867 9.4496 18.5349 9.63474 19.572C9.77598 20.366 9.91341 21.1599 10.0508 21.9555C10.1272 22.3964 10.2913 22.82 10.3906 23.2578C10.612 24.2275 10.8487 25.1924 11.2647 26.1213C11.343 26.2955 11.3907 26.4775 11.4537 26.6564L11.4575 26.6517ZM10.7295 33.9553L11.0623 34.8374C11.2049 35.2154 11.5899 35.4346 11.9717 35.3027C12.2895 35.193 12.5848 35.051 12.8562 34.8745C12.9695 34.8009 13.2151 34.633 13.3617 34.5324C13.4299 34.4856 13.4555 34.3974 13.4232 34.3212C13.4146 34.3007 13.402 34.282 13.3863 34.2662L13.3052 34.1846C13.2495 34.1286 13.1855 34.0814 13.1154 34.0449L12.2344 33.5854L11.5187 33.2423C11.0552 33.02 10.5553 33.4716 10.7295 33.9553ZM9.6134 32.6522C9.61072 32.6442 9.60108 32.6411 9.59421 32.646L9.28688 32.8656C9.14687 32.9656 9.00439 33.1444 8.92625 33.2977C8.88512 33.3784 8.87908 33.4138 8.85759 33.5018L8.84223 33.5647C8.81052 33.6945 8.79398 33.8275 8.79293 33.961L8.79203 34.075C8.7909 34.2182 8.80115 34.3613 8.82267 34.5028L8.82607 34.5253C8.92341 34.8359 9.29309 35.0525 9.61947 35.2141C9.99708 35.4024 10.3833 34.9562 10.2496 34.556L9.6134 32.6522Z" fill="currentColor"/>
<path d="M4.33561 14.2573C4.30126 13.661 4.41387 13.0758 4.41769 12.4889C4.42532 11.4298 4.61237 10.3848 4.74025 9.3351C4.87386 8.24774 5.20215 7.19803 5.74803 6.18912C6.30727 5.15668 6.85315 4.12109 7.69488 3.22045C8.17014 2.71207 8.75037 2.28528 9.4165 1.94479C10.1246 1.58234 10.8499 1.24813 11.6401 1.01904C11.6706 1.00963 11.6993 0.998645 11.7298 0.9908C11.8004 0.97354 11.8787 0.956281 11.9245 1.01748C11.9779 1.09122 11.8882 1.12574 11.8367 1.15398C11.5752 1.30148 11.308 1.44112 11.0427 1.58705C10.4434 1.91655 9.84022 2.24135 9.28098 2.61949C8.67593 3.02588 8.21022 3.52485 7.8094 4.06617C7.33032 4.71263 6.94859 5.40145 6.5993 6.10282C6.37026 6.56099 6.12786 7.01445 5.94462 7.48831C5.68695 8.15203 5.56289 8.83614 5.46746 9.52339C5.32431 10.5417 5.1907 11.5616 5.12389 12.5862C4.99983 14.5177 5.00747 16.443 5.61633 18.3306C5.83774 19.0178 5.95417 19.7239 6.18512 20.4112C6.57639 21.5801 7.19862 22.6549 8.04989 23.6466C8.39727 24.0498 8.66639 24.497 8.99659 24.9112C9.42222 25.4447 9.89558 25.9531 10.2983 26.5007C10.8366 27.2303 11.4798 27.905 11.9646 28.6629C12.0314 28.7649 12.1306 28.8527 12.2089 28.9516C12.2337 28.983 12.2452 29.03 12.1917 29.0551C12.1459 29.0755 12.1211 29.0395 12.0963 29.0175C11.5676 28.5656 11.0522 28.1043 10.6438 27.5724C10.0082 26.7455 9.37642 25.917 8.74655 25.0885C8.17014 24.3307 7.52882 23.6089 6.93332 22.8636C6.25383 22.0163 5.84728 21.0686 5.49036 20.1036C5.21551 19.3614 4.93303 18.6193 4.74598 17.8567C4.59137 17.2228 4.45013 16.5873 4.42341 15.9377C4.3986 15.376 4.30316 14.8174 4.33752 14.262L4.33561 14.2573Z" fill="currentColor"/>
</svg>
