<svg width="21" height="20" viewBox="0 0 21 20" fill="none" xmlns="http://www.w3.org/2000/svg">
<path fill-rule="evenodd" clip-rule="evenodd" d="M10.334 10.2087C9.06836 10.2087 8.04235 11.2347 8.04235 12.5003C8.04235 13.766 9.06836 14.792 10.334 14.792C11.5997 14.792 12.6257 13.766 12.6257 12.5003C12.6257 11.2347 11.5997 10.2087 10.334 10.2087ZM9.29235 12.5003C9.29235 11.925 9.75872 11.4587 10.334 11.4587C10.9093 11.4587 11.3757 11.925 11.3757 12.5003C11.3757 13.0756 10.9093 13.542 10.334 13.542C9.75872 13.542 9.29235 13.0756 9.29235 12.5003Z" fill="#053B4A"/>
<path fill-rule="evenodd" clip-rule="evenodd" d="M10.334 1.04199C7.68765 1.04199 5.54235 3.18729 5.54235 5.83366V6.26933L5.51997 6.27651C4.06121 6.75049 2.91751 7.89419 2.44353 9.35295C2.20864 10.0759 2.20877 10.9436 2.209 12.3655V12.6352C2.20877 14.0571 2.20864 14.9248 2.44353 15.6477C2.91751 17.1065 4.06121 18.2502 5.51997 18.7241C6.2429 18.959 7.11057 18.9589 8.53246 18.9587H12.1356C13.5575 18.9589 14.4251 18.959 15.1481 18.7241C16.6068 18.2502 17.7505 17.1065 18.2245 15.6477C18.4594 14.9248 18.4592 14.0571 18.459 12.6352V12.3654C18.4592 10.9436 18.4594 10.0759 18.2245 9.35295C17.7505 7.89419 16.6068 6.75049 15.1481 6.27651C14.4251 6.04162 13.5574 6.04175 12.1355 6.04198L8.59739 6.04199C7.86472 6.04196 7.27993 6.04194 6.79235 6.06955V5.83366C6.79235 3.87765 8.378 2.29199 10.334 2.29199C11.1322 2.29199 11.8671 2.55528 12.459 3.00001C12.735 3.20735 13.1268 3.15172 13.3341 2.87575C13.5414 2.59978 13.4858 2.20798 13.2098 2.00064C12.4089 1.39885 11.4122 1.04199 10.334 1.04199ZM12.0007 7.29199C13.6004 7.29199 14.252 7.2997 14.7618 7.46533C15.84 7.81567 16.6853 8.66101 17.0357 9.73922C17.2013 10.249 17.209 10.9006 17.209 12.5003C17.209 14.1 17.2013 14.7517 17.0357 15.2614C16.6853 16.3396 15.84 17.185 14.7618 17.5353C14.252 17.7009 13.6004 17.7087 12.0007 17.7087H8.66735C7.06763 17.7087 6.416 17.7009 5.90624 17.5353C4.82803 17.185 3.98269 16.3396 3.63235 15.2614C3.46672 14.7517 3.45901 14.1 3.45901 12.5003C3.45901 10.9006 3.46672 10.249 3.63235 9.73922C3.98269 8.66101 4.82803 7.81567 5.90624 7.46533C6.01472 7.43009 6.13347 7.40127 6.27117 7.37807C6.76918 7.29417 7.4408 7.29199 8.66735 7.29199H12.0007Z" fill="#053B4A"/>
<path fill-rule="evenodd" clip-rule="evenodd" d="M10.334 10.2087C9.06836 10.2087 8.04235 11.2347 8.04235 12.5003C8.04235 13.766 9.06836 14.792 10.334 14.792C11.5997 14.792 12.6257 13.766 12.6257 12.5003C12.6257 11.2347 11.5997 10.2087 10.334 10.2087ZM9.29235 12.5003C9.29235 11.925 9.75872 11.4587 10.334 11.4587C10.9093 11.4587 11.3757 11.925 11.3757 12.5003C11.3757 13.0756 10.9093 13.542 10.334 13.542C9.75872 13.542 9.29235 13.0756 9.29235 12.5003Z" stroke="#053B4A" stroke-width="0.5" stroke-linecap="round"/>
<path fill-rule="evenodd" clip-rule="evenodd" d="M10.334 1.04199C7.68765 1.04199 5.54235 3.18729 5.54235 5.83366V6.26933L5.51997 6.27651C4.06121 6.75049 2.91751 7.89419 2.44353 9.35295C2.20864 10.0759 2.20877 10.9436 2.209 12.3655V12.6352C2.20877 14.0571 2.20864 14.9248 2.44353 15.6477C2.91751 17.1065 4.06121 18.2502 5.51997 18.7241C6.2429 18.959 7.11057 18.9589 8.53246 18.9587H12.1356C13.5575 18.9589 14.4251 18.959 15.1481 18.7241C16.6068 18.2502 17.7505 17.1065 18.2245 15.6477C18.4594 14.9248 18.4592 14.0571 18.459 12.6352V12.3654C18.4592 10.9436 18.4594 10.0759 18.2245 9.35295C17.7505 7.89419 16.6068 6.75049 15.1481 6.27651C14.4251 6.04162 13.5574 6.04175 12.1355 6.04198L8.59739 6.04199C7.86472 6.04196 7.27993 6.04194 6.79235 6.06955V5.83366C6.79235 3.87765 8.378 2.29199 10.334 2.29199C11.1322 2.29199 11.8671 2.55528 12.459 3.00001C12.735 3.20735 13.1268 3.15172 13.3341 2.87575C13.5414 2.59978 13.4858 2.20798 13.2098 2.00064C12.4089 1.39885 11.4122 1.04199 10.334 1.04199ZM12.0007 7.29199C13.6004 7.29199 14.252 7.2997 14.7618 7.46533C15.84 7.81567 16.6853 8.66101 17.0357 9.73922C17.2013 10.249 17.209 10.9006 17.209 12.5003C17.209 14.1 17.2013 14.7517 17.0357 15.2614C16.6853 16.3396 15.84 17.185 14.7618 17.5353C14.252 17.7009 13.6004 17.7087 12.0007 17.7087H8.66735C7.06763 17.7087 6.416 17.7009 5.90624 17.5353C4.82803 17.185 3.98269 16.3396 3.63235 15.2614C3.46672 14.7517 3.45901 14.1 3.45901 12.5003C3.45901 10.9006 3.46672 10.249 3.63235 9.73922C3.98269 8.66101 4.82803 7.81567 5.90624 7.46533C6.01472 7.43009 6.13347 7.40127 6.27117 7.37807C6.76918 7.29417 7.4408 7.29199 8.66735 7.29199H12.0007Z" stroke="#053B4A" stroke-width="0.5" stroke-linecap="round"/>
</svg>
