<svg width="16" height="16" viewBox="0 0 16 16" fill="none" xmlns="http://www.w3.org/2000/svg">
<path d="M11.6891 7.01831C11.8835 6.82218 11.8821 6.5056 11.686 6.31121C11.4898 6.11682 11.1732 6.11824 10.9789 6.31437L9.81399 7.48968C9.34123 7.96668 9.01587 8.29388 8.74018 8.51528C8.47238 8.73034 8.30037 8.80412 8.14632 8.82376C8.04959 8.83609 7.95171 8.83609 7.85498 8.82376C7.70093 8.80412 7.52892 8.73034 7.26112 8.51528C6.98544 8.29388 6.66008 7.96668 6.18732 7.48968L5.02245 6.31437C4.82806 6.11824 4.51148 6.11683 4.31535 6.31121C4.11921 6.5056 4.1178 6.82218 4.31219 7.01831L5.49805 8.2148C5.94467 8.66544 6.30971 9.03377 6.63496 9.29497C6.97317 9.56659 7.31647 9.76321 7.72854 9.81573C7.90923 9.83877 8.09207 9.83877 8.27276 9.81573C8.68483 9.76321 9.02813 9.56659 9.36635 9.29497C9.69159 9.03377 10.0566 8.66546 10.5032 8.21482L11.6891 7.01831Z" fill="#053B4A"/>
<path fill-rule="evenodd" clip-rule="evenodd" d="M8.00065 0.833008C4.04261 0.833008 0.833984 4.04163 0.833984 7.99967C0.833984 11.9577 4.04261 15.1663 8.00065 15.1663C11.9587 15.1663 15.1673 11.9577 15.1673 7.99967C15.1673 4.04163 11.9587 0.833008 8.00065 0.833008ZM1.83398 7.99967C1.83398 4.59392 4.5949 1.83301 8.00065 1.83301C11.4064 1.83301 14.1673 4.59392 14.1673 7.99967C14.1673 11.4054 11.4064 14.1663 8.00065 14.1663C4.5949 14.1663 1.83398 11.4054 1.83398 7.99967Z" fill="#053B4A"/>
</svg>
