<svg width="75" height="131" viewBox="0 0 75 131" fill="none" xmlns="http://www.w3.org/2000/svg">
<path fill-rule="evenodd" clip-rule="evenodd" d="M71.0774 0.126585C70.3743 0.330211 69.599 1.27908 69.4822 2.06727C69.3502 2.94273 69.4822 3.58408 69.9352 4.285C70.8287 5.65636 72.1306 5.91955 73.5063 5.01501C74.7943 4.16864 75.0861 1.98 74.0482 0.856594C73.3604 0.112733 72.1612 -0.194785 71.0774 0.126585ZM72.4099 2.00909C72.8935 2.19887 73.2881 3.05909 73.0686 3.46772C72.8782 3.81818 72.3363 4.19773 72.0292 4.19773C71.7221 4.19773 71.3845 3.70183 71.2678 3.05909C71.1802 2.66568 71.2386 2.505 71.5318 2.21272C71.9417 1.80408 71.9125 1.81932 72.4099 2.00909Z" fill="#053B4A"/>
<path fill-rule="evenodd" clip-rule="evenodd" d="M52.2604 4.88341C51.3086 5.87522 49.2313 12.1059 48.4851 16.1757L48.1489 18.0139L46.5968 18.0429C44.5181 18.072 42.1045 18.4364 37.7276 19.4005C36.2783 19.7218 34.5372 20.0723 33.8633 20.1887C32.5308 20.4075 32.0195 20.6555 31.7707 21.1957C31.5359 21.6916 31.7263 22.2318 32.3127 22.6834C33.3812 23.5436 38.81 26.375 41.3139 27.3959C42.1629 27.7464 42.9382 28.0968 43.0549 28.1841C43.2161 28.3157 43.2453 28.7673 43.1578 30.6789C43.0702 32.97 43.2022 36.3832 43.5232 39.2866C43.7136 41.1109 44.1526 42.5114 44.7084 43.0655C45.0739 43.4298 45.2059 43.4741 45.7325 43.4007C46.1855 43.3425 46.494 43.168 47.0345 42.6278C47.4291 42.2344 47.7515 41.8687 47.7515 41.8105C47.7515 41.7371 48.103 41.1539 48.5268 40.4834C49.5953 38.835 51.7032 35.1587 52.9177 32.7941C53.4887 31.715 53.957 30.8105 53.9709 30.7814C53.9862 30.7662 54.9519 31.6859 56.108 32.8246C58.6549 35.3346 60.9087 37.4055 61.7869 38.033C62.8707 38.7921 63.9823 38.5871 64.2602 37.5509C64.4353 36.9525 64.1435 33.7582 63.7044 31.4809C63.4265 30.0805 62.9582 27.9209 62.8707 27.6868C62.8262 27.5705 62.7679 27.2782 62.7387 27.0455C62.7095 26.8266 62.5775 26.2143 62.4608 25.688C62.3441 25.1768 62.2412 24.7252 62.2412 24.6961C62.2412 24.6671 62.6512 24.39 63.1625 24.0977C64.2602 23.4273 65.5191 22.5518 65.5775 22.405C65.6066 22.3316 65.6942 22.2886 65.7831 22.2886C66.3389 22.2886 69.2805 19.4143 70.8465 17.3434C72.0609 15.738 72.1929 14.6589 71.2411 14.0314C70.8173 13.7543 70.8604 13.7543 66.9975 14.3375C64.099 14.7752 64.2463 14.7614 60.8795 14.9941C58.6549 15.1548 58.245 15.1548 58.07 14.9802C57.9671 14.8639 57.6309 14.0466 57.3377 13.1711C56.3275 10.1514 54.9088 6.18274 54.674 5.74501C54.2641 4.91388 53.7514 4.49 53.1664 4.49C52.7731 4.48862 52.5383 4.59113 52.2604 4.88341ZM54.2655 10.9673C55.8898 15.7241 56.0802 16.1466 56.8263 16.7298C57.485 17.2257 57.485 17.2257 58.6855 17.1232C59.3594 17.0788 61.4951 16.7727 63.4418 16.4666C65.4024 16.1452 67.2907 15.8543 67.6562 15.81C68.0216 15.7657 68.6219 15.6936 69.0179 15.6493C69.4125 15.5911 69.7057 15.6202 69.7057 15.6936C69.7057 15.9707 66.8377 18.845 65.4621 19.9545C63.8517 21.2386 62.0815 22.4493 61.3936 22.7264C60.6183 23.0325 60.1931 23.6461 60.1931 24.4773C60.1931 24.8707 60.5447 26.7241 60.9837 28.5914C61.7299 31.7427 62.3302 35.2293 62.2135 35.595C62.1259 35.843 59.7248 33.7416 57.2668 31.2621C55.1881 29.1759 54.4711 28.5623 54.0612 28.5623C53.857 28.5623 52.7731 29.6275 52.1882 30.3866C51.9533 30.708 51.2655 31.7732 50.6667 32.7498C50.0664 33.7277 49.3202 34.9523 48.9979 35.4787C48.6755 36.0037 47.9293 37.2143 47.3443 38.1784C45.6616 40.9364 45.7923 40.8921 45.5144 38.9085C44.9877 35.1296 44.8266 31.6721 45.0461 28.8407L45.1628 27.425L44.5917 26.8266C44.1082 26.3155 43.494 25.9955 40.6552 24.7696C38.8114 23.9675 36.7619 23.0477 36.1324 22.7125C35.1083 22.1723 35.0055 22.085 35.2834 21.9825C36.0004 21.7193 41.357 20.6984 42.8493 20.553C43.7413 20.4505 45.2934 20.2468 46.3175 20.0861C47.7806 19.8534 48.2489 19.823 48.4976 19.9545C48.7172 20.0861 48.9075 20.0861 49.1424 19.9836C49.4064 19.8673 49.537 19.575 49.7718 18.5389C49.9469 17.8393 50.1234 17.022 50.1817 16.745C50.3568 15.7532 51.2933 12.4121 51.8644 10.7346C52.6397 8.44341 53.0205 7.59843 53.1664 7.86023C53.2275 7.97659 53.725 9.37704 54.2655 10.9673Z" fill="#053B4A"/>
<path fill-rule="evenodd" clip-rule="evenodd" d="M26.5305 5.08659C26.0622 5.27636 25.2577 6.04931 24.9784 6.56046C24.5255 7.43591 24.8756 8.98181 25.7399 9.81433C26.9543 10.9668 28.6815 10.8352 29.5749 9.53728C30.1307 8.72001 30.146 8.15068 29.6194 7.01342C28.7704 5.20295 27.7894 4.59068 26.5305 5.08659ZM28.0089 7.91797C28.2132 8.3557 28.3452 8.7491 28.316 8.79342C28.141 8.96796 27.292 8.83637 27.0724 8.60365C26.707 8.19501 26.6194 7.62569 26.8973 7.34864C27.335 6.92477 27.6129 7.0716 28.0089 7.91797Z" fill="#053B4A"/>
<path fill-rule="evenodd" clip-rule="evenodd" d="M62.7546 48.2874C62.1251 48.5215 61.247 49.2363 60.9844 49.7613C60.6036 50.4761 60.7648 51.774 61.3206 52.4459C61.8917 53.1606 62.9005 53.7729 63.6328 53.8463C64.8472 53.9779 66.1505 53.2631 66.7202 52.1536C67.0718 51.497 67.0426 50.3597 66.6758 49.6297C66.2659 48.8706 66.12 48.7543 65.0806 48.4038C64.1302 48.0838 63.4285 48.0547 62.7546 48.2874ZM65.1265 50.1256C65.478 50.4899 65.3168 51.4527 64.8333 51.8184C63.9551 52.4611 62.535 51.979 62.535 51.0302C62.535 50.6506 62.9589 50.1256 63.4132 49.9649C63.8231 49.8056 64.9069 49.922 65.1265 50.1256Z" fill="#053B4A"/>
<path fill-rule="evenodd" clip-rule="evenodd" d="M24.1745 31.2624C23.7872 31.6555 23.5617 32.4463 23.7075 32.8837C23.868 33.3704 24.13 33.6318 24.6113 33.789C25.5574 34.0934 26.453 33.6812 27.0699 32.6624C27.6477 31.7087 27.2224 30.5077 26.254 30.3857C25.6125 30.3051 24.7695 30.6527 24.1745 31.2624ZM25.5403 31.6362C25.8986 31.5285 26.3874 31.7885 26.3625 32.0814C26.3399 32.3335 26.1034 32.7463 25.9094 32.8742C25.7155 33.002 25.3641 32.898 25.1114 32.6296C24.9466 32.472 24.9387 32.3684 25.0424 32.1022C25.1875 31.73 25.1733 31.7496 25.5403 31.6362Z" fill="#053B4A"/>
<path fill-rule="evenodd" clip-rule="evenodd" d="M16.7016 41.4833C16.3789 42.3633 16.7989 46.2774 17.4563 48.5814L17.7537 49.6217L16.7883 50.278C15.4927 51.152 14.0797 52.3289 11.6012 54.612C10.7812 55.369 9.78616 56.261 9.39569 56.5968C8.62049 57.2552 8.36836 57.5883 8.36175 57.956C8.3516 58.2963 8.62036 58.4824 9.11297 58.4613C10.021 58.4411 14.2086 57.5839 16.0612 57.0488C16.6906 56.8695 17.2737 56.7206 17.3711 56.7151C17.5085 56.7129 17.6517 56.9223 18.1254 57.8957C18.704 59.0553 19.7305 60.6742 20.7346 61.9649C21.3585 62.7806 22.0211 63.2857 22.5228 63.3274C22.8528 63.3549 22.9478 63.3221 23.2578 63.0682C23.5258 62.8524 23.671 62.6392 23.8606 62.1507C23.9993 61.7946 24.1004 61.482 24.0843 61.4535C24.064 61.4175 24.1232 60.9862 24.2036 60.4821C24.418 59.232 24.7234 56.5576 24.8313 54.896C24.891 54.1307 24.9346 53.4935 24.9353 53.4735C24.9407 53.4597 25.8006 53.5113 26.8405 53.5914C29.1319 53.7685 31.118 53.8517 31.8423 53.7961C32.7319 53.72 33.3723 53.1597 33.2601 52.5368C33.2045 52.171 32.1382 50.7255 31.2332 49.7906C30.6716 49.2189 29.7808 48.3537 29.6612 48.2752C29.6012 48.2365 29.4837 48.1173 29.4011 48.0153C29.3223 47.9201 29.0702 47.6745 28.8514 47.4647C28.6369 47.2623 28.4476 47.0835 28.4395 47.0692C28.4315 47.0549 28.6119 46.7496 28.8518 46.3947C29.3549 45.612 29.9023 44.6621 29.8983 44.5659C29.8963 44.5179 29.9394 44.4606 29.9951 44.4238C30.3437 44.1939 31.3938 41.568 31.8033 39.9049C32.121 38.6155 31.9054 38.0318 31.135 38.1178C30.7926 38.1573 30.8196 38.1395 28.5583 40.0231C26.8615 41.4366 26.95 41.3689 24.9028 42.8756C23.5521 43.8745 23.295 44.044 23.137 44.0308C23.0403 44.0163 22.6034 43.7547 22.1775 43.4467C20.709 42.384 18.7219 41.025 18.4536 40.9075C17.9667 40.6695 17.5279 40.6738 17.161 40.9157C16.914 41.0777 16.7951 41.2251 16.7016 41.4833ZM19.6413 43.6369C21.9753 45.2973 22.2115 45.4257 22.8408 45.403C23.3909 45.3737 23.3909 45.3737 24.1155 44.8269C24.5259 44.5264 25.7807 43.493 26.9169 42.5377C28.0577 41.5692 29.1615 40.6455 29.3785 40.4727C29.5954 40.2998 29.9519 40.0162 30.1881 39.8306C30.4195 39.6389 30.6114 39.5319 30.6317 39.5679C30.7083 39.7037 29.7044 42.2992 29.1485 43.4122C28.4935 44.7079 27.718 46.0337 27.3633 46.454C26.9617 46.9248 26.8647 47.4015 27.0945 47.809C27.2033 48.0019 27.9362 48.7652 28.7279 49.4991C30.0672 50.7356 31.4078 52.1968 31.4357 52.4244C31.4493 52.5821 29.3624 52.545 27.1353 52.3459C25.2547 52.1829 24.6354 52.1786 24.3783 52.3481C24.2502 52.4326 23.865 53.4032 23.7081 54.0173C23.6496 54.272 23.5128 55.0788 23.4073 55.8053C23.3012 56.5331 23.1718 57.4421 23.1152 57.8335C23.0582 58.2242 22.925 59.1264 22.8247 59.8411C22.532 61.8893 22.6016 61.8136 21.8788 60.9559C20.5037 59.321 19.4466 57.6925 18.8014 56.2134L18.4832 55.4711L17.9595 55.4139C17.5149 55.3633 17.0413 55.4604 14.9219 56.0335C13.5438 56.4029 12.0041 56.7997 11.5166 56.8957C10.725 57.0544 10.6364 57.0541 10.7823 56.8889C11.1592 56.4633 14.2363 53.7472 15.132 53.0586C15.6632 52.6394 16.5803 51.8976 17.1781 51.3952C18.0314 50.676 18.3166 50.4673 18.509 50.429C18.6831 50.4027 18.8025 50.324 18.9214 50.1766C19.0548 50.0103 19.0559 49.813 18.9167 49.2079C18.833 48.7925 18.7177 48.3188 18.6777 48.1588C18.5133 47.6001 18.1768 45.5746 18.0711 44.5159C17.9239 43.0719 17.929 42.5001 18.0929 42.5681C18.1634 42.5999 18.8626 43.0808 19.6413 43.6369Z" fill="#053B4A"/>
<path fill-rule="evenodd" clip-rule="evenodd" d="M1.15439 49.6054C0.910958 49.8946 0.617466 50.6122 0.583361 50.9813C0.541009 51.6029 1.1942 52.2207 1.97369 52.2716C3.06415 52.3345 4.1207 51.549 4.32393 50.5348C4.44761 49.8991 4.29837 49.6113 3.64754 49.269C2.60474 48.7285 1.81284 48.8352 1.15439 49.6054ZM2.88063 50.3879C3.13212 50.519 3.3255 50.6583 3.3194 50.6924C3.2573 50.8517 2.68316 51.1408 2.47922 51.1174C2.13383 51.0679 1.91948 50.8231 2.01806 50.5703C2.17679 50.1782 2.3937 50.1348 2.88063 50.3879Z" fill="#053B4A"/>
<path fill-rule="evenodd" clip-rule="evenodd" d="M36.4161 60.9697C36.0873 61.3436 35.7354 62.0549 35.7159 62.4197C35.6749 62.926 36.1332 63.4939 36.6656 63.5932C37.2193 63.7071 38.0184 63.5905 38.4962 63.3246C39.2913 62.8883 39.9089 62.0018 39.9593 61.2246C39.9981 60.7588 39.6665 60.2151 39.2362 60.0095C38.771 59.8074 38.6477 59.8107 37.9017 60.0678C37.2196 60.3032 36.7731 60.5782 36.4161 60.9697ZM38.4047 60.8905C38.7247 60.9236 38.8892 61.4606 38.6878 61.8386C38.3161 62.5147 37.2959 62.8644 37.0345 62.4007C36.9299 62.2152 37.0501 61.7839 37.2898 61.5181C37.5021 61.2713 38.2114 60.8814 38.4047 60.8905Z" fill="#053B4A"/>
<path fill-rule="evenodd" clip-rule="evenodd" d="M56.6174 62.7452C56.23 63.1383 56.0046 63.9291 56.1504 64.3665C56.3108 64.8532 56.5728 65.1146 57.0541 65.2718C58.0003 65.5762 58.8959 65.164 59.5127 64.1452C60.0905 63.1915 59.6653 61.9905 58.6969 61.8685C58.0553 61.7879 57.2123 62.1355 56.6174 62.7452ZM57.9832 63.1189C58.3415 63.0112 58.8302 63.2713 58.8054 63.5642C58.7828 63.8163 58.5462 64.2291 58.3523 64.357C58.1584 64.4848 57.807 64.3808 57.5543 64.1123C57.3894 63.9547 57.3815 63.8512 57.4853 63.585C57.6304 63.2128 57.6162 63.2324 57.9832 63.1189Z" fill="#ADD7DA"/>
<path fill-rule="evenodd" clip-rule="evenodd" d="M49.1445 72.9662C48.8218 73.8462 49.2418 77.7603 49.8992 80.0643L50.1965 81.1046L49.2312 81.7609C47.9355 82.6349 46.5226 83.8118 44.0441 86.0949C43.2241 86.8519 42.229 87.7439 41.8386 88.0797C41.0634 88.7381 40.8112 89.0712 40.8046 89.4389C40.7945 89.7792 41.0632 89.9653 41.5558 89.9442C42.4638 89.924 46.6515 89.0668 48.5041 88.5317C49.1334 88.3524 49.7166 88.2035 49.8139 88.198C49.9514 88.1959 50.0946 88.4052 50.5682 89.3787C51.1469 90.5382 52.1734 92.1571 53.1775 93.4478C53.8013 94.2636 54.4639 94.7686 54.9657 94.8104C55.2956 94.8378 55.3907 94.805 55.7007 94.5511C55.9687 94.3353 56.1139 94.1221 56.3035 93.6337C56.4422 93.2775 56.5433 92.9649 56.5272 92.9364C56.5069 92.9004 56.5661 92.4691 56.6465 91.9651C56.8608 90.7149 57.1663 88.0405 57.2741 86.3789C57.3339 85.6136 57.3775 84.9764 57.3782 84.9564C57.3835 84.9426 58.2435 84.9942 59.2834 85.0743C61.5748 85.2514 63.5609 85.3346 64.2851 85.279C65.1747 85.2029 65.8152 84.6426 65.703 84.0197C65.6473 83.6539 64.5811 82.2084 63.676 81.2735C63.1145 80.7018 62.2237 79.8366 62.1041 79.7581C62.044 79.7194 61.9266 79.6002 61.844 79.4982C61.7651 79.403 61.5131 79.1574 61.2943 78.9476C61.0798 78.7452 60.8904 78.5664 60.8824 78.5521C60.8743 78.5378 61.0548 78.2325 61.2947 77.8777C61.7978 77.0949 62.3452 76.145 62.3412 76.0489C62.3392 76.0008 62.3822 75.9435 62.438 75.9067C62.7866 75.6769 63.8367 73.0509 64.2462 71.3878C64.5639 70.0984 64.3483 69.5147 63.5779 69.6007C63.2355 69.6402 63.2625 69.6224 61.0011 71.506C59.3043 72.9195 59.3929 72.8518 57.3457 74.3585C55.995 75.3574 55.7379 75.5269 55.5798 75.5138C55.4832 75.4992 55.0463 75.2376 54.6204 74.9296C53.1518 73.8669 51.1647 72.5079 50.8964 72.3904C50.4095 72.1524 49.9708 72.1567 49.6039 72.3986C49.3569 72.5606 49.238 72.708 49.1445 72.9662ZM52.0842 75.1198C54.4182 76.7802 54.6544 76.9086 55.2836 76.8859C55.8338 76.8566 55.8338 76.8566 56.5584 76.3098C56.9688 76.0093 58.2236 74.9759 59.3598 74.0206C60.5005 73.0521 61.6044 72.1285 61.8213 71.9556C62.0383 71.7827 62.3948 71.4991 62.6309 71.3136C62.8623 71.1218 63.0542 71.0148 63.0745 71.0508C63.1511 71.1866 62.1473 73.7821 61.5913 74.8951C60.9364 76.1908 60.1609 77.5166 59.8062 77.9369C59.4045 78.4077 59.3076 78.8844 59.5374 79.2919C59.6461 79.4848 60.3791 80.2481 61.1708 80.982C62.5101 82.2185 63.8506 83.6797 63.8785 83.9073C63.8922 84.065 61.8053 84.0279 59.5781 83.8289C57.6976 83.6658 57.0783 83.6615 56.8212 83.831C56.6931 83.9155 56.3079 84.8861 56.1509 85.5002C56.0925 85.7549 55.9557 86.5617 55.8501 87.2882C55.7441 88.016 55.6147 88.925 55.5581 89.3164C55.5011 89.7071 55.3679 90.6094 55.2676 91.324C54.9748 93.3722 55.0445 93.2965 54.3217 92.4388C52.9466 90.8039 51.8895 89.1754 51.2443 87.6964L50.926 86.954L50.4024 86.8968C49.9578 86.8462 49.4841 86.9433 47.3648 87.5164C45.9866 87.8858 44.4469 88.2826 43.9595 88.3786C43.1679 88.5373 43.0792 88.537 43.2252 88.3718C43.6021 87.9462 46.6792 85.2301 47.5749 84.5415C48.106 84.1223 49.0231 83.3805 49.621 82.8782C50.4742 82.1589 50.7595 81.9503 50.9519 81.9119C51.1259 81.8856 51.2453 81.8069 51.3643 81.6595C51.4977 81.4932 51.4988 81.2959 51.3595 80.6908C51.2759 80.2754 51.1606 79.8017 51.1206 79.6417C50.9562 79.083 50.6197 77.0575 50.514 75.9988C50.3668 74.5548 50.3719 73.983 50.5358 74.051C50.6063 74.0828 51.3055 74.5637 52.0842 75.1198Z" fill="#ADD7DA"/>
<path fill-rule="evenodd" clip-rule="evenodd" d="M33.5973 81.0883C33.3538 81.3775 33.0603 82.0951 33.0262 82.4642C32.9839 83.0858 33.6371 83.7037 34.4166 83.7545C35.507 83.8174 36.5636 83.0319 36.7668 82.0177C36.8905 81.382 36.7412 81.0943 36.0904 80.7519C35.0476 80.2114 34.2557 80.3181 33.5973 81.0883ZM35.3235 81.8708C35.575 82.0019 35.7684 82.1412 35.7623 82.1753C35.7002 82.3346 35.126 82.6237 34.9221 82.6003C34.5767 82.5508 34.3624 82.306 34.4609 82.0532C34.6197 81.6611 34.8366 81.6177 35.3235 81.8708Z" fill="#ADD7DA"/>
<path fill-rule="evenodd" clip-rule="evenodd" d="M68.859 92.4525C68.5301 92.8264 68.1783 93.5377 68.1588 93.9025C68.1178 94.4088 68.5761 94.9767 69.1084 95.076C69.6622 95.1899 70.4613 95.0733 70.9391 94.8074C71.7342 94.3711 72.3518 93.4845 72.4021 92.7074C72.4409 92.2416 72.1094 91.6978 71.6791 91.4923C71.2138 91.2902 71.0906 91.2935 70.3446 91.5506C69.6625 91.786 69.216 92.061 68.859 92.4525ZM70.8475 92.3732C71.1676 92.4064 71.3321 92.9433 71.1306 93.3214C70.7589 93.9975 69.7387 94.3472 69.4773 93.8835C69.3728 93.698 69.493 93.2667 69.7327 93.0009C69.9449 92.7541 70.6543 92.3642 70.8475 92.3732Z" fill="#ADD7DA"/>
</svg>
