<svg width="60" height="60" viewBox="0 0 60 60" fill="none" xmlns="http://www.w3.org/2000/svg">
<path d="M17.7184 11.0732C17.706 10.8267 17.7678 10.5843 17.8507 10.3531C17.8984 10.2207 17.9401 10.0848 17.996 9.95602C18.0596 9.81071 18.1231 9.66481 18.186 9.51892C18.2525 9.36596 18.3384 9.2183 18.4143 9.06946C18.5584 8.78591 18.7384 8.52355 18.919 8.26235C19.0926 8.01057 19.2914 7.77701 19.4962 7.55052C19.6897 7.3358 19.9162 7.10931 20.2086 7.04107C20.3656 7.0046 20.5115 6.99755 20.6709 7.02755C20.8551 7.06226 21.031 7.16461 21.1645 7.29462C21.5369 7.657 21.6893 8.19057 21.8052 8.68414C21.9463 9.28889 22.0175 9.91425 22.0752 10.5319C22.104 10.8467 21.8763 11.1367 21.5587 11.1696C21.2475 11.202 20.9498 10.9684 20.921 10.6531C20.8804 10.216 20.8233 9.78129 20.7569 9.34714C20.7057 9.083 20.6451 8.82532 20.5715 8.56707C20.5445 8.48765 20.5156 8.41001 20.4833 8.33235C20.4686 8.30117 20.4527 8.26999 20.4356 8.23998C20.4286 8.24704 20.4215 8.25411 20.415 8.26176C20.2262 8.47237 20.0497 8.68944 19.8768 8.91358C19.8915 8.89299 19.9062 8.87122 19.9209 8.85004C19.8415 8.96535 19.7521 9.0777 19.6815 9.19829C19.6056 9.32713 19.5285 9.45597 19.4526 9.58421C19.3626 9.75952 19.272 9.93424 19.1932 10.1148C19.1449 10.2266 19.0891 10.3372 19.0479 10.4513C19.0114 10.5525 18.9749 10.6525 18.9385 10.7531C18.9185 10.8184 18.9002 10.8837 18.8838 10.9496C18.8808 10.9667 18.8779 10.9826 18.8755 10.999C18.8755 11.0067 18.8755 11.0143 18.8761 11.022C18.8755 11.0149 18.8755 11.0084 18.8755 11.0014C18.8749 11.0043 18.8749 11.0067 18.8743 11.0096C18.8714 11.1414 18.8361 11.2655 18.7502 11.372C18.6543 11.4926 18.5108 11.5714 18.3572 11.5873C18.3384 11.5891 18.3202 11.5903 18.3014 11.5903C18.016 11.5926 17.7337 11.3696 17.7184 11.0732Z" fill="currentColor"/>
<path d="M27.6072 11.9559C27.5719 11.6758 27.5261 11.3976 27.479 11.1187C27.416 10.7622 27.3484 10.4069 27.2466 10.0586C27.2054 9.9351 27.1607 9.81452 27.1095 9.6951C27.0701 9.61627 27.029 9.54037 26.9842 9.46507C26.9584 9.42683 26.9319 9.38859 26.9031 9.35153C26.8654 9.30859 26.8266 9.26741 26.7854 9.22741C26.7707 9.21564 26.7554 9.20388 26.7407 9.19211C26.7289 9.18505 26.7177 9.1774 26.706 9.17093C26.6989 9.16798 26.6913 9.16505 26.6842 9.16211C26.683 9.16152 26.6813 9.16151 26.6801 9.16093C26.6789 9.16093 26.6772 9.16035 26.676 9.16035C26.673 9.16153 26.6695 9.16269 26.6666 9.16387C26.6383 9.18328 26.6107 9.20387 26.5842 9.22446C26.5336 9.27211 26.4842 9.32094 26.4354 9.37153C26.2812 9.54566 26.1448 9.72981 26.0106 9.91865C25.8253 10.2116 25.653 10.5081 25.49 10.814C25.4341 10.9305 25.3794 11.0475 25.3294 11.1664C25.2865 11.444 25.0259 11.6576 24.7423 11.6517C24.4211 11.6441 24.1758 11.374 24.1758 11.0581C24.1758 10.8958 24.2493 10.7399 24.3111 10.5928C24.3587 10.481 24.4134 10.3704 24.4699 10.2634C24.5888 10.0369 24.7058 9.80981 24.8423 9.59391C24.9923 9.35684 25.1429 9.11858 25.3182 8.89915C25.4494 8.73444 25.5853 8.57735 25.7347 8.42852C25.9342 8.23027 26.1665 8.09143 26.4389 8.0226C26.686 7.96024 26.9454 8.01554 27.176 8.10908C27.4702 8.2285 27.7025 8.4844 27.8884 8.73266C28.2173 9.17328 28.3696 9.72156 28.492 10.2493C28.5508 10.5016 28.5926 10.7587 28.6355 11.0146C28.682 11.287 28.7256 11.5599 28.7609 11.8341C28.8009 12.1476 28.5538 12.4394 28.2443 12.4718C28.2238 12.4736 28.2038 12.4747 28.1838 12.4747C27.8914 12.4753 27.6449 12.2494 27.6072 11.9559Z" fill="currentColor"/>
<path d="M22.3724 16.6572C21.7036 16.596 21.0259 16.4389 20.4329 16.1148C19.8669 15.8054 19.384 15.3565 19.0257 14.82C18.7551 14.4141 18.6016 13.9358 18.6016 13.4475C18.6016 13.1316 18.8845 12.8739 19.1951 12.881C19.5163 12.8886 19.7616 13.1581 19.7616 13.4746C19.7616 13.4946 19.7616 13.5134 19.7616 13.5328C19.764 13.5563 19.7664 13.5793 19.7693 13.6028C19.7828 13.6717 19.7981 13.7399 19.8152 13.8087C19.8346 13.867 19.8564 13.9246 19.8805 13.9811C19.9111 14.0417 19.944 14.1005 19.9781 14.1582C20.037 14.2458 20.0993 14.3288 20.1652 14.4105C20.2676 14.5264 20.3729 14.6376 20.4841 14.7447C20.5623 14.8117 20.6423 14.8753 20.7258 14.9359C20.8182 14.9971 20.9129 15.0541 21.01 15.1082C21.1335 15.1688 21.2582 15.2235 21.3877 15.273C21.5636 15.3318 21.7406 15.3812 21.9224 15.4224C22.1148 15.4589 22.3083 15.4865 22.5036 15.5059C22.7637 15.5242 23.0225 15.5265 23.2825 15.5189C23.4278 15.5106 23.5708 15.4965 23.7149 15.4747C23.8526 15.4483 23.9885 15.4165 24.1232 15.3788C24.302 15.3212 24.4767 15.2547 24.6485 15.1782C24.7991 15.1059 24.9456 15.0277 25.0903 14.9441C25.0685 14.9576 25.0468 14.9712 25.025 14.9853C25.1332 14.917 25.2415 14.8482 25.3497 14.78C25.4491 14.717 25.5409 14.6382 25.6356 14.5676C25.9298 14.3188 26.2163 14.0634 26.4833 13.7858C26.5139 13.7517 26.544 13.7175 26.5734 13.6834C26.7799 13.444 27.1346 13.3875 27.3887 13.5905C27.6287 13.7817 27.6882 14.1664 27.4811 14.4058C27.1522 14.7865 26.7781 15.1206 26.3934 15.4436C26.1957 15.6095 25.9827 15.7495 25.7651 15.8871C25.2903 16.1872 24.7744 16.4095 24.2308 16.5507C23.9555 16.6219 23.6702 16.6584 23.3866 16.6736C23.2537 16.6807 23.1207 16.6842 22.9884 16.6842C22.7831 16.6848 22.5772 16.676 22.3724 16.6572Z" fill="currentColor"/>
<path d="M37.6797 39.8525C37.6803 39.8667 37.6803 39.8808 37.6809 39.8949C37.6809 39.8808 37.6797 39.8667 37.6797 39.8525Z" fill="currentColor"/>
<path d="M46.2619 55.2124C46.2689 54.8912 46.539 54.6459 46.8555 54.6459C46.8625 54.6459 46.869 54.6459 46.876 54.6459C46.9537 54.6382 47.0296 54.6282 47.1061 54.617C47.1714 54.6035 47.2361 54.5882 47.3008 54.5706C47.379 54.5435 47.4549 54.5141 47.5308 54.4811C47.6261 54.4341 47.7191 54.3835 47.8108 54.33C48.0261 54.1876 48.2314 54.0382 48.4321 53.8764C48.5374 53.7805 48.6391 53.6852 48.7391 53.5852C48.8762 53.4305 49.0056 53.2711 49.1274 53.1028C49.1527 53.0646 49.1774 53.0263 49.2027 52.9869C49.3709 52.7192 49.7233 52.6222 49.9986 52.7869C50.2651 52.9469 50.3669 53.3152 50.1987 53.5828C50.0492 53.8205 49.8804 54.0499 49.6922 54.2588C49.4727 54.5023 49.2351 54.717 48.9803 54.9253C48.7003 55.1547 48.3832 55.3565 48.0579 55.5148C47.6796 55.6983 47.2508 55.806 46.8284 55.806C46.5125 55.806 46.2542 55.523 46.2619 55.2124Z" fill="currentColor"/>
<path d="M12.9117 57.2999C12.8058 57.2164 12.7023 57.1193 12.6211 57.0111C12.5176 56.874 12.4405 56.7299 12.3734 56.5716C12.3152 56.4352 12.2817 56.2669 12.2876 56.1187C12.2905 56.0445 12.2964 55.9745 12.3105 55.901C12.3258 55.8192 12.3558 55.7469 12.3881 55.6698C12.4505 55.5198 12.5752 55.3845 12.7052 55.2903C12.8505 55.185 13.0153 55.1298 13.187 55.0856C13.5453 54.9939 13.9324 55.025 14.2954 55.0615C14.856 55.1174 15.4131 55.2045 15.9732 55.2686C16.152 55.2815 16.329 55.2951 16.5085 55.2909C16.5255 55.2904 16.5432 55.288 16.5597 55.2868C16.5602 55.2857 16.5602 55.2839 16.5602 55.2833C16.6044 54.705 16.6173 54.1232 16.6373 53.5437C16.6597 52.9184 16.6703 52.2937 16.682 51.6683C16.7067 50.4206 16.7444 49.174 16.8073 47.9274C16.8503 47.0756 16.895 46.2238 16.9309 45.3725C16.9656 44.5648 17.0109 43.7553 17.0203 42.9464C16.352 42.997 15.6837 43.0382 15.0142 43.0753C14.7119 43.0918 14.4089 43.1035 14.1065 43.1076C14.0483 43.1088 13.9901 43.1088 13.9318 43.1088C13.9006 43.1088 13.8695 43.1088 13.8383 43.1082C13.6665 43.1053 13.4741 43.1023 13.3082 43.0512C13.1747 43.01 13.0435 42.9535 12.9447 42.85C12.8182 42.7176 12.7511 42.5446 12.7323 42.3646C12.7147 42.197 12.7329 42.0217 12.7417 41.8534C12.7499 41.701 12.7582 41.5481 12.7664 41.3957C12.7852 41.0681 12.8041 40.741 12.8258 40.4127C12.9082 39.1532 13.0211 37.896 13.1335 36.6389C13.1564 36.3883 13.1794 36.1371 13.2035 35.8865C13.1529 35.9347 13.1 35.9812 13.0447 36.0259C12.9123 36.1324 12.7752 36.2259 12.6305 36.3153C12.4911 36.4024 12.3405 36.4683 12.1899 36.5342C11.9111 36.6559 11.614 36.7318 11.311 36.7318C11.2669 36.7318 11.2228 36.7301 11.1781 36.7265C11.0098 36.7142 10.8516 36.6718 10.691 36.6265C10.4209 36.5759 10.2156 36.32 10.2221 36.0424C10.2227 35.9935 10.2303 35.9459 10.2427 35.9012C10.0774 35.6417 10.1544 35.3094 10.3933 35.1217C10.6498 34.9187 10.9651 34.7976 11.2622 34.6658C11.5157 34.5528 11.7693 34.4411 12.0234 34.3311C12.0811 34.3063 12.1393 34.2805 12.1964 34.2558C12.1275 34.2099 12.0593 34.1628 11.9917 34.1152C11.7716 33.9598 11.5669 33.784 11.3581 33.6139C11.1239 33.4233 10.888 33.2333 10.6527 33.0427C10.1897 32.6662 9.72735 32.2897 9.27202 31.905C9.03377 31.7044 8.80376 31.4949 8.57315 31.2861C8.29548 31.0349 8.04664 30.7537 7.81015 30.4643C7.55072 30.1454 7.33776 29.7925 7.18716 29.4101C7.05068 29.063 6.99302 28.6818 7.00067 28.3106C7.00832 27.907 7.17244 27.5299 7.37246 27.1875C7.526 26.924 7.70661 26.6705 7.89074 26.4275C8.29254 25.898 8.72552 25.4009 9.17732 24.9138C9.38498 24.6897 9.6144 24.4885 9.84501 24.2897C10.068 24.0973 10.298 23.912 10.5304 23.7314C11.0704 23.3119 11.6204 22.9066 12.1728 22.5025C12.6146 22.1795 13.0635 21.8665 13.513 21.5542C13.7453 21.3924 13.9742 21.2259 14.2042 21.0606C14.3995 20.92 14.5848 20.767 14.7731 20.617C14.9401 20.4717 15.106 20.3158 15.2907 20.1946C15.106 20.0788 14.9237 19.9576 14.7454 19.8299C14.193 19.4334 13.6994 18.954 13.2559 18.4404C13.1406 18.3069 13.0206 18.1751 12.9094 18.038C12.6182 17.6768 12.3511 17.3038 12.1087 16.9079C11.7263 16.2826 11.4346 15.569 11.3069 14.8466C11.2387 14.4607 11.171 14.0736 11.128 13.6835C11.0575 13.0376 10.9786 12.3934 10.981 11.7422C10.9822 11.4428 11.008 11.1451 11.0345 10.8468C11.0516 10.6633 11.0639 10.4798 11.091 10.2974C11.1233 10.0827 11.1557 9.86795 11.1875 9.65381C11.2022 9.55792 11.2298 9.46262 11.2498 9.36791C11.2751 9.25084 11.301 9.13377 11.3263 9.0167C11.3304 8.99611 11.3351 8.97611 11.3392 8.95611C11.3404 8.94787 11.3422 8.93964 11.3445 8.932C11.3463 8.92376 11.3481 8.91551 11.3498 8.90727C11.3787 8.77785 11.4198 8.65196 11.4575 8.52489C11.5051 8.36606 11.5457 8.20251 11.6046 8.0478C11.7099 7.77248 11.8063 7.49247 11.9293 7.22539C12.0087 7.05361 12.0875 6.88242 12.167 6.71064C12.3287 6.36003 12.5258 6.02294 12.7282 5.69409C12.9411 5.3476 13.18 5.02285 13.4506 4.71871C13.7441 4.38869 14.0559 4.07749 14.386 3.78335C14.6795 3.52156 14.9901 3.28861 15.3254 3.08212C15.436 3.01388 15.549 2.94916 15.6631 2.88739C15.6084 2.83915 15.5555 2.79092 15.5043 2.7415C15.3831 2.62502 15.2649 2.50737 15.1478 2.38677C14.926 2.15734 14.7083 1.9232 14.5036 1.67847C14.403 1.55846 14.3395 1.42433 14.343 1.26432C14.3465 1.11136 14.4118 0.96372 14.5224 0.858417C14.7401 0.650166 15.1395 0.63486 15.3431 0.877232C15.6514 1.2455 15.9843 1.59317 16.3296 1.92672C16.4114 1.99849 16.4955 2.06674 16.5838 2.13203C16.6126 2.15086 16.6426 2.16851 16.6738 2.18557C16.7079 2.20204 16.742 2.21792 16.7779 2.23087C16.8373 2.25263 16.8897 2.28499 16.935 2.32558C17.2021 2.23205 17.475 2.15322 17.7492 2.08733C17.9886 2.02968 18.2304 1.98851 18.4728 1.94615C18.6104 1.92203 18.7487 1.89379 18.8875 1.87791C19.0516 1.85909 19.2169 1.83143 19.3822 1.82319C19.5552 1.81437 19.7282 1.80436 19.9011 1.80201C20.0111 1.67494 20.1741 1.59553 20.3517 1.60023C20.3982 1.60141 20.4447 1.60317 20.4911 1.60494C20.55 1.20549 20.6288 0.810761 20.7271 0.418965C20.8029 0.111882 21.1489 -0.0634226 21.4448 0.0212899C21.7571 0.110709 21.9189 0.433088 21.843 0.738994C21.8166 0.844297 21.7924 0.949013 21.7683 1.05373C21.7254 1.26139 21.6883 1.46963 21.6565 1.67847C21.8454 1.69965 22.0336 1.72671 22.2201 1.76201C22.5113 1.81672 22.8019 1.87555 23.0937 1.92967C23.3831 1.98379 23.6737 2.03262 23.9614 2.09263C24.4332 2.19028 24.9015 2.30206 25.3645 2.43501C25.4086 2.32559 25.4551 2.21675 25.5086 2.11203C25.7157 1.70318 25.9363 1.30433 26.1716 0.911361C26.334 0.640163 26.6963 0.548981 26.9675 0.711347C27.2387 0.874301 27.3299 1.23609 27.1676 1.50729C26.9993 1.78908 26.8375 2.07321 26.6811 2.36088C26.6169 2.48736 26.554 2.61267 26.4963 2.74209C26.4893 2.75856 26.4816 2.77503 26.4752 2.7915C26.8417 2.92033 27.2046 3.06093 27.5576 3.22271C27.8476 3.35625 28.1376 3.48862 28.4218 3.63452C28.7206 3.78806 29.0124 3.94984 29.3007 4.12161C29.5448 4.26633 29.7825 4.42575 30.016 4.58753C30.2802 4.77107 30.5466 4.95226 30.8025 5.14757C30.839 5.17522 30.8743 5.20286 30.9102 5.23051C31.0749 4.98226 31.2761 4.75519 31.4861 4.54634C31.7773 4.25691 32.0879 3.99043 32.4039 3.72864C32.648 3.52627 33.038 3.61568 33.2145 3.85864C33.3027 3.98159 33.3404 4.13632 33.318 4.28633C33.2933 4.44635 33.2063 4.56812 33.0845 4.6693C33.0715 4.67989 33.058 4.69107 33.0445 4.70225C32.7556 4.94639 32.478 5.19875 32.2085 5.46466C32.1503 5.53054 32.0915 5.5976 32.0332 5.66408C31.9838 5.71996 31.9403 5.7835 31.8962 5.84409C31.8632 5.89468 31.8309 5.9447 31.8009 5.99588C31.9503 6.1406 32.0927 6.2906 32.2285 6.44767C32.6421 6.92771 33.0062 7.44011 33.3563 7.9678C33.4169 8.05957 33.4763 8.15252 33.5345 8.24664C33.6157 8.10957 33.7528 8.00662 33.9099 7.96956C34.1893 7.8319 34.464 7.68189 34.7529 7.56483C35.0441 7.44717 35.3358 7.33187 35.6306 7.22245C36.1859 7.01596 36.7448 6.81123 37.3113 6.63768C37.4578 6.59238 37.6037 6.58532 37.7478 6.64768C37.8908 6.70945 38.0049 6.82887 38.0602 6.97477C38.1667 7.25597 38.0255 7.63011 37.7231 7.72306C37.3107 7.84954 36.903 7.99544 36.4971 8.14252C36.0524 8.30312 35.6118 8.47019 35.1729 8.64667C34.9341 8.75668 34.6981 8.86846 34.4646 8.98964C34.3552 9.04612 34.2363 9.10199 34.1122 9.11494C34.091 9.11729 34.0693 9.11847 34.0481 9.11847C34.0334 9.11847 34.0187 9.11789 34.0034 9.11671C34.0934 9.30791 34.1769 9.50203 34.2528 9.69851C34.4728 10.2691 34.5934 10.8786 34.6352 11.4875C34.6799 12.1364 34.6734 12.7858 34.5987 13.4323C34.5605 13.7653 34.4987 14.0912 34.4228 14.4171C34.3493 14.7366 34.234 15.0419 34.1181 15.3472C34.0046 15.6455 33.8451 15.9255 33.694 16.2055C33.6563 16.2743 33.6087 16.3396 33.5669 16.4061C33.521 16.4785 33.4769 16.5532 33.4263 16.6226C33.3422 16.7385 33.261 16.8567 33.1722 16.9691C32.7815 17.4632 32.365 17.9345 31.925 18.3845C31.475 18.8457 31.0161 19.3022 30.509 19.7017C30.4013 19.787 30.296 19.8793 30.1825 19.957C30.0248 20.0646 29.8672 20.1711 29.7095 20.2788C29.5848 20.3635 29.453 20.4382 29.3254 20.517C29.206 20.59 29.0871 20.6641 28.9653 20.7329C28.6612 20.9053 28.3565 21.0724 28.0476 21.2353C27.9406 21.2918 27.8335 21.3447 27.7241 21.3959C27.5764 21.4653 27.4287 21.543 27.2781 21.6065C27.3387 21.6995 27.3993 21.7924 27.4664 21.8807C27.6352 22.1042 27.8088 22.3236 27.9853 22.5413C28.0988 22.6725 28.2123 22.8037 28.3265 22.9349C28.4265 23.0507 28.5359 23.159 28.6412 23.2696C28.8548 23.4943 29.0812 23.7026 29.3101 23.9114C29.4883 24.0555 29.6666 24.1997 29.8448 24.3438C29.9978 24.4679 30.1643 24.5785 30.3243 24.6932C30.4719 24.7891 30.6196 24.8856 30.7678 24.9815C30.9073 25.0733 31.0596 25.1497 31.2049 25.2315C31.3226 25.2898 31.4408 25.3474 31.5591 25.4056C31.6791 25.4656 31.8085 25.5109 31.9332 25.5615C32.0568 25.6045 32.1809 25.6492 32.3074 25.6833C32.4527 25.7233 32.5968 25.7592 32.7439 25.7921C32.9286 25.8263 33.1121 25.8563 33.298 25.8786C33.3798 25.8833 33.4604 25.8857 33.5422 25.8863C33.8828 25.8692 34.2193 25.8263 34.5558 25.7733C34.8988 25.7121 35.2352 25.6351 35.57 25.5362C35.8929 25.4315 36.2071 25.3121 36.5171 25.1744C36.7366 25.0715 36.9519 24.9633 37.1654 24.8485C37.3419 24.7544 37.5496 24.7626 37.7166 24.8521C37.7166 24.8456 37.7172 24.8397 37.7172 24.8333C37.7537 23.4902 37.7849 22.1472 37.8166 20.8041C37.8302 20.2541 37.8425 19.7028 37.8672 19.1528C37.8843 18.7728 37.9025 18.3927 37.919 18.0121C37.9337 17.6797 37.9631 17.3474 37.9855 17.0156C38.0308 16.3308 38.089 15.6478 38.1367 14.9636C38.142 14.8936 38.1461 14.8236 38.1502 14.753C38.0325 14.5824 37.9972 14.3518 38.1049 14.1665C38.2314 13.9483 38.3808 13.7406 38.519 13.53C38.7038 13.2506 38.8873 12.9717 39.072 12.6923C39.4109 12.1793 39.7486 11.6657 40.0874 11.1528C40.768 10.1221 41.4481 9.0914 42.1282 8.06015C42.4052 7.63894 42.6835 7.21833 42.9606 6.79712C43.1694 6.48063 43.3788 6.16472 43.5871 5.84822C43.5942 5.83704 43.6018 5.82704 43.6094 5.81704C43.6759 5.87939 43.743 5.94115 43.8101 6.00351C44.0301 6.20765 44.2507 6.41179 44.4713 6.61652C44.6884 6.81712 44.9048 7.01831 45.1219 7.2195C46.0414 8.07016 46.9597 8.92316 47.8786 9.77499C48.6857 10.5233 49.4928 11.2716 50.3 12.0199C50.3482 12.0646 50.3894 12.1134 50.4212 12.167C50.427 12.1764 50.4329 12.1858 50.4376 12.1958C50.4429 12.2052 50.4482 12.2152 50.4523 12.2252C50.4523 12.2252 50.4529 12.2252 50.4529 12.2258C50.4576 12.2352 50.4618 12.2458 50.4653 12.2558C50.4694 12.2664 50.4729 12.2764 50.4765 12.287C50.48 12.297 50.4829 12.3075 50.4853 12.3175C50.4859 12.3187 50.4859 12.3199 50.4859 12.3205C50.4882 12.3293 50.49 12.3375 50.4918 12.3458C50.4929 12.3487 50.4929 12.3523 50.4935 12.3552C50.4947 12.3611 50.4959 12.3676 50.4965 12.374C50.4994 12.3887 50.5006 12.4046 50.5018 12.4199C50.5047 12.4605 50.5035 12.4999 50.4988 12.5393C50.5059 12.5699 50.51 12.6017 50.5118 12.6335C50.5576 13.8453 50.6229 15.0572 50.6706 16.269C50.7218 17.578 50.7847 18.8863 50.8418 20.1946C50.9518 22.7272 51.063 25.2598 51.173 27.7917C51.2806 30.2737 51.3912 32.7562 51.4977 35.2382C51.6065 37.7678 51.7189 40.2968 51.8289 42.8258C51.893 44.3101 51.9583 45.7955 52.0231 47.2797C52.0301 47.3079 52.0348 47.3374 52.0366 47.368C52.1025 48.5322 52.1289 49.694 52.1007 50.8594C52.086 51.4648 52.0578 52.0736 51.9695 52.6725C51.8795 53.2837 51.7613 53.8926 51.5936 54.4873C51.5112 54.7809 51.4012 55.065 51.2801 55.3445C51.1542 55.6339 50.9853 55.9016 50.8053 56.1593C50.4565 56.6575 49.9788 57.0446 49.4117 57.2687C49.1428 57.3752 48.8634 57.4511 48.5816 57.517C48.2833 57.5864 47.9839 57.6488 47.6821 57.7035C47.608 57.717 47.5345 57.7299 47.4597 57.7423C47.4109 57.7511 47.3621 57.7611 47.3127 57.7682C47.2609 57.7788 47.2091 57.7847 47.1574 57.7929C46.9932 57.8182 46.8291 57.8429 46.665 57.8664C46.3579 57.9111 46.0502 57.9447 45.7414 57.9688C45.5637 57.9829 45.386 57.9882 45.2078 57.9882C44.7654 57.9882 44.323 57.9529 43.8824 57.9147C43.5847 57.8888 43.2841 57.8553 42.9888 57.8052C42.6652 57.7511 42.3417 57.697 42.0258 57.6058C41.714 57.5158 41.4146 57.4023 41.1163 57.2758C40.4492 56.9934 39.8633 56.5122 39.5179 55.8704C39.3226 55.5068 39.2309 55.0968 39.1432 54.6968C39.0773 54.3926 39.035 54.0814 38.9885 53.7738C38.9044 53.2137 38.8285 52.6531 38.7385 52.0942C38.6761 51.7395 38.6132 51.3847 38.5496 51.03C38.4737 50.6047 38.3943 50.18 38.339 49.7511C38.2849 49.3299 38.2437 48.9087 38.2196 48.4839C38.2067 48.2663 38.2025 48.048 38.2049 47.8303C38.2055 47.7974 38.2061 47.7639 38.2078 47.7304C38.1878 47.6086 38.1726 47.4868 38.1578 47.3644C38.1249 47.0809 38.1014 46.7962 38.0778 46.512C38.0278 45.909 37.9866 45.3054 37.9531 44.7013C37.9196 44.0995 37.8943 43.4971 37.8578 42.8953C37.8196 42.2782 37.7719 41.6628 37.7366 41.0457C37.7166 40.701 37.7002 40.3556 37.686 40.0103C37.6872 40.035 37.6878 40.0597 37.689 40.0844C37.686 40.0244 37.6843 39.9638 37.6819 39.9038C37.6819 39.9003 37.6813 39.8968 37.6813 39.8927C37.6807 39.8786 37.6801 39.8644 37.6796 39.8503C37.6278 38.592 37.5866 37.3331 37.5596 36.0741C37.5325 34.8146 37.5401 33.5557 37.5496 32.2962C37.566 30.1578 37.6266 28.0211 37.686 25.8839C37.1954 26.1457 36.6907 26.381 36.1642 26.5599C35.6094 26.7481 35.0429 26.8728 34.4646 26.9581C34.1852 26.9993 33.9046 27.0287 33.6234 27.0405C33.5804 27.0422 33.5369 27.0434 33.4939 27.0434C33.2269 27.0434 32.9627 27.0099 32.6998 26.9616C32.0726 26.8475 31.4703 26.6534 30.8979 26.371C30.4049 26.128 29.936 25.8427 29.4907 25.5186C29.3713 25.4315 29.2507 25.3439 29.1307 25.2568C29.0206 25.1768 28.9171 25.0844 28.8112 24.9991C28.7094 24.9174 28.6071 24.8374 28.5118 24.7491C28.383 24.6297 28.2541 24.5114 28.1247 24.3926C28.0282 24.3032 27.9359 24.2103 27.8447 24.1155C27.9994 24.6232 28.1317 25.1368 28.2665 25.6515C28.4218 26.2475 28.5924 26.8393 28.7236 27.4411C28.8636 28.08 29.003 28.7194 29.1436 29.3583C29.4154 30.5937 29.673 31.832 29.9307 33.0704C30.1784 34.2646 30.4684 35.4529 30.6696 36.6565C30.7743 37.2836 30.8726 37.9131 30.9237 38.5479C30.9426 38.7796 30.9584 39.0091 30.9573 39.242C30.9555 39.6303 30.8773 40.0027 30.6796 40.338C30.4113 40.7933 29.8748 40.8992 29.4013 41.0104C28.7977 41.1528 28.1876 41.2663 27.5782 41.3775C26.9764 41.4869 26.3734 41.5899 25.7692 41.684C25.5227 41.7228 25.2762 41.7611 25.0297 41.7999C25.0439 41.8652 25.045 41.9334 25.0309 42.0028C25.0303 42.0034 25.0303 42.0052 25.0303 42.0058C25.0186 42.257 25.0333 42.5093 25.0397 42.7605C25.0468 42.9947 25.0562 43.2276 25.0644 43.4618C25.0639 43.4371 25.0627 43.4123 25.0615 43.3876C25.0703 43.6059 25.0792 43.8253 25.0874 44.0436C25.088 44.0536 25.088 44.0636 25.0886 44.0736C25.1521 45.346 25.2474 46.615 25.3615 47.8839C25.4721 49.111 25.5739 50.3405 25.7204 51.5636C25.8033 52.2525 25.8992 52.939 26.0081 53.6232C26.0881 54.0779 26.1739 54.5321 26.261 54.985C26.3022 55.2009 26.3416 55.4168 26.3816 55.6327C26.7087 55.3898 27.0558 55.1739 27.4282 55.0039C27.7105 54.875 28.0059 54.7756 28.3118 54.7185C28.5841 54.668 28.8553 54.6691 29.1295 54.6974C29.4142 54.7268 29.7095 54.838 29.9395 55.0074C30.1813 55.1856 30.3613 55.4098 30.4725 55.6892C30.5702 55.9351 30.5508 56.2216 30.4666 56.4669C30.3772 56.7269 30.1931 56.937 29.9901 57.1176C29.7748 57.3093 29.536 57.4699 29.2742 57.5899C28.9601 57.7347 28.6294 57.8153 28.2859 57.85C28.1841 57.8606 28.0818 57.8647 27.9794 57.8647C27.747 57.8647 27.5135 57.8423 27.2829 57.82C27.0205 57.7947 26.7563 57.7335 26.5069 57.6511C26.291 57.5805 26.134 57.4023 26.0957 57.1917C25.8875 57.2111 25.6768 57.1411 25.5433 56.957C25.4598 56.8428 25.4121 56.7275 25.3833 56.5893C25.3686 56.5187 25.3545 56.4475 25.3409 56.3769C25.3121 56.2257 25.2845 56.0751 25.2568 55.9234C25.1468 55.328 25.0268 54.7332 24.9221 54.1361C24.7038 52.8849 24.5509 51.6248 24.4268 50.3605C24.3256 49.3322 24.2291 48.3033 24.1426 47.2733C24.0532 46.2202 23.9702 45.1643 23.9314 44.1077C23.9226 43.8894 23.9144 43.6706 23.9055 43.4518C23.8955 43.2006 23.8867 42.9494 23.8791 42.6982C23.8744 42.5411 23.8661 42.3835 23.8667 42.2258C23.8673 42.1476 23.8638 42.0664 23.8667 41.9858C23.4237 42.0575 22.9807 42.1299 22.5384 42.204C21.3441 42.4129 20.1499 42.6523 18.9434 42.7758C18.6898 42.8017 18.4357 42.8264 18.1816 42.8488C18.178 43.3871 18.1545 43.9259 18.1315 44.4636C18.1021 45.1437 18.0721 45.8237 18.0404 46.5032C17.9815 47.7509 17.9151 48.9969 17.8756 50.2453C17.8368 51.4653 17.8304 52.6866 17.7856 53.9073C17.7751 54.2009 17.7621 54.4938 17.7492 54.7874C17.7427 54.9315 17.7362 55.0762 17.7274 55.2203C17.7203 55.3321 17.7127 55.4439 17.6974 55.5539C17.7056 55.5568 17.7133 55.5604 17.7209 55.5633C18.008 55.6875 18.1521 56.0381 18.0227 56.3263C17.8992 56.6005 17.7098 56.8205 17.4921 57.0246C17.2103 57.2882 16.8567 57.4452 16.5079 57.5999C15.9914 57.8288 15.4384 57.9764 14.873 57.9982C14.8436 57.9994 14.8136 58 14.7836 58C14.1077 58.0023 13.4347 57.7111 12.9117 57.2999ZM13.6871 56.1898C13.6188 56.1945 13.5518 56.201 13.483 56.2093C13.4824 56.2098 13.4818 56.2098 13.4806 56.2098C13.4894 56.2269 13.4982 56.244 13.5082 56.2604C13.52 56.2763 13.5324 56.2916 13.5441 56.3075C13.5559 56.3204 13.5682 56.3334 13.5812 56.3457C13.6341 56.3904 13.6883 56.4328 13.7436 56.474C13.8259 56.5263 13.91 56.5758 13.9965 56.6234C14.0859 56.6669 14.1771 56.7057 14.2701 56.7428C14.3365 56.7652 14.4036 56.7852 14.4719 56.8028C14.5377 56.8152 14.6024 56.8252 14.6683 56.8334C14.7566 56.8393 14.8436 56.8411 14.9319 56.8387C15.0089 56.8322 15.0842 56.8234 15.1601 56.8122C15.2931 56.7869 15.4231 56.7558 15.5531 56.7187C15.7902 56.6422 16.019 56.5493 16.2467 56.4499C16.2043 56.4475 16.1626 56.4451 16.1208 56.4416C15.8031 56.4187 15.4872 56.3822 15.1713 56.341C14.7889 56.2916 14.4071 56.2381 14.0236 56.1998C13.9306 56.1934 13.8377 56.1893 13.7447 56.1893C13.7247 56.1898 13.7059 56.1898 13.6871 56.1898ZM39.4462 49.2699C39.4779 49.6023 39.5362 49.9329 39.5891 50.2623C39.7085 50.9324 39.8327 51.6018 39.9397 52.2742C40.0409 52.9055 40.1215 53.5396 40.2233 54.1703C40.2739 54.445 40.3292 54.7174 40.4062 54.9856C40.438 55.0815 40.4727 55.1756 40.5121 55.2686C40.541 55.3262 40.5704 55.3821 40.6027 55.4374C40.6416 55.4945 40.6821 55.5498 40.7245 55.6045C40.7739 55.661 40.8245 55.7163 40.8775 55.7692C40.951 55.8333 41.0257 55.8933 41.1045 55.9504C41.2128 56.0204 41.3228 56.0851 41.4363 56.1451C41.5822 56.2169 41.7316 56.2792 41.8817 56.3422C42.0781 56.4104 42.2752 56.4722 42.4752 56.5304C42.7064 56.5793 42.9365 56.6228 43.1706 56.6622C43.4306 56.7063 43.6942 56.7316 43.9559 56.7611C44.2118 56.7834 44.4672 56.8052 44.7236 56.8158C45.0013 56.8281 45.2772 56.8287 45.5543 56.8216C46.0767 56.7805 46.5926 56.7099 47.1103 56.6287C47.1762 56.6163 47.2421 56.604 47.308 56.5957C47.3762 56.5846 47.4439 56.571 47.5115 56.5587C47.6521 56.5334 47.7915 56.5046 47.9315 56.4752C48.1986 56.4193 48.464 56.3557 48.7269 56.2822C48.8463 56.2434 48.9622 56.2004 49.0775 56.1516C49.1646 56.1081 49.2481 56.0616 49.3317 56.0116C49.3911 55.9698 49.4493 55.9275 49.5064 55.8828C49.5617 55.8322 49.6152 55.781 49.6682 55.728C49.7576 55.621 49.8417 55.5115 49.9235 55.3974C50.0023 55.2745 50.0764 55.1509 50.1458 55.0227C50.2206 54.8662 50.2894 54.7085 50.3535 54.5473C50.4617 54.2332 50.5471 53.9149 50.6229 53.5914C50.7324 53.0649 50.8229 52.539 50.8777 52.0042C50.9259 51.4083 50.9418 50.8123 50.9488 50.2141C50.9559 49.6293 50.95 49.044 50.9288 48.4592C50.9253 48.378 50.9218 48.2969 50.9183 48.2157C50.2517 48.3486 49.557 48.3292 48.8804 48.3345C48.0192 48.3416 47.1585 48.3592 46.2979 48.3927C45.6867 48.4245 45.076 48.4616 44.466 48.5098C43.853 48.5581 43.2418 48.6269 42.63 48.6893C42.267 48.7269 41.904 48.7404 41.5405 48.7404C41.2728 48.7404 41.0051 48.7328 40.7374 48.7216C40.4239 48.7087 40.1033 48.6951 39.7915 48.6551C39.6562 48.6381 39.5221 48.621 39.3885 48.5986C39.4056 48.8228 39.425 49.0457 39.4462 49.2699ZM28.7271 55.8392C28.6624 55.8439 28.5977 55.8504 28.5324 55.8598C28.4406 55.8786 28.35 55.901 28.2594 55.9269C28.1459 55.9651 28.0353 56.0069 27.9253 56.0533C27.7194 56.1516 27.5258 56.2657 27.3311 56.3834C27.2293 56.454 27.1287 56.5257 27.0299 56.5993C27.0605 56.6069 27.0911 56.6152 27.1217 56.6222C27.2934 56.6534 27.4646 56.6758 27.6376 56.6928C27.787 56.6999 27.9347 56.7052 28.0841 56.7034C28.1712 56.6975 28.2576 56.6887 28.3441 56.6763C28.4165 56.6622 28.4865 56.6458 28.5565 56.6258C28.6306 56.6011 28.703 56.574 28.7747 56.5452C28.8353 56.5163 28.8942 56.4851 28.9524 56.4516C29.0259 56.4034 29.0954 56.3522 29.1648 56.2981C29.2148 56.2551 29.263 56.2104 29.3107 56.164C29.326 56.1463 29.3413 56.1275 29.3554 56.1092C29.3583 56.1057 29.3607 56.1022 29.363 56.0981C29.366 56.0934 29.3683 56.0881 29.3707 56.0834C29.3713 56.0822 29.3718 56.0804 29.3724 56.0786C29.3724 56.0775 29.3724 56.0751 29.3724 56.0745V56.0739C29.3724 56.0733 29.3719 56.0734 29.3719 56.0722C29.3677 56.0651 29.3636 56.0575 29.3601 56.0504C29.3548 56.0428 29.3489 56.0357 29.3436 56.0281C29.3295 56.0133 29.3154 55.9992 29.3012 55.9851C29.2883 55.9745 29.2754 55.9633 29.2618 55.9534C29.2424 55.9416 29.223 55.9298 29.2036 55.9175C29.183 55.9081 29.1618 55.8986 29.1413 55.8904C29.1095 55.8804 29.0783 55.8716 29.0459 55.8633C29.0012 55.8545 28.9559 55.848 28.9106 55.8427C28.8618 55.8404 28.813 55.8392 28.7641 55.8392C28.753 55.8386 28.74 55.8392 28.7271 55.8392ZM39.312 47.245C39.3185 47.2997 39.325 47.3544 39.3326 47.4091C39.5444 47.4521 39.7574 47.4815 39.9721 47.5092C40.3133 47.5362 40.6545 47.5574 40.9963 47.5709C41.3393 47.5856 41.6805 47.5809 42.0234 47.5715C42.6329 47.525 43.24 47.4556 43.8495 47.3986C44.4642 47.3409 45.0802 47.3015 45.6967 47.2632C46.945 47.1874 48.1963 47.1809 49.447 47.1697C49.6276 47.1685 49.8088 47.165 49.9894 47.1579C50.2082 47.1438 50.4253 47.1232 50.6423 47.0885C50.6906 47.0791 50.7388 47.0691 50.7865 47.0579C50.8077 47.0532 50.8294 47.0479 50.8506 47.0426C50.813 46.1808 50.7753 45.319 50.7377 44.4577C49.9317 44.4495 49.1258 44.4289 48.3198 44.4118C47.0627 44.3865 45.8061 44.326 44.5478 44.3165C43.6159 44.3095 42.6841 44.3101 41.7516 44.296C41.2645 44.2883 40.7786 44.2748 40.2921 44.2542C40.0721 44.2454 39.8503 44.233 39.6309 44.2095C39.5003 44.1954 39.3691 44.1848 39.2391 44.1654C39.1873 44.1583 39.1361 44.1501 39.0844 44.1418C39.1044 44.536 39.1261 44.9301 39.1526 45.3243C39.2462 45.2643 39.3567 45.2302 39.4744 45.2331C39.7085 45.2378 39.9427 45.259 40.1768 45.269C40.4404 45.2807 40.7039 45.2907 40.9675 45.3019C41.5158 45.3254 42.064 45.3554 42.6123 45.3754C43.6918 45.4143 44.7742 45.436 45.8549 45.3984C46.5714 45.3613 47.2862 45.3184 47.9992 45.2331C48.3134 45.1954 48.6051 45.4384 48.6369 45.7496C48.6704 46.0673 48.4345 46.3496 48.121 46.3873C47.0079 46.5208 45.8837 46.5755 44.7631 46.5755C44.6636 46.5755 44.5636 46.575 44.4636 46.575C43.8195 46.5697 43.1765 46.5567 42.5329 46.5338C41.9275 46.5114 41.3222 46.4773 40.7169 46.4532C40.4868 46.4438 40.2574 46.4344 40.028 46.4244C39.8344 46.4155 39.6415 46.3979 39.4479 46.3938C39.3697 46.392 39.2944 46.3738 39.2262 46.3426C39.2491 46.6438 39.2767 46.945 39.312 47.245ZM48.2804 37.5678C48.6016 37.5748 48.8469 37.8454 48.8469 38.1613C48.8469 38.1919 48.8469 38.2231 48.8475 38.2537C48.8887 39.182 48.9763 40.1086 49.0358 41.0363C49.0658 41.5093 49.094 41.9828 49.1252 42.4558C49.1428 42.7252 49.1546 42.9982 49.1863 43.2665C49.3164 43.2694 49.4464 43.2718 49.5764 43.2741C49.947 43.2812 50.317 43.2906 50.6876 43.2953C50.6412 42.2299 50.5941 41.1645 50.5482 40.0997C50.4388 37.5707 50.3282 35.0411 50.217 32.5115C50.1047 29.9342 49.9935 27.357 49.8799 24.7797C49.7705 22.2972 49.6635 19.8146 49.5552 17.3315C49.5117 16.3408 49.4652 15.349 49.4211 14.3577C49.4046 14.3883 49.3887 14.4183 49.3728 14.4489C49.3128 14.5713 49.2534 14.6936 49.1922 14.8154C49.1063 14.9866 49.0181 15.1684 48.8893 15.3119C48.8951 15.3484 48.8969 15.386 48.894 15.4237C48.891 15.4596 48.8875 15.4937 48.8834 15.529C48.8628 15.8155 48.8575 16.1026 48.8493 16.3896C48.8404 16.7008 48.8304 17.0114 48.8216 17.3232C48.8022 17.9821 48.7893 18.6416 48.7763 19.301C48.7522 20.5664 48.7481 21.8324 48.7493 23.0978C48.7504 24.2956 48.7998 25.4933 48.8163 26.691C48.8346 28.0006 48.8405 29.3095 48.8405 30.619C48.8405 32.0244 48.8446 33.4298 48.8381 34.8358C48.8363 35.147 48.564 35.4023 48.2569 35.4023C48.2528 35.4023 48.2486 35.4023 48.2439 35.4023C47.9239 35.3953 47.6762 35.1247 47.6774 34.8087C47.6833 33.5834 47.6798 32.3574 47.6798 31.1314C47.6798 29.8919 47.6845 28.653 47.6662 27.414C47.6474 26.0833 47.6121 24.7521 47.5921 23.4214C47.5733 22.1489 47.5945 20.8759 47.6109 19.6034C47.6204 18.8692 47.6392 18.1351 47.6586 17.4009C47.668 17.072 47.6786 16.7426 47.688 16.4143C47.698 16.052 47.6939 15.6843 47.7404 15.3243C47.738 15.349 47.7356 15.3737 47.7333 15.3984C47.7339 15.3984 47.7339 15.3978 47.7339 15.3978C47.7368 15.3566 47.7427 15.3166 47.7521 15.2778C47.6674 15.1907 47.5851 15.1013 47.5039 15.0113C47.3009 14.786 47.1033 14.556 46.9056 14.3259C46.8121 14.2177 46.7191 14.1071 46.6256 13.9977C46.575 14.1571 46.5238 14.3165 46.4702 14.4748C46.3644 14.7907 46.2497 15.106 46.1038 15.406C46.0514 15.5137 45.9855 15.6084 45.9167 15.7061C45.8761 15.7508 45.8349 15.7955 45.7937 15.8396C45.7867 15.8466 45.7802 15.8543 45.7726 15.8614C45.7714 15.9343 45.7714 16.0073 45.7731 16.0802C45.8267 17.3374 45.8578 18.5928 45.8367 19.8505C45.8155 21.1182 45.7814 22.386 45.7414 23.6532C45.6984 25.015 45.6555 26.3775 45.6214 27.7399C45.5908 28.9694 45.5731 30.2001 45.5573 31.4302C45.5243 33.9334 45.499 36.4365 45.4966 38.9402C45.4955 39.685 45.4949 40.4304 45.4996 41.1751C45.5037 41.8011 45.5025 42.4276 45.5261 43.0529C45.5261 43.0559 45.5267 43.0588 45.5267 43.0617C45.5284 43.0976 45.5302 43.1341 45.5325 43.1694C46.1014 43.1829 46.6691 43.2041 47.238 43.2218C47.4974 43.23 47.7574 43.2365 48.0169 43.2423C47.9945 43.0041 47.9833 42.7641 47.968 42.5258C47.9351 42.0322 47.9057 41.5387 47.8745 41.0451C47.8421 40.5421 47.8045 40.0397 47.7686 39.5368C47.7356 39.0702 47.6874 38.6014 47.6874 38.1331C47.6874 37.8213 47.9627 37.5666 48.268 37.5666C48.2716 37.5678 48.2763 37.5678 48.2804 37.5678ZM42.737 14.7883C42.4476 15.2037 42.1629 15.6337 41.8134 16.002C41.754 16.0643 41.6881 16.122 41.6181 16.1726C41.6187 16.1826 41.6193 16.1931 41.6193 16.2031C41.6258 16.3761 41.6293 16.5491 41.6299 16.722C41.6305 17.0091 41.6205 17.2956 41.6111 17.5827C41.5887 18.2533 41.5687 18.9251 41.5516 19.5964C41.5205 20.8518 41.5087 22.1072 41.4857 23.3625C41.4752 23.9544 41.4675 24.5468 41.4628 25.1397C41.464 25.1397 41.4657 25.1403 41.4675 25.1403C41.7746 25.2162 41.9499 25.5627 41.8652 25.858C41.8064 26.0645 41.6464 26.2045 41.4563 26.2539C41.4552 26.5587 41.454 26.8634 41.4534 27.1675C41.4499 28.3841 41.4581 29.6001 41.4481 30.8167C41.4369 32.1173 41.4199 33.4174 41.4146 34.7181C41.4099 35.9435 41.401 37.1695 41.4463 38.3937C41.4493 38.4755 41.4522 38.5573 41.4552 38.639C41.4881 39.3791 41.5328 40.1186 41.5975 40.8569C41.6593 41.5616 41.7058 42.2664 41.7422 42.9729C41.7452 43.0294 41.7428 43.0847 41.7334 43.1376C42.3358 43.1482 42.9388 43.1494 43.5412 43.1523C43.8177 43.1535 44.0942 43.1541 44.3707 43.1553C44.3695 43.1135 44.3677 43.0717 44.366 43.0306C44.3554 42.7647 44.353 42.4982 44.3489 42.2317C44.3389 41.5963 44.3371 40.9604 44.3354 40.3251C44.3313 39.0855 44.3377 37.8466 44.3442 36.6071C44.3577 34.1104 44.3836 31.6132 44.4324 29.1171C44.483 26.5163 44.5801 23.9173 44.6472 21.3177C44.6654 20.5711 44.6825 19.8246 44.6831 19.0781C44.6842 18.3033 44.6695 17.5297 44.6425 16.755C44.6336 16.5367 44.6236 16.319 44.6154 16.102C44.6125 16.032 44.6083 15.9567 44.6078 15.8802C44.4795 15.7708 44.3677 15.6384 44.2565 15.5178C44.1136 15.3631 43.9718 15.2066 43.8306 15.0495C43.6936 14.8972 43.5571 14.7436 43.4212 14.5895C43.3188 14.4724 43.2176 14.3536 43.1135 14.2383C42.9888 14.4218 42.8641 14.606 42.737 14.7883ZM39.0203 42.9635C39.1156 42.9717 39.2103 42.9894 39.3044 43.0029C39.4597 43.0259 39.6156 43.0429 39.7715 43.0594C40.0433 43.0782 40.3157 43.0929 40.588 43.1041C40.5874 43.1006 40.5869 43.097 40.5869 43.0935C40.5598 42.5617 40.5286 42.0305 40.4868 41.4993C40.4404 40.9186 40.3839 40.3386 40.3498 39.7568C40.2762 38.4914 40.2503 37.2272 40.2503 35.9594C40.2503 34.7064 40.2562 33.4539 40.2709 32.2009C40.2856 30.9273 40.288 29.6536 40.2898 28.3794C40.2909 27.6023 40.2927 26.824 40.2968 26.0469C40.0486 25.9869 39.8003 25.9263 39.5515 25.8663C39.3173 25.8098 39.0832 25.7527 38.8514 25.6868C38.8285 26.5446 38.8043 27.4023 38.7796 28.26C38.7432 29.5283 38.7238 30.7966 38.7114 32.0656C38.6996 33.3192 38.6949 34.5734 38.7143 35.8271C38.7343 37.126 38.7855 38.4249 38.8326 39.7238C38.8344 39.7685 38.8361 39.8133 38.8379 39.8574C38.8379 39.8591 38.8379 39.8615 38.8385 39.8632C38.8385 39.8691 38.8391 39.8744 38.8391 39.8803C38.8391 39.8874 38.8397 39.8933 38.8403 39.8997C38.8403 39.9027 38.8408 39.9062 38.8408 39.9091C38.8438 39.9697 38.8455 40.0309 38.8485 40.0909C38.8479 40.0903 38.8479 40.0903 38.8479 40.0903C38.8897 41.0486 38.9626 42.0058 39.0203 42.9635ZM16.635 21.1182C16.5803 21.4177 16.5255 21.7159 16.4708 22.0154C16.3443 22.7043 16.2196 23.3937 16.0943 24.0832C15.8826 25.2521 15.6684 26.4216 15.4796 27.5946C15.2678 28.9089 15.0654 30.2231 14.8825 31.5414C14.7107 32.7833 14.5619 34.0269 14.4307 35.2735C14.3413 36.1212 14.2671 36.9701 14.1889 37.819C14.1253 38.5508 14.0653 39.282 14.0136 40.015C13.9871 40.388 13.9636 40.761 13.9412 41.1339C13.9247 41.4034 13.903 41.6758 13.8924 41.947C14.0459 41.9499 14.2001 41.9469 14.3548 41.9446C14.3565 41.9446 14.3577 41.9446 14.3601 41.9446C15.386 41.9011 16.4126 41.8417 17.435 41.754C17.9586 41.7093 18.4857 41.6722 19.0069 41.6028C19.2805 41.5669 19.557 41.5387 19.8299 41.4946C20.0917 41.4522 20.3535 41.4093 20.6153 41.3669C21.5695 41.1975 22.5248 41.0316 23.4814 40.8745C24.4321 40.718 25.3851 40.5751 26.3357 40.4198C26.884 40.3251 27.4323 40.2309 27.9782 40.125C28.2641 40.0697 28.5488 40.0103 28.8336 39.9491C29.0848 39.8956 29.3377 39.8403 29.5842 39.7685C29.6125 39.7591 29.6407 39.7485 29.6683 39.738C29.6731 39.735 29.6784 39.7321 29.6836 39.7291C29.686 39.7274 29.6889 39.7256 29.6913 39.7232C29.6919 39.7226 29.693 39.7221 29.6942 39.7209C29.7007 39.7097 29.7072 39.6985 29.7136 39.6879C29.7242 39.665 29.7342 39.6421 29.7436 39.6185C29.7513 39.5938 29.7583 39.5685 29.7654 39.5426C29.7731 39.5003 29.7795 39.4585 29.7842 39.4156C29.7936 39.2673 29.7948 39.1208 29.7913 38.9726C29.7619 38.5979 29.7301 38.2231 29.6778 37.8507C29.6195 37.4384 29.5542 37.0283 29.486 36.6171C29.246 35.3852 28.9695 34.161 28.7147 32.9321C28.4618 31.7138 28.2035 30.496 27.9359 29.2807C27.7529 28.4465 27.577 27.6105 27.3664 26.7828C27.2634 26.3781 27.1487 25.9757 27.0434 25.5721C26.9505 25.2156 26.8575 24.8603 26.7522 24.5079C26.6493 24.1885 26.5493 23.8685 26.4387 23.5514C26.3457 23.2825 26.231 23.0213 26.1145 22.7625C26.0975 22.7266 26.0816 22.6907 26.0651 22.6542C25.9834 22.4754 25.9045 22.2966 25.8292 22.116C25.7751 22.1318 25.7216 22.1466 25.6674 22.1619C25.2445 22.2766 24.8097 22.3478 24.3744 22.3889C24.2108 22.4042 24.0473 22.4107 23.8838 22.4107C23.5761 22.4107 23.2684 22.3889 22.9608 22.3678C22.6425 22.346 22.3236 22.3236 22.006 22.2978C21.6624 22.2695 21.32 22.2354 20.9777 22.1977C20.6718 22.163 20.3682 22.1101 20.064 22.0619C19.9252 22.0395 19.7876 22.0007 19.6505 21.9689C19.5111 21.9371 19.3699 21.9101 19.2322 21.8707C18.9269 21.7836 18.6192 21.703 18.3192 21.5983C17.998 21.4865 17.6803 21.3759 17.3662 21.2453C17.2162 21.183 17.0656 21.1206 16.9156 21.0582C16.8314 21.0235 16.7485 20.9829 16.6667 20.9423C16.6567 21.0012 16.6461 21.0594 16.635 21.1182ZM8.18782 28.693C8.19959 28.753 8.21312 28.8124 8.23018 28.8712C8.259 28.96 8.29137 29.0465 8.32784 29.133C8.37373 29.2259 8.42254 29.316 8.47608 29.4054C8.57726 29.5566 8.68434 29.703 8.79964 29.8448C8.97436 30.0489 9.15849 30.2419 9.35144 30.4296C9.63382 30.6837 9.91855 30.9331 10.2086 31.1784C10.4815 31.4091 10.7598 31.6332 11.0369 31.8591C11.3416 32.1073 11.6463 32.355 11.9522 32.6021C12.2164 32.8151 12.4746 33.0351 12.75 33.2333C12.9153 33.3451 13.0835 33.448 13.2606 33.5404C13.3223 33.571 13.3841 33.6022 13.4465 33.6322C13.4729 33.4057 13.5012 33.1786 13.53 32.9527C13.6988 31.6173 13.8883 30.2854 14.0883 28.9553C14.2654 27.7811 14.4671 26.6104 14.6754 25.4415C14.9013 24.1708 15.1319 22.9007 15.3631 21.6312C15.3101 21.6742 15.2566 21.7171 15.2025 21.7606C14.9837 21.9354 14.756 22.0965 14.5283 22.2601C14.0912 22.5748 13.6465 22.879 13.2076 23.1913C12.3534 23.7996 11.5116 24.425 10.698 25.0874C10.5192 25.2415 10.3451 25.3951 10.1756 25.5604C10.0062 25.7257 9.84619 25.8986 9.68442 26.0728C9.46793 26.3245 9.25321 26.5769 9.04319 26.8346C8.86435 27.0534 8.70199 27.284 8.5408 27.5146C8.45491 27.6499 8.36843 27.7841 8.2896 27.9235C8.2596 27.987 8.23195 28.0506 8.20606 28.1153C8.19665 28.1459 8.18782 28.177 8.18018 28.2082C8.17135 28.2518 8.16548 28.2959 8.16077 28.34C8.16077 28.3406 8.16077 28.3406 8.16077 28.3412C8.15783 28.4053 8.15841 28.4694 8.16253 28.5335C8.16194 28.5088 8.16076 28.4841 8.15958 28.4594C8.16664 28.5371 8.17606 28.6153 8.18782 28.693ZM39.1591 16.7938C39.0579 18.0774 39.0185 19.364 38.9791 20.6506C38.9485 21.6571 38.9285 22.6642 38.905 23.6708C38.8985 23.932 38.892 24.1932 38.8855 24.4538C38.8855 24.462 38.885 24.4703 38.885 24.4785C38.9138 24.4897 38.9426 24.5009 38.9708 24.512C39.0626 24.5397 39.1556 24.5662 39.2479 24.5915C39.2885 24.6026 39.3297 24.6138 39.3703 24.6244C39.3773 24.6262 39.385 24.6279 39.3921 24.6303C39.4368 24.6421 39.4821 24.6532 39.5268 24.665C39.745 24.7215 39.9645 24.7732 40.1839 24.8262C40.2245 24.8362 40.2656 24.8462 40.3062 24.8556C40.3068 24.7732 40.3074 24.6909 40.308 24.6085C40.321 23.3419 40.3486 22.076 40.3686 20.81C40.3804 20.0446 40.3968 19.2787 40.421 18.5133C40.4439 17.7574 40.4839 17.0009 40.4627 16.2443C40.2698 16.1184 40.1133 15.9296 39.9568 15.7631C39.7221 15.5137 39.5091 15.2443 39.2956 14.9766C39.2515 15.5837 39.2067 16.1884 39.1591 16.7938ZM12.4811 9.15082C12.4729 9.20436 12.4582 9.2573 12.447 9.31084C12.4317 9.38202 12.4158 9.4538 12.4005 9.52498C12.3782 9.62558 12.3564 9.72558 12.3346 9.82618C12.3111 9.93383 12.3011 10.0456 12.2852 10.1544C12.2634 10.2986 12.2417 10.4433 12.2199 10.5874C12.204 10.6939 12.2005 10.8039 12.1911 10.9116C12.1805 11.0304 12.1699 11.1492 12.1587 11.268C12.144 11.5363 12.1364 11.8046 12.1428 12.0734C12.1764 12.7817 12.2723 13.4859 12.3652 14.1883C12.4199 14.503 12.4776 14.8136 12.5664 15.1213C12.6382 15.3437 12.7211 15.5602 12.8164 15.7737C12.9259 16.002 13.0464 16.2226 13.1776 16.4385C13.3782 16.7497 13.5971 17.0456 13.8289 17.3344C13.9406 17.4633 14.0518 17.5927 14.1636 17.7215C14.3589 17.9474 14.5677 18.1609 14.7866 18.3651C15.0425 18.5945 15.3072 18.8098 15.5866 19.0081C15.9355 19.244 16.2979 19.4546 16.6703 19.6511C16.9062 19.7652 17.1421 19.8793 17.378 19.9929C17.4897 20.047 17.6086 20.0888 17.7227 20.1364C17.8509 20.1894 17.9804 20.2435 18.1086 20.297C18.4474 20.4153 18.7834 20.5347 19.1287 20.6341C19.2993 20.6823 19.4693 20.7382 19.6423 20.7782C19.8405 20.8235 20.0382 20.8688 20.2364 20.9141C20.4723 20.9518 20.7076 20.9894 20.9435 21.0271C21.1835 21.0653 21.43 21.0818 21.6724 21.1082C21.9889 21.1347 22.306 21.1612 22.6231 21.183C23.0855 21.2147 23.5502 21.2588 24.0132 21.2512C24.275 21.2377 24.535 21.2088 24.7944 21.1671C25.0903 21.1129 25.3804 21.0406 25.6704 20.9576C25.8592 20.8959 26.0481 20.8341 26.2369 20.7729C26.3275 20.7429 26.4163 20.7012 26.5046 20.6664C26.6081 20.6247 26.7116 20.5841 26.8152 20.5429C26.9899 20.4611 27.1646 20.3794 27.3393 20.297C27.5441 20.2005 27.7417 20.0846 27.9423 19.9787C28.3123 19.7834 28.6689 19.5605 29.0259 19.3416C29.1912 19.2299 29.3554 19.1169 29.5207 19.0051C29.5978 18.9528 29.6689 18.8881 29.7425 18.8298C29.8178 18.7704 29.8931 18.711 29.9684 18.6516C30.1048 18.5298 30.2402 18.4074 30.3761 18.2851C30.5172 18.158 30.6508 18.0209 30.7867 17.8886C31.0308 17.6515 31.2626 17.4009 31.4955 17.1526C31.6738 16.955 31.8479 16.7555 32.0203 16.5532C32.1868 16.3579 32.3368 16.1484 32.4874 15.9408C32.5568 15.8314 32.6262 15.7208 32.6956 15.6108C32.7604 15.5078 32.8145 15.396 32.871 15.2872C32.9268 15.1654 32.9816 15.0431 33.038 14.9213C33.0869 14.8142 33.1239 14.7007 33.1645 14.5901C33.2022 14.4665 33.2398 14.3436 33.2774 14.2206C33.3116 14.1112 33.3322 13.9959 33.3563 13.883C33.3792 13.7453 33.4022 13.6077 33.4251 13.4706C33.4457 13.3435 33.4557 13.2135 33.4698 13.0853C33.4816 12.8905 33.4951 12.6958 33.4992 12.5005C33.5034 12.2846 33.501 12.0693 33.4963 11.8528C33.4792 11.6181 33.4592 11.3857 33.4339 11.1522C33.4181 11.0604 33.4022 10.9686 33.3869 10.8769C33.3663 10.7574 33.3292 10.6386 33.301 10.5203C33.2722 10.4262 33.2427 10.3315 33.2127 10.2368C33.1763 10.118 33.1233 10.0027 33.0786 9.88795C32.9804 9.67264 32.8827 9.45615 32.7656 9.25025C32.6456 9.03964 32.5227 8.83256 32.3962 8.62549C32.2591 8.419 32.1197 8.21429 31.9785 8.01074C31.8303 7.79837 31.6673 7.59658 31.5073 7.39363C31.3761 7.24185 31.2461 7.09302 31.1055 6.95066C30.9649 6.80829 30.8202 6.67299 30.6731 6.53768C30.5043 6.39767 30.3366 6.25766 30.1625 6.12471C29.9854 5.98941 29.806 5.86057 29.6248 5.73115C29.3342 5.53054 29.0412 5.33465 28.743 5.14581C28.4435 4.95697 28.1294 4.79166 27.8152 4.62988C27.5211 4.48869 27.2258 4.34809 26.9264 4.21867C26.6387 4.09513 26.3475 3.98277 26.0539 3.87394C26.0198 3.86276 25.9857 3.851 25.9516 3.83983C25.8733 3.881 25.7845 3.90394 25.6886 3.90394C25.6839 3.90394 25.6798 3.90395 25.6745 3.90336C25.4674 3.89865 25.2727 3.77394 25.1739 3.59628C24.798 3.4845 24.4191 3.38391 24.0355 3.29508C23.6008 3.20507 23.1649 3.12742 22.729 3.04388C22.4995 2.99976 22.2713 2.95505 22.0419 2.91151C21.8871 2.8821 21.7312 2.86092 21.5748 2.84268C21.5424 3.10859 21.3436 3.33213 21.0618 3.36213C21.043 3.36449 21.0241 3.36508 21.0059 3.36508C20.7941 3.36508 20.5882 3.2433 20.4876 3.06034C20.4123 3.05505 20.3382 3.03329 20.2711 2.9927C20.2123 2.98329 20.1535 2.97563 20.094 2.96857C19.9958 2.96386 19.8982 2.96268 19.7999 2.96327C19.6858 2.96739 19.5699 2.96858 19.457 2.98211C19.2899 3.00093 19.1222 3.02034 18.9546 3.03975C18.5028 3.11858 18.0545 3.198 17.6133 3.32684C17.2956 3.42685 16.985 3.54333 16.6797 3.67746C16.3867 3.81453 16.1032 3.9669 15.8261 4.13456C15.6537 4.24692 15.4902 4.36869 15.3307 4.4987C14.9978 4.78343 14.6848 5.08757 14.3871 5.40936C14.2254 5.59055 14.0718 5.77585 13.93 5.97351C13.6877 6.33119 13.4712 6.70476 13.2723 7.08832C13.15 7.33246 13.04 7.58306 12.9264 7.83073C12.88 7.9325 12.8458 8.04191 12.8058 8.14663C12.7658 8.25134 12.7264 8.35547 12.6864 8.4596C12.6529 8.57137 12.6193 8.68374 12.5864 8.79492C12.5511 8.91376 12.5064 9.03317 12.4793 9.15377C12.4817 9.14141 12.4846 9.12966 12.487 9.11731C12.487 9.12789 12.484 9.13906 12.4811 9.15082ZM40.6133 12.4611C40.3262 12.8958 40.0421 13.3323 39.7562 13.7677C39.7768 13.7847 39.7968 13.8035 39.815 13.8247C39.8521 13.8677 39.898 13.9059 39.9386 13.9465C40.0086 14.0165 40.0739 14.0947 40.1356 14.1718C40.2492 14.3142 40.3621 14.4554 40.4757 14.5977C40.6427 14.796 40.8151 14.9907 40.9975 15.176C41.0116 15.1625 41.0251 15.1484 41.0392 15.1342C41.3369 14.7919 41.5922 14.4083 41.8505 14.0353C42.0275 13.7794 42.1999 13.5194 42.3735 13.2606C42.4688 13.1182 42.57 12.9858 42.7241 12.9029C42.8735 12.8229 43.0671 12.8123 43.2288 12.8588C43.4012 12.9076 43.5518 13.0282 43.6783 13.15C43.7842 13.2512 43.883 13.357 43.9795 13.4671C44.2089 13.7277 44.4372 13.9894 44.6695 14.2477C44.8213 14.4165 44.9719 14.5865 45.1266 14.7524C45.2007 14.5807 45.2654 14.4054 45.3296 14.2289C45.4455 13.8865 45.5537 13.5418 45.659 13.1964C45.6849 13.1106 45.7096 13.0247 45.739 12.94C45.7737 12.8423 45.8184 12.7399 45.8837 12.6576C45.949 12.5758 46.0314 12.5246 46.122 12.4764C46.2914 12.3864 46.4967 12.3899 46.672 12.4658C46.8744 12.5535 47.0309 12.7223 47.1785 12.8805C47.5498 13.2764 47.8892 13.7024 48.2504 14.1083C48.3492 13.9106 48.4492 13.7129 48.5563 13.5194C48.7275 13.2082 48.8969 12.8958 49.064 12.5823C49.0787 12.5546 49.0958 12.5293 49.1146 12.5058C48.1433 11.6057 47.1727 10.7051 46.2014 9.80499C46.1549 9.86323 46.0967 9.91443 46.029 9.95384C45.799 10.0891 45.5502 10.2121 45.2966 10.2968C45.0095 10.3927 44.7231 10.4597 44.4236 10.5021C44.2307 10.5292 44.0354 10.5433 43.8401 10.5433C43.5771 10.5439 43.3141 10.5174 43.0576 10.4615C42.7705 10.3992 42.4899 10.3003 42.2352 10.1533C42.2117 10.1397 42.1881 10.1256 42.1646 10.1109C41.6469 10.8939 41.1298 11.6775 40.6133 12.4611Z" fill="currentColor"/>
<path d="M14.3274 34.1886C14.0186 34.1233 13.8033 33.8304 13.8609 33.5133C13.9168 33.2091 14.2268 32.9809 14.5363 33.0468C14.5769 33.055 14.6175 33.0615 14.6586 33.0668C14.8628 33.0791 15.0663 33.0797 15.271 33.0797C16.5282 33.0338 17.783 32.9538 19.039 32.8915C20.282 32.8297 21.5256 32.7803 22.7693 32.7309C23.777 32.6909 24.7853 32.6597 25.7936 32.6297C26.2825 32.615 26.7708 32.6014 27.2596 32.5879C27.7408 32.575 28.2226 32.5585 28.7044 32.5685C29.0203 32.5756 29.2704 32.8685 29.2545 33.1774C29.2386 33.5003 28.9615 33.7345 28.6462 33.728C28.4791 33.7245 28.3132 33.7251 28.1468 33.7268C28.1715 33.7262 28.1968 33.7257 28.2215 33.7257C27.072 33.7445 25.9225 33.7845 24.7736 33.8216C23.5335 33.8616 22.2934 33.9098 21.0533 33.9627C19.9267 34.011 18.8001 34.0621 17.6747 34.1245C17.1112 34.1557 16.5476 34.1945 15.9834 34.2139C15.684 34.2245 15.3846 34.2386 15.0851 34.2386C15.0651 34.2386 15.0451 34.2386 15.0245 34.2386C14.7916 34.2392 14.5563 34.2369 14.3274 34.1886Z" fill="currentColor"/>
<path d="M20.3617 42.0927C20.3211 41.5279 20.3194 40.962 20.3205 40.3961C20.3217 39.8384 20.3323 39.2807 20.3447 38.7236C20.3711 37.5405 20.4323 36.3563 20.4329 35.1727C20.4276 34.9674 20.42 34.7627 20.4082 34.5574C20.3988 34.3885 20.3606 34.1991 20.4212 34.0361C20.4853 33.8626 20.607 33.722 20.7847 33.6608C21.0841 33.5585 21.4195 33.7185 21.5242 34.0179C21.5524 34.0985 21.5607 34.1826 21.5524 34.2638C21.5654 34.5433 21.583 34.8221 21.5901 35.1015C21.5977 35.3798 21.5924 35.6592 21.5859 35.9375C21.5718 36.5281 21.5489 37.1181 21.5312 37.7082C21.4977 38.8383 21.4706 39.969 21.4818 41.0996C21.4812 41.0749 21.4806 41.0496 21.4806 41.0244C21.4854 41.3503 21.4954 41.6756 21.5195 42.0003C21.5418 42.3156 21.303 42.5998 20.9871 42.6251C20.9724 42.6262 20.9577 42.6268 20.9424 42.6268C20.6459 42.6268 20.3841 42.3927 20.3617 42.0927Z" fill="currentColor"/>
</svg>
