<svg width="16" height="16" viewBox="0 0 16 16" fill="none" xmlns="http://www.w3.org/2000/svg">
<path d="M4.31284 8.9812C4.11845 9.17733 4.11987 9.49391 4.316 9.6883C4.51213 9.88269 4.82871 9.88127 5.0231 9.68514L6.18797 8.50983C6.66073 8.03284 6.98609 7.70563 7.26177 7.48423C7.52957 7.26917 7.70158 7.19539 7.85563 7.17575C7.95236 7.16342 8.05024 7.16342 8.14697 7.17575C8.30102 7.19539 8.47303 7.26917 8.74083 7.48423C9.01652 7.70563 9.34188 8.03283 9.81464 8.50983L10.9795 9.68514C11.1739 9.88127 11.4905 9.88269 11.6866 9.6883C11.8827 9.49391 11.8842 9.17733 11.6898 8.9812L10.5039 7.78471C10.0573 7.33407 9.69224 6.96574 9.367 6.70454C9.02878 6.43292 8.68548 6.2363 8.27341 6.18378C8.09273 6.16075 7.90988 6.16075 7.72919 6.18378C7.31712 6.2363 6.97382 6.43292 6.63561 6.70454C6.31036 6.96574 5.94534 7.33405 5.49872 7.78469L4.31284 8.9812Z" fill="#053B4A"/>
<path fill-rule="evenodd" clip-rule="evenodd" d="M8.0013 15.1665C11.9593 15.1665 15.168 11.9579 15.168 7.99984C15.168 4.0418 11.9593 0.83317 8.0013 0.83317C4.04326 0.83317 0.834635 4.0418 0.834635 7.99984C0.834635 11.9579 4.04326 15.1665 8.0013 15.1665ZM14.168 7.99984C14.168 11.4056 11.4071 14.1665 8.0013 14.1665C4.59555 14.1665 1.83463 11.4056 1.83463 7.99984C1.83463 4.59408 4.59555 1.83317 8.0013 1.83317C11.4071 1.83317 14.168 4.59408 14.168 7.99984Z" fill="#053B4A"/>
</svg>
