<svg width="160" height="160" viewBox="0 0 160 160" fill="none" xmlns="http://www.w3.org/2000/svg">
<circle cx="80" cy="80" r="80" fill="#ADD7DA"/>
<circle cx="90.0795" cy="79.8813" r="48.5327" fill="#F8ECAE"/>
<path d="M75.8184 128.982C74.9089 128.944 73.9993 128.908 73.0898 128.869C72.8147 128.858 72.5382 128.817 72.2646 128.789C71.6789 128.733 71.0933 128.676 70.5076 128.619C69.7963 128.55 69.0997 128.434 68.3958 128.319C67.6814 128.202 66.9598 128.107 66.2558 127.939C65.3803 127.732 64.5048 127.527 63.6293 127.317C63.3039 127.239 62.9844 127.132 62.6635 127.035C62.1045 126.868 61.5484 126.699 60.9894 126.532C60.3328 126.334 59.6924 126.098 59.0476 125.866C58.3466 125.612 57.6397 125.376 56.952 125.09C56.0454 124.711 55.1418 124.331 54.2382 123.954C54.0326 123.868 53.8345 123.764 53.6348 123.668C53.1009 123.413 52.57 123.156 52.0361 122.899C51.3987 122.593 50.7805 122.258 50.1579 121.921C49.5101 121.572 48.8609 121.228 48.2279 120.851C47.4678 120.398 46.7076 119.942 45.946 119.491C45.6813 119.336 45.4313 119.148 45.1784 118.976C44.6933 118.652 44.2083 118.326 43.7247 118C43.1508 117.615 42.6111 117.19 42.0639 116.768C41.6468 116.445 41.2283 116.124 40.8112 115.801C40.6456 115.672 40.4785 115.547 40.3217 115.406C39.5867 114.745 38.8517 114.083 38.1152 113.423C37.5517 112.916 37.0489 112.335 36.5254 111.788C36.234 111.483 35.9412 111.178 35.6498 110.873C35.4739 110.691 35.3215 110.485 35.1603 110.29C34.5422 109.543 33.9077 108.807 33.3191 108.037C31.9615 106.26 30.7369 104.364 29.7594 102.354C29.2994 101.406 28.9134 100.426 28.6132 99.4167C28.282 98.3104 28.0276 97.1821 27.8072 96.0494C27.3902 93.897 27.0751 91.7314 27.0101 89.5379C26.9435 87.3004 27.2127 85.082 27.6431 82.89C27.8146 82.017 28.0468 81.1513 28.2494 80.2857C28.4298 79.5154 28.6768 78.7598 28.8972 78.0012C29.0007 77.6491 29.1028 77.294 29.2078 76.9419C29.295 76.644 29.4192 76.3506 29.5227 76.0572C29.7949 75.2957 30.0389 74.5151 30.3539 73.7683C30.7221 72.8939 31.0889 72.0209 31.4572 71.1464C31.537 70.9557 31.6317 70.7723 31.7234 70.5874C31.9777 70.068 32.2321 69.5457 32.4865 69.0263C32.797 68.391 33.1357 67.7791 33.4788 67.1614C33.8367 66.5188 34.1813 65.8644 34.5688 65.2394C35.0864 64.4075 35.604 63.5756 36.1201 62.7437C36.5002 62.1304 36.9498 61.5494 37.3654 60.9581C37.6331 60.5766 37.9008 60.1936 38.1699 59.8122C38.5589 59.2576 38.9862 58.7308 39.4092 58.2041C40.7964 56.4757 42.336 54.8618 44.0012 53.3975C45.6502 51.9479 47.4501 50.6729 49.3076 49.5021C51.202 48.3092 53.1837 47.2514 55.2261 46.3314C57.2729 45.4071 59.3907 44.6485 61.5484 44.0235C62.5585 43.7315 63.576 43.4718 64.6009 43.2385C65.5 43.0346 66.4111 42.8292 67.3235 42.6942C68.2922 42.5504 69.2594 42.4095 70.2266 42.2658C70.6171 42.2085 71.009 42.1513 71.3994 42.0941C72.2468 41.9679 73.1061 41.9004 73.9594 41.8315C75.0538 41.742 76.1497 41.7009 77.247 41.6877C78.1832 41.6759 79.1356 41.6701 80.0673 41.7449C81.0419 41.8227 82.0165 41.9019 82.9911 41.9797C84.5587 42.1058 86.1086 42.3817 87.6629 42.6135C87.8715 42.6443 88.0785 42.7001 88.2855 42.7441C88.8535 42.8659 89.4228 42.9876 89.9907 43.1094C90.634 43.2459 91.2774 43.3779 91.9118 43.551C92.5877 43.7374 93.2635 43.9222 93.9394 44.1101C94.321 44.2157 94.7158 44.3008 95.0885 44.4328C95.6934 44.6471 96.2982 44.8642 96.9031 45.0784C97.3276 45.2295 97.7565 45.3704 98.172 45.5479C98.7932 45.8135 99.4158 46.0805 100.037 46.3476C100.887 46.7129 101.713 47.1252 102.516 47.5815C103.709 48.2593 104.854 49.0223 105.842 49.9745C106.537 50.6435 107.227 51.474 107.411 52.4438C107.454 52.6713 107.443 52.8972 107.386 53.1099C107.73 53.107 108.072 53.22 108.331 53.4665C108.629 53.7511 108.925 54.0372 109.219 54.3248C109.32 54.4216 109.419 54.5185 109.518 54.6168C109.663 54.7591 109.826 54.897 109.959 55.054C110.006 55.0995 110.054 55.1464 110.101 55.1934C110.614 55.704 111.121 56.2219 111.623 56.7457C112.667 57.8344 113.635 58.9891 114.561 60.1775C115.506 61.3894 116.343 62.6674 117.098 64.0025C117.868 65.3641 118.547 66.7594 119.165 68.1958C119.788 69.641 120.285 71.1405 120.727 72.6473C121.162 74.1248 121.524 75.6243 121.806 77.1385C122.102 78.7378 122.325 80.3458 122.527 81.9598C122.907 85.0116 123.087 88.0795 122.873 91.1489C122.814 92.0087 122.765 92.8758 122.641 93.7297C122.522 94.525 122.391 95.3143 122.244 96.1066C122.107 96.8402 121.941 97.5709 121.774 98.2986C121.698 98.6288 121.623 98.9574 121.533 99.2846C121.42 99.6866 121.327 100.1 121.197 100.498C120.941 101.279 120.681 102.055 120.394 102.826C120.098 103.619 119.766 104.393 119.434 105.171C119.312 105.456 119.164 105.73 119.025 106.007C118.844 106.365 118.676 106.729 118.473 107.077C118.074 107.764 117.683 108.45 117.24 109.108C117.034 109.41 116.843 109.731 116.621 110.022C116.318 110.418 116.015 110.815 115.71 111.213C115.221 111.854 114.69 112.466 114.172 113.084C113.705 113.64 113.195 114.164 112.708 114.702C112.458 114.979 112.18 115.238 111.918 115.505C111.612 115.816 111.315 116.143 110.994 116.441C110.712 116.703 110.429 116.965 110.147 117.226C109.861 117.488 109.588 117.77 109.29 118.017C108.975 118.279 108.657 118.54 108.341 118.801C108.011 119.074 107.69 119.365 107.343 119.617C106.698 120.087 106.055 120.556 105.41 121.024C105.113 121.24 104.783 121.422 104.474 121.619C104.085 121.866 103.694 122.113 103.304 122.362C103.032 122.534 102.737 122.679 102.456 122.833C101.974 123.099 101.491 123.366 101.01 123.632C100.333 124.004 99.6125 124.308 98.9145 124.638C98.2164 124.97 97.4991 125.248 96.7819 125.536C96.4092 125.686 96.0365 125.834 95.6638 125.983C95.3399 126.113 94.9968 126.204 94.6655 126.314C93.9231 126.557 93.1866 126.807 92.4294 127.005C91.6678 127.204 90.9077 127.43 90.1357 127.589C89.6166 127.694 89.1004 127.803 88.5813 127.908C88.3004 127.966 88.0193 128.033 87.7354 128.079C86.8436 128.218 85.9519 128.356 85.0616 128.495C84.2127 128.627 83.3475 128.686 82.4927 128.774C81.7621 128.852 81.03 128.878 80.2965 128.918C79.5615 128.958 78.8339 128.981 78.0989 128.985C77.6182 128.988 77.1375 129 76.6554 129C76.3759 128.999 76.0979 128.994 75.8184 128.982ZM72.5352 125.912C73.1756 125.973 73.81 126.003 74.4534 126.029C75.1484 126.058 75.8465 126.105 76.5416 126.102C77.3535 126.096 78.1683 126.092 78.9817 126.088C79.9075 126.038 80.8348 125.989 81.7592 125.939C82.2324 125.913 82.7101 125.84 83.1819 125.79C83.6462 125.74 84.1091 125.69 84.5706 125.643C85.2479 125.537 85.9282 125.43 86.6055 125.325C87.1572 125.238 87.6984 125.13 88.2441 125.018C88.8519 124.892 89.4672 124.789 90.0676 124.631C90.7819 124.443 91.4977 124.255 92.2135 124.067C93.0388 123.794 93.8654 123.524 94.6907 123.252C95.1181 123.111 95.5351 122.914 95.9522 122.747C96.3278 122.596 96.7035 122.446 97.0806 122.296C97.8866 121.915 98.6926 121.535 99.4986 121.153C99.855 120.985 100.197 120.769 100.543 120.58C100.936 120.363 101.328 120.147 101.721 119.93C102.405 119.497 103.088 119.063 103.771 118.627C104.088 118.424 104.385 118.181 104.688 117.959C104.996 117.735 105.303 117.512 105.611 117.289C106.194 116.806 106.778 116.325 107.362 115.841C107.622 115.625 107.863 115.377 108.113 115.148C108.424 114.861 108.736 114.573 109.046 114.284C109.737 113.584 110.428 112.887 111.089 112.158C111.416 111.797 111.751 111.443 112.065 111.071C112.442 110.62 112.821 110.168 113.199 109.716C113.47 109.363 113.74 109.008 114.011 108.656C114.239 108.358 114.446 108.045 114.656 107.734C114.87 107.417 115.095 107.105 115.289 106.773C115.52 106.376 115.752 105.98 115.982 105.582C116.241 105.061 116.503 104.54 116.763 104.019C116.883 103.779 116.976 103.519 117.081 103.272C117.189 103.019 117.297 102.765 117.405 102.511C117.663 101.823 117.921 101.139 118.151 100.441C118.386 99.7233 118.591 99.0029 118.792 98.2752C118.986 97.433 119.171 96.5893 119.346 95.7442C119.513 94.927 119.641 94.1054 119.763 93.2823C119.862 92.3256 119.944 91.3705 119.995 90.4094C120.045 89.4513 120.06 88.4977 120.055 87.5396C119.999 86.2191 119.906 84.9103 119.779 83.5957C119.655 82.3016 119.479 81.012 119.297 79.7267C119.137 78.7466 118.971 77.7679 118.767 76.7952C118.563 75.8268 118.324 74.8687 118.069 73.9121C117.847 73.1594 117.626 72.4082 117.368 71.6673C117.096 70.8823 116.803 70.1091 116.494 69.3388C116.17 68.5861 115.838 67.8378 115.465 67.1086C115.067 66.3281 114.647 65.5651 114.206 64.8095C113.631 63.8499 113.004 62.9344 112.333 62.0409C111.663 61.184 110.976 60.3418 110.246 59.5349C109.5 58.7118 108.724 57.918 107.939 57.133C107.964 57.158 107.988 57.1815 108.013 57.2049C107.979 57.1712 107.945 57.1374 107.911 57.1037C107.9 57.0934 107.89 57.0817 107.878 57.0714C107.884 57.0773 107.891 57.0846 107.897 57.0905C107.885 57.0788 107.874 57.067 107.862 57.0553C107.835 57.0303 107.809 57.0054 107.785 56.979C107.761 56.9555 107.736 56.9306 107.712 56.9071C107.701 56.8953 107.689 56.8851 107.677 56.8733C107.258 56.4625 106.838 56.0546 106.414 55.6497C106.007 55.2609 105.836 54.7048 105.966 54.1927C105.309 54.1766 104.688 53.7115 104.562 53.0454C104.559 53.0263 104.555 53.0072 104.551 52.9882C104.545 52.972 104.537 52.9573 104.531 52.9412C104.512 52.906 104.494 52.8708 104.475 52.8356C104.432 52.7666 104.385 52.6991 104.338 52.6346C104.185 52.4453 104.027 52.2677 103.858 52.0932C103.552 51.8026 103.233 51.5312 102.899 51.2715C102.3 50.8358 101.676 50.4396 101.034 50.0699C100.222 49.6238 99.3921 49.2248 98.5417 48.8594C97.9872 48.6217 97.4311 48.384 96.8765 48.1449C96.3618 47.9615 95.8472 47.7796 95.3325 47.5962C94.911 47.4465 94.4895 47.266 94.0577 47.1472C92.9515 46.842 91.8438 46.5383 90.7361 46.2331C89.5471 45.9822 88.361 45.7196 87.1705 45.4702C87.0078 45.4349 86.8377 45.4203 86.6721 45.3953C86.2476 45.3322 85.8217 45.2691 85.3972 45.2061C84.7894 45.1151 84.1816 45.0241 83.5738 44.9346C82.7382 44.8671 81.9041 44.7996 81.0685 44.7336C80.6766 44.7013 80.2847 44.6705 79.8928 44.6382C79.5171 44.6074 79.137 44.6074 78.7614 44.5972C78.1343 44.581 77.5073 44.5796 76.8787 44.5869C75.2209 44.6236 73.5705 44.7586 71.923 44.942C70.87 45.0975 69.817 45.2515 68.7625 45.4071C66.7926 45.6976 64.8464 46.1231 62.9268 46.6439C61.0545 47.1692 59.2177 47.7972 57.4208 48.5396C55.6846 49.2776 54.0001 50.1183 52.3629 51.0514C50.7657 51.9817 49.2173 52.9896 47.7429 54.1018C46.5804 54.9982 45.4728 55.9534 44.4242 56.979C43.1524 58.2584 41.9811 59.62 40.8793 61.0432C40.5051 61.5376 40.159 62.0541 39.8011 62.5617C39.4122 63.1163 39.0232 63.6695 38.6328 64.2241C38.3311 64.654 38.0738 65.1206 37.7972 65.5666C37.4822 66.0728 37.1672 66.579 36.8522 67.0866C36.4751 67.7645 36.0995 68.4423 35.7223 69.1202C35.3985 69.7027 35.1115 70.2998 34.8187 70.8984C34.5229 71.5044 34.2153 72.103 33.955 72.7251C33.643 73.469 33.328 74.2114 33.0159 74.9567C32.6743 75.9119 32.3327 76.8656 31.9925 77.8207C31.8358 78.2594 31.7278 78.7216 31.5977 79.1691C31.4468 79.6841 31.2975 80.1991 31.1466 80.7141C30.9943 81.3699 30.8404 82.0272 30.6881 82.6846C30.4323 83.7806 30.2297 84.8825 30.0906 85.999C29.9768 87.0598 29.9132 88.1191 29.9206 89.1858C29.9516 90.4432 30.0581 91.6932 30.2326 92.9389C30.5092 94.748 30.8508 96.5468 31.3285 98.3148C31.5134 98.9516 31.7278 99.5722 31.9777 100.188C32.3726 101.103 32.8237 101.989 33.325 102.851C34.0911 104.125 34.9296 105.349 35.8288 106.534C36.484 107.328 37.142 108.119 37.7957 108.914C37.8919 109.03 38.0057 109.133 38.1107 109.241C38.3799 109.523 38.6491 109.805 38.9182 110.086C39.2643 110.447 39.6089 110.81 39.955 111.169C40.7639 111.9 41.5773 112.625 42.3862 113.355C42.4942 113.454 42.6214 113.537 42.7367 113.627C43.0429 113.861 43.3461 114.098 43.6522 114.332C44.0707 114.655 44.4878 114.979 44.9078 115.302C45.7907 115.895 46.6736 116.488 47.558 117.08C47.9691 117.358 48.4157 117.592 48.8431 117.846C49.2839 118.11 49.7261 118.375 50.1697 118.637C50.89 119.024 51.6087 119.416 52.3275 119.807C52.9338 120.134 53.5624 120.42 54.1835 120.719C54.7765 121.004 55.3622 121.291 55.9685 121.545C56.7627 121.877 57.5554 122.211 58.3496 122.543C59.3463 122.901 60.3416 123.259 61.3384 123.618C61.8072 123.789 62.2997 123.909 62.7774 124.053C63.2832 124.205 63.7919 124.358 64.2977 124.51C65.2486 124.738 66.1996 124.959 67.1505 125.187C67.3013 125.222 67.4596 125.238 67.6119 125.263C67.9536 125.319 68.2967 125.376 68.6398 125.432C69.1678 125.52 69.6943 125.606 70.2222 125.693C70.9913 125.76 71.7632 125.835 72.5352 125.912Z" fill="#053B4A"/>
<path d="M43.9206 53.6173C43.9162 53.607 43.9132 53.5967 43.9088 53.5864C43.7076 53.1742 43.4755 52.7766 43.2492 52.376C43.0007 51.9358 42.7671 51.4869 42.5349 51.0379C42.0705 50.1356 41.6165 49.2259 41.1773 48.3104C40.3003 46.4778 39.444 44.6364 38.6187 42.7804C38.462 42.4283 38.4132 42.0586 38.5359 41.6873C38.6557 41.3205 38.9234 41.011 39.2709 40.8393C39.9572 40.4989 40.9066 40.7645 41.229 41.4863C42.0602 43.3556 42.9105 45.2175 43.8067 47.0574C44.3007 48.0683 44.8006 49.0748 45.3152 50.0754C45.5252 50.4818 45.7456 50.8809 45.9704 51.28C46.2248 51.7334 46.4895 52.1794 46.6743 52.6651C46.9553 53.4031 46.5131 54.254 45.7766 54.5093C45.6199 54.5636 45.4616 54.5886 45.3049 54.5886C44.7015 54.5886 44.1439 54.2041 43.9206 53.6173Z" fill="#053B4A"/>
<path d="M63.1217 45.5911C62.9915 44.9983 63.0122 44.3879 63.0329 43.7864C63.0462 43.38 63.0743 42.9735 63.0995 42.5671C63.1424 41.8893 63.1956 41.2114 63.2444 40.535C63.3568 38.9651 63.4722 37.3937 63.5905 35.8223C63.6482 35.0359 64.3122 34.4094 65.1212 34.449C65.9005 34.4872 66.5631 35.1812 66.5039 35.9676C66.4004 37.3747 66.2969 38.7817 66.1933 40.1873C66.1386 40.9415 66.0854 41.6971 66.0322 42.4512C65.9819 43.1614 65.9331 43.8715 65.9345 44.5816C65.939 44.6887 65.9464 44.7958 65.9582 44.9029C65.9641 44.9338 65.97 44.9645 65.9774 44.9954C66.1475 45.7656 65.624 46.5477 64.852 46.7091C64.7529 46.7296 64.6538 46.7399 64.5577 46.7399C63.8818 46.7399 63.2695 46.263 63.1217 45.5911Z" fill="#053B4A"/>
<path d="M94.6111 47.2981C94.3345 46.5718 94.7589 45.8294 95.0636 45.1868C95.2647 44.7613 95.4762 44.3402 95.6818 43.9176C96.1713 42.9067 96.6579 41.8958 97.1385 40.8805C98.0347 38.9907 98.9191 37.0966 99.7991 35.1995C100.13 34.482 101.04 34.1871 101.747 34.526C102.473 34.8737 102.758 35.7423 102.426 36.4583C101.636 38.1603 100.846 39.8608 100.042 41.5554C99.6157 42.4534 99.1927 43.3513 98.7579 44.2463C98.3187 45.153 97.8425 46.0495 97.4417 46.9738C97.3766 47.5108 96.9995 48.0038 96.4686 48.1872C96.3118 48.2415 96.1521 48.2665 95.9968 48.2665C95.3934 48.2679 94.8344 47.8835 94.6111 47.2981Z" fill="#053B4A"/>
<path d="M111.756 62.895C111.223 62.2949 111.302 61.3852 111.887 60.8526C112.814 60.009 113.851 59.2754 114.864 58.5388C115.888 57.7949 116.923 57.0687 117.957 56.3395C119.971 54.9207 121.991 53.4989 124.062 52.1638C124.727 51.7339 125.638 51.8953 126.086 52.557C126.524 53.204 126.357 54.1357 125.69 54.5656C123.877 55.7365 122.108 56.9748 120.342 58.2116C118.522 59.4867 116.707 60.7646 114.934 62.1012C114.554 62.4035 114.172 62.7013 113.813 63.027C113.548 63.2677 113.206 63.3821 112.865 63.3821C112.454 63.3836 112.038 63.2148 111.756 62.895Z" fill="#053B4A"/>
<path d="M121.838 86.0649C121.581 85.3328 121.979 84.4642 122.734 84.2221C123.051 84.1194 123.378 84.0401 123.7 83.9521C126.162 83.2669 128.616 82.5509 131.065 81.8232C131.439 81.7117 131.822 81.7146 132.18 81.8863C132.526 82.0521 132.797 82.3528 132.922 82.7123C133.175 83.4312 132.786 84.3292 132.026 84.5551C129.311 85.3606 126.59 86.1559 123.858 86.9056C123.883 86.8983 123.907 86.8924 123.932 86.8851C123.854 86.9071 123.774 86.9276 123.696 86.9526C123.542 87.0024 123.383 87.0259 123.228 87.0259C122.622 87.0274 122.049 86.6665 121.838 86.0649Z" fill="#053B4A"/>
<path d="M81.8375 43.9823C81.0803 43.9456 80.366 43.2472 80.4548 42.4637C80.542 41.6978 80.5539 40.9202 80.5967 40.1514C80.6455 39.3019 80.7018 38.4509 80.7654 37.6014C80.8955 35.8568 81.0434 34.1153 81.212 32.3752C81.2504 31.9834 81.4042 31.6239 81.7059 31.3598C81.9884 31.1133 82.3655 30.9828 82.7412 31.0018C83.5072 31.04 84.2023 31.7354 84.1254 32.5204C83.9554 34.262 83.8089 36.0036 83.6773 37.7466C83.6137 38.5961 83.5575 39.4457 83.5102 40.2966C83.4658 41.0669 83.4525 41.8431 83.3668 42.609C83.3224 43.0037 83.1804 43.3558 82.8728 43.6243C82.6081 43.8561 82.2576 43.9837 81.9056 43.9837C81.8834 43.9837 81.8612 43.9823 81.8375 43.9823Z" fill="#053B4A"/>
<path d="M70.079 80.4559C69.2996 80.2035 68.9284 79.3922 69.1414 78.6321C69.8897 75.9765 70.7608 73.3531 71.6171 70.7297C72.04 69.4342 72.4733 68.1401 72.9126 66.8504C73.1536 66.1432 73.4006 65.4389 73.6461 64.7332C73.7585 64.4119 73.8887 64.0965 74.0114 63.7795C74.2288 63.2073 74.4758 62.5647 75.0614 62.2742C75.7728 61.922 76.6631 62.2155 77.0195 62.9212C77.2502 63.3819 77.2043 63.9189 76.947 64.3341C76.8805 64.4632 76.8213 64.5938 76.7651 64.7274C75.8245 67.1952 75.0156 69.7144 74.1978 72.2233C73.4065 74.6472 72.6079 77.0725 71.9173 79.5271C71.7442 80.1404 71.129 80.5248 70.5123 80.5248C70.3659 80.5219 70.2195 80.5014 70.079 80.4559Z" fill="#053B4A"/>
<path d="M80.8241 79.2558C80.0817 79.1208 79.4561 78.3359 79.6513 77.5715C80.3287 74.9085 81.0341 72.2543 81.7381 69.5986C82.0782 68.3148 82.4213 67.0325 82.7674 65.7487C82.9537 65.0561 83.1416 64.3622 83.3309 63.6696C83.4152 63.3659 83.4965 63.0607 83.5852 62.7599C83.6681 62.4797 83.7317 62.1833 83.8411 61.9104C83.9875 61.5436 84.2138 61.2428 84.5776 61.0624C84.9177 60.8937 85.3185 60.8629 85.6793 60.9817C86.3996 61.2135 86.9098 62.0704 86.617 62.804C86.5238 63.0387 86.4661 63.294 86.3951 63.5346C86.3079 63.8325 86.225 64.1333 86.1437 64.4326C85.9485 65.1398 85.7577 65.8484 85.5655 66.5586C85.2357 67.7793 84.9088 69.0015 84.585 70.2237C83.9002 72.806 83.214 75.3897 82.5515 77.9764C82.5544 77.9617 82.5588 77.9471 82.5618 77.9339C82.5485 77.9867 82.5352 78.0395 82.5219 78.0923C82.4243 78.4767 82.2409 78.8069 81.9007 79.0328C81.6597 79.1927 81.3713 79.2793 81.0829 79.2793C80.9956 79.2778 80.9099 79.2705 80.8241 79.2558Z" fill="#053B4A"/>
<path d="M75.9005 95.9069C73.975 95.7558 72.0776 95.4037 70.2127 94.9151C68.3685 94.4324 66.5746 93.7604 64.8472 92.9622C63.2234 92.2125 61.6675 91.2999 60.2404 90.2259C57.4423 88.1233 55.2994 85.2902 54.0142 82.0506C53.4818 80.7125 53.1816 79.2819 53.0589 77.8499C53.0086 77.2528 53.0086 76.6615 53.1032 76.0687C53.1816 75.5816 53.4833 75.1356 53.9299 74.9126C54.6398 74.5604 55.5316 74.8553 55.8865 75.5611C56.0625 75.9103 56.0788 76.3035 55.9634 76.6541C55.9604 76.6717 55.9575 76.6893 55.9546 76.7069C55.9442 76.8566 55.9383 77.0048 55.9368 77.1559C55.9531 77.5741 55.993 77.9893 56.0507 78.4045C56.1365 78.9254 56.2459 79.4404 56.382 79.9495C56.5387 80.4718 56.7191 80.9824 56.9262 81.4857C57.1909 82.0814 57.4837 82.6594 57.8061 83.2258C58.1655 83.8244 58.556 84.3995 58.9774 84.9571C59.4019 85.4912 59.8515 85.9988 60.3321 86.483C60.8497 86.9804 61.3895 87.4499 61.9574 87.8901C62.7205 88.4564 63.5147 88.9743 64.3399 89.4468C65.3944 90.0263 66.4769 90.5398 67.592 90.9947C68.8683 91.495 70.1683 91.9161 71.4978 92.2579C72.7194 92.5528 73.9543 92.7773 75.201 92.9299C76.4374 93.062 77.6767 93.128 78.9205 93.1192C79.8788 93.0972 80.8312 93.0282 81.7792 92.9006C82.5571 92.7788 83.3232 92.6218 84.0848 92.4208C84.8331 92.2081 85.5652 91.9557 86.2854 91.6637C87.0352 91.3395 87.7614 90.98 88.4712 90.578C89.0953 90.2112 89.6987 89.8194 90.2888 89.4013C90.8449 88.9729 91.4024 88.5518 91.9289 88.0867C92.4864 87.5922 93.0248 87.0846 93.5572 86.5652C93.8219 86.2864 94.0881 86.0076 94.3528 85.7259C94.6087 85.4574 94.8364 85.1566 95.0775 84.872C95.0375 84.9233 94.9991 84.9747 94.9607 85.0261C96.0639 83.5867 97.111 82.1092 98.0279 80.5452C98.2468 80.1476 98.4583 79.7455 98.649 79.3318C98.9818 78.6158 99.8913 78.3194 100.598 78.6583C101.324 79.0061 101.61 79.8747 101.277 80.5921C100.629 81.9875 99.7967 83.3021 98.9108 84.5595C98.4523 85.2109 97.985 85.8521 97.5014 86.483C97.0104 87.1242 96.4706 87.7169 95.9145 88.3038C95.4162 88.8291 94.8941 89.3411 94.3499 89.8238C94.0423 90.0967 93.7346 90.3682 93.4285 90.6411C93.0869 90.9433 92.6965 91.2045 92.3356 91.4847C90.9454 92.5573 89.4089 93.4449 87.8028 94.1609C85.8403 95.0354 83.758 95.5621 81.6298 95.8365C80.636 95.9641 79.6318 96.0184 78.6276 96.0184C77.7137 96.0213 76.8042 95.9773 75.9005 95.9069Z" fill="#053B4A"/>
</svg>
