<svg width="24" height="24" viewBox="0 0 24 24" fill="none" xmlns="http://www.w3.org/2000/svg">
<g clip-path="url(#clip0_1423_246273)">
<path d="M12 24C18.6274 24 24 18.6274 24 12C24 5.37258 18.6274 0 12 0C5.37258 0 0 5.37258 0 12C0 18.6274 5.37258 24 12 24Z" fill="#635BFF"/>
<path d="M18.3217 12.0879C18.3217 11.1891 17.8863 10.4796 17.0542 10.4796C16.2222 10.4796 15.7129 11.1889 15.7129 12.0809C15.7129 13.1377 16.3098 13.6716 17.166 13.6716C17.5839 13.6716 17.8998 13.5779 18.1387 13.4433V12.7402C17.8998 12.8595 17.6261 12.9333 17.2785 12.9333C16.938 12.9333 16.6359 12.814 16.5974 12.3996H18.3145C18.3147 12.3546 18.3217 12.1721 18.3217 12.0879ZM16.5873 11.7544C16.5873 11.3576 16.8297 11.1919 17.0509 11.1919C17.2652 11.1919 17.4934 11.356 17.4934 11.7544H16.5873ZM14.3575 10.4796C14.1014 10.4787 13.8548 10.5769 13.6694 10.7536L13.6237 10.5359H12.8502V14.63L13.728 14.4439L13.7315 13.4501C13.8578 13.5415 14.0439 13.6714 14.353 13.6714C14.9816 13.6714 15.554 13.1658 15.554 12.0528C15.5512 11.0344 14.9718 10.4796 14.3575 10.4796ZM14.1466 12.8989C13.9394 12.8989 13.8166 12.825 13.7322 12.7348L13.7287 11.4321C13.8201 11.3304 13.9464 11.2601 14.1466 11.2601C14.466 11.2601 14.6873 11.6182 14.6873 12.0783C14.6875 12.5478 14.4698 12.8989 14.1468 12.8989H14.1466ZM11.6432 10.2725L12.5245 10.0829V9.37012L11.6432 9.55621V10.2725ZM11.6432 10.5394H12.5245V13.6118H11.6432V10.5394ZM10.6987 10.7991L10.642 10.5394H9.88398V13.6116H10.7617V11.5294C10.9689 11.2589 11.32 11.3082 11.4288 11.3468V10.5394C11.3167 10.4972 10.9059 10.4199 10.6987 10.7991ZM8.94297 9.77746L8.08727 9.96098L8.08375 12.7735C8.08375 13.2931 8.47352 13.6758 8.99312 13.6758C9.28094 13.6758 9.49164 13.6231 9.60766 13.56V12.8464C9.49539 12.8921 8.94063 13.0536 8.94063 12.5339V11.2873H9.60766V10.5394H8.93945L8.94297 9.77746ZM6.56945 11.4312C6.56945 11.2943 6.68172 11.2416 6.86781 11.2416C7.17155 11.248 7.46964 11.3249 7.73852 11.4664V10.6407C7.46156 10.5316 7.16617 10.4769 6.86852 10.4796C6.15578 10.4796 5.68164 10.8518 5.68164 11.4734C5.68164 12.4425 7.01594 12.2881 7.01594 12.7057C7.01594 12.8672 6.87531 12.92 6.67891 12.92C6.38758 12.92 6.01516 12.8007 5.72031 12.6387V13.4745C6.02298 13.6055 6.34911 13.6736 6.67891 13.6746C7.40922 13.6746 7.91125 13.313 7.91125 12.6844C7.90727 11.6384 6.56945 11.8245 6.56945 11.4312Z" fill="white"/>
</g>
<defs>
<clipPath id="clip0_1423_246273">
<rect width="24" height="24" fill="white"/>
</clipPath>
</defs>
</svg>
