<svg width="18" height="18" viewBox="0 0 18 18" fill="none" xmlns="http://www.w3.org/2000/svg">
<g clip-path="url(#clip0_1423_226137)">
<path fill-rule="evenodd" clip-rule="evenodd" d="M12.1234 3.20669C11.1403 0.181102 6.85992 0.181102 5.87684 3.20669C5.58781 4.09625 4.75885 4.69853 3.82351 4.69853C0.642211 4.69853 -0.680508 8.76944 1.89321 10.6394C2.64992 11.1891 2.96656 12.1636 2.67752 13.0532C1.69445 16.0788 5.15737 18.5948 7.73109 16.7248C8.48779 16.1751 9.51245 16.1751 10.2692 16.7248C12.8429 18.5948 16.3058 16.0788 15.3227 13.0532C15.0337 12.1636 15.3503 11.1891 16.107 10.6394C18.6808 8.76944 17.358 4.69853 14.1767 4.69853C13.2414 4.69853 12.4124 4.09625 12.1234 3.20669ZM6.94678 3.55434C7.59309 1.56522 10.4072 1.56522 11.0535 3.55434C11.4931 4.90742 12.754 5.82353 14.1767 5.82353C16.2682 5.82353 17.1378 8.49987 15.4458 9.72921C14.2948 10.5655 13.8131 12.0478 14.2528 13.4008C14.8991 15.39 12.6225 17.044 10.9304 15.8147C9.77941 14.9784 8.22083 14.9784 7.06983 15.8147C5.37779 17.044 3.10116 15.39 3.74746 13.4008C4.1871 12.0478 3.70548 10.5655 2.55447 9.72921C0.862429 8.49987 1.73202 5.82353 3.82351 5.82353C5.24623 5.82353 6.50714 4.90742 6.94678 3.55434Z" fill="currentColor"/>
</g>
<defs>
<clipPath id="clip0_1423_226137">
<rect width="18" height="18" fill="white"/>
</clipPath>
</defs>
</svg>
