<svg width="18" height="14" viewBox="0 0 18 14" fill="none" xmlns="http://www.w3.org/2000/svg">
<path d="M11.6713 0.927262C12.008 0.589201 12.3818 0.308957 12.8595 0.232856C12.9612 0.216643 13.0639 0.208496 13.1667 0.208496C13.2695 0.208496 13.3722 0.216643 13.4739 0.232856C13.9516 0.308957 14.3253 0.589201 14.6621 0.927262C14.9903 1.25669 15.3569 1.71912 15.8012 2.27951L16.9898 3.77852C17.2042 4.049 17.1588 4.44211 16.8883 4.65657C16.6179 4.87102 16.2247 4.82561 16.0103 4.55514L14.8454 3.086C14.3802 2.49931 14.0606 2.09764 13.7917 1.82476L13.7917 12.5002C13.7917 12.8453 13.5119 13.1252 13.1667 13.1252C12.8215 13.1252 12.5417 12.8453 12.5417 12.5002L12.5417 1.82476C12.2728 2.09764 11.9531 2.49931 11.488 3.086L10.3231 4.55514C10.1086 4.82561 9.71552 4.87102 9.44505 4.65657C9.17457 4.44211 9.12916 4.049 9.34362 3.77852L10.5322 2.27951C10.9765 1.71911 11.3431 1.25669 11.6713 0.927262Z" fill="currentColor"/>
<path d="M5.45836 1.66683C5.45836 1.32165 5.17853 1.04183 4.83336 1.04183C4.48818 1.04183 4.20836 1.32165 4.20836 1.66683L4.20836 12.3422C3.93948 12.0694 3.61981 11.6677 3.15463 11.081L1.98976 9.61185C1.7753 9.34138 1.38219 9.29597 1.11172 9.51043C0.841242 9.72488 0.795832 10.118 1.01029 10.3885L2.19883 11.8875C2.64315 12.4479 3.00979 12.9103 3.33795 13.2397C3.67471 13.5778 4.04849 13.858 4.52613 13.9341C4.62789 13.9503 4.73054 13.9585 4.83336 13.9585C4.93618 13.9585 5.03883 13.9503 5.14059 13.9341C5.61823 13.858 5.992 13.5778 6.32876 13.2397C6.65693 12.9103 7.02357 12.4479 7.46789 11.8875L8.65643 10.3885C8.87088 10.118 8.82547 9.72488 8.555 9.51043C8.28453 9.29597 7.89141 9.34138 7.67695 9.61185L6.51208 11.081C6.0469 11.6677 5.72724 12.0694 5.45836 12.3422L5.45836 1.66683Z" fill="currentColor"/>
<path d="M11.6713 0.927262C12.008 0.589201 12.3818 0.308957 12.8595 0.232856C12.9612 0.216643 13.0639 0.208496 13.1667 0.208496C13.2695 0.208496 13.3722 0.216643 13.4739 0.232856C13.9516 0.308957 14.3253 0.589201 14.6621 0.927262C14.9903 1.25669 15.3569 1.71912 15.8012 2.27951L16.9898 3.77852C17.2042 4.049 17.1588 4.44211 16.8883 4.65657C16.6179 4.87102 16.2247 4.82561 16.0103 4.55514L14.8454 3.086C14.3802 2.49931 14.0606 2.09764 13.7917 1.82476L13.7917 12.5002C13.7917 12.8453 13.5119 13.1252 13.1667 13.1252C12.8215 13.1252 12.5417 12.8453 12.5417 12.5002L12.5417 1.82476C12.2728 2.09764 11.9531 2.49931 11.488 3.086L10.3231 4.55514C10.1086 4.82561 9.71552 4.87102 9.44505 4.65657C9.17457 4.44211 9.12916 4.049 9.34362 3.77852L10.5322 2.27951C10.9765 1.71911 11.3431 1.25669 11.6713 0.927262Z" stroke="currentColor"/>
<path d="M5.45836 1.66683C5.45836 1.32165 5.17853 1.04183 4.83336 1.04183C4.48818 1.04183 4.20836 1.32165 4.20836 1.66683L4.20836 12.3422C3.93948 12.0694 3.61981 11.6677 3.15463 11.081L1.98976 9.61185C1.7753 9.34138 1.38219 9.29597 1.11172 9.51043C0.841242 9.72488 0.795832 10.118 1.01029 10.3885L2.19883 11.8875C2.64315 12.4479 3.00979 12.9103 3.33795 13.2397C3.67471 13.5778 4.04849 13.858 4.52613 13.9341C4.62789 13.9503 4.73054 13.9585 4.83336 13.9585C4.93618 13.9585 5.03883 13.9503 5.14059 13.9341C5.61823 13.858 5.992 13.5778 6.32876 13.2397C6.65693 12.9103 7.02357 12.4479 7.46789 11.8875L8.65643 10.3885C8.87088 10.118 8.82547 9.72488 8.555 9.51043C8.28453 9.29597 7.89141 9.34138 7.67695 9.61185L6.51208 11.081C6.0469 11.6677 5.72724 12.0694 5.45836 12.3422L5.45836 1.66683Z" stroke="currentColor"/>
</svg>
