<svg width="24" height="24" viewBox="0 0 24 24" fill="none" xmlns="http://www.w3.org/2000/svg">
<path d="M10.2628 9.28849C9.86987 9.41947 9.6575 9.84421 9.78849 10.2372C9.91947 10.6301 10.3442 10.8425 10.7372 10.7115L10.5 10L10.2628 9.28849ZM10.7351 9.92164L10.4979 9.21012L10.7351 9.92164ZM13.2649 9.92164L13.0277 10.6331L13.0277 10.6332L13.2649 9.92164ZM13.2628 10.7115C13.6558 10.8425 14.0805 10.6301 14.2115 10.2372C14.3425 9.84421 14.1301 9.41947 13.7372 9.28849L13.5 10L13.2628 10.7115ZM20.75 10C20.75 9.58579 20.4142 9.25 20 9.25C19.5858 9.25 19.25 9.58579 19.25 10H20H20.75ZM4.75 10C4.75 9.58579 4.41421 9.25 4 9.25C3.58579 9.25 3.25 9.58579 3.25 10H4H4.75ZM9.8181 21.2724C9.41625 21.3729 9.17193 21.7801 9.27239 22.1819C9.37285 22.5837 9.78006 22.8281 10.1819 22.7276L10 22L9.8181 21.2724ZM10.7873 21.8032L10.6054 21.0756L10.7873 21.8032ZM13.2127 21.8032L13.3946 21.0756L13.2127 21.8032ZM13.8181 22.7276C14.2199 22.8281 14.6271 22.5837 14.7276 22.1819C14.8281 21.7801 14.5837 21.3729 14.1819 21.2724L14 22L13.8181 22.7276ZM12 21.6539V22.4039V21.6539ZM16 6H15.25V10H16H16.75V6H16ZM8 10H8.75V6H8H7.25V10H8ZM12 14V13.25C10.2051 13.25 8.75 11.7949 8.75 10H8H7.25C7.25 12.6234 9.37665 14.75 12 14.75V14ZM16 10H15.25C15.25 11.7949 13.7949 13.25 12 13.25V14V14.75C14.6234 14.75 16.75 12.6234 16.75 10H16ZM12 2V2.75C13.7949 2.75 15.25 4.20507 15.25 6H16H16.75C16.75 3.37665 14.6234 1.25 12 1.25V2ZM12 2V1.25C9.37665 1.25 7.25 3.37665 7.25 6H8H8.75C8.75 4.20507 10.2051 2.75 12 2.75V2ZM10.5 10L10.7372 10.7115L10.9723 10.6331L10.7351 9.92164L10.4979 9.21012L10.2628 9.28849L10.5 10ZM13.2649 9.92164L13.0277 10.6332L13.2628 10.7115L13.5 10L13.7372 9.28849L13.5021 9.21012L13.2649 9.92164ZM10.7351 9.92164L10.9723 10.6331C11.6394 10.4108 12.3606 10.4108 13.0277 10.6331L13.2649 9.92164L13.5021 9.21012C12.5271 8.88512 11.4729 8.88512 10.4979 9.21012L10.7351 9.92164ZM20 10H19.25C19.25 14.0041 16.0041 17.25 12 17.25V18V18.75C16.8325 18.75 20.75 14.8325 20.75 10H20ZM12 18V17.25C7.99594 17.25 4.75 14.0041 4.75 10H4H3.25C3.25 14.8325 7.16751 18.75 12 18.75V18ZM12 19H11.25V21H12H12.75V19H12ZM10 22L10.1819 22.7276L10.9692 22.5308L10.7873 21.8032L10.6054 21.0756L9.8181 21.2724L10 22ZM13.2127 21.8032L13.0308 22.5308L13.8181 22.7276L14 22L14.1819 21.2724L13.3946 21.0756L13.2127 21.8032ZM12 19H12.75V18H12H11.25V19H12ZM10.7873 21.8032L10.9692 22.5308C11.3076 22.4462 11.6538 22.4039 12 22.4039V21.6539V20.9039C11.5316 20.9039 11.0632 20.9611 10.6054 21.0756L10.7873 21.8032ZM12 21.6539V22.4039C12.3462 22.4039 12.6924 22.4462 13.0308 22.5308L13.2127 21.8032L13.3946 21.0756C12.9368 20.9611 12.4684 20.9039 12 20.9039V21.6539ZM12 21H11.25V21.6539H12H12.75V21H12Z" fill="#048F99"/>
</svg>
