<svg width="46" height="40" viewBox="0 0 46 40" fill="none" xmlns="http://www.w3.org/2000/svg">
<circle cx="25.4023" cy="20" r="20" fill="#F4A672"/>
<path d="M18.9296 37.9934C18.5769 37.9786 18.2242 37.9643 17.8716 37.9495C17.7649 37.945 17.6577 37.9291 17.5516 37.9183C17.3245 37.8966 17.0974 37.8744 16.8703 37.8523C16.5945 37.8255 16.3244 37.7806 16.0514 37.7362C15.7744 37.6907 15.4946 37.6537 15.2216 37.5888C14.8822 37.5086 14.5427 37.429 14.2032 37.3476C14.077 37.3175 13.9532 37.2759 13.8287 37.2384C13.6119 37.1735 13.3963 37.1081 13.1796 37.0432C12.925 36.9664 12.6767 36.8748 12.4266 36.785C12.1548 36.6865 11.8807 36.5949 11.614 36.484C11.2625 36.3372 10.9121 36.1899 10.5618 36.0437C10.482 36.0101 10.4052 35.9697 10.3278 35.9327C10.1208 35.8337 9.91491 35.7342 9.70789 35.6346C9.46074 35.5157 9.22102 35.386 8.9796 35.2551C8.72843 35.1197 8.47668 34.9866 8.23125 34.8404C7.93649 34.6646 7.64174 34.4877 7.34641 34.313C7.24376 34.2527 7.14684 34.1799 7.04878 34.1133C6.86069 33.9876 6.67259 33.8613 6.48507 33.735C6.26257 33.5854 6.05327 33.4209 5.84109 33.2571C5.67938 33.1319 5.51708 33.0073 5.35537 32.8822C5.29114 32.8321 5.22635 32.7837 5.16556 32.7291C4.88055 32.4725 4.59555 32.216 4.30997 31.9599C4.09148 31.7637 3.89652 31.5384 3.69351 31.3262C3.58054 31.2078 3.46699 31.0895 3.35402 30.9712C3.28578 30.9006 3.22672 30.821 3.16421 30.7453C2.92451 30.4557 2.6785 30.1701 2.45027 29.8715C1.92384 29.1825 1.44901 28.4474 1.06996 27.668C0.891616 27.3005 0.741948 26.9205 0.625537 26.529C0.497083 26.1001 0.398442 25.6626 0.312997 25.2234C0.151283 24.3888 0.0291371 23.549 0.00390514 22.6985C-0.0219003 21.8309 0.0824734 20.9707 0.249348 20.1207C0.315869 19.7822 0.405903 19.4466 0.484466 19.1109C0.554427 18.8122 0.650187 18.5192 0.735632 18.2251C0.775774 18.0885 0.815354 17.9509 0.85607 17.8143C0.889903 17.6988 0.938063 17.5851 0.978205 17.4713C1.08372 17.176 1.17835 16.8733 1.30049 16.5838C1.44328 16.2447 1.5855 15.9062 1.72829 15.5671C1.75926 15.4931 1.79595 15.422 1.83151 15.3503C1.93014 15.1489 2.02877 14.9464 2.1274 14.745C2.24783 14.4987 2.37916 14.2614 2.5122 14.0219C2.65098 13.7727 2.78459 13.519 2.93484 13.2766C3.13555 12.954 3.33624 12.6315 3.53638 12.3089C3.68376 12.0711 3.85809 11.8458 4.01923 11.6165C4.12303 11.4686 4.22683 11.3201 4.33119 11.1722C4.48201 10.9571 4.64773 10.7529 4.81174 10.5487C5.34964 9.87847 5.94661 9.25265 6.59232 8.68487C7.23172 8.12278 7.92962 7.62839 8.64987 7.17439C9.38447 6.71186 10.1529 6.30167 10.9448 5.94496C11.7385 5.58654 12.5597 5.2924 13.3963 5.05004C13.788 4.93682 14.1825 4.83613 14.5799 4.74567C14.9286 4.66659 15.2818 4.58694 15.6357 4.5346C16.0113 4.47885 16.3863 4.42423 16.7614 4.36847C16.9128 4.34629 17.0647 4.32411 17.2161 4.30192C17.5447 4.25299 17.8779 4.22682 18.2087 4.20008C18.6331 4.16538 19.058 4.14944 19.4835 4.14432C19.8465 4.13977 20.2158 4.1375 20.5771 4.16651C20.955 4.19666 21.3329 4.22739 21.7108 4.25754C22.3187 4.30647 22.9197 4.41342 23.5224 4.50331C23.6032 4.51526 23.6835 4.53688 23.7638 4.55394C23.984 4.60117 24.2048 4.64839 24.425 4.69561C24.6744 4.74852 24.9239 4.79972 25.1699 4.86685C25.432 4.93911 25.694 5.01079 25.9561 5.08361C26.1041 5.12457 26.2572 5.15757 26.4017 5.20877C26.6362 5.29183 26.8708 5.37604 27.1053 5.4591C27.2699 5.5177 27.4362 5.57231 27.5973 5.64115C27.8382 5.74412 28.0796 5.84767 28.3205 5.95122C28.6502 6.09288 28.9702 6.25274 29.2816 6.42967C29.7443 6.69251 30.1882 6.98835 30.5713 7.35758C30.8408 7.61701 31.1086 7.93902 31.1797 8.31508C31.1963 8.40326 31.1923 8.49087 31.1699 8.57336C31.3036 8.57223 31.436 8.61603 31.5364 8.71161C31.6522 8.82198 31.7669 8.93292 31.881 9.04443C31.92 9.08198 31.9584 9.11952 31.9969 9.15764C32.0531 9.21283 32.1161 9.26631 32.1678 9.32718C32.1861 9.34482 32.2045 9.36302 32.2228 9.38123C32.4218 9.57921 32.6185 9.78004 32.8129 9.98315C33.2177 10.4053 33.5934 10.853 33.9523 11.3139C34.3188 11.7838 34.6433 12.2793 34.9358 12.797C35.2346 13.325 35.4978 13.866 35.7375 14.423C35.9789 14.9834 36.1716 15.5648 36.3431 16.1491C36.5117 16.722 36.6521 17.3034 36.7617 17.8906C36.8764 18.5107 36.963 19.1342 37.041 19.76C37.1883 20.9434 37.2583 22.133 37.1751 23.3232C37.1522 23.6566 37.1333 23.9928 37.0851 24.3239C37.0392 24.6323 36.9882 24.9383 36.9314 25.2456C36.8781 25.53 36.8139 25.8133 36.7491 26.0955C36.7198 26.2235 36.6906 26.351 36.6556 26.4778C36.612 26.6337 36.5759 26.7942 36.5254 26.9483C36.4262 27.251 36.3253 27.552 36.214 27.8512C36.0993 28.1584 35.9703 28.4588 35.8419 28.7603C35.7943 28.8707 35.7369 28.9771 35.683 29.0846C35.6131 29.2234 35.5477 29.3645 35.4691 29.4994C35.3143 29.7656 35.1629 30.0319 34.9909 30.2868C34.9112 30.404 34.8372 30.5286 34.7512 30.6412C34.6336 30.7948 34.516 30.949 34.3979 31.1032C34.2081 31.3518 34.0022 31.589 33.8015 31.8285C33.6203 32.0441 33.4225 32.2473 33.2338 32.4561C33.1369 32.5636 33.0291 32.6637 32.9276 32.7673C32.8089 32.8879 32.6936 33.0147 32.5692 33.1302C32.4596 33.2321 32.3501 33.3333 32.2406 33.4346C32.1299 33.5364 32.0238 33.6457 31.9086 33.7412C31.7864 33.8431 31.6631 33.9443 31.5404 34.0456C31.4125 34.1514 31.2881 34.2641 31.1533 34.3619C30.9033 34.544 30.6538 34.726 30.4038 34.9075C30.2886 34.9912 30.1607 35.0617 30.0408 35.1379C29.89 35.2341 29.7386 35.3297 29.5872 35.4264C29.4817 35.4929 29.3676 35.5493 29.2586 35.609C29.0717 35.712 28.8842 35.8155 28.6978 35.9185C28.4351 36.063 28.1559 36.1808 27.8852 36.3088C27.6145 36.4373 27.3364 36.5454 27.0583 36.6569C26.9138 36.715 26.7693 36.7724 26.6248 36.8305C26.4992 36.8805 26.3661 36.9158 26.2377 36.9585C25.9498 37.0529 25.6642 37.1496 25.3706 37.2264C25.0753 37.3038 24.7805 37.3914 24.4812 37.4529C24.2799 37.4938 24.0798 37.5359 23.8785 37.5769C23.7695 37.5991 23.6606 37.6253 23.5505 37.6429C23.2047 37.6969 22.8589 37.7504 22.5137 37.8045C22.1845 37.8557 21.849 37.8784 21.5176 37.9126C21.2343 37.9427 20.9504 37.953 20.666 37.9683C20.381 37.9837 20.0989 37.9928 19.8139 37.9945C19.6275 37.9956 19.4411 38.0002 19.2542 38.0002C19.1458 37.9996 19.038 37.9979 18.9296 37.9934ZM17.6565 36.8026C17.9048 36.8265 18.1508 36.8379 18.4003 36.8481C18.6698 36.8595 18.9405 36.8777 19.21 36.8766C19.5248 36.8743 19.8408 36.8726 20.1562 36.8709C20.5152 36.8515 20.8747 36.8328 21.2332 36.8134C21.4167 36.8032 21.6019 36.7747 21.7848 36.7554C21.9649 36.736 22.1444 36.7167 22.3233 36.6985C22.5859 36.6575 22.8497 36.616 23.1124 36.575C23.3263 36.5415 23.5361 36.4994 23.7477 36.4561C23.9834 36.4072 24.222 36.3674 24.4548 36.3059C24.7318 36.2331 25.0093 36.1603 25.2869 36.0875C25.6069 35.9816 25.9274 35.877 26.2474 35.7711C26.4131 35.7165 26.5749 35.6403 26.7366 35.5754C26.8822 35.5168 27.0279 35.4588 27.1741 35.4008C27.4866 35.2529 27.7992 35.1055 28.1117 34.9576C28.2499 34.8922 28.3824 34.8085 28.5166 34.7351C28.6691 34.6509 28.8211 34.5673 28.9736 34.4831C29.2385 34.3153 29.5035 34.1469 29.7684 33.9779C29.8911 33.8994 30.0064 33.805 30.124 33.7191C30.2432 33.632 30.3625 33.5455 30.4818 33.4591C30.7077 33.2719 30.9342 33.0853 31.1608 32.8975C31.2617 32.8139 31.3552 32.7178 31.4521 32.629C31.5725 32.5175 31.6935 32.406 31.8139 32.2939C32.0817 32.0225 32.3495 31.7523 32.6059 31.4695C32.7326 31.3296 32.8628 31.1925 32.9844 31.048C33.1306 30.8733 33.2774 30.6981 33.4242 30.5229C33.5291 30.3857 33.6341 30.2481 33.739 30.1115C33.8273 29.996 33.9076 29.8749 33.989 29.7542C34.0722 29.6314 34.1594 29.5102 34.2345 29.3816C34.3239 29.2274 34.414 29.0738 34.5034 28.9196C34.6038 28.7177 34.7053 28.5157 34.8062 28.3137C34.8527 28.2204 34.8888 28.1197 34.9295 28.0242C34.9714 27.9257 35.0132 27.8273 35.0551 27.7289C35.1549 27.4621 35.2552 27.197 35.3441 26.9262C35.4353 26.6479 35.515 26.3686 35.593 26.0864C35.6681 25.7599 35.7398 25.4327 35.8075 25.105C35.8723 24.7881 35.9221 24.4696 35.9692 24.1504C36.0076 23.7795 36.0397 23.4091 36.0592 23.0364C36.0787 22.6649 36.0844 22.2951 36.0827 21.9236C36.0609 21.4116 36.0248 20.9041 35.9755 20.3944C35.9273 19.8926 35.8591 19.3925 35.7885 18.8941C35.7266 18.5141 35.6624 18.1346 35.5832 17.7574C35.5041 17.382 35.4112 17.0104 35.3126 16.6395C35.2266 16.3477 35.1405 16.0564 35.0408 15.7691C34.9352 15.4647 34.8217 15.1649 34.7018 14.8662C34.5763 14.5743 34.4472 14.2842 34.3027 14.0014C34.1485 13.6988 33.9856 13.4029 33.8147 13.1099C33.5916 12.7379 33.3485 12.3829 33.0882 12.0364C32.8284 11.7041 32.5623 11.3776 32.279 11.0647C31.99 10.7455 31.6889 10.4377 31.3844 10.1333C31.3942 10.143 31.4033 10.1521 31.4131 10.1612C31.3999 10.1481 31.3867 10.135 31.3735 10.122C31.3695 10.118 31.3655 10.1134 31.3609 10.1094C31.3632 10.1117 31.3661 10.1146 31.3684 10.1168C31.3638 10.1123 31.3592 10.1077 31.3546 10.1032C31.3443 10.0935 31.334 10.0838 31.3248 10.0736C31.3156 10.0645 31.3058 10.0548 31.2967 10.0457C31.2921 10.0412 31.2875 10.0372 31.2829 10.0326C31.1206 9.87335 30.9578 9.71519 30.7932 9.55817C30.6355 9.4074 30.569 9.19178 30.6194 8.99322C30.3648 8.98696 30.124 8.80662 30.0752 8.54833C30.0741 8.54093 30.0723 8.53354 30.0706 8.52614C30.0683 8.51988 30.0655 8.51419 30.0632 8.50794C30.0557 8.49428 30.0488 8.48063 30.0414 8.46698C30.0248 8.44024 30.0064 8.41406 29.9881 8.38903C29.929 8.31564 29.8676 8.2468 29.8023 8.1791C29.6836 8.06645 29.5597 7.9612 29.4301 7.8605C29.1978 7.69154 28.9558 7.53793 28.707 7.39456C28.3921 7.22161 28.0704 7.06686 27.7407 6.9252C27.5256 6.83304 27.31 6.74087 27.095 6.64814C26.8954 6.57702 26.6959 6.50648 26.4963 6.43537C26.3329 6.37734 26.1694 6.30736 26.002 6.26128C25.573 6.14294 25.1435 6.02517 24.714 5.90684C24.253 5.80955 23.793 5.70772 23.3314 5.611C23.2683 5.59734 23.2024 5.59166 23.1382 5.58199C22.9736 5.55752 22.8084 5.53305 22.6438 5.50859C22.4082 5.47332 22.1725 5.43804 21.9368 5.40334C21.6128 5.37717 21.2893 5.351 20.9653 5.3254C20.8134 5.31289 20.6614 5.30094 20.5095 5.28842C20.3638 5.27647 20.2164 5.27647 20.0708 5.27249C19.8276 5.26623 19.5845 5.26566 19.3407 5.26851C18.6979 5.28273 18.0579 5.33507 17.4191 5.40619C17.0108 5.46649 16.6025 5.52623 16.1936 5.58654C15.4298 5.69918 14.6751 5.86417 13.9308 6.06614C13.2048 6.26981 12.4926 6.5133 11.7958 6.80118C11.1226 7.08734 10.4694 7.41334 9.83461 7.77517C9.21529 8.13587 8.61488 8.52671 8.04315 8.95795C7.59242 9.30556 7.16291 9.67593 6.75633 10.0736C6.26316 10.5697 5.80898 11.0977 5.38176 11.6495C5.23668 11.8412 5.10249 12.0415 4.96371 12.2383C4.81289 12.4534 4.66207 12.6679 4.51068 12.8829C4.39369 13.0496 4.29391 13.2305 4.18668 13.4035C4.06453 13.5998 3.94238 13.7961 3.82024 13.9929C3.674 14.2557 3.52836 14.5186 3.38213 14.7814C3.25654 15.0073 3.14528 15.2388 3.03174 15.4709C2.91705 15.7059 2.79778 15.938 2.69685 16.1793C2.57585 16.4677 2.4537 16.7556 2.3327 17.0446C2.20023 17.4149 2.06777 17.7847 1.93588 18.1551C1.87509 18.3252 1.83323 18.5044 1.78277 18.678C1.72428 18.8776 1.66636 19.0773 1.60787 19.277C1.5488 19.5313 1.48915 19.7862 1.43008 20.0411C1.33088 20.4661 1.25232 20.8933 1.19841 21.3263C1.15426 21.7376 1.1296 22.1484 1.13247 22.562C1.14451 23.0495 1.1858 23.5342 1.25347 24.0173C1.3607 24.7187 1.49317 25.4162 1.6784 26.1018C1.75008 26.3487 1.83323 26.5894 1.93014 26.8283C2.08325 27.1827 2.25816 27.5264 2.45256 27.8609C2.74961 28.3547 3.07475 28.8292 3.42341 29.2889C3.67745 29.5967 3.93263 29.9033 4.1861 30.2117C4.22337 30.2566 4.26754 30.2964 4.30825 30.3385C4.41262 30.4478 4.51698 30.557 4.62135 30.6662C4.75554 30.8062 4.88916 30.9467 5.02335 31.0861C5.33703 31.3694 5.65242 31.6505 5.9661 31.9338C6.00796 31.9719 6.05728 32.0043 6.10201 32.039C6.22071 32.1301 6.33828 32.2217 6.45699 32.3127C6.61927 32.4378 6.78099 32.5636 6.94385 32.6887C7.2862 32.9186 7.62855 33.1484 7.97147 33.3783C8.13089 33.4858 8.30407 33.5768 8.46979 33.6752C8.64068 33.7776 8.81215 33.8801 8.98418 33.9819C9.26346 34.1321 9.54216 34.284 9.82086 34.4353C10.056 34.5622 10.2997 34.6731 10.5405 34.7892C10.7705 34.8996 10.9976 35.0111 11.2327 35.1095C11.5406 35.2381 11.848 35.3678 12.156 35.4964C12.5425 35.6352 12.9284 35.774 13.3149 35.9134C13.4967 35.9794 13.6877 36.026 13.8729 36.0818C14.069 36.1409 14.2663 36.2001 14.4624 36.2593C14.8311 36.3475 15.1998 36.4334 15.5686 36.5215C15.6271 36.5352 15.6884 36.5415 15.7475 36.5511C15.88 36.5728 16.013 36.5949 16.146 36.6166C16.3508 36.6507 16.5549 36.6843 16.7596 36.7178C17.0578 36.744 17.3572 36.773 17.6565 36.8026Z" fill="#053B4A"/>
<path d="M6.56005 8.7695C6.55833 8.76552 6.55719 8.76154 6.55547 8.75756C6.47748 8.59769 6.38745 8.44351 6.29972 8.2882C6.20338 8.11752 6.11277 7.94343 6.02274 7.76934C5.84267 7.41946 5.66662 7.06673 5.49631 6.71172C5.15625 6.00114 4.82421 5.28714 4.50423 4.56746C4.44344 4.43092 4.42452 4.28755 4.47211 4.14361C4.51856 4.00138 4.62236 3.88134 4.75713 3.81478C5.02321 3.68279 5.39137 3.78577 5.51638 4.06568C5.83866 4.79048 6.16839 5.51244 6.5159 6.22586C6.70743 6.61785 6.90127 7.00812 7.10083 7.39613C7.18226 7.55372 7.2677 7.70847 7.35487 7.86322C7.4535 8.03901 7.55614 8.21197 7.62782 8.40028C7.73678 8.68645 7.56532 9.01641 7.27974 9.1154C7.21895 9.13645 7.15759 9.14613 7.09681 9.14613C6.86284 9.14613 6.64664 8.99707 6.56005 8.7695Z" fill="#053B4A"/>
<path d="M14.0052 5.65798C13.9547 5.42813 13.9628 5.19147 13.9708 4.95821C13.976 4.80062 13.9869 4.64302 13.9966 4.48543C14.0132 4.22259 14.0339 3.95975 14.0528 3.69748C14.0964 3.08874 14.1411 2.47942 14.187 1.87011C14.2094 1.56517 14.4668 1.32224 14.7805 1.3376C15.0827 1.3524 15.3396 1.62149 15.3167 1.92643C15.2766 2.47202 15.2364 3.01762 15.1963 3.56265C15.175 3.85507 15.1544 4.14807 15.1338 4.44049C15.1143 4.71585 15.0953 4.9912 15.0959 5.26656C15.0976 5.30809 15.1005 5.34963 15.1051 5.39116C15.1074 5.40311 15.1097 5.41505 15.1125 5.42699C15.1785 5.72568 14.9755 6.02891 14.6761 6.09149C14.6377 6.09946 14.5993 6.10345 14.562 6.10345C14.3 6.10345 14.0625 5.91854 14.0052 5.65798Z" fill="#053B4A"/>
<path d="M26.2164 6.31933C26.1091 6.03772 26.2737 5.74985 26.3918 5.50066C26.4698 5.33567 26.5518 5.17239 26.6316 5.00854C26.8214 4.61656 27.01 4.22457 27.1964 3.83087C27.5439 3.09811 27.8869 2.36363 28.2281 1.62802C28.3565 1.34982 28.7092 1.23547 28.9833 1.36689C29.2649 1.50172 29.3755 1.83852 29.2465 2.11615C28.9403 2.7761 28.6341 3.43548 28.3221 4.09258C28.157 4.44076 27.9929 4.78894 27.8243 5.13598C27.654 5.48757 27.4694 5.83518 27.314 6.1936C27.2887 6.40182 27.1425 6.59299 26.9366 6.6641C26.8758 6.68515 26.8139 6.69482 26.7537 6.69482C26.5197 6.69539 26.303 6.54633 26.2164 6.31933Z" fill="#053B4A"/>
<path d="M32.8651 12.367C32.6586 12.1343 32.689 11.7816 32.9161 11.5751C33.2756 11.248 33.6776 10.9635 34.0704 10.6779C34.4673 10.3895 34.8687 10.1078 35.2695 9.8251C36.0506 9.27495 36.8339 8.72366 37.6367 8.20595C37.8948 8.03925 38.2481 8.10184 38.4218 8.35842C38.5916 8.60931 38.5268 8.97058 38.2681 9.13727C37.5651 9.59127 36.8792 10.0714 36.1945 10.551C35.4886 11.0454 34.785 11.541 34.0974 12.0592C33.95 12.1764 33.8021 12.2919 33.6627 12.4182C33.5601 12.5115 33.4276 12.5559 33.2951 12.5559C33.1357 12.5565 32.9746 12.4911 32.8651 12.367Z" fill="#053B4A"/>
<path d="M36.7745 21.352C36.6747 21.0681 36.829 20.7313 37.122 20.6374C37.2447 20.5976 37.3714 20.5669 37.4964 20.5327C38.4512 20.2671 39.4026 19.9894 40.3523 19.7072C40.4973 19.664 40.6459 19.6651 40.7846 19.7317C40.9188 19.796 41.0238 19.9126 41.0725 20.052C41.1706 20.3308 41.0197 20.679 40.725 20.7666C39.6721 21.0789 38.617 21.3873 37.5578 21.678C37.5676 21.6751 37.5767 21.6729 37.5865 21.67C37.5561 21.6786 37.5251 21.6865 37.4947 21.6962C37.4351 21.7155 37.3737 21.7246 37.3135 21.7246C37.0784 21.7252 36.8565 21.5853 36.7745 21.352Z" fill="#053B4A"/>
<path d="M21.2637 5.03394C20.9701 5.01972 20.6931 4.74892 20.7275 4.44512C20.7613 4.14814 20.7659 3.84661 20.7826 3.5485C20.8015 3.21909 20.8233 2.88912 20.848 2.55971C20.8984 1.88327 20.9558 1.20796 21.0211 0.533222C21.036 0.38132 21.0957 0.241934 21.2127 0.139529C21.3222 0.0439502 21.4684 -0.00668559 21.6141 0.000710368C21.9111 0.0155023 22.1807 0.285172 22.1508 0.589544C22.0849 1.26485 22.0281 1.94016 21.9771 2.61603C21.9524 2.94544 21.9306 3.27485 21.9123 3.60482C21.8951 3.9035 21.8899 4.20447 21.8567 4.50144C21.8395 4.65448 21.7844 4.79102 21.6651 4.89513C21.5625 4.98502 21.4266 5.03452 21.2901 5.03452C21.2815 5.03452 21.2729 5.03394 21.2637 5.03394Z" fill="#053B4A"/>
<path d="M16.7049 19.1772C16.4027 19.0794 16.2588 18.7648 16.3414 18.4701C16.6315 17.4403 16.9693 16.4231 17.3013 15.4059C17.4653 14.9035 17.6334 14.4017 17.8037 13.9016C17.8971 13.6274 17.9929 13.3543 18.0881 13.0807C18.1317 12.9561 18.1822 12.8338 18.2297 12.7109C18.314 12.489 18.4098 12.2398 18.6369 12.1272C18.9127 11.9906 19.2579 12.1044 19.3962 12.3781C19.4856 12.5567 19.4678 12.7649 19.368 12.9259C19.3422 12.976 19.3193 13.0266 19.2975 13.0784C18.9328 14.0353 18.6191 15.0122 18.302 15.985C17.9952 16.9249 17.6855 17.8653 17.4177 18.8171C17.3506 19.0549 17.1121 19.204 16.873 19.204C16.8162 19.2028 16.7594 19.1949 16.7049 19.1772Z" fill="#053B4A"/>
<path d="M20.8711 18.7113C20.5832 18.6589 20.3406 18.3546 20.4163 18.0582C20.679 17.0256 20.9525 15.9964 21.2255 14.9667C21.3574 14.4688 21.4904 13.9716 21.6246 13.4738C21.6969 13.2053 21.7697 12.9362 21.8431 12.6677C21.8758 12.5499 21.9073 12.4315 21.9417 12.3149C21.9738 12.2063 21.9985 12.0913 22.0409 11.9855C22.0977 11.8433 22.1854 11.7267 22.3265 11.6567C22.4584 11.5913 22.6138 11.5793 22.7537 11.6254C23.033 11.7153 23.2308 12.0475 23.1173 12.332C23.0812 12.423 23.0588 12.522 23.0313 12.6153C22.9975 12.7308 22.9653 12.8474 22.9338 12.9635C22.8581 13.2377 22.7841 13.5125 22.7096 13.7879C22.5817 14.2612 22.455 14.7351 22.3294 15.209C22.0639 16.2103 21.7978 17.2122 21.5409 18.2152C21.542 18.2095 21.5437 18.2038 21.5449 18.1987C21.5397 18.2192 21.5346 18.2397 21.5294 18.2601C21.4916 18.4092 21.4205 18.5372 21.2886 18.6248C21.1951 18.6868 21.0833 18.7204 20.9714 18.7204C20.9376 18.7198 20.9044 18.717 20.8711 18.7113Z" fill="#053B4A"/>
<path d="M18.9598 25.1681C18.2132 25.1095 17.4774 24.973 16.7543 24.7835C16.0392 24.5964 15.3436 24.3358 14.6738 24.0263C14.0442 23.7356 13.4409 23.3817 12.8875 22.9653C11.8025 22.15 10.9716 21.0514 10.4733 19.7953C10.2668 19.2764 10.1504 18.7217 10.1028 18.1664C10.0833 17.9349 10.0833 17.7056 10.12 17.4758C10.1504 17.2869 10.2674 17.1139 10.4406 17.0275C10.7158 16.8909 11.0616 17.0053 11.1993 17.2789C11.2675 17.4143 11.2738 17.5668 11.2291 17.7028C11.2279 17.7096 11.2268 17.7164 11.2256 17.7232C11.2216 17.7813 11.2193 17.8387 11.2188 17.8973C11.2251 18.0595 11.2406 18.2205 11.2629 18.3815C11.2962 18.5835 11.3386 18.7831 11.3914 18.9806C11.4522 19.1831 11.5221 19.3811 11.6024 19.5762C11.705 19.8072 11.8186 20.0314 11.9436 20.251C12.0829 20.4831 12.2344 20.7061 12.3978 20.9223C12.5624 21.1294 12.7367 21.3262 12.9231 21.514C13.1238 21.7068 13.3331 21.8889 13.5533 22.0596C13.8492 22.2792 14.1571 22.48 14.4771 22.6632C14.886 22.8879 15.3058 23.087 15.7381 23.2634C16.233 23.4574 16.7371 23.6207 17.2526 23.7532C17.7263 23.8676 18.2051 23.9546 18.6885 24.0138C19.168 24.065 19.6485 24.0906 20.1308 24.0872C20.5024 24.0786 20.8717 24.0519 21.2393 24.0024C21.5409 23.9552 21.838 23.8943 22.1333 23.8164C22.4235 23.7339 22.7073 23.636 22.9866 23.5228C23.2773 23.3971 23.5589 23.2577 23.8342 23.1018C24.0762 22.9596 24.3101 22.8077 24.5389 22.6455C24.7546 22.4794 24.9707 22.3161 25.1749 22.1358C25.3911 21.9441 25.5998 21.7472 25.8063 21.5458C25.9089 21.4377 26.0121 21.3296 26.1148 21.2204C26.214 21.1163 26.3023 20.9997 26.3958 20.8893C26.3803 20.9092 26.3654 20.9291 26.3505 20.949C26.7783 20.3909 27.1843 19.818 27.5398 19.2115C27.6247 19.0574 27.7067 18.9015 27.7807 18.741C27.9097 18.4634 28.2624 18.3485 28.5365 18.4799C28.818 18.6147 28.9287 18.9515 28.7997 19.2297C28.5485 19.7708 28.2257 20.2805 27.8822 20.7681C27.7044 21.0207 27.5232 21.2693 27.3357 21.514C27.1453 21.7626 26.936 21.9924 26.7203 22.22C26.5271 22.4237 26.3247 22.6222 26.1136 22.8094C25.9944 22.9152 25.8751 23.0205 25.7564 23.1263C25.6239 23.2435 25.4725 23.3447 25.3326 23.4534C24.7935 23.8693 24.1977 24.2135 23.575 24.4911C22.814 24.8302 22.0066 25.0344 21.1814 25.1408C20.796 25.1903 20.4066 25.2114 20.0173 25.2114C19.6629 25.2125 19.3102 25.1954 18.9598 25.1681Z" fill="#053B4A"/>
</svg>
