<svg width="60" height="60" viewBox="0 0 60 60" fill="none" xmlns="http://www.w3.org/2000/svg">
<path d="M59.6864 31.7365C59.3204 41.4315 53.6477 50.9161 45.0158 55.9006C36.3839 60.8844 25.0578 61.1076 16.4902 56.2824C7.92183 51.458 3.22244 41.7268 3.30272 32.029C3.43087 16.5504 11.9289 9.55716 17.7638 6.50293C29.4578 0.381715 41.8638 3.06965 48.3705 7.23729C56.1492 12.2197 60.0313 22.6119 59.6864 31.7365Z" fill="#F4A672"/>
<path d="M24.9595 46.5383C23.8201 31.4651 24.9595 16.303 24.9595 16.303C32.6892 21.4073 43.7036 30.354 43.7036 31.4207C43.7036 32.5182 25.0647 47.9286 24.9595 46.5383Z" fill="#F8ECAE"/>
<path d="M53.9472 12.5243C52.3996 9.90999 50.4444 7.58194 48.0675 5.72168C45.9979 4.1019 43.6176 2.92647 41.1479 2.06814C35.0478 -0.0519248 28.3131 -0.370081 22.0119 1.30994C17.3068 2.5644 12.8108 4.87788 9.19267 8.24677C5.55699 11.632 2.9598 16.0619 1.62137 20.8641C-0.107373 27.0666 -0.201834 33.8608 1.70352 39.9731C3.56621 45.9487 7.24616 51.28 12.4037 54.723C17.8502 58.359 24.6327 59.7057 31.1204 59.0627C37.6241 58.4181 43.8465 55.6409 48.663 51.0587C53.2681 46.6776 56.5029 40.8264 57.7521 34.5626C58.0557 33.0403 58.2201 31.5007 58.2814 29.953C58.5005 23.9025 56.9965 17.6756 53.9472 12.5243ZM56.682 30.5925C56.681 30.616 56.6803 30.6345 56.6798 30.6497C56.6787 30.664 56.6775 30.6812 56.676 30.7023C56.6647 30.8669 56.6535 31.0315 56.64 31.196C56.6076 31.5907 56.5664 31.9848 56.5168 32.3779C56.4216 33.1316 56.2951 33.8819 56.1385 34.626C56.0669 34.966 55.9891 35.3047 55.9051 35.6421C55.8987 35.668 55.8814 35.7356 55.8728 35.7691C55.8534 35.8427 55.8339 35.9163 55.8139 35.9897C55.7615 36.1816 55.7071 36.3729 55.6509 36.5637C55.4348 37.2962 55.1897 38.0202 54.9171 38.7336C54.6439 39.4491 54.343 40.1539 54.0158 40.8461C53.9873 40.9063 53.9584 40.9664 53.9298 41.0266C53.9176 41.0522 53.9083 41.0716 53.9012 41.0868C53.8937 41.1015 53.8842 41.1202 53.8719 41.1447C53.7969 41.2937 53.7222 41.4428 53.6455 41.5909C53.4611 41.9468 53.2698 42.2989 53.0716 42.6471C52.3376 43.9368 51.4384 45.2777 50.5692 46.375C49.6947 47.4787 48.5948 48.6668 47.5045 49.6757C46.3731 50.7226 45.3049 51.5653 44.0368 52.4061C41.3954 54.1572 38.507 55.4139 35.4677 56.1831C29.3301 57.7364 22.6692 57.3423 16.9054 54.8004C14.1595 53.5894 11.7042 51.9365 9.60201 49.8237C7.50603 47.717 5.9082 45.399 4.62224 42.6977C3.96557 41.3182 3.53135 40.1825 3.09828 38.7253C2.88379 38.0035 2.69664 37.2728 2.53728 36.5355C2.46802 36.2149 2.40401 35.893 2.34526 35.5701C2.31002 35.3764 2.27668 35.1823 2.24525 34.9877C2.22954 34.8905 2.21454 34.7932 2.19955 34.6958C2.19532 34.6682 2.19239 34.6497 2.19046 34.6375C2.18868 34.6233 2.18603 34.6022 2.18184 34.5703C1.98696 33.0783 1.88497 31.58 1.90362 30.0708C1.92372 28.4505 2.02675 26.9967 2.27771 25.2933C2.38468 24.5674 2.51463 23.8447 2.66978 23.1271C2.74428 22.7823 2.8265 22.4396 2.9107 22.0971C2.91511 22.0792 2.91871 22.0643 2.92176 22.0517C2.92508 22.0396 2.92892 22.0256 2.93352 22.0086C2.95807 21.9181 2.98203 21.8275 3.0069 21.7371C3.05618 21.5582 3.10708 21.3798 3.15969 21.2018C3.53313 19.9388 3.99198 18.7004 4.54045 17.503C4.60981 17.3515 4.68114 17.201 4.75279 17.0506C4.75379 17.0485 4.75446 17.0471 4.7554 17.0452C4.78787 16.9797 4.82026 16.9143 4.85319 16.8491C4.99902 16.5601 5.15021 16.2738 5.30668 15.9905C5.59106 15.4759 5.89306 14.9711 6.21215 14.4777C6.51901 14.0031 6.84165 13.5392 7.17947 13.0868C7.26744 12.9691 7.35639 12.8521 7.44637 12.7359C7.47619 12.6974 7.50621 12.6592 7.53609 12.6208C7.38157 12.8192 7.5341 12.6239 7.56159 12.5898C7.74103 12.3662 7.92419 12.1459 8.11106 11.9287C8.77981 11.1517 9.49534 10.4166 10.2509 9.72728C10.6153 9.39484 10.989 9.0731 11.3712 8.76219C11.4522 8.69632 11.5335 8.63092 11.6153 8.56599C11.664 8.52731 11.713 8.48909 11.7617 8.45055C11.7365 8.47046 11.7176 8.48538 11.7036 8.49652C11.7283 8.47708 11.7598 8.45237 11.7737 8.44177C11.9512 8.30664 12.1292 8.17231 12.3093 8.04097C13.9627 6.8355 15.7462 5.82834 17.604 4.99892C23.6201 2.31314 30.3938 1.71915 36.7498 3.0497C39.3705 3.59834 41.7677 4.4062 44.1495 5.6569C46.5581 6.92171 48.5595 8.53953 50.3307 10.6369C52.1373 12.7762 53.5519 15.2696 54.6182 17.9744C54.6478 18.0496 54.677 18.1249 54.7062 18.2002C54.717 18.228 54.7252 18.2491 54.7314 18.2647C54.7372 18.2807 54.745 18.3022 54.7554 18.3309C54.8109 18.4828 54.8667 18.6346 54.9205 18.7872C55.0498 19.1532 55.1723 19.5218 55.288 19.8927C55.5095 20.6025 55.7064 21.3206 55.8784 22.0452C56.0422 22.7349 56.1837 23.4306 56.3024 24.1305C56.3347 24.3205 56.3647 24.511 56.3941 24.7015C56.3976 24.7239 56.4003 24.7418 56.4026 24.7564C56.4046 24.772 56.4072 24.7919 56.4107 24.8179C56.4191 24.8814 56.4282 24.9449 56.4366 25.0084C56.4873 25.3882 56.5312 25.7691 56.5682 26.1508C56.7018 27.5264 56.745 28.9114 56.6948 30.2958C56.6909 30.3948 56.6861 30.4936 56.682 30.5925Z" fill="#020909"/>
<path d="M41.8427 28.3164C40.7102 27.0404 39.3812 25.929 38.0917 24.8253C34.0129 21.3344 29.7454 18.041 25.344 14.9823C24.8397 14.6318 24.3325 14.2855 23.8222 13.944C23.5358 13.7523 23.1006 13.7699 22.7884 13.8844C22.5324 13.9781 22.1574 14.2257 22.1316 14.5417C21.9615 16.622 21.8549 18.708 21.7584 20.7918C21.535 25.6136 21.4408 30.441 21.5002 35.2635C21.5409 38.5629 21.6559 41.8604 21.872 45.1501C21.8735 45.1743 21.877 45.1975 21.8813 45.2203C21.8816 45.222 21.8819 45.2237 21.8823 45.2254C21.8842 45.2347 21.8861 45.244 21.8884 45.253C22.0377 45.9434 22.9914 45.9683 23.5308 45.7886C23.9038 45.6643 24.2583 45.4554 24.5944 45.2486C25.6408 44.6049 26.6269 43.8509 27.6043 43.1037C30.5455 40.8555 33.3995 38.4819 36.2019 36.0554C37.4445 34.9795 38.6773 33.8908 39.8809 32.7693C40.6329 32.0686 41.4141 31.3655 42.069 30.5663C42.3139 30.2674 42.6186 29.9162 42.5733 29.4965C42.5238 29.0381 42.1272 28.6369 41.8427 28.3164ZM39.0751 31.1027C38.016 32.1251 36.9201 33.1078 35.8171 34.0799C34.4794 35.2587 33.1247 36.4175 31.7579 37.5608C31.0529 38.1504 30.3445 38.7357 29.6322 39.316C29.2873 39.597 28.9415 39.8767 28.5946 40.155C28.4338 40.284 28.2728 40.4128 28.1115 40.5412C28.0321 40.6044 27.9527 40.6674 27.8733 40.7305C27.8418 40.7556 27.8102 40.7805 27.7786 40.8055C28.0105 40.6215 27.7863 40.7994 27.7386 40.837C26.6293 41.7113 25.5105 42.577 24.3535 43.3842C24.1952 43.4946 24.0358 43.6038 23.8753 43.7112C23.5684 38.4904 23.5041 33.2515 23.5937 28.0165C23.6323 25.7652 23.7006 23.5139 23.798 21.2635C23.8179 20.8036 23.8391 20.3438 23.8615 19.8839C23.8717 19.6766 23.882 19.4694 23.8926 19.2621C23.8952 19.2119 23.8978 19.1618 23.9004 19.1116C23.9007 19.1044 23.9011 19.0988 23.9013 19.0938C23.9068 18.9897 23.9123 18.8858 23.918 18.7817C23.9553 18.0938 23.9956 17.4061 24.0394 16.7186C24.0474 16.5936 24.0555 16.4687 24.0636 16.3437C27.7924 18.921 31.2972 21.6363 34.82 24.5538C36.3458 25.8175 37.8669 27.0998 39.2892 28.4847C39.6871 28.8721 40.0665 29.2716 40.4215 29.6997C40.4223 29.7009 40.423 29.7022 40.4239 29.7034C40.3229 29.8218 40.2211 29.9389 40.1154 30.0531C39.7804 30.4149 39.4291 30.7608 39.0751 31.1027ZM40.521 29.9034C40.5273 29.926 40.5275 29.9314 40.521 29.9034V29.9034Z" fill="#020909"/>
</svg>
