<svg width="28" height="28" viewBox="0 0 28 28" fill="none" xmlns="http://www.w3.org/2000/svg">
<path d="M20.125 7C20.125 7.23206 20.2172 7.45462 20.3813 7.61872C20.5454 7.78281 20.7679 7.875 21 7.875H24.0625C24.4106 7.875 24.7444 8.01328 24.9906 8.25942C25.2367 8.50556 25.375 8.8394 25.375 9.1875C25.375 9.5356 25.2367 9.86944 24.9906 10.1156C24.7444 10.3617 24.4106 10.5 24.0625 10.5H21C20.0717 10.5 19.1815 10.1313 18.5251 9.47487C17.8687 8.8185 17.5 7.92826 17.5 7V3.9375C17.5 3.5894 17.6383 3.25556 17.8844 3.00942C18.1306 2.76328 18.4644 2.625 18.8125 2.625C19.1606 2.625 19.4944 2.76328 19.7406 3.00942C19.9867 3.25556 20.125 3.5894 20.125 3.9375V7ZM20.125 21C20.125 20.7679 20.2172 20.5454 20.3813 20.3813C20.5454 20.2172 20.7679 20.125 21 20.125H24.0625C24.4106 20.125 24.7444 19.9867 24.9906 19.7406C25.2367 19.4944 25.375 19.1606 25.375 18.8125C25.375 18.4644 25.2367 18.1306 24.9906 17.8844C24.7444 17.6383 24.4106 17.5 24.0625 17.5H21C20.0717 17.5 19.1815 17.8687 18.5251 18.5251C17.8687 19.1815 17.5 20.0717 17.5 21V24.0625C17.5 24.4106 17.6383 24.7444 17.8844 24.9906C18.1306 25.2367 18.4644 25.375 18.8125 25.375C19.1606 25.375 19.4944 25.2367 19.7406 24.9906C19.9867 24.7444 20.125 24.4106 20.125 24.0625V21ZM7 20.125C7.23206 20.125 7.45462 20.2172 7.61872 20.3813C7.78281 20.5454 7.875 20.7679 7.875 21V24.0625C7.875 24.4106 8.01328 24.7444 8.25942 24.9906C8.50556 25.2367 8.8394 25.375 9.1875 25.375C9.5356 25.375 9.86944 25.2367 10.1156 24.9906C10.3617 24.7444 10.5 24.4106 10.5 24.0625V21C10.5 20.0717 10.1313 19.1815 9.47487 18.5251C8.8185 17.8687 7.92826 17.5 7 17.5H3.9375C3.5894 17.5 3.25556 17.6383 3.00942 17.8844C2.76328 18.1306 2.625 18.4644 2.625 18.8125C2.625 19.1606 2.76328 19.4944 3.00942 19.7406C3.25556 19.9867 3.5894 20.125 3.9375 20.125H7ZM7.875 7C7.875 7.23206 7.78281 7.45462 7.61872 7.61872C7.45462 7.78281 7.23206 7.875 7 7.875H3.9375C3.5894 7.875 3.25556 8.01328 3.00942 8.25942C2.76328 8.50556 2.625 8.8394 2.625 9.1875C2.625 9.5356 2.76328 9.86944 3.00942 10.1156C3.25556 10.3617 3.5894 10.5 3.9375 10.5H7C7.92826 10.5 8.8185 10.1313 9.47487 9.47487C10.1313 8.8185 10.5 7.92826 10.5 7V3.9375C10.5 3.5894 10.3617 3.25556 10.1156 3.00942C9.86944 2.76328 9.5356 2.625 9.1875 2.625C8.8394 2.625 8.50556 2.76328 8.25942 3.00942C8.01328 3.25556 7.875 3.5894 7.875 3.9375V7Z" fill="#F8ECAE"/>
</svg>
