<svg width="375" height="1160" viewBox="0 0 375 1160" fill="none" xmlns="http://www.w3.org/2000/svg">
<g filter="url(#filter0_d_8252_5924)">
<path d="M246.465 151.939C246.465 160.621 250.308 168.948 257.148 175.087C263.988 181.226 273.265 184.675 282.938 184.675H374.121C381.236 184.682 388.128 182.449 393.597 178.364C399.065 174.279 402.764 168.601 404.049 162.32C405.333 156.039 404.122 149.553 400.626 143.991C397.13 138.429 391.571 134.144 384.917 131.883C386.421 128.044 386.699 123.903 385.719 119.93C384.74 115.956 382.542 112.307 379.374 109.396C376.206 106.484 372.194 104.426 367.791 103.453C363.388 102.48 358.77 102.631 354.458 103.89C351.669 94.2877 344.825 86.0366 335.376 80.884C325.927 75.7315 314.615 74.0822 303.835 76.2853C293.055 78.4884 283.653 84.3709 277.621 92.6872C271.589 101.003 269.4 111.1 271.518 120.84C264.227 122.998 257.88 127.165 253.381 132.749C248.883 138.333 246.463 145.049 246.465 151.939Z" fill="#053B4A"/>
</g>
<g filter="url(#filter1_d_8252_5924)">
<path d="M154.745 166.084C154.745 172.574 157.339 178.799 161.957 183.389C166.574 187.978 172.837 190.556 179.368 190.556H240.924C245.727 190.562 250.38 188.892 254.071 185.838C257.763 182.784 260.26 178.54 261.127 173.844C261.994 169.149 261.177 164.3 258.817 160.142C256.457 155.984 252.704 152.781 248.212 151.09C249.227 148.22 249.415 145.125 248.754 142.154C248.092 139.184 246.609 136.456 244.47 134.28C242.331 132.103 239.623 130.564 236.65 129.837C233.678 129.109 230.56 129.223 227.649 130.164C225.767 122.985 221.147 116.817 214.768 112.965C208.389 109.113 200.752 107.88 193.475 109.527C186.197 111.174 179.85 115.572 175.778 121.789C171.706 128.006 170.228 135.554 171.658 142.835C166.736 144.448 162.451 147.563 159.414 151.738C156.378 155.912 154.744 160.933 154.745 166.084Z" fill="#053B4A"/>
</g>
<g filter="url(#filter2_d_8252_5924)">
<path d="M56.2764 155.619C56.2764 164.744 59.925 173.495 66.4196 179.947C72.9142 186.399 81.7227 190.024 90.9074 190.024H177.485C184.241 190.031 190.785 187.684 195.977 183.391C201.17 179.097 204.682 173.13 205.901 166.529C207.121 159.928 205.971 153.111 202.651 147.266C199.332 141.421 194.054 136.917 187.736 134.541C189.164 130.506 189.428 126.154 188.498 121.978C187.568 117.802 185.481 113.967 182.473 110.907C179.465 107.847 175.655 105.684 171.475 104.662C167.294 103.639 162.909 103.798 158.815 105.121C156.167 95.0292 149.669 86.3576 140.697 80.9424C131.726 75.5273 120.985 73.7939 110.749 76.1092C100.513 78.4246 91.5863 84.607 85.8589 93.3472C80.1315 102.087 78.0531 112.699 80.0641 122.935C73.141 125.203 67.1148 129.582 62.8437 135.451C58.5725 141.32 56.2743 148.377 56.2764 155.619Z" fill="#053B4A"/>
</g>
<g filter="url(#filter3_d_8252_5924)">
<path d="M-72 175.187C-72 188.695 -66.5982 201.65 -56.983 211.201C-47.3678 220.753 -34.3268 226.119 -20.7288 226.119H107.449C117.451 226.13 127.139 222.655 134.827 216.299C142.514 209.943 147.714 201.11 149.519 191.338C151.325 181.566 149.622 171.475 144.708 162.821C139.793 154.168 131.979 147.502 122.625 143.983C124.74 138.01 125.13 131.568 123.753 125.386C122.376 119.204 119.287 113.527 114.833 108.997C110.38 104.467 104.74 101.265 98.5508 99.7511C92.3616 98.2374 85.8697 98.473 79.8082 100.431C75.8877 85.4917 66.2675 72.6544 52.9849 64.638C39.7023 56.6215 23.8003 54.0554 8.64627 57.4831C-6.50776 60.9107 -19.7238 70.0629 -28.2032 83.0016C-36.6826 95.9403 -39.7596 111.649 -36.7824 126.802C-47.0319 130.159 -55.9537 136.643 -62.2772 145.331C-68.6006 154.018 -72.0031 164.467 -72 175.187Z" fill="#053B4A"/>
</g>
<g filter="url(#filter4_d_8252_5924)">
<path d="M229.416 209.901C229.416 218.414 232.709 226.579 238.57 232.599C244.431 238.619 252.381 242.001 260.67 242.001H338.805C344.901 242.008 350.807 239.818 355.494 235.812C360.18 231.806 363.349 226.239 364.45 220.08C365.551 213.921 364.513 207.561 361.517 202.107C358.521 196.653 353.758 192.452 348.056 190.234C349.345 186.469 349.583 182.409 348.744 178.513C347.904 174.616 346.021 171.039 343.306 168.184C340.591 165.329 337.153 163.31 333.381 162.356C329.608 161.402 325.65 161.551 321.955 162.785C319.566 153.369 313.701 145.278 305.604 140.225C297.508 135.173 287.814 133.556 278.576 135.716C269.339 137.876 261.283 143.645 256.114 151.799C250.945 159.954 249.069 169.855 250.884 179.406C244.636 181.521 239.198 185.608 235.343 191.083C231.488 196.559 229.414 203.144 229.416 209.901Z" fill="#053B4A"/>
</g>
<path d="M520.547 181.985C530.454 170.089 525.453 151.961 510.848 146.828L504.365 144.549C495.441 141.412 485.76 146.667 483.529 155.859L483.3 156.799C480.368 168.88 465.107 172.746 456.776 163.519L440.448 145.434C432.339 136.453 417.812 145.357 422.133 156.658C425.223 164.738 418.143 173.034 409.678 171.252L307.221 149.692C298.416 147.839 289.386 151.642 284.559 159.236L272.624 178.014C266.635 187.436 252.234 184.851 249.896 173.935C248.203 166.029 239.553 161.798 232.272 165.313L193.226 184.167C178.328 191.36 160.46 184.332 154.456 168.916L151.399 161.068C144.281 142.793 119.461 140.258 108.794 156.716L107.739 158.345C100.308 169.811 84.4282 172.001 74.1713 162.975L73.1353 162.063C59.8712 150.391 38.964 158.641 37.245 176.226C35.8812 190.177 21.8326 199.184 8.58551 194.6L-59.2549 171.125C-74.1157 165.982 -88.3487 180.266 -83.153 195.109C-82.5952 196.702 -82.2545 198.363 -82.1402 200.048L-17 1159.44H441.99L524.058 404.733C525.228 393.973 525.3 383.122 524.274 372.348L508.729 209.165C508.018 201.705 510.316 194.271 515.111 188.513L520.547 181.985Z" fill="#053B4A"/>
<defs>
<filter id="filter0_d_8252_5924" x="181.465" y="19.332" width="288.083" height="239.344" filterUnits="userSpaceOnUse" color-interpolation-filters="sRGB">
<feFlood flood-opacity="0" result="BackgroundImageFix"/>
<feColorMatrix in="SourceAlpha" type="matrix" values="0 0 0 0 0 0 0 0 0 0 0 0 0 0 0 0 0 0 127 0" result="hardAlpha"/>
<feOffset dy="9"/>
<feGaussianBlur stdDeviation="32.5"/>
<feComposite in2="hardAlpha" operator="out"/>
<feColorMatrix type="matrix" values="0 0 0 0 1 0 0 0 0 1 0 0 0 0 1 0 0 0 0.1 0"/>
<feBlend mode="normal" in2="BackgroundImageFix" result="effect1_dropShadow_8252_5924"/>
<feBlend mode="normal" in="SourceGraphic" in2="effect1_dropShadow_8252_5924" result="shape"/>
</filter>
<filter id="filter1_d_8252_5924" x="89.7451" y="52.8145" width="236.719" height="211.742" filterUnits="userSpaceOnUse" color-interpolation-filters="sRGB">
<feFlood flood-opacity="0" result="BackgroundImageFix"/>
<feColorMatrix in="SourceAlpha" type="matrix" values="0 0 0 0 0 0 0 0 0 0 0 0 0 0 0 0 0 0 127 0" result="hardAlpha"/>
<feOffset dy="9"/>
<feGaussianBlur stdDeviation="32.5"/>
<feComposite in2="hardAlpha" operator="out"/>
<feColorMatrix type="matrix" values="0 0 0 0 1 0 0 0 0 1 0 0 0 0 1 0 0 0 0.1 0"/>
<feBlend mode="normal" in2="BackgroundImageFix" result="effect1_dropShadow_8252_5924"/>
<feBlend mode="normal" in="SourceGraphic" in2="effect1_dropShadow_8252_5924" result="shape"/>
</filter>
<filter id="filter2_d_8252_5924" x="-8.72363" y="19.1074" width="280.099" height="244.916" filterUnits="userSpaceOnUse" color-interpolation-filters="sRGB">
<feFlood flood-opacity="0" result="BackgroundImageFix"/>
<feColorMatrix in="SourceAlpha" type="matrix" values="0 0 0 0 0 0 0 0 0 0 0 0 0 0 0 0 0 0 127 0" result="hardAlpha"/>
<feOffset dy="9"/>
<feGaussianBlur stdDeviation="32.5"/>
<feComposite in2="hardAlpha" operator="out"/>
<feColorMatrix type="matrix" values="0 0 0 0 1 0 0 0 0 1 0 0 0 0 1 0 0 0 0.1 0"/>
<feBlend mode="normal" in2="BackgroundImageFix" result="effect1_dropShadow_8252_5924"/>
<feBlend mode="normal" in="SourceGraphic" in2="effect1_dropShadow_8252_5924" result="shape"/>
</filter>
<filter id="filter3_d_8252_5924" x="-137" y="0" width="352.221" height="300.119" filterUnits="userSpaceOnUse" color-interpolation-filters="sRGB">
<feFlood flood-opacity="0" result="BackgroundImageFix"/>
<feColorMatrix in="SourceAlpha" type="matrix" values="0 0 0 0 0 0 0 0 0 0 0 0 0 0 0 0 0 0 127 0" result="hardAlpha"/>
<feOffset dy="9"/>
<feGaussianBlur stdDeviation="32.5"/>
<feComposite in2="hardAlpha" operator="out"/>
<feColorMatrix type="matrix" values="0 0 0 0 1 0 0 0 0 1 0 0 0 0 1 0 0 0 0.1 0"/>
<feBlend mode="normal" in2="BackgroundImageFix" result="effect1_dropShadow_8252_5924"/>
<feBlend mode="normal" in="SourceGraphic" in2="effect1_dropShadow_8252_5924" result="shape"/>
</filter>
<filter id="filter4_d_8252_5924" x="164.416" y="78.7812" width="265.462" height="237.221" filterUnits="userSpaceOnUse" color-interpolation-filters="sRGB">
<feFlood flood-opacity="0" result="BackgroundImageFix"/>
<feColorMatrix in="SourceAlpha" type="matrix" values="0 0 0 0 0 0 0 0 0 0 0 0 0 0 0 0 0 0 127 0" result="hardAlpha"/>
<feOffset dy="9"/>
<feGaussianBlur stdDeviation="32.5"/>
<feComposite in2="hardAlpha" operator="out"/>
<feColorMatrix type="matrix" values="0 0 0 0 1 0 0 0 0 1 0 0 0 0 1 0 0 0 0.1 0"/>
<feBlend mode="normal" in2="BackgroundImageFix" result="effect1_dropShadow_8252_5924"/>
<feBlend mode="normal" in="SourceGraphic" in2="effect1_dropShadow_8252_5924" result="shape"/>
</filter>
</defs>
</svg>
