<svg width="60" height="60" viewBox="0 0 60 60" fill="none" xmlns="http://www.w3.org/2000/svg">
<g clip-path="url(#clip0_3393_4637)">
<path fill-rule="evenodd" clip-rule="evenodd" d="M48.996 6.49808C48.8668 6.46699 48.5501 6.48886 48.2826 6.54983C46.9543 6.85948 44.7766 9.00042 42.4782 12.2667C41.9731 12.9867 40.3881 15.6308 40.0549 16.3252C39.925 16.5886 39.6147 17.2128 39.3559 17.7217C39.1014 18.2236 38.8355 18.7738 38.7599 18.9306C38.691 19.0922 38.4061 19.7046 38.1301 20.3038C36.6482 23.4515 35.7383 25.5239 35.4269 26.4886C35.2874 26.9212 35.2793 26.9347 35.1332 26.8559C34.7659 26.6541 33.9105 26.3442 32.8106 26.0261C30.9251 25.4672 30.9916 25.479 28.989 25.1911C28.6419 25.1396 28.2977 25.0995 28.2257 25.1115C28.0782 25.1429 28.0791 25.0787 28.338 23.5566C28.4991 22.6121 28.7983 19.1604 28.824 17.95C28.8291 17.6495 28.8377 17.2207 28.8439 16.9943C28.9654 12.6714 28.6662 9.68089 27.8491 6.97046C27.0862 4.43079 26.0512 2.75954 24.747 1.96804C24.2224 1.64483 24.1152 1.60768 23.5201 1.5554C22.0031 1.41068 20.9407 2.04596 20.1672 3.53605C19.8463 4.16345 19.569 5.01128 19.4676 5.64168C19.4161 5.98879 19.3096 7.47272 19.2897 8.01376C19.2217 10.4333 19.2642 11.1316 19.7166 14.8955C20.1096 18.1908 20.7773 21.5956 21.599 24.4838C21.809 25.209 21.9605 25.8336 21.9401 25.8677C21.9157 25.9082 21.5796 26.0383 21.1793 26.1676C18.9374 26.8788 17.112 27.8485 15.5507 29.1612C12.869 31.4059 11.0471 34.4145 10.3799 37.7094C9.38119 42.6491 10.9379 47.6928 14.6918 51.6387C15.4662 52.4529 16.7215 53.51 17.6124 54.0992C18.1317 54.4472 18.4936 54.7193 18.4992 54.7874C18.509 54.8484 18.4138 55.2524 18.2921 55.686C17.9551 56.9399 17.9812 57.435 18.3973 57.7859C18.9259 58.241 20.0969 57.9938 22.0646 57.0175C23.0484 56.5293 23.4195 56.3554 24.4865 55.8979C25.2931 55.552 25.1708 55.4787 26.147 56.8934C27.2202 58.4396 28.2543 59.511 29.1045 59.9376C29.5858 60.1797 29.8946 60.2178 30.3026 60.0757C30.896 59.8697 31.212 59.312 31.3621 58.1858L31.4623 57.4348L32.3406 57.2614C36.7538 56.3871 40.3384 54.2505 42.9465 50.9301C43.543 50.1818 44.575 48.4136 44.9119 47.5744C45.543 45.999 45.8545 44.6651 45.9553 43.0666C46.0738 41.2854 45.9457 40.038 45.4598 38.1893C44.9388 36.2461 43.9958 34.252 42.9641 32.9607C42.7794 32.7301 42.4795 32.3386 42.2863 32.0933C41.8024 31.4716 40.7839 30.4647 40.0761 29.8925C39.7519 29.6334 39.4782 29.4142 39.475 29.4035C39.4657 29.3884 39.5932 29.253 39.7568 29.1027C40.6305 28.2904 43.1156 25.1447 44.9008 22.6119C47.8884 18.3667 49.4457 15.4304 50.3825 12.3147C50.9561 10.4195 50.9087 8.68583 50.2516 7.49049C50.026 7.07 49.4243 6.59817 48.996 6.49808ZM49.2713 7.99034C49.4802 8.27224 49.6567 9.02286 49.545 9.13178C49.492 9.1735 49.2064 9.43538 48.9127 9.71078C48.1454 10.4215 46.1119 12.7687 45.101 14.1164C44.8247 14.4853 43.9278 15.8734 43.1094 17.208C41.9122 19.1439 41.5232 19.8233 41.1723 20.6086C40.9258 21.1424 40.6806 21.6595 40.6239 21.7541C40.4452 22.0521 38.9093 25.9978 38.7731 26.533C38.1752 28.7914 38.0991 29.3635 38.3447 29.6762C38.4221 29.7777 38.9335 30.2776 39.4822 30.7911C41.9735 33.1228 43.4894 35.5434 44.3148 38.4706L44.5254 39.2416L44.1794 39.2189C42.8166 39.1395 41.393 39.7323 40.3888 40.8076C39.8063 41.426 38.997 42.8212 38.5793 43.9339C38.3519 44.5439 38.0727 45.6854 38.1053 45.8616C38.127 45.9481 38.1163 46.0432 38.1001 46.0702C37.963 46.2829 37.9597 47.672 38.0996 48.4384C38.2759 49.4199 38.8851 50.863 39.5555 51.9281C39.934 52.5417 39.9638 52.4773 39.1114 53.0994C37.8983 53.9847 36.3723 54.7935 34.8778 55.3351C33.9073 55.693 31.7047 56.2161 31.5625 56.1308C31.5148 56.1023 31.4908 55.8665 31.5132 55.6131C31.5796 54.6572 31.3945 53.4132 31.1177 52.9524C30.9417 52.6623 30.529 52.4429 30.182 52.4379C29.7106 52.4405 26.2706 53.7975 25.978 54.1016C25.89 54.1871 25.7928 54.2574 25.7576 54.2547C25.7182 54.2591 25.4145 53.9659 25.0661 53.6101C24.7242 53.2581 24.1402 52.6954 23.7533 52.3716C23.3714 52.0411 22.86 51.5412 22.6181 51.2676C22.3697 50.9901 21.9795 50.6267 21.7475 50.4605C21.3477 50.1744 21.3029 50.1572 20.9856 50.2251C20.7485 50.2676 20.5776 50.3672 20.4151 50.5463C20.1549 50.8418 19.5008 52.1182 19.173 52.9716C18.9817 53.4746 18.9288 53.5628 18.8315 53.5412C18.6455 53.5128 17.0186 52.3065 16.3585 51.7175C15.2503 50.7215 14.1439 49.3854 13.39 48.1224C13.0915 47.6206 12.3618 46.1787 12.2534 45.8837C12.248 45.8621 12.5068 45.7223 12.8336 45.577C13.5251 45.254 14.3228 44.691 15.0816 43.9945C16.1373 43.0332 17.0882 41.3083 17.4518 39.702C17.7751 38.3017 17.5995 36.5192 17.0137 35.237C16.5335 34.1932 15.5639 32.9208 14.8542 32.4131L14.4106 32.092L14.6654 31.775C14.9757 31.38 16.201 30.2439 16.8588 29.745C17.4724 29.2746 18.8183 28.413 19.5422 28.0359C20.1479 27.7173 20.7308 27.4675 21.7704 27.0862C22.1388 26.9475 22.5024 26.7875 22.5819 26.7162C22.6511 26.6474 22.739 26.6074 22.7661 26.6236C22.8884 26.6969 23.2297 26.3581 23.3568 26.038C23.7168 25.1295 24.1104 22.8588 24.1941 21.2597C24.4524 15.9409 24.4216 14.254 23.9949 11.1695C23.9011 10.4956 23.7749 9.7838 23.7055 9.57688C23.6388 9.38026 23.616 9.26509 23.6496 9.33161C23.7621 9.5277 23.4665 8.06955 23.1712 6.96248C22.839 5.74925 22.3623 4.42231 22.1169 4.01714C22.0195 3.85721 21.9286 3.7476 21.9162 3.76819C21.9039 3.78879 21.8713 3.7045 21.8414 3.58508C21.7736 3.31433 21.8388 3.20556 22.2029 2.982C22.5907 2.73501 23.1707 2.65924 23.6859 2.78349C24.3055 2.93357 24.7964 3.37571 25.404 4.32963C26.969 6.80684 27.6944 10.6233 27.6545 16.1937C27.6374 18.7734 27.5935 19.6771 27.3385 23.0537C27.2388 24.3116 27.178 25.4274 27.1944 25.5387C27.215 25.643 27.2892 25.8257 27.3581 25.9414C27.4842 26.1456 27.5399 26.1606 28.2731 26.2598C30.0178 26.4859 30.5952 26.629 32.7144 27.3368C34.5881 27.9622 35.0352 28.0001 35.2914 27.5728C35.3604 27.4576 35.45 27.4001 35.5544 27.426C35.6343 27.4459 35.7981 27.4338 35.904 27.3958C36.1035 27.3404 36.1278 27.2999 36.6371 26.1117C36.9228 25.4351 37.1832 24.8169 37.2144 24.7341C37.3022 24.5103 38.2799 22.4795 39.0565 20.9081C39.4302 20.1461 39.7269 19.4674 39.7175 19.4057C39.7077 19.3447 39.7298 19.2933 39.7659 19.2782C39.7989 19.2699 40.1548 18.5988 40.5545 17.7788C42.67 13.4807 45.3594 9.79426 47.6402 8.06511C48.4847 7.42696 48.8436 7.41202 49.2713 7.99034ZM49.4638 11.4507C49.2758 12.3336 48.9184 13.3443 48.2699 14.8726C47.838 15.8849 47.5943 16.3382 46.3913 18.345C44.6988 21.1828 43.3605 23.0622 41.0464 25.8773C40.5822 26.4372 40.1035 27.0357 39.9712 27.1952C39.8448 27.3592 39.7314 27.4565 39.7141 27.4094C39.6989 27.3268 40.5712 24.9187 41.0261 23.7906C42.0675 21.2083 42.6197 20.1018 44.0192 17.7979C45.2234 15.8198 46.3562 14.1768 47.3991 12.913C48.5213 11.5489 48.7324 11.2887 48.9639 10.9944C49.0924 10.8413 49.2948 10.6118 49.4245 10.4874L49.6545 10.2569L49.6395 10.4965C49.6333 10.6309 49.5548 11.0537 49.4638 11.4507ZM21.9494 6.65086C22.3535 8.35864 22.4921 9.04983 22.6593 10.1545C23.2058 13.855 23.3113 16.7381 23.0513 21.0147C22.9626 22.3623 22.7543 24.1999 22.6648 24.3493C22.6444 24.3834 22.5548 24.0716 22.4662 23.6501C22.3712 23.2248 22.2369 22.6185 22.1554 22.2931C21.5336 19.7182 21.0431 16.7241 20.6284 12.9731C20.427 11.2031 20.3844 9.95178 20.4555 7.8657C20.469 7.41268 20.4374 7.12686 20.3688 7.1041C20.2817 7.07994 20.2902 7.06578 20.3876 7.04193C20.4784 7.0132 20.5285 6.86827 20.5799 6.42926C20.6613 5.74044 20.9536 4.60767 21.1203 4.32962L21.2422 4.12623L21.4322 4.70117C21.5324 5.00975 21.7658 5.89599 21.9494 6.65086ZM44.754 41.2598C44.8453 43.1668 44.6605 44.5215 44.0632 46.3936C43.7115 47.5189 42.5232 49.6544 41.7242 50.6033C40.9912 51.4728 40.6482 51.8289 40.6104 51.7695C40.5914 51.7398 40.3541 51.2746 40.0734 50.7284C39.1492 48.9031 38.9367 47.4755 39.318 45.6865C39.6562 44.1385 40.4865 42.3229 41.1847 41.6355C41.7101 41.1123 42.4625 40.6876 43.2201 40.4689C43.8395 40.2968 44.5351 40.2895 44.6606 40.4479C44.6924 40.4853 44.7318 40.8501 44.754 41.2598ZM14.6284 33.6042C15.6052 34.5581 16.4244 36.5426 16.4222 37.9605C16.424 39.0492 16.0873 40.4414 15.5733 41.4973C15.0856 42.4946 13.9703 43.6327 12.701 44.4292C11.9193 44.9187 11.8906 44.9199 11.7235 44.2763C11.5715 43.7154 11.3173 42.2173 11.2777 41.7141C11.0844 38.9629 11.7083 36.2773 13.0709 33.9881C13.3644 33.4825 13.6655 33.0269 13.7292 32.982C13.8611 32.8861 13.9428 32.9351 14.6284 33.6042ZM30.2343 54.4422C30.3311 55.4031 30.1433 58.4981 29.9717 58.7085C29.6738 59.0828 28.4558 57.9475 27.0973 56.0176C26.7231 55.4888 26.4166 55.047 26.4108 55.026C26.3961 54.9892 27.4367 54.5902 28.9638 54.041C30.1597 53.6135 30.1533 53.6097 30.2343 54.4422ZM21.5914 52.0432C21.7446 52.2182 22.1866 52.6485 22.5817 53.0053C23.9296 54.2464 24.1807 54.4888 24.209 54.5801C24.2227 54.6347 23.8092 54.8471 23.2522 55.0845C22.7146 55.3055 21.8481 55.6899 21.3288 55.9403C20.8069 56.1804 20.1553 56.453 19.8803 56.5278L19.3761 56.6771L19.5074 56.1661C19.8319 54.8863 20.7205 52.4976 21.1268 51.8199C21.2276 51.6502 21.2347 51.6545 21.5914 52.0432Z" fill="currentColor"/>
<path fill-rule="evenodd" clip-rule="evenodd" d="M34.1315 35.9789C33.7625 36.1173 33.6747 36.3411 33.6071 37.2683C33.5383 38.0748 33.5469 38.1071 33.7714 38.2697C33.9625 38.4122 34.0576 38.4229 34.2623 38.3426C34.6568 38.1924 34.7904 37.8762 34.8736 36.8472C34.9178 36.2202 34.5735 35.8108 34.1315 35.9789Z" fill="currentColor"/>
<path fill-rule="evenodd" clip-rule="evenodd" d="M31.3457 37.7375C31.2776 37.7431 31.0366 37.8839 30.8103 38.0614C30.0525 38.6483 29.4878 38.7613 28.9658 38.4484C28.6202 38.2412 28.3813 37.9317 28.045 37.2332C27.8212 36.7761 27.7531 36.6898 27.5649 36.6505C27.2372 36.5827 26.9511 36.7987 26.9336 37.1198C26.8958 37.7053 27.6378 38.8509 28.322 39.2611C29.4136 39.9155 30.8775 39.5489 31.5319 38.4573C31.6662 38.2333 31.6849 38.1247 31.6183 37.9745C31.5149 37.7471 31.5053 37.7326 31.3457 37.7375Z" fill="currentColor"/>
<path fill-rule="evenodd" clip-rule="evenodd" d="M25.1298 34.241C24.7775 34.2144 24.588 34.4692 24.4827 35.106C24.3366 35.9948 24.3912 36.4423 24.6757 36.6128C24.8926 36.7429 25.1882 36.5885 25.3996 36.2357C25.6149 35.8766 25.7543 34.9829 25.6568 34.6392C25.5684 34.3561 25.4407 34.2611 25.1298 34.241Z" fill="currentColor"/>
</g>
<defs>
<clipPath id="clip0_3393_4637">
<rect width="60" height="60" fill="white"/>
</clipPath>
</defs>
</svg>
