<svg width="60" height="60" viewBox="0 0 60 60" fill="none" xmlns="http://www.w3.org/2000/svg">
<path fill-rule="evenodd" clip-rule="evenodd" d="M35.0055 3.09871C35.1543 3.69606 35.3826 4.28552 35.4389 4.8919C35.7467 8.19964 36.0618 11.5079 36.2754 14.8219C36.4276 17.1871 36.4135 19.563 36.4924 21.9343C36.5228 22.8436 36.5854 23.7523 36.6727 24.6571C36.7128 25.079 36.8458 25.4919 36.9653 26.0397C37.57 26.0064 38.1094 25.9754 38.6483 25.9483C43.7317 25.6888 48.8145 25.4282 53.8979 25.1715C54.4976 25.1405 55.0878 25.1484 55.4795 25.8106C55.3003 26.0741 55.156 26.355 54.9497 26.5801C52.4934 29.2543 50.0889 31.9822 47.5424 34.5696C45.8278 36.312 43.96 37.9157 42.0599 39.4556C41.02 40.2984 40.71 41.2178 40.9834 42.4548C41.3926 44.305 41.7697 46.1642 42.1721 48.0166C42.787 50.8426 43.2684 53.6828 43.1382 56.5911C43.1297 56.7801 43.0813 56.9657 43.035 57.2511C42.3057 57.0367 41.6372 56.8698 40.9879 56.6436C38.0452 55.6187 35.5134 53.8424 32.8981 52.2128C30.3403 50.6193 27.9714 48.7759 25.7259 46.7757C25.0811 46.2014 24.5186 46.1822 23.8112 46.5827C22.3012 47.439 20.8059 48.3325 19.2367 49.0652C18.0841 49.6039 17.2054 50.4799 16.1728 51.1585C15.1487 51.8309 14.1669 52.576 13.1061 53.1824C11.8413 53.9039 10.5185 54.5266 9.20577 55.1618C8.87548 55.3214 8.48996 55.3677 8.00693 55.4997C8.00749 54.1848 8.51194 53.1886 8.88169 52.1733C9.49041 50.5025 10.2243 48.8763 10.8133 47.1993C12.1237 43.4679 13.3575 39.7089 14.6691 35.977C15.0247 34.9667 14.9706 34.1116 14.4064 33.1786C13.366 31.4537 12.5645 29.5725 11.4214 27.9248C10.1983 26.1598 9.34668 24.1331 7.74484 22.6236C7.42019 22.3185 7.27364 21.8119 7.07355 21.386C6.2698 19.6679 5.47508 17.9457 4.68261 16.2231C4.60314 16.0505 4.56031 15.862 4.5 15.6827C5.04729 15.2348 5.59908 15.3555 6.10917 15.5524C7.32324 16.0206 8.52321 16.5293 9.72093 17.0381C12.3384 18.1454 14.9509 19.2651 17.5661 20.378C18.7284 20.8744 19.8894 21.3742 21.0556 21.861C22.0155 22.2632 22.0808 22.2451 22.6665 21.3404C23.1179 20.6432 23.5485 19.9319 23.9741 19.2183C25.426 16.7832 26.8413 14.3249 28.3298 11.9124C29.3641 10.2377 30.4874 8.61706 31.5865 6.98406C32.2679 5.97098 32.964 4.96523 33.6872 3.98149C33.9543 3.61766 34.3196 3.32547 34.6397 3C34.7626 3.03215 34.8838 3.06486 35.0055 3.09871ZM41.0133 53.6173C41.0899 52.3436 40.8307 51.2324 40.5725 50.1251C39.9542 47.4683 39.319 44.8155 38.6962 42.1604C38.5045 41.3425 38.6004 40.5753 39.2226 39.9571C40.1712 39.0134 41.0944 38.0381 42.1022 37.1621C43.6229 35.8416 45.2805 34.6734 46.7454 33.2959C48.4961 31.6522 50.311 30.0299 51.4439 27.843C51.5938 27.5542 51.7725 27.0268 51.6485 26.9061C51.4134 26.6748 50.9603 26.5434 50.6131 26.5705C48.2543 26.7544 45.8994 26.9896 43.5434 27.2118C41.5397 27.3997 39.5354 27.5802 37.5334 27.7838C35.7794 27.962 34.5473 26.8897 34.5394 25.1146C34.5236 21.7533 34.5326 18.3919 34.5214 15.0295C34.514 12.7004 34.4774 10.3708 34.0208 8.07216C33.9718 7.82735 33.8799 7.58988 33.7554 7.17133C33.3823 7.59439 33.0818 7.85442 32.8817 8.17595C31.3368 10.6618 29.7716 13.1359 28.291 15.6601C26.5899 18.56 24.9638 21.5022 23.3203 24.4354C23.0001 25.0068 22.5346 25.2206 21.9388 25.083C21.4845 24.977 21.0246 24.8134 20.6199 24.5826C19.3495 23.8606 18.0689 23.1465 16.8554 22.3348C14.4058 20.6962 11.6694 19.6318 9.0457 18.3429C8.82025 18.2329 8.42344 18.2707 8.21377 18.406C8.08921 18.4867 8.13712 18.9002 8.1794 19.1517C8.2104 19.3356 8.35017 19.5043 8.45332 19.6729C9.69049 21.6991 10.8217 23.8014 12.197 25.7289C13.9713 28.217 15.4497 30.8732 16.9912 33.4962C17.1271 33.7286 17.1569 34.1009 17.0831 34.366C16.6384 35.9635 16.1785 37.5592 15.6678 39.1381C14.8173 41.7672 13.9048 44.3766 13.0627 47.0086C12.7685 47.9275 12.3345 48.8419 12.5103 49.9052C12.711 49.9018 12.888 49.9503 13.0097 49.8888C13.5643 49.6045 14.0964 49.2751 14.6499 48.9891C15.7326 48.4278 16.8588 47.941 17.906 47.3217C19.8686 46.1608 21.7883 44.9255 23.7289 43.7263C24.5231 43.2355 24.6713 43.2203 25.3691 43.8814C25.9378 44.4195 26.3836 45.0891 26.9534 45.6266C28.5367 47.1214 30.1707 48.5598 32.1592 49.5171C32.8355 49.8425 33.5232 50.1505 34.1725 50.5228C35.3375 51.1918 36.4563 51.9398 37.6332 52.5828C38.6252 53.1249 39.6369 53.6833 41.0133 53.6173Z" fill="currentColor"/>
</svg>
