<svg width="89" height="89" viewBox="0 0 89 89" fill="none" xmlns="http://www.w3.org/2000/svg">
<circle cx="44.5" cy="44.5942" r="39.8798" fill="#F4A672"/>
<circle cx="44.5" cy="44.5942" r="41.8798" stroke="#FCFCFC" stroke-opacity="0.2" stroke-width="4"/>
<circle cx="45.0318" cy="44.5943" r="34.5625" fill="#053B4A"/>
<path fill-rule="evenodd" clip-rule="evenodd" d="M45.9201 32.7462C46.3684 31.6372 47.2055 30.7295 48.2747 30.1931C49.3439 29.6567 50.5719 29.5284 51.729 29.8321C52.886 30.1358 53.8927 30.8507 54.5606 31.8431C55.2285 32.8355 55.5119 34.0373 55.3577 35.2235C55.2034 36.4097 54.6222 37.4991 53.7228 38.2877C52.8233 39.0763 51.6673 39.5101 50.4711 39.5079C49.2749 39.5057 48.1205 39.0676 47.2239 38.2757C46.3274 37.4838 45.7502 36.3922 45.6004 35.2055H38.1857C37.2074 35.2055 36.2691 35.5941 35.5773 36.2859C34.8855 36.9777 34.4969 37.916 34.4969 38.8943C34.4969 39.8727 34.8855 40.811 35.5773 41.5028C36.2691 42.1946 37.2074 42.5832 38.1857 42.5832H55.4005C57.0311 42.5832 58.5949 43.231 59.7479 44.384C60.9009 45.537 61.5487 47.1008 61.5487 48.7314C61.5487 50.362 60.9009 51.9258 59.7479 53.0788C58.5949 54.2318 57.0311 54.8795 55.4005 54.8795H41.8377C41.6879 56.0663 41.1107 57.1578 40.2142 57.9498C39.3177 58.7417 38.1633 59.1798 36.967 59.182C35.7708 59.1842 34.6148 58.7504 33.7154 57.9618C32.8159 57.1732 32.2347 56.0838 32.0805 54.8975C31.9263 53.7113 32.2096 52.5095 32.8776 51.5172C33.5455 50.5248 34.5522 49.8098 35.7092 49.5061C36.8662 49.2024 38.0942 49.3308 39.1635 49.8672C40.2327 50.4036 41.0698 51.3112 41.518 52.4203H55.4005C56.3789 52.4203 57.3172 52.0316 58.009 51.3398C58.7008 50.648 59.0894 49.7097 59.0894 48.7314C59.0894 47.753 58.7008 46.8147 58.009 46.1229C57.3172 45.4311 56.3789 45.0425 55.4005 45.0425H38.1857C36.5552 45.0425 34.9913 44.3947 33.8383 43.2417C32.6853 42.0887 32.0376 40.5249 32.0376 38.8943C32.0376 37.2638 32.6853 35.6999 33.8383 34.5469C34.9913 33.3939 36.5552 32.7462 38.1857 32.7462H45.9201Z" fill="#F4A672"/>
</svg>
