<svg width="24" height="24" viewBox="0 0 24 24" fill="none" xmlns="http://www.w3.org/2000/svg">
<path d="M7.208 5.5C7.208 4.90326 7.44505 4.33097 7.86701 3.90901C8.28897 3.48705 8.86126 3.25 9.458 3.25H11.041C11.6285 3.24983 12.1928 3.47946 12.6132 3.8898C13.0336 4.30015 13.2769 4.85867 13.291 5.446C13.518 5.271 13.783 5.138 14.077 5.059L16.33 4.455C16.6154 4.37848 16.9131 4.35893 17.2061 4.39747C17.4991 4.43602 17.7816 4.5319 18.0375 4.67964C18.2935 4.82738 18.5178 5.02409 18.6977 5.25853C18.8776 5.49298 19.0095 5.76056 19.086 6.046L21.805 16.19C21.9592 16.7663 21.8783 17.3803 21.5799 17.8969C21.2816 18.4136 20.7903 18.7905 20.214 18.945L17.96 19.549C17.3837 19.7036 16.7696 19.6229 16.2527 19.3247C15.7359 19.0266 15.3587 18.5353 15.204 17.959L13.292 10.823V17.251C13.292 17.8477 13.0549 18.42 12.633 18.842C12.211 19.2639 11.6387 19.501 11.042 19.501H9.458C8.90437 19.5019 8.37001 19.2978 7.958 18.928C7.54599 19.2978 7.01163 19.5019 6.458 19.501H4.125C3.82944 19.501 3.53678 19.4428 3.26373 19.3296C2.99068 19.2165 2.7426 19.0507 2.53366 18.8416C2.32471 18.6326 2.159 18.3844 2.04598 18.1113C1.93297 17.8382 1.87487 17.5456 1.875 17.25V7.75C1.875 7.15326 2.11205 6.58097 2.53401 6.15901C2.95597 5.73705 3.52826 5.5 4.125 5.5H6.458C6.721 5.5 6.974 5.545 7.208 5.628V5.5ZM7.208 17.25V7.728C7.20228 7.53293 7.12074 7.34776 6.9807 7.21184C6.84066 7.07591 6.65316 6.99992 6.458 7H4.125C3.92609 7 3.73532 7.07902 3.59467 7.21967C3.45402 7.36032 3.375 7.55109 3.375 7.75V17.25C3.375 17.664 3.711 18 4.125 18H6.458C6.6535 18.0001 6.84129 17.9238 6.98138 17.7874C7.12147 17.6511 7.20279 17.4654 7.208 17.27V17.25ZM9.458 18H11.041C11.2399 18 11.4307 17.921 11.5713 17.7803C11.712 17.6397 11.791 17.4489 11.791 17.25V5.5C11.791 5.30109 11.712 5.11032 11.5713 4.96967C11.4307 4.82902 11.2399 4.75 11.041 4.75H9.458C9.25909 4.75 9.06832 4.82902 8.92767 4.96967C8.78702 5.11032 8.708 5.30109 8.708 5.5V17.27C8.71321 17.4654 8.79453 17.6511 8.93462 17.7874C9.07471 17.9238 9.26251 18.0001 9.458 18ZM13.935 7.427L16.652 17.569C16.6775 17.6642 16.7215 17.7533 16.7815 17.8315C16.8416 17.9096 16.9164 17.9752 17.0017 18.0244C17.087 18.0736 17.1812 18.1055 17.2789 18.1183C17.3766 18.1311 17.4759 18.1246 17.571 18.099L19.824 17.495C20.0159 17.4434 20.1796 17.3178 20.279 17.1457C20.3783 16.9735 20.4053 16.769 20.354 16.577L17.638 6.435C17.5864 6.24305 17.4608 6.07942 17.2887 5.98004C17.1165 5.88066 16.912 5.85368 16.72 5.905L14.466 6.508C14.3708 6.53352 14.2817 6.57754 14.2035 6.63755C14.1254 6.69755 14.0598 6.77236 14.0106 6.8577C13.9614 6.94304 13.9295 7.03725 13.9167 7.13493C13.9039 7.23261 13.9094 7.33186 13.935 7.427Z" fill="url(#paint0_linear_3358_8695)"/>
<defs>
<linearGradient id="paint0_linear_3358_8695" x1="19.7218" y1="224.324" x2="4.78222" y2="224.31" gradientUnits="userSpaceOnUse">
<stop stop-color="#E29E6E"/>
<stop offset="0.385" stop-color="#E5DDA3"/>
<stop offset="0.735" stop-color="#2AEBEB"/>
</linearGradient>
</defs>
</svg>
