<svg width="18" height="20" viewBox="0 0 18 20" fill="none" xmlns="http://www.w3.org/2000/svg">
<path d="M3.21756 17.5379L3.6584 16.9311L3.21756 17.5379ZM2.29576 16.6161L2.90253 16.1753L2.29576 16.6161ZM15.7042 16.6161L15.0975 16.1753L15.7042 16.6161ZM14.7824 17.5379L14.3416 16.9311L14.7824 17.5379ZM14.7824 2.46275L14.3416 3.06952L14.7824 2.46275ZM15.7042 3.38455L15.0975 3.82539L15.7042 3.38455ZM3.21756 2.46275L3.6584 3.06952L3.21756 2.46275ZM2.29576 3.38455L2.90253 3.82539L2.29576 3.38455ZM5.66667 12.5837C5.25245 12.5837 4.91667 12.9194 4.91667 13.3337C4.91667 13.7479 5.25245 14.0837 5.66667 14.0837V13.3337V12.5837ZM12.3333 14.0837C12.7475 14.0837 13.0833 13.7479 13.0833 13.3337C13.0833 12.9194 12.7475 12.5837 12.3333 12.5837V13.3337V14.0837ZM5.66667 9.25033C5.25245 9.25033 4.91667 9.58611 4.91667 10.0003C4.91667 10.4145 5.25245 10.7503 5.66667 10.7503V10.0003V9.25033ZM12.3333 10.7503C12.7475 10.7503 13.0833 10.4145 13.0833 10.0003C13.0833 9.58611 12.7475 9.25033 12.3333 9.25033V10.0003V10.7503ZM5.66667 5.91699C5.25245 5.91699 4.91667 6.25278 4.91667 6.66699C4.91667 7.08121 5.25245 7.41699 5.66667 7.41699V6.66699V5.91699ZM8.16667 7.41699C8.58088 7.41699 8.91667 7.08121 8.91667 6.66699C8.91667 6.25278 8.58088 5.91699 8.16667 5.91699V6.66699V7.41699ZM16.5 9.16699H15.75V10.8337H16.5H17.25V9.16699H16.5ZM1.5 10.8337H2.25V9.16699H1.5H0.75V10.8337H1.5ZM9 18.3337V17.5837C7.42091 17.5837 6.29683 17.5826 5.4285 17.4886C4.57421 17.396 4.05688 17.2206 3.6584 16.9311L3.21756 17.5379L2.77672 18.1447C3.47352 18.6509 4.28502 18.8734 5.26693 18.9798C6.23481 19.0847 7.45432 19.0837 9 19.0837V18.3337ZM1.5 10.8337H0.75C0.75 12.3793 0.748971 13.5988 0.853834 14.5667C0.960218 15.5486 1.18275 16.3601 1.689 17.0569L2.29576 16.6161L2.90253 16.1753C2.61301 15.7768 2.43766 15.2594 2.34511 14.4052C2.25103 13.5368 2.25 12.4128 2.25 10.8337H1.5ZM3.21756 17.5379L3.6584 16.9311C3.36834 16.7204 3.11326 16.4653 2.90253 16.1753L2.29576 16.6161L1.689 17.0569C1.99226 17.4743 2.35932 17.8414 2.77672 18.1447L3.21756 17.5379ZM16.5 10.8337H15.75C15.75 12.4128 15.749 13.5368 15.6549 14.4052C15.5623 15.2594 15.387 15.7768 15.0975 16.1753L15.7042 16.6161L16.311 17.0569C16.8173 16.3601 17.0398 15.5486 17.1462 14.5667C17.251 13.5988 17.25 12.3793 17.25 10.8337H16.5ZM9 18.3337V19.0837C10.5457 19.0837 11.7652 19.0847 12.7331 18.9798C13.715 18.8734 14.5265 18.6509 15.2233 18.1447L14.7824 17.5379L14.3416 16.9311C13.9431 17.2206 13.4258 17.396 12.5715 17.4886C11.7032 17.5826 10.5791 17.5837 9 17.5837V18.3337ZM15.7042 16.6161L15.0975 16.1753C14.8867 16.4653 14.6317 16.7204 14.3416 16.9311L14.7824 17.5379L15.2233 18.1447C15.6407 17.8414 16.0077 17.4743 16.311 17.0569L15.7042 16.6161ZM9 1.66699V2.41699C10.5791 2.41699 11.7032 2.41802 12.5715 2.5121C13.4258 2.60466 13.9431 2.78001 14.3416 3.06952L14.7824 2.46275L15.2233 1.85599C14.5265 1.34974 13.715 1.12721 12.7331 1.02083C11.7652 0.915963 10.5457 0.916992 9 0.916992V1.66699ZM16.5 9.16699H17.25C17.25 7.62131 17.251 6.4018 17.1462 5.43392C17.0398 4.45201 16.8173 3.64051 16.311 2.94371L15.7042 3.38455L15.0975 3.82539C15.387 4.22387 15.5623 4.7412 15.6549 5.59549C15.749 6.46382 15.75 7.5879 15.75 9.16699H16.5ZM14.7824 2.46275L14.3416 3.06952C14.6317 3.28026 14.8867 3.53534 15.0975 3.82539L15.7042 3.38455L16.311 2.94371C16.0077 2.52632 15.6407 2.15925 15.2233 1.85599L14.7824 2.46275ZM9 1.66699V0.916992C7.45432 0.916992 6.23481 0.915963 5.26693 1.02083C4.28502 1.12721 3.47352 1.34974 2.77672 1.85599L3.21756 2.46275L3.6584 3.06952C4.05688 2.78001 4.57421 2.60466 5.4285 2.5121C6.29683 2.41802 7.42091 2.41699 9 2.41699V1.66699ZM1.5 9.16699H2.25C2.25 7.5879 2.25103 6.46382 2.34511 5.59549C2.43766 4.7412 2.61301 4.22387 2.90253 3.82539L2.29576 3.38455L1.689 2.94371C1.18275 3.64051 0.960218 4.45201 0.853834 5.43392C0.748971 6.4018 0.75 7.62131 0.75 9.16699H1.5ZM3.21756 2.46275L2.77672 1.85599C2.35932 2.15925 1.99226 2.52632 1.689 2.94371L2.29576 3.38455L2.90253 3.82539C3.11326 3.53534 3.36834 3.28026 3.6584 3.06952L3.21756 2.46275ZM5.66667 13.3337V14.0837H12.3333V13.3337V12.5837H5.66667V13.3337ZM5.66667 10.0003V10.7503H12.3333V10.0003V9.25033H5.66667V10.0003ZM5.66667 6.66699V7.41699H8.16667V6.66699V5.91699H5.66667V6.66699Z" fill="url(#paint0_linear_8471_1370)"/>
<defs>
<linearGradient id="paint0_linear_8471_1370" x1="14.8808" y1="226.667" x2="3.6797" y2="226.659" gradientUnits="userSpaceOnUse">
<stop stop-color="#E29E6E"/>
<stop offset="0.385" stop-color="#E5DDA3"/>
<stop offset="0.735" stop-color="#2AEBEB"/>
</linearGradient>
</defs>
</svg>
