<svg width="24" height="24" viewBox="0 0 24 24" fill="none" xmlns="http://www.w3.org/2000/svg">
<g clip-path="url(#clip0_3358_8685)">
<path d="M17.8894 0.0705333C18.0582 0.140311 18.2025 0.258603 18.304 0.410436C18.4056 0.562269 18.4598 0.740817 18.4598 0.92348V5.539H23.0753C23.2581 5.53867 23.4369 5.59263 23.589 5.69404C23.7411 5.79545 23.8596 5.93974 23.9296 6.10862C23.9996 6.2775 24.0179 6.46336 23.9822 6.64264C23.9464 6.82192 23.8582 6.98655 23.7288 7.11566L20.0365 10.8081C19.9506 10.8937 19.8487 10.9616 19.7365 11.0079C19.6244 11.0541 19.5042 11.0778 19.3829 11.0776H14.2266L12.8604 12.4457C12.9338 12.7194 12.9432 13.0063 12.8879 13.2843C12.8326 13.5622 12.714 13.8237 12.5414 14.0484C12.3688 14.2732 12.1467 14.4551 11.8925 14.5803C11.6382 14.7054 11.3586 14.7703 11.0752 14.77C10.5855 14.77 10.116 14.5755 9.76973 14.2293C9.42351 13.8831 9.229 13.4135 9.229 12.9238L9.23085 12.8389C9.24351 12.5631 9.31786 12.2937 9.44842 12.0504C9.57898 11.8072 9.76243 11.5963 9.98527 11.4333C10.2081 11.2704 10.4647 11.1595 10.736 11.1088C11.0074 11.0581 11.2867 11.0689 11.5533 11.1404L12.9213 9.77235V4.61589C12.9211 4.49459 12.9448 4.37443 12.9911 4.26229C13.0373 4.15015 13.1052 4.04822 13.1909 3.96234L16.8832 0.269924C17.0124 0.140907 17.177 0.0530998 17.3561 0.0176084C17.5352 -0.017883 17.7207 0.000534971 17.8894 0.0705333ZM19.0008 9.23141L20.8469 7.3852H17.5368C17.2919 7.3852 17.0572 7.28795 16.884 7.11483C16.7109 6.94172 16.6137 6.70692 16.6137 6.4621V3.15185L14.7675 4.99806V9.23141H19.0008ZM22.0506 11.4025C22.1196 11.901 22.154 12.4087 22.154 12.9257C22.1534 15.1813 21.4643 17.383 20.1787 19.2363C18.8931 21.0897 17.0724 22.5065 14.9599 23.2971C12.8475 24.0878 10.544 24.2147 8.35745 23.661C6.17092 23.1072 4.20555 21.8991 2.72412 20.1982C1.24269 18.4972 0.315802 16.3846 0.0673916 14.1427C-0.181019 11.9008 0.260883 9.63652 1.33401 7.65255C2.40715 5.66858 4.06036 4.0595 6.07262 3.04045C8.08487 2.0214 10.3603 1.64095 12.5946 1.94997L11.8875 2.65707C11.5948 2.94974 11.3715 3.30429 11.2339 3.69464L11.0752 3.69279C9.24278 3.69306 7.45193 4.2387 5.93067 5.26021C4.40942 6.28172 3.2266 7.73289 2.53285 9.42891C1.8391 11.1249 1.66581 12.9891 2.03504 14.7839C2.40427 16.5787 3.29932 18.2231 4.60621 19.5075C5.9131 20.792 7.57268 21.6584 9.37362 21.9964C11.1746 22.3345 13.0354 22.1288 14.7191 21.4058C16.4028 20.6827 17.8332 19.4748 18.8281 17.9361C19.8231 16.3973 20.3375 14.5972 20.306 12.765C20.6949 12.6275 21.0481 12.4049 21.3399 12.1133L22.0506 11.4025ZM11.0752 6.4621C9.79719 6.4621 8.54791 6.84107 7.48531 7.5511C6.4227 8.26112 5.5945 9.2703 5.10544 10.451C4.61638 11.6318 4.48842 12.931 4.73774 14.1844C4.98706 15.4379 5.60247 16.5893 6.50614 17.4929C7.40981 18.3966 8.56115 19.0121 9.81458 19.2614C11.068 19.5107 12.3672 19.3827 13.5479 18.8937C14.7286 18.4046 15.7378 17.5764 16.4478 16.5138C17.1578 15.4511 17.5368 14.2018 17.5368 12.9238H15.6906C15.6906 13.8367 15.4199 14.729 14.9128 15.4881C14.4056 16.2471 13.6848 16.8387 12.8414 17.188C11.9981 17.5373 11.0701 17.6287 10.1747 17.4506C9.27944 17.2726 8.45705 16.833 7.81158 16.1875C7.1661 15.542 6.72652 14.7196 6.54843 13.8243C6.37035 12.9289 6.46175 12.0009 6.81108 11.1575C7.16041 10.3142 7.75198 9.59332 8.51098 9.08616C9.26998 8.579 10.1623 8.3083 11.0752 8.3083V6.4621Z" fill="url(#paint0_linear_3358_8685)"/>
</g>
<defs>
<linearGradient id="paint0_linear_3358_8685" x1="21.4092" y1="324" x2="3.48753" y2="323.986" gradientUnits="userSpaceOnUse">
<stop stop-color="#E29E6E"/>
<stop offset="0.385" stop-color="#E5DDA3"/>
<stop offset="0.735" stop-color="#2AEBEB"/>
</linearGradient>
<clipPath id="clip0_3358_8685">
<rect width="24" height="24" fill="white"/>
</clipPath>
</defs>
</svg>
