<svg width="16" height="16" viewBox="0 0 16 16" fill="none" xmlns="http://www.w3.org/2000/svg">
<path fill-rule="evenodd" clip-rule="evenodd" d="M8.83333 8.83333V14.6667C8.83333 14.8877 8.74554 15.0996 8.58926 15.2559C8.43298 15.4122 8.22101 15.5 8 15.5C7.77899 15.5 7.56702 15.4122 7.41074 15.2559C7.25446 15.0996 7.16667 14.8877 7.16667 14.6667V8.83333H1.33333C1.11232 8.83333 0.900358 8.74554 0.744078 8.58926C0.587797 8.43298 0.5 8.22101 0.5 8C0.5 7.77899 0.587797 7.56702 0.744078 7.41074C0.900358 7.25446 1.11232 7.16667 1.33333 7.16667H7.16667V1.33333C7.16667 1.11232 7.25446 0.900358 7.41074 0.744078C7.56702 0.587797 7.77899 0.5 8 0.5C8.22101 0.5 8.43298 0.587797 8.58926 0.744078C8.74554 0.900358 8.83333 1.11232 8.83333 1.33333V7.16667H14.6667C14.8877 7.16667 15.0996 7.25446 15.2559 7.41074C15.4122 7.56702 15.5 7.77899 15.5 8C15.5 8.22101 15.4122 8.43298 15.2559 8.58926C15.0996 8.74554 14.8877 8.83333 14.6667 8.83333H8.83333Z" fill="currentColor"/>
</svg>
