<svg width="19" height="20" viewBox="0 0 19 20" fill="none" xmlns="http://www.w3.org/2000/svg">
<path d="M10.25 6.125C10.25 5.71079 9.91422 5.375 9.5 5.375C9.08579 5.375 8.75 5.71079 8.75 6.125H9.5H10.25ZM11.8865 9.28033C12.1794 8.98744 12.1794 8.51257 11.8865 8.21967C11.5936 7.92678 11.1187 7.92678 10.8258 8.21967L11.3562 8.75L11.8865 9.28033ZM1.15648 2.2581C0.833032 2.51686 0.780591 2.98882 1.03935 3.31227C1.29811 3.63572 1.77007 3.68816 2.09352 3.4294L1.625 2.84375L1.15648 2.2581ZM4.28102 1.6794C4.60447 1.42064 4.65691 0.948675 4.39815 0.625229C4.13939 0.301782 3.66743 0.249341 3.34398 0.508098L3.8125 1.09375L4.28102 1.6794ZM16.9065 3.4294C17.2299 3.68816 17.7019 3.63572 17.9607 3.31227C18.2194 2.98882 18.167 2.51686 17.8435 2.2581L17.375 2.84375L16.9065 3.4294ZM15.656 0.508098C15.3326 0.249341 14.8606 0.301782 14.6018 0.625229C14.3431 0.948675 14.3955 1.42064 14.719 1.6794L15.1875 1.09375L15.656 0.508098ZM9.5 6.125H8.75V10.5H9.5H10.25V6.125H9.5ZM11.3562 8.75L10.8258 8.21967L9.04475 10.0008L9.57508 10.5311L10.1054 11.0614L11.8865 9.28033L11.3562 8.75ZM18.25 10.5H17.5C17.5 14.9183 13.9183 18.5 9.5 18.5V19.25V20C14.7467 20 19 15.7467 19 10.5H18.25ZM9.5 19.25V18.5C5.08172 18.5 1.5 14.9183 1.5 10.5H0.75H0C0 15.7467 4.25329 20 9.5 20V19.25ZM0.75 10.5H1.5C1.5 6.08172 5.08172 2.5 9.5 2.5V1.75V1C4.25329 1 0 5.25329 0 10.5H0.75ZM9.5 1.75V2.5C13.9183 2.5 17.5 6.08172 17.5 10.5H18.25H19C19 5.25329 14.7467 1 9.5 1V1.75ZM1.625 2.84375L2.09352 3.4294L4.28102 1.6794L3.8125 1.09375L3.34398 0.508098L1.15648 2.2581L1.625 2.84375ZM17.375 2.84375L17.8435 2.2581L15.656 0.508098L15.1875 1.09375L14.719 1.6794L16.9065 3.4294L17.375 2.84375ZM9.57508 10.5311L9.04475 10.0008C9.48949 9.55603 10.2499 9.87095 10.25 10.4999L9.5 10.5L8.75 10.5001C8.7501 11.2074 9.60527 11.5616 10.1054 11.0614L9.57508 10.5311Z" fill="url(#paint0_linear_8471_601)"/>
<defs>
<linearGradient id="paint0_linear_8471_601" x1="16.3609" y1="246.203" x2="3.29299" y2="246.194" gradientUnits="userSpaceOnUse">
<stop stop-color="#E29E6E"/>
<stop offset="0.385" stop-color="#E5DDA3"/>
<stop offset="0.735" stop-color="#2AEBEB"/>
</linearGradient>
</defs>
</svg>
