<svg width="24" height="24" viewBox="0 0 24 24" fill="none" xmlns="http://www.w3.org/2000/svg">
<path d="M3.00212 9.44524C3.10359 9.34575 3.20506 9.24625 3.30686 9.14709L3.29443 9.15907C3.54776 8.9504 3.8152 8.75369 3.90591 8.41443L3.89214 8.41045C3.91566 8.40478 3.94724 8.40675 3.96168 8.39211C4.43206 7.91493 4.90075 7.43577 5.36978 6.95726L5.35264 6.96592C5.40909 6.91002 5.46587 6.85411 5.52265 6.79787L5.51627 6.81051C6.05619 6.25515 6.60048 5.70343 7.13536 5.14341C7.82244 4.42433 8.4608 3.6594 9.22079 3.00845C9.43783 2.82241 9.60347 2.57788 9.79968 2.36658C9.86016 2.3017 9.94718 2.26207 10.0157 2.2035C10.307 1.95524 10.6635 1.77178 10.8328 1.40154L10.816 1.40887C10.8731 1.35229 10.9303 1.29606 10.9874 1.23949L10.98 1.25446C11.3025 1.03943 11.6341 0.835364 11.8727 0.520619L11.8545 0.531611C11.9096 0.476372 11.9644 0.421126 12.0195 0.365556L12.0091 0.379872C12.1337 0.30364 12.2581 0.227403 12.3736 0.15683C12.7244 0.230772 12.8433 0.51104 12.9949 0.756705C13.3916 1.39995 13.772 2.05319 14.1836 2.68712C15.2805 4.37648 16.6318 5.84953 18.1283 7.19911C19.0912 8.06748 20.0407 8.94982 20.9942 9.82851C21.3829 10.1868 21.6474 10.6103 21.682 11.1517C21.6863 11.2198 21.7267 11.2856 21.7472 11.3445C21.5946 11.7287 21.2533 11.831 20.9173 11.8861C20.3851 11.9735 19.8408 11.9862 19.3089 12.075C18.4068 12.2255 17.495 12.1163 16.5929 12.2137C16.4521 12.2287 16.315 12.2767 16.182 12.3084C16.0755 12.6526 16.1329 12.9532 16.2082 13.2668C16.3896 14.0219 16.5408 14.784 16.6997 15.5441C16.7246 15.6625 16.735 15.7859 16.7353 15.9069C16.7373 16.9086 16.9527 17.8862 17.0663 18.8751C17.0854 19.0434 17.1543 19.2232 17.116 19.3772C17.0001 19.8419 17.0579 20.2921 17.1378 20.7503C17.2296 21.2761 17.1701 21.8135 17.29 22.3445C17.3807 22.7455 17.0737 23.0061 16.6325 22.9894C15.6508 22.9524 14.6694 22.8975 13.6873 22.8692C12.4845 22.8344 11.281 22.8201 10.0779 22.7936C9.90619 22.7897 9.73517 22.7632 9.56382 22.7567C9.18719 22.7423 8.87775 22.6533 8.86498 22.1961C8.85994 22.0142 8.63316 22.017 8.57873 21.8188C8.49171 21.5013 8.46382 21.194 8.52531 20.8904C8.72118 19.9255 8.62039 18.9572 8.60393 17.9894C8.59351 17.3862 8.571 16.7829 8.55689 16.1797C8.53572 15.2589 8.51926 14.3377 8.49608 13.4169C8.48667 13.0411 8.41376 12.9567 8.03007 12.904C7.69006 12.8573 7.34736 12.8253 7.00466 12.8016C5.55826 12.701 4.11288 12.5832 2.6601 12.5928C2.19745 12.5957 1.73514 12.4949 1.27048 12.5989C1.21135 12.6123 1.1371 12.5571 1.10283 12.5455C0.999344 12.1069 0.903255 11.6993 0.800781 11.2647C1.21034 10.8577 1.6619 10.5043 2.17427 10.216C2.37854 10.1011 2.5331 9.89914 2.71016 9.73674L2.69336 9.74507C2.75047 9.6885 2.80759 9.63226 2.86471 9.57569L2.84052 9.59699C2.89696 9.54075 2.95374 9.48485 3.01019 9.42895L3.00212 9.44524ZM14.0787 5.18168L14.0465 5.16141L14.0757 5.16804C14.0767 5.18467 14.0781 5.20163 14.0791 5.21826C14.0791 5.20595 14.0787 5.19365 14.0787 5.18168ZM13.8852 15.5851L13.8929 15.5465L13.9044 15.6001C13.9138 15.6047 13.9228 15.6094 13.9322 15.614C13.9164 15.6044 13.901 15.5947 13.8852 15.5851ZM13.5035 4.58576L13.4605 4.56949L13.4988 4.56415L13.5055 4.62134L13.5035 4.58576ZM12.0417 0.98343C12.0437 0.974783 12.0457 0.966143 12.0481 0.957496C12.042 0.97313 12.0356 0.988425 12.0296 1.00406L11.9957 0.995433L12.0417 0.98343ZM11.8582 1.40623L11.8801 1.37828L11.8646 1.42119L11.8307 1.43152L11.8582 1.40623ZM11.8428 6.94394L11.8256 6.91668L11.8518 6.93895L11.8807 6.96952L11.8428 6.94394ZM11.45 1.86773L11.4443 1.8265L11.4551 1.88802L11.4067 1.88439L11.45 1.86773ZM10.7982 12.3805C10.8261 12.2731 10.7774 12.2222 10.6719 12.2137C10.6477 12.1488 10.6416 12.065 10.5963 12.0222C9.99791 11.4592 9.39584 10.9002 8.78805 10.3475C8.74941 10.3126 8.65768 10.3346 8.59082 10.33C8.58074 10.3121 8.571 10.2938 8.56092 10.2758C8.57638 10.2895 8.59217 10.3031 8.60762 10.3167C8.61905 10.481 8.65298 10.6473 8.63719 10.8092C8.61065 11.0819 8.68053 11.3828 8.44333 11.6065C8.43728 11.6128 8.43157 11.6191 8.42586 11.6254C8.43426 11.6125 8.44266 11.5995 8.45106 11.5865C8.64055 11.6027 8.8297 11.6189 9.02424 11.6354C9.35753 12.1267 9.45698 12.3258 9.41095 12.6129C9.21675 13.8245 9.40994 15.0358 9.36761 16.2105C9.83025 16.5989 10.2583 16.9618 10.6897 17.3207C11.2538 17.7896 11.7961 18.2884 12.3918 18.7144C13.1269 19.2397 13.9003 19.7141 14.6731 20.1849C14.8333 20.2825 15.0289 20.4746 15.3168 20.2683C15.209 20.0791 15.1219 19.8803 14.9946 19.7118C14.7151 19.3425 14.4077 18.9941 14.1244 18.6278C12.8719 17.0071 11.6425 15.3683 10.3641 13.7679C9.95154 13.2517 9.98749 12.7229 10.0144 12.1023C10.2754 12.1411 10.4807 12.1712 10.6857 12.2017C10.729 12.2549 10.7723 12.308 10.8157 12.3616C10.8295 12.3805 10.8409 12.4028 10.8584 12.4171C10.8661 12.4234 10.8869 12.4137 10.902 12.4111C10.8674 12.4008 10.8328 12.3905 10.7982 12.3805ZM10.427 2.51353L10.3846 2.50657L10.4226 2.49955C10.4226 2.59101 10.4226 2.6828 10.4226 2.77425C10.4236 2.76793 10.4243 2.76161 10.4253 2.75529C10.4256 2.67481 10.4263 2.59434 10.427 2.51353ZM10.1931 10.0291L10.1961 9.99449L10.2126 10.041C10.2203 10.0464 10.2281 10.0517 10.2358 10.057C10.2217 10.0477 10.2072 10.0384 10.1931 10.0291ZM9.94919 3.16297C9.95759 3.15698 9.96599 3.15098 9.97439 3.14532C9.96364 3.1573 9.95322 3.16895 9.94247 3.1806L9.90955 3.18394L9.94919 3.16297ZM9.9072 20.8469C9.90686 20.8286 9.90955 20.8094 9.90451 20.7927C9.90182 20.7834 9.88603 20.7778 9.87595 20.7708C9.89208 20.7931 9.90787 20.815 9.924 20.8373L9.94919 20.8506L9.9072 20.8469ZM9.78288 10.1644L9.75802 10.1258L9.80203 10.1451C9.85411 10.1962 9.90619 10.2471 9.9586 10.2983C10.2899 10.8155 10.7737 11.192 11.2192 11.5981C12.6468 12.8992 14.0925 14.1809 15.5322 15.469C15.6017 15.5312 15.6827 15.5803 15.8198 15.6804C15.7385 15.1636 15.679 14.7154 15.5937 14.2718C15.5483 14.0364 15.4586 13.8096 15.3773 13.5413C14.9261 13.521 14.541 13.3054 14.1644 13.0835C12.9609 12.3742 11.8021 11.5997 10.6877 10.7584C10.4582 10.5853 10.1901 10.4624 9.93979 10.3166C9.88771 10.2657 9.8353 10.2152 9.78288 10.1644ZM7.7549 5.07718C7.75793 5.06886 7.76095 5.06055 7.76364 5.05224C7.75659 5.06721 7.74919 5.08217 7.74214 5.09714C7.68704 5.13641 7.63194 5.17569 7.57684 5.21497C7.53316 5.26754 7.48948 5.32012 7.44614 5.37235L7.40078 5.38036L7.42531 5.35075C7.46999 5.29918 7.51501 5.2476 7.5597 5.19603C7.62488 5.15642 7.69006 5.11679 7.7549 5.07718ZM6.40863 6.5366C6.41233 6.52097 6.41569 6.50534 6.41938 6.48971C6.4214 6.51166 6.42308 6.5336 6.42509 6.55555C6.36294 6.59383 6.30078 6.63244 6.23829 6.67072L6.20301 6.69037L6.22015 6.65245C6.28297 6.61417 6.3458 6.57522 6.40863 6.5366ZM2.225 11.0234C2.2465 11.024 2.26902 11.0287 2.28951 11.0243C2.30261 11.0217 2.31303 11.0057 2.32445 10.9957C2.29791 11.0117 2.27103 11.0277 2.24415 11.0433C2.20518 11.1042 2.16587 11.1651 2.1269 11.2263L2.08591 11.2366L2.10842 11.2063C2.14739 11.1451 2.18603 11.0843 2.225 11.0234ZM10.8439 21.3954C10.8063 21.3751 10.7707 21.3459 10.7307 21.3376C10.7088 21.3333 10.6796 21.3642 10.6537 21.3796C10.6746 21.3835 10.6957 21.3918 10.7166 21.3905C10.7592 21.3878 10.8016 21.3801 10.8439 21.3745L10.8459 21.4277L10.8439 21.3954ZM3.55044 10.5899C3.67509 10.5576 3.79941 10.5249 3.92406 10.4926C4.13337 10.5586 4.34269 10.625 4.62861 10.7153C4.51135 10.4759 4.42332 10.331 4.36822 10.1744C4.30875 10.0055 4.27952 9.82589 4.22879 9.61542C4.02283 9.83004 3.78193 9.96687 3.75203 10.2409C3.82696 10.3443 3.88306 10.4224 3.93951 10.5002C3.8162 10.5355 3.6929 10.5705 3.5696 10.6058C3.49299 10.6471 3.41538 10.6864 3.34146 10.7317C3.33038 10.7387 3.32836 10.7886 3.33542 10.7919C3.3707 10.8092 3.43991 10.8334 3.44394 10.8264C3.48493 10.7506 3.51618 10.6694 3.55044 10.5899ZM15.0816 6.83585C16.2723 8.18196 17.4634 9.52807 18.6763 10.8991C19.2464 10.8342 19.8714 10.9476 20.4136 10.5771C20.2339 10.239 20.2366 10.236 19.9221 10.0363C19.4296 10.189 19.4111 10.2156 19.0469 9.9644C18.5063 9.59127 17.9771 9.19719 17.4758 8.77416C16.8435 8.24047 16.2445 7.66785 15.6296 7.1132C15.4714 6.97063 15.3397 6.76652 15.0709 6.85614C15.0638 6.76835 15.0568 6.68056 15.0497 6.59277C15.0299 6.59611 15.0101 6.59945 14.9902 6.60279C15.0208 6.67992 15.0514 6.75805 15.0816 6.83585ZM11.4732 7.05059C11.4732 7.14237 11.4396 7.2548 11.4806 7.32229C11.5683 7.46556 11.6983 7.5832 11.8051 7.71549C12.923 9.09923 14.0394 10.4836 15.1458 11.8547C15.5265 11.7886 15.1824 11.3915 15.4583 11.2762C15.6669 11.189 15.8618 11.0691 16.1117 10.9383C15.7566 10.6585 15.4448 10.4262 15.1482 10.177C13.9141 9.14018 12.6844 8.09839 11.4534 7.05825C11.4601 7.05625 11.4665 7.05358 11.4732 7.05059ZM11.2676 18.9379C11.867 19.8507 12.4664 20.7632 13.0819 21.7C13.9957 21.75 14.9009 21.8003 15.8063 21.8486C15.8796 21.8525 15.9545 21.8508 16.0267 21.8391C16.2495 21.8038 16.4259 21.5925 16.3752 21.3654C16.1618 20.4101 16.229 19.4343 16.1517 18.4696C16.1185 18.0559 16.0519 17.6576 15.9401 17.2543C15.6111 17.0666 15.2822 16.9015 14.9785 16.6992C14.6737 16.4962 14.3959 16.2542 14.1036 16.0329C13.812 15.8116 13.515 15.597 13.224 15.3747C12.9334 15.1527 12.6602 14.9051 12.3551 14.7051C12.0659 14.5154 11.876 14.1713 11.3697 14.0659C12.3293 15.3007 13.2082 16.4349 14.0908 17.5667C14.5555 18.1627 15.0329 18.7493 15.4925 19.3493C15.8725 19.8452 16.0882 20.4005 16.0741 21.0363C16.0654 21.4258 15.8218 21.6431 15.4636 21.5186C15.1639 21.4147 14.8723 21.2798 14.5908 21.1327C13.5677 20.5983 12.6219 19.9504 11.741 19.2076C11.6005 19.0893 11.49 18.8929 11.2501 18.9532C11.2373 18.9223 11.2249 18.8917 11.2121 18.8608C11.2105 18.8761 11.2021 18.8984 11.2088 18.905C11.2242 18.92 11.2474 18.9273 11.2676 18.9379ZM9.77381 9.12379C9.76642 9.13044 9.75903 9.13743 9.75164 9.14409C9.76306 9.13144 9.77415 9.11847 9.78557 9.10583C9.93508 9.18488 10.0953 9.24896 10.2321 9.34565C10.6914 9.6706 11.1342 10.0192 11.5985 10.3368C12.3441 10.8472 13.0352 11.4397 13.8667 11.8216C13.9548 11.8621 14.0351 11.9246 14.1453 11.7616C12.1979 9.60549 10.4495 7.2727 8.72454 4.92527C8.22292 5.26046 7.18441 6.37483 6.85481 6.92442C6.94385 7.02247 7.03859 7.1265 7.13301 7.23086L7.11285 7.25981L7.12965 7.21656C7.17635 7.23117 7.23078 7.23479 7.26841 7.26171C8.09895 7.85713 8.92781 8.45522 9.75567 9.05463C9.77079 9.0656 9.7681 9.10018 9.77381 9.12379ZM14.7893 5.20185C14.7151 5.02697 14.6677 4.83412 14.5619 4.68055C13.897 3.71755 13.219 2.76387 12.6599 1.73363C12.6068 1.63556 12.506 1.56279 12.4002 1.44912C11.3341 2.2519 10.4364 3.17497 9.47748 4.07279C9.5944 4.21605 9.671 4.34071 9.77616 4.4341C11.1124 5.61849 12.4307 6.82419 13.7992 7.97132C14.7729 8.78748 15.8127 9.52677 16.8307 10.2903C16.9285 10.3638 17.0407 10.5233 17.2443 10.3716C17.0878 10.1901 16.9342 10.0103 16.7787 9.83179C15.7848 8.69141 14.7762 7.56334 13.8012 6.40732C13.1561 5.64251 12.5527 4.84242 11.9449 4.04766C11.8162 3.8798 11.6896 3.67269 11.6674 3.47217C11.6395 3.22177 11.7205 2.95967 11.7632 2.63773C11.9385 2.72375 12.0793 2.76092 12.1781 2.84633C12.7341 3.32553 13.2804 3.81537 13.8288 4.30322C14.1567 4.59501 14.4819 4.88977 14.8085 5.18322C14.8229 5.19451 14.837 5.20582 14.8515 5.21712C14.8307 5.21214 14.8098 5.20683 14.7893 5.20185ZM9.50637 17.8495C9.48588 17.9925 9.45262 18.1243 9.45127 18.2563C9.4469 18.669 9.47412 19.0827 9.45194 19.4944C9.43279 19.8529 9.57995 20.0919 9.86923 20.2826C10.3991 20.6318 10.9161 20.9996 11.45 21.3425C11.6318 21.4594 11.8461 21.5285 12.0494 21.6098C12.0813 21.6228 12.1334 21.5862 12.1892 21.5685C12.1704 21.5013 12.168 21.4225 12.13 21.3687C11.317 20.2159 10.5002 19.0657 9.68075 17.9173C9.65823 17.887 9.59709 17.8837 9.50637 17.8495ZM6.39015 7.34173C5.94867 7.86012 5.35634 8.16078 5.05631 8.81278C5.87039 9.23861 6.60451 9.76094 7.42464 10.1399C7.45219 10.1525 7.50527 10.1116 7.58389 10.0812C7.52241 9.92996 7.45891 9.78003 7.40045 9.62809C7.35744 9.51638 7.26135 9.38109 7.29293 9.29294C7.41993 8.94002 7.20356 8.71668 6.99492 8.53024C6.66834 8.23846 6.49867 7.90136 6.4933 7.47269C6.4933 7.45407 6.46608 7.43613 6.39015 7.34173ZM5.33215 10.091C5.2925 10.1266 5.25319 10.1618 5.21355 10.1971C5.47057 10.6293 5.7276 11.0614 5.96178 11.455C6.80878 11.6797 7.3729 11.7056 7.81068 11.533C6.99089 11.0028 6.16001 10.5494 5.33215 10.091ZM10.4532 21.5988C10.0816 21.2825 9.8185 21.0585 9.54031 20.8216C9.30176 21.0721 9.34073 21.3149 9.40692 21.5995C9.71367 21.5993 9.99623 21.5991 10.4532 21.5988ZM20.4637 10.9748C19.7585 10.9776 19.3654 11.047 18.7596 11.3058C19.4067 11.2611 19.9275 11.2495 20.4321 11.0916C20.4533 11.0852 20.454 11.0154 20.4637 10.9748ZM3.54708 11.3139C3.45368 11.0748 3.28435 10.9496 3.05386 10.9956C2.95878 11.0146 2.89159 11.1679 2.79449 11.2801C3.07974 11.3953 3.30451 11.4241 3.54708 11.3139ZM7.1535 11.9804C7.15384 11.9904 7.15417 12.0007 7.15417 12.0107C7.28453 12.0106 7.41456 12.0105 7.54492 12.0104C7.54458 12.0004 7.54425 11.9901 7.54391 11.9802C7.41389 11.9802 7.28386 11.9803 7.1535 11.9804ZM20.5544 11.4407C20.5534 11.426 20.5521 11.4114 20.5511 11.3968C20.4674 11.3968 20.3837 11.3969 20.3001 11.3969C20.3011 11.4176 20.3018 11.4385 20.3024 11.4591C20.3864 11.4531 20.4704 11.447 20.5544 11.4407ZM19.2159 11.5286C19.2152 11.5386 19.2145 11.5486 19.2139 11.5586C19.2723 11.5625 19.3308 11.5665 19.3889 11.5704C19.3896 11.5604 19.3902 11.5505 19.3909 11.5402C19.3325 11.5362 19.274 11.5326 19.2159 11.5286ZM10.6558 21.9419L10.7055 21.9289L10.6558 21.916L10.6558 21.9419ZM14.2323 22.0601L14.2286 22.087L14.277 22.0797L14.2323 22.0601ZM4.87992 9.07827C4.89739 9.08291 4.91453 9.08723 4.932 9.09187C4.92057 9.07658 4.90949 9.06163 4.89806 9.04634C4.89202 9.05698 4.88597 9.06762 4.87992 9.07827ZM2.3856 11.702L2.43969 11.7332L2.44944 11.6917L2.3856 11.702ZM9.56719 20.5006L9.59238 20.4617L9.5524 20.4567L9.56719 20.5006ZM10.3292 21.0628L10.2899 21.0353L10.2828 21.0765L10.3292 21.0628ZM14.5585 13.0134L14.6002 13.0386L14.6049 12.9981L14.5585 13.0134Z" fill="#053B4A"/>
</svg>
