<svg width="28" height="27" viewBox="0 0 28 27" fill="none" xmlns="http://www.w3.org/2000/svg">
<g clip-path="url(#clip0_7011_357669)">
<path d="M9.35733 9.43435C10.6372 8.24706 12.533 7.58125 14.4596 7.77291C15.7238 7.89947 17.2177 8.27939 18.4838 9.35293C19.7687 10.4416 20.6974 12.1408 21.007 14.6663C21.2723 16.8264 20.4939 19.2651 19.289 21.0126C18.6818 21.8939 17.9215 22.6676 17.0489 23.1384C16.1575 23.6213 15.1128 23.8034 14.0663 23.3936C13.1299 23.0275 12.4822 22.4902 12.1164 21.7746C11.7647 21.0886 11.7449 20.3737 11.7739 19.8076L11.7895 19.5737L11.8423 18.995C11.8659 18.7411 11.8828 18.5292 11.8826 18.3351C11.8823 17.9501 11.8137 17.7562 11.7072 17.6236C11.4505 17.3047 11.1485 17.1293 10.7065 16.9042L10.1234 16.6086L9.83987 16.4554C9.16618 16.0727 8.43474 15.504 8.04046 14.3932C7.34854 12.4498 8.05832 10.6407 9.35733 9.43435ZM14.2616 9.76352C12.8949 9.62763 11.5701 10.1098 10.717 10.9003C9.88517 11.6724 9.55091 12.6729 9.92479 13.7235C10.1017 14.2208 10.393 14.4757 10.8755 14.7427L11.1691 14.8959L11.6689 15.145C12.1814 15.4099 12.7916 15.7811 13.2658 16.3708C13.7805 17.0105 13.8819 17.7359 13.8823 18.3331C13.8819 18.527 13.8734 18.7208 13.8569 18.9139L13.7834 19.7261L13.7716 19.9103C13.7482 20.3673 13.7892 20.6525 13.8959 20.8636C13.9881 21.0429 14.1958 21.2966 14.7946 21.5313C15.1763 21.6802 15.6013 21.6486 16.096 21.3804C16.6097 21.1022 17.1529 20.5876 17.6424 19.8785C18.6309 18.4444 19.2166 16.4874 19.0217 14.9101C18.7597 12.7718 18.0136 11.5763 17.1902 10.8785C16.3501 10.1654 15.3041 9.86711 14.2616 9.76352ZM6.02084 6.00734C6.54836 5.95189 7.07631 6.10827 7.48853 6.44209C7.90076 6.7759 8.16349 7.25979 8.21894 7.78732C8.27438 8.31485 8.118 8.8428 7.78419 9.25502C7.45037 9.66724 6.96648 9.92998 6.43895 9.98542C5.91142 10.0409 5.38348 9.88448 4.97125 9.55067C4.55903 9.21686 4.29629 8.73296 4.24085 8.20544C4.1854 7.67791 4.34179 7.14996 4.6756 6.73774C5.00941 6.32551 5.49331 6.06278 6.02084 6.00734ZM19.5514 5.59072C19.8152 5.563 20.0791 5.64119 20.2853 5.8081C20.4914 5.975 20.6227 6.21695 20.6505 6.48072C20.6782 6.74448 20.6 7.00845 20.4331 7.21456C20.2662 7.42068 20.0242 7.55204 19.7605 7.57977C19.4967 7.60749 19.2327 7.5293 19.0266 7.36239C18.8205 7.19548 18.6891 6.95354 18.6614 6.68977C18.6337 6.42601 18.7119 6.16204 18.8788 5.95592C19.0457 5.74981 19.2876 5.61845 19.5514 5.59072ZM10.3394 4.04517C10.5353 4.02458 10.7333 4.04278 10.9222 4.09873C11.1111 4.15467 11.2871 4.24727 11.4402 4.37124C11.5933 4.4952 11.7204 4.64811 11.8144 4.82122C11.9084 4.99433 11.9674 5.18426 11.988 5.38016C12.0086 5.57607 11.9904 5.77411 11.9344 5.96298C11.8785 6.15185 11.7859 6.32785 11.6619 6.48094C11.5379 6.63402 11.385 6.76119 11.2119 6.85518C11.0388 6.94917 10.8489 7.00815 10.653 7.02874C10.2573 7.07032 9.86137 6.95304 9.5522 6.70268C9.24304 6.45232 9.04599 6.0894 9.0044 5.69375C8.96282 5.2981 9.08011 4.90214 9.33047 4.59298C9.58083 4.28381 9.94375 4.08676 10.3394 4.04517ZM15.312 3.52253C15.5079 3.50194 15.7059 3.52014 15.8948 3.57609C16.0837 3.63203 16.2597 3.72463 16.4128 3.8486C16.5659 3.97256 16.693 4.12546 16.787 4.29858C16.881 4.47169 16.94 4.66162 16.9606 4.85752C16.9812 5.05343 16.963 5.25147 16.907 5.44034C16.8511 5.62921 16.7585 5.80521 16.6345 5.9583C16.5105 6.11138 16.3576 6.23855 16.1845 6.33254C16.0114 6.42653 15.8215 6.48551 15.6256 6.5061C15.2299 6.54768 14.834 6.43039 14.5248 6.18003C14.2156 5.92967 14.0186 5.56675 13.977 5.17111C13.9354 4.77546 14.0527 4.3795 14.3031 4.07033C14.5534 3.76117 14.9164 3.56412 15.312 3.52253Z" fill="url(#paint0_linear_7011_357669)"/>
</g>
<defs>
<linearGradient id="paint0_linear_7011_357669" x1="46.7359" y1="271.707" x2="34.4814" y2="272.987" gradientUnits="userSpaceOnUse">
<stop stop-color="#E29E6E"/>
<stop offset="0.385" stop-color="#E5DDA3"/>
<stop offset="0.735" stop-color="#2AEBEB"/>
</linearGradient>
<clipPath id="clip0_7011_357669">
<rect width="24" height="24" fill="white" transform="translate(0.682617 3.04883) rotate(-6)"/>
</clipPath>
</defs>
</svg>
