<svg width="28" height="28" viewBox="0 0 28 28" fill="none" xmlns="http://www.w3.org/2000/svg">
<path fill-rule="evenodd" clip-rule="evenodd" d="M11.8233 26.6514C11.3773 26.6828 10.9832 26.7102 10.6099 26.7362C9.54051 25.5759 8.49534 24.4461 7.45673 23.3103C7.27992 23.1168 7.13645 22.8948 6.96874 22.6933C6.77981 22.4668 6.60704 22.2164 6.38023 22.0334C5.89376 21.6413 5.47599 21.1814 5.02387 20.7614C4.43182 20.2112 3.812 19.6485 3.03405 19.3213C2.79814 19.2225 2.58295 19.0749 2.3819 18.9626C2.34098 18.5022 2.589 18.2249 2.83552 17.9675C3.11487 17.6762 3.34422 17.3694 3.44525 16.9749C3.46849 16.8836 3.52254 16.7878 3.58871 16.721C4.07619 16.2281 4.46164 15.6799 4.77231 15.0524C5.04358 14.5047 5.48408 14.0388 5.85689 13.5266C6.40044 14.0583 6.91519 14.6334 7.4648 15.1736C8.06493 15.7637 8.51655 16.508 8.99191 17.2113C9.33693 17.7236 9.77188 18.182 9.97445 18.7881C10.0391 18.9806 10.2518 19.0609 10.4685 19.0449C10.6882 19.029 10.8423 18.9018 10.912 18.7053C11.1631 17.9979 11.4126 17.2896 11.6435 16.5753C12.0153 15.4235 12.3568 14.2623 13.0746 13.2552C13.2257 13.0432 13.3459 12.8053 13.4535 12.5673C14.292 10.7152 15.3281 8.96937 16.3789 7.231C16.4804 7.0624 16.585 6.89479 16.6703 6.71821C17.0452 5.94555 17.5109 5.25169 18.1616 4.66209C18.542 4.31741 18.7935 3.83506 19.1072 3.41755C19.478 2.92422 19.8443 2.4279 20.2332 1.94854C20.3019 1.86374 20.4686 1.85675 20.6409 1.7959C22.3478 3.45197 24.0548 5.10754 25.794 6.79553C25.3833 7.28138 25.0848 7.8615 24.5084 8.23062C24.3008 8.3638 24.1391 8.60773 24.026 8.83519C23.8012 9.28462 23.486 9.65374 23.1207 9.99044C22.465 10.595 21.8896 11.2539 21.433 12.0301C21.1031 12.5898 20.6343 13.0696 20.2272 13.5849C19.9215 13.971 19.5669 14.3291 19.3189 14.7486C18.7476 15.7139 18.0045 16.5509 17.3477 17.4512C16.3233 18.8549 15.3342 20.2855 14.534 21.8323C13.9925 22.8793 13.457 23.9294 12.8857 24.9604C12.6841 25.323 12.5437 25.7291 12.183 26.0089C12.0173 26.1381 11.9582 26.3995 11.8233 26.6514Z" fill="currentColor"/>
<path fill-rule="evenodd" clip-rule="evenodd" d="M10.5773 16.5633C10.8653 15.6968 11.0986 14.988 11.3371 14.2807C11.4098 14.0652 11.4482 13.8153 11.5856 13.6487C12.2105 12.894 12.3711 11.9293 12.8096 11.0922C13.0521 10.6298 13.238 10.1395 13.4582 9.66613C13.583 9.39927 13.7553 9.15086 13.8553 8.87601C14.1493 8.06494 14.5645 7.33916 15.1884 6.72462C15.3935 6.5226 15.5294 6.24526 15.6708 5.98787C16.1902 5.04261 16.6771 4.0794 17.2212 3.14861C17.4823 2.70117 17.8552 2.31808 18.1572 1.89209C18.5164 1.38529 18.8463 0.857548 19.2049 0.349255C19.5015 -0.0712471 19.6626 -0.0852134 20.1001 0.164693C20.4653 0.3727 20.8725 0.518353 21.2129 0.758284C21.5605 1.0027 21.8191 1.37282 22.1717 1.60677C22.592 1.88561 22.9558 2.18939 23.22 2.61987C23.32 2.78198 23.4801 2.92115 23.6397 3.03288C24.7541 3.81253 25.6361 4.8371 26.6096 5.7649C27.1026 6.23528 27.1698 6.53257 27.2208 7.616C26.7869 7.81403 26.5257 8.23454 26.1873 8.57972C25.6366 9.14238 25.1037 9.70205 24.6996 10.3799C24.5854 10.5715 24.3849 10.7141 24.2171 10.8718C23.5902 11.4589 23.0452 12.1004 22.5946 12.8396C22.2213 13.4516 21.7206 13.9879 21.2766 14.5575C21.216 14.6353 21.1493 14.7087 21.0922 14.789C19.9561 16.3952 18.822 18.0023 17.6844 19.607C16.7736 20.8905 16.0361 22.2847 15.0657 23.5327C14.5256 24.2266 14.1584 25.0317 13.8578 25.8597C13.635 26.4732 13.4097 27.0908 12.9526 27.5796C12.8273 27.7133 12.6338 27.8634 12.4681 27.8679C11.7437 27.8869 11.0284 28.0699 10.2949 27.9707C9.98477 27.9283 9.75137 27.84 9.53314 27.5936C8.57687 26.5116 7.59282 25.4532 6.61989 24.3852C6.44308 24.1912 6.24708 24.0081 6.1021 23.7926C5.78587 23.3232 5.41912 22.9132 4.93063 22.6119C4.79222 22.5266 4.6533 22.4214 4.55631 22.2942C3.86576 21.3838 2.95344 20.7628 1.93908 20.253C1.62234 20.0939 1.33945 19.8495 1.07879 19.6045C0.758519 19.3048 0.688298 18.9082 0.888846 18.5236C1.12981 18.0607 1.42079 17.6237 1.69812 17.1798C1.86988 16.9045 2.05628 16.6386 2.23359 16.3662C2.28663 16.2839 2.3134 16.1797 2.37907 16.1108C2.92212 15.5422 3.36465 14.9062 3.80818 14.2587C4.17644 13.7215 4.60179 13.2202 4.91246 12.6401C5.00389 12.4695 5.12057 12.3034 5.25697 12.1662C5.57219 11.85 5.94903 11.8125 6.33902 12.0455C6.47996 12.1293 6.61888 12.2261 6.73406 12.3408C7.49988 13.1035 8.27934 13.8532 8.97191 14.6847C9.46747 15.2798 9.9782 15.8634 10.5773 16.5633ZM11.8236 26.6508C11.9584 26.3989 12.0175 26.1375 12.1827 26.0093C12.5434 25.729 12.6838 25.3235 12.8854 24.9608C13.4567 23.9298 13.9922 22.8793 14.5337 21.8328C15.3339 20.2859 16.323 18.8553 17.3475 17.4517C18.0042 16.5513 18.7473 15.7148 19.3186 14.7491C19.5666 14.3296 19.9213 13.9714 20.2269 13.5853C20.634 13.0701 21.1028 12.5907 21.4327 12.0305C21.8894 11.2544 22.4647 10.5954 23.1204 9.99086C23.4857 9.65416 23.8004 9.28504 24.0257 8.83561C24.1393 8.60865 24.3005 8.36423 24.5081 8.23104C25.0845 7.86192 25.3831 7.2823 25.7937 6.79595C24.0545 5.10846 22.3475 3.45239 20.6406 1.79632C20.4683 1.85718 20.3016 1.86416 20.2329 1.94896C19.8445 2.42832 19.4777 2.92464 19.1069 3.41797C18.7932 3.83548 18.5417 4.31783 18.1613 4.66251C17.5101 5.25212 17.0449 5.94647 16.6701 6.71863C16.5852 6.89472 16.4806 7.06282 16.3786 7.23142C15.3278 8.96979 14.2918 10.7156 13.4532 12.5677C13.3456 12.8057 13.2254 13.0431 13.0743 13.2556C12.356 14.2627 12.015 15.424 11.6432 16.5757C11.4123 17.2895 11.1633 17.9984 10.9117 18.7057C10.842 18.9022 10.6884 19.0294 10.4682 19.0454C10.252 19.0608 10.0388 18.981 9.97415 18.7885C9.77159 18.1824 9.33664 17.724 8.99161 17.2117C8.51626 16.5079 8.06464 15.7637 7.46451 15.1741C6.9149 14.6338 6.40015 14.0587 5.8566 13.527C5.48379 14.0388 5.04379 14.5051 4.77202 15.0528C4.46084 15.6804 4.07591 16.2286 3.58843 16.7214C3.52226 16.7887 3.46819 16.884 3.44495 16.9753C3.34392 17.3698 3.11459 17.6766 2.83524 17.9679C2.58822 18.2258 2.34018 18.5027 2.3816 18.9631C2.58266 19.0758 2.79734 19.2229 3.03376 19.3217C3.8117 19.6484 4.43153 20.2116 5.02358 20.7618C5.4757 21.1813 5.89297 21.6417 6.37995 22.0338C6.60727 22.2168 6.77952 22.4672 6.96845 22.6937C7.13616 22.8952 7.27963 23.1172 7.45643 23.3107C8.49504 24.4466 9.54022 25.5759 10.6096 26.7366C10.9835 26.7097 11.3775 26.6822 11.8236 26.6508Z" fill="#053B4A"/>
</svg>
