<svg width="24" height="24" viewBox="0 0 24 24" fill="none" xmlns="http://www.w3.org/2000/svg">
<path d="M20.9979 14.5548C20.8964 14.6543 20.7949 14.7537 20.6931 14.8529L20.7056 14.8409C20.4522 15.0496 20.1848 15.2463 20.0941 15.5856L20.1079 15.5896C20.0843 15.5952 20.0528 15.5933 20.0383 15.6079C19.5679 16.0851 19.0992 16.5642 18.6302 17.0427L18.6474 17.0341C18.5909 17.09 18.5341 17.1459 18.4773 17.2021L18.4837 17.1895C17.9438 17.7449 17.3995 18.2966 16.8646 18.8566C16.1776 19.5757 15.5392 20.3406 14.7792 20.9916C14.5622 21.1776 14.3965 21.4221 14.2003 21.6334C14.1398 21.6983 14.0528 21.7379 13.9843 21.7965C13.693 22.0448 13.3365 22.2282 13.1672 22.5985L13.184 22.5911C13.1269 22.6477 13.0697 22.7039 13.0126 22.7605L13.02 22.7455C12.6975 22.9606 12.3659 23.1646 12.1273 23.4794L12.1455 23.4684C12.0904 23.5236 12.0356 23.5789 11.9805 23.6344L11.9909 23.6201C11.8663 23.6964 11.7419 23.7726 11.6264 23.8432C11.2756 23.7692 11.1567 23.489 11.0051 23.2433C10.6084 22.6 10.228 21.9468 9.81645 21.3129C8.71947 19.6235 7.36816 18.1505 5.8717 16.8009C4.90878 15.9325 3.95929 15.0502 3.00578 14.1715C2.61705 13.8132 2.35264 13.3897 2.31803 12.8483C2.31366 12.7802 2.27334 12.7144 2.25285 12.6555C2.40538 12.2713 2.74674 12.169 3.08272 12.1139C3.61492 12.0265 4.1592 12.0138 4.69106 11.925C5.59317 11.7745 6.50502 11.8837 7.40713 11.7863C7.5479 11.7713 7.68499 11.7233 7.81803 11.6916C7.92454 11.3474 7.86709 11.0468 7.79183 10.7332C7.6104 9.97812 7.45921 9.216 7.30029 8.45587C7.27543 8.3375 7.26501 8.21413 7.26467 8.09308C7.26266 7.09142 7.04729 6.11384 6.93373 5.12489C6.91458 4.95663 6.84571 4.77676 6.88401 4.62277C6.99992 4.15812 6.94213 3.70787 6.86217 3.24966C6.77045 2.72395 6.82992 2.1865 6.70997 1.65548C6.61926 1.25448 6.92634 0.993903 7.36748 1.01059C8.34922 1.04756 9.33061 1.10248 10.3127 1.1308C11.5155 1.16564 12.719 1.17986 13.9221 1.20639C14.0938 1.21027 14.2648 1.23677 14.4362 1.24332C14.8128 1.25772 15.1223 1.34665 15.135 1.80391C15.1401 1.98581 15.3668 1.983 15.4213 2.18117C15.5083 2.49871 15.5362 2.80598 15.4747 3.10964C15.2788 4.07451 15.3796 5.04284 15.3961 6.01057C15.4065 6.61381 15.429 7.21705 15.4431 7.8203C15.4643 8.74113 15.4807 9.6623 15.5039 10.5831C15.5133 10.9589 15.5862 11.0433 15.9699 11.096C16.3099 11.1427 16.6526 11.1747 16.9953 11.1984C18.4417 11.299 19.8871 11.4168 21.3399 11.4072C21.8025 11.4043 22.2649 11.5051 22.7295 11.4011C22.7887 11.3877 22.8629 11.4429 22.8972 11.4545C23.0007 11.8931 23.0967 12.3007 23.1992 12.7353C22.7897 13.1423 22.3381 13.4957 21.8257 13.784C21.6215 13.8989 21.4669 14.1009 21.2898 14.2633L21.3066 14.2549C21.2495 14.3115 21.1924 14.3677 21.1353 14.4243L21.1595 14.403C21.103 14.4593 21.0463 14.5151 20.9898 14.5711L20.9979 14.5548ZM9.92127 18.8183L9.95352 18.8386L9.9243 18.832C9.92329 18.8153 9.92194 18.7984 9.92093 18.7817C9.92093 18.794 9.92127 18.8063 9.92127 18.8183ZM10.1148 8.41489L10.1071 8.45347L10.0956 8.39993C10.0862 8.39528 10.0772 8.39063 10.0678 8.38598C10.0836 8.39561 10.099 8.40525 10.1148 8.41489ZM10.4965 19.4142L10.5395 19.4305L10.5012 19.4358L10.4945 19.3787L10.4965 19.4142ZM11.9583 23.0166C11.9563 23.0252 11.9543 23.0339 11.9519 23.0425C11.958 23.0269 11.9644 23.0116 11.9704 22.9959L12.0043 23.0046L11.9583 23.0166ZM12.1418 22.5938L12.1199 22.6217L12.1354 22.5788L12.1693 22.5685L12.1418 22.5938ZM12.1572 17.0561L12.1744 17.0833L12.1482 17.0611L12.1193 17.0305L12.1572 17.0561ZM12.55 22.1323L12.5557 22.1735L12.5449 22.112L12.5933 22.1156L12.55 22.1323ZM13.2018 11.6195C13.1739 11.7269 13.2226 11.7778 13.3281 11.7863C13.3523 11.8512 13.3584 11.935 13.4037 11.9778C14.0021 12.5408 14.6042 13.0998 15.212 13.6525C15.2506 13.6874 15.3423 13.6654 15.4092 13.67C15.4193 13.6879 15.429 13.7062 15.4391 13.7242C15.4236 13.7105 15.4078 13.6969 15.3924 13.6833C15.381 13.519 15.347 13.3527 15.3628 13.1908C15.3894 12.9181 15.3195 12.6172 15.5567 12.3935C15.5627 12.3872 15.5684 12.3809 15.5741 12.3746C15.5657 12.3875 15.5573 12.4005 15.5489 12.4135C15.3595 12.3973 15.1703 12.3811 14.9758 12.3646C14.6425 11.8733 14.543 11.6742 14.589 11.3871C14.7832 10.1755 14.5901 8.96415 14.6324 7.78954C14.1697 7.40107 13.7417 7.03818 13.3103 6.67929C12.7462 6.21041 12.2039 5.71158 11.6082 5.28561C10.8731 4.7603 10.0997 4.28589 9.32692 3.81514C9.16666 3.71746 8.97112 3.52537 8.68318 3.73174C8.79103 3.92089 8.87805 4.1197 9.00539 4.28823C9.28492 4.65752 9.59235 5.00586 9.87558 5.37216C11.1281 6.99292 12.3575 8.63165 13.6359 10.2321C14.0485 10.7483 14.0125 11.2771 13.9856 11.8977C13.7246 11.8589 13.5193 11.8288 13.3143 11.7983C13.271 11.7451 13.2277 11.692 13.1843 11.6384C13.1705 11.6195 13.1591 11.5972 13.1416 11.5829C13.1339 11.5766 13.1131 11.5863 13.098 11.5889C13.1326 11.5992 13.1672 11.6095 13.2018 11.6195ZM13.573 21.4865L13.6154 21.4934L13.5774 21.5004C13.5774 21.409 13.5774 21.3172 13.5774 21.2258C13.5764 21.2321 13.5757 21.2384 13.5747 21.2447C13.5744 21.3252 13.5737 21.4057 13.573 21.4865ZM13.8069 13.9709L13.8039 14.0055L13.7874 13.959C13.7797 13.9536 13.7719 13.9483 13.7642 13.943C13.7783 13.9523 13.7928 13.9616 13.8069 13.9709ZM14.0508 20.837C14.0424 20.843 14.034 20.849 14.0256 20.8547C14.0364 20.8427 14.0468 20.831 14.0575 20.8194L14.0905 20.8161L14.0508 20.837ZM14.0928 3.15306C14.0931 3.17135 14.0905 3.19064 14.0955 3.20726C14.0982 3.21657 14.114 3.22222 14.1241 3.2292C14.1079 3.20693 14.0921 3.18498 14.076 3.16271L14.0508 3.14943L14.0928 3.15306ZM14.2171 13.8356L14.242 13.8742L14.198 13.8549C14.1459 13.8038 14.0938 13.7529 14.0414 13.7017C13.7101 13.1845 13.2263 12.808 12.7808 12.4019C11.3532 11.1008 9.90749 9.81906 8.46782 8.53097C8.39827 8.46883 8.3173 8.41965 8.18022 8.31964C8.26153 8.83638 8.32099 9.28462 8.40633 9.7282C8.45169 9.96362 8.5414 10.1904 8.6227 10.4587C9.07393 10.479 9.45896 10.6946 9.83559 10.9165C11.0391 11.6258 12.1979 12.4003 13.3123 13.2416C13.5418 13.4147 13.8099 13.5376 14.0602 13.6834C14.1123 13.7343 14.1647 13.7848 14.2171 13.8356ZM16.2451 18.9228C16.2421 18.9311 16.239 18.9394 16.2364 18.9478C16.2434 18.9328 16.2508 18.9178 16.2579 18.9029C16.313 18.8636 16.3681 18.8243 16.4232 18.785C16.4668 18.7325 16.5105 18.6799 16.5539 18.6276L16.5992 18.6196L16.5747 18.6492C16.53 18.7008 16.485 18.7524 16.4403 18.804C16.3751 18.8436 16.3099 18.8832 16.2451 18.9228ZM17.5914 17.4634C17.5877 17.479 17.5843 17.4947 17.5806 17.5103C17.5786 17.4883 17.5769 17.4664 17.5749 17.4444C17.6371 17.4062 17.6992 17.3676 17.7617 17.3293L17.797 17.3096L17.7799 17.3476C17.717 17.3858 17.6542 17.4248 17.5914 17.4634ZM21.775 12.9766C21.7535 12.976 21.731 12.9713 21.7105 12.9757C21.6974 12.9783 21.687 12.9943 21.6755 13.0043C21.7021 12.9883 21.729 12.9723 21.7558 12.9567C21.7948 12.8958 21.8341 12.8349 21.8731 12.7737L21.9141 12.7634L21.8916 12.7937C21.8526 12.8549 21.814 12.9157 21.775 12.9766ZM13.1561 2.60459C13.1937 2.62486 13.2293 2.6541 13.2693 2.66239C13.2912 2.6667 13.3204 2.63575 13.3463 2.62044C13.3254 2.61646 13.3043 2.60816 13.2834 2.60951C13.2408 2.61219 13.1984 2.61986 13.1561 2.62554L13.1541 2.57234L13.1561 2.60459ZM20.4496 13.4101C20.3249 13.4424 20.2006 13.4751 20.0759 13.5074C19.8666 13.4414 19.6573 13.375 19.3714 13.2847C19.4887 13.5241 19.5767 13.669 19.6318 13.8256C19.6912 13.9945 19.7205 14.1741 19.7712 14.3846C19.9772 14.17 20.2181 14.0331 20.248 13.7591C20.173 13.6557 20.1169 13.5776 20.0605 13.4998C20.1838 13.4645 20.3071 13.4295 20.4304 13.3942C20.507 13.3529 20.5846 13.3136 20.6585 13.2683C20.6696 13.2613 20.6716 13.2114 20.6646 13.2081C20.6293 13.1908 20.5601 13.1666 20.5561 13.1736C20.5151 13.2494 20.4838 13.3306 20.4496 13.4101ZM8.91837 17.1642C7.72765 15.818 6.5366 14.4719 5.32371 13.1009C4.75355 13.1658 4.12863 13.0524 3.58636 13.4229C3.76611 13.761 3.76342 13.764 4.0779 13.9637C4.57045 13.811 4.58892 13.7844 4.95313 14.0356C5.49372 14.4087 6.02289 14.8028 6.52417 15.2258C7.15648 15.7595 7.75554 16.3321 8.37039 16.8868C8.52863 17.0294 8.66033 17.2335 8.92912 17.1439C8.93618 17.2316 8.94323 17.3194 8.95029 17.4072C8.97011 17.4039 8.98993 17.4006 9.00976 17.3972C8.97918 17.3201 8.94861 17.242 8.91837 17.1642ZM12.5268 16.9494C12.5268 16.8576 12.5604 16.7452 12.5194 16.6777C12.4317 16.5344 12.3017 16.4168 12.1949 16.2845C11.077 14.9008 9.96058 13.5164 8.8542 12.1453C8.47353 12.2114 8.81757 12.6085 8.54173 12.7238C8.33309 12.811 8.13822 12.9309 7.88826 13.0617C8.24339 13.3415 8.55517 13.5738 8.85185 13.823C10.0859 14.8598 11.3156 15.9016 12.5466 16.9417C12.5399 16.9437 12.5335 16.9464 12.5268 16.9494ZM12.7324 5.06211C12.133 4.14928 11.5336 3.23678 10.9181 2.30002C10.0043 2.25004 9.09913 2.19972 8.19366 2.1514C8.12042 2.14745 8.04549 2.14917 7.97325 2.16085C7.7505 2.19624 7.57411 2.40752 7.62484 2.63462C7.83819 3.58992 7.771 4.56568 7.84827 5.53037C7.88153 5.94405 7.94806 6.34241 8.05994 6.74573C8.38887 6.93342 8.71779 7.0985 9.02152 7.30084C9.32625 7.50384 9.6041 7.74576 9.89641 7.96706C10.188 8.18836 10.485 8.40302 10.776 8.62532C11.0666 8.84728 11.3398 9.09486 11.6449 9.29487C11.9341 9.48458 12.124 9.82866 12.6303 9.9341C11.6707 8.69925 10.7918 7.56512 9.90918 6.43331C9.44452 5.83733 8.96708 5.25067 8.50746 4.6507C8.12747 4.15476 7.91177 3.59952 7.92588 2.96367C7.93462 2.57424 8.17821 2.35693 8.53636 2.48142C8.83606 2.58532 9.12768 2.72015 9.40924 2.8673C10.4323 3.40175 11.3781 4.04965 12.259 4.79236C12.3995 4.91066 12.51 5.10713 12.7499 5.04679C12.7627 5.07771 12.7751 5.1083 12.7879 5.13922C12.7895 5.12393 12.7979 5.10164 12.7912 5.09499C12.7758 5.08004 12.7526 5.07274 12.7324 5.06211ZM14.2262 14.8762C14.2336 14.8696 14.241 14.8626 14.2484 14.8559C14.2369 14.8686 14.2259 14.8815 14.2144 14.8942C14.0649 14.8151 13.9047 14.751 13.7679 14.6544C13.3086 14.3294 12.8658 13.9808 12.4015 13.6632C11.6559 13.1528 10.9648 12.5603 10.1333 12.1784C10.0452 12.1379 9.96495 12.0754 9.85475 12.2384C11.8021 14.3945 13.5505 16.7273 15.2755 19.0747C15.7771 18.7395 16.8156 17.6252 17.1452 17.0756C17.0562 16.9775 16.9614 16.8735 16.867 16.7691L16.8872 16.7402L16.8704 16.7834C16.8237 16.7688 16.7692 16.7652 16.7316 16.7383C15.9011 16.1429 15.0722 15.5448 14.2443 14.9454C14.2292 14.9344 14.2319 14.8998 14.2262 14.8762ZM9.21067 18.7981C9.28492 18.973 9.3323 19.1659 9.43813 19.3195C10.103 20.2825 10.781 21.2361 11.3401 22.2664C11.3932 22.3644 11.494 22.4372 11.5998 22.5509C12.6659 21.7481 13.5636 20.825 14.5225 19.9272C14.4056 19.7839 14.329 19.6593 14.2238 19.5659C12.8876 18.3815 11.5693 17.1758 10.2008 16.0287C9.22714 15.2125 8.18728 14.4732 7.16926 13.7097C7.07149 13.6362 6.95927 13.4767 6.75566 13.6284C6.91223 13.8099 7.06577 13.9897 7.22133 14.1682C8.21516 15.3086 9.22378 16.4367 10.1988 17.5927C10.8439 18.3575 11.4473 19.1576 12.0551 19.9523C12.1838 20.1202 12.3104 20.3273 12.3326 20.5278C12.3605 20.7782 12.2795 21.0403 12.2368 21.3623C12.0615 21.2762 11.9207 21.2391 11.8219 21.1537C11.2659 20.6745 10.7196 20.1846 10.1712 19.6968C9.84332 19.405 9.5181 19.1102 9.19152 18.8168C9.17707 18.8055 9.16296 18.7942 9.14852 18.7829C9.16935 18.7879 9.19018 18.7932 9.21067 18.7981ZM14.4936 6.15047C14.5141 6.00746 14.5474 5.87574 14.5487 5.74371C14.5531 5.33101 14.5259 4.91733 14.5481 4.50561C14.5672 4.14711 14.4201 3.90809 14.1308 3.71738C13.6009 3.36819 13.0839 3.00037 12.55 2.65751C12.3682 2.54056 12.1539 2.47153 11.9506 2.39018C11.9187 2.37723 11.8666 2.41384 11.8108 2.4315C11.8296 2.49866 11.832 2.57748 11.87 2.63133C12.683 3.78413 13.4998 4.93426 14.3193 6.08273C14.3418 6.11298 14.4029 6.11627 14.4936 6.15047ZM17.6098 16.6583C18.0513 16.1399 18.6437 15.8392 18.9437 15.1872C18.1296 14.7614 17.3955 14.2391 16.5754 13.8601C16.5478 13.8475 16.4947 13.8884 16.4161 13.9188C16.4776 14.07 16.5411 14.22 16.5996 14.3719C16.6426 14.4836 16.7387 14.6189 16.7071 14.7071C16.5801 15.06 16.7964 15.2833 17.0051 15.4698C17.3317 15.7615 17.5013 16.0986 17.5067 16.5273C17.5067 16.5459 17.5339 16.5639 17.6098 16.6583ZM18.6679 13.909C18.7075 13.8734 18.7468 13.8382 18.7865 13.8029C18.5294 13.3707 18.2724 12.9386 18.0382 12.545C17.1912 12.3203 16.6271 12.2944 16.1893 12.467C17.0091 12.9972 17.84 13.4506 18.6679 13.909ZM13.5468 2.40116C13.9184 2.71752 14.1815 2.9415 14.4597 3.17844C14.6982 2.92788 14.6593 2.68514 14.5931 2.40051C14.2863 2.4007 14.0038 2.40088 13.5468 2.40116ZM3.5363 13.0252C4.24152 13.0224 4.63462 12.953 5.24039 12.6942C4.59329 12.7389 4.07252 12.7505 3.56788 12.9084C3.54671 12.9148 3.54604 12.9846 3.5363 13.0252ZM20.4529 12.6861C20.5463 12.9252 20.7157 13.0504 20.9461 13.0044C21.0412 12.9854 21.1084 12.8321 21.2055 12.7199C20.9203 12.6047 20.6955 12.5759 20.4529 12.6861ZM16.8465 12.0196C16.8462 12.0096 16.8458 11.9993 16.8458 11.9893C16.7155 11.9894 16.5854 11.9895 16.4551 11.9896C16.4554 11.9996 16.4558 12.0099 16.4561 12.0198C16.5861 12.0198 16.7161 12.0197 16.8465 12.0196ZM3.44558 12.5593C3.44659 12.574 3.44793 12.5886 3.44894 12.6032C3.5326 12.6032 3.61626 12.6031 3.69992 12.6031C3.69891 12.5824 3.69824 12.5615 3.69757 12.5409C3.61357 12.5469 3.52958 12.553 3.44558 12.5593ZM4.78413 12.4714C4.7848 12.4614 4.78547 12.4514 4.78615 12.4414C4.72769 12.4375 4.66922 12.4335 4.6111 12.4296C4.61042 12.4396 4.60975 12.4495 4.60908 12.4598C4.66754 12.4638 4.72601 12.4674 4.78413 12.4714ZM13.3442 2.05809L13.2945 2.07109L13.3442 2.08403L13.3442 2.05809ZM9.76773 1.93992L9.77142 1.91298L9.72304 1.92033L9.76773 1.93992ZM19.1201 14.9217C19.1026 14.9171 19.0855 14.9128 19.068 14.9081C19.0794 14.9234 19.0905 14.9384 19.1019 14.9537C19.108 14.943 19.114 14.9324 19.1201 14.9217ZM21.6144 12.298L21.5603 12.2668L21.5506 12.3083L21.6144 12.298ZM14.4328 3.49937L14.4076 3.5383L14.4476 3.54327L14.4328 3.49937ZM13.6708 2.93716L13.7101 2.96474L13.7172 2.9235L13.6708 2.93716ZM9.44149 10.9866L9.39983 10.9614L9.39513 11.0019L9.44149 10.9866Z" fill="#7AC1C6"/>
</svg>
