<svg width="28" height="28" viewBox="0 0 28 28" fill="none" xmlns="http://www.w3.org/2000/svg">
<path fill-rule="evenodd" clip-rule="evenodd" d="M13.3263 3.18765C13.7364 2.17298 14.5022 1.34255 15.4805 0.851797C16.4587 0.361048 17.5823 0.243616 18.6408 0.521482C19.6994 0.799348 20.6204 1.45347 21.2315 2.3614C21.8426 3.26934 22.1019 4.36885 21.9608 5.45415C21.8197 6.53944 21.2879 7.53613 20.465 8.25764C19.6421 8.97915 18.5844 9.37604 17.49 9.37402C16.3956 9.372 15.3394 8.9712 14.5191 8.24665C13.6989 7.5221 13.1708 6.52346 13.0338 5.43765H6.25C5.35489 5.43765 4.49645 5.79323 3.86351 6.42616C3.23058 7.0591 2.875 7.91754 2.875 8.81265C2.875 9.70775 3.23058 10.5662 3.86351 11.1991C4.49645 11.8321 5.35489 12.1876 6.25 12.1876H22C23.4918 12.1876 24.9226 12.7803 25.9775 13.8352C27.0324 14.8901 27.625 16.3208 27.625 17.8126C27.625 19.3045 27.0324 20.7352 25.9775 21.7901C24.9226 22.845 23.4918 23.4376 22 23.4376H9.59125C9.45417 24.5235 8.92609 25.5221 8.10585 26.2467C7.28561 26.9712 6.22943 27.372 5.135 27.374C4.04058 27.376 2.98292 26.9792 2.16001 26.2576C1.33709 25.5361 0.805324 24.5394 0.664235 23.4541C0.523147 22.3689 0.78241 21.2693 1.3935 20.3614C2.00458 19.4535 2.92561 18.7993 3.98417 18.5215C5.04274 18.2436 6.16629 18.361 7.14452 18.8518C8.12275 19.3425 8.88861 20.173 9.29875 21.1876H22C22.8951 21.1876 23.7536 20.8321 24.3865 20.1991C25.0194 19.5662 25.375 18.7078 25.375 17.8126C25.375 16.9175 25.0194 16.0591 24.3865 15.4262C23.7536 14.7932 22.8951 14.4376 22 14.4376H6.25C4.75816 14.4376 3.32742 13.845 2.27252 12.7901C1.21763 11.7352 0.625 10.3045 0.625 8.81265C0.625 7.32081 1.21763 5.89006 2.27252 4.83517C3.32742 3.78028 4.75816 3.18765 6.25 3.18765H13.3263Z" fill="url(#paint0_linear_3149_76710)"/>
<defs>
<linearGradient id="paint0_linear_3149_76710" x1="24.7104" y1="364.874" x2="4.54847" y2="364.859" gradientUnits="userSpaceOnUse">
<stop stop-color="#E29E6E"/>
<stop offset="0.385" stop-color="#E5DDA3"/>
<stop offset="0.735" stop-color="#2AEBEB"/>
</linearGradient>
</defs>
</svg>
