<svg width="24" height="25" viewBox="0 0 24 25" fill="none" xmlns="http://www.w3.org/2000/svg">
<path d="M9.53118 19.5199L9.25825 18.8213L9.53118 19.5199ZM5.47478 20.2988L5.09978 20.9483L5.09978 20.9483L5.47478 20.2988ZM4.12116 16.3964L3.37971 16.5093L4.12116 16.3964ZM4.61146 13.7941L5.26098 14.1691L4.61146 13.7941ZM4.02731 15.0314L3.29028 14.8925H3.29028L4.02731 15.0314ZM11.5397 17.7941L12.1892 18.1691L11.5397 17.7941ZM10.7602 18.9186L11.249 19.4875H11.249L10.7602 18.9186ZM8.4099 7.21503L7.76038 6.84003L8.4099 7.21503ZM19.4099 21.5009C19.8241 21.5009 20.1599 21.1651 20.1599 20.7509C20.1599 20.3367 19.8241 20.0009 19.4099 20.0009V21.5009ZM13.4099 20.0009C12.9957 20.0009 12.6599 20.3367 12.6599 20.7509C12.6599 21.1651 12.9957 21.5009 13.4099 21.5009V20.0009ZM14.6886 10.84L10.8901 17.4191L12.1892 18.1691L15.9876 11.59L14.6886 10.84ZM5.26098 14.1691L9.05942 7.59003L7.76038 6.84003L3.96194 13.4191L5.26098 14.1691ZM9.25825 18.8213C8.16178 19.2497 7.41502 19.5394 6.83854 19.6741C6.28167 19.8042 6.02898 19.7527 5.84978 19.6493L5.09978 20.9483C5.75305 21.3255 6.45392 21.3044 7.17981 21.1348C7.88609 20.9698 8.75129 20.6298 9.80411 20.2184L9.25825 18.8213ZM3.37971 16.5093C3.5499 17.6267 3.68805 18.546 3.89829 19.2402C4.11436 19.9536 4.44651 20.5712 5.09978 20.9483L5.84978 19.6493C5.67059 19.5458 5.49965 19.3527 5.33389 18.8054C5.16229 18.2388 5.03986 17.4472 4.86261 16.2835L3.37971 16.5093ZM3.96194 13.4191C3.64012 13.9765 3.38246 14.4033 3.29028 14.8925L4.76434 15.1702C4.7983 14.99 4.88802 14.8151 5.26098 14.1691L3.96194 13.4191ZM4.86261 16.2835C4.7503 15.546 4.73039 15.3505 4.76434 15.1702L3.29028 14.8925C3.1981 15.3817 3.2828 15.873 3.37971 16.5093L4.86261 16.2835ZM10.8901 17.4191C10.5172 18.0651 10.4105 18.2303 10.2715 18.3498L11.249 19.4875C11.6266 19.1631 11.8674 18.7265 12.1892 18.1691L10.8901 17.4191ZM9.80411 20.2184C10.4036 19.9842 10.8714 19.8119 11.249 19.4875L10.2715 18.3498C10.1324 18.4693 9.95303 18.5498 9.25825 18.8213L9.80411 20.2184ZM13.499 6.40045C14.3339 6.88245 14.8939 7.20761 15.2797 7.50537C15.6483 7.78983 15.7658 7.98144 15.8135 8.15945L17.2623 7.77123C17.0956 7.14904 16.6976 6.70485 16.1961 6.31785C15.7119 5.94416 15.0471 5.56221 14.249 5.10141L13.499 6.40045ZM15.9876 11.59C16.4484 10.7919 16.8331 10.1287 17.0657 9.56299C17.3065 8.97711 17.4291 8.39341 17.2623 7.77123L15.8135 8.15945C15.8612 8.33747 15.8553 8.56212 15.6783 8.99278C15.493 9.44357 15.1706 10.0052 14.6886 10.84L15.9876 11.59ZM14.249 5.10141C13.4509 4.6406 12.7877 4.2559 12.222 4.02337C11.6361 3.78257 11.0524 3.65997 10.4302 3.82668L10.8184 5.27557C10.9964 5.22787 11.2211 5.23376 11.6518 5.41076C12.1025 5.59604 12.6641 5.91844 13.499 6.40045L14.249 5.10141ZM9.05942 7.59003C9.54142 6.75517 9.86658 6.19516 10.1643 5.80931C10.4488 5.4407 10.6404 5.32327 10.8184 5.27557L10.4302 3.82668C9.80801 3.99339 9.36382 4.39142 8.97683 4.89291C8.60313 5.37716 8.22118 6.04189 7.76038 6.84003L9.05942 7.59003ZM15.7131 10.5655L8.7849 6.56551L8.0349 7.86455L14.9631 11.8645L15.7131 10.5655ZM19.4099 20.0009H13.4099V21.5009H19.4099V20.0009Z" fill="currentColor"/>
</svg>
