<svg width="20" height="20" viewBox="0 0 20 20" fill="none" xmlns="http://www.w3.org/2000/svg">
<path fill-rule="evenodd" clip-rule="evenodd" d="M6.86056 3.47954L8.75055 2.80449C9.22537 2.63446 9.60085 2.5 10.0002 2.5C10.3995 2.5 10.775 2.63446 11.2498 2.80449L13.1398 3.47954C14.9294 4.11868 16.336 4.62101 17.2903 5.11466C17.5209 5.23394 17.7432 5.36173 17.9471 5.50169C18.2008 5.67595 18.4259 5.86907 18.6024 6.08811C18.8511 6.39688 19.0034 6.75714 19.0034 7.18869C19.0034 7.22192 19.0024 7.25474 19.0006 7.28716C18.9754 7.74594 18.7742 8.12176 18.4694 8.44026C18.3645 8.55039 18.2478 8.65306 18.1228 8.74904C17.7046 9.07014 17.1383 9.36056 16.4585 9.65143L16.4585 11.4903C16.4587 12.9122 16.4589 13.7799 16.224 14.5028C15.75 15.9615 14.6063 17.1052 13.1475 17.5792C12.4246 17.8141 11.5569 17.814 10.135 17.8138H9.8653C8.4434 17.814 7.57572 17.8141 6.85278 17.5792C5.39402 17.1052 4.25033 15.9615 3.77635 14.5028C3.54145 13.7799 3.54159 12.9122 3.54181 11.4903L3.54182 9.65037C3.23505 9.51907 2.95743 9.39059 2.71017 9.26268C2.56669 9.18846 2.4264 9.11095 2.29177 9.02926V13.022C2.29177 13.3672 2.01195 13.647 1.66677 13.647C1.3216 13.647 0.99707 13.3769 0.99707 13.0317V7.18865C0.99707 6.20507 1.78776 5.59178 2.71012 5.11466C3.66443 4.62101 5.07095 4.11868 6.86056 3.47954ZM2.47903 7.62149C2.51033 7.65161 2.54567 7.68291 2.58556 7.71544C2.74049 7.84178 2.96388 7.98657 3.28444 8.15239C4.15449 8.60245 5.48034 9.07748 7.33311 9.73919L9.08927 10.3664C9.68515 10.5792 9.84478 10.6273 10.0002 10.6273C10.1556 10.6273 10.3152 10.5792 10.9111 10.3664L12.6673 9.73919C14.5201 9.07748 15.8459 8.60245 16.716 8.15239C17.6272 7.68101 17.7533 7.3796 17.7533 7.18865C17.7533 7.10398 17.7285 6.9976 17.6215 6.86432C17.5324 6.75336 17.3863 6.62376 17.1501 6.47253C17.0301 6.39571 16.8868 6.31333 16.716 6.22496C15.846 5.77489 14.5201 5.29986 12.6673 4.63815L10.9112 4.01094C10.3153 3.79812 10.1557 3.75004 10.0002 3.75004C9.84483 3.75004 9.6852 3.79812 9.08932 4.01094L7.33316 4.63815C5.48039 5.29986 4.15454 5.77489 3.28449 6.22496C2.37324 6.69633 2.24712 6.99774 2.24712 7.18869L2.24712 7.18984L2.24863 7.22434C2.25736 7.32605 2.30711 7.456 2.47903 7.62149ZM4.79182 11.3554V10.1472C5.40869 10.3793 6.10004 10.6262 6.86059 10.8978L8.7506 11.5729C9.22542 11.7429 9.6009 11.8773 10.0002 11.8773C10.3996 11.8773 10.7751 11.7429 11.2499 11.5729L13.1662 10.8884C13.9197 10.6193 14.6023 10.3755 15.2085 10.1478V11.3554C15.2085 12.9551 15.2008 13.6068 15.0351 14.1165C14.6848 15.1947 13.8395 16.0401 12.7613 16.3904C12.2515 16.556 11.5999 16.5637 10.0002 16.5637C8.40044 16.5637 7.74881 16.556 7.23906 16.3904C6.16084 16.0401 5.3155 15.1947 4.96517 14.1165C4.79954 13.6068 4.79182 12.9551 4.79182 11.3554Z" fill="url(#paint0_linear_7015_1706)"/>
<defs>
<linearGradient id="paint0_linear_7015_1706" x1="17.0596" y1="209.236" x2="3.61364" y2="209.224" gradientUnits="userSpaceOnUse">
<stop stop-color="#E29E6E"/>
<stop offset="0.385" stop-color="#E5DDA3"/>
<stop offset="0.735" stop-color="#2AEBEB"/>
</linearGradient>
</defs>
</svg>
