<svg width="36" height="36" viewBox="0 0 36 36" fill="none" xmlns="http://www.w3.org/2000/svg">
<path d="M18 22.5C20.4853 22.5 22.5 20.4853 22.5 18C22.5 15.5147 20.4853 13.5 18 13.5C15.5147 13.5 13.5 15.5147 13.5 18C13.5 20.4853 15.5147 22.5 18 22.5Z" stroke="url(#paint0_linear_7015_58579)" stroke-width="2" stroke-miterlimit="10" stroke-linecap="round" stroke-linejoin="round"/>
<path d="M3.375 12.375V6.75C3.375 5.5125 4.3875 4.5 5.625 4.5H11.25" stroke="url(#paint1_linear_7015_58579)" stroke-width="2" stroke-miterlimit="10" stroke-linecap="round" stroke-linejoin="round"/>
<path d="M11.25 31.5H5.625C4.3875 31.5 3.375 30.4875 3.375 29.25V23.625" stroke="url(#paint2_linear_7015_58579)" stroke-width="2" stroke-miterlimit="10" stroke-linecap="round" stroke-linejoin="round"/>
<path d="M32.625 23.625V29.25C32.625 30.4875 31.6125 31.5 30.375 31.5H24.75" stroke="url(#paint3_linear_7015_58579)" stroke-width="2" stroke-miterlimit="10" stroke-linecap="round" stroke-linejoin="round"/>
<path d="M24.75 4.5H30.375C31.6125 4.5 32.625 5.5125 32.625 6.75V12.375" stroke="url(#paint4_linear_7015_58579)" stroke-width="2" stroke-miterlimit="10" stroke-linecap="round" stroke-linejoin="round"/>
<defs>
<linearGradient id="paint0_linear_7015_58579" x1="21.5285" y1="135" x2="14.8078" y2="134.995" gradientUnits="userSpaceOnUse">
<stop stop-color="#E29E6E"/>
<stop offset="0.385" stop-color="#E5DDA3"/>
<stop offset="0.735" stop-color="#2AEBEB"/>
</linearGradient>
<linearGradient id="paint1_linear_7015_58579" x1="10.3999" y1="110.812" x2="4.51935" y2="110.808" gradientUnits="userSpaceOnUse">
<stop stop-color="#E29E6E"/>
<stop offset="0.385" stop-color="#E5DDA3"/>
<stop offset="0.735" stop-color="#2AEBEB"/>
</linearGradient>
<linearGradient id="paint2_linear_7015_58579" x1="10.3999" y1="129.937" x2="4.51935" y2="129.933" gradientUnits="userSpaceOnUse">
<stop stop-color="#E29E6E"/>
<stop offset="0.385" stop-color="#E5DDA3"/>
<stop offset="0.735" stop-color="#2AEBEB"/>
</linearGradient>
<linearGradient id="paint3_linear_7015_58579" x1="31.7749" y1="129.937" x2="25.8943" y2="129.933" gradientUnits="userSpaceOnUse">
<stop stop-color="#E29E6E"/>
<stop offset="0.385" stop-color="#E5DDA3"/>
<stop offset="0.735" stop-color="#2AEBEB"/>
</linearGradient>
<linearGradient id="paint4_linear_7015_58579" x1="31.7749" y1="110.812" x2="25.8943" y2="110.808" gradientUnits="userSpaceOnUse">
<stop stop-color="#E29E6E"/>
<stop offset="0.385" stop-color="#E5DDA3"/>
<stop offset="0.735" stop-color="#2AEBEB"/>
</linearGradient>
</defs>
</svg>
