<svg width="60" height="60" viewBox="0 0 60 60" fill="none" xmlns="http://www.w3.org/2000/svg">
<path d="M56.5713 4.86035H56.5723C56.8342 4.86664 57.0547 4.93649 57.2422 5.05664L57.3779 5.14355L57.5391 5.16699C58.1478 5.25552 58.6931 5.67545 58.7529 6.41504C59.5197 15.9215 59.2391 25.5914 58.9648 34.9893C58.8852 37.7171 58.8061 40.4491 58.751 43.1816V43.1826C58.7491 43.2839 58.7347 43.3892 58.6992 43.5205L58.6631 43.6553L58.6777 43.7949C58.7213 44.2098 58.594 44.6274 58.3613 44.9092L58.3604 44.9102C58.1418 45.1758 57.8326 45.3379 57.4238 45.3613H57.4229C48.9416 45.8525 40.6453 48.0907 32.708 50.2285C23.6642 52.6651 14.4233 55.1504 4.90234 55.1504L3.78711 55.1387C3.41621 55.1312 3.04709 55.1203 2.68262 55.1055H2.68164C2.26041 55.0884 1.92894 54.9087 1.70898 54.6143L1.62012 54.4951L1.49121 54.418L1.36719 54.334C1.09294 54.1204 0.928524 53.7922 0.927734 53.3682C0.924458 51.4584 0.912887 49.533 0.896484 47.6162L0.838867 41.916C0.751164 33.8099 0.660038 25.447 0.927734 17.2217C0.9439 16.7283 1.18009 16.3549 1.56543 16.1445L1.6377 16.1045L1.7002 16.0498C2.01372 15.775 2.37933 15.6624 2.83203 15.7432H2.83398C4.75515 16.0829 6.73592 16.2549 8.72266 16.2549H8.72559C16.9354 16.2542 24.7468 13.3272 32.1523 10.5596C40.0288 7.61628 48.0273 4.64562 56.5713 4.86035ZM55.5098 7.4668C47.8865 7.49708 41.0179 9.8471 34.0488 12.5586L31.0547 13.7363L29.124 14.498C21.5461 17.4748 15.1628 18.8447 9.0127 18.8447C7.44402 18.8447 5.86692 18.7521 4.31934 18.5693L3.50293 18.4727L3.48145 19.2949C3.28755 26.892 3.36852 34.6101 3.44629 42.0615C3.48037 45.3048 3.51354 48.5461 3.52637 51.7871L3.5293 52.5264L4.26855 52.5342C14.1127 52.6401 23.7354 50.0583 32.9043 47.5928C40.2736 45.611 47.8165 43.5838 55.4854 42.8994L56.1533 42.8398L56.168 42.1689C56.22 39.8561 56.2861 37.5422 56.3525 35.2266C56.6051 26.384 56.868 17.1995 56.2607 8.16602L56.2139 7.46387L55.5098 7.4668Z" fill="currentColor"  stroke-width="1.5"/>
<path d="M11.0776 43.5898C11.1766 43.6128 11.2646 43.6678 11.3345 43.7871C11.3808 43.8664 11.4088 44.0098 11.3735 44.1602C11.3481 44.2687 11.3037 44.3293 11.2651 44.3613L11.23 44.3848C10.5059 44.7291 9.73982 44.9177 8.86865 45.0918H8.8667C8.69582 45.1261 8.54716 45.0978 8.44482 45.043C8.37511 45.0056 8.31661 44.9524 8.27686 44.873L8.24365 44.7842C8.21802 44.6906 8.22917 44.5472 8.30029 44.415C8.36874 44.2879 8.45198 44.2418 8.5083 44.2305L8.50732 44.2295C8.8655 44.1581 9.26865 44.083 9.66455 43.9785L9.66357 43.9775C9.88851 43.9185 10.174 43.8387 10.4165 43.748L10.6411 43.6543C10.8095 43.5743 10.9659 43.564 11.0776 43.5898Z" stroke="currentColor" stroke-width="1.64647"/>
<path d="M17.7666 40.6777C17.8801 40.7113 17.9726 40.7752 18.0312 40.8379L18.0781 40.8994C18.1489 41.0208 18.1511 41.1204 18.123 41.2139C18.0904 41.3229 18.0029 41.4579 17.8438 41.5732C17.1714 42.0604 16.379 42.3631 15.4668 42.7285H15.4658C15.4434 42.7374 15.3662 42.7534 15.2334 42.6719C15.129 42.6077 15.0546 42.5198 15.0146 42.4453L14.9863 42.377C14.9479 42.236 14.9734 42.1424 15.0225 42.0635C15.0816 41.9683 15.2023 41.8568 15.3955 41.7793C16.0662 41.511 16.8194 41.191 17.5127 40.6895H17.5137C17.5433 40.668 17.6213 40.6349 17.7666 40.6777Z" stroke="currentColor" stroke-width="1.64647"/>
<path d="M22.8843 35.8711C22.9853 35.8419 23.0918 35.8476 23.2085 35.916C23.2923 35.9652 23.3848 36.0766 23.4263 36.2207C23.4659 36.3589 23.4389 36.4493 23.4067 36.4961L23.4058 36.4971C23.0221 37.0564 22.5501 37.5529 22.0181 38.085L22.0171 38.0859C21.8448 38.2585 21.5392 38.2585 21.3657 38.085L21.3091 38.0146C21.1956 37.8386 21.2142 37.5862 21.3667 37.4336L21.3657 37.4326C21.5949 37.2033 21.8541 36.9497 22.0972 36.6807L22.0991 36.6787C22.1912 36.5761 22.2892 36.4653 22.3853 36.3486L22.4028 36.3271L22.4194 36.3047C22.4287 36.2918 22.4492 36.2645 22.4761 36.2285C22.4878 36.2128 22.5007 36.1949 22.5112 36.1807C22.5164 36.1737 22.5223 36.1658 22.5278 36.1582C22.5297 36.1556 22.5366 36.1456 22.5454 36.1328C22.6454 35.9877 22.7727 35.9034 22.8843 35.8711Z" stroke="currentColor" stroke-width="1.64647"/>
<path d="M23.2969 29.9131C23.5422 29.9131 23.7578 30.1294 23.7578 30.374V31.6582C23.7576 31.9031 23.542 32.1191 23.2969 32.1191C23.0518 32.1191 22.8361 31.9031 22.8359 31.6582V30.374C22.8359 30.1294 23.0516 29.9131 23.2969 29.9131Z" stroke="currentColor" stroke-width="1.64647"/>
<path d="M23.5684 21.3984C23.7383 21.3342 23.7995 21.3734 23.8193 21.3857C23.8649 21.4141 23.9402 21.493 23.9814 21.6445C24.0219 21.7934 24.0108 21.9498 23.96 22.0703C23.9157 22.1752 23.8349 22.273 23.6689 22.3359C23.4737 22.4096 23.1444 22.5382 22.8438 22.7227C22.5851 22.8814 22.123 23.2142 22.0029 23.7822V23.7832C21.8914 24.3134 22.1077 24.8029 22.2607 25.0889C22.4291 25.4035 22.651 25.7013 22.7754 25.874C22.7978 25.9052 22.8297 25.9845 22.7871 26.1289C22.7537 26.2418 22.6906 26.334 22.6279 26.3926L22.5664 26.4395C22.4451 26.5103 22.3445 26.5125 22.25 26.4844C22.1407 26.4518 22.0066 26.3652 21.8936 26.208V26.207C21.2116 25.2596 20.8793 24.2695 21.165 23.3604C21.42 22.5486 22.1567 22.0009 23.1348 21.5742L23.5684 21.3984Z" stroke="currentColor" stroke-width="1.64647"/>
<path d="M28.5127 19.6455C28.5828 19.6223 28.6866 19.6246 28.8066 19.6953C28.8999 19.7504 28.9688 19.828 29.0088 19.9043L29.0391 19.9795C29.0985 20.1966 28.9883 20.4555 28.6758 20.5596H28.6748L27.2305 21.041H27.2295C27.1604 21.064 27.0566 21.0611 26.9365 20.9902C26.8126 20.917 26.732 20.8046 26.7051 20.707C26.6453 20.4899 26.7555 20.2302 27.0684 20.126L28.5127 19.6445V19.6455Z" stroke="currentColor" stroke-width="1.64647"/>
<path d="M33.2393 18.6768C34.1454 18.6886 35.0482 18.8374 35.8652 19.1494C36.0475 19.2192 36.1662 19.3261 36.2256 19.4229C36.2767 19.5062 36.3004 19.6047 36.2627 19.7422C36.2389 19.8285 36.1545 19.9522 36.0195 20.0342C35.8905 20.1125 35.8056 20.1025 35.7695 20.0889H35.7705C34.963 19.7799 34.138 19.6103 33.2607 19.5986C33.0805 19.5963 32.9964 19.5344 32.9463 19.4756C32.8821 19.4001 32.8312 19.2738 32.8311 19.1211C32.831 18.9681 32.8817 18.8497 32.9395 18.7832C32.9818 18.7345 33.0581 18.6744 33.2393 18.6768Z" stroke="currentColor" stroke-width="1.64647"/>
<path d="M38.6255 22.2246C38.706 22.2493 38.8044 22.3064 38.9019 22.4043L38.9985 22.5156C39.4411 23.1061 39.8661 23.6639 40.2573 24.2461L40.2583 24.2471C40.2942 24.3008 40.3194 24.3963 40.2808 24.5322C40.2405 24.6735 40.1504 24.7834 40.064 24.834H40.063C39.9487 24.9008 39.8398 24.9086 39.7358 24.8789C39.6511 24.8547 39.5605 24.8012 39.481 24.7178L39.4058 24.624C39.1954 24.3115 38.976 24.005 38.7554 23.7051L38.0972 22.8242C38.0836 22.8061 38.0473 22.7366 38.0923 22.5869C38.1392 22.431 38.2411 22.3149 38.3149 22.2715H38.3159C38.4419 22.1977 38.5372 22.1976 38.6255 22.2246Z" stroke="currentColor" stroke-width="1.64647"/>
<path d="M40.7939 28.1475C40.9426 28.1475 41.0232 28.1965 41.084 28.2627C41.1591 28.3445 41.2347 28.4927 41.2607 28.707V28.708C41.439 30.1739 42.2735 31.3128 43.2432 32.1699C43.3787 32.2898 43.3828 32.3716 43.3809 32.4121C43.3775 32.4797 43.3388 32.5901 43.2295 32.6992C43.1212 32.8071 42.9867 32.8698 42.8691 32.8818C42.7703 32.8919 42.6534 32.8712 42.5186 32.752H42.5176C41.3264 31.6992 40.6236 30.382 40.3711 28.8242L40.3271 28.5098C40.325 28.492 40.3255 28.4163 40.4414 28.3086C40.5626 28.1961 40.7111 28.1475 40.7939 28.1475Z" stroke="currentColor" stroke-width="1.64647"/>
<path d="M50.8779 33.1006C51.0083 33.0475 51.1714 33.0385 51.3213 33.0791C51.4751 33.1207 51.5478 33.194 51.5693 33.2295C51.575 33.2382 51.6128 33.2905 51.5459 33.4541C51.172 34.3651 50.7502 35.2528 50.2988 36.1309L49.9561 36.7979L50.5879 37.2012C51.2504 37.6238 51.9028 38.0348 52.5459 38.4609C52.6948 38.5598 52.7434 38.6662 52.7588 38.7627C52.7771 38.8781 52.7517 39.0238 52.6748 39.1562C52.5971 39.29 52.4997 39.3568 52.4336 39.3779C52.3931 39.3908 52.3108 39.4072 52.1592 39.3066H52.1582C51.5117 38.8772 50.8514 38.4619 50.2129 38.0537L49.5107 37.6045L49.0703 38.3115C48.6739 38.9479 48.2645 39.5686 47.8232 40.167C47.7178 40.3099 47.5989 40.3649 47.4805 40.3809C47.346 40.399 47.1893 40.3673 47.0557 40.29C46.919 40.211 46.8652 40.1198 46.8516 40.0742C46.848 40.0624 46.8335 40.023 46.8721 39.9424L46.9307 39.8477C47.4205 39.1833 47.8717 38.4998 48.3008 37.8154L48.7402 37.1143L48.0361 36.6787C47.3727 36.2677 46.7045 35.8509 46.0361 35.4395C45.8827 35.345 45.8393 35.2463 45.8252 35.165C45.8075 35.0631 45.8284 34.9259 45.9053 34.7939C45.9825 34.6614 46.0847 34.5871 46.1641 34.5605C46.2204 34.5417 46.3137 34.5276 46.4688 34.623V34.624C47.1253 35.0282 47.7804 35.4351 48.4365 35.8428L49.1973 36.3154L49.6045 35.5176C49.8671 35.0033 50.1226 34.4784 50.3604 33.9395L50.5918 33.3965C50.6588 33.2332 50.7621 33.1478 50.8779 33.1006Z" stroke="currentColor" stroke-width="1.64647"/>
</svg>
