<svg width="31" height="31" viewBox="0 0 31 31" fill="none" xmlns="http://www.w3.org/2000/svg">
<path d="M12.6211 23.2871C12.6211 25.3582 10.9422 27.0371 8.87109 27.0371C6.80003 27.0371 5.12109 25.3582 5.12109 23.2871C5.12109 21.2161 6.80003 19.5371 8.87109 19.5371C10.9422 19.5371 12.6211 21.2161 12.6211 23.2871ZM12.6211 23.2871L12.6211 12.0371M25.1211 19.5371C25.1211 21.6082 23.4422 23.2871 21.3711 23.2871C19.3 23.2871 17.6211 21.6082 17.6211 19.5371C17.6211 17.4661 19.3 15.7871 21.3711 15.7871C23.4422 15.7871 25.1211 17.4661 25.1211 19.5371ZM25.1211 19.5371L25.1211 8.28715M12.6211 12.0371L25.1211 8.28715M12.6211 12.0371L12.6211 7.6729C12.6211 6.5567 13.361 5.57574 14.4343 5.26909L16.9961 4.53715L22.7316 2.77236C23.919 2.40702 25.1211 3.29486 25.1211 4.53715L25.1211 8.28715" stroke="#020909" stroke-width="1.5" stroke-linecap="round"/>
</svg>
