<svg width="89" height="88" viewBox="0 0 89 88" fill="none" xmlns="http://www.w3.org/2000/svg">
<circle cx="44.4999" cy="44.0365" r="39.7958" fill="#F4A672"/>
<circle cx="44.4999" cy="44.0365" r="41.7958" stroke="#FCFCFC" stroke-opacity="0.2" stroke-width="4"/>
<circle cx="45.0307" cy="44.0366" r="34.4897" fill="#053B4A"/>
<path d="M47.4847 37.9013C47.4847 38.2267 47.3554 38.5388 47.1253 38.7689C46.8952 38.999 46.5831 39.1283 46.2576 39.1283C44.6305 39.1283 43.07 39.7747 41.9194 40.9253C40.7688 42.0758 40.1224 43.6363 40.1224 45.2635C40.1224 45.5889 39.9932 45.901 39.7631 46.1311C39.5329 46.3613 39.2208 46.4905 38.8954 46.4905C38.57 46.4905 38.2579 46.3613 38.0278 46.1311C37.7977 45.901 37.6684 45.5889 37.6684 45.2635C37.6684 43.6363 37.022 42.0758 35.8714 40.9253C34.7208 39.7747 33.1603 39.1283 31.5332 39.1283C31.2078 39.1283 30.8957 38.999 30.6655 38.7689C30.4354 38.5388 30.3062 38.2267 30.3062 37.9013C30.3062 37.5758 30.4354 37.2637 30.6655 37.0336C30.8957 36.8035 31.2078 36.6742 31.5332 36.6742C33.1603 36.6742 34.7208 36.0279 35.8714 34.8773C37.022 33.7267 37.6684 32.1662 37.6684 30.539C37.6684 30.2136 37.7977 29.9015 38.0278 29.6714C38.2579 29.4413 38.57 29.312 38.8954 29.312C39.2208 29.312 39.5329 29.4413 39.7631 29.6714C39.9932 29.9015 40.1224 30.2136 40.1224 30.539C40.1224 32.1662 40.7688 33.7267 41.9194 34.8773C43.07 36.0279 44.6305 36.6742 46.2576 36.6742C46.5831 36.6742 46.8952 36.8035 47.1253 37.0336C47.3554 37.2637 47.4847 37.5758 47.4847 37.9013Z" fill="#F4A672"/>
<path d="M48.7118 53.853C48.7118 54.1784 48.5825 54.4905 48.3524 54.7206C48.1223 54.9507 47.8102 55.08 47.4848 55.08C46.8339 55.08 46.2097 55.3386 45.7495 55.7988C45.2892 56.259 45.0307 56.8832 45.0307 57.5341C45.0307 57.8595 44.9014 58.1716 44.6713 58.4017C44.4412 58.6318 44.1291 58.7611 43.8037 58.7611C43.4782 58.7611 43.1661 58.6318 42.936 58.4017C42.7059 58.1716 42.5766 57.8595 42.5766 57.5341C42.5766 56.8832 42.3181 56.259 41.8578 55.7988C41.3976 55.3386 40.7734 55.08 40.1225 55.08C39.7971 55.08 39.485 54.9507 39.2549 54.7206C39.0248 54.4905 38.8955 54.1784 38.8955 53.853C38.8955 53.5275 39.0248 53.2154 39.2549 52.9853C39.485 52.7552 39.7971 52.6259 40.1225 52.6259C40.7734 52.6259 41.3976 52.3674 41.8578 51.9072C42.3181 51.4469 42.5766 50.8227 42.5766 50.1719C42.5766 49.8464 42.7059 49.5343 42.936 49.3042C43.1661 49.0741 43.4782 48.9448 43.8037 48.9448C44.1291 48.9448 44.4412 49.0741 44.6713 49.3042C44.9014 49.5343 45.0307 49.8464 45.0307 50.1719C45.0307 50.8227 45.2892 51.4469 45.7495 51.9072C46.2097 52.3674 46.8339 52.6259 47.4848 52.6259C47.8102 52.6259 48.1223 52.7552 48.3524 52.9853C48.5825 53.2154 48.7118 53.5275 48.7118 53.853Z" fill="#F4A672"/>
<path d="M59.7552 45.2636C59.7552 45.589 59.6259 45.9011 59.3958 46.1312C59.1657 46.3614 58.8536 46.4906 58.5282 46.4906C57.2264 46.4906 55.978 47.0077 55.0576 47.9282C54.1371 48.8486 53.62 50.0971 53.62 51.3988C53.62 51.7242 53.4907 52.0363 53.2606 52.2664C53.0305 52.4965 52.7184 52.6258 52.393 52.6258C52.0676 52.6258 51.7555 52.4965 51.5253 52.2664C51.2952 52.0363 51.1659 51.7242 51.1659 51.3988C51.1659 50.0971 50.6488 48.8486 49.7284 47.9282C48.8079 47.0077 47.5595 46.4906 46.2578 46.4906C45.9324 46.4906 45.6203 46.3614 45.3902 46.1312C45.16 45.9011 45.0308 45.589 45.0308 45.2636C45.0308 44.9382 45.16 44.6261 45.3902 44.3959C45.6203 44.1658 45.9324 44.0366 46.2578 44.0366C47.5595 44.0366 48.8079 43.5194 49.7284 42.599C50.6488 41.6785 51.1659 40.4301 51.1659 39.1284C51.1659 38.803 51.2952 38.4909 51.5253 38.2608C51.7555 38.0306 52.0676 37.9014 52.393 37.9014C52.7184 37.9014 53.0305 38.0306 53.2606 38.2608C53.4907 38.4909 53.62 38.803 53.62 39.1284C53.62 40.4301 54.1371 41.6785 55.0576 42.599C55.978 43.5194 57.2264 44.0366 58.5282 44.0366C58.8536 44.0366 59.1657 44.1658 59.3958 44.3959C59.6259 44.6261 59.7552 44.9382 59.7552 45.2636Z" fill="#F4A672"/>
</svg>
