<svg width="60" height="60" viewBox="0 0 60 60" fill="none" xmlns="http://www.w3.org/2000/svg">
<mask id="path-1-outside-1_3392_10168" maskUnits="userSpaceOnUse" x="2.95654" y="0.382812" width="54" height="60" fill="black">
<rect fill="white" x="2.95654" y="0.382812" width="54" height="60"/>
<path fill-rule="evenodd" clip-rule="evenodd" d="M34.6645 1.51782C34.3563 1.86582 33.7248 3.45356 33.5425 4.36181C33.4713 4.70156 33.424 4.72481 33.0288 4.58306C32.476 4.38581 31.7095 4.35431 31.1643 4.49606C29.5293 4.92281 27.9805 6.13932 26.8195 7.90857C26.2353 8.79357 25.4606 10.2786 25.1291 11.1396C24.7263 12.1978 24.4653 12.7746 24.3625 12.8143C24.2365 12.8616 22.111 11.8821 20.7048 11.1238C19.8753 10.6813 19.3383 10.5231 18.6903 10.5396C18.4293 10.5396 18.3265 10.5951 18.0895 10.8553C17.9313 11.0293 17.6868 11.4006 17.5526 11.6691C16.8573 13.0041 15.9648 14.8131 15.9648 14.8761C15.9648 14.9076 15.862 15.1288 15.7435 15.3658C15.6168 15.6028 15.4593 15.9583 15.388 16.1556C15.325 16.3528 15.1908 16.7083 15.0956 16.9453C14.7873 17.7193 14.4633 18.7783 14.4633 18.9913C14.4633 19.2913 14.6688 19.5366 15.0243 19.6866C15.3716 19.8208 15.3873 19.8838 15.1826 20.2633C15.1038 20.4133 14.8668 20.8558 14.6613 21.2511C14.1243 22.2546 13.8873 22.7046 13.3338 23.7396C13.0728 24.2368 12.7495 24.8458 12.6228 25.0821C12.4885 25.3191 12.2118 25.8561 11.9905 26.2671C11.7775 26.6781 11.4926 27.1836 11.3741 27.3966C11.2473 27.6021 11.1453 27.7836 11.1453 27.8076C11.1453 27.8316 10.8768 28.3528 10.5453 28.9686C10.2138 29.5926 9.7788 30.3981 9.58905 30.7693C9.3918 31.1406 9.0753 31.7256 8.8938 32.0728C8.7123 32.4201 8.33281 33.1311 8.06431 33.6531C7.78756 34.1743 7.4403 34.8298 7.27455 35.1148C7.1163 35.3991 6.83204 35.9286 6.64229 36.2998C6.19979 37.1766 5.3313 38.8513 5.08605 39.2938C4.3908 40.5501 3.95654 41.4816 3.95654 41.7111C3.95654 41.8693 4.01955 42.0193 4.13805 42.1221C4.23255 42.2166 5.56005 42.9201 7.07655 43.6858C8.6013 44.4598 11.1603 45.7558 12.7638 46.5688C28.2153 54.4048 37.3705 58.9708 37.6315 58.9708C38.1055 58.9708 38.1296 58.9468 39.6221 56.1666C40.0878 55.2973 40.5858 54.3733 40.7276 54.1131C40.8693 53.8528 41.1618 53.2993 41.383 52.8883C41.6043 52.4773 41.9838 51.7663 42.2283 51.3081C42.694 50.4553 43.0263 49.8388 43.7058 48.5436C43.927 48.1326 44.1326 47.7538 44.1641 47.7141C44.1956 47.6668 44.4408 47.2086 44.7168 46.6873C44.9853 46.1661 45.3093 45.5578 45.4278 45.3448C45.5463 45.1236 45.8305 44.5941 46.06 44.1598C46.2895 43.7256 46.5655 43.2118 46.6765 43.0146C46.7868 42.8173 47.0553 42.3036 47.2848 41.8693C48.5328 39.4678 49.0383 38.5041 49.2753 38.0773C49.4253 37.8163 49.678 37.3266 49.852 36.9868C50.026 36.6553 50.1993 36.3786 50.239 36.3786C50.2788 36.3786 50.4603 36.4498 50.6418 36.5286C51.1945 36.7738 51.8268 36.6313 52.0878 36.1971C52.4508 35.6046 53.9598 32.9188 53.9598 32.8716C53.9598 32.8318 54.0228 32.7133 54.1098 32.6031C54.2598 32.3818 54.7263 31.5291 55.2318 30.5496C55.3975 30.2256 55.627 29.6961 55.7455 29.3728C55.951 28.8118 55.9585 28.7571 55.8483 28.4488C55.7538 28.1646 55.6825 28.1091 55.3113 27.9516C55.0743 27.8571 54.8058 27.6906 54.727 27.5721C54.5845 27.3823 53.0763 26.6001 50.3425 25.3048L49.6788 24.9966L49.9945 24.8308C50.2233 24.7206 50.4686 24.4753 50.8241 23.9931C51.3063 23.3451 51.9063 22.3738 51.9063 22.2553C51.9063 22.2238 51.9618 22.0896 52.0331 21.9628C52.2071 21.6313 52.6728 20.4306 52.9098 19.6723C53.4625 17.9263 53.4551 15.7071 52.8858 14.6638C52.6331 14.1816 51.7638 13.2973 51.2193 12.9418C50.9905 12.7993 50.8008 12.6493 50.8008 12.6178C50.8008 12.5863 50.9268 12.4281 51.0775 12.2623C51.2275 12.0966 51.6858 11.5671 52.0885 11.0773C52.4995 10.5876 52.9968 9.99507 53.2023 9.75807C53.5106 9.39507 53.5653 9.28407 53.5503 9.04707C53.5345 8.81832 53.479 8.74707 53.2503 8.63607C53.0133 8.51757 52.7448 8.49356 51.4495 8.49356H49.9248L49.9803 7.70382C50.0516 6.61407 49.9015 6.28182 49.3248 6.28182C48.8823 6.28182 47.8555 6.97707 45.4623 8.88882C43.1238 10.7608 40.7935 13.0363 39.4428 14.7658C39.3483 14.8926 39.253 14.9788 39.2455 14.9631C39.19 14.8918 38.9455 13.1541 38.977 13.0986C39.04 13.0041 39.127 11.1396 39.151 9.64632C39.1668 8.05032 39.0798 6.32831 38.9141 5.17481C38.8511 4.71656 38.7641 4.02131 38.7168 3.63431C38.5196 1.96781 38.5038 1.89657 38.2113 1.76982C37.8483 1.60407 37.666 1.73007 37.1448 2.52807C36.868 2.93907 36.6153 3.27881 36.5838 3.27881C36.5441 3.27881 36.4893 3.20007 36.4578 3.10482C36.4263 3.00207 36.3468 2.83632 36.268 2.72532C36.1968 2.61507 35.9681 2.26707 35.7626 1.95132C35.4071 1.41432 35.3755 1.38281 35.0913 1.38281C34.909 1.38356 34.7433 1.43907 34.6645 1.51782ZM35.5968 3.57207C35.9126 4.19607 36.1023 4.38582 36.4495 4.38582C36.7893 4.38582 37.0735 4.20432 37.3578 3.80157C37.5003 3.60432 37.6503 3.43857 37.6818 3.43857C37.7763 3.43857 38.1243 6.09282 38.2825 8.02032C38.338 8.73882 38.3613 11.0856 38.314 11.1403C38.29 11.1561 38.2196 11.0458 38.1483 10.8793C38.0853 10.7211 37.9353 10.3498 37.8168 10.0581C37.4613 9.18881 36.2523 7.17506 35.7153 6.55856C35.344 6.14006 34.4276 5.25507 34.3563 5.25507C34.2378 5.25507 34.3165 4.93107 34.6803 3.91182C34.8618 3.41457 35.0283 2.95631 35.0515 2.89256C35.107 2.71856 35.2571 2.90007 35.5968 3.57207ZM32.6418 5.60981C33.6213 5.94131 34.5063 6.56607 34.9961 7.25307C36.0858 8.78532 36.8125 10.0888 37.3188 11.4238C37.777 12.6246 38.2511 14.5761 38.3223 15.5241C38.3463 15.9823 38.3463 16.3851 38.314 16.4166C38.2195 16.5351 37.927 16.3221 37.927 16.1323C37.927 16.0378 37.8011 15.6981 37.6503 15.3816C36.7338 13.4698 35.146 11.8266 33.7555 11.3451C32.8945 11.0526 31.5993 11.1321 30.6745 11.5423C30.1765 11.7636 28.9683 12.9246 28.2573 13.8808C28.0045 14.2206 27.7675 14.4966 27.736 14.4966C27.673 14.4966 25.2085 13.3198 25.2085 13.2883C25.2085 13.2726 25.4058 12.8616 25.6428 12.3718C25.8881 11.8821 26.1723 11.2581 26.2908 10.9896C26.986 9.33057 28.3053 7.32432 29.0163 6.82632C29.1588 6.73182 29.332 6.59757 29.3958 6.54207C29.593 6.36057 30.4383 5.87831 30.8966 5.68106C31.4096 5.45981 32.1288 5.43581 32.6418 5.60981ZM49.0256 8.17707C48.9385 9.40182 49.081 9.51206 50.6058 9.44081C51.0873 9.41681 51.6483 9.41681 51.8538 9.44081L52.2408 9.48057L51.7585 10.0491C51.4975 10.3573 51.0161 10.9656 50.6846 11.3916C50.3531 11.8183 50.0366 12.1896 49.9736 12.2293C49.9106 12.2608 49.5551 12.2368 49.1681 12.1738C47.8961 11.9766 46.4508 12.1423 44.6808 12.6951C43.6301 13.0191 42.058 13.5958 41.9163 13.6986C41.8293 13.7698 41.3238 13.9513 41.3238 13.9116C41.3238 13.7848 44.0013 11.2498 44.9575 10.4676C45.1473 10.3176 45.3918 10.1046 45.5103 9.99356C46.0315 9.51956 48.9228 7.38657 49.0495 7.38657C49.0653 7.38732 49.0571 7.74282 49.0256 8.17707ZM19.5445 11.8581C19.8055 11.9211 20.1685 12.0793 20.3425 12.1978C20.524 12.3163 21.022 12.5848 21.4563 12.7978C21.8905 13.0033 23.0043 13.5486 23.929 13.9986C24.8613 14.4411 25.6278 14.8123 25.6436 14.8123C25.6518 14.8123 26.2203 15.0808 26.8998 15.4048C27.5793 15.7288 28.1793 16.0056 28.2348 16.0213C28.2903 16.0296 28.3451 16.0611 28.3691 16.0926C28.4088 16.1481 29.593 16.7166 32.4768 18.0673C33.8905 18.7311 34.1515 18.8653 34.183 18.9598C34.207 19.0153 34.0248 19.3783 33.7878 19.7736C33.5433 20.1688 33.3453 20.5161 33.3453 20.5401C33.3453 20.5641 33.2508 20.7298 33.1398 20.9113C33.0213 21.0928 32.8315 21.4168 32.7213 21.6381C32.6028 21.8593 32.3583 22.3018 32.176 22.6101C31.9945 22.9258 31.5363 23.7793 31.1651 24.5061C30.7938 25.2403 30.4623 25.8568 30.4308 25.8966C30.3596 25.9678 29.3013 25.5096 27.9978 24.8541C27.4683 24.5856 27.0108 24.3718 26.971 24.3718C26.9395 24.3718 26.7423 24.2848 26.5368 24.1746C26.3313 24.0636 25.4388 23.6451 24.562 23.2348C23.677 22.8321 22.39 22.2313 21.6948 21.9073C19.4988 20.8806 18.3925 20.3751 17.9028 20.1853C17.6418 20.0826 17.1843 19.8298 16.8761 19.6326C16.5761 19.4271 16.1493 19.1983 15.9438 19.1113C15.5883 18.9688 15.5643 18.9456 15.6123 18.7243C15.6521 18.4956 15.952 17.6976 16.1733 17.2078C16.2363 17.0736 16.2835 16.9393 16.2835 16.9078C16.2835 16.8838 16.3705 16.6626 16.4808 16.4256C16.591 16.1886 16.678 15.9831 16.678 15.9673C16.678 15.8248 18.2898 12.5623 18.6295 12.0253C18.8335 11.6923 18.8815 11.6848 19.5445 11.8581ZM33.1083 12.3246C34.1748 12.4588 35.494 13.5171 36.5365 15.0816C36.868 15.5796 37.1373 16.0056 37.1373 16.0453C37.1373 16.0851 36.592 16.1166 35.9283 16.1166C34.4905 16.1166 34.1193 16.2036 33.5268 16.6851C33.298 16.8748 33.0843 17.0248 33.061 17.0248C33.0295 17.0248 32.7213 16.8823 32.3658 16.7166C31.3705 16.2343 30.1301 15.6501 29.4588 15.3343C28.8423 15.0501 28.732 14.9233 28.969 14.7261C29.0403 14.6706 29.2691 14.3946 29.4746 14.1178C29.9013 13.5568 30.9438 12.6403 31.3705 12.4588C31.663 12.3321 32.3576 12.2136 32.5556 12.2533C32.6186 12.2608 32.8713 12.3006 33.1083 12.3246ZM49.0495 13.1541C49.9503 13.2726 50.6928 13.6596 51.4353 14.4021C52.2963 15.2631 52.336 15.3741 52.3435 16.8666C52.3435 17.8618 52.312 18.2256 52.1695 18.8023C51.7585 20.4771 50.3605 23.4156 49.5865 24.2368C49.4763 24.3553 49.3811 24.4821 49.3811 24.5136C49.3811 24.5451 49.3495 24.6163 49.3098 24.6718C49.2153 24.8218 48.0145 24.2376 48.0618 24.0636C48.0858 23.9923 48.1961 23.6368 48.3146 23.2656C48.7256 21.9306 48.82 21.3298 48.7961 20.1846C48.7803 19.2996 48.7406 19.0393 48.5988 18.6441C48.1803 17.5536 47.5323 16.9378 46.387 16.5666C45.889 16.4083 45.5815 16.3611 44.602 16.3296C43.8993 16.3056 43.156 16.3296 42.7458 16.3851C41.6478 16.5433 40.1231 16.8673 39.7518 17.0331C39.3723 17.1988 39.2066 17.1831 39.0011 16.9543C38.8751 16.8118 38.875 16.7961 39.0325 16.6858C39.1195 16.6228 39.325 16.4488 39.4908 16.3063C39.838 15.9823 40.7785 15.3111 40.984 15.2323C41.0628 15.2008 41.2525 15.0981 41.4025 15.0028C42.2478 14.4501 45.4788 13.3753 47.011 13.1308C47.3905 13.0671 48.4803 13.0828 49.0495 13.1541ZM36.892 17.1433C37.129 17.1748 37.3743 17.2221 37.4448 17.2536C38.527 17.7591 38.8983 18.0516 39.3408 18.7543C39.5861 19.1338 40.0046 20.1523 39.9648 20.2708C39.9491 20.3023 39.7278 20.2311 39.4668 20.1051C39.2058 19.9791 38.3605 19.5756 37.5865 19.2043C36.8043 18.8248 36.1645 18.5248 36.1488 18.5248C36.133 18.5248 35.6508 18.2961 35.0748 18.0193L34.024 17.5138L34.3008 17.3481C34.7673 17.0638 35.6283 17.0008 36.892 17.1433ZM45.55 17.4193C46.7268 17.6638 47.3118 18.0906 47.6275 18.9358C47.9673 19.8366 47.9275 20.6346 47.4378 22.5456C47.2878 23.1298 47.1693 23.6196 47.1693 23.6361C47.1693 23.6518 47.1138 23.6601 47.0425 23.6601C46.9 23.6601 46.6315 23.5333 44.6808 22.5936C43.8986 22.2141 42.8875 21.7326 42.4293 21.5196C40.9915 20.8483 41.0703 20.9188 40.9518 20.2401C40.8333 19.5133 40.6203 18.9366 40.2565 18.3283C39.9798 17.8783 39.9798 17.7598 40.2565 17.7283C40.3038 17.7283 40.3908 17.7126 40.4538 17.6968C42.5163 17.2851 44.4123 17.1748 45.55 17.4193ZM36.3783 19.9393C37.0968 20.2866 37.753 20.5873 37.84 20.6188C38.1641 20.7216 38.7168 21.0688 38.7168 21.1716C38.7168 21.2983 38.2511 22.2538 37.8791 22.9093C37.618 23.3518 36.5441 25.5238 35.0666 28.5576C33.3918 31.9858 30.5163 37.6341 30.2636 37.9978C30.2321 38.0376 29.8608 38.7486 29.434 39.5773C28.723 40.9521 27.7038 42.9028 26.6853 44.8303C26.101 45.9283 24.481 49.1593 24.2838 49.6093C24.1968 49.8306 24.0468 50.1703 23.9598 50.3758C23.8653 50.5888 23.7625 50.7553 23.7145 50.7553C23.6515 50.7553 20.2623 49.0648 19.9938 48.8991C19.9465 48.8751 20.065 48.5676 20.2623 48.1566C20.4595 47.7771 20.8788 46.8456 21.2021 46.0873C21.8658 44.5393 23.0268 42.1296 23.9433 40.4076C24.2748 39.7753 24.8043 38.7801 25.1125 38.1958C25.4125 37.6116 25.8551 36.7738 26.0763 36.3396C26.3051 35.9053 26.7558 35.0518 27.064 34.4436C27.3798 33.8353 27.6963 33.2271 27.7668 33.1003C27.8381 32.9661 27.8928 32.8318 27.8928 32.7921C27.8928 32.7523 27.9401 32.6578 28.0038 32.5948C28.0668 32.5236 28.3436 32.0263 28.6278 31.4811C28.9121 30.9358 29.2833 30.2173 29.4648 29.8776C30.0101 28.8508 31.0765 26.7336 31.3293 26.1883C31.4636 25.9041 31.582 25.6588 31.606 25.6356C31.63 25.6116 31.8513 25.1856 32.0958 24.6876C32.3411 24.1896 32.8308 23.2498 33.178 22.5943C33.5335 21.9463 33.8178 21.4018 33.8178 21.3936C33.8178 21.3066 34.9945 19.3161 35.0425 19.3161C35.059 19.3153 35.6598 19.5996 36.3783 19.9393ZM18.1068 21.3771C19.7343 22.1908 21.3138 22.9491 21.3693 22.9491C21.3851 22.9491 21.8433 23.1621 22.3803 23.4148C22.9098 23.6676 23.6756 24.0313 24.0626 24.2046C24.4578 24.3861 24.829 24.5601 24.892 24.5998C24.955 24.6313 25.6188 24.9396 26.3538 25.2793C29.1663 26.5671 29.9718 26.9698 29.8848 27.0801C29.8451 27.1273 29.482 27.8151 29.0793 28.5966C28.6765 29.3788 28.2896 30.1213 28.2101 30.2556C28.0998 30.4453 27.4675 31.6461 27.0093 32.5303C26.938 32.6646 26.9223 32.6646 26.6853 32.5228C25.39 31.7488 21.709 29.9398 20.3103 29.3946C20.113 29.3158 19.8521 29.2048 19.7178 29.1418C19.5911 29.0863 19.1808 28.9288 18.8096 28.7946C18.4383 28.6603 17.8931 28.4466 17.5848 28.3206C17.2848 28.1938 16.5498 27.9096 15.9655 27.6808C15.3813 27.4596 14.773 27.2143 14.6148 27.1281C14.4565 27.0493 14.0935 26.9308 13.8168 26.8596C13.54 26.7883 13.264 26.7013 13.2085 26.6698C13.1058 26.6068 13.3668 26.0143 14.101 24.6553C15.0333 22.9333 15.3805 22.2853 15.9183 21.2346C16.297 20.5078 16.2971 20.5078 16.5108 20.6023C16.6301 20.6586 17.3485 21.0058 18.1068 21.3771ZM41.2286 22.2538C43.2033 23.2093 44.5698 23.8656 45.1938 24.1498C45.7788 24.4183 46.3788 24.7026 47.8405 25.3978C48.409 25.6746 49.1515 26.0301 49.4995 26.1876C49.8475 26.3533 50.4873 26.6533 50.9215 26.8588C51.3558 27.0643 51.9798 27.3561 52.3038 27.5068C52.6278 27.6568 52.9518 27.8308 53.0148 27.8863C53.1333 27.9891 53.4018 28.1391 54.2628 28.6048C54.4916 28.7233 54.6738 28.8816 54.6738 28.9446C54.6656 29.0158 54.6026 29.2131 54.5156 29.3871C54.4286 29.5611 54.3656 29.7268 54.3573 29.7501C54.3573 29.7816 54.1991 30.0816 54.0176 30.4213C53.8278 30.7686 53.4566 31.4563 53.1963 31.9536C52.4538 33.3673 52.1298 33.9598 52.0586 34.0468C51.9956 34.1256 51.577 34.9078 51.403 35.2476C51.3558 35.3503 51.2771 35.4291 51.2373 35.4291C51.1901 35.4291 50.8743 35.3106 50.5263 35.1681C50.1783 35.0181 49.5153 34.7653 49.0488 34.6071C48.5823 34.4488 47.8165 34.1331 47.35 33.9118C46.876 33.6906 46.2836 33.4138 46.0233 33.2953C45.5493 33.0741 43.5506 32.1501 42.5868 31.6993C42.3026 31.5651 41.7176 31.2883 41.2833 31.0828C40.4141 30.6643 39.1503 30.0718 38.479 29.7636C36.5118 28.8471 36.07 28.6258 36.0461 28.5231C36.0303 28.4601 36.1488 28.1278 36.3146 27.7881C36.4728 27.4483 36.7645 26.8326 36.9543 26.4216C37.1516 26.0106 37.5783 25.1338 37.9105 24.4858C38.2345 23.8303 38.7161 22.8823 38.9688 22.3686C39.3716 21.5706 39.4586 21.4446 39.5928 21.4836C39.6806 21.5196 40.4156 21.8593 41.2286 22.2538ZM13.7306 27.6493C14.1573 27.7993 14.5758 27.9651 14.6628 28.0048C14.8525 28.0918 17.4828 29.1583 18.6123 29.6008C20.6111 30.3831 23.0996 31.5043 24.9318 32.4448C25.3661 32.6661 25.9113 32.9428 26.1408 33.0531C26.3621 33.1558 26.5518 33.2818 26.5518 33.3216C26.5518 33.3688 26.3778 33.7243 26.1648 34.1196C25.9518 34.5148 25.5408 35.2963 25.2483 35.8656C24.9558 36.4266 24.6873 36.9238 24.6558 36.9711C24.4743 37.2081 21.4405 43.1961 20.9905 44.1988C20.6035 45.0598 20.5563 45.1626 20.0823 46.2606C19.4973 47.6353 19.126 48.3853 19.0473 48.3853C18.976 48.3853 18.2096 48.0058 15.5321 46.6633C9.33856 43.5591 5.26304 41.4973 5.23904 41.4733C5.20754 41.4418 5.57055 40.7308 5.7843 40.4068C5.85555 40.2966 6.2028 39.6403 6.56655 38.9451C6.92955 38.2498 7.24605 37.6416 7.27755 37.6018C7.30905 37.5546 7.57756 37.0566 7.87006 36.4956C8.16256 35.9271 8.54129 35.2078 8.71529 34.8921C8.88929 34.5838 8.99955 34.3236 8.96805 34.3236C8.93655 34.3236 8.96804 34.2606 9.03104 34.1811C9.14954 34.0468 9.65506 33.1461 10.0263 32.4036C10.1291 32.1981 10.2393 32.0323 10.2716 32.0481C10.2948 32.0638 10.714 32.2693 11.188 32.5063C11.6695 32.7433 12.1991 33.0036 12.3731 33.0748C12.5471 33.1461 12.9183 33.3036 13.2025 33.4146C13.4868 33.5331 13.8581 33.6913 14.0321 33.7701C14.2061 33.8488 14.956 34.1728 15.691 34.4811C16.4335 34.7893 17.2233 35.1291 17.4528 35.2393C17.6815 35.3421 17.8871 35.4291 17.9111 35.4291C17.9508 35.4291 18.172 35.5236 18.9303 35.8633C19.0645 35.9188 19.444 36.0921 19.7838 36.2503C20.1235 36.4086 20.4236 36.5346 20.4393 36.5346C20.4708 36.5346 20.8106 36.6771 21.3791 36.9298C22.0113 37.2141 22.2873 37.3251 22.3428 37.3251C22.3743 37.3251 22.5086 37.3806 22.6271 37.4436C23.1881 37.7361 24.0408 37.8861 24.1436 37.7203C24.2778 37.5073 23.8983 37.2148 22.8798 36.7251C22.2956 36.4483 21.8058 36.2196 21.7818 36.2196C21.766 36.2196 21.3393 36.0223 20.842 35.7853C20.344 35.5483 19.9181 35.3511 19.9023 35.3511C19.8783 35.3511 19.5228 35.1928 19.1201 35.0038C18.4488 34.6956 17.3193 34.1983 16.0075 33.6373C15.7465 33.5271 15.3123 33.3373 15.0355 33.2106C14.7588 33.0838 14.5143 32.9818 14.4903 32.9818C14.4746 32.9818 14.2218 32.8708 13.9376 32.7448C13.6608 32.6106 13.4163 32.5078 13.4006 32.5078C13.3766 32.5078 12.8711 32.2866 12.1368 31.9551C12.0498 31.9153 11.71 31.7578 11.3785 31.6078C11.047 31.4653 10.7546 31.3078 10.7306 31.2763C10.6833 31.1976 10.7463 31.0708 11.4491 29.7441C11.7101 29.2461 12.0573 28.5831 12.223 28.2823C12.634 27.4926 12.721 27.3741 12.847 27.3741C12.9093 27.3726 13.3046 27.4993 13.7306 27.6493ZM36.2441 29.8693C36.5838 30.0276 37.2633 30.3433 37.7448 30.5803C38.2345 30.8173 38.653 31.0071 38.677 31.0071C38.701 31.0071 39.1983 31.2358 39.7908 31.5208C40.3833 31.8051 40.8805 32.0346 40.897 32.0346C40.9128 32.0346 41.4025 32.2641 41.9793 32.5326C42.5478 32.8093 43.18 33.1093 43.3773 33.2038C46.7583 34.7443 49.3015 35.9683 49.3015 36.0396C49.294 36.1183 48.9063 36.8451 48.109 38.2753C47.7775 38.8596 47.3425 39.6576 47.1295 40.0528C46.8138 40.6528 46.5843 41.0406 46.4816 41.1906C46.4733 41.2063 46.3315 41.1591 46.1658 41.0803C44.7993 40.4563 44.3095 40.2351 44.0095 40.1323C43.8595 40.0768 43.4568 39.9036 43.1171 39.7453C42.7773 39.5871 42.4848 39.4611 42.469 39.4611C42.4533 39.4611 42.2163 39.3583 41.9396 39.2316C41.6628 39.1056 40.984 38.7973 40.4148 38.5521C39.8538 38.3068 39.277 38.0548 39.1353 37.9911C39.001 37.9281 38.8743 37.8808 38.851 37.8808C38.827 37.8808 38.4955 37.7383 38.1243 37.5651C37.753 37.3911 37.429 37.2493 37.4058 37.2493C37.39 37.2493 36.5448 36.8781 35.5413 36.4281C34.5303 35.9781 33.4796 35.5273 33.2111 35.4328C32.9343 35.3383 32.7131 35.2431 32.7131 35.2273C32.7131 35.1171 35.5098 29.5873 35.557 29.5873C35.5968 29.5851 35.9043 29.7111 36.2441 29.8693ZM32.7213 36.1416C32.887 36.2286 33.4323 36.4731 33.9221 36.6868C34.4036 36.8998 35.3043 37.2951 35.9125 37.5636C36.5208 37.8321 37.1291 38.0931 37.2558 38.1561C37.7298 38.3616 39.1676 38.9773 39.9416 39.3013C40.3683 39.4828 40.8656 39.6966 41.0471 39.7753C41.6313 40.0438 43.0143 40.6281 44.1281 41.0788C44.7363 41.3241 45.3445 41.5686 45.4713 41.6241C45.6055 41.6871 45.7871 41.7583 45.8898 41.7898C45.9843 41.8138 46.0638 41.8768 46.0638 41.9158C46.0638 41.9871 45.7323 42.6268 45.2268 43.5276C45.1323 43.7016 44.911 44.1118 44.737 44.4358C44.0418 45.7476 44.0658 45.7078 43.852 45.6606C43.7418 45.6291 43.4411 45.5106 43.1808 45.3921C42.604 45.1236 42.3273 45.0126 41.2061 44.5866C39.4601 43.9228 37.2483 42.9673 34.8708 41.8611C34.555 41.7111 34.2783 41.5926 34.2626 41.5926C34.2386 41.5926 33.8598 41.4186 33.4091 41.2056C32.9591 40.9926 32.2953 40.6843 31.924 40.5103C30.2335 39.7123 30.2178 39.7048 30.4151 39.4911C30.4548 39.4513 30.826 38.7561 31.2445 37.9431C32.1685 36.1581 32.2638 35.9841 32.3425 35.9841C32.3733 35.9833 32.5473 36.0546 32.7213 36.1416ZM30.6671 40.7706C31.7891 41.3158 32.602 41.6946 35.6755 43.0933C35.8968 43.1961 36.3708 43.4173 36.7421 43.5913C38.2586 44.2941 39.4833 44.8078 40.9683 45.3448C42.7773 46.0086 43.6143 46.3483 43.6143 46.4188C43.6143 46.4743 43.1245 47.3908 41.758 49.9258C41.3868 50.6128 41.2053 50.9526 40.1231 52.9671C39.6416 53.8596 39.0806 54.8863 38.8751 55.2576C38.6696 55.6288 38.2901 56.3316 38.0373 56.8213C37.7928 57.3111 37.5558 57.7296 37.516 57.7536C37.4763 57.7776 37.4058 57.7618 37.3503 57.7221C37.2948 57.6823 36.1893 57.1056 34.8858 56.4426C25.8176 51.8451 24.838 51.3471 24.64 51.2766C24.5613 51.2526 24.4975 51.1821 24.4975 51.1183C24.4975 50.9841 24.9401 50.0203 25.1298 49.7278C25.2086 49.6168 25.8805 48.3216 26.6305 46.8448C27.3813 45.3673 28.0211 44.1193 28.0526 44.0803C28.0841 44.0331 28.4478 43.3453 28.8663 42.5398C29.9486 40.4383 29.9245 40.4863 30.0198 40.4863C30.0513 40.4863 30.3431 40.6123 30.6671 40.7706Z"/>
</mask>
<path fill-rule="evenodd" clip-rule="evenodd" d="M34.6645 1.51782C34.3563 1.86582 33.7248 3.45356 33.5425 4.36181C33.4713 4.70156 33.424 4.72481 33.0288 4.58306C32.476 4.38581 31.7095 4.35431 31.1643 4.49606C29.5293 4.92281 27.9805 6.13932 26.8195 7.90857C26.2353 8.79357 25.4606 10.2786 25.1291 11.1396C24.7263 12.1978 24.4653 12.7746 24.3625 12.8143C24.2365 12.8616 22.111 11.8821 20.7048 11.1238C19.8753 10.6813 19.3383 10.5231 18.6903 10.5396C18.4293 10.5396 18.3265 10.5951 18.0895 10.8553C17.9313 11.0293 17.6868 11.4006 17.5526 11.6691C16.8573 13.0041 15.9648 14.8131 15.9648 14.8761C15.9648 14.9076 15.862 15.1288 15.7435 15.3658C15.6168 15.6028 15.4593 15.9583 15.388 16.1556C15.325 16.3528 15.1908 16.7083 15.0956 16.9453C14.7873 17.7193 14.4633 18.7783 14.4633 18.9913C14.4633 19.2913 14.6688 19.5366 15.0243 19.6866C15.3716 19.8208 15.3873 19.8838 15.1826 20.2633C15.1038 20.4133 14.8668 20.8558 14.6613 21.2511C14.1243 22.2546 13.8873 22.7046 13.3338 23.7396C13.0728 24.2368 12.7495 24.8458 12.6228 25.0821C12.4885 25.3191 12.2118 25.8561 11.9905 26.2671C11.7775 26.6781 11.4926 27.1836 11.3741 27.3966C11.2473 27.6021 11.1453 27.7836 11.1453 27.8076C11.1453 27.8316 10.8768 28.3528 10.5453 28.9686C10.2138 29.5926 9.7788 30.3981 9.58905 30.7693C9.3918 31.1406 9.0753 31.7256 8.8938 32.0728C8.7123 32.4201 8.33281 33.1311 8.06431 33.6531C7.78756 34.1743 7.4403 34.8298 7.27455 35.1148C7.1163 35.3991 6.83204 35.9286 6.64229 36.2998C6.19979 37.1766 5.3313 38.8513 5.08605 39.2938C4.3908 40.5501 3.95654 41.4816 3.95654 41.7111C3.95654 41.8693 4.01955 42.0193 4.13805 42.1221C4.23255 42.2166 5.56005 42.9201 7.07655 43.6858C8.6013 44.4598 11.1603 45.7558 12.7638 46.5688C28.2153 54.4048 37.3705 58.9708 37.6315 58.9708C38.1055 58.9708 38.1296 58.9468 39.6221 56.1666C40.0878 55.2973 40.5858 54.3733 40.7276 54.1131C40.8693 53.8528 41.1618 53.2993 41.383 52.8883C41.6043 52.4773 41.9838 51.7663 42.2283 51.3081C42.694 50.4553 43.0263 49.8388 43.7058 48.5436C43.927 48.1326 44.1326 47.7538 44.1641 47.7141C44.1956 47.6668 44.4408 47.2086 44.7168 46.6873C44.9853 46.1661 45.3093 45.5578 45.4278 45.3448C45.5463 45.1236 45.8305 44.5941 46.06 44.1598C46.2895 43.7256 46.5655 43.2118 46.6765 43.0146C46.7868 42.8173 47.0553 42.3036 47.2848 41.8693C48.5328 39.4678 49.0383 38.5041 49.2753 38.0773C49.4253 37.8163 49.678 37.3266 49.852 36.9868C50.026 36.6553 50.1993 36.3786 50.239 36.3786C50.2788 36.3786 50.4603 36.4498 50.6418 36.5286C51.1945 36.7738 51.8268 36.6313 52.0878 36.1971C52.4508 35.6046 53.9598 32.9188 53.9598 32.8716C53.9598 32.8318 54.0228 32.7133 54.1098 32.6031C54.2598 32.3818 54.7263 31.5291 55.2318 30.5496C55.3975 30.2256 55.627 29.6961 55.7455 29.3728C55.951 28.8118 55.9585 28.7571 55.8483 28.4488C55.7538 28.1646 55.6825 28.1091 55.3113 27.9516C55.0743 27.8571 54.8058 27.6906 54.727 27.5721C54.5845 27.3823 53.0763 26.6001 50.3425 25.3048L49.6788 24.9966L49.9945 24.8308C50.2233 24.7206 50.4686 24.4753 50.8241 23.9931C51.3063 23.3451 51.9063 22.3738 51.9063 22.2553C51.9063 22.2238 51.9618 22.0896 52.0331 21.9628C52.2071 21.6313 52.6728 20.4306 52.9098 19.6723C53.4625 17.9263 53.4551 15.7071 52.8858 14.6638C52.6331 14.1816 51.7638 13.2973 51.2193 12.9418C50.9905 12.7993 50.8008 12.6493 50.8008 12.6178C50.8008 12.5863 50.9268 12.4281 51.0775 12.2623C51.2275 12.0966 51.6858 11.5671 52.0885 11.0773C52.4995 10.5876 52.9968 9.99507 53.2023 9.75807C53.5106 9.39507 53.5653 9.28407 53.5503 9.04707C53.5345 8.81832 53.479 8.74707 53.2503 8.63607C53.0133 8.51757 52.7448 8.49356 51.4495 8.49356H49.9248L49.9803 7.70382C50.0516 6.61407 49.9015 6.28182 49.3248 6.28182C48.8823 6.28182 47.8555 6.97707 45.4623 8.88882C43.1238 10.7608 40.7935 13.0363 39.4428 14.7658C39.3483 14.8926 39.253 14.9788 39.2455 14.9631C39.19 14.8918 38.9455 13.1541 38.977 13.0986C39.04 13.0041 39.127 11.1396 39.151 9.64632C39.1668 8.05032 39.0798 6.32831 38.9141 5.17481C38.8511 4.71656 38.7641 4.02131 38.7168 3.63431C38.5196 1.96781 38.5038 1.89657 38.2113 1.76982C37.8483 1.60407 37.666 1.73007 37.1448 2.52807C36.868 2.93907 36.6153 3.27881 36.5838 3.27881C36.5441 3.27881 36.4893 3.20007 36.4578 3.10482C36.4263 3.00207 36.3468 2.83632 36.268 2.72532C36.1968 2.61507 35.9681 2.26707 35.7626 1.95132C35.4071 1.41432 35.3755 1.38281 35.0913 1.38281C34.909 1.38356 34.7433 1.43907 34.6645 1.51782ZM35.5968 3.57207C35.9126 4.19607 36.1023 4.38582 36.4495 4.38582C36.7893 4.38582 37.0735 4.20432 37.3578 3.80157C37.5003 3.60432 37.6503 3.43857 37.6818 3.43857C37.7763 3.43857 38.1243 6.09282 38.2825 8.02032C38.338 8.73882 38.3613 11.0856 38.314 11.1403C38.29 11.1561 38.2196 11.0458 38.1483 10.8793C38.0853 10.7211 37.9353 10.3498 37.8168 10.0581C37.4613 9.18881 36.2523 7.17506 35.7153 6.55856C35.344 6.14006 34.4276 5.25507 34.3563 5.25507C34.2378 5.25507 34.3165 4.93107 34.6803 3.91182C34.8618 3.41457 35.0283 2.95631 35.0515 2.89256C35.107 2.71856 35.2571 2.90007 35.5968 3.57207ZM32.6418 5.60981C33.6213 5.94131 34.5063 6.56607 34.9961 7.25307C36.0858 8.78532 36.8125 10.0888 37.3188 11.4238C37.777 12.6246 38.2511 14.5761 38.3223 15.5241C38.3463 15.9823 38.3463 16.3851 38.314 16.4166C38.2195 16.5351 37.927 16.3221 37.927 16.1323C37.927 16.0378 37.8011 15.6981 37.6503 15.3816C36.7338 13.4698 35.146 11.8266 33.7555 11.3451C32.8945 11.0526 31.5993 11.1321 30.6745 11.5423C30.1765 11.7636 28.9683 12.9246 28.2573 13.8808C28.0045 14.2206 27.7675 14.4966 27.736 14.4966C27.673 14.4966 25.2085 13.3198 25.2085 13.2883C25.2085 13.2726 25.4058 12.8616 25.6428 12.3718C25.8881 11.8821 26.1723 11.2581 26.2908 10.9896C26.986 9.33057 28.3053 7.32432 29.0163 6.82632C29.1588 6.73182 29.332 6.59757 29.3958 6.54207C29.593 6.36057 30.4383 5.87831 30.8966 5.68106C31.4096 5.45981 32.1288 5.43581 32.6418 5.60981ZM49.0256 8.17707C48.9385 9.40182 49.081 9.51206 50.6058 9.44081C51.0873 9.41681 51.6483 9.41681 51.8538 9.44081L52.2408 9.48057L51.7585 10.0491C51.4975 10.3573 51.0161 10.9656 50.6846 11.3916C50.3531 11.8183 50.0366 12.1896 49.9736 12.2293C49.9106 12.2608 49.5551 12.2368 49.1681 12.1738C47.8961 11.9766 46.4508 12.1423 44.6808 12.6951C43.6301 13.0191 42.058 13.5958 41.9163 13.6986C41.8293 13.7698 41.3238 13.9513 41.3238 13.9116C41.3238 13.7848 44.0013 11.2498 44.9575 10.4676C45.1473 10.3176 45.3918 10.1046 45.5103 9.99356C46.0315 9.51956 48.9228 7.38657 49.0495 7.38657C49.0653 7.38732 49.0571 7.74282 49.0256 8.17707ZM19.5445 11.8581C19.8055 11.9211 20.1685 12.0793 20.3425 12.1978C20.524 12.3163 21.022 12.5848 21.4563 12.7978C21.8905 13.0033 23.0043 13.5486 23.929 13.9986C24.8613 14.4411 25.6278 14.8123 25.6436 14.8123C25.6518 14.8123 26.2203 15.0808 26.8998 15.4048C27.5793 15.7288 28.1793 16.0056 28.2348 16.0213C28.2903 16.0296 28.3451 16.0611 28.3691 16.0926C28.4088 16.1481 29.593 16.7166 32.4768 18.0673C33.8905 18.7311 34.1515 18.8653 34.183 18.9598C34.207 19.0153 34.0248 19.3783 33.7878 19.7736C33.5433 20.1688 33.3453 20.5161 33.3453 20.5401C33.3453 20.5641 33.2508 20.7298 33.1398 20.9113C33.0213 21.0928 32.8315 21.4168 32.7213 21.6381C32.6028 21.8593 32.3583 22.3018 32.176 22.6101C31.9945 22.9258 31.5363 23.7793 31.1651 24.5061C30.7938 25.2403 30.4623 25.8568 30.4308 25.8966C30.3596 25.9678 29.3013 25.5096 27.9978 24.8541C27.4683 24.5856 27.0108 24.3718 26.971 24.3718C26.9395 24.3718 26.7423 24.2848 26.5368 24.1746C26.3313 24.0636 25.4388 23.6451 24.562 23.2348C23.677 22.8321 22.39 22.2313 21.6948 21.9073C19.4988 20.8806 18.3925 20.3751 17.9028 20.1853C17.6418 20.0826 17.1843 19.8298 16.8761 19.6326C16.5761 19.4271 16.1493 19.1983 15.9438 19.1113C15.5883 18.9688 15.5643 18.9456 15.6123 18.7243C15.6521 18.4956 15.952 17.6976 16.1733 17.2078C16.2363 17.0736 16.2835 16.9393 16.2835 16.9078C16.2835 16.8838 16.3705 16.6626 16.4808 16.4256C16.591 16.1886 16.678 15.9831 16.678 15.9673C16.678 15.8248 18.2898 12.5623 18.6295 12.0253C18.8335 11.6923 18.8815 11.6848 19.5445 11.8581ZM33.1083 12.3246C34.1748 12.4588 35.494 13.5171 36.5365 15.0816C36.868 15.5796 37.1373 16.0056 37.1373 16.0453C37.1373 16.0851 36.592 16.1166 35.9283 16.1166C34.4905 16.1166 34.1193 16.2036 33.5268 16.6851C33.298 16.8748 33.0843 17.0248 33.061 17.0248C33.0295 17.0248 32.7213 16.8823 32.3658 16.7166C31.3705 16.2343 30.1301 15.6501 29.4588 15.3343C28.8423 15.0501 28.732 14.9233 28.969 14.7261C29.0403 14.6706 29.2691 14.3946 29.4746 14.1178C29.9013 13.5568 30.9438 12.6403 31.3705 12.4588C31.663 12.3321 32.3576 12.2136 32.5556 12.2533C32.6186 12.2608 32.8713 12.3006 33.1083 12.3246ZM49.0495 13.1541C49.9503 13.2726 50.6928 13.6596 51.4353 14.4021C52.2963 15.2631 52.336 15.3741 52.3435 16.8666C52.3435 17.8618 52.312 18.2256 52.1695 18.8023C51.7585 20.4771 50.3605 23.4156 49.5865 24.2368C49.4763 24.3553 49.3811 24.4821 49.3811 24.5136C49.3811 24.5451 49.3495 24.6163 49.3098 24.6718C49.2153 24.8218 48.0145 24.2376 48.0618 24.0636C48.0858 23.9923 48.1961 23.6368 48.3146 23.2656C48.7256 21.9306 48.82 21.3298 48.7961 20.1846C48.7803 19.2996 48.7406 19.0393 48.5988 18.6441C48.1803 17.5536 47.5323 16.9378 46.387 16.5666C45.889 16.4083 45.5815 16.3611 44.602 16.3296C43.8993 16.3056 43.156 16.3296 42.7458 16.3851C41.6478 16.5433 40.1231 16.8673 39.7518 17.0331C39.3723 17.1988 39.2066 17.1831 39.0011 16.9543C38.8751 16.8118 38.875 16.7961 39.0325 16.6858C39.1195 16.6228 39.325 16.4488 39.4908 16.3063C39.838 15.9823 40.7785 15.3111 40.984 15.2323C41.0628 15.2008 41.2525 15.0981 41.4025 15.0028C42.2478 14.4501 45.4788 13.3753 47.011 13.1308C47.3905 13.0671 48.4803 13.0828 49.0495 13.1541ZM36.892 17.1433C37.129 17.1748 37.3743 17.2221 37.4448 17.2536C38.527 17.7591 38.8983 18.0516 39.3408 18.7543C39.5861 19.1338 40.0046 20.1523 39.9648 20.2708C39.9491 20.3023 39.7278 20.2311 39.4668 20.1051C39.2058 19.9791 38.3605 19.5756 37.5865 19.2043C36.8043 18.8248 36.1645 18.5248 36.1488 18.5248C36.133 18.5248 35.6508 18.2961 35.0748 18.0193L34.024 17.5138L34.3008 17.3481C34.7673 17.0638 35.6283 17.0008 36.892 17.1433ZM45.55 17.4193C46.7268 17.6638 47.3118 18.0906 47.6275 18.9358C47.9673 19.8366 47.9275 20.6346 47.4378 22.5456C47.2878 23.1298 47.1693 23.6196 47.1693 23.6361C47.1693 23.6518 47.1138 23.6601 47.0425 23.6601C46.9 23.6601 46.6315 23.5333 44.6808 22.5936C43.8986 22.2141 42.8875 21.7326 42.4293 21.5196C40.9915 20.8483 41.0703 20.9188 40.9518 20.2401C40.8333 19.5133 40.6203 18.9366 40.2565 18.3283C39.9798 17.8783 39.9798 17.7598 40.2565 17.7283C40.3038 17.7283 40.3908 17.7126 40.4538 17.6968C42.5163 17.2851 44.4123 17.1748 45.55 17.4193ZM36.3783 19.9393C37.0968 20.2866 37.753 20.5873 37.84 20.6188C38.1641 20.7216 38.7168 21.0688 38.7168 21.1716C38.7168 21.2983 38.2511 22.2538 37.8791 22.9093C37.618 23.3518 36.5441 25.5238 35.0666 28.5576C33.3918 31.9858 30.5163 37.6341 30.2636 37.9978C30.2321 38.0376 29.8608 38.7486 29.434 39.5773C28.723 40.9521 27.7038 42.9028 26.6853 44.8303C26.101 45.9283 24.481 49.1593 24.2838 49.6093C24.1968 49.8306 24.0468 50.1703 23.9598 50.3758C23.8653 50.5888 23.7625 50.7553 23.7145 50.7553C23.6515 50.7553 20.2623 49.0648 19.9938 48.8991C19.9465 48.8751 20.065 48.5676 20.2623 48.1566C20.4595 47.7771 20.8788 46.8456 21.2021 46.0873C21.8658 44.5393 23.0268 42.1296 23.9433 40.4076C24.2748 39.7753 24.8043 38.7801 25.1125 38.1958C25.4125 37.6116 25.8551 36.7738 26.0763 36.3396C26.3051 35.9053 26.7558 35.0518 27.064 34.4436C27.3798 33.8353 27.6963 33.2271 27.7668 33.1003C27.8381 32.9661 27.8928 32.8318 27.8928 32.7921C27.8928 32.7523 27.9401 32.6578 28.0038 32.5948C28.0668 32.5236 28.3436 32.0263 28.6278 31.4811C28.9121 30.9358 29.2833 30.2173 29.4648 29.8776C30.0101 28.8508 31.0765 26.7336 31.3293 26.1883C31.4636 25.9041 31.582 25.6588 31.606 25.6356C31.63 25.6116 31.8513 25.1856 32.0958 24.6876C32.3411 24.1896 32.8308 23.2498 33.178 22.5943C33.5335 21.9463 33.8178 21.4018 33.8178 21.3936C33.8178 21.3066 34.9945 19.3161 35.0425 19.3161C35.059 19.3153 35.6598 19.5996 36.3783 19.9393ZM18.1068 21.3771C19.7343 22.1908 21.3138 22.9491 21.3693 22.9491C21.3851 22.9491 21.8433 23.1621 22.3803 23.4148C22.9098 23.6676 23.6756 24.0313 24.0626 24.2046C24.4578 24.3861 24.829 24.5601 24.892 24.5998C24.955 24.6313 25.6188 24.9396 26.3538 25.2793C29.1663 26.5671 29.9718 26.9698 29.8848 27.0801C29.8451 27.1273 29.482 27.8151 29.0793 28.5966C28.6765 29.3788 28.2896 30.1213 28.2101 30.2556C28.0998 30.4453 27.4675 31.6461 27.0093 32.5303C26.938 32.6646 26.9223 32.6646 26.6853 32.5228C25.39 31.7488 21.709 29.9398 20.3103 29.3946C20.113 29.3158 19.8521 29.2048 19.7178 29.1418C19.5911 29.0863 19.1808 28.9288 18.8096 28.7946C18.4383 28.6603 17.8931 28.4466 17.5848 28.3206C17.2848 28.1938 16.5498 27.9096 15.9655 27.6808C15.3813 27.4596 14.773 27.2143 14.6148 27.1281C14.4565 27.0493 14.0935 26.9308 13.8168 26.8596C13.54 26.7883 13.264 26.7013 13.2085 26.6698C13.1058 26.6068 13.3668 26.0143 14.101 24.6553C15.0333 22.9333 15.3805 22.2853 15.9183 21.2346C16.297 20.5078 16.2971 20.5078 16.5108 20.6023C16.6301 20.6586 17.3485 21.0058 18.1068 21.3771ZM41.2286 22.2538C43.2033 23.2093 44.5698 23.8656 45.1938 24.1498C45.7788 24.4183 46.3788 24.7026 47.8405 25.3978C48.409 25.6746 49.1515 26.0301 49.4995 26.1876C49.8475 26.3533 50.4873 26.6533 50.9215 26.8588C51.3558 27.0643 51.9798 27.3561 52.3038 27.5068C52.6278 27.6568 52.9518 27.8308 53.0148 27.8863C53.1333 27.9891 53.4018 28.1391 54.2628 28.6048C54.4916 28.7233 54.6738 28.8816 54.6738 28.9446C54.6656 29.0158 54.6026 29.2131 54.5156 29.3871C54.4286 29.5611 54.3656 29.7268 54.3573 29.7501C54.3573 29.7816 54.1991 30.0816 54.0176 30.4213C53.8278 30.7686 53.4566 31.4563 53.1963 31.9536C52.4538 33.3673 52.1298 33.9598 52.0586 34.0468C51.9956 34.1256 51.577 34.9078 51.403 35.2476C51.3558 35.3503 51.2771 35.4291 51.2373 35.4291C51.1901 35.4291 50.8743 35.3106 50.5263 35.1681C50.1783 35.0181 49.5153 34.7653 49.0488 34.6071C48.5823 34.4488 47.8165 34.1331 47.35 33.9118C46.876 33.6906 46.2836 33.4138 46.0233 33.2953C45.5493 33.0741 43.5506 32.1501 42.5868 31.6993C42.3026 31.5651 41.7176 31.2883 41.2833 31.0828C40.4141 30.6643 39.1503 30.0718 38.479 29.7636C36.5118 28.8471 36.07 28.6258 36.0461 28.5231C36.0303 28.4601 36.1488 28.1278 36.3146 27.7881C36.4728 27.4483 36.7645 26.8326 36.9543 26.4216C37.1516 26.0106 37.5783 25.1338 37.9105 24.4858C38.2345 23.8303 38.7161 22.8823 38.9688 22.3686C39.3716 21.5706 39.4586 21.4446 39.5928 21.4836C39.6806 21.5196 40.4156 21.8593 41.2286 22.2538ZM13.7306 27.6493C14.1573 27.7993 14.5758 27.9651 14.6628 28.0048C14.8525 28.0918 17.4828 29.1583 18.6123 29.6008C20.6111 30.3831 23.0996 31.5043 24.9318 32.4448C25.3661 32.6661 25.9113 32.9428 26.1408 33.0531C26.3621 33.1558 26.5518 33.2818 26.5518 33.3216C26.5518 33.3688 26.3778 33.7243 26.1648 34.1196C25.9518 34.5148 25.5408 35.2963 25.2483 35.8656C24.9558 36.4266 24.6873 36.9238 24.6558 36.9711C24.4743 37.2081 21.4405 43.1961 20.9905 44.1988C20.6035 45.0598 20.5563 45.1626 20.0823 46.2606C19.4973 47.6353 19.126 48.3853 19.0473 48.3853C18.976 48.3853 18.2096 48.0058 15.5321 46.6633C9.33856 43.5591 5.26304 41.4973 5.23904 41.4733C5.20754 41.4418 5.57055 40.7308 5.7843 40.4068C5.85555 40.2966 6.2028 39.6403 6.56655 38.9451C6.92955 38.2498 7.24605 37.6416 7.27755 37.6018C7.30905 37.5546 7.57756 37.0566 7.87006 36.4956C8.16256 35.9271 8.54129 35.2078 8.71529 34.8921C8.88929 34.5838 8.99955 34.3236 8.96805 34.3236C8.93655 34.3236 8.96804 34.2606 9.03104 34.1811C9.14954 34.0468 9.65506 33.1461 10.0263 32.4036C10.1291 32.1981 10.2393 32.0323 10.2716 32.0481C10.2948 32.0638 10.714 32.2693 11.188 32.5063C11.6695 32.7433 12.1991 33.0036 12.3731 33.0748C12.5471 33.1461 12.9183 33.3036 13.2025 33.4146C13.4868 33.5331 13.8581 33.6913 14.0321 33.7701C14.2061 33.8488 14.956 34.1728 15.691 34.4811C16.4335 34.7893 17.2233 35.1291 17.4528 35.2393C17.6815 35.3421 17.8871 35.4291 17.9111 35.4291C17.9508 35.4291 18.172 35.5236 18.9303 35.8633C19.0645 35.9188 19.444 36.0921 19.7838 36.2503C20.1235 36.4086 20.4236 36.5346 20.4393 36.5346C20.4708 36.5346 20.8106 36.6771 21.3791 36.9298C22.0113 37.2141 22.2873 37.3251 22.3428 37.3251C22.3743 37.3251 22.5086 37.3806 22.6271 37.4436C23.1881 37.7361 24.0408 37.8861 24.1436 37.7203C24.2778 37.5073 23.8983 37.2148 22.8798 36.7251C22.2956 36.4483 21.8058 36.2196 21.7818 36.2196C21.766 36.2196 21.3393 36.0223 20.842 35.7853C20.344 35.5483 19.9181 35.3511 19.9023 35.3511C19.8783 35.3511 19.5228 35.1928 19.1201 35.0038C18.4488 34.6956 17.3193 34.1983 16.0075 33.6373C15.7465 33.5271 15.3123 33.3373 15.0355 33.2106C14.7588 33.0838 14.5143 32.9818 14.4903 32.9818C14.4746 32.9818 14.2218 32.8708 13.9376 32.7448C13.6608 32.6106 13.4163 32.5078 13.4006 32.5078C13.3766 32.5078 12.8711 32.2866 12.1368 31.9551C12.0498 31.9153 11.71 31.7578 11.3785 31.6078C11.047 31.4653 10.7546 31.3078 10.7306 31.2763C10.6833 31.1976 10.7463 31.0708 11.4491 29.7441C11.7101 29.2461 12.0573 28.5831 12.223 28.2823C12.634 27.4926 12.721 27.3741 12.847 27.3741C12.9093 27.3726 13.3046 27.4993 13.7306 27.6493ZM36.2441 29.8693C36.5838 30.0276 37.2633 30.3433 37.7448 30.5803C38.2345 30.8173 38.653 31.0071 38.677 31.0071C38.701 31.0071 39.1983 31.2358 39.7908 31.5208C40.3833 31.8051 40.8805 32.0346 40.897 32.0346C40.9128 32.0346 41.4025 32.2641 41.9793 32.5326C42.5478 32.8093 43.18 33.1093 43.3773 33.2038C46.7583 34.7443 49.3015 35.9683 49.3015 36.0396C49.294 36.1183 48.9063 36.8451 48.109 38.2753C47.7775 38.8596 47.3425 39.6576 47.1295 40.0528C46.8138 40.6528 46.5843 41.0406 46.4816 41.1906C46.4733 41.2063 46.3315 41.1591 46.1658 41.0803C44.7993 40.4563 44.3095 40.2351 44.0095 40.1323C43.8595 40.0768 43.4568 39.9036 43.1171 39.7453C42.7773 39.5871 42.4848 39.4611 42.469 39.4611C42.4533 39.4611 42.2163 39.3583 41.9396 39.2316C41.6628 39.1056 40.984 38.7973 40.4148 38.5521C39.8538 38.3068 39.277 38.0548 39.1353 37.9911C39.001 37.9281 38.8743 37.8808 38.851 37.8808C38.827 37.8808 38.4955 37.7383 38.1243 37.5651C37.753 37.3911 37.429 37.2493 37.4058 37.2493C37.39 37.2493 36.5448 36.8781 35.5413 36.4281C34.5303 35.9781 33.4796 35.5273 33.2111 35.4328C32.9343 35.3383 32.7131 35.2431 32.7131 35.2273C32.7131 35.1171 35.5098 29.5873 35.557 29.5873C35.5968 29.5851 35.9043 29.7111 36.2441 29.8693ZM32.7213 36.1416C32.887 36.2286 33.4323 36.4731 33.9221 36.6868C34.4036 36.8998 35.3043 37.2951 35.9125 37.5636C36.5208 37.8321 37.1291 38.0931 37.2558 38.1561C37.7298 38.3616 39.1676 38.9773 39.9416 39.3013C40.3683 39.4828 40.8656 39.6966 41.0471 39.7753C41.6313 40.0438 43.0143 40.6281 44.1281 41.0788C44.7363 41.3241 45.3445 41.5686 45.4713 41.6241C45.6055 41.6871 45.7871 41.7583 45.8898 41.7898C45.9843 41.8138 46.0638 41.8768 46.0638 41.9158C46.0638 41.9871 45.7323 42.6268 45.2268 43.5276C45.1323 43.7016 44.911 44.1118 44.737 44.4358C44.0418 45.7476 44.0658 45.7078 43.852 45.6606C43.7418 45.6291 43.4411 45.5106 43.1808 45.3921C42.604 45.1236 42.3273 45.0126 41.2061 44.5866C39.4601 43.9228 37.2483 42.9673 34.8708 41.8611C34.555 41.7111 34.2783 41.5926 34.2626 41.5926C34.2386 41.5926 33.8598 41.4186 33.4091 41.2056C32.9591 40.9926 32.2953 40.6843 31.924 40.5103C30.2335 39.7123 30.2178 39.7048 30.4151 39.4911C30.4548 39.4513 30.826 38.7561 31.2445 37.9431C32.1685 36.1581 32.2638 35.9841 32.3425 35.9841C32.3733 35.9833 32.5473 36.0546 32.7213 36.1416ZM30.6671 40.7706C31.7891 41.3158 32.602 41.6946 35.6755 43.0933C35.8968 43.1961 36.3708 43.4173 36.7421 43.5913C38.2586 44.2941 39.4833 44.8078 40.9683 45.3448C42.7773 46.0086 43.6143 46.3483 43.6143 46.4188C43.6143 46.4743 43.1245 47.3908 41.758 49.9258C41.3868 50.6128 41.2053 50.9526 40.1231 52.9671C39.6416 53.8596 39.0806 54.8863 38.8751 55.2576C38.6696 55.6288 38.2901 56.3316 38.0373 56.8213C37.7928 57.3111 37.5558 57.7296 37.516 57.7536C37.4763 57.7776 37.4058 57.7618 37.3503 57.7221C37.2948 57.6823 36.1893 57.1056 34.8858 56.4426C25.8176 51.8451 24.838 51.3471 24.64 51.2766C24.5613 51.2526 24.4975 51.1821 24.4975 51.1183C24.4975 50.9841 24.9401 50.0203 25.1298 49.7278C25.2086 49.6168 25.8805 48.3216 26.6305 46.8448C27.3813 45.3673 28.0211 44.1193 28.0526 44.0803C28.0841 44.0331 28.4478 43.3453 28.8663 42.5398C29.9486 40.4383 29.9245 40.4863 30.0198 40.4863C30.0513 40.4863 30.3431 40.6123 30.6671 40.7706Z" fill="currentColor"/>
<path fill-rule="evenodd" clip-rule="evenodd" d="M34.6645 1.51782C34.3563 1.86582 33.7248 3.45356 33.5425 4.36181C33.4713 4.70156 33.424 4.72481 33.0288 4.58306C32.476 4.38581 31.7095 4.35431 31.1643 4.49606C29.5293 4.92281 27.9805 6.13932 26.8195 7.90857C26.2353 8.79357 25.4606 10.2786 25.1291 11.1396C24.7263 12.1978 24.4653 12.7746 24.3625 12.8143C24.2365 12.8616 22.111 11.8821 20.7048 11.1238C19.8753 10.6813 19.3383 10.5231 18.6903 10.5396C18.4293 10.5396 18.3265 10.5951 18.0895 10.8553C17.9313 11.0293 17.6868 11.4006 17.5526 11.6691C16.8573 13.0041 15.9648 14.8131 15.9648 14.8761C15.9648 14.9076 15.862 15.1288 15.7435 15.3658C15.6168 15.6028 15.4593 15.9583 15.388 16.1556C15.325 16.3528 15.1908 16.7083 15.0956 16.9453C14.7873 17.7193 14.4633 18.7783 14.4633 18.9913C14.4633 19.2913 14.6688 19.5366 15.0243 19.6866C15.3716 19.8208 15.3873 19.8838 15.1826 20.2633C15.1038 20.4133 14.8668 20.8558 14.6613 21.2511C14.1243 22.2546 13.8873 22.7046 13.3338 23.7396C13.0728 24.2368 12.7495 24.8458 12.6228 25.0821C12.4885 25.3191 12.2118 25.8561 11.9905 26.2671C11.7775 26.6781 11.4926 27.1836 11.3741 27.3966C11.2473 27.6021 11.1453 27.7836 11.1453 27.8076C11.1453 27.8316 10.8768 28.3528 10.5453 28.9686C10.2138 29.5926 9.7788 30.3981 9.58905 30.7693C9.3918 31.1406 9.0753 31.7256 8.8938 32.0728C8.7123 32.4201 8.33281 33.1311 8.06431 33.6531C7.78756 34.1743 7.4403 34.8298 7.27455 35.1148C7.1163 35.3991 6.83204 35.9286 6.64229 36.2998C6.19979 37.1766 5.3313 38.8513 5.08605 39.2938C4.3908 40.5501 3.95654 41.4816 3.95654 41.7111C3.95654 41.8693 4.01955 42.0193 4.13805 42.1221C4.23255 42.2166 5.56005 42.9201 7.07655 43.6858C8.6013 44.4598 11.1603 45.7558 12.7638 46.5688C28.2153 54.4048 37.3705 58.9708 37.6315 58.9708C38.1055 58.9708 38.1296 58.9468 39.6221 56.1666C40.0878 55.2973 40.5858 54.3733 40.7276 54.1131C40.8693 53.8528 41.1618 53.2993 41.383 52.8883C41.6043 52.4773 41.9838 51.7663 42.2283 51.3081C42.694 50.4553 43.0263 49.8388 43.7058 48.5436C43.927 48.1326 44.1326 47.7538 44.1641 47.7141C44.1956 47.6668 44.4408 47.2086 44.7168 46.6873C44.9853 46.1661 45.3093 45.5578 45.4278 45.3448C45.5463 45.1236 45.8305 44.5941 46.06 44.1598C46.2895 43.7256 46.5655 43.2118 46.6765 43.0146C46.7868 42.8173 47.0553 42.3036 47.2848 41.8693C48.5328 39.4678 49.0383 38.5041 49.2753 38.0773C49.4253 37.8163 49.678 37.3266 49.852 36.9868C50.026 36.6553 50.1993 36.3786 50.239 36.3786C50.2788 36.3786 50.4603 36.4498 50.6418 36.5286C51.1945 36.7738 51.8268 36.6313 52.0878 36.1971C52.4508 35.6046 53.9598 32.9188 53.9598 32.8716C53.9598 32.8318 54.0228 32.7133 54.1098 32.6031C54.2598 32.3818 54.7263 31.5291 55.2318 30.5496C55.3975 30.2256 55.627 29.6961 55.7455 29.3728C55.951 28.8118 55.9585 28.7571 55.8483 28.4488C55.7538 28.1646 55.6825 28.1091 55.3113 27.9516C55.0743 27.8571 54.8058 27.6906 54.727 27.5721C54.5845 27.3823 53.0763 26.6001 50.3425 25.3048L49.6788 24.9966L49.9945 24.8308C50.2233 24.7206 50.4686 24.4753 50.8241 23.9931C51.3063 23.3451 51.9063 22.3738 51.9063 22.2553C51.9063 22.2238 51.9618 22.0896 52.0331 21.9628C52.2071 21.6313 52.6728 20.4306 52.9098 19.6723C53.4625 17.9263 53.4551 15.7071 52.8858 14.6638C52.6331 14.1816 51.7638 13.2973 51.2193 12.9418C50.9905 12.7993 50.8008 12.6493 50.8008 12.6178C50.8008 12.5863 50.9268 12.4281 51.0775 12.2623C51.2275 12.0966 51.6858 11.5671 52.0885 11.0773C52.4995 10.5876 52.9968 9.99507 53.2023 9.75807C53.5106 9.39507 53.5653 9.28407 53.5503 9.04707C53.5345 8.81832 53.479 8.74707 53.2503 8.63607C53.0133 8.51757 52.7448 8.49356 51.4495 8.49356H49.9248L49.9803 7.70382C50.0516 6.61407 49.9015 6.28182 49.3248 6.28182C48.8823 6.28182 47.8555 6.97707 45.4623 8.88882C43.1238 10.7608 40.7935 13.0363 39.4428 14.7658C39.3483 14.8926 39.253 14.9788 39.2455 14.9631C39.19 14.8918 38.9455 13.1541 38.977 13.0986C39.04 13.0041 39.127 11.1396 39.151 9.64632C39.1668 8.05032 39.0798 6.32831 38.9141 5.17481C38.8511 4.71656 38.7641 4.02131 38.7168 3.63431C38.5196 1.96781 38.5038 1.89657 38.2113 1.76982C37.8483 1.60407 37.666 1.73007 37.1448 2.52807C36.868 2.93907 36.6153 3.27881 36.5838 3.27881C36.5441 3.27881 36.4893 3.20007 36.4578 3.10482C36.4263 3.00207 36.3468 2.83632 36.268 2.72532C36.1968 2.61507 35.9681 2.26707 35.7626 1.95132C35.4071 1.41432 35.3755 1.38281 35.0913 1.38281C34.909 1.38356 34.7433 1.43907 34.6645 1.51782ZM35.5968 3.57207C35.9126 4.19607 36.1023 4.38582 36.4495 4.38582C36.7893 4.38582 37.0735 4.20432 37.3578 3.80157C37.5003 3.60432 37.6503 3.43857 37.6818 3.43857C37.7763 3.43857 38.1243 6.09282 38.2825 8.02032C38.338 8.73882 38.3613 11.0856 38.314 11.1403C38.29 11.1561 38.2196 11.0458 38.1483 10.8793C38.0853 10.7211 37.9353 10.3498 37.8168 10.0581C37.4613 9.18881 36.2523 7.17506 35.7153 6.55856C35.344 6.14006 34.4276 5.25507 34.3563 5.25507C34.2378 5.25507 34.3165 4.93107 34.6803 3.91182C34.8618 3.41457 35.0283 2.95631 35.0515 2.89256C35.107 2.71856 35.2571 2.90007 35.5968 3.57207ZM32.6418 5.60981C33.6213 5.94131 34.5063 6.56607 34.9961 7.25307C36.0858 8.78532 36.8125 10.0888 37.3188 11.4238C37.777 12.6246 38.2511 14.5761 38.3223 15.5241C38.3463 15.9823 38.3463 16.3851 38.314 16.4166C38.2195 16.5351 37.927 16.3221 37.927 16.1323C37.927 16.0378 37.8011 15.6981 37.6503 15.3816C36.7338 13.4698 35.146 11.8266 33.7555 11.3451C32.8945 11.0526 31.5993 11.1321 30.6745 11.5423C30.1765 11.7636 28.9683 12.9246 28.2573 13.8808C28.0045 14.2206 27.7675 14.4966 27.736 14.4966C27.673 14.4966 25.2085 13.3198 25.2085 13.2883C25.2085 13.2726 25.4058 12.8616 25.6428 12.3718C25.8881 11.8821 26.1723 11.2581 26.2908 10.9896C26.986 9.33057 28.3053 7.32432 29.0163 6.82632C29.1588 6.73182 29.332 6.59757 29.3958 6.54207C29.593 6.36057 30.4383 5.87831 30.8966 5.68106C31.4096 5.45981 32.1288 5.43581 32.6418 5.60981ZM49.0256 8.17707C48.9385 9.40182 49.081 9.51206 50.6058 9.44081C51.0873 9.41681 51.6483 9.41681 51.8538 9.44081L52.2408 9.48057L51.7585 10.0491C51.4975 10.3573 51.0161 10.9656 50.6846 11.3916C50.3531 11.8183 50.0366 12.1896 49.9736 12.2293C49.9106 12.2608 49.5551 12.2368 49.1681 12.1738C47.8961 11.9766 46.4508 12.1423 44.6808 12.6951C43.6301 13.0191 42.058 13.5958 41.9163 13.6986C41.8293 13.7698 41.3238 13.9513 41.3238 13.9116C41.3238 13.7848 44.0013 11.2498 44.9575 10.4676C45.1473 10.3176 45.3918 10.1046 45.5103 9.99356C46.0315 9.51956 48.9228 7.38657 49.0495 7.38657C49.0653 7.38732 49.0571 7.74282 49.0256 8.17707ZM19.5445 11.8581C19.8055 11.9211 20.1685 12.0793 20.3425 12.1978C20.524 12.3163 21.022 12.5848 21.4563 12.7978C21.8905 13.0033 23.0043 13.5486 23.929 13.9986C24.8613 14.4411 25.6278 14.8123 25.6436 14.8123C25.6518 14.8123 26.2203 15.0808 26.8998 15.4048C27.5793 15.7288 28.1793 16.0056 28.2348 16.0213C28.2903 16.0296 28.3451 16.0611 28.3691 16.0926C28.4088 16.1481 29.593 16.7166 32.4768 18.0673C33.8905 18.7311 34.1515 18.8653 34.183 18.9598C34.207 19.0153 34.0248 19.3783 33.7878 19.7736C33.5433 20.1688 33.3453 20.5161 33.3453 20.5401C33.3453 20.5641 33.2508 20.7298 33.1398 20.9113C33.0213 21.0928 32.8315 21.4168 32.7213 21.6381C32.6028 21.8593 32.3583 22.3018 32.176 22.6101C31.9945 22.9258 31.5363 23.7793 31.1651 24.5061C30.7938 25.2403 30.4623 25.8568 30.4308 25.8966C30.3596 25.9678 29.3013 25.5096 27.9978 24.8541C27.4683 24.5856 27.0108 24.3718 26.971 24.3718C26.9395 24.3718 26.7423 24.2848 26.5368 24.1746C26.3313 24.0636 25.4388 23.6451 24.562 23.2348C23.677 22.8321 22.39 22.2313 21.6948 21.9073C19.4988 20.8806 18.3925 20.3751 17.9028 20.1853C17.6418 20.0826 17.1843 19.8298 16.8761 19.6326C16.5761 19.4271 16.1493 19.1983 15.9438 19.1113C15.5883 18.9688 15.5643 18.9456 15.6123 18.7243C15.6521 18.4956 15.952 17.6976 16.1733 17.2078C16.2363 17.0736 16.2835 16.9393 16.2835 16.9078C16.2835 16.8838 16.3705 16.6626 16.4808 16.4256C16.591 16.1886 16.678 15.9831 16.678 15.9673C16.678 15.8248 18.2898 12.5623 18.6295 12.0253C18.8335 11.6923 18.8815 11.6848 19.5445 11.8581ZM33.1083 12.3246C34.1748 12.4588 35.494 13.5171 36.5365 15.0816C36.868 15.5796 37.1373 16.0056 37.1373 16.0453C37.1373 16.0851 36.592 16.1166 35.9283 16.1166C34.4905 16.1166 34.1193 16.2036 33.5268 16.6851C33.298 16.8748 33.0843 17.0248 33.061 17.0248C33.0295 17.0248 32.7213 16.8823 32.3658 16.7166C31.3705 16.2343 30.1301 15.6501 29.4588 15.3343C28.8423 15.0501 28.732 14.9233 28.969 14.7261C29.0403 14.6706 29.2691 14.3946 29.4746 14.1178C29.9013 13.5568 30.9438 12.6403 31.3705 12.4588C31.663 12.3321 32.3576 12.2136 32.5556 12.2533C32.6186 12.2608 32.8713 12.3006 33.1083 12.3246ZM49.0495 13.1541C49.9503 13.2726 50.6928 13.6596 51.4353 14.4021C52.2963 15.2631 52.336 15.3741 52.3435 16.8666C52.3435 17.8618 52.312 18.2256 52.1695 18.8023C51.7585 20.4771 50.3605 23.4156 49.5865 24.2368C49.4763 24.3553 49.3811 24.4821 49.3811 24.5136C49.3811 24.5451 49.3495 24.6163 49.3098 24.6718C49.2153 24.8218 48.0145 24.2376 48.0618 24.0636C48.0858 23.9923 48.1961 23.6368 48.3146 23.2656C48.7256 21.9306 48.82 21.3298 48.7961 20.1846C48.7803 19.2996 48.7406 19.0393 48.5988 18.6441C48.1803 17.5536 47.5323 16.9378 46.387 16.5666C45.889 16.4083 45.5815 16.3611 44.602 16.3296C43.8993 16.3056 43.156 16.3296 42.7458 16.3851C41.6478 16.5433 40.1231 16.8673 39.7518 17.0331C39.3723 17.1988 39.2066 17.1831 39.0011 16.9543C38.8751 16.8118 38.875 16.7961 39.0325 16.6858C39.1195 16.6228 39.325 16.4488 39.4908 16.3063C39.838 15.9823 40.7785 15.3111 40.984 15.2323C41.0628 15.2008 41.2525 15.0981 41.4025 15.0028C42.2478 14.4501 45.4788 13.3753 47.011 13.1308C47.3905 13.0671 48.4803 13.0828 49.0495 13.1541ZM36.892 17.1433C37.129 17.1748 37.3743 17.2221 37.4448 17.2536C38.527 17.7591 38.8983 18.0516 39.3408 18.7543C39.5861 19.1338 40.0046 20.1523 39.9648 20.2708C39.9491 20.3023 39.7278 20.2311 39.4668 20.1051C39.2058 19.9791 38.3605 19.5756 37.5865 19.2043C36.8043 18.8248 36.1645 18.5248 36.1488 18.5248C36.133 18.5248 35.6508 18.2961 35.0748 18.0193L34.024 17.5138L34.3008 17.3481C34.7673 17.0638 35.6283 17.0008 36.892 17.1433ZM45.55 17.4193C46.7268 17.6638 47.3118 18.0906 47.6275 18.9358C47.9673 19.8366 47.9275 20.6346 47.4378 22.5456C47.2878 23.1298 47.1693 23.6196 47.1693 23.6361C47.1693 23.6518 47.1138 23.6601 47.0425 23.6601C46.9 23.6601 46.6315 23.5333 44.6808 22.5936C43.8986 22.2141 42.8875 21.7326 42.4293 21.5196C40.9915 20.8483 41.0703 20.9188 40.9518 20.2401C40.8333 19.5133 40.6203 18.9366 40.2565 18.3283C39.9798 17.8783 39.9798 17.7598 40.2565 17.7283C40.3038 17.7283 40.3908 17.7126 40.4538 17.6968C42.5163 17.2851 44.4123 17.1748 45.55 17.4193ZM36.3783 19.9393C37.0968 20.2866 37.753 20.5873 37.84 20.6188C38.1641 20.7216 38.7168 21.0688 38.7168 21.1716C38.7168 21.2983 38.2511 22.2538 37.8791 22.9093C37.618 23.3518 36.5441 25.5238 35.0666 28.5576C33.3918 31.9858 30.5163 37.6341 30.2636 37.9978C30.2321 38.0376 29.8608 38.7486 29.434 39.5773C28.723 40.9521 27.7038 42.9028 26.6853 44.8303C26.101 45.9283 24.481 49.1593 24.2838 49.6093C24.1968 49.8306 24.0468 50.1703 23.9598 50.3758C23.8653 50.5888 23.7625 50.7553 23.7145 50.7553C23.6515 50.7553 20.2623 49.0648 19.9938 48.8991C19.9465 48.8751 20.065 48.5676 20.2623 48.1566C20.4595 47.7771 20.8788 46.8456 21.2021 46.0873C21.8658 44.5393 23.0268 42.1296 23.9433 40.4076C24.2748 39.7753 24.8043 38.7801 25.1125 38.1958C25.4125 37.6116 25.8551 36.7738 26.0763 36.3396C26.3051 35.9053 26.7558 35.0518 27.064 34.4436C27.3798 33.8353 27.6963 33.2271 27.7668 33.1003C27.8381 32.9661 27.8928 32.8318 27.8928 32.7921C27.8928 32.7523 27.9401 32.6578 28.0038 32.5948C28.0668 32.5236 28.3436 32.0263 28.6278 31.4811C28.9121 30.9358 29.2833 30.2173 29.4648 29.8776C30.0101 28.8508 31.0765 26.7336 31.3293 26.1883C31.4636 25.9041 31.582 25.6588 31.606 25.6356C31.63 25.6116 31.8513 25.1856 32.0958 24.6876C32.3411 24.1896 32.8308 23.2498 33.178 22.5943C33.5335 21.9463 33.8178 21.4018 33.8178 21.3936C33.8178 21.3066 34.9945 19.3161 35.0425 19.3161C35.059 19.3153 35.6598 19.5996 36.3783 19.9393ZM18.1068 21.3771C19.7343 22.1908 21.3138 22.9491 21.3693 22.9491C21.3851 22.9491 21.8433 23.1621 22.3803 23.4148C22.9098 23.6676 23.6756 24.0313 24.0626 24.2046C24.4578 24.3861 24.829 24.5601 24.892 24.5998C24.955 24.6313 25.6188 24.9396 26.3538 25.2793C29.1663 26.5671 29.9718 26.9698 29.8848 27.0801C29.8451 27.1273 29.482 27.8151 29.0793 28.5966C28.6765 29.3788 28.2896 30.1213 28.2101 30.2556C28.0998 30.4453 27.4675 31.6461 27.0093 32.5303C26.938 32.6646 26.9223 32.6646 26.6853 32.5228C25.39 31.7488 21.709 29.9398 20.3103 29.3946C20.113 29.3158 19.8521 29.2048 19.7178 29.1418C19.5911 29.0863 19.1808 28.9288 18.8096 28.7946C18.4383 28.6603 17.8931 28.4466 17.5848 28.3206C17.2848 28.1938 16.5498 27.9096 15.9655 27.6808C15.3813 27.4596 14.773 27.2143 14.6148 27.1281C14.4565 27.0493 14.0935 26.9308 13.8168 26.8596C13.54 26.7883 13.264 26.7013 13.2085 26.6698C13.1058 26.6068 13.3668 26.0143 14.101 24.6553C15.0333 22.9333 15.3805 22.2853 15.9183 21.2346C16.297 20.5078 16.2971 20.5078 16.5108 20.6023C16.6301 20.6586 17.3485 21.0058 18.1068 21.3771ZM41.2286 22.2538C43.2033 23.2093 44.5698 23.8656 45.1938 24.1498C45.7788 24.4183 46.3788 24.7026 47.8405 25.3978C48.409 25.6746 49.1515 26.0301 49.4995 26.1876C49.8475 26.3533 50.4873 26.6533 50.9215 26.8588C51.3558 27.0643 51.9798 27.3561 52.3038 27.5068C52.6278 27.6568 52.9518 27.8308 53.0148 27.8863C53.1333 27.9891 53.4018 28.1391 54.2628 28.6048C54.4916 28.7233 54.6738 28.8816 54.6738 28.9446C54.6656 29.0158 54.6026 29.2131 54.5156 29.3871C54.4286 29.5611 54.3656 29.7268 54.3573 29.7501C54.3573 29.7816 54.1991 30.0816 54.0176 30.4213C53.8278 30.7686 53.4566 31.4563 53.1963 31.9536C52.4538 33.3673 52.1298 33.9598 52.0586 34.0468C51.9956 34.1256 51.577 34.9078 51.403 35.2476C51.3558 35.3503 51.2771 35.4291 51.2373 35.4291C51.1901 35.4291 50.8743 35.3106 50.5263 35.1681C50.1783 35.0181 49.5153 34.7653 49.0488 34.6071C48.5823 34.4488 47.8165 34.1331 47.35 33.9118C46.876 33.6906 46.2836 33.4138 46.0233 33.2953C45.5493 33.0741 43.5506 32.1501 42.5868 31.6993C42.3026 31.5651 41.7176 31.2883 41.2833 31.0828C40.4141 30.6643 39.1503 30.0718 38.479 29.7636C36.5118 28.8471 36.07 28.6258 36.0461 28.5231C36.0303 28.4601 36.1488 28.1278 36.3146 27.7881C36.4728 27.4483 36.7645 26.8326 36.9543 26.4216C37.1516 26.0106 37.5783 25.1338 37.9105 24.4858C38.2345 23.8303 38.7161 22.8823 38.9688 22.3686C39.3716 21.5706 39.4586 21.4446 39.5928 21.4836C39.6806 21.5196 40.4156 21.8593 41.2286 22.2538ZM13.7306 27.6493C14.1573 27.7993 14.5758 27.9651 14.6628 28.0048C14.8525 28.0918 17.4828 29.1583 18.6123 29.6008C20.6111 30.3831 23.0996 31.5043 24.9318 32.4448C25.3661 32.6661 25.9113 32.9428 26.1408 33.0531C26.3621 33.1558 26.5518 33.2818 26.5518 33.3216C26.5518 33.3688 26.3778 33.7243 26.1648 34.1196C25.9518 34.5148 25.5408 35.2963 25.2483 35.8656C24.9558 36.4266 24.6873 36.9238 24.6558 36.9711C24.4743 37.2081 21.4405 43.1961 20.9905 44.1988C20.6035 45.0598 20.5563 45.1626 20.0823 46.2606C19.4973 47.6353 19.126 48.3853 19.0473 48.3853C18.976 48.3853 18.2096 48.0058 15.5321 46.6633C9.33856 43.5591 5.26304 41.4973 5.23904 41.4733C5.20754 41.4418 5.57055 40.7308 5.7843 40.4068C5.85555 40.2966 6.2028 39.6403 6.56655 38.9451C6.92955 38.2498 7.24605 37.6416 7.27755 37.6018C7.30905 37.5546 7.57756 37.0566 7.87006 36.4956C8.16256 35.9271 8.54129 35.2078 8.71529 34.8921C8.88929 34.5838 8.99955 34.3236 8.96805 34.3236C8.93655 34.3236 8.96804 34.2606 9.03104 34.1811C9.14954 34.0468 9.65506 33.1461 10.0263 32.4036C10.1291 32.1981 10.2393 32.0323 10.2716 32.0481C10.2948 32.0638 10.714 32.2693 11.188 32.5063C11.6695 32.7433 12.1991 33.0036 12.3731 33.0748C12.5471 33.1461 12.9183 33.3036 13.2025 33.4146C13.4868 33.5331 13.8581 33.6913 14.0321 33.7701C14.2061 33.8488 14.956 34.1728 15.691 34.4811C16.4335 34.7893 17.2233 35.1291 17.4528 35.2393C17.6815 35.3421 17.8871 35.4291 17.9111 35.4291C17.9508 35.4291 18.172 35.5236 18.9303 35.8633C19.0645 35.9188 19.444 36.0921 19.7838 36.2503C20.1235 36.4086 20.4236 36.5346 20.4393 36.5346C20.4708 36.5346 20.8106 36.6771 21.3791 36.9298C22.0113 37.2141 22.2873 37.3251 22.3428 37.3251C22.3743 37.3251 22.5086 37.3806 22.6271 37.4436C23.1881 37.7361 24.0408 37.8861 24.1436 37.7203C24.2778 37.5073 23.8983 37.2148 22.8798 36.7251C22.2956 36.4483 21.8058 36.2196 21.7818 36.2196C21.766 36.2196 21.3393 36.0223 20.842 35.7853C20.344 35.5483 19.9181 35.3511 19.9023 35.3511C19.8783 35.3511 19.5228 35.1928 19.1201 35.0038C18.4488 34.6956 17.3193 34.1983 16.0075 33.6373C15.7465 33.5271 15.3123 33.3373 15.0355 33.2106C14.7588 33.0838 14.5143 32.9818 14.4903 32.9818C14.4746 32.9818 14.2218 32.8708 13.9376 32.7448C13.6608 32.6106 13.4163 32.5078 13.4006 32.5078C13.3766 32.5078 12.8711 32.2866 12.1368 31.9551C12.0498 31.9153 11.71 31.7578 11.3785 31.6078C11.047 31.4653 10.7546 31.3078 10.7306 31.2763C10.6833 31.1976 10.7463 31.0708 11.4491 29.7441C11.7101 29.2461 12.0573 28.5831 12.223 28.2823C12.634 27.4926 12.721 27.3741 12.847 27.3741C12.9093 27.3726 13.3046 27.4993 13.7306 27.6493ZM36.2441 29.8693C36.5838 30.0276 37.2633 30.3433 37.7448 30.5803C38.2345 30.8173 38.653 31.0071 38.677 31.0071C38.701 31.0071 39.1983 31.2358 39.7908 31.5208C40.3833 31.8051 40.8805 32.0346 40.897 32.0346C40.9128 32.0346 41.4025 32.2641 41.9793 32.5326C42.5478 32.8093 43.18 33.1093 43.3773 33.2038C46.7583 34.7443 49.3015 35.9683 49.3015 36.0396C49.294 36.1183 48.9063 36.8451 48.109 38.2753C47.7775 38.8596 47.3425 39.6576 47.1295 40.0528C46.8138 40.6528 46.5843 41.0406 46.4816 41.1906C46.4733 41.2063 46.3315 41.1591 46.1658 41.0803C44.7993 40.4563 44.3095 40.2351 44.0095 40.1323C43.8595 40.0768 43.4568 39.9036 43.1171 39.7453C42.7773 39.5871 42.4848 39.4611 42.469 39.4611C42.4533 39.4611 42.2163 39.3583 41.9396 39.2316C41.6628 39.1056 40.984 38.7973 40.4148 38.5521C39.8538 38.3068 39.277 38.0548 39.1353 37.9911C39.001 37.9281 38.8743 37.8808 38.851 37.8808C38.827 37.8808 38.4955 37.7383 38.1243 37.5651C37.753 37.3911 37.429 37.2493 37.4058 37.2493C37.39 37.2493 36.5448 36.8781 35.5413 36.4281C34.5303 35.9781 33.4796 35.5273 33.2111 35.4328C32.9343 35.3383 32.7131 35.2431 32.7131 35.2273C32.7131 35.1171 35.5098 29.5873 35.557 29.5873C35.5968 29.5851 35.9043 29.7111 36.2441 29.8693ZM32.7213 36.1416C32.887 36.2286 33.4323 36.4731 33.9221 36.6868C34.4036 36.8998 35.3043 37.2951 35.9125 37.5636C36.5208 37.8321 37.1291 38.0931 37.2558 38.1561C37.7298 38.3616 39.1676 38.9773 39.9416 39.3013C40.3683 39.4828 40.8656 39.6966 41.0471 39.7753C41.6313 40.0438 43.0143 40.6281 44.1281 41.0788C44.7363 41.3241 45.3445 41.5686 45.4713 41.6241C45.6055 41.6871 45.7871 41.7583 45.8898 41.7898C45.9843 41.8138 46.0638 41.8768 46.0638 41.9158C46.0638 41.9871 45.7323 42.6268 45.2268 43.5276C45.1323 43.7016 44.911 44.1118 44.737 44.4358C44.0418 45.7476 44.0658 45.7078 43.852 45.6606C43.7418 45.6291 43.4411 45.5106 43.1808 45.3921C42.604 45.1236 42.3273 45.0126 41.2061 44.5866C39.4601 43.9228 37.2483 42.9673 34.8708 41.8611C34.555 41.7111 34.2783 41.5926 34.2626 41.5926C34.2386 41.5926 33.8598 41.4186 33.4091 41.2056C32.9591 40.9926 32.2953 40.6843 31.924 40.5103C30.2335 39.7123 30.2178 39.7048 30.4151 39.4911C30.4548 39.4513 30.826 38.7561 31.2445 37.9431C32.1685 36.1581 32.2638 35.9841 32.3425 35.9841C32.3733 35.9833 32.5473 36.0546 32.7213 36.1416ZM30.6671 40.7706C31.7891 41.3158 32.602 41.6946 35.6755 43.0933C35.8968 43.1961 36.3708 43.4173 36.7421 43.5913C38.2586 44.2941 39.4833 44.8078 40.9683 45.3448C42.7773 46.0086 43.6143 46.3483 43.6143 46.4188C43.6143 46.4743 43.1245 47.3908 41.758 49.9258C41.3868 50.6128 41.2053 50.9526 40.1231 52.9671C39.6416 53.8596 39.0806 54.8863 38.8751 55.2576C38.6696 55.6288 38.2901 56.3316 38.0373 56.8213C37.7928 57.3111 37.5558 57.7296 37.516 57.7536C37.4763 57.7776 37.4058 57.7618 37.3503 57.7221C37.2948 57.6823 36.1893 57.1056 34.8858 56.4426C25.8176 51.8451 24.838 51.3471 24.64 51.2766C24.5613 51.2526 24.4975 51.1821 24.4975 51.1183C24.4975 50.9841 24.9401 50.0203 25.1298 49.7278C25.2086 49.6168 25.8805 48.3216 26.6305 46.8448C27.3813 45.3673 28.0211 44.1193 28.0526 44.0803C28.0841 44.0331 28.4478 43.3453 28.8663 42.5398C29.9486 40.4383 29.9245 40.4863 30.0198 40.4863C30.0513 40.4863 30.3431 40.6123 30.6671 40.7706Z" stroke="currentColor" mask="url(#path-1-outside-1_3392_10168)"/>
</svg>
