<svg width="60" height="60" viewBox="0 0 60 60" fill="none" xmlns="http://www.w3.org/2000/svg">
<g clip-path="url(#clip0_8252_5871)">
<path fill-rule="evenodd" clip-rule="evenodd" d="M31.6827 1.78277C31.2927 1.95609 31.0782 2.11089 30.9429 2.30976C30.7743 2.5493 30.4697 3.41786 30.4067 3.81703C30.3666 4.08084 30.3224 4.15218 30.2101 4.14809C30.1363 4.14855 29.7383 4.17346 29.3349 4.2144C28.0717 4.33555 27.2619 4.82528 27.023 5.61327C26.9063 5.99607 27.0075 6.99378 27.2039 7.3962C27.4195 7.84172 27.4076 7.93936 27.118 8.22779C26.7335 8.60046 26.5892 8.93397 26.6324 9.35967C26.6892 9.84312 26.9281 10.2271 27.3763 10.5519L27.7594 10.8242L27.3772 11.4416C26.6499 12.605 25.7585 13.6077 25.035 14.0739C24.6093 14.3396 23.6674 14.7688 23.2408 14.879C22.9589 14.9519 22.3564 15.1539 21.5412 15.4442C20.7468 15.7248 19.6068 16.2558 19.0986 16.5819C18.5063 16.9531 17.4952 17.8793 17.097 18.4089C16.4369 19.284 15.6377 20.7588 14.8868 22.4885C14.5022 23.3729 13.5858 25.8162 13.4735 26.2422C13.4376 26.4014 13.3429 26.6335 13.274 26.7594C13.2043 26.8777 13.1516 27.0168 13.1553 27.053C13.1597 27.0969 12.9816 27.6788 12.76 28.3461C12.379 29.4892 12.1612 30.1864 11.9458 30.846C11.7778 31.3818 11.4647 32.4588 11.3158 33.0378C11.2363 33.3499 10.9979 34.2118 10.7761 34.9537C10.4195 36.1908 10.308 36.6251 10.0564 37.7255C10.0033 37.9308 9.93477 38.2052 9.8882 38.336C9.71474 38.8949 9.31083 41.1229 9.27318 41.7715C9.26251 41.9577 9.24722 42.1747 9.23382 42.2577C9.22739 42.34 9.24187 42.8502 9.26698 43.389C9.37711 45.6465 10.017 47.3463 11.3705 48.9954C12.6051 50.4941 14.0123 51.2853 18.4754 52.9674C19.1003 53.208 19.6313 53.3984 19.646 53.3969C19.6683 53.3947 21.1163 53.9298 22.8656 54.5829C24.6073 55.2368 26.3158 55.8489 26.6519 55.9486C29.2097 56.6822 32.5857 57.3631 34.0706 57.4567C35.6441 57.549 37.0064 57.4551 37.7508 57.1944C37.9519 57.1296 38.1884 57.0465 38.2893 57.0215C38.7068 56.8975 40.3902 56.0967 40.8908 55.7713C41.6712 55.2768 41.7808 55.1918 42.9713 54.0623C43.9788 53.1076 45.625 50.5529 46.3922 48.7554C46.8607 47.6703 47.8657 44.9357 48.1614 43.9794C48.3225 43.4513 48.5178 42.8162 48.611 42.5618C48.6964 42.3082 48.8326 41.8945 48.9104 41.6417C48.9882 41.3888 49.2363 40.6154 49.4618 39.9175C49.6804 39.2209 49.9038 38.5014 49.9583 38.31C50.0128 38.1194 50.1419 37.7058 50.2361 37.3921C50.4936 36.5727 50.8831 35.1465 51.0028 34.5712C51.0569 34.2989 51.1756 33.7899 51.2506 33.4339C51.4724 32.4773 51.7454 30.492 51.7602 29.7641C51.7834 29.0423 51.626 27.3457 51.4916 26.8258C51.1781 25.5603 50.6773 24.3504 50.0313 23.3186C49.8545 23.0402 49.5859 22.5853 49.4406 22.3184C49.2952 22.0516 48.8444 21.3407 48.4355 20.7451C47.326 19.093 47.1008 18.5528 47.1074 17.5216C47.1209 16.7044 47.114 16.7128 47.8392 16.6244C48.6091 16.5393 49.0015 16.3136 49.2563 15.8281C49.4237 15.5071 49.4276 15.4693 49.3219 14.8649C49.1911 14.1587 49.1485 14.2524 49.8414 13.7C50.7133 13.011 50.3918 12.035 49.005 11.16C48.7271 10.9805 48.5029 10.8104 48.4984 10.7665C48.5017 10.7289 48.6144 10.5914 48.7642 10.465C49.0435 10.2213 49.7335 8.98771 49.9481 8.32116C50.0227 8.10593 50.0717 7.71521 50.0643 7.41962C50.0573 6.98321 50.0208 6.84543 49.8722 6.62328C49.775 6.46984 49.6317 6.29926 49.5511 6.23353C49.3277 6.07811 45.7215 4.73147 45.2748 4.64376C45.1763 4.62419 44.9703 4.56344 44.8235 4.50443C44.3984 4.33217 43.5421 4.07838 42.7194 3.86552C42.3011 3.75945 41.8052 3.62463 41.6146 3.57007C39.9156 3.04562 37.3124 2.30884 36.6896 2.16439C34.2283 1.5913 32.4133 1.45663 31.6827 1.78277ZM33.8166 2.72272C34.582 2.81539 35.5572 2.99871 36.2346 3.17423C36.5083 3.24288 36.935 3.35513 37.1864 3.41831C37.8715 3.59374 38.6818 3.83743 39.7095 4.17026C40.5989 4.45801 43.1421 5.19383 43.2229 5.18563C43.3477 5.17298 45.9764 6.09229 47.8341 6.79351C48.7986 7.16302 48.8371 7.18095 48.884 7.42115C48.9423 7.70453 48.9001 7.87141 48.5164 8.91131C48.2328 9.69608 48.0034 10.2093 47.8843 10.3544C47.838 10.4112 47.7011 10.373 47.4507 10.2429C47.2463 10.1298 46.8337 9.9345 46.5241 9.80333C46.2136 9.66448 45.7242 9.44737 45.4215 9.31479C45.1264 9.18143 44.6929 9.00298 44.4679 8.90756C44.2428 8.81215 44.0183 8.71597 43.9638 8.69194C43.3447 8.36199 36.9894 5.93717 35.7725 5.56441C34.0597 5.0491 32.8303 4.69872 32.1091 4.5347C31.6923 4.44396 31.3263 4.34736 31.2941 4.32107C31.2311 4.28311 31.563 3.31534 31.7169 3.08432C31.7625 3.02056 31.8629 2.91394 31.9393 2.86185C32.1544 2.70628 33.1042 2.63945 33.8166 2.72272ZM30.5989 5.28065C31.3043 5.36463 32.387 5.58841 32.8622 5.74081C33.0082 5.79286 33.3749 5.89641 33.6648 5.97821C33.9615 6.05157 34.4583 6.20177 34.7726 6.30291C35.0877 6.41171 35.7311 6.61321 36.1894 6.75254C37.062 7.02017 37.6623 7.24082 39.695 8.05731C40.3521 8.32428 41.5717 8.80093 42.3979 9.12465C43.224 9.44837 44.1593 9.8279 44.4636 9.97511C44.774 10.114 45.4033 10.3985 45.8628 10.6116C47.0599 11.1575 47.2166 11.238 47.6121 11.4872C47.8033 11.6163 48.1113 11.7997 48.2988 11.8996C48.7535 12.1428 49.2869 12.5779 49.2703 12.7056C49.2609 12.7586 49.0593 12.9642 48.8201 13.1666C48.1627 13.7007 48.1022 13.8328 48.1724 14.6704C48.2042 15.0529 48.2161 15.3924 48.1953 15.4093C48.1295 15.4899 47.3922 15.5351 47.3548 15.4573C47.3357 15.4148 47.2506 15.3045 47.1594 15.2103C46.9692 15.0149 46.7383 15.0081 46.5777 15.1807C46.4843 15.2866 46.4334 15.2917 46.1567 15.1938C45.9807 15.1378 44.9711 14.9066 43.9175 14.6798C42.8571 14.4615 41.8713 14.2427 41.7267 14.2053C41.5814 14.1609 41.2546 14.0829 41.0032 14.019C40.751 13.9481 40.3928 13.8514 40.202 13.7962C40.0106 13.734 39.5294 13.5977 39.1326 13.4894C38.4852 13.3179 37.881 13.1342 37.0685 12.876C36.9232 12.8316 36.0546 12.527 35.1461 12.1961C32.6765 11.3121 32.3889 11.2525 32.1546 11.5727C31.9791 11.8129 32.1335 12.0936 32.5263 12.2396C32.6962 12.304 32.9612 12.4326 33.1187 12.5279C33.3568 12.6818 36.5025 13.8746 36.6272 13.8619C36.6495 13.8596 36.9693 13.9454 37.3292 14.0575C38.0179 14.2691 38.5384 14.4317 39.2487 14.6334C39.6315 14.7501 40.5596 14.9826 42.0267 15.3447C42.3228 15.4111 42.868 15.5261 43.2387 15.5997C44.38 15.8176 46.163 16.2892 46.1719 16.3769C46.1749 16.4062 46.137 16.6916 46.0882 17.0154C45.952 17.9415 45.992 18.6266 46.2275 19.2622C46.512 20.0196 46.538 20.0536 47.622 21.7526C49.6927 24.9902 50.2256 26.2187 50.4394 28.3249C50.5498 29.3442 50.5236 30.0289 50.3378 31.4859C50.1808 32.6436 49.5793 35.2626 49.1461 36.6186C49.0737 36.8562 49.0145 37.0769 49.0182 37.1138C49.0212 37.143 48.9394 37.4329 48.8314 37.7557C48.7226 38.0708 48.5126 38.7074 48.3748 39.1733C48.2286 39.633 48.0154 40.3071 47.8964 40.6676C47.7774 41.0281 47.5635 41.6946 47.4181 42.162C47.2719 42.6217 47.0121 43.4188 46.841 43.9254C46.663 44.4327 46.4888 44.9839 46.446 45.1445C46.2385 45.9511 44.9367 49.0488 44.5049 49.7599C44.4345 49.8713 44.2386 50.2023 44.0622 50.5095C43.8779 50.8097 43.7193 51.0778 43.7 51.1023C43.68 51.1269 43.5569 51.302 43.4293 51.5007C42.8846 52.3416 41.987 53.3597 41.1967 54.0481C40.5082 54.6445 39.4141 55.2595 38.1951 55.7394C36.6554 56.3475 34.7275 56.4179 32.2125 55.9608C31.3965 55.8134 30.2022 55.5862 29.8677 55.5019C28.7289 55.2394 27.541 54.9299 26.8214 54.7066C25.9028 54.4218 16.8843 51.0291 15.6825 50.514C14.9471 50.2106 13.8387 49.5889 13.3575 49.2302C12.3051 48.4325 11.3425 47.0548 10.831 45.594C10.5725 44.8713 10.3603 42.7797 10.4497 41.8365C10.5589 40.721 10.9212 38.9569 11.3534 37.4447C11.4843 36.9795 11.651 36.3614 11.7328 36.0716C11.8062 35.7748 11.9338 35.3465 12.0069 35.1167C12.08 34.8868 12.2062 34.4517 12.2809 34.1618C12.7525 32.3789 13.4723 30.0449 14.147 28.0787C14.3304 27.5483 14.5985 26.7574 14.7463 26.313C15.0334 25.4166 16.0278 22.869 16.1577 22.6854C16.2033 22.6217 16.332 22.3566 16.439 22.1008C16.8943 21.0311 17.6522 19.7385 18.234 19.0418C19.2184 17.8592 20.4761 17.1016 22.5307 16.4482C24.9813 15.6808 25.7692 15.2672 26.8602 14.1773C27.5134 13.5254 28.0677 12.7793 28.4457 12.0518C28.9842 11.004 28.883 11.1029 29.3218 11.2583C29.7592 11.4068 30.0009 11.3745 30.1187 11.1479C30.1876 11.0219 30.1809 10.9564 30.0922 10.8169C29.9506 10.5941 29.203 10.2398 28.9243 10.2681C28.6164 10.2994 28.3121 10.1522 28.0193 9.8264C27.6528 9.42647 27.661 9.29189 28.0973 8.84005C28.6001 8.31459 28.6526 7.81231 28.2823 7.15302C28.091 6.80147 28.0143 6.04551 28.1445 5.79509C28.3761 5.36543 29.4281 5.14042 30.5989 5.28065Z" fill="currentColor"/>
<path fill-rule="evenodd" clip-rule="evenodd" d="M31.0177 7.41745C30.7956 7.566 30.8598 7.90792 31.144 8.07899C31.5387 8.31345 35.4499 9.81428 36.537 10.1566C38.3435 10.7145 39.3507 10.998 39.6899 11.0523C39.9753 11.0902 40.0261 11.0773 40.152 10.9315C40.2502 10.8032 40.2705 10.7118 40.2195 10.5762C40.1463 10.3689 39.7821 10.213 38.1186 9.67016C37.5736 9.48824 36.4444 9.09885 35.6205 8.79672C34.0725 8.22738 33.0725 7.8692 33.0055 7.86825C32.9833 7.87051 32.7303 7.78498 32.4313 7.68933C31.4027 7.34109 31.1989 7.30263 31.0177 7.41745Z" fill="currentColor"/>
<path fill-rule="evenodd" clip-rule="evenodd" d="M42.7926 11.8126C42.5391 12.165 42.8101 12.3522 44.5539 13.0206C45.6875 13.4539 45.9407 13.4655 46.0242 13.1163C46.0968 12.8049 45.8972 12.6696 44.5469 12.1471C43.1966 11.6245 42.9689 11.5801 42.7926 11.8126Z" fill="currentColor"/>
<path fill-rule="evenodd" clip-rule="evenodd" d="M19.4513 20.6625C19.1282 21.0585 17.1962 25.9849 16.1522 29.0641C16.0791 29.2939 15.8949 29.8166 15.7574 30.2163C15.5281 30.8773 15.3175 31.5069 14.5481 33.9346C13.9251 35.9033 13.4158 38.1195 13.1445 40.0455C12.8488 42.1738 12.8185 42.8956 13.0113 43.2618C13.2055 43.6426 13.4224 43.4425 13.4582 42.8454C13.4696 42.6662 13.603 41.934 13.7531 41.2219C13.9025 40.5021 14.0535 39.7977 14.0763 39.6546C14.1367 39.3 14.4891 37.7297 14.6014 37.303C14.7416 36.7848 15.507 34.1717 15.6205 33.8265C16.4547 31.3098 17.0367 29.6642 17.908 27.3669C19.0734 24.3126 19.1782 24.0275 19.5604 22.9729C20.303 20.94 20.3367 20.7592 20.0858 20.5545C19.9063 20.4017 19.6221 20.4523 19.4513 20.6625Z" fill="currentColor"/>
<path fill-rule="evenodd" clip-rule="evenodd" d="M29.6951 21.8019C29.2996 21.9976 28.8123 22.5293 28.6422 22.9689C28.1033 24.38 28.7366 26.4584 30.3182 28.4554C30.8454 29.1213 31.5385 29.6661 31.9321 29.7444C32.4235 29.8354 32.7659 29.6303 33.499 28.8217C35.1258 27.0257 35.4914 26.536 36.0392 25.4351C36.7288 24.0453 36.7782 22.1946 36.1415 21.6215C35.3743 20.9286 33.8132 21.472 33.1713 22.6719L32.9087 23.1504L32.5492 22.7498C31.7212 21.8188 30.5014 21.4167 29.6951 21.8019ZM31.0323 22.7784C31.4165 22.9844 31.6413 23.1537 32.1837 23.6773C32.7237 24.1786 32.939 24.2532 33.2198 24.0241C33.4868 23.8041 33.5386 23.732 33.7032 23.3077C34.0509 22.427 34.9286 21.8713 35.4863 22.1779C35.6598 22.2785 35.6713 22.3224 35.6912 22.8096C35.7267 23.8886 35.2488 25.0268 34.2039 26.3485C33.5207 27.2111 32.1589 28.6987 32.0342 28.7113C31.8872 28.7262 31.0759 27.8893 30.683 27.3062C29.1845 25.1079 28.9802 23.164 30.1977 22.6695C30.4482 22.5709 30.7035 22.6041 31.0323 22.7784Z" fill="currentColor"/>
<path fill-rule="evenodd" clip-rule="evenodd" d="M23.5925 24.9269C23.4514 25.0003 23.2772 25.1074 23.2238 25.1642C23.0091 25.3859 22.8205 25.8647 22.8015 26.2601C22.7737 26.7148 22.8147 26.9036 23.0319 27.5045C23.1143 27.7333 23.1651 27.9429 23.1458 27.9673C23.1257 27.9919 22.9326 27.989 22.7148 27.959C21.0848 27.7534 19.9042 28.2442 19.7271 29.204C19.5626 30.0661 20.2991 31.1852 21.4122 31.7839C22.3455 32.2896 23.979 32.8207 24.8706 32.916C25.0953 32.9376 25.3653 32.9693 25.4707 32.9811C25.5753 32.993 26.1078 32.9756 26.6529 32.9428C27.5589 32.8882 27.6835 32.8678 27.9773 32.6972C28.4399 32.4349 28.5316 32.1665 28.3994 31.4535C28.2764 30.7543 27.918 29.775 27.2497 28.3083C25.9136 25.3734 24.8088 24.3508 23.5925 24.9269ZM24.7138 26.0435C25.3177 26.5904 26.0033 27.9364 26.8116 30.1308C26.9763 30.5808 27.1348 31.0469 27.169 31.1694C27.2025 31.2843 27.2573 31.4568 27.2809 31.5438C27.3129 31.637 27.3065 31.7263 27.2725 31.7523C27.1629 31.8373 25.1038 31.7872 24.5601 31.6869C24.0009 31.5803 22.4391 31.0201 21.9752 30.7631C21.5812 30.5363 21.1823 30.184 21.0354 29.9019C20.6079 29.1224 21.1697 28.8873 23.1185 29.0232C24.1787 29.0937 24.4251 29.0391 24.517 28.7031C24.5646 28.5132 24.4597 28.1381 24.3039 27.9906C24.1383 27.8223 23.8164 26.987 23.7685 26.5843C23.7002 26.0577 23.8259 25.7627 24.1338 25.7314C24.2955 25.715 24.4361 25.7901 24.7138 26.0435Z" fill="currentColor"/>
<path fill-rule="evenodd" clip-rule="evenodd" d="M39.4978 24.96C38.7736 25.4192 38.4506 26.4748 38.5693 28.012C38.6687 29.3591 38.9279 30.3035 39.6426 31.9435C40.0077 32.7667 40.062 32.8646 40.6988 33.8749C41.5286 35.1844 41.8861 35.2741 42.7134 34.3673C44.7688 32.1202 45.8414 30.7802 46.5519 29.596C47.2871 28.3648 47.6202 27.4856 47.5901 26.8214C47.5703 26.3342 47.5695 26.3265 47.2526 26.0546C46.9672 25.802 46.8987 25.7794 46.4909 25.7834C45.9422 25.787 45.422 25.9884 44.6416 26.4829C44.0285 26.871 43.14 27.6883 42.7557 28.2087C42.6251 28.3853 42.4999 28.5388 42.4853 28.5403C42.4706 28.5418 42.4138 28.273 42.3503 27.9388C41.9975 25.9952 41.6283 25.2837 40.7891 24.9015C40.2768 24.6733 39.9296 24.686 39.4978 24.96ZM40.6493 25.9997C41.0664 26.4543 41.3456 27.3818 41.6836 29.4015C41.7229 29.6425 41.7641 29.972 41.7812 30.1406C41.8415 30.7349 42.1878 30.7145 42.5116 30.1038C43.1685 28.8285 44.0662 27.8181 45.098 27.1721C45.9208 26.6585 46.6565 26.4579 46.714 26.7336C46.8465 27.3797 45.904 29.1288 44.4233 30.9769C43.5941 32.0099 42.0203 33.8154 41.9125 33.8488C41.7831 33.8915 41.0017 32.6144 40.6138 31.7197C39.6005 29.4053 39.2756 26.9324 39.8619 26.0648C40.0953 25.7293 40.3818 25.7079 40.6493 25.9997Z" fill="currentColor"/>
<path fill-rule="evenodd" clip-rule="evenodd" d="M48.5137 28.3153C48.4564 28.4098 48.3863 28.6689 48.3953 28.7574C48.4035 28.8382 48.1981 29.9564 48.0856 30.4571C47.8465 31.5344 47.2036 33.8901 46.8405 34.9948C46.7387 35.3092 46.5364 35.945 46.391 36.4123C46.1281 37.2548 45.0384 40.3971 44.7938 41.0597C44.3078 42.3324 43.9887 43.1356 43.6638 43.8802C43.459 44.3458 43.1767 44.9975 43.0387 45.3156C42.9006 45.6337 42.7625 45.9517 42.7316 46.014C42.6936 46.077 42.6153 46.256 42.5563 46.4098C42.4896 46.5573 42.2998 46.9476 42.1255 47.2764C41.9582 47.5975 41.8194 47.9156 41.8176 47.9672C41.7934 48.5335 42.3757 48.5701 42.7662 48.0342C42.9727 47.7317 44.0312 45.5928 44.4184 44.6638C44.8442 43.6717 46.4486 39.3939 46.724 38.5283C46.8484 38.1447 47.0242 37.6158 47.115 37.3391C48.1181 34.2943 48.9377 31.1196 49.056 29.8025C49.1207 29.1216 49.0524 28.3796 48.9234 28.2737C48.7958 28.1677 48.598 28.1955 48.5137 28.3153Z" fill="currentColor"/>
<path fill-rule="evenodd" clip-rule="evenodd" d="M30.3066 31.3256C29.7676 31.6401 29.4181 32.3576 29.3309 33.3301C29.2566 34.131 29.5319 36.4752 29.7871 37.2426C30.1597 38.3543 30.492 39.0765 31.0056 39.8994C31.5283 40.7361 32.0408 40.9656 32.6439 40.6306C32.771 40.5656 32.9153 40.4545 32.9687 40.3977C33.0213 40.3333 33.1633 40.1929 33.2706 40.0855C33.3864 39.9851 33.5941 39.7634 33.7402 39.6C33.9921 39.3077 34.7595 38.54 36.1263 37.1779C36.8737 36.4348 37.3088 35.9014 37.7723 35.135C38.5029 33.9339 38.5635 33.0675 37.9639 32.4167C37.1404 31.5367 35.2591 32.1351 33.6474 33.7889C33.4126 34.0351 33.2884 34.1216 33.2595 34.0584C33.2396 34.0083 33.1374 33.7301 33.0414 33.4428C32.9385 33.1569 32.8316 32.908 32.7924 32.8895C32.7532 32.8709 32.7158 32.7938 32.7076 32.7129C32.6994 32.6321 32.594 32.3979 32.4708 32.2034C31.8738 31.211 31.0546 30.8795 30.3066 31.3256ZM31.3083 32.2841C31.4465 32.4038 31.6044 32.5729 31.658 32.6639C31.8411 32.9346 32.5602 34.8333 32.6665 35.2976C32.7771 35.8052 32.7863 35.819 33.018 35.8406C33.1449 35.8502 33.2453 35.7436 33.4951 35.3543C34.2681 34.1271 35.6876 33.0708 36.7138 32.9519C37.0141 32.9143 37.1349 32.9387 37.2646 33.0445C37.9115 33.5722 37.0366 35.1061 34.9585 37.0599C33.9294 38.0245 33.8962 38.0645 33.9651 38.1539C33.9911 38.1886 33.9703 38.2055 33.9095 38.1891C33.8487 38.1728 33.6212 38.3444 33.3726 38.5998C32.5054 39.4811 32.2052 39.734 32.0938 39.6637C31.8789 39.5151 31.3727 38.5508 31.0617 37.6778C30.6463 36.5043 30.5729 36.1485 30.4249 34.6213C30.3202 33.5127 30.3224 33.3196 30.4306 32.9229C30.5538 32.4578 30.7774 32.1014 30.9606 32.0828C31.0128 32.0768 31.1703 32.1721 31.3083 32.2841Z" fill="currentColor"/>
<path fill-rule="evenodd" clip-rule="evenodd" d="M20.0938 33.6983C19.385 33.9483 18.5379 35.0204 18.2475 36.0354C18.1984 36.2107 18.131 36.3513 18.0948 36.355C18.0655 36.3579 17.8344 36.2033 17.578 36.0146C17.0322 35.6026 16.8848 35.5366 16.4816 35.5107C16.0576 35.4946 15.7184 35.662 15.4448 36.0312C15.1262 36.4711 15.0358 36.8216 15.0946 37.4013C15.2487 38.9202 16.9999 42.0051 18.2907 43.0306C18.9194 43.5307 19.2922 43.6181 19.6941 43.3479C19.8962 43.2162 19.9567 43.084 20.3564 41.8348C20.4863 41.4359 20.6751 40.8832 20.7731 40.6065C20.871 40.3297 20.9939 39.9315 21.047 39.7262C21.0923 39.514 21.189 39.1557 21.2551 38.9266C21.6222 37.5773 21.9574 35.623 21.9053 35.1095C21.7876 33.9565 21.0316 33.3736 20.0938 33.6983ZM20.6944 34.5045C20.8628 34.5543 21.0664 34.8821 21.0587 35.0976C21.0538 35.1945 21.0436 35.4623 21.036 35.6785C21.0341 36.0271 20.6599 37.8889 20.4832 38.4854C20.4497 38.5923 20.3338 38.9828 20.2239 39.3642C19.9047 40.4567 19.2043 42.322 19.1019 42.3324C18.9479 42.348 18.4059 41.7582 17.8499 40.9545C17.555 40.5325 17.2425 40.082 17.1644 39.971C17.0786 39.8537 17.0059 39.7274 16.9876 39.6926C16.9755 39.6495 16.8044 39.2741 16.6119 38.841C16.0305 37.5654 15.9446 36.5732 16.4142 36.5255C16.502 36.5166 16.8576 36.7325 17.2191 37.0069C18.0059 37.6021 18.3156 37.7333 18.5632 37.5378C18.652 37.462 18.7434 37.2676 18.7771 37.0861C18.8755 36.4461 19.2845 35.6556 19.8276 35.0219C20.2526 34.5346 20.4208 34.4366 20.6944 34.5045Z" fill="currentColor"/>
<path fill-rule="evenodd" clip-rule="evenodd" d="M37.6214 36.4272C36.9346 36.7489 36.5254 37.6062 36.5806 38.5938C36.6352 39.4999 37.0804 40.7449 37.7227 41.7398C38.0756 42.2974 39.1791 43.6756 39.463 43.9136C39.796 44.1986 40.1206 44.2544 40.4828 44.0994C40.6879 44.0046 41.6668 42.8375 42.3141 41.9046C42.3915 41.7933 42.5345 41.5929 42.6257 41.4654C43.7306 39.937 44.4625 38.3057 44.3953 37.4974C44.3511 36.9162 44.3107 36.8091 44.0644 36.5744C43.3441 35.9063 42.129 36.3484 40.7758 37.7753C40.5681 37.9893 40.3566 38.174 40.3128 38.1785C40.2689 38.1829 40.2222 38.0912 40.2104 37.9742C40.1776 37.6509 39.8228 37.0055 39.5274 36.7237C38.9935 36.214 38.3005 36.1063 37.6214 36.4272ZM38.7459 37.4991C39.0053 37.7178 39.3587 38.5716 39.5122 39.3487C39.674 40.2143 39.8679 40.2248 40.5325 39.3937C41.5921 38.0705 42.2842 37.5181 43.2278 37.2442C43.509 37.1636 43.5215 37.8001 43.2637 38.471C43.1526 38.7638 42.9843 39.1519 42.8921 39.3393C42.6388 39.8395 41.4851 41.4763 40.7741 42.3565L40.1466 43.117L39.9378 42.9602C39.7129 42.7901 38.9224 41.7216 38.4924 40.9937C38.1097 40.3653 37.7702 39.5029 37.6553 38.8839C37.5685 38.3957 37.5719 38.2842 37.6953 37.9605C37.9284 37.3371 38.3338 37.163 38.7459 37.4991Z" fill="currentColor"/>
<path fill-rule="evenodd" clip-rule="evenodd" d="M24.1549 38.2076C23.9491 38.2953 23.1883 39.1285 22.9808 39.498C22.5195 40.2861 22.1624 41.6646 21.9954 43.2309C21.8729 44.4371 22.2135 46.3299 22.6593 46.9224C22.9497 47.3005 23.215 47.3552 24.2267 47.2455C26.2059 47.0221 27.2158 46.7493 28.6155 46.0737C30.121 45.35 30.8658 44.7261 31.1522 43.9629C31.2796 43.6092 31.2893 43.4893 31.2156 43.2004C30.9932 42.3262 30.3683 41.8631 29.2037 41.7145C28.3245 41.5961 27.2318 41.7886 26.434 42.1807C26.2721 42.264 26.2567 42.2578 26.2894 42.1433C26.4101 41.7235 26.5476 40.6713 26.517 40.3703C26.4061 39.2771 25.6371 38.1986 24.9079 38.1016C24.5555 38.0627 24.4677 38.0717 24.1549 38.2076ZM24.9709 39.2292C25.5341 39.7359 25.6653 40.5158 25.3951 41.6547C24.9932 43.3194 24.9602 43.5079 25.0676 43.616C25.2241 43.7704 25.4044 43.7156 26.0259 43.3407C27.171 42.6458 28.2877 42.3995 29.282 42.6245C29.828 42.7472 30.2755 43.0649 30.3046 43.3513C30.3947 44.2389 27.8875 45.6133 25.2831 46.1071C24.9043 46.1751 23.771 46.3274 23.5124 46.3388C23.2831 46.3473 22.9702 44.4292 23.0375 43.4137C23.1401 41.7203 23.6604 40.1252 24.358 39.328C24.5975 39.0594 24.7508 39.0368 24.9709 39.2292Z" fill="currentColor"/>
<path fill-rule="evenodd" clip-rule="evenodd" d="M34.4187 42.6233C33.3797 43.1215 32.7808 43.8721 32.196 45.4139C31.4257 47.4644 31.1163 49.7497 31.5186 50.5022C31.7281 50.8885 31.9396 50.9262 33.3169 50.7646C36.2185 50.4258 37.9047 49.9428 39.2814 49.0471C40.3457 48.3605 40.8455 47.5833 40.7591 46.7319C40.6593 45.7488 39.938 45.14 38.8936 45.1566C38.3834 45.171 37.5199 45.4297 37.1157 45.6854C36.9762 45.7735 36.8497 45.8384 36.8328 45.8176C36.809 45.8052 36.8769 45.5238 36.978 45.2024C37.2239 44.4067 37.2164 43.8957 36.9707 43.3054C36.7477 42.7868 36.4055 42.4878 35.9379 42.4093C35.5087 42.3346 34.8142 42.4346 34.4187 42.6233ZM35.7753 43.3528C36.1375 43.4125 36.3104 43.9511 36.1843 44.6086C36.1209 44.9339 35.675 46.1653 35.4276 46.7239C35.3547 46.8799 35.3389 47.0222 35.3892 47.1502C35.4432 47.315 35.497 47.3391 35.7172 47.3168C35.8858 47.2997 36.0346 47.2255 36.1536 47.0874C36.2533 46.9738 36.4213 46.8751 36.5384 46.8632C36.6485 46.852 36.9244 46.7206 37.1543 46.5783C37.8931 46.1105 38.8119 45.8913 39.4 46.0611C39.6284 46.1196 39.885 46.4567 39.9133 46.7354C39.9506 47.1026 39.6973 47.6027 39.2936 47.933C38.569 48.533 36.8799 49.2085 35.4738 49.4546C34.3589 49.6494 33.9438 49.7211 33.1561 49.8454L32.3615 49.9781L32.3614 49.5403C32.3665 49.1541 32.4141 48.7416 32.5437 47.9725C32.7069 47.0218 33.2482 45.343 33.5826 44.7678C33.7916 44.4129 34.2884 43.836 34.5252 43.6789C34.9209 43.41 35.3838 43.2961 35.7753 43.3528Z" fill="currentColor"/>
<path fill-rule="evenodd" clip-rule="evenodd" d="M14.1231 46.8393C13.991 47.0012 14.0257 47.1976 14.1985 47.2913C14.3559 47.3788 15.086 47.4905 15.1477 47.4399C15.1893 47.4132 15.2194 47.4179 15.2231 47.4548C15.2298 47.521 16.0867 47.6339 16.7261 47.6507C18.0935 47.6823 18.9757 47.83 20.6772 48.3028C21.692 48.5855 24.4482 49.5884 25.4963 50.0599C25.776 50.1871 26.1249 50.3368 26.2717 50.3965C26.4193 50.4632 26.9025 50.6957 27.3466 50.9104C27.7915 51.132 28.2125 51.3343 28.2831 51.3714C28.36 51.4009 28.5251 51.4877 28.6512 51.5643C29.2004 51.8647 31.9001 52.9697 32.0618 52.9533C32.1203 52.9473 32.1672 52.9722 32.1701 53.0014C32.1783 53.0822 33.6457 53.5858 34.6653 53.8456C35.8986 54.1653 36.9751 54.1821 37.9681 53.8814C38.9326 53.5984 39.802 52.9611 39.7633 52.58C39.7358 52.3083 39.5448 52.3276 38.8511 52.65C38.2499 52.9335 38.1421 52.9669 37.2537 53.0571C36.5417 53.1294 36.1861 53.1282 35.8461 53.0662C34.2881 52.7647 30.8685 51.5025 28.8758 50.4969C28.7275 50.4232 28.305 50.2064 27.9378 50.0212C26.3045 49.1937 23.3097 47.9554 22.0189 47.5824C21.1855 47.3333 19.0056 46.8204 18.7133 46.7909C18.6094 46.7866 18.4733 46.7632 18.4132 46.7545C18.2987 46.7217 18.024 46.7201 17.0758 46.7269C16.8088 46.7244 16.1694 46.7076 15.6477 46.6789C14.4639 46.6189 14.2877 46.6367 14.1231 46.8393Z" fill="currentColor"/>
</g>
<defs>
<clipPath id="clip0_8252_5871">
<rect width="60" height="60" fill="white"/>
</clipPath>
</defs>
</svg>
