<svg width="326" height="296" viewBox="0 0 326 296" fill="none" xmlns="http://www.w3.org/2000/svg">
<path fill-rule="evenodd" clip-rule="evenodd" d="M129.211 51.5889C113.095 55.1897 101.701 60.5717 97.3733 66.6077C95.6081 69.0644 95.2913 71.5782 96.5248 73.3852C97.577 74.92 98.5557 75.7445 100.391 76.6245C102.79 77.7421 106.03 78.4277 110.152 78.6529C112.203 78.7781 112.315 78.7608 116.426 78.6392C122.236 78.4409 134.993 75.9163 140.192 73.9541C140.726 73.7328 142.751 73.0014 144.714 72.3037C154.603 68.7338 161.327 63.8157 162.601 59.2036C163.038 57.6953 162.709 55.8394 161.841 54.5786C159.437 51.2065 151.394 49.3569 142.076 50.0251C141.22 50.0866 140.333 50.1086 140.148 50.0907C139.704 50.0178 130.577 51.2857 129.211 51.5889ZM143.565 52.8167C154.174 52.5054 160.867 54.892 159.689 58.5602C159.104 60.4158 155.901 63.4208 152.273 65.5137C150.897 66.3061 144.577 69.3723 143.073 69.9528C141.681 70.516 137.811 71.6929 136.013 72.1333C135.224 72.3256 134.237 72.5705 133.821 72.6808C133.406 72.7912 130.865 73.2998 128.185 73.8055C119.414 75.4356 111.359 75.7262 105.465 74.5889C98.3948 73.2382 97.1647 70.4773 101.711 66.195C106.06 62.1086 115.546 57.8792 125.851 55.4545C127.543 55.0546 129.275 54.6244 129.69 54.514C131.666 54.0219 140.772 52.8985 143.565 52.8167Z" fill="#053B4A"/>
<path fill-rule="evenodd" clip-rule="evenodd" d="M243.972 49.1326C240.81 50.4044 238.77 51.989 235.699 55.4685C233.86 57.5776 232.524 59.5633 230.997 62.4566C227.424 69.2493 225.872 73.3715 224.585 79.3739C224.172 81.2881 223.783 82.9417 223.709 83.0452C223.635 83.1488 223.323 82.7795 223.005 82.229C220.943 78.5678 215.815 73.3204 211.494 70.4694C208.708 68.6319 205.053 66.6488 205.109 66.9871C205.124 67.077 204.949 66.9875 204.719 66.8385C204.508 66.6623 203.623 66.267 202.747 65.9384C194.143 62.6806 183.64 63.6488 174.755 68.4804C171.958 70.0211 169.794 71.5543 170.043 71.8169C170.158 71.9617 170.125 72.0349 169.909 71.9757C169.11 71.822 164.015 76.304 160.52 80.2394C158.484 82.5413 155.244 86.9227 153.795 89.3189C151.972 92.3499 147.908 100.584 146.574 103.956C146.06 105.26 144.844 108.8 144.356 110.403L143.828 112.172L143.142 111.329C137.489 104.406 131.114 99.1878 122.361 94.3349C114.591 90.0489 106.454 87.5536 97.6415 86.756C89.9625 86.0631 80.0491 87.9791 73.5691 91.3787C70.5107 93.0055 67.1687 95.3917 65.2806 97.3459C59.338 103.438 57.1162 110.278 58.0321 119.549L58.2704 121.962L56.5422 120.469C53.5134 117.859 49.3707 115.119 45.9962 113.442C43.7655 112.351 42.0874 111.568 41.9756 111.585C41.9081 111.595 41.4205 111.394 40.902 111.149C39.6387 110.532 34.4079 108.932 32.141 108.448C25.5572 107.078 20.2874 107.587 17.0709 109.907C14.7689 111.556 13.6485 113.601 13.3907 116.6C13.1887 118.967 13.8382 121.526 15.4389 124.448C17.1819 127.695 18.5581 129.126 23.0187 132.417C26.207 134.748 29.0811 136.434 33.0767 138.27C34.5282 138.925 35.7261 139.551 35.7409 139.641C35.7597 139.754 35.2369 139.903 34.5934 140.002C32.1715 140.374 29.5686 142.139 28.0383 144.453C26.7996 146.332 26.4788 147.56 26.7422 149.3C27.0624 151.24 27.8303 152.301 30.0347 153.927C33.4032 156.393 38.0055 157.489 42.4081 156.836C44.2751 156.55 44.8829 156.641 44.3045 157.147C43.8459 157.54 42.8041 160.337 42.6606 161.538C42.4724 163.163 42.9042 165.779 43.549 166.789C44.5194 168.396 46.9188 169.669 49.541 169.96C51.7496 170.223 56.8122 169.559 59.1328 168.717C63.9051 166.989 68.8073 163.139 73.494 157.446C74.1569 156.626 74.7149 156.009 74.7666 156.047C74.8183 156.085 75.698 157.129 76.7248 158.383C81.3005 163.878 86.634 169.416 91.501 173.779C92.3017 174.489 93.451 175.515 94.0447 176.071C96.6585 178.513 103.156 183.921 105.964 186.034C109.344 188.566 112.443 190.635 117.446 193.75C119.247 194.861 121.662 196.386 122.783 197.092C123.928 197.819 127.285 199.799 130.254 201.495C135.264 204.378 136.82 205.25 139.77 206.832C140.396 207.175 141.626 207.864 142.485 208.379C143.345 208.895 145.358 210.041 146.966 210.951C148.593 211.834 150.608 213.004 151.467 213.52C153.543 214.773 155.674 215.811 156.008 215.76C156.164 215.736 156.244 215.816 156.194 215.916C156.164 216.012 156.382 216.234 156.684 216.396C164.239 220.208 168.67 222.069 169.737 221.905C171.138 221.69 172.71 220.037 179.271 211.885C180.5 210.355 182.15 208.345 182.927 207.391C184.796 205.185 195.026 190.825 197.863 186.482C202.728 178.959 203.435 177.856 205.608 174.192C206.853 172.082 208.052 170.093 208.266 169.737C215.172 158.156 220.77 145.548 225.08 131.913C226.776 126.449 227.573 123.137 228.402 118.083C228.984 114.571 229.403 109.929 229.328 107.952C229.298 106.799 229.571 106.527 230.212 107.098C230.691 107.51 237.09 110.944 237.455 110.956C237.596 110.98 237.993 111.174 238.304 111.403C239.23 112.046 242.253 112.969 244.413 113.215C250.692 113.985 256.057 112.258 258.177 108.81C259.02 107.432 259.53 105.551 259.471 104.08C259.377 101.992 257.504 99.2035 254.834 97.1153C253.948 96.4413 253.873 96.1301 254.563 96.0241C255.253 95.9181 258.887 93.9262 259.935 93.0934C264.273 89.5597 263.69 83.8227 258.7 81.1909C257.402 80.512 256.521 80.4147 253.917 80.6545L251.606 80.8713L253.163 78.4344C256.926 72.5149 259.031 67.4735 259.517 63.2363C260.171 57.5397 258.498 53.1952 254.547 50.2412C252.756 48.9202 251.752 48.4972 249.761 48.2937C248.461 48.1641 245.276 48.6073 243.972 49.1326ZM250.601 52.022C254.275 53.1678 256.447 57.2051 256.032 62.1471C255.664 66.5505 253.329 71.7195 247.928 80.1345C246.145 82.8606 245.978 83.5098 246.742 84.5473C247.436 85.4352 248.19 85.4576 252.164 84.6846C255.478 84.059 255.993 84.0041 256.786 84.251C258.008 84.6187 259.021 85.6421 259.355 86.84C259.612 87.7028 259.574 87.893 258.978 88.8408C258.615 89.406 257.794 90.2258 257.158 90.6462C255.4 91.8648 250.685 93.8141 248.627 94.1764C248.495 94.1968 248.117 94.5314 247.792 94.9063C247.37 95.3883 247.232 95.8024 247.31 96.2756C247.482 97.3119 247.909 97.6875 249.704 98.4984C250.616 98.9137 251.812 99.538 252.347 99.8728C254.311 101.143 256.02 103.633 255.948 105.124C255.905 105.963 255.029 107.415 254.176 108.055C251.355 110.153 245.981 110.447 241.287 108.786C239.349 108.089 231.549 104.177 230.43 103.332L229.414 102.564L228.544 97.8416C227.922 94.4925 227.407 92.328 226.746 90.3944C226.244 88.8754 225.783 87.6048 225.711 87.5698C225.555 87.4554 226.357 84.3026 227.862 79.2151C230.753 69.4053 235.548 60.3458 240.158 55.9822C243.741 52.5667 247.623 51.0921 250.601 52.022ZM190.24 67.3066C192.592 67.2 195.611 67.4058 197.505 67.8327C204.644 69.3946 211.729 73.6716 216.862 79.5196C217.96 80.7846 220.529 84.3439 220.978 85.2694C221.139 85.5455 221.304 85.867 221.35 85.9983C221.413 86.105 221.806 86.9688 222.215 87.9225C223.524 90.8893 224.201 93.051 225.372 98.0742C225.703 99.5273 226.028 103.846 226.028 106.738C226.005 109.771 225.547 115.83 225.134 118.021C224.991 118.807 224.773 119.973 224.656 120.639C223.707 125.942 221.288 133.644 217.906 142.139C217.296 143.689 216.638 145.364 216.441 145.833C215.695 147.799 212.533 154.596 211.062 157.413C202.99 172.827 189.254 193.552 176.73 209.189C175.92 210.215 173.899 212.745 172.261 214.824L169.259 218.591L168.607 218.228C168.232 218.031 166.499 217.189 164.716 216.33C158.082 213.14 156.86 212.496 148.645 207.861C142.364 204.317 140.929 203.497 139.474 202.68C138.622 202.209 137.039 201.319 135.939 200.724C134.84 200.129 133.713 199.516 133.431 199.329C133.153 199.163 131.516 198.212 129.819 197.179C128.103 196.172 126.21 195.051 125.628 194.701C125.024 194.355 123.913 193.694 123.153 193.231C120.956 191.926 112.576 186.577 110.62 185.213C107.174 182.829 98.1753 175.239 92.1735 169.663C76.5952 155.2 66.4677 140.499 62.5473 126.695C61.5658 123.239 60.7799 117.232 60.9778 114.565C61.5086 107.153 64.7807 101.447 71.0144 96.9743C73.6024 95.1189 75.3557 94.1558 78.3966 92.9729C89.3939 88.6466 102.143 89.1402 115.207 94.4394C121.58 97.0213 130.293 102.458 135.296 106.963C139.659 110.894 142.994 114.406 143.128 115.217C143.165 115.442 143.048 116.525 142.864 117.615C142.702 118.705 142.398 121.132 142.247 122.984C141.96 126.079 141.968 126.403 142.346 126.898C142.575 127.188 142.98 127.424 143.253 127.428C144.279 127.433 144.633 126.406 145.418 121.5C146.556 114.179 148.012 109.053 150.633 103.124C155.791 91.4404 161.24 83.4593 168.363 77.2079C173.32 72.8613 177.614 70.3069 182.83 68.6492C185.733 67.7444 187.437 67.4366 190.24 67.3066ZM26.5177 111.075C34.589 111.523 45.3594 115.625 53.0048 121.226C56.3216 123.653 59.2347 126.258 59.5055 127.072C59.6327 127.424 59.9765 128.55 60.2843 129.589C61.1913 132.594 62.1864 135.031 64.5124 140.015C65.534 142.194 68.6997 147.442 70.8213 150.493C71.8011 151.868 72.6043 153.157 72.634 153.336C72.6676 153.54 72.2833 154.108 71.7453 154.584C71.2344 155.08 70.5585 155.807 70.2578 156.2C68.5825 158.33 65.2035 161.462 62.8515 163.096C60.397 164.791 57.9232 165.818 54.8358 166.431C48.9655 167.588 46.1311 166.706 45.6024 163.503C45.3009 161.676 46.1202 159.052 47.3574 157.846C47.849 157.377 48.7593 156.405 49.3735 155.709C50.3906 154.558 50.4727 154.361 50.3388 153.55C50.2122 152.783 50.094 152.617 49.4675 152.413C48.7928 152.191 48.4827 152.239 45.9605 152.973C41.6991 154.205 38.5315 154.345 35.3932 153.418C33.2638 152.797 30.7569 151.147 30.023 149.872C29.5102 148.98 29.4989 148.912 29.7986 147.687C30.0212 146.821 30.3831 146.117 31.038 145.393C32.5256 143.777 33.5929 143.337 37.8316 142.661C41.6504 142.05 42.2273 141.823 42.5447 140.85C42.6367 140.582 42.6222 140.074 42.4742 139.728C42.273 139.204 41.4997 138.791 37.878 137.15C25.7941 131.722 20.2626 127.461 17.7202 121.586C17.0304 120.028 16.5608 116.908 16.856 115.8C17.469 113.302 19.3984 111.873 22.905 111.31C23.9725 111.119 25.5974 111.03 26.5177 111.075Z" fill="#053B4A"/>
<path fill-rule="evenodd" clip-rule="evenodd" d="M247.389 55.3046C246.246 56.1023 244.768 57.7601 243.23 60.0274C242.036 61.7577 241.974 62.4815 242.937 62.9341C243.725 63.2973 243.887 63.1804 246.332 60.3357C247.381 59.114 248.667 57.8079 249.203 57.4714C250.265 56.7321 250.616 56.24 250.496 55.5177C250.311 54.3958 248.835 54.2762 247.389 55.3046Z" fill="#053B4A"/>
<path fill-rule="evenodd" clip-rule="evenodd" d="M238.321 67.013C237.623 68.157 237.609 68.8964 238.255 69.3726C238.905 69.8722 239.3 69.6497 240.26 68.3036C240.924 67.3725 241.105 66.9532 240.941 66.6545C240.233 65.3829 239.21 65.5157 238.321 67.013Z" fill="#053B4A"/>
<path fill-rule="evenodd" clip-rule="evenodd" d="M199.685 75.5664C199.265 75.9063 199.387 77.0635 199.866 77.3571C200.021 77.471 201.002 77.9193 202.01 78.3852C204.661 79.5891 207.323 81.6897 209.886 84.566C211.784 86.716 212.279 87.3745 214.115 90.2466C215.482 92.3383 215.652 92.5439 216.372 92.6387C217.07 92.7393 217.195 92.6742 217.567 92.0422C217.799 91.6612 217.958 91.108 217.913 90.8372C217.672 89.377 213.992 83.5881 212.459 82.2824C212.037 81.9319 211.122 81.0605 210.391 80.3442C208.282 78.2966 205.616 76.5879 203.025 75.6044C201.477 75.0137 200.34 75.0046 199.685 75.5664Z" fill="#053B4A"/>
<path fill-rule="evenodd" clip-rule="evenodd" d="M218.129 97.8999C217.78 98.3898 217.79 98.5954 218.146 99.9195C218.674 101.882 219.057 102.421 219.93 102.379C220.762 102.342 221.026 101.612 220.785 100.155C220.37 97.6468 219.082 96.5578 218.129 97.8999Z" fill="#053B4A"/>
<path fill-rule="evenodd" clip-rule="evenodd" d="M219.649 109.225C219.385 109.54 219.172 110.585 219.008 112.47C218.516 117.851 216.981 124.427 214.567 131.436C213.96 133.23 213.996 134.143 214.695 134.402C215.771 134.764 216.688 133.613 217.89 130.349C219.037 127.301 220.85 121.304 220.915 120.467C220.941 120.073 221.017 119.717 221.094 119.635C221.287 119.444 221.679 116.743 221.765 114.939C221.903 112.622 221.637 110.044 221.203 109.468C220.567 108.626 220.217 108.564 219.649 109.225Z" fill="#053B4A"/>
<path fill-rule="evenodd" clip-rule="evenodd" d="M21.7538 115.821C21.1725 116.723 22.2012 117.84 23.4476 117.648C23.8701 117.583 29.8979 118.58 31.9117 119.037C33.6885 119.435 34.3367 119.359 34.7742 118.689C35.2486 117.966 34.798 117.176 33.6405 116.658C33.098 116.416 32.6137 116.237 32.5461 116.247C32.4785 116.258 31.4406 116.045 30.2319 115.769C27.8831 115.225 24.4827 114.938 22.9913 115.168C22.3682 115.264 21.9912 115.46 21.7538 115.821Z" fill="#053B4A"/>
<path fill-rule="evenodd" clip-rule="evenodd" d="M39.7863 119.582C39.0429 120.736 39.8516 121.627 42.1014 122.161C44.0937 122.64 44.9414 122.394 44.8801 121.342C44.8319 120.356 44.3532 119.945 42.6766 119.439C40.8772 118.884 40.1997 118.918 39.7863 119.582Z" fill="#053B4A"/>
<path fill-rule="evenodd" clip-rule="evenodd" d="M290.235 106.07C289.787 106.07 288.895 106.296 288.241 106.586C286.202 107.483 284.542 109.553 282.931 113.228C281.334 116.872 280.872 120.014 281.664 121.872C282.045 122.764 282.214 122.98 282.81 123.245C284.052 123.799 286.023 123.613 290.02 122.565C294.433 121.401 296.396 120.449 297.559 118.86C298.36 117.773 298.476 116.861 297.929 115.653C297.568 114.851 297.412 114.701 296.612 114.345C296.068 114.103 295.263 113.944 294.523 113.915C293.858 113.899 293.285 113.865 293.233 113.842C293.182 113.819 293.367 113.259 293.636 112.596C294.328 110.878 294.396 109.704 293.831 108.531C293.08 106.956 291.786 106.058 290.235 106.07ZM291.096 109.764C291.396 110.38 291.389 110.395 290.386 112.918C289.842 114.301 289.406 115.572 289.43 115.702C289.516 116.202 290.347 116.393 292.243 116.334C294.404 116.274 295.597 116.565 295.362 117.101C295.104 117.689 293.895 118.453 292.358 118.993C290.974 119.46 290.411 119.631 288.334 120.15C286.993 120.474 284.615 120.84 284.396 120.742C284.107 120.613 284.062 120.112 284.23 118.522C284.429 116.724 286.247 112.479 287.421 111.055C288.44 109.844 289.259 109.226 289.976 109.124C290.724 109.037 290.742 109.044 291.096 109.764Z" fill="#053B4A"/>
<path fill-rule="evenodd" clip-rule="evenodd" d="M15.7 41.6204C15.459 41.865 15.0313 42.7115 14.7683 43.4779C14.2704 44.9818 13.7108 49.1151 13.9228 49.6893C14.116 50.2123 13.8941 50.1929 12.6043 49.5521C10.3516 48.4693 7.543 48.0412 6.09765 48.5631C5.39212 48.8179 4.59601 49.6193 4.12984 50.5172C2.62357 53.5106 4.22369 56.6858 9.11206 60.3147C14.6138 64.3918 19.3638 65.9569 23.0662 64.8957C23.8076 64.688 24.5997 64.402 24.8135 64.2441C25.3924 63.8569 25.9556 62.7458 25.9872 61.9841C26.0309 61.1 24.0131 52.8391 23.0128 49.7042C21.5992 45.2951 19.565 41.9015 17.8956 41.1802C17.018 40.8087 16.4352 40.9198 15.7 41.6204ZM17.7547 44.4927C18.9658 45.8727 20.7496 50.227 21.7232 54.1817C23.2626 60.4603 23.4673 61.3355 23.4052 61.6936C23.3861 61.9575 23.1665 62.1549 22.7876 62.2917C21.9106 62.6084 19.7227 62.6482 18.4865 62.3631C14.7554 61.4972 8.35465 56.8352 6.96168 53.9603C6.54023 53.0847 6.56688 52.0492 7.03614 51.6809C7.54031 51.3019 9.16599 51.4839 11.113 52.165C12.1597 52.5185 13.3402 52.8631 13.7489 52.9124C14.174 52.9559 14.6982 53.1623 14.9618 53.3447C15.4524 53.7209 16.1508 53.6074 16.3194 53.1115C16.3674 52.976 16.389 52.1373 16.3641 51.2779C16.3081 49.0662 16.6427 46.2783 17.162 44.7273C17.3212 44.2159 17.4583 44.1664 17.7547 44.4927Z" fill="#053B4A"/>
<path fill-rule="evenodd" clip-rule="evenodd" d="M227.97 225.047C224.372 224.727 221.577 227.073 219.244 232.349C217.559 236.15 216.706 240.503 216.661 245.616C216.633 248.973 216.66 249.465 217.097 251.946C217.605 254.818 218.353 256.637 219.362 257.486C220.675 258.571 222.142 258.745 224.117 258.039C224.702 257.818 227.216 256.673 229.693 255.47C232.154 254.261 235.261 252.778 236.584 252.122C240.086 250.434 243.126 248.74 245.016 247.437C248.519 245.007 250.404 241.494 249.754 238.619C248.646 233.774 242.582 232.778 235.977 236.353L234.409 237.198L234.263 235.028C234.045 231.401 232.546 227.866 230.485 226.125C229.552 225.331 229.087 225.143 227.97 225.047ZM229 228.955C229.751 229.791 230.661 231.7 230.898 232.969C231.199 234.647 231.305 236.861 231.098 237.751C230.831 238.915 230.925 240 231.299 240.308C232.306 241.118 232.829 240.989 236.173 239.151C238.771 237.721 240.837 237.038 242.783 237.003C245.597 236.933 247.02 237.767 247.058 239.49C247.084 241.146 245.866 243.09 243.8 244.696C241.608 246.406 239.088 247.751 231.102 251.512C229.414 252.304 227.193 253.34 226.167 253.825C223.623 255.038 222.037 255.555 221.543 255.335C220.031 254.662 219.196 246.69 220.016 240.879C220.925 234.586 223.671 229.152 226.382 228.296C227.64 227.887 228.152 228.016 229 228.955Z" fill="#053B4A"/>
</svg>
