<svg width="138" height="208" viewBox="0 0 138 208" fill="none" xmlns="http://www.w3.org/2000/svg">
<path fill-rule="evenodd" clip-rule="evenodd" d="M120.598 0.213097C119.415 0.55589 118.11 2.15326 117.913 3.48012C117.691 4.9539 117.913 6.03358 118.676 7.21354C120.179 9.52214 122.37 9.96521 124.685 8.44246C126.853 7.01765 127.344 3.33321 125.597 1.44202C124.44 0.189779 122.422 -0.327909 120.598 0.213097ZM122.84 3.38218C123.654 3.70166 124.318 5.14978 123.949 5.8377C123.628 6.42768 122.716 7.06662 122.2 7.06662C121.683 7.06662 121.115 6.2318 120.918 5.14978C120.771 4.48752 120.869 4.21701 121.363 3.72498C122.052 3.03706 122.003 3.06271 122.84 3.38218Z" fill="#053B4A"/>
<path fill-rule="evenodd" clip-rule="evenodd" d="M88.9305 8.22064C87.3286 9.8903 83.8327 20.3793 82.577 27.2305L82.0111 30.325L79.3991 30.3739C75.9008 30.4229 71.839 31.0362 64.4731 32.6592C62.0341 33.2002 59.1041 33.7902 57.9699 33.9861C55.7274 34.3545 54.8669 34.7719 54.4483 35.6814C54.0531 36.5162 54.3735 37.4257 55.3603 38.1859C57.1585 39.634 66.2947 44.4005 70.5085 46.1191C71.9372 46.7091 73.2421 47.299 73.4385 47.446C73.7098 47.6675 73.7589 48.4277 73.6115 51.6458C73.4642 55.5028 73.6864 61.2486 74.2265 66.1363C74.5469 69.2075 75.2858 71.5651 76.2212 72.4978C76.8362 73.1111 77.0583 73.1858 77.9446 73.0622C78.7069 72.9642 79.2261 72.6704 80.1357 71.7609C80.7998 71.0987 81.3423 70.483 81.3423 70.3851C81.3423 70.2615 81.9339 69.2798 82.6471 68.1511C84.4454 65.3761 87.9927 59.1872 90.0365 55.2066C90.9976 53.39 91.7856 51.8673 91.809 51.8183C91.8347 51.7927 93.4599 53.3411 95.4055 55.2579C99.6918 59.4834 103.485 62.9696 104.963 64.026C106.787 65.3038 108.657 64.9587 109.125 63.2144C109.42 62.207 108.928 56.8296 108.19 52.9959C107.722 50.6384 106.934 47.0029 106.787 46.6088C106.712 46.4129 106.613 45.9209 106.564 45.5291C106.515 45.1607 106.293 44.13 106.097 43.2438C105.9 42.3833 105.727 41.6231 105.727 41.5742C105.727 41.5252 106.417 41.0588 107.278 40.5668C109.125 39.4381 111.244 37.9643 111.342 37.7172C111.391 37.5936 111.538 37.5213 111.688 37.5213C112.623 37.5213 117.574 32.6825 120.209 29.1963C122.253 26.4936 122.475 24.677 120.873 23.6207C120.16 23.1543 120.232 23.1543 113.732 24.136C108.854 24.8729 109.102 24.8496 103.436 25.2414C99.6918 25.5119 99.002 25.5119 98.7073 25.218C98.5343 25.0222 97.9684 23.6463 97.475 22.1726C95.775 17.089 93.3875 10.408 92.9923 9.6711C92.3024 8.27194 91.4396 7.55837 90.4551 7.55837C89.7933 7.55604 89.3981 7.7286 88.9305 8.22064ZM92.3048 18.4625C95.0384 26.4703 95.3587 27.1815 96.6144 28.1633C97.7228 28.9981 97.7229 28.9981 99.7432 28.8255C100.877 28.7509 104.471 28.2356 107.748 27.7202C111.047 27.1792 114.225 26.6895 114.84 26.6149C115.455 26.5402 116.465 26.419 117.132 26.3444C117.796 26.2464 118.289 26.2954 118.289 26.419C118.289 26.8854 113.463 31.7241 111.148 33.592C108.437 35.7537 105.458 37.7918 104.301 38.2582C102.996 38.7735 102.28 39.8066 102.28 41.2057C102.28 41.868 102.872 44.9881 103.611 48.1315C104.867 53.4367 105.877 59.3061 105.68 59.9218C105.533 60.3392 101.492 56.8016 97.3557 52.6275C93.8575 49.1156 92.6508 48.0826 91.961 48.0826C91.6173 48.0826 89.7933 49.8758 88.8088 51.1537C88.4137 51.6947 87.2561 53.488 86.2483 55.132C85.2381 56.7783 83.9824 58.8397 83.4399 59.7259C82.8974 60.6097 81.6416 62.6478 80.6572 64.2708C77.8254 68.9137 78.0452 68.839 77.5775 65.4997C76.6912 59.1382 76.42 53.3177 76.7894 48.5513L76.9859 46.1681L76.0248 45.1607C75.211 44.3002 74.1774 43.7615 69.4001 41.6978C66.297 40.3476 62.8479 38.7992 61.7886 38.2349C60.0652 37.3254 59.8921 37.1785 60.3598 37.0059C61.5664 36.5629 70.581 34.8442 73.0924 34.5994C74.5937 34.4268 77.2057 34.084 78.9291 33.8135C81.3914 33.4218 82.1795 33.3705 82.598 33.592C82.9675 33.8135 83.2879 33.8135 83.6831 33.641C84.1274 33.4451 84.3472 32.953 84.7424 31.2088C85.037 30.0311 85.334 28.6553 85.4322 28.1889C85.7268 26.5193 87.3029 20.8947 88.264 18.0707C89.5688 14.2137 90.2096 12.7912 90.4551 13.2319C90.558 13.4278 91.3951 15.7854 92.3048 18.4625Z" fill="#053B4A"/>
<path fill-rule="evenodd" clip-rule="evenodd" d="M45.6298 8.56294C44.8417 8.88241 43.4878 10.1836 43.0178 11.0441C42.2555 12.5179 42.8447 15.1203 44.2992 16.5218C46.343 18.462 49.2496 18.2404 50.7532 16.0554C51.6886 14.6796 51.7143 13.7212 50.8281 11.8066C49.3993 8.75882 47.7484 7.72811 45.6298 8.56294ZM48.1178 13.3294C48.4616 14.0663 48.6837 14.7285 48.6346 14.8032C48.34 15.097 46.9112 14.8755 46.5418 14.4837C45.9268 13.7958 45.7794 12.8374 46.2471 12.371C46.9837 11.6574 47.4514 11.9046 48.1178 13.3294Z" fill="#053B4A"/>
<path fill-rule="evenodd" clip-rule="evenodd" d="M106.591 81.289C105.532 81.6831 104.054 82.8864 103.612 83.7702C102.971 84.9735 103.242 87.1585 104.178 88.2894C105.139 89.4927 106.837 90.5234 108.069 90.647C110.113 90.8686 112.306 89.6653 113.265 87.7974C113.856 86.6921 113.807 84.7776 113.19 83.5486C112.5 82.2707 112.255 82.0749 110.506 81.4849C108.906 80.9462 107.725 80.8972 106.591 81.289ZM110.583 84.3835C111.174 84.9968 110.903 86.6175 110.089 87.2331C108.611 88.3151 106.222 87.5036 106.222 85.9062C106.222 85.2673 106.935 84.3835 107.699 84.113C108.389 83.8448 110.213 84.0407 110.583 84.3835Z" fill="#053B4A"/>
<path fill-rule="evenodd" clip-rule="evenodd" d="M41.532 82.2808C40.9583 82.8916 40.7249 84.2351 41.0455 85.0341C41.3992 85.923 41.8815 86.4368 42.7098 86.8128C44.3374 87.544 45.7527 87.0049 46.5961 85.3417C47.3863 83.7848 46.4646 81.5855 44.8327 81.1704C43.7517 80.8959 42.4123 81.3322 41.532 82.2808ZM43.8697 83.2208C44.446 83.1057 45.3052 83.664 45.3163 84.1738C45.3237 84.6123 45.0042 85.289 44.7046 85.4736C44.405 85.6581 43.8023 85.4025 43.3341 84.8782C43.0319 84.567 43.0002 84.3834 43.1252 83.9369C43.2998 83.3126 43.2798 83.3442 43.8697 83.2208Z" fill="#ADD7DA"/>
<path fill-rule="evenodd" clip-rule="evenodd" d="M27.4349 97.9969C27.0537 99.4851 28.4581 106.491 29.9698 110.7L30.6534 112.601L29.1585 113.56C27.1509 114.835 25.0017 116.622 21.271 120.141C20.037 121.309 18.5348 122.678 17.9428 123.191C16.7659 124.193 16.4045 124.729 16.4595 125.378C16.5036 125.977 16.986 126.362 17.8052 126.428C19.3185 126.581 26.1604 125.937 29.1593 125.377C30.1785 125.191 31.126 125.049 31.2876 125.06C31.5169 125.084 31.7937 125.484 32.7597 127.303C33.9345 129.474 35.94 132.549 37.8492 135.039C39.0378 136.611 40.2354 137.641 41.0812 137.82C41.6373 137.937 41.7902 137.899 42.2625 137.514C42.6714 137.189 42.8757 136.842 43.1048 136.018C43.2726 135.418 43.3853 134.886 43.3533 134.832C43.313 134.764 43.3345 134.014 43.3783 133.14C43.512 130.975 43.5422 126.311 43.424 123.397C43.3865 122.056 43.3449 120.939 43.3424 120.904C43.3489 120.881 44.7948 121.151 46.5464 121.509C50.4062 122.299 53.7391 122.859 54.9391 122.912C56.4116 122.962 57.381 122.105 57.0817 120.981C56.923 120.323 54.8823 117.546 53.2025 115.705C52.1618 114.577 50.5183 112.863 50.3043 112.699C50.197 112.618 49.9795 112.383 49.8231 112.186C49.6744 112.001 49.2091 111.514 48.806 111.098C48.4113 110.696 48.0629 110.34 48.0469 110.313C48.0309 110.286 48.2775 109.784 48.6146 109.207C49.3145 107.928 50.0585 106.363 50.0346 106.192C50.0226 106.107 50.0842 106.014 50.1708 105.961C50.7118 105.627 51.9947 101.204 52.3803 98.3497C52.6796 96.1366 52.2146 95.0601 50.943 95.0518C50.3781 95.0503 50.42 95.0244 46.9803 97.8833C44.3994 100.029 44.5352 99.9274 41.3857 102.165C39.3085 103.649 38.9094 103.895 38.643 103.839C38.4789 103.793 37.7021 103.24 36.9353 102.607C34.2912 100.423 30.7276 97.6071 30.2583 97.3436C29.4022 96.8217 28.6699 96.7379 28.1005 97.0892C27.7169 97.3241 27.5447 97.5598 27.4349 97.9969ZM32.7325 102.415C36.9298 105.836 37.3474 106.112 38.3945 106.203C39.3084 106.266 39.3084 106.266 40.4207 105.45C41.0524 105.004 42.9631 103.439 44.6898 101.987C46.4216 100.512 48.0999 99.1091 48.4313 98.8486C48.7626 98.5882 49.3074 98.1611 49.6685 97.8823C50.0207 97.5915 50.3221 97.4423 50.3624 97.5102C50.5148 97.7662 49.3036 102.145 48.5747 103.997C47.7132 106.151 46.6557 108.333 46.1385 109.002C45.5521 109.75 45.4756 110.573 45.9327 111.341C46.149 111.705 47.5105 113.206 48.9649 114.668C51.4243 117.133 53.9261 119.994 54.0136 120.402C54.0647 120.684 50.5717 120.184 46.8153 119.369C43.6444 118.689 42.609 118.553 42.21 118.799C42.0111 118.922 41.5419 120.557 41.3899 121.61C41.338 122.048 41.2543 123.445 41.2083 124.708C41.1618 125.972 41.1089 127.552 41.0845 128.232C41.0594 128.911 40.9989 130.478 40.9596 131.72C40.8383 135.28 40.941 135.16 39.5796 133.494C36.9888 130.318 34.9305 127.219 33.5871 124.471L32.9221 123.092L32.0371 122.882C31.2853 122.7 30.5114 122.773 27.0738 123.345C24.8377 123.711 22.3367 124.092 21.5396 124.16C20.2456 124.276 20.0975 124.257 20.3117 123.996C20.8649 123.322 25.518 119.161 26.8907 118.131C27.7028 117.5 29.1017 116.38 30.0102 115.616C31.3066 114.522 31.7457 114.213 32.0602 114.185C32.3463 114.175 32.5316 114.061 32.7038 113.825C32.8968 113.559 32.8632 113.21 32.522 112.112C32.3077 111.36 32.0301 110.499 31.9345 110.208C31.5595 109.186 30.6338 105.536 30.2672 103.642C29.7619 101.059 29.6679 100.05 29.9539 100.204C30.0774 100.275 31.3318 101.27 32.7325 102.415Z" fill="#ADD7DA"/>
<path fill-rule="evenodd" clip-rule="evenodd" d="M2.7822 113.172C2.42971 113.629 2.07061 114.827 2.07989 115.468C2.12054 116.55 3.31514 117.77 4.61816 118.02C6.43955 118.356 8.0532 117.196 8.20953 115.459C8.30135 114.368 8.00224 113.833 6.86077 113.097C5.03322 111.933 3.73772 111.956 2.7822 113.172ZM5.78742 114.902C6.2283 115.184 6.57418 115.469 6.57014 115.527C6.49549 115.794 5.59402 116.183 5.25131 116.099C4.66912 115.941 4.26961 115.467 4.3881 115.044C4.58162 114.389 4.93393 114.357 5.78742 114.902Z" fill="#ADD7DA"/>
<path fill-rule="evenodd" clip-rule="evenodd" d="M62.1228 132.26C61.6393 132.854 61.178 134.042 61.2111 134.685C61.2335 135.573 62.1031 136.676 63.0126 136.963C63.9605 137.28 65.2778 137.24 66.0301 136.869C67.2833 136.261 68.158 134.818 68.1025 133.451C68.0837 132.633 67.4306 131.6 66.6729 131.146C65.8574 130.691 65.6516 130.671 64.4485 130.971C63.3486 131.246 62.6503 131.641 62.1228 132.26ZM65.4388 132.534C65.9808 132.66 66.3529 133.646 66.0836 134.274C65.5827 135.395 63.9371 135.802 63.4159 134.926C63.2074 134.575 63.3311 133.836 63.6847 133.414C63.9957 133.021 65.1135 132.478 65.4388 132.534Z" fill="#ADD7DA"/>
<path fill-rule="evenodd" clip-rule="evenodd" d="M106.127 125.281C105.553 125.891 105.319 127.235 105.64 128.034C105.994 128.923 106.476 129.437 107.304 129.813C108.932 130.544 110.347 130.005 111.191 128.341C111.981 126.785 111.059 124.585 109.427 124.17C108.346 123.896 107.007 124.332 106.127 125.281ZM108.464 126.221C109.041 126.105 109.9 126.664 109.911 127.174C109.918 127.612 109.599 128.289 109.299 128.473C109 128.658 108.397 128.402 107.929 127.878C107.626 127.567 107.595 127.383 107.72 126.937C107.894 126.312 107.874 126.344 108.464 126.221Z" fill="#ADD7DA"/>
<path fill-rule="evenodd" clip-rule="evenodd" d="M92.0296 140.997C91.6485 142.485 93.0528 149.491 94.5646 153.7L95.2481 155.601L93.7532 156.56C91.7456 157.835 89.5964 159.621 85.8658 163.141C84.6317 164.309 83.1295 165.678 82.5375 166.19C81.3607 167.193 80.9993 167.729 81.0542 168.378C81.0984 168.977 81.5808 169.362 82.3999 169.427C83.9132 169.581 90.7551 168.937 93.754 168.377C94.7732 168.191 95.7207 168.049 95.8824 168.059C96.1116 168.084 96.3884 168.484 97.3544 170.303C98.5292 172.473 100.535 175.548 102.444 178.039C103.633 179.611 104.83 180.641 105.676 180.819C106.232 180.937 106.385 180.898 106.857 180.514C107.266 180.188 107.47 179.842 107.7 179.018C107.867 178.417 107.98 177.886 107.948 177.832C107.908 177.764 107.929 177.014 107.973 176.14C108.107 173.975 108.137 169.311 108.019 166.396C107.981 165.056 107.94 163.939 107.937 163.904C107.944 163.881 109.39 164.151 111.141 164.509C115.001 165.299 118.334 165.859 119.534 165.911C121.006 165.962 121.976 165.105 121.676 163.981C121.518 163.322 119.477 160.545 117.797 158.705C116.756 157.577 115.113 155.863 114.899 155.699C114.792 155.618 114.574 155.383 114.418 155.185C114.269 155.001 113.804 154.514 113.401 154.098C113.006 153.695 112.658 153.34 112.642 153.313C112.626 153.286 112.872 152.784 113.209 152.207C113.909 150.928 114.653 149.363 114.629 149.192C114.617 149.106 114.679 149.014 114.766 148.961C115.307 148.627 116.589 144.204 116.975 141.35C117.274 139.136 116.809 138.06 115.538 138.052C114.973 138.05 115.015 138.024 111.575 140.883C108.994 143.028 109.13 142.927 105.98 145.164C103.903 146.649 103.504 146.895 103.238 146.839C103.074 146.793 102.297 146.24 101.53 145.607C98.8859 143.423 95.3223 140.607 94.853 140.343C93.9969 139.821 93.2646 139.738 92.6952 140.089C92.3116 140.324 92.1394 140.56 92.0296 140.997ZM97.3273 145.415C101.525 148.836 101.942 149.112 102.989 149.203C103.903 149.265 103.903 149.265 105.015 148.45C105.647 148.004 107.558 146.438 109.284 144.986C111.016 143.512 112.695 142.109 113.026 141.848C113.357 141.588 113.902 141.161 114.263 140.882C114.615 140.591 114.917 140.442 114.957 140.51C115.11 140.766 113.898 145.145 113.169 146.996C112.308 149.15 111.25 151.332 110.733 152.002C110.147 152.75 110.07 153.573 110.527 154.341C110.744 154.704 112.105 156.206 113.56 157.668C116.019 160.132 118.521 162.994 118.608 163.402C118.659 163.684 115.166 163.184 111.41 162.369C108.239 161.689 107.204 161.553 106.805 161.799C106.606 161.921 106.137 163.557 105.985 164.61C105.933 165.048 105.849 166.445 105.803 167.707C105.757 168.972 105.704 170.552 105.679 171.232C105.654 171.91 105.594 173.477 105.554 174.72C105.433 178.279 105.536 178.16 104.174 176.494C101.584 173.317 99.5252 170.219 98.1818 167.47L97.5169 166.092L96.6318 165.882C95.88 165.7 95.1062 165.773 91.6685 166.345C89.4325 166.711 86.9315 167.092 86.1344 167.16C84.8404 167.276 84.6923 167.257 84.9064 166.995C85.4597 166.322 90.1127 162.161 91.4855 161.13C92.2975 160.5 93.6964 159.379 94.605 158.616C95.9013 157.522 96.3404 157.213 96.6549 157.185C96.941 157.175 97.1263 157.06 97.2985 156.825C97.4915 156.559 97.458 156.21 97.1167 155.111C96.9025 154.36 96.6248 153.498 96.5292 153.207C96.1542 152.186 95.2285 148.535 94.8619 146.642C94.3567 144.059 94.2626 143.049 94.5486 143.204C94.6721 143.274 95.9265 144.27 97.3273 145.415Z" fill="#ADD7DA"/>
<path fill-rule="evenodd" clip-rule="evenodd" d="M67.3769 156.172C67.0244 156.629 66.6653 157.827 66.6746 158.468C66.7153 159.55 67.9099 160.769 69.2129 161.02C71.0343 161.356 72.6479 160.196 72.8043 158.458C72.8961 157.368 72.597 156.832 71.4555 156.097C69.6279 154.933 68.3325 154.956 67.3769 156.172ZM70.3822 157.902C70.823 158.184 71.1689 158.468 71.1649 158.527C71.0902 158.794 70.1888 159.182 69.846 159.099C69.2638 158.941 68.8643 158.467 68.9828 158.043C69.1763 157.388 69.5287 157.357 70.3822 157.902Z" fill="#ADD7DA"/>
<path fill-rule="evenodd" clip-rule="evenodd" d="M126.717 175.26C126.234 175.854 125.773 177.042 125.806 177.684C125.828 178.573 126.698 179.676 127.607 179.963C128.555 180.28 129.872 180.24 130.625 179.868C131.878 179.261 132.753 177.818 132.697 176.451C132.678 175.633 132.025 174.6 131.268 174.146C130.452 173.691 130.246 173.671 129.043 173.971C127.943 174.246 127.245 174.64 126.717 175.26ZM130.033 175.534C130.575 175.66 130.947 176.646 130.678 177.274C130.177 178.395 128.532 178.802 128.01 177.926C127.802 177.575 127.926 176.835 128.279 176.414C128.59 176.021 129.708 175.478 130.033 175.534Z" fill="#ADD7DA"/>
</svg>
