<svg width="18" height="18" viewBox="0 0 18 18" fill="none" xmlns="http://www.w3.org/2000/svg">
<path d="M9.0006 11.2121C10.222 11.2121 11.2121 10.222 11.2121 9.0006C11.2121 7.7792 10.222 6.78906 9.0006 6.78906C7.7792 6.78906 6.78906 7.7792 6.78906 9.0006C6.78906 10.222 7.7792 11.2121 9.0006 11.2121Z" stroke="currentColor" stroke-width="1.5" stroke-miterlimit="10" stroke-linecap="round" stroke-linejoin="round"/>
<path d="M1.8125 6.2364V3.47198C1.8125 2.86381 2.3101 2.36621 2.91827 2.36621H5.68269" stroke="currentColor" stroke-width="1.5" stroke-miterlimit="10" stroke-linecap="round" stroke-linejoin="round"/>
<path d="M5.68269 15.6348H2.91827C2.3101 15.6348 1.8125 15.1372 1.8125 14.5291V11.7646" stroke="currentColor" stroke-width="1.5" stroke-miterlimit="10" stroke-linecap="round" stroke-linejoin="round"/>
<path d="M16.1876 11.7646V14.5291C16.1876 15.1372 15.69 15.6348 15.0818 15.6348H12.3174" stroke="currentColor" stroke-width="1.5" stroke-miterlimit="10" stroke-linecap="round" stroke-linejoin="round"/>
<path d="M12.3174 2.36621H15.0818C15.69 2.36621 16.1876 2.86381 16.1876 3.47198V6.2364" stroke="currentColor" stroke-width="1.5" stroke-miterlimit="10" stroke-linecap="round" stroke-linejoin="round"/>
</svg>
