<svg width="17" height="15" viewBox="0 0 17 15" fill="none" xmlns="http://www.w3.org/2000/svg">
<path d="M4.50667 2.58301C4.50667 2.08573 4.70421 1.60881 5.05584 1.25718C5.40747 0.905552 5.88439 0.708008 6.38167 0.708008H7.70083C8.19042 0.707867 8.66063 0.899222 9.011 1.24118C9.36136 1.58313 9.56408 2.04857 9.57583 2.53801C9.765 2.39217 9.98583 2.28134 10.2308 2.21551L12.1083 1.71217C12.3462 1.64841 12.5943 1.63212 12.8384 1.66424C13.0826 1.69636 13.318 1.77626 13.5313 1.89938C13.7446 2.02249 13.9315 2.18642 14.0814 2.38179C14.2313 2.57715 14.3413 2.80014 14.405 3.03801L16.6708 11.4913C16.7994 11.9716 16.7319 12.4832 16.4833 12.9138C16.2346 13.3443 15.8252 13.6585 15.345 13.7872L13.4667 14.2905C12.9864 14.4193 12.4746 14.3521 12.0439 14.1036C11.6132 13.8551 11.2989 13.4458 11.17 12.9655L9.57667 7.01884V12.3755C9.57667 12.8728 9.37912 13.3497 9.02749 13.7013C8.67586 14.053 8.19895 14.2505 7.70167 14.2505H6.38167C5.92031 14.2513 5.47501 14.0812 5.13167 13.773C4.78833 14.0812 4.34302 14.2513 3.88167 14.2505H1.9375C1.6912 14.2505 1.44732 14.202 1.21978 14.1077C0.992236 14.0134 0.785501 13.8752 0.61138 13.701C0.43726 13.5268 0.299165 13.32 0.204987 13.0925C0.110808 12.8649 0.0623907 12.621 0.0625002 12.3747V4.45801C0.0625002 3.96073 0.260044 3.48381 0.611675 3.13218C0.963306 2.78055 1.44022 2.58301 1.9375 2.58301H3.88167C4.10083 2.58301 4.31167 2.62051 4.50667 2.68967V2.58301ZM4.50667 12.3747V4.43967C4.5019 4.27711 4.43395 4.12281 4.31725 4.00954C4.20055 3.89626 4.0443 3.83294 3.88167 3.83301H1.9375C1.77174 3.83301 1.61277 3.89886 1.49556 4.01607C1.37835 4.13328 1.3125 4.29225 1.3125 4.45801V12.3747C1.3125 12.7197 1.5925 12.9997 1.9375 12.9997H3.88167C4.04458 12.9997 4.20108 12.9362 4.31782 12.8225C4.43456 12.7089 4.50232 12.5542 4.50667 12.3913V12.3747ZM6.38167 12.9997H7.70083C7.86659 12.9997 8.02556 12.9338 8.14277 12.8166C8.25998 12.6994 8.32583 12.5404 8.32583 12.3747V2.58301C8.32583 2.41725 8.25998 2.25828 8.14277 2.14107C8.02556 2.02386 7.86659 1.95801 7.70083 1.95801H6.38167C6.21591 1.95801 6.05693 2.02386 5.93972 2.14107C5.82251 2.25828 5.75667 2.41725 5.75667 2.58301V12.3913C5.76101 12.5542 5.82877 12.7089 5.94551 12.8225C6.06226 12.9362 6.21875 12.9997 6.38167 12.9997ZM10.1125 4.18884L12.3767 12.6405C12.3979 12.7198 12.4346 12.7941 12.4846 12.8592C12.5346 12.9244 12.597 12.979 12.6681 13.02C12.7392 13.061 12.8177 13.0876 12.8991 13.0983C12.9805 13.1089 13.0632 13.1035 13.1425 13.0822L15.02 12.5788C15.18 12.5359 15.3163 12.4312 15.3991 12.2877C15.4819 12.1443 15.5044 11.9739 15.4617 11.8138L13.1983 3.36217C13.1554 3.20222 13.0507 3.06585 12.9072 2.98304C12.7638 2.90023 12.5933 2.87774 12.4333 2.92051L10.555 3.42301C10.4757 3.44428 10.4014 3.48096 10.3363 3.53096C10.2712 3.58097 10.2165 3.64331 10.1755 3.71443C10.1345 3.78554 10.1079 3.86405 10.0972 3.94545C10.0866 4.02685 10.0912 4.10956 10.1125 4.18884Z" fill="currentColor"/>
</svg>
