<svg width="16" height="16" viewBox="0 0 16 16" fill="none" xmlns="http://www.w3.org/2000/svg">
<path fill-rule="evenodd" clip-rule="evenodd" d="M7.68125 2.43715C7.90911 1.87344 8.33458 1.41209 8.87804 1.13945C9.42151 0.866815 10.0457 0.801575 10.6338 0.955945C11.2219 1.11032 11.7336 1.47371 12.0731 1.97812C12.4126 2.48253 12.5566 3.09337 12.4782 3.69631C12.3998 4.29926 12.1044 4.85297 11.6472 5.25381C11.19 5.65465 10.6025 5.87515 9.99444 5.87402C9.38643 5.8729 8.79966 5.65023 8.34397 5.2477C7.88828 4.84518 7.5949 4.29038 7.51875 3.68715H3.75C3.25272 3.68715 2.77581 3.88469 2.42417 4.23632C2.07254 4.58795 1.875 5.06487 1.875 5.56215C1.875 6.05943 2.07254 6.53634 2.42417 6.88797C2.77581 7.2396 3.25272 7.43715 3.75 7.43715H12.5C13.3288 7.43715 14.1237 7.76639 14.7097 8.35244C15.2958 8.93849 15.625 9.73335 15.625 10.5621C15.625 11.3909 15.2958 12.1858 14.7097 12.7719C14.1237 13.3579 13.3288 13.6871 12.5 13.6871H5.60625C5.5301 14.2904 5.23672 14.8452 4.78103 15.2477C4.32534 15.6502 3.73857 15.8729 3.13056 15.874C2.52254 15.8751 1.93496 15.6547 1.47778 15.2538C1.02061 14.853 0.72518 14.2993 0.646797 13.6963C0.568415 13.0934 0.71245 12.4825 1.05194 11.9781C1.39144 11.4737 1.90311 11.1103 2.49121 10.9559C3.0793 10.8016 3.70349 10.8668 4.24696 11.1395C4.79042 11.4121 5.2159 11.8734 5.44375 12.4371H12.5C12.9973 12.4371 13.4742 12.2396 13.8258 11.888C14.1775 11.5363 14.375 11.0594 14.375 10.5621C14.375 10.0649 14.1775 9.58795 13.8258 9.23632C13.4742 8.88469 12.9973 8.68715 12.5 8.68715H3.75C2.9212 8.68715 2.12634 8.35791 1.54029 7.77186C0.95424 7.18581 0.625 6.39095 0.625 5.56215C0.625 4.73335 0.95424 3.93849 1.54029 3.35244C2.12634 2.76639 2.9212 2.43715 3.75 2.43715H7.68125Z" fill="currentColor"/>
</svg>
