<svg width="24" height="24" viewBox="0 0 24 24" fill="none" xmlns="http://www.w3.org/2000/svg">
<path d="M11.9998 20.3996C11.9998 19.5642 11.6582 18.763 11.0502 18.1722C10.4422 17.5815 9.61751 17.2496 8.75765 17.2496H4.43484C3.41574 17.2496 2.90673 17.2496 2.59008 16.942C2.27344 16.6343 2.27344 16.1398 2.27344 15.1496V5.69961C2.27344 4.70946 2.27344 4.21491 2.59008 3.90726C2.90673 3.59961 3.41574 3.59961 4.43484 3.59961H5.51554C8.57177 3.59961 10.101 3.59961 11.0498 4.52256C11.9998 5.44446 11.9998 6.93021 11.9998 9.89961M11.9998 20.3996V9.89961M11.9998 20.3996C11.9998 19.5642 12.3413 18.763 12.9493 18.1722C13.5574 17.5815 14.382 17.2496 15.2419 17.2496H19.5647C20.5838 17.2496 21.0928 17.2496 21.4094 16.942C21.7261 16.6343 21.7261 16.1398 21.7261 15.1496V5.69961C21.7261 4.70946 21.7261 4.21491 21.4094 3.90726C21.0928 3.59961 20.5838 3.59961 19.5647 3.59961H18.484C15.4277 3.59961 13.8985 3.59961 12.9497 4.52256C11.9998 5.44446 11.9998 6.93021 11.9998 9.89961" stroke="currentColor" stroke-width="1.5"/>
</svg>
