<svg width="24" height="24" viewBox="0 0 24 24" fill="none" xmlns="http://www.w3.org/2000/svg">
<g clip-path="url(#clip0_3391_5214)">
<path d="M19.5291 17.4698C19.2362 17.1769 18.7613 17.1769 18.4684 17.4698C18.1755 17.7626 18.1755 18.2375 18.4684 18.5304L19.5291 17.4698ZM22.4683 22.5304C22.7612 22.8233 23.236 22.8233 23.5289 22.5304C23.8218 22.2375 23.8218 21.7626 23.5289 21.4697L22.4683 22.5304ZM9.33378 4.80232C9.74289 4.73752 10.022 4.35334 9.95722 3.94423C9.89242 3.53511 9.50824 3.25599 9.09912 3.32079L9.33378 4.80232ZM4.31941 8.1005C4.25462 8.50961 4.53374 8.89379 4.94285 8.95859C5.35197 9.02339 5.73615 8.74426 5.80095 8.33515L4.31941 8.1005ZM18.9987 18.0001L18.4684 18.5304L22.4683 22.5304L22.9986 22L23.5289 21.4697L19.5291 17.4698L18.9987 18.0001ZM10.9987 19V18.25C6.44231 18.25 2.74866 14.5563 2.74866 10H1.99866H1.24866C1.24866 15.3848 5.61388 19.75 10.9987 19.75V19ZM19.9987 10H19.2487C19.2487 14.5563 15.555 18.25 10.9987 18.25V19V19.75C16.3834 19.75 20.7487 15.3848 20.7487 10H19.9987ZM10.9987 1V1.75C15.555 1.75 19.2487 5.44365 19.2487 10H19.9987H20.7487C20.7487 4.61522 16.3834 0.25 10.9987 0.25V1ZM10.9987 1V0.25C5.61388 0.25 1.24866 4.61522 1.24866 10H1.99866H2.74866C2.74866 5.44365 6.44231 1.75 10.9987 1.75V1ZM9.21645 4.06155L9.09912 3.32079C6.63874 3.71047 4.7091 5.64012 4.31941 8.1005L5.06018 8.21782L5.80095 8.33515C6.08898 6.51661 7.51523 5.09035 9.33378 4.80232L9.21645 4.06155Z" fill="currentColor"/>
</g>
<defs>
<clipPath id="clip0_3391_5214">
<rect width="24" height="24" fill="white" transform="translate(-0.00134277)"/>
</clipPath>
</defs>
</svg>
