<svg width="17" height="23" viewBox="0 0 17 23" fill="none" xmlns="http://www.w3.org/2000/svg">
<path d="M12.7857 5.482H12.0357C12.0357 7.43473 10.4527 9.01772 8.5 9.01772V9.76772V10.5177C11.2811 10.5177 13.5357 8.26315 13.5357 5.482H12.7857ZM8.5 9.76772V9.01772C6.54728 9.01772 4.96429 7.43473 4.96429 5.482H4.21429H3.46429C3.46429 8.26315 5.71885 10.5177 8.5 10.5177V9.76772ZM4.21429 5.482H4.96429C4.96429 3.52928 6.54728 1.94629 8.5 1.94629V1.19629V0.446289C5.71885 0.446289 3.46429 2.70086 3.46429 5.482H4.21429ZM8.5 1.19629V1.94629C10.4527 1.94629 12.0357 3.52928 12.0357 5.482H12.7857H13.5357C13.5357 2.70086 11.2811 0.446289 8.5 0.446289V1.19629ZM5.28571 12.982V13.732H11.7143V12.982V12.232H5.28571V12.982ZM11.7143 21.5534V20.8034H5.28571V21.5534V22.3034H11.7143V21.5534ZM5.28571 21.5534V20.8034C3.33299 20.8034 1.75 19.2204 1.75 17.2677H1H0.25C0.25 20.0489 2.50457 22.3034 5.28571 22.3034V21.5534ZM16 17.2677H15.25C15.25 19.2204 13.667 20.8034 11.7143 20.8034V21.5534V22.3034C14.4954 22.3034 16.75 20.0489 16.75 17.2677H16ZM11.7143 12.982V13.732C13.667 13.732 15.25 15.315 15.25 17.2677H16H16.75C16.75 14.4866 14.4954 12.232 11.7143 12.232V12.982ZM5.28571 12.982V12.232C2.50457 12.232 0.25 14.4866 0.25 17.2677H1H1.75C1.75 15.315 3.33299 13.732 5.28571 13.732V12.982Z" fill="currentColor"/>
</svg>
