<svg width="25" height="24" viewBox="0 0 25 24" fill="none" xmlns="http://www.w3.org/2000/svg">
<g clip-path="url(#clip0_7015_48552)">
<path d="M10.897 3.89454C11.957 3.70182 13.043 3.70182 14.103 3.89454C18.8658 4.76051 22.0798 9.25273 21.3617 14.0401L21.3535 14.0946C19.9028 14.1708 18.75 15.3711 18.75 16.8408V18.8408C18.75 20.3596 19.9812 21.5908 21.5 21.5908C23.0188 21.5908 24.25 20.3596 24.25 18.8408V16.8408C24.25 15.7999 23.6721 14.8952 22.8203 14.4281L22.8451 14.2626C23.6834 8.67386 19.9314 3.42967 14.3713 2.41873C13.1339 2.19376 11.8661 2.19376 10.6287 2.41873C5.06859 3.42967 1.31657 8.67386 2.15488 14.2626L2.17971 14.4281C1.32785 14.8952 0.75 15.7999 0.75 16.8408V18.8408C0.75 20.3596 1.98122 21.5908 3.5 21.5908C5.01878 21.5908 6.25 20.3596 6.25 18.8408V16.8408C6.25 15.3711 5.09716 14.1708 3.64647 14.0946L3.63829 14.0401C2.92018 9.25273 6.13419 4.76051 10.897 3.89454Z" fill="currentColor"/>
<path d="M8.03033 13.3105C7.73744 13.0176 7.26256 13.0176 6.96967 13.3105C6.67678 13.6034 6.67678 14.0782 6.96967 14.3711L7.36967 14.7711C7.43136 14.8328 7.4566 14.8581 7.47686 14.8789C9.07962 16.5283 9.07962 19.1533 7.47686 20.8027C7.4566 20.8235 7.43136 20.8488 7.36967 20.9105L6.96967 21.3105C6.67678 21.6034 6.67678 22.0782 6.96967 22.3711C7.26256 22.664 7.73744 22.664 8.03033 22.3711L8.43574 21.9657C8.4904 21.9111 8.52394 21.8775 8.5526 21.848C10.721 19.6166 10.721 16.065 8.5526 13.8336C8.52388 13.804 8.49048 13.7706 8.43563 13.7158L8.03033 13.3105Z" fill="currentColor"/>
<path d="M18.0303 14.3711C18.3232 14.0782 18.3232 13.6034 18.0303 13.3105C17.7374 13.0176 17.2626 13.0176 16.9697 13.3105L16.5644 13.7157C16.5095 13.7706 16.4761 13.804 16.4474 13.8336C14.279 16.065 14.279 19.6166 16.4474 21.848C16.4761 21.8776 16.5095 21.9109 16.5643 21.9658L16.9697 22.3711C17.2626 22.664 17.7374 22.664 18.0303 22.3711C18.3232 22.0782 18.3232 21.6034 18.0303 21.3105L17.6303 20.9105C17.5686 20.8488 17.5434 20.8235 17.5231 20.8027C15.9204 19.1533 15.9204 16.5283 17.5231 14.8789C17.5434 14.8581 17.5686 14.8328 17.6303 14.7711L18.0303 14.3711Z" fill="currentColor"/>
</g>
<defs>
<clipPath id="clip0_7015_48552">
<rect width="24" height="24" fill="white" transform="translate(0.5)"/>
</clipPath>
</defs>
</svg>
